G04*
G04 #@! TF.GenerationSoftware,Altium Limited,Altium Designer,18.0.7 (293)*
G04*
G04 Layer_Color=65535*
%FSLAX25Y25*%
%MOIN*%
G70*
G01*
G75*
%ADD10C,0.01575*%
%ADD11C,0.00984*%
%ADD12C,0.01000*%
%ADD13C,0.00591*%
%ADD14C,0.00787*%
%ADD15C,0.00500*%
%ADD16C,0.00315*%
%ADD17C,0.01500*%
%ADD18C,0.00800*%
D10*
X192710Y229500D02*
G03*
X192710Y229500I-710J0D01*
G01*
X22710Y127500D02*
G03*
X22710Y127500I-710J0D01*
G01*
X220210Y229500D02*
G03*
X220210Y229500I-710J0D01*
G01*
X49210Y127500D02*
G03*
X49210Y127500I-710J0D01*
G01*
X22710Y377500D02*
G03*
X22710Y377500I-710J0D01*
G01*
X219500Y480210D02*
G03*
X219654Y480193I0J-710D01*
G01*
X49210Y377500D02*
G03*
X49210Y377500I-710J0D01*
G01*
X192210Y479500D02*
G03*
X192210Y479500I-710J0D01*
G01*
X51587Y87276D02*
G03*
X51587Y87276I-787J0D01*
G01*
D11*
X58460Y356112D02*
G03*
X58460Y356112I-492J0D01*
G01*
X98535Y493446D02*
G03*
X98535Y493446I-492J0D01*
G01*
X95535Y441946D02*
G03*
X95535Y441946I-492J0D01*
G01*
X116437Y299898D02*
G03*
X116437Y299898I-492J0D01*
G01*
D12*
X114900Y222200D02*
Y272200D01*
X64900D02*
X114900D01*
X64900Y222200D02*
Y272200D01*
Y222200D02*
X114900D01*
X121200D02*
X171200D01*
X121200D02*
Y272200D01*
X171200D01*
Y222200D02*
Y272200D01*
X43000Y203500D02*
X47600Y198900D01*
X40500Y203500D02*
X43000D01*
X41000Y213500D02*
X48500Y206000D01*
X40500Y213500D02*
X41000D01*
X19800Y439800D02*
X21200Y438400D01*
X35600D01*
X40500Y433500D01*
X19800Y430300D02*
X21600Y428500D01*
X35500D01*
X40500Y423500D01*
X36000Y458600D02*
X39300Y455300D01*
X21200Y458600D02*
X36000D01*
X19200Y456600D02*
X21200Y458600D01*
X19200Y466600D02*
X21200Y468600D01*
X36000D01*
X39300Y465300D01*
X174400Y178600D02*
X205600D01*
X210500Y183500D01*
X205600Y188600D02*
X210500Y193500D01*
X174900Y188600D02*
X205600D01*
X158561Y442865D02*
X164304Y437122D01*
Y429000D02*
Y437122D01*
Y444400D02*
Y452522D01*
X148304Y428900D02*
X179800D01*
X148304Y452522D02*
X179800D01*
X184400Y421100D02*
Y459600D01*
X143704D02*
X184404D01*
X143704Y421100D02*
X184304D01*
X143704D02*
Y459600D01*
X268500Y0D02*
Y526000D01*
X0Y0D02*
Y526000D01*
Y0D02*
X268500D01*
X0Y526000D02*
X268500D01*
X142350Y314531D02*
X148650D01*
X151600Y367632D02*
X152267Y368299D01*
X153599D01*
X154266Y367632D01*
Y366966D01*
X153599Y366299D01*
X152933D01*
X153599D01*
X154266Y365633D01*
Y364966D01*
X153599Y364300D01*
X152267D01*
X151600Y364966D01*
X155599Y368299D02*
Y365633D01*
X156932Y364300D01*
X158265Y365633D01*
Y368299D01*
X159597Y367632D02*
X160264Y368299D01*
X161597D01*
X162263Y367632D01*
Y366966D01*
X161597Y366299D01*
X160930D01*
X161597D01*
X162263Y365633D01*
Y364966D01*
X161597Y364300D01*
X160264D01*
X159597Y364966D01*
X161400Y389499D02*
X162733D01*
X162066D01*
Y385500D01*
X161400D01*
X162733D01*
X164732D02*
X167398Y388166D01*
X170730Y389499D02*
X169397D01*
X168731Y388832D01*
Y386166D01*
X169397Y385500D01*
X170730D01*
X171397Y386166D01*
Y388832D01*
X170730Y389499D01*
X174766Y367632D02*
X174099Y368299D01*
X172766D01*
X172100Y367632D01*
Y364966D01*
X172766Y364300D01*
X174099D01*
X174766Y364966D01*
Y366299D01*
X173433D01*
X176099Y364300D02*
Y368299D01*
X178764Y364300D01*
Y368299D01*
X180097D02*
Y364300D01*
X182097D01*
X182763Y364966D01*
Y367632D01*
X182097Y368299D01*
X180097D01*
X79266Y144099D02*
X76600D01*
Y142099D01*
X77933Y142766D01*
X78599D01*
X79266Y142099D01*
Y140767D01*
X78599Y140100D01*
X77266D01*
X76600Y140767D01*
X80599Y144099D02*
Y141433D01*
X81932Y140100D01*
X83264Y141433D01*
Y144099D01*
X65066Y164232D02*
X64399Y164899D01*
X63066D01*
X62400Y164232D01*
Y163566D01*
X63066Y162899D01*
X64399D01*
X65066Y162233D01*
Y161566D01*
X64399Y160900D01*
X63066D01*
X62400Y161566D01*
X66399Y164899D02*
Y164232D01*
X67732Y162899D01*
X69064Y164232D01*
Y164899D01*
X67732Y162899D02*
Y160900D01*
X70397D02*
Y164899D01*
X73063Y160900D01*
Y164899D01*
X77062Y164232D02*
X76395Y164899D01*
X75063D01*
X74396Y164232D01*
Y161566D01*
X75063Y160900D01*
X76395D01*
X77062Y161566D01*
X60666Y143732D02*
X59999Y144399D01*
X58666D01*
X58000Y143732D01*
Y141067D01*
X58666Y140400D01*
X59999D01*
X60666Y141067D01*
Y142399D01*
X59333D01*
X61999Y140400D02*
Y144399D01*
X64665Y140400D01*
Y144399D01*
X65997D02*
Y140400D01*
X67997D01*
X68663Y141067D01*
Y143732D01*
X67997Y144399D01*
X65997D01*
X150300Y411400D02*
Y417398D01*
X153299D01*
X154299Y416398D01*
Y414399D01*
X153299Y413399D01*
X150300D01*
X152299D02*
X154299Y411400D01*
X160297Y417398D02*
X156298D01*
Y411400D01*
X160297D01*
X156298Y414399D02*
X158297D01*
X166295Y416398D02*
X165295Y417398D01*
X163296D01*
X162296Y416398D01*
Y415399D01*
X163296Y414399D01*
X165295D01*
X166295Y413399D01*
Y412400D01*
X165295Y411400D01*
X163296D01*
X162296Y412400D01*
X172293Y417398D02*
X168294D01*
Y411400D01*
X172293D01*
X168294Y414399D02*
X170293D01*
X174292Y417398D02*
X178291D01*
X176292D01*
Y411400D01*
D13*
X205421Y127516D02*
Y229484D01*
X195579Y127516D02*
Y229484D01*
X205421D01*
X195579Y127516D02*
X205421D01*
X25579D02*
Y229484D01*
X35421Y127516D02*
Y229484D01*
X25579Y127516D02*
X35421D01*
X25579Y229484D02*
X35421D01*
X215421Y127516D02*
Y229484D01*
X205579Y127516D02*
Y229484D01*
X215421D01*
X205579Y127516D02*
X215421D01*
X35579D02*
Y229484D01*
X45421Y127516D02*
Y229484D01*
X35579Y127516D02*
X45421D01*
X35579Y229484D02*
X45421D01*
X25579Y377516D02*
Y479484D01*
X35421Y377516D02*
Y479484D01*
X25579Y377516D02*
X35421D01*
X25579Y479484D02*
X35421D01*
X215421Y377516D02*
Y479484D01*
X205579Y377516D02*
Y479484D01*
X215421D01*
X205579Y377516D02*
X215421D01*
X35579D02*
Y479484D01*
X45421Y377516D02*
Y479484D01*
X35579Y377516D02*
X45421D01*
X35579Y479484D02*
X45421D01*
X205421Y377516D02*
Y479484D01*
X195579Y377516D02*
Y479484D01*
X205421D01*
X195579Y377516D02*
X205421D01*
X140500Y290224D02*
X141025Y290749D01*
X142074D01*
X142599Y290224D01*
Y289699D01*
X142074Y289174D01*
X141550D01*
X142074D01*
X142599Y288650D01*
Y288125D01*
X142074Y287600D01*
X141025D01*
X140500Y288125D01*
X143649Y290749D02*
Y288650D01*
X144698Y287600D01*
X145748Y288650D01*
Y290749D01*
X146797Y290224D02*
X147322Y290749D01*
X148372D01*
X148896Y290224D01*
Y289699D01*
X148372Y289174D01*
X147847D01*
X148372D01*
X148896Y288650D01*
Y288125D01*
X148372Y287600D01*
X147322D01*
X146797Y288125D01*
X142599Y336824D02*
X142074Y337349D01*
X141025D01*
X140500Y336824D01*
Y334725D01*
X141025Y334200D01*
X142074D01*
X142599Y334725D01*
Y335774D01*
X141550D01*
X143649Y334200D02*
Y337349D01*
X145748Y334200D01*
Y337349D01*
X146797D02*
Y334200D01*
X148372D01*
X148896Y334725D01*
Y336824D01*
X148372Y337349D01*
X146797D01*
X166099Y180349D02*
X164000D01*
Y177200D01*
X166099D01*
X164000Y178774D02*
X165050D01*
X167149Y177200D02*
Y180349D01*
X169248Y177200D01*
Y180349D01*
X170297Y177200D02*
X171347D01*
X170822D01*
Y180349D01*
X170297Y179824D01*
X166099Y190349D02*
X164000D01*
Y187200D01*
X166099D01*
X164000Y188774D02*
X165050D01*
X167149Y187200D02*
Y190349D01*
X169248Y187200D01*
Y190349D01*
X172396Y187200D02*
X170297D01*
X172396Y189299D01*
Y189824D01*
X171871Y190349D01*
X170822D01*
X170297Y189824D01*
X216800Y225349D02*
Y222200D01*
X218374D01*
X218899Y222725D01*
Y224824D01*
X218374Y225349D01*
X216800D01*
X219949D02*
X220998D01*
X220473D01*
Y222200D01*
X219949D01*
X220998D01*
X222572D02*
Y225349D01*
X224672Y222200D01*
Y225349D01*
X225721Y222200D02*
X226771D01*
X226246D01*
Y225349D01*
X225721Y224824D01*
X208899Y123524D02*
X208374Y124049D01*
X207325D01*
X206800Y123524D01*
Y121425D01*
X207325Y120900D01*
X208374D01*
X208899Y121425D01*
Y122474D01*
X207850D01*
X209949Y120900D02*
Y124049D01*
X212048Y120900D01*
Y124049D01*
X213097D02*
Y120900D01*
X214671D01*
X215196Y121425D01*
Y123524D01*
X214671Y124049D01*
X213097D01*
X179399Y174638D02*
X178874Y175163D01*
X177825D01*
X177300Y174638D01*
Y174113D01*
X177825Y173589D01*
X178874D01*
X179399Y173064D01*
Y172539D01*
X178874Y172014D01*
X177825D01*
X177300Y172539D01*
X182023Y175163D02*
X180973D01*
X180449Y174638D01*
Y172539D01*
X180973Y172014D01*
X182023D01*
X182548Y172539D01*
Y174638D01*
X182023Y175163D01*
X185696D02*
X183597D01*
Y173589D01*
X184647D01*
X183597D01*
Y172014D01*
X186746Y175163D02*
X188845D01*
X187795D01*
Y172014D01*
X191993D02*
X189894D01*
X191993Y174113D01*
Y174638D01*
X191469Y175163D01*
X190419D01*
X189894Y174638D01*
X177300Y131900D02*
Y135049D01*
X178874D01*
X179399Y134524D01*
Y133474D01*
X178874Y132949D01*
X177300D01*
X180449Y131900D02*
X181498D01*
X180973D01*
Y135049D01*
X180449Y134524D01*
X183072Y135049D02*
X185171D01*
X184122D01*
Y131900D01*
X177300Y141929D02*
Y145077D01*
X178874D01*
X179399Y144552D01*
Y143503D01*
X178874Y142978D01*
X177300D01*
X180449Y141929D02*
X181498D01*
X180973D01*
Y145077D01*
X180449Y144552D01*
X183072Y145077D02*
Y141929D01*
X184647D01*
X185171Y142453D01*
Y142978D01*
X184647Y143503D01*
X183072D01*
X184647D01*
X185171Y144028D01*
Y144552D01*
X184647Y145077D01*
X183072D01*
X177300Y151957D02*
Y155106D01*
X178874D01*
X179399Y154581D01*
Y153531D01*
X178874Y153007D01*
X177300D01*
X182548Y151957D02*
X180449D01*
X182548Y154056D01*
Y154581D01*
X182023Y155106D01*
X180973D01*
X180449Y154581D01*
X183597Y155106D02*
X185696D01*
X184647D01*
Y151957D01*
X177300Y161986D02*
Y165134D01*
X178874D01*
X179399Y164610D01*
Y163560D01*
X178874Y163035D01*
X177300D01*
X182548Y161986D02*
X180449D01*
X182548Y164085D01*
Y164610D01*
X182023Y165134D01*
X180973D01*
X180449Y164610D01*
X183597Y165134D02*
Y161986D01*
X185171D01*
X185696Y162510D01*
Y163035D01*
X185171Y163560D01*
X183597D01*
X185171D01*
X185696Y164085D01*
Y164610D01*
X185171Y165134D01*
X183597D01*
X179399Y184667D02*
X178874Y185191D01*
X177825D01*
X177300Y184667D01*
Y184142D01*
X177825Y183617D01*
X178874D01*
X179399Y183092D01*
Y182568D01*
X178874Y182043D01*
X177825D01*
X177300Y182568D01*
X182023Y185191D02*
X180973D01*
X180449Y184667D01*
Y182568D01*
X180973Y182043D01*
X182023D01*
X182548Y182568D01*
Y184667D01*
X182023Y185191D01*
X185696D02*
X183597D01*
Y183617D01*
X184647D01*
X183597D01*
Y182043D01*
X186746Y185191D02*
X188845D01*
X187795D01*
Y182043D01*
X189894D02*
X190944D01*
X190419D01*
Y185191D01*
X189894Y184667D01*
X178874Y195220D02*
X177825D01*
X177300Y194695D01*
Y192596D01*
X177825Y192071D01*
X178874D01*
X179399Y192596D01*
Y194695D01*
X178874Y195220D01*
X182548Y194695D02*
X182023Y195220D01*
X180973D01*
X180449Y194695D01*
Y192596D01*
X180973Y192071D01*
X182023D01*
X182548Y192596D01*
X183597Y192071D02*
Y195220D01*
X185171D01*
X185696Y194695D01*
Y193646D01*
X185171Y193121D01*
X183597D01*
X186746Y192071D02*
X187795D01*
X187270D01*
Y195220D01*
X186746Y194695D01*
X178874Y205248D02*
X177825D01*
X177300Y204724D01*
Y202625D01*
X177825Y202100D01*
X178874D01*
X179399Y202625D01*
Y204724D01*
X178874Y205248D01*
X182548Y204724D02*
X182023Y205248D01*
X180973D01*
X180449Y204724D01*
Y202625D01*
X180973Y202100D01*
X182023D01*
X182548Y202625D01*
X183597Y202100D02*
Y205248D01*
X185171D01*
X185696Y204724D01*
Y203674D01*
X185171Y203150D01*
X183597D01*
X188845Y202100D02*
X186746D01*
X188845Y204199D01*
Y204724D01*
X188320Y205248D01*
X187270D01*
X186746Y204724D01*
X13900Y134724D02*
X14425Y135249D01*
X15474D01*
X15999Y134724D01*
Y134199D01*
X15474Y133674D01*
X14950D01*
X15474D01*
X15999Y133150D01*
Y132625D01*
X15474Y132100D01*
X14425D01*
X13900Y132625D01*
X17049Y135249D02*
Y133150D01*
X18098Y132100D01*
X19148Y133150D01*
Y135249D01*
X20197Y134724D02*
X20722Y135249D01*
X21771D01*
X22296Y134724D01*
Y134199D01*
X21771Y133674D01*
X21247D01*
X21771D01*
X22296Y133150D01*
Y132625D01*
X21771Y132100D01*
X20722D01*
X20197Y132625D01*
X12999Y143824D02*
X12474Y144349D01*
X11425D01*
X10900Y143824D01*
Y143299D01*
X11425Y142774D01*
X12474D01*
X12999Y142250D01*
Y141725D01*
X12474Y141200D01*
X11425D01*
X10900Y141725D01*
X14049Y144349D02*
Y143824D01*
X15098Y142774D01*
X16148Y143824D01*
Y144349D01*
X15098Y142774D02*
Y141200D01*
X17197D02*
Y144349D01*
X19296Y141200D01*
Y144349D01*
X22445Y143824D02*
X21920Y144349D01*
X20870D01*
X20346Y143824D01*
Y141725D01*
X20870Y141200D01*
X21920D01*
X22445Y141725D01*
X49599Y135249D02*
X47500D01*
Y133674D01*
X48550Y134199D01*
X49074D01*
X49599Y133674D01*
Y132625D01*
X49074Y132100D01*
X48025D01*
X47500Y132625D01*
X50649Y135249D02*
Y133150D01*
X51698Y132100D01*
X52748Y133150D01*
Y135249D01*
X49399Y143524D02*
X48874Y144049D01*
X47825D01*
X47300Y143524D01*
Y141425D01*
X47825Y140900D01*
X48874D01*
X49399Y141425D01*
Y142474D01*
X48349D01*
X50449Y140900D02*
Y144049D01*
X52548Y140900D01*
Y144049D01*
X53597D02*
Y140900D01*
X55172D01*
X55696Y141425D01*
Y143524D01*
X55172Y144049D01*
X53597D01*
X52399Y173724D02*
X51874Y174249D01*
X50825D01*
X50300Y173724D01*
Y171625D01*
X50825Y171100D01*
X51874D01*
X52399Y171625D01*
X55548Y171100D02*
X53449D01*
X55548Y173199D01*
Y173724D01*
X55023Y174249D01*
X53973D01*
X53449Y173724D01*
X56597Y171100D02*
Y174249D01*
X58696Y171100D01*
Y174249D01*
X52399Y184824D02*
X51874Y185349D01*
X50825D01*
X50300Y184824D01*
Y182725D01*
X50825Y182200D01*
X51874D01*
X52399Y182725D01*
X53449Y182200D02*
X54498D01*
X53973D01*
Y185349D01*
X53449Y184824D01*
X56072Y182200D02*
Y185349D01*
X58171Y182200D01*
Y185349D01*
X52399Y198624D02*
X51874Y199149D01*
X50825D01*
X50300Y198624D01*
Y196525D01*
X50825Y196000D01*
X51874D01*
X52399Y196525D01*
X55548Y196000D02*
X53449D01*
X55548Y198099D01*
Y198624D01*
X55023Y199149D01*
X53973D01*
X53449Y198624D01*
X56597Y196000D02*
Y199149D01*
X58171D01*
X58696Y198624D01*
Y197574D01*
X58171Y197049D01*
X56597D01*
X52399Y205024D02*
X51874Y205549D01*
X50825D01*
X50300Y205024D01*
Y202925D01*
X50825Y202400D01*
X51874D01*
X52399Y202925D01*
X53449Y202400D02*
X54498D01*
X53973D01*
Y205549D01*
X53449Y205024D01*
X56072Y202400D02*
Y205549D01*
X57647D01*
X58171Y205024D01*
Y203974D01*
X57647Y203450D01*
X56072D01*
X10900Y225249D02*
Y222100D01*
X12474D01*
X12999Y222625D01*
Y224724D01*
X12474Y225249D01*
X10900D01*
X14049D02*
X15098D01*
X14573D01*
Y222100D01*
X14049D01*
X15098D01*
X16672D02*
Y225249D01*
X18771Y222100D01*
Y225249D01*
X21920Y222100D02*
X19821D01*
X21920Y224199D01*
Y224724D01*
X21395Y225249D01*
X20346D01*
X19821Y224724D01*
X185300Y385249D02*
X186349D01*
X185825D01*
Y382100D01*
X185300D01*
X186349D01*
X187924D02*
X190023Y384199D01*
X192647Y385249D02*
X191597D01*
X191072Y384724D01*
Y382625D01*
X191597Y382100D01*
X192647D01*
X193172Y382625D01*
Y384724D01*
X192647Y385249D01*
X219099Y385224D02*
X218574Y385749D01*
X217525D01*
X217000Y385224D01*
Y383125D01*
X217525Y382600D01*
X218574D01*
X219099Y383125D01*
Y384174D01*
X218050D01*
X220149Y382600D02*
Y385749D01*
X222248Y382600D01*
Y385749D01*
X223297D02*
Y382600D01*
X224871D01*
X225396Y383125D01*
Y385224D01*
X224871Y385749D01*
X223297D01*
X218800Y422200D02*
Y425349D01*
X220374D01*
X220899Y424824D01*
Y423774D01*
X220374Y423249D01*
X218800D01*
X219849D02*
X220899Y422200D01*
X224048Y424824D02*
X223523Y425349D01*
X222473D01*
X221949Y424824D01*
Y424299D01*
X222473Y423774D01*
X223523D01*
X224048Y423249D01*
Y422725D01*
X223523Y422200D01*
X222473D01*
X221949Y422725D01*
X225097Y425349D02*
X227196D01*
X226147D01*
Y422200D01*
X228246D02*
Y424299D01*
X229820D01*
X230345Y423774D01*
Y422200D01*
X49099Y395224D02*
X48574Y395749D01*
X47525D01*
X47000Y395224D01*
Y393125D01*
X47525Y392600D01*
X48574D01*
X49099Y393125D01*
Y394174D01*
X48050D01*
X50149Y392600D02*
Y395749D01*
X52248Y392600D01*
Y395749D01*
X53297D02*
Y392600D01*
X54871D01*
X55396Y393125D01*
Y395224D01*
X54871Y395749D01*
X53297D01*
X49099Y385749D02*
X47000D01*
Y384174D01*
X48050Y384699D01*
X48574D01*
X49099Y384174D01*
Y383125D01*
X48574Y382600D01*
X47525D01*
X47000Y383125D01*
X50149Y385749D02*
Y383649D01*
X51198Y382600D01*
X52248Y383649D01*
Y385749D01*
X14949Y384724D02*
X15473Y385249D01*
X16523D01*
X17048Y384724D01*
Y384199D01*
X16523Y383674D01*
X15998D01*
X16523D01*
X17048Y383150D01*
Y382625D01*
X16523Y382100D01*
X15473D01*
X14949Y382625D01*
X18097Y385249D02*
Y383150D01*
X19147Y382100D01*
X20196Y383150D01*
Y385249D01*
X21246Y384724D02*
X21770Y385249D01*
X22820D01*
X23345Y384724D01*
Y384199D01*
X22820Y383674D01*
X22295D01*
X22820D01*
X23345Y383150D01*
Y382625D01*
X22820Y382100D01*
X21770D01*
X21246Y382625D01*
X11800Y425249D02*
Y422100D01*
X13899D01*
X17048Y425249D02*
X14949D01*
Y422100D01*
X17048D01*
X14949Y423674D02*
X15998D01*
X18097Y425249D02*
Y422100D01*
X19671D01*
X20196Y422625D01*
Y424724D01*
X19671Y425249D01*
X18097D01*
X23345Y422100D02*
X21246D01*
X23345Y424199D01*
Y424724D01*
X22820Y425249D01*
X21770D01*
X21246Y424724D01*
X12849Y415249D02*
Y412100D01*
X14949D01*
X18097Y415249D02*
X15998D01*
Y412100D01*
X18097D01*
X15998Y413674D02*
X17048D01*
X19147Y415249D02*
Y412100D01*
X20721D01*
X21246Y412625D01*
Y414724D01*
X20721Y415249D01*
X19147D01*
X22295Y412100D02*
X23345D01*
X22820D01*
Y415249D01*
X22295Y414724D01*
X14900Y435149D02*
Y433049D01*
X15949Y432000D01*
X16999Y433049D01*
Y435149D01*
X18573Y432000D02*
X19623D01*
X20148Y432525D01*
Y433574D01*
X19623Y434099D01*
X18573D01*
X18049Y433574D01*
Y432525D01*
X18573Y432000D01*
X21197D02*
Y435149D01*
X22772D01*
X23296Y434624D01*
Y433574D01*
X22772Y433049D01*
X21197D01*
X14900Y445182D02*
Y443083D01*
X15949Y442033D01*
X16999Y443083D01*
Y445182D01*
X18049Y442033D02*
X19098D01*
X18573D01*
Y444132D01*
X18049D01*
X20672Y442033D02*
Y445182D01*
X22772Y442033D01*
Y445182D01*
X14900Y455215D02*
Y453116D01*
X15949Y452067D01*
X16999Y453116D01*
Y455215D01*
X18573Y452067D02*
X19623D01*
X20148Y452591D01*
Y453641D01*
X19623Y454166D01*
X18573D01*
X18049Y453641D01*
Y452591D01*
X18573Y452067D01*
X21197D02*
Y455215D01*
X22772D01*
X23296Y454691D01*
Y453641D01*
X22772Y453116D01*
X21197D01*
X14900Y465249D02*
Y463149D01*
X15949Y462100D01*
X16999Y463149D01*
Y465249D01*
X18049Y462100D02*
X19098D01*
X18573D01*
Y464199D01*
X18049D01*
X20672Y462100D02*
Y465249D01*
X22247D01*
X22772Y464724D01*
Y463674D01*
X22247Y463149D01*
X20672D01*
X233529Y104740D02*
X232787D01*
X232045Y103998D01*
X232045Y103255D01*
X232416Y102884D01*
X233158Y102884D01*
X233900Y103626D01*
X234642Y103626D01*
X235013Y103255D01*
X235013Y102513D01*
X234271Y101771D01*
X233529D01*
X233900Y105853D02*
X235384Y107337D01*
X234642Y106595D01*
X236869Y104368D01*
X238353Y105853D02*
X239095Y106595D01*
X238724Y106224D01*
X236497Y108450D01*
X236497Y107708D01*
X224829Y104740D02*
X224087D01*
X223345Y103998D01*
X223345Y103255D01*
X223716Y102884D01*
X224458Y102884D01*
X225200Y103626D01*
X225942Y103626D01*
X226313Y103255D01*
X226313Y102513D01*
X225571Y101771D01*
X224829D01*
X225200Y105853D02*
X226684Y107337D01*
X225942Y106595D01*
X228169Y104368D01*
X231137Y107337D02*
X229653Y105853D01*
Y108821D01*
X229282Y109192D01*
X228540D01*
X227798Y108450D01*
X227797Y107708D01*
X233529Y115356D02*
X232787D01*
X232045Y114614D01*
X232045Y113872D01*
X233529Y112388D01*
X234271D01*
X235013Y113130D01*
X235013Y113872D01*
X237611Y115727D02*
X236126Y114243D01*
Y117212D01*
X235755Y117583D01*
X235013D01*
X234271Y116841D01*
X234271Y116098D01*
X238353Y116470D02*
X236126Y118696D01*
X237240Y119809D01*
X237982D01*
X238724Y119067D01*
X238724Y118325D01*
X237611Y117212D01*
X224829Y115340D02*
X224087D01*
X223345Y114597D01*
X223345Y113855D01*
X224829Y112371D01*
X225571D01*
X226313Y113113D01*
X226313Y113855D01*
X228911Y115711D02*
X227426Y114226D01*
Y117195D01*
X227055Y117566D01*
X226313D01*
X225571Y116824D01*
X225571Y116082D01*
X229653Y116453D02*
X227426Y118679D01*
X231137Y117937D01*
X228911Y120163D01*
X233529Y125973D02*
X232787D01*
X232045Y125231D01*
X232045Y124489D01*
X233529Y123004D01*
X234271D01*
X235013Y123747D01*
X235013Y124489D01*
X236126Y124860D02*
X236869Y125602D01*
X236497Y125231D01*
X234271Y127457D01*
X234271Y126715D01*
X237982D02*
X235755Y128941D01*
X236869Y130055D01*
X237611D01*
X238353Y129313D01*
X238353Y128570D01*
X237240Y127457D01*
X224829Y125940D02*
X224087D01*
X223345Y125198D01*
X223345Y124455D01*
X224829Y122971D01*
X225571D01*
X226313Y123713D01*
X226313Y124455D01*
X227426Y124826D02*
X228169Y125568D01*
X227798Y125198D01*
X225571Y127424D01*
X225571Y126682D01*
X229282D02*
X227055Y128908D01*
X230766Y128166D01*
X228540Y130392D01*
X233900Y133250D02*
X231674Y135476D01*
X232787Y136590D01*
X233529D01*
X234271Y135847D01*
X234271Y135105D01*
X233158Y133992D01*
X237611Y136961D02*
X236126Y135476D01*
Y138445D01*
X235755Y138816D01*
X235013D01*
X234271Y138074D01*
X234271Y137332D01*
X236126Y139929D02*
X237611Y141413D01*
X236869Y140671D01*
X239095Y138445D01*
X225200Y133200D02*
X222974Y135426D01*
X224087Y136540D01*
X224829D01*
X225571Y135798D01*
X225571Y135055D01*
X224458Y133942D01*
X228911Y136911D02*
X227426Y135426D01*
Y138395D01*
X227055Y138766D01*
X226313D01*
X225571Y138024D01*
X225571Y137282D01*
X227426Y139879D02*
X229653Y137653D01*
X230766Y138766D01*
X230766Y139508D01*
X230395Y139879D01*
X229653Y139879D01*
X228540Y138766D01*
X229653Y139879D01*
Y140621D01*
X229282Y140992D01*
X228540D01*
X227426Y139879D01*
X233900Y143867D02*
X231674Y146093D01*
X232787Y147206D01*
X233529D01*
X234271Y146464D01*
X234271Y145722D01*
X233158Y144609D01*
X236126Y146093D02*
X236869Y146835D01*
X236497Y146464D01*
X234271Y148690D01*
X234271Y147948D01*
X235755Y150175D02*
X237240Y151659D01*
X236497Y150917D01*
X238724Y148690D01*
X225200Y143800D02*
X222974Y146026D01*
X224087Y147140D01*
X224829D01*
X225571Y146397D01*
X225571Y145655D01*
X224458Y144542D01*
X227426Y146026D02*
X228169Y146768D01*
X227798Y146397D01*
X225571Y148624D01*
X225571Y147882D01*
X227055Y150108D02*
X229282Y147882D01*
X230395Y148995D01*
X230395Y149737D01*
X230024Y150108D01*
X229282D01*
X228169Y148995D01*
X229282Y150108D01*
Y150850D01*
X228911Y151221D01*
X228169D01*
X227055Y150108D01*
X233529Y157823D02*
X232787D01*
X232045Y157081D01*
X232045Y156339D01*
X233529Y154854D01*
X234271D01*
X235013Y155596D01*
X235013Y156339D01*
X234271Y157081D01*
X233529Y156339D01*
X236126Y156710D02*
X233900Y158936D01*
X237611Y158194D01*
X235384Y160420D01*
X236126Y161162D02*
X238353Y158936D01*
X239466Y160049D01*
X239466Y160791D01*
X237982Y162276D01*
X237240D01*
X236126Y161162D01*
X224829Y157740D02*
X224087D01*
X223345Y156998D01*
X223345Y156255D01*
X224829Y154771D01*
X225571D01*
X226313Y155513D01*
X226313Y156255D01*
X225571Y156998D01*
X224829Y156255D01*
X227426Y156626D02*
X225200Y158853D01*
X228911Y158111D01*
X226684Y160337D01*
X227426Y161079D02*
X229653Y158853D01*
X230766Y159966D01*
X230766Y160708D01*
X229282Y162192D01*
X228540D01*
X227426Y161079D01*
X224087Y168340D02*
X223345Y167597D01*
X223345Y166855D01*
X224829Y165371D01*
X225571D01*
X226313Y166113D01*
X226313Y166855D01*
X224829Y168340D01*
X224087D01*
X227055Y170566D02*
X226313D01*
X225571Y169824D01*
X225571Y169082D01*
X227055Y167597D01*
X227798D01*
X228540Y168340D01*
X228540Y169082D01*
X229653Y169453D02*
X230395Y170195D01*
X230024Y169824D01*
X227798Y172050D01*
X227797Y171308D01*
X232787Y168440D02*
X232045Y167697D01*
X232045Y166955D01*
X233529Y165471D01*
X234271D01*
X235013Y166213D01*
X235013Y166955D01*
X233529Y168440D01*
X232787D01*
X235755Y170666D02*
X235013D01*
X234271Y169924D01*
X234271Y169182D01*
X235755Y167697D01*
X236497D01*
X237240Y168440D01*
X237240Y169182D01*
X239837Y171037D02*
X238353Y169553D01*
Y172521D01*
X237982Y172892D01*
X237240D01*
X236497Y172150D01*
X236497Y171408D01*
X231399Y270349D02*
X229300D01*
Y267200D01*
X231399D01*
X229300Y268774D02*
X230349D01*
X232449Y267200D02*
Y270349D01*
X234548Y267200D01*
Y270349D01*
X237696Y267200D02*
X235597D01*
X237696Y269299D01*
Y269824D01*
X237172Y270349D01*
X236122D01*
X235597Y269824D01*
X213499Y270349D02*
X211400D01*
Y267200D01*
X213499D01*
X211400Y268774D02*
X212450D01*
X214549Y267200D02*
Y270349D01*
X216648Y267200D01*
Y270349D01*
X217697Y267200D02*
X218747D01*
X218222D01*
Y270349D01*
X217697Y269824D01*
X231399Y280465D02*
X229300D01*
Y278891D01*
X230349Y279416D01*
X230874D01*
X231399Y278891D01*
Y277841D01*
X230874Y277317D01*
X229825D01*
X229300Y277841D01*
X232449Y280465D02*
Y278366D01*
X233498Y277317D01*
X234548Y278366D01*
Y280465D01*
X213499Y279941D02*
X212974Y280465D01*
X211925D01*
X211400Y279941D01*
Y277841D01*
X211925Y277317D01*
X212974D01*
X213499Y277841D01*
Y278891D01*
X212450D01*
X214549Y277317D02*
Y280465D01*
X216648Y277317D01*
Y280465D01*
X217697D02*
Y277317D01*
X219271D01*
X219796Y277841D01*
Y279941D01*
X219271Y280465D01*
X217697D01*
X229300Y290057D02*
X229825Y290582D01*
X230874D01*
X231399Y290057D01*
Y289532D01*
X230874Y289008D01*
X230349D01*
X230874D01*
X231399Y288483D01*
Y287958D01*
X230874Y287433D01*
X229825D01*
X229300Y287958D01*
X232449Y290582D02*
Y288483D01*
X233498Y287433D01*
X234548Y288483D01*
Y290582D01*
X235597Y290057D02*
X236122Y290582D01*
X237172D01*
X237696Y290057D01*
Y289532D01*
X237172Y289008D01*
X236647D01*
X237172D01*
X237696Y288483D01*
Y287958D01*
X237172Y287433D01*
X236122D01*
X235597Y287958D01*
X213499Y290057D02*
X212974Y290582D01*
X211925D01*
X211400Y290057D01*
Y287958D01*
X211925Y287433D01*
X212974D01*
X213499Y287958D01*
Y289008D01*
X212450D01*
X214549Y287433D02*
Y290582D01*
X216648Y287433D01*
Y290582D01*
X217697D02*
Y287433D01*
X219271D01*
X219796Y287958D01*
Y290057D01*
X219271Y290582D01*
X217697D01*
X229300Y300174D02*
X229825Y300699D01*
X230874D01*
X231399Y300174D01*
Y299649D01*
X230874Y299124D01*
X230349D01*
X230874D01*
X231399Y298600D01*
Y298075D01*
X230874Y297550D01*
X229825D01*
X229300Y298075D01*
X232449Y300699D02*
Y298600D01*
X233498Y297550D01*
X234548Y298600D01*
Y300699D01*
X235597Y300174D02*
X236122Y300699D01*
X237172D01*
X237696Y300174D01*
Y299649D01*
X237172Y299124D01*
X236647D01*
X237172D01*
X237696Y298600D01*
Y298075D01*
X237172Y297550D01*
X236122D01*
X235597Y298075D01*
X213499Y300174D02*
X212974Y300699D01*
X211925D01*
X211400Y300174D01*
Y298075D01*
X211925Y297550D01*
X212974D01*
X213499Y298075D01*
Y299124D01*
X212450D01*
X214549Y297550D02*
Y300699D01*
X216648Y297550D01*
Y300699D01*
X217697D02*
Y297550D01*
X219271D01*
X219796Y298075D01*
Y300174D01*
X219271Y300699D01*
X217697D01*
X229300Y310815D02*
Y308716D01*
X230349Y307667D01*
X231399Y308716D01*
Y310815D01*
X232449Y307667D02*
X233498D01*
X232973D01*
Y309766D01*
X232449D01*
X235072Y307667D02*
Y310815D01*
X237172Y307667D01*
Y310815D01*
X211400D02*
Y308716D01*
X212450Y307667D01*
X213499Y308716D01*
Y310815D01*
X214549Y307667D02*
X215598D01*
X215073D01*
Y309766D01*
X214549D01*
X217172Y307667D02*
Y310815D01*
X218747D01*
X219271Y310291D01*
Y309241D01*
X218747Y308716D01*
X217172D01*
X229300Y320932D02*
Y318833D01*
X230349Y317783D01*
X231399Y318833D01*
Y320932D01*
X232973Y317783D02*
X234023D01*
X234548Y318308D01*
Y319358D01*
X234023Y319882D01*
X232973D01*
X232449Y319358D01*
Y318308D01*
X232973Y317783D01*
X235597D02*
Y320932D01*
X237696Y317783D01*
Y320932D01*
X211400D02*
Y318833D01*
X212450Y317783D01*
X213499Y318833D01*
Y320932D01*
X215073Y317783D02*
X216123D01*
X216648Y318308D01*
Y319358D01*
X216123Y319882D01*
X215073D01*
X214549Y319358D01*
Y318308D01*
X215073Y317783D01*
X217697D02*
Y320932D01*
X219271D01*
X219796Y320407D01*
Y319358D01*
X219271Y318833D01*
X217697D01*
X213499Y331048D02*
X211400D01*
Y329474D01*
X212450Y329999D01*
X212974D01*
X213499Y329474D01*
Y328425D01*
X212974Y327900D01*
X211925D01*
X211400Y328425D01*
X214549Y331048D02*
Y328949D01*
X215598Y327900D01*
X216648Y328949D01*
Y331048D01*
X231399Y330524D02*
X230874Y331048D01*
X229825D01*
X229300Y330524D01*
Y328425D01*
X229825Y327900D01*
X230874D01*
X231399Y328425D01*
Y329474D01*
X230349D01*
X232449Y327900D02*
Y331048D01*
X234548Y327900D01*
Y331048D01*
X235597D02*
Y327900D01*
X237172D01*
X237696Y328425D01*
Y330524D01*
X237172Y331048D01*
X235597D01*
X48900Y427749D02*
Y425649D01*
X49949Y424600D01*
X50999Y425649D01*
Y427749D01*
X52573Y424600D02*
X53623D01*
X54148Y425125D01*
Y426174D01*
X53623Y426699D01*
X52573D01*
X52049Y426174D01*
Y425125D01*
X52573Y424600D01*
X55197D02*
Y427749D01*
X57296Y424600D01*
Y427749D01*
X48300Y442149D02*
Y440050D01*
X49349Y439000D01*
X50399Y440050D01*
Y442149D01*
X51973Y439000D02*
X53023D01*
X53548Y439525D01*
Y440574D01*
X53023Y441099D01*
X51973D01*
X51449Y440574D01*
Y439525D01*
X51973Y439000D01*
X54597D02*
Y442149D01*
X56172D01*
X56696Y441624D01*
Y440574D01*
X56172Y440050D01*
X54597D01*
X47800Y478449D02*
Y476349D01*
X48849Y475300D01*
X49899Y476349D01*
Y478449D01*
X50949Y475300D02*
X51998D01*
X51473D01*
Y477399D01*
X50949D01*
X53572Y475300D02*
Y477399D01*
X55147D01*
X55672Y476874D01*
Y475300D01*
X56721D02*
Y478449D01*
X58820Y475300D01*
Y478449D01*
X47700Y492249D02*
Y490149D01*
X48750Y489100D01*
X49799Y490149D01*
Y492249D01*
X50849Y489100D02*
X51898D01*
X51373D01*
Y491199D01*
X50849D01*
X53472Y489100D02*
Y491199D01*
X55047D01*
X55572Y490674D01*
Y489100D01*
X56621D02*
Y492249D01*
X58195D01*
X58720Y491724D01*
Y490674D01*
X58195Y490149D01*
X56621D01*
X145899Y465324D02*
X145374Y465849D01*
X144325D01*
X143800Y465324D01*
Y464799D01*
X144325Y464274D01*
X145374D01*
X145899Y463750D01*
Y463225D01*
X145374Y462700D01*
X144325D01*
X143800Y463225D01*
X146949Y465849D02*
Y462700D01*
X147998Y463750D01*
X149048Y462700D01*
Y465849D01*
X150097Y465324D02*
X150622Y465849D01*
X151672D01*
X152196Y465324D01*
Y464799D01*
X151672Y464274D01*
X151147D01*
X151672D01*
X152196Y463750D01*
Y463225D01*
X151672Y462700D01*
X150622D01*
X150097Y463225D01*
X123399Y277924D02*
X122874Y278449D01*
X121825D01*
X121300Y277924D01*
Y277399D01*
X121825Y276874D01*
X122874D01*
X123399Y276349D01*
Y275825D01*
X122874Y275300D01*
X121825D01*
X121300Y275825D01*
X124449Y278449D02*
Y275300D01*
X125498Y276349D01*
X126548Y275300D01*
Y278449D01*
X129696Y275300D02*
X127597D01*
X129696Y277399D01*
Y277924D01*
X129172Y278449D01*
X128122D01*
X127597Y277924D01*
X67099D02*
X66574Y278449D01*
X65525D01*
X65000Y277924D01*
Y277399D01*
X65525Y276874D01*
X66574D01*
X67099Y276349D01*
Y275825D01*
X66574Y275300D01*
X65525D01*
X65000Y275825D01*
X68149Y278449D02*
Y275300D01*
X69198Y276349D01*
X70248Y275300D01*
Y278449D01*
X71297Y275300D02*
X72347D01*
X71822D01*
Y278449D01*
X71297Y277924D01*
X95200Y408900D02*
Y412049D01*
X96774D01*
X97299Y411524D01*
Y410474D01*
X96774Y409949D01*
X95200D01*
X96250D02*
X97299Y408900D01*
X98349D02*
X99398D01*
X98873D01*
Y412049D01*
X98349Y411524D01*
X100972D02*
X101497Y412049D01*
X102547D01*
X103071Y411524D01*
Y410999D01*
X102547Y410474D01*
X103071Y409949D01*
Y409425D01*
X102547Y408900D01*
X101497D01*
X100972Y409425D01*
Y409949D01*
X101497Y410474D01*
X100972Y410999D01*
Y411524D01*
X101497Y410474D02*
X102547D01*
X95800Y451700D02*
Y454849D01*
X97374D01*
X97899Y454324D01*
Y453274D01*
X97374Y452749D01*
X95800D01*
X96850D02*
X97899Y451700D01*
X98949D02*
X99998D01*
X99473D01*
Y454849D01*
X98949Y454324D01*
X101572Y454849D02*
X103672D01*
Y454324D01*
X101572Y452225D01*
Y451700D01*
X95800Y462100D02*
Y465249D01*
X97374D01*
X97899Y464724D01*
Y463674D01*
X97374Y463149D01*
X95800D01*
X96850D02*
X97899Y462100D01*
X98949D02*
X99998D01*
X99473D01*
Y465249D01*
X98949Y464724D01*
X103672Y465249D02*
X102622Y464724D01*
X101572Y463674D01*
Y462625D01*
X102097Y462100D01*
X103147D01*
X103672Y462625D01*
Y463149D01*
X103147Y463674D01*
X101572D01*
X80400Y510100D02*
X77251D01*
Y511674D01*
X77776Y512199D01*
X78826D01*
X79351Y511674D01*
Y510100D01*
Y511150D02*
X80400Y512199D01*
Y513249D02*
Y514298D01*
Y513773D01*
X77251D01*
X77776Y513249D01*
X77251Y517972D02*
Y515872D01*
X78826D01*
X78301Y516922D01*
Y517447D01*
X78826Y517972D01*
X79875D01*
X80400Y517447D01*
Y516397D01*
X79875Y515872D01*
X144499Y378249D02*
X143449D01*
X143974D01*
Y375625D01*
X143449Y375100D01*
X142925D01*
X142400Y375625D01*
X147648Y378249D02*
X145549D01*
Y376674D01*
X146598Y377199D01*
X147123D01*
X147648Y376674D01*
Y375625D01*
X147123Y375100D01*
X146073D01*
X145549Y375625D01*
X89599Y152949D02*
X88550D01*
X89074D01*
Y150325D01*
X88550Y149800D01*
X88025D01*
X87500Y150325D01*
X92223Y149800D02*
Y152949D01*
X90649Y151374D01*
X92748D01*
X69899Y365924D02*
X69374Y366449D01*
X68325D01*
X67800Y365924D01*
Y363825D01*
X68325Y363300D01*
X69374D01*
X69899Y363825D01*
X70949Y365924D02*
X71473Y366449D01*
X72523D01*
X73048Y365924D01*
Y365399D01*
X72523Y364874D01*
X71998D01*
X72523D01*
X73048Y364350D01*
Y363825D01*
X72523Y363300D01*
X71473D01*
X70949Y363825D01*
X74097Y363300D02*
X75147D01*
X74622D01*
Y366449D01*
X74097Y365924D01*
X54700Y362049D02*
Y359425D01*
X55225Y358900D01*
X56274D01*
X56799Y359425D01*
Y362049D01*
X57849D02*
X59948D01*
Y361524D01*
X57849Y359425D01*
Y358900D01*
X111600Y330149D02*
Y327525D01*
X112125Y327000D01*
X113174D01*
X113699Y327525D01*
Y330149D01*
X116848Y327000D02*
X114749D01*
X116848Y329099D01*
Y329624D01*
X116323Y330149D01*
X115273D01*
X114749Y329624D01*
X99549Y434600D02*
X96925D01*
X96400Y434075D01*
Y433026D01*
X96925Y432501D01*
X99549D01*
X96400Y429877D02*
X99549D01*
X97974Y431451D01*
Y429352D01*
X100000Y485249D02*
Y482625D01*
X100525Y482100D01*
X101574D01*
X102099Y482625D01*
Y485249D01*
X105248D02*
X103149D01*
Y483674D01*
X104198Y484199D01*
X104723D01*
X105248Y483674D01*
Y482625D01*
X104723Y482100D01*
X103673D01*
X103149Y482625D01*
X139900Y348349D02*
X141999D01*
X140949D01*
Y345200D01*
X143049D02*
Y348349D01*
X144623D01*
X145148Y347824D01*
Y346774D01*
X144623Y346250D01*
X143049D01*
X148296Y345200D02*
X146197D01*
X148296Y347299D01*
Y347824D01*
X147772Y348349D01*
X146722D01*
X146197Y347824D01*
X140400Y302349D02*
X142499D01*
X141449D01*
Y299200D01*
X143549D02*
Y302349D01*
X145123D01*
X145648Y301824D01*
Y300774D01*
X145123Y300250D01*
X143549D01*
X146697Y299200D02*
X147747D01*
X147222D01*
Y302349D01*
X146697Y301824D01*
X53200Y419949D02*
X55299D01*
X54250D01*
Y416800D01*
X56349D02*
Y419949D01*
X57923D01*
X58448Y419424D01*
Y418374D01*
X57923Y417849D01*
X56349D01*
X59497Y419424D02*
X60022Y419949D01*
X61071D01*
X61596Y419424D01*
Y418899D01*
X61071Y418374D01*
X60547D01*
X61071D01*
X61596Y417849D01*
Y417325D01*
X61071Y416800D01*
X60022D01*
X59497Y417325D01*
X52300Y449549D02*
X54399D01*
X53350D01*
Y446400D01*
X55449D02*
Y449549D01*
X57023D01*
X57548Y449024D01*
Y447974D01*
X57023Y447449D01*
X55449D01*
X60172Y446400D02*
Y449549D01*
X58597Y447974D01*
X60696D01*
X54800Y471249D02*
X56899D01*
X55849D01*
Y468100D01*
X57949D02*
Y471249D01*
X59523D01*
X60048Y470724D01*
Y469674D01*
X59523Y469149D01*
X57949D01*
X63196Y471249D02*
X61097D01*
Y469674D01*
X62147Y470199D01*
X62672D01*
X63196Y469674D01*
Y468625D01*
X62672Y468100D01*
X61622D01*
X61097Y468625D01*
X55000Y499649D02*
X57099D01*
X56050D01*
Y496500D01*
X58149D02*
Y499649D01*
X59723D01*
X60248Y499124D01*
Y498074D01*
X59723Y497549D01*
X58149D01*
X63396Y499649D02*
X62347Y499124D01*
X61297Y498074D01*
Y497025D01*
X61822Y496500D01*
X62871D01*
X63396Y497025D01*
Y497549D01*
X62871Y498074D01*
X61297D01*
X74100Y316900D02*
Y320049D01*
X75674D01*
X76199Y319524D01*
Y318474D01*
X75674Y317950D01*
X74100D01*
X75150D02*
X76199Y316900D01*
X79348D02*
X77249D01*
X79348Y318999D01*
Y319524D01*
X78823Y320049D01*
X77773D01*
X77249Y319524D01*
X102600Y316600D02*
Y319749D01*
X104174D01*
X104699Y319224D01*
Y318174D01*
X104174Y317650D01*
X102600D01*
X103649D02*
X104699Y316600D01*
X105749D02*
X106798D01*
X106273D01*
Y319749D01*
X105749Y319224D01*
X105700Y408800D02*
Y411949D01*
X107274D01*
X107799Y411424D01*
Y410374D01*
X107274Y409850D01*
X105700D01*
X106749D02*
X107799Y408800D01*
X108849Y411424D02*
X109373Y411949D01*
X110423D01*
X110948Y411424D01*
Y410899D01*
X110423Y410374D01*
X109898D01*
X110423D01*
X110948Y409850D01*
Y409325D01*
X110423Y408800D01*
X109373D01*
X108849Y409325D01*
X113200Y420700D02*
Y423849D01*
X114774D01*
X115299Y423324D01*
Y422274D01*
X114774Y421749D01*
X113200D01*
X114250D02*
X115299Y420700D01*
X117923D02*
Y423849D01*
X116349Y422274D01*
X118448D01*
X112900Y440100D02*
Y443249D01*
X114474D01*
X114999Y442724D01*
Y441674D01*
X114474Y441150D01*
X112900D01*
X113950D02*
X114999Y440100D01*
X118148Y443249D02*
X116049D01*
Y441674D01*
X117098Y442199D01*
X117623D01*
X118148Y441674D01*
Y440625D01*
X117623Y440100D01*
X116573D01*
X116049Y440625D01*
X107000Y452100D02*
Y455249D01*
X108574D01*
X109099Y454724D01*
Y453674D01*
X108574Y453150D01*
X107000D01*
X108049D02*
X109099Y452100D01*
X112248Y455249D02*
X111198Y454724D01*
X110149Y453674D01*
Y452625D01*
X110673Y452100D01*
X111723D01*
X112248Y452625D01*
Y453150D01*
X111723Y453674D01*
X110149D01*
X107200Y462000D02*
Y465149D01*
X108774D01*
X109299Y464624D01*
Y463574D01*
X108774Y463050D01*
X107200D01*
X108249D02*
X109299Y462000D01*
X110349Y465149D02*
X112448D01*
Y464624D01*
X110349Y462525D01*
Y462000D01*
X112700Y472300D02*
Y475449D01*
X114274D01*
X114799Y474924D01*
Y473874D01*
X114274Y473350D01*
X112700D01*
X113750D02*
X114799Y472300D01*
X115849Y474924D02*
X116373Y475449D01*
X117423D01*
X117948Y474924D01*
Y474399D01*
X117423Y473874D01*
X117948Y473350D01*
Y472825D01*
X117423Y472300D01*
X116373D01*
X115849Y472825D01*
Y473350D01*
X116373Y473874D01*
X115849Y474399D01*
Y474924D01*
X116373Y473874D02*
X117423D01*
X112700Y492100D02*
Y495249D01*
X114274D01*
X114799Y494724D01*
Y493674D01*
X114274Y493150D01*
X112700D01*
X113750D02*
X114799Y492100D01*
X115849Y492625D02*
X116373Y492100D01*
X117423D01*
X117948Y492625D01*
Y494724D01*
X117423Y495249D01*
X116373D01*
X115849Y494724D01*
Y494199D01*
X116373Y493674D01*
X117948D01*
X89300Y510200D02*
X86151D01*
Y511774D01*
X86676Y512299D01*
X87726D01*
X88250Y511774D01*
Y510200D01*
Y511249D02*
X89300Y512299D01*
Y513349D02*
Y514398D01*
Y513873D01*
X86151D01*
X86676Y513349D01*
Y515972D02*
X86151Y516497D01*
Y517547D01*
X86676Y518072D01*
X88775D01*
X89300Y517547D01*
Y516497D01*
X88775Y515972D01*
X86676D01*
X64500Y336849D02*
Y333700D01*
X66599D01*
X69748Y336849D02*
X67649D01*
Y333700D01*
X69748D01*
X67649Y335274D02*
X68698D01*
X70797Y336849D02*
Y333700D01*
X72372D01*
X72896Y334225D01*
Y336324D01*
X72372Y336849D01*
X70797D01*
X76045Y333700D02*
X73946D01*
X76045Y335799D01*
Y336324D01*
X75520Y336849D01*
X74471D01*
X73946Y336324D01*
X103900Y337349D02*
Y334200D01*
X105999D01*
X109148Y337349D02*
X107049D01*
Y334200D01*
X109148D01*
X107049Y335774D02*
X108098D01*
X110197Y337349D02*
Y334200D01*
X111772D01*
X112296Y334725D01*
Y336824D01*
X111772Y337349D01*
X110197D01*
X113346Y334200D02*
X114395D01*
X113871D01*
Y337349D01*
X113346Y336824D01*
X8399Y81349D02*
X7350D01*
X7874D01*
Y78725D01*
X7350Y78200D01*
X6825D01*
X6300Y78725D01*
X9449Y78200D02*
X10498D01*
X9973D01*
Y81349D01*
X9449Y80824D01*
X236151Y251599D02*
Y250550D01*
Y251074D01*
X238775D01*
X239300Y250550D01*
Y250025D01*
X238775Y249500D01*
X236676Y252649D02*
X236151Y253173D01*
Y254223D01*
X236676Y254748D01*
X237201D01*
X237726Y254223D01*
Y253698D01*
Y254223D01*
X238250Y254748D01*
X238775D01*
X239300Y254223D01*
Y253173D01*
X238775Y252649D01*
X236851Y94899D02*
Y93849D01*
Y94374D01*
X239475D01*
X240000Y93849D01*
Y93325D01*
X239475Y92800D01*
X240000Y98048D02*
Y95949D01*
X237901Y98048D01*
X237376D01*
X236851Y97523D01*
Y96473D01*
X237376Y95949D01*
X102599Y307149D02*
X100500D01*
Y305574D01*
X101549D01*
X100500D01*
Y304000D01*
X103649Y307149D02*
Y304000D01*
X105223D01*
X105748Y304525D01*
Y305049D01*
X105223Y305574D01*
X103649D01*
X105223D01*
X105748Y306099D01*
Y306624D01*
X105223Y307149D01*
X103649D01*
X106797Y304000D02*
X107847D01*
X107322D01*
Y307149D01*
X106797Y306624D01*
X128399Y295424D02*
X127874Y295949D01*
X126825D01*
X126300Y295424D01*
Y293325D01*
X126825Y292800D01*
X127874D01*
X128399Y293325D01*
X131023Y292800D02*
Y295949D01*
X129449Y294374D01*
X131548D01*
X153399Y317224D02*
X152874Y317749D01*
X151825D01*
X151300Y317224D01*
Y315125D01*
X151825Y314600D01*
X152874D01*
X153399Y315125D01*
X156548Y317749D02*
X154449D01*
Y316174D01*
X155498Y316699D01*
X156023D01*
X156548Y316174D01*
Y315125D01*
X156023Y314600D01*
X154973D01*
X154449Y315125D01*
X148999Y76624D02*
X148474Y77149D01*
X147425D01*
X146900Y76624D01*
Y74525D01*
X147425Y74000D01*
X148474D01*
X148999Y74525D01*
X150049Y76624D02*
X150573Y77149D01*
X151623D01*
X152148Y76624D01*
Y76099D01*
X151623Y75574D01*
X151098D01*
X151623D01*
X152148Y75050D01*
Y74525D01*
X151623Y74000D01*
X150573D01*
X150049Y74525D01*
X117099Y76624D02*
X116574Y77149D01*
X115525D01*
X115000Y76624D01*
Y74525D01*
X115525Y74000D01*
X116574D01*
X117099Y74525D01*
X120248Y74000D02*
X118149D01*
X120248Y76099D01*
Y76624D01*
X119723Y77149D01*
X118673D01*
X118149Y76624D01*
X85499Y76824D02*
X84974Y77349D01*
X83925D01*
X83400Y76824D01*
Y74725D01*
X83925Y74200D01*
X84974D01*
X85499Y74725D01*
X86549Y74200D02*
X87598D01*
X87073D01*
Y77349D01*
X86549Y76824D01*
X67999Y412424D02*
X67474Y412949D01*
X66425D01*
X65900Y412424D01*
Y410325D01*
X66425Y409800D01*
X67474D01*
X67999Y410325D01*
X71148Y412949D02*
X70098Y412424D01*
X69049Y411374D01*
Y410325D01*
X69573Y409800D01*
X70623D01*
X71148Y410325D01*
Y410850D01*
X70623Y411374D01*
X69049D01*
X61599Y433924D02*
X61074Y434449D01*
X60025D01*
X59500Y433924D01*
Y431825D01*
X60025Y431300D01*
X61074D01*
X61599Y431825D01*
X62649Y434449D02*
X64748D01*
Y433924D01*
X62649Y431825D01*
Y431300D01*
X67499Y454324D02*
X66974Y454849D01*
X65925D01*
X65400Y454324D01*
Y452225D01*
X65925Y451700D01*
X66974D01*
X67499Y452225D01*
X68549Y454324D02*
X69073Y454849D01*
X70123D01*
X70648Y454324D01*
Y453799D01*
X70123Y453274D01*
X70648Y452749D01*
Y452225D01*
X70123Y451700D01*
X69073D01*
X68549Y452225D01*
Y452749D01*
X69073Y453274D01*
X68549Y453799D01*
Y454324D01*
X69073Y453274D02*
X70123D01*
X67699Y464524D02*
X67174Y465049D01*
X66125D01*
X65600Y464524D01*
Y462425D01*
X66125Y461900D01*
X67174D01*
X67699Y462425D01*
X68749D02*
X69273Y461900D01*
X70323D01*
X70848Y462425D01*
Y464524D01*
X70323Y465049D01*
X69273D01*
X68749Y464524D01*
Y463999D01*
X69273Y463474D01*
X70848D01*
X60899Y485024D02*
X60374Y485549D01*
X59325D01*
X58800Y485024D01*
Y482925D01*
X59325Y482400D01*
X60374D01*
X60899Y482925D01*
X61949Y482400D02*
X62998D01*
X62473D01*
Y485549D01*
X61949Y485024D01*
X64572D02*
X65097Y485549D01*
X66147D01*
X66672Y485024D01*
Y482925D01*
X66147Y482400D01*
X65097D01*
X64572Y482925D01*
Y485024D01*
X65499Y506324D02*
X64974Y506849D01*
X63925D01*
X63400Y506324D01*
Y504225D01*
X63925Y503700D01*
X64974D01*
X65499Y504225D01*
X66549Y503700D02*
X67598D01*
X67073D01*
Y506849D01*
X66549Y506324D01*
X69172Y503700D02*
X70222D01*
X69697D01*
Y506849D01*
X69172Y506324D01*
D14*
X54000Y146700D02*
X83800D01*
X54000D02*
Y157300D01*
X83800D01*
Y146700D02*
Y157300D01*
X152000Y382200D02*
X181800D01*
Y371600D02*
Y382200D01*
X152000Y371600D02*
X181800D01*
X152000D02*
Y382200D01*
X61216Y346269D02*
Y354931D01*
X63184Y346269D02*
Y354931D01*
X61216Y354931D02*
X63184Y354931D01*
X61216Y346269D02*
X63184D01*
X77157Y486950D02*
X96842D01*
X77157Y480650D02*
X96842D01*
Y486950D01*
X77157Y480650D02*
Y486950D01*
X74158Y429150D02*
Y435450D01*
X93843Y429150D02*
Y435450D01*
X74158Y429150D02*
X93843D01*
X74158Y435450D02*
X93843D01*
X242000Y92000D02*
X300000D01*
Y192118D01*
X242000D02*
X300000D01*
X242000Y92000D02*
Y192118D01*
Y249000D02*
Y349118D01*
X300000D01*
Y249000D02*
Y349118D01*
X242000Y249000D02*
X300000D01*
X140157Y73216D02*
X144095D01*
X142126Y71248D02*
Y75185D01*
X136614Y65342D02*
X140157Y68886D01*
X159843D02*
X163386Y65342D01*
Y42114D02*
Y65342D01*
X140157Y68886D02*
X159843D01*
X136614Y42114D02*
Y65342D01*
Y42114D02*
X163386D01*
X108158Y73216D02*
X112094D01*
X110126Y71248D02*
Y75185D01*
X104614Y65342D02*
X108158Y68886D01*
X127842D02*
X131386Y65342D01*
Y42114D02*
Y65342D01*
X108158Y68886D02*
X127842D01*
X104614Y42114D02*
Y65342D01*
Y42114D02*
X131386D01*
X76657Y73216D02*
X80594D01*
X78626Y71248D02*
Y75185D01*
X73114Y65342D02*
X76657Y68886D01*
X96342D02*
X99886Y65342D01*
Y42114D02*
Y65342D01*
X76657Y68886D02*
X96342D01*
X73114Y42114D02*
Y65342D01*
Y42114D02*
X99886D01*
X148650Y314531D02*
Y317878D01*
X142350Y314531D02*
Y317878D01*
X111811Y324898D02*
X138189D01*
X111811Y312102D02*
X138189D01*
X111811D02*
Y324898D01*
X138189Y312102D02*
Y324898D01*
D15*
X82000Y461400D02*
Y462000D01*
X76000Y461400D02*
X76000Y462000D01*
X76000Y461400D02*
X82000Y461400D01*
Y465400D02*
Y466000D01*
X76000Y465400D02*
Y466000D01*
X82000D01*
X81200Y452200D02*
X81200Y451600D01*
X75200Y451600D02*
Y452200D01*
Y451600D02*
X81200Y451600D01*
X81200Y455600D02*
X81200Y456200D01*
X75200Y455600D02*
Y456200D01*
X81200Y456200D01*
X82000Y503200D02*
Y503800D01*
X76000Y503200D02*
X76000Y503800D01*
X76000Y503200D02*
X82000Y503200D01*
Y507200D02*
Y507800D01*
X76000Y507200D02*
Y507800D01*
X82000D01*
X81200Y408000D02*
Y408600D01*
X75200Y408000D02*
X75200Y408600D01*
X75200Y408000D02*
X81200Y408000D01*
Y412000D02*
Y412600D01*
X75200Y412000D02*
Y412600D01*
X81200D01*
X85900Y507800D02*
X91900Y507800D01*
X85900Y507200D02*
Y507800D01*
X91900Y507200D02*
X91900Y507800D01*
X85900Y503200D02*
X91900Y503200D01*
X85900Y503200D02*
Y503800D01*
X91900D02*
X91900Y503200D01*
X85900Y466000D02*
X91900Y466000D01*
X85900Y465400D02*
Y466000D01*
X91900Y465400D02*
X91900Y466000D01*
X85900Y461400D02*
X91900Y461400D01*
X85900Y461400D02*
Y462000D01*
X91900D02*
X91900Y461400D01*
X84700Y456200D02*
X90700Y456200D01*
X84700Y455600D02*
Y456200D01*
X90700Y455600D02*
X90700Y456200D01*
X84700Y451600D02*
X90700Y451600D01*
X84700Y451600D02*
Y452200D01*
X90700D02*
X90700Y451600D01*
X84700Y412700D02*
X90700Y412700D01*
X84700Y412100D02*
Y412700D01*
X90700Y412100D02*
X90700Y412700D01*
X84700Y408100D02*
X90700Y408100D01*
X84700Y408100D02*
Y408700D01*
X90700D02*
X90700Y408100D01*
X83058Y3711D02*
X84797Y3245D01*
X80085Y5750D02*
X85687Y4249D01*
X79943Y5995D02*
X85546Y4494D01*
X79609Y6292D02*
X85404Y4739D01*
X79467Y6537D02*
X85263Y4984D01*
X79326Y6782D02*
X85315Y5177D01*
X78991Y7078D02*
X85173Y5422D01*
X79043Y7272D02*
X85032Y5667D01*
X81838Y17704D02*
X85702Y16668D01*
X82083Y17845D02*
X85561Y16913D01*
X82328Y17987D02*
X85612Y17107D01*
X82573Y18128D02*
X85471Y17351D01*
X83011Y18218D02*
X85523Y17545D01*
X83256Y18359D02*
X85381Y17790D01*
X83694Y18449D02*
X85433Y17983D01*
X83939Y18590D02*
X85292Y18228D01*
X84571Y18628D02*
X85343Y18421D01*
X85009Y18718D02*
X85202Y18666D01*
X86460Y4042D02*
X88585Y3473D01*
X88206Y9786D02*
X93615Y8336D01*
X88644Y9875D02*
X93667Y8530D01*
X89082Y9965D02*
X93719Y8723D01*
X89327Y10107D02*
X93770Y8916D01*
X89379Y10300D02*
X93822Y9109D01*
X89431Y10493D02*
X93874Y9302D01*
X89482Y10686D02*
X93926Y9495D01*
X89496Y11511D02*
X93940Y10320D01*
X89355Y11755D02*
X93991Y10513D01*
X89407Y11949D02*
X94043Y10706D01*
X89458Y12142D02*
X93902Y10951D01*
X89510Y12335D02*
X93954Y11145D01*
X89369Y12580D02*
X94005Y11338D01*
X89421Y12773D02*
X94057Y11531D01*
X89472Y12966D02*
X93916Y11776D01*
X89524Y13160D02*
X93967Y11969D01*
X89383Y13405D02*
X93826Y12214D01*
X89434Y13598D02*
X93878Y12407D01*
X89486Y13791D02*
X93736Y12652D01*
X89538Y13984D02*
X93788Y12845D01*
X89397Y14229D02*
X93647Y13090D01*
X89448Y14422D02*
X93505Y13335D01*
X89500Y14615D02*
X93557Y13528D01*
X89359Y14860D02*
X93415Y13773D01*
X89410Y15054D02*
X93274Y14018D01*
X89462Y15247D02*
X93133Y14263D01*
X89514Y15440D02*
X92991Y14508D01*
X80754Y5157D02*
X85777Y3811D01*
X80419Y5454D02*
X85635Y4056D01*
X86498Y3411D02*
X87077Y3255D01*
X86356Y3656D02*
X87709Y3293D01*
X86408Y3849D02*
X88147Y3383D01*
X89341Y10931D02*
X93977Y9689D01*
X89393Y11124D02*
X93836Y9934D01*
X89445Y11317D02*
X93888Y10127D01*
X82144Y4163D02*
X85815Y3180D01*
X81616Y4512D02*
X86060Y3321D01*
X86318Y4287D02*
X88830Y3614D01*
X86370Y4480D02*
X89268Y3704D01*
X86229Y4725D02*
X89513Y3845D01*
X86281Y4918D02*
X89758Y3986D01*
X86139Y5163D02*
X90003Y4128D01*
X78902Y7517D02*
X84890Y5912D01*
X78760Y7762D02*
X84749Y6157D01*
X78619Y8006D02*
X84801Y6350D01*
X78477Y8251D02*
X84659Y6595D01*
X78336Y8496D02*
X84518Y6840D01*
X78388Y8690D02*
X84376Y7085D01*
X78246Y8935D02*
X84428Y7278D01*
X78298Y9128D02*
X84287Y7523D01*
X78157Y9373D02*
X84145Y7768D01*
X78208Y9566D02*
X84004Y8013D01*
X78067Y9811D02*
X84056Y8206D01*
X78119Y10004D02*
X83914Y8451D01*
X77977Y10249D02*
X83773Y8696D01*
X78029Y10442D02*
X83631Y8941D01*
X77888Y10687D02*
X83490Y9186D01*
X77939Y10880D02*
X83542Y9379D01*
X77991Y11073D02*
X83400Y9624D01*
X78043Y11267D02*
X83259Y9869D01*
X77902Y11512D02*
X83118Y10114D01*
X77953Y11705D02*
X83169Y10307D01*
X78005Y11898D02*
X83028Y10552D01*
X78057Y12091D02*
X82886Y10797D01*
X78109Y12284D02*
X82745Y11042D01*
X78160Y12477D02*
X82990Y11183D01*
X78212Y12671D02*
X83428Y11273D01*
X78264Y12864D02*
X84059Y11311D01*
X78316Y13057D02*
X84498Y11401D01*
X78367Y13250D02*
X85129Y11439D01*
X78419Y13443D02*
X85567Y11528D01*
X78471Y13637D02*
X86198Y11566D01*
X78678Y14409D02*
X86212Y12391D01*
X78923Y14551D02*
X86071Y12636D01*
X78975Y14744D02*
X86123Y12829D01*
X79026Y14937D02*
X86174Y13022D01*
X79078Y15130D02*
X86033Y13267D01*
X79323Y15272D02*
X86085Y13460D01*
X79375Y15465D02*
X85943Y13705D01*
X79620Y15606D02*
X85995Y13898D01*
X79672Y15800D02*
X86047Y14091D01*
X79723Y15993D02*
X85905Y14336D01*
X79968Y16134D02*
X85957Y14529D01*
X80020Y16327D02*
X85816Y14774D01*
X80265Y16469D02*
X85867Y14968D01*
X80510Y16610D02*
X85919Y15161D01*
X80562Y16803D02*
X85778Y15406D01*
X80807Y16945D02*
X85830Y15599D01*
X81052Y17086D02*
X85688Y15844D01*
X81103Y17279D02*
X85740Y16037D01*
X81348Y17421D02*
X85792Y16230D01*
X81593Y17562D02*
X85650Y16475D01*
X89372Y15685D02*
X92850Y14753D01*
X89424Y15878D02*
X92708Y14998D01*
X89476Y16071D02*
X92567Y15243D01*
X89528Y16264D02*
X92426Y15488D01*
X89386Y16509D02*
X92284Y15733D01*
X89438Y16702D02*
X91949Y16030D01*
X89490Y16896D02*
X91808Y16275D01*
X89542Y17089D02*
X91474Y16571D01*
X89400Y17334D02*
X91139Y16868D01*
X89452Y17527D02*
X90611Y17217D01*
X89504Y17720D02*
X90083Y17565D01*
X81089Y4860D02*
X85918Y3566D01*
X78523Y13830D02*
X86250Y11759D01*
X78575Y14023D02*
X86302Y11952D01*
X78626Y14216D02*
X86160Y12197D01*
X86191Y5356D02*
X90248Y4269D01*
X86243Y5550D02*
X90493Y4411D01*
X86101Y5794D02*
X90738Y4552D01*
X86153Y5988D02*
X90983Y4694D01*
X86012Y6233D02*
X91228Y4835D01*
X86063Y6426D02*
X91279Y5028D01*
X85922Y6671D02*
X91524Y5170D01*
X85974Y6864D02*
X91576Y5363D01*
X85832Y7109D02*
X91821Y5504D01*
X85884Y7302D02*
X92066Y5646D01*
X85936Y7495D02*
X92118Y5839D01*
X85794Y7740D02*
X92363Y5980D01*
X85846Y7933D02*
X92414Y6173D01*
X85705Y8178D02*
X92466Y6367D01*
X85756Y8372D02*
X92711Y6508D01*
X85615Y8617D02*
X92763Y6701D01*
X85667Y8810D02*
X92815Y6894D01*
X85719Y9003D02*
X93060Y7036D01*
X85577Y9248D02*
X93111Y7229D01*
X85629Y9441D02*
X93163Y7422D01*
X85681Y9634D02*
X93215Y7615D01*
X86312Y9672D02*
X93460Y7757D01*
X86943Y9710D02*
X93512Y7950D01*
X87575Y9748D02*
X93563Y8143D01*
X183703Y517955D02*
X185442Y517489D01*
X182813Y516951D02*
X188415Y515450D01*
X182954Y516706D02*
X188557Y515205D01*
X183096Y516461D02*
X188891Y514908D01*
X183237Y516216D02*
X189033Y514663D01*
X183185Y516023D02*
X189174Y514418D01*
X183327Y515778D02*
X189509Y514122D01*
X183468Y515533D02*
X189457Y513928D01*
X182798Y504532D02*
X186662Y503496D01*
X182939Y504287D02*
X186417Y503355D01*
X182888Y504094D02*
X186172Y503214D01*
X183029Y503849D02*
X185927Y503072D01*
X182977Y503655D02*
X185489Y502982D01*
X183119Y503410D02*
X185244Y502841D01*
X183067Y503217D02*
X184806Y502751D01*
X183208Y502972D02*
X184561Y502610D01*
X183157Y502779D02*
X183929Y502572D01*
X183298Y502534D02*
X183491Y502482D01*
X179915Y517727D02*
X182040Y517158D01*
X174885Y512864D02*
X180294Y511414D01*
X174833Y512670D02*
X179856Y511325D01*
X174781Y512477D02*
X179418Y511235D01*
X174730Y512284D02*
X179173Y511094D01*
X174678Y512091D02*
X179121Y510900D01*
X174626Y511898D02*
X179069Y510707D01*
X174574Y511704D02*
X179017Y510514D01*
X174560Y510880D02*
X179004Y509689D01*
X174509Y510687D02*
X179145Y509445D01*
X174457Y510494D02*
X179093Y509251D01*
X174598Y510249D02*
X179042Y509058D01*
X174547Y510055D02*
X178990Y508865D01*
X174495Y509862D02*
X179131Y508620D01*
X174443Y509669D02*
X179079Y508427D01*
X174584Y509424D02*
X179028Y508234D01*
X174533Y509231D02*
X178976Y508040D01*
X174674Y508986D02*
X179117Y507795D01*
X174622Y508793D02*
X179066Y507602D01*
X174764Y508548D02*
X179014Y507409D01*
X174712Y508355D02*
X178962Y507216D01*
X174853Y508110D02*
X179104Y506971D01*
X174995Y507865D02*
X179052Y506778D01*
X174943Y507672D02*
X179000Y506585D01*
X175084Y507427D02*
X179141Y506340D01*
X175226Y507182D02*
X179090Y506146D01*
X175367Y506937D02*
X179038Y505953D01*
X175509Y506692D02*
X178986Y505760D01*
X182723Y517389D02*
X187746Y516043D01*
X182865Y517144D02*
X188081Y515746D01*
X181423Y517945D02*
X182002Y517789D01*
X180791Y517907D02*
X182144Y517544D01*
X180353Y517817D02*
X182092Y517351D01*
X174522Y511511D02*
X179159Y510269D01*
X174664Y511266D02*
X179107Y510076D01*
X174612Y511073D02*
X179055Y509883D01*
X182685Y518020D02*
X186356Y517037D01*
X182440Y517879D02*
X186884Y516688D01*
X179670Y517586D02*
X182182Y516913D01*
X179232Y517496D02*
X182130Y516720D01*
X178987Y517355D02*
X182271Y516475D01*
X178742Y517213D02*
X182219Y516282D01*
X178497Y517072D02*
X182361Y516037D01*
X183610Y515288D02*
X189598Y513683D01*
X183751Y515043D02*
X189740Y513439D01*
X183699Y514850D02*
X189881Y513194D01*
X183841Y514605D02*
X190023Y512949D01*
X183982Y514360D02*
X190164Y512704D01*
X184124Y514115D02*
X190112Y512510D01*
X184072Y513922D02*
X190254Y512265D01*
X184213Y513677D02*
X190202Y512072D01*
X184355Y513432D02*
X190343Y511827D01*
X184496Y513187D02*
X190292Y511634D01*
X184444Y512994D02*
X190433Y511389D01*
X184586Y512749D02*
X190381Y511196D01*
X184727Y512504D02*
X190523Y510951D01*
X184869Y512259D02*
X190471Y510758D01*
X185010Y512014D02*
X190612Y510513D01*
X184958Y511821D02*
X190561Y510320D01*
X185100Y511576D02*
X190509Y510127D01*
X185241Y511331D02*
X190457Y509933D01*
X185382Y511086D02*
X190598Y509688D01*
X185331Y510893D02*
X190547Y509495D01*
X185472Y510648D02*
X190495Y509302D01*
X185614Y510403D02*
X190443Y509109D01*
X185755Y510158D02*
X190391Y508916D01*
X185510Y510017D02*
X190340Y508722D01*
X185072Y509927D02*
X190288Y508529D01*
X184441Y509889D02*
X190236Y508336D01*
X184002Y509799D02*
X190184Y508143D01*
X183371Y509761D02*
X190133Y507950D01*
X182933Y509672D02*
X190081Y507757D01*
X182302Y509634D02*
X190029Y507563D01*
X182288Y508809D02*
X189822Y506791D01*
X182429Y508565D02*
X189577Y506649D01*
X182377Y508371D02*
X189525Y506456D01*
X182326Y508178D02*
X189474Y506263D01*
X182467Y507933D02*
X189422Y506070D01*
X182415Y507740D02*
X189177Y505928D01*
X182557Y507495D02*
X189125Y505735D01*
X182505Y507302D02*
X188880Y505594D01*
X182453Y507109D02*
X188828Y505401D01*
X182595Y506864D02*
X188777Y505207D01*
X182543Y506671D02*
X188532Y505066D01*
X182684Y506426D02*
X188480Y504873D01*
X182633Y506232D02*
X188235Y504731D01*
X182581Y506039D02*
X187990Y504590D01*
X182722Y505794D02*
X187938Y504397D01*
X182670Y505601D02*
X187693Y504255D01*
X182812Y505356D02*
X187448Y504114D01*
X182760Y505163D02*
X187397Y503921D01*
X182708Y504970D02*
X187152Y503779D01*
X182850Y504725D02*
X186907Y503638D01*
X175650Y506447D02*
X179128Y505515D01*
X175792Y506202D02*
X179076Y505322D01*
X175933Y505957D02*
X179024Y505129D01*
X176074Y505712D02*
X178972Y504936D01*
X176216Y505467D02*
X179114Y504691D01*
X176550Y505170D02*
X179062Y504497D01*
X176692Y504925D02*
X179010Y504304D01*
X177026Y504629D02*
X178958Y504111D01*
X177361Y504332D02*
X179100Y503866D01*
X177889Y503983D02*
X179048Y503673D01*
X178417Y503635D02*
X178996Y503480D01*
X182582Y517634D02*
X187411Y516340D01*
X182250Y509441D02*
X189977Y507370D01*
X182198Y509248D02*
X189926Y507177D01*
X182340Y509003D02*
X189874Y506984D01*
X178252Y516931D02*
X182309Y515844D01*
X178007Y516789D02*
X182257Y515650D01*
X177762Y516648D02*
X182399Y515406D01*
X177517Y516506D02*
X182347Y515212D01*
X177272Y516365D02*
X182488Y514967D01*
X177221Y516172D02*
X182437Y514774D01*
X176976Y516030D02*
X182578Y514529D01*
X176924Y515837D02*
X182526Y514336D01*
X176679Y515696D02*
X182668Y514091D01*
X176434Y515554D02*
X182616Y513898D01*
X176382Y515361D02*
X182564Y513705D01*
X176137Y515220D02*
X182706Y513460D01*
X176086Y515027D02*
X182654Y513267D01*
X176034Y514833D02*
X182795Y513022D01*
X175789Y514692D02*
X182744Y512828D01*
X175737Y514499D02*
X182885Y512583D01*
X175685Y514306D02*
X182833Y512390D01*
X175440Y514164D02*
X182781Y512197D01*
X175389Y513971D02*
X182923Y511952D01*
X175337Y513778D02*
X182871Y511759D01*
X175285Y513585D02*
X182819Y511566D01*
X175040Y513443D02*
X182188Y511528D01*
X174988Y513250D02*
X181557Y511490D01*
X174937Y513057D02*
X180925Y511452D01*
X7098Y39283D02*
Y74717D01*
Y39283D02*
X20484D01*
X33083D02*
X44500D01*
X57098D02*
X65366D01*
Y51882D01*
X63201D02*
X65366D01*
X63201D02*
Y65465D01*
X61232D02*
X63201D01*
X61232D02*
Y74717D01*
X57098D02*
X61232D01*
X33083D02*
X44500D01*
X7098D02*
X20484D01*
X79400Y334400D02*
X87400D01*
X86900Y340400D02*
X87400D01*
X86900Y331400D02*
X87400D01*
X79400Y340400D02*
X79900D01*
X79400Y331400D02*
X79900D01*
X87400D02*
Y340400D01*
X79400Y331400D02*
Y340400D01*
X93500Y334400D02*
X101500D01*
X101000Y340400D02*
X101500D01*
X101000Y331400D02*
X101500D01*
X93500Y340400D02*
X94000D01*
X93500Y331400D02*
X94000D01*
X101500D02*
Y340400D01*
X93500Y331400D02*
Y340400D01*
X68700Y480800D02*
X69300D01*
X68700Y486800D02*
X69300D01*
X68700Y480800D02*
Y486800D01*
X72700Y480800D02*
X73300D01*
X72700Y486800D02*
X73300D01*
Y480800D02*
Y486800D01*
X72700Y499800D02*
X73300D01*
X72700Y493800D02*
X73300D01*
Y499800D01*
X68700D02*
X69300D01*
X68700Y493800D02*
X69300D01*
X68700D02*
Y499800D01*
Y468300D02*
X69300D01*
X68700Y474300D02*
X69300D01*
X68700Y468300D02*
Y474300D01*
X72700Y468300D02*
X73300D01*
X72700Y474300D02*
X73300D01*
Y468300D02*
Y474300D01*
X66200Y429800D02*
X66800D01*
X66200Y435800D02*
X66800D01*
X66200Y429800D02*
Y435800D01*
X70200Y429800D02*
X70800D01*
X70200Y435800D02*
X70800D01*
Y429800D02*
Y435800D01*
X66700Y416300D02*
X67300D01*
X66700Y422300D02*
X67300D01*
X66700Y416300D02*
Y422300D01*
X70700Y416300D02*
X71300D01*
X70700Y422300D02*
X71300D01*
Y416300D02*
Y422300D01*
X70700Y448300D02*
X71300D01*
X70700Y442300D02*
X71300D01*
Y448300D01*
X66700D02*
X67300D01*
X66700Y442300D02*
X67300D01*
X66700D02*
Y448300D01*
X95200Y315400D02*
Y321400D01*
Y315400D02*
X95800D01*
X95200Y321400D02*
X95800D01*
X99800Y315400D02*
Y321400D01*
X99200Y315400D02*
X99800D01*
X99200Y321400D02*
X99800D01*
X81100Y315400D02*
Y321400D01*
Y315400D02*
X81700D01*
X81100Y321400D02*
X81700D01*
X85700Y315400D02*
Y321400D01*
X85100Y315400D02*
X85700D01*
X85100Y321400D02*
X85700D01*
D16*
X68500Y355644D02*
X74405D01*
X74405Y356156D02*
X74405Y355644D01*
X68500D02*
X68500Y356156D01*
X74405Y360644D02*
X74405Y361156D01*
X68500D02*
X68500Y360644D01*
X68500Y361156D02*
X74405D01*
X71452Y359975D02*
X71453Y356628D01*
X101000Y296744D02*
X106905D01*
X106905Y297256D02*
X106905Y296744D01*
X101000D02*
Y297256D01*
X106905Y301744D02*
Y302256D01*
X101000D02*
X101000Y301744D01*
X101000Y302256D02*
X106905D01*
X103500Y496056D02*
X109406D01*
X103500D02*
X103500Y495544D01*
X109406D02*
Y496056D01*
X103500Y490544D02*
Y491056D01*
X109406D02*
X109406Y490544D01*
X103500D02*
X109406D01*
X103500Y476556D02*
X109406D01*
X103500D02*
X103500Y476044D01*
X109406D02*
Y476556D01*
X103500Y471044D02*
Y471556D01*
X109406D02*
X109406Y471044D01*
X103500D02*
X109406D01*
X103595Y425056D02*
X109500D01*
X103595D02*
X103595Y424544D01*
X109500D02*
Y425056D01*
X103595Y419544D02*
Y420056D01*
X109500D02*
X109500Y419544D01*
X103595D02*
X109500D01*
X103500Y444556D02*
X109406D01*
X103500D02*
X103500Y444044D01*
X109406D02*
Y444556D01*
X103500Y439044D02*
Y439556D01*
X109406D02*
X109406Y439044D01*
X103500D02*
X109406D01*
X116900Y291844D02*
X122806D01*
X122806Y292356D02*
X122806Y291844D01*
X116900D02*
Y292356D01*
X122806Y296844D02*
Y297356D01*
X116900D02*
X116900Y296844D01*
X116900Y297356D02*
X122806D01*
X119852Y296175D02*
X119853Y292828D01*
D17*
X244805Y410600D02*
X250803D01*
X248804D01*
X244805Y414599D01*
X247804Y411600D01*
X250803Y414599D01*
X246804Y417598D02*
Y419597D01*
X247804Y420597D01*
X250803D01*
Y417598D01*
X249803Y416598D01*
X248804Y417598D01*
Y420597D01*
X246804Y422596D02*
X250803D01*
X248804D01*
X247804Y423596D01*
X246804Y424595D01*
Y425595D01*
Y429594D02*
Y431593D01*
X247804Y432593D01*
X250803D01*
Y429594D01*
X249803Y428594D01*
X248804Y429594D01*
Y432593D01*
X250803Y434592D02*
X244805D01*
X248804D02*
X246804Y437591D01*
X248804Y434592D02*
X250803Y437591D01*
X246804Y441590D02*
Y443589D01*
X247804Y444589D01*
X250803D01*
Y441590D01*
X249803Y440590D01*
X248804Y441590D01*
Y444589D01*
X246804Y446588D02*
X249803D01*
X250803Y447588D01*
Y450587D01*
X251803D01*
X252802Y449587D01*
Y448588D01*
X250803Y450587D02*
X246804D01*
Y453586D02*
Y455585D01*
X247804Y456585D01*
X250803D01*
Y453586D01*
X249803Y452586D01*
X248804Y453586D01*
Y456585D01*
X247804Y464582D02*
Y468581D01*
X244805Y476579D02*
X250803D01*
X248804D01*
X244805Y480577D01*
X247804Y477578D01*
X250803Y480577D01*
Y485576D02*
Y483576D01*
X249803Y482577D01*
X247804D01*
X246804Y483576D01*
Y485576D01*
X247804Y486575D01*
X248804D01*
Y482577D01*
X246804Y488575D02*
X249803D01*
X250803Y489574D01*
Y492573D01*
X251803D01*
X252802Y491574D01*
Y490574D01*
X250803Y492573D02*
X246804D01*
X250803Y494573D02*
Y497572D01*
X249803Y498572D01*
X248804Y497572D01*
Y495573D01*
X247804Y494573D01*
X246804Y495573D01*
Y498572D01*
Y501571D02*
Y503570D01*
X247804Y504570D01*
X250803D01*
Y501571D01*
X249803Y500571D01*
X248804Y501571D01*
Y504570D01*
X250803Y506569D02*
X246804D01*
Y509568D01*
X247804Y510568D01*
X250803D01*
X263600Y414599D02*
Y410600D01*
X259601Y414599D01*
X258602D01*
X257602Y413599D01*
Y411600D01*
X258602Y410600D01*
Y416598D02*
X257602Y417598D01*
Y419597D01*
X258602Y420597D01*
X262600D01*
X263600Y419597D01*
Y417598D01*
X262600Y416598D01*
X258602D01*
X263600Y426595D02*
Y422596D01*
X259601Y426595D01*
X258602D01*
X257602Y425595D01*
Y423596D01*
X258602Y422596D01*
Y428594D02*
X257602Y429594D01*
Y431593D01*
X258602Y432593D01*
X262600D01*
X263600Y431593D01*
Y429594D01*
X262600Y428594D01*
X258602D01*
X260601Y440590D02*
Y444589D01*
X259601Y452586D02*
X263600Y454586D01*
X259601Y456585D01*
X263600Y458584D02*
Y460584D01*
Y459584D01*
X257602D01*
X258602Y458584D01*
X263600Y463583D02*
X262600D01*
Y464582D01*
X263600D01*
Y463583D01*
Y468581D02*
Y470581D01*
Y469581D01*
X257602D01*
X258602Y468581D01*
X168800Y514300D02*
Y508302D01*
X166801Y510301D01*
X164801Y508302D01*
Y514300D01*
X158803Y508302D02*
X162802D01*
Y514300D01*
X158803D01*
X162802Y511301D02*
X160803D01*
X156804Y508302D02*
X152805D01*
X154805D01*
Y514300D01*
X150806Y508302D02*
Y513300D01*
X149806Y514300D01*
X147807D01*
X146807Y513300D01*
Y508302D01*
X138810Y514300D02*
Y508302D01*
X135811D01*
X134811Y509302D01*
Y511301D01*
X135811Y512301D01*
X138810D01*
X131812Y514300D02*
X129813D01*
X128813Y513300D01*
Y511301D01*
X129813Y510301D01*
X131812D01*
X132812Y511301D01*
Y513300D01*
X131812Y514300D01*
X126814Y510301D02*
Y513300D01*
X125814Y514300D01*
X124814Y513300D01*
X123815Y514300D01*
X122815Y513300D01*
Y510301D01*
X117816Y514300D02*
X119816D01*
X120816Y513300D01*
Y511301D01*
X119816Y510301D01*
X117816D01*
X116817Y511301D01*
Y512301D01*
X120816D01*
X114818Y510301D02*
Y514300D01*
Y512301D01*
X113818Y511301D01*
X112818Y510301D01*
X111818D01*
X108819Y508302D02*
Y514300D01*
X104821D01*
X101822Y510301D02*
X99822D01*
X98823Y511301D01*
Y514300D01*
X101822D01*
X102821Y513300D01*
X101822Y512301D01*
X98823D01*
X96823Y508302D02*
Y514300D01*
X93824D01*
X92825Y513300D01*
Y512301D01*
Y511301D01*
X93824Y510301D01*
X96823D01*
X98700Y7600D02*
Y13598D01*
X100699Y11599D01*
X102699Y13598D01*
Y7600D01*
X108697Y13598D02*
X104698D01*
Y7600D01*
X108697D01*
X104698Y10599D02*
X106697D01*
X110696Y13598D02*
X114695D01*
X112696D01*
Y7600D01*
X116694Y13598D02*
Y8600D01*
X117694Y7600D01*
X119693D01*
X120693Y8600D01*
Y13598D01*
X128690Y7600D02*
Y13598D01*
X131689D01*
X132689Y12598D01*
Y10599D01*
X131689Y9599D01*
X128690D01*
X135688Y7600D02*
X137687D01*
X138687Y8600D01*
Y10599D01*
X137687Y11599D01*
X135688D01*
X134688Y10599D01*
Y8600D01*
X135688Y7600D01*
X140686Y11599D02*
Y8600D01*
X141686Y7600D01*
X142686Y8600D01*
X143685Y7600D01*
X144685Y8600D01*
Y11599D01*
X149683Y7600D02*
X147684D01*
X146685Y8600D01*
Y10599D01*
X147684Y11599D01*
X149683D01*
X150683Y10599D01*
Y9599D01*
X146685D01*
X152682Y11599D02*
Y7600D01*
Y9599D01*
X153682Y10599D01*
X154682Y11599D01*
X155682D01*
X158681Y13598D02*
Y7600D01*
X162679D01*
X165678Y11599D02*
X167678D01*
X168677Y10599D01*
Y7600D01*
X165678D01*
X164679Y8600D01*
X165678Y9599D01*
X168677D01*
X170677Y13598D02*
Y7600D01*
X173676D01*
X174675Y8600D01*
Y9599D01*
Y10599D01*
X173676Y11599D01*
X170677D01*
X255702Y9199D02*
X254702Y8199D01*
Y6200D01*
X255702Y5200D01*
X259700D01*
X260700Y6200D01*
Y8199D01*
X259700Y9199D01*
X260700Y12198D02*
Y14197D01*
X259700Y15197D01*
X257701D01*
X256701Y14197D01*
Y12198D01*
X257701Y11198D01*
X259700D01*
X260700Y12198D01*
Y17196D02*
X256701D01*
Y20195D01*
X257701Y21195D01*
X260700D01*
X255702Y24194D02*
X256701D01*
Y23194D01*
Y25194D01*
Y24194D01*
X259700D01*
X260700Y25194D01*
X256701Y28193D02*
X260700D01*
X258701D01*
X257701Y29192D01*
X256701Y30192D01*
Y31192D01*
X260700Y35190D02*
Y37190D01*
X259700Y38189D01*
X257701D01*
X256701Y37190D01*
Y35190D01*
X257701Y34191D01*
X259700D01*
X260700Y35190D01*
Y40189D02*
Y42188D01*
Y41188D01*
X254702D01*
Y40189D01*
Y51185D02*
X260700D01*
Y54184D01*
X259700Y55184D01*
X258701D01*
X257701Y54184D01*
Y51185D01*
Y54184D01*
X256701Y55184D01*
X255702D01*
X254702Y54184D01*
Y51185D01*
X260700Y58183D02*
Y60182D01*
X259700Y61182D01*
X257701D01*
X256701Y60182D01*
Y58183D01*
X257701Y57183D01*
X259700D01*
X260700Y58183D01*
X256701Y64181D02*
Y66180D01*
X257701Y67180D01*
X260700D01*
Y64181D01*
X259700Y63181D01*
X258701Y64181D01*
Y67180D01*
X256701Y69179D02*
X260700D01*
X258701D01*
X257701Y70179D01*
X256701Y71179D01*
Y72178D01*
X254702Y79176D02*
X260700D01*
Y76177D01*
X259700Y75177D01*
X257701D01*
X256701Y76177D01*
Y79176D01*
D18*
X245535Y195100D02*
X244702Y195933D01*
Y197599D01*
X245535Y198432D01*
X246368D01*
X247201Y197599D01*
X248034Y198432D01*
X248867D01*
X249700Y197599D01*
Y195933D01*
X248867Y195100D01*
X248034D01*
X247201Y195933D01*
X246368Y195100D01*
X245535D01*
X247201Y195933D02*
Y197599D01*
X258900Y195300D02*
Y196966D01*
Y196133D01*
X253902D01*
X254735Y195300D01*
X249700Y82000D02*
Y83666D01*
Y82833D01*
X244702D01*
X245535Y82000D01*
X249700Y88665D02*
X244702D01*
X247201Y86165D01*
Y89498D01*
X254102Y85500D02*
Y88832D01*
X254935D01*
X258267Y85500D01*
X259100D01*
X255902Y240500D02*
Y243832D01*
X256735D01*
X260067Y240500D01*
X260900D01*
X249600Y237500D02*
Y239166D01*
Y238333D01*
X244602D01*
X245435Y237500D01*
X249600Y244164D02*
X244602D01*
X247101Y241665D01*
Y244998D01*
X258900Y352300D02*
Y353966D01*
Y353133D01*
X253902D01*
X254735Y352300D01*
X245435Y352400D02*
X244602Y353233D01*
Y354899D01*
X245435Y355732D01*
X246268D01*
X247101Y354899D01*
X247934Y355732D01*
X248767D01*
X249600Y354899D01*
Y353233D01*
X248767Y352400D01*
X247934D01*
X247101Y353233D01*
X246268Y352400D01*
X245435D01*
X247101Y353233D02*
Y354899D01*
M02*
