G04*
G04 #@! TF.GenerationSoftware,Altium Limited,Altium Designer,18.0.7 (293)*
G04*
G04 Layer_Physical_Order=2*
G04 Layer_Color=16711680*
%FSLAX25Y25*%
%MOIN*%
G70*
G01*
G75*
%ADD12C,0.01000*%
%ADD17C,0.01500*%
%ADD19R,0.03000X0.03000*%
%ADD20R,0.02362X0.03543*%
%ADD21R,0.03347X0.01575*%
%ADD32R,0.03000X0.03000*%
%ADD60C,0.08000*%
%ADD61R,0.06378X0.06378*%
%ADD62C,0.06378*%
%ADD63R,0.05906X0.05906*%
%ADD64C,0.05906*%
%ADD65C,0.06693*%
%ADD66R,0.06693X0.06693*%
%ADD67C,0.07087*%
%ADD68C,0.03150*%
%ADD69C,0.05000*%
%ADD70C,0.12500*%
%ADD71C,0.09800*%
G04:AMPARAMS|DCode=72|XSize=23.62mil|YSize=35.43mil|CornerRadius=0mil|HoleSize=0mil|Usage=FLASHONLY|Rotation=135.000|XOffset=0mil|YOffset=0mil|HoleType=Round|Shape=Rectangle|*
%AMROTATEDRECTD72*
4,1,4,0.02088,0.00418,-0.00418,-0.02088,-0.02088,-0.00418,0.00418,0.02088,0.02088,0.00418,0.0*
%
%ADD72ROTATEDRECTD72*%

%ADD73R,0.03543X0.02362*%
%ADD74R,0.02756X0.03937*%
%ADD75C,0.02000*%
G36*
X265200Y2300D02*
X264300Y1400D01*
X1800D01*
X1700Y523846D01*
X2054Y524200D01*
X265200D01*
Y2300D01*
D02*
G37*
%LPC*%
G36*
X69898Y507768D02*
X68020D01*
Y505300D01*
X69898D01*
Y507768D01*
D02*
G37*
G36*
X67020D02*
X65142D01*
Y505300D01*
X67020D01*
Y507768D01*
D02*
G37*
G36*
X69898Y504300D02*
X68020D01*
Y501831D01*
X69898D01*
Y504300D01*
D02*
G37*
G36*
X67020D02*
X65142D01*
Y501831D01*
X67020D01*
Y504300D01*
D02*
G37*
G36*
X225500Y515967D02*
X224043Y515824D01*
X222642Y515399D01*
X221352Y514709D01*
X220220Y513780D01*
X219291Y512648D01*
X218601Y511357D01*
X218176Y509957D01*
X218033Y508500D01*
X218176Y507043D01*
X218601Y505643D01*
X219291Y504352D01*
X220220Y503220D01*
X221352Y502291D01*
X222642Y501601D01*
X224043Y501176D01*
X225500Y501033D01*
X226957Y501176D01*
X228358Y501601D01*
X229648Y502291D01*
X230780Y503220D01*
X231709Y504352D01*
X232399Y505643D01*
X232824Y507043D01*
X232967Y508500D01*
X232824Y509957D01*
X232399Y511357D01*
X231709Y512648D01*
X230780Y513780D01*
X229648Y514709D01*
X228358Y515399D01*
X226957Y515824D01*
X225500Y515967D01*
D02*
G37*
G36*
X15500D02*
X14043Y515824D01*
X12642Y515399D01*
X11351Y514709D01*
X10220Y513780D01*
X9291Y512648D01*
X8601Y511357D01*
X8176Y509957D01*
X8033Y508500D01*
X8176Y507043D01*
X8601Y505643D01*
X9291Y504352D01*
X10220Y503220D01*
X11351Y502291D01*
X12642Y501601D01*
X14043Y501176D01*
X15500Y501033D01*
X16957Y501176D01*
X18358Y501601D01*
X19648Y502291D01*
X20780Y503220D01*
X21709Y504352D01*
X22399Y505643D01*
X22824Y507043D01*
X22967Y508500D01*
X22824Y509957D01*
X22399Y511357D01*
X21709Y512648D01*
X20780Y513780D01*
X19648Y514709D01*
X18358Y515399D01*
X16957Y515824D01*
X15500Y515967D01*
D02*
G37*
G36*
X77559Y507950D02*
X72441D01*
Y506004D01*
X72000D01*
X71539Y505913D01*
X71149Y505652D01*
X70887Y505261D01*
X70796Y504800D01*
X70796Y500576D01*
X70389Y500076D01*
X68701D01*
Y498050D01*
X68201Y497786D01*
X67719Y497985D01*
X67000Y498080D01*
X66281Y497985D01*
X65610Y497707D01*
X65035Y497265D01*
X64593Y496690D01*
X64315Y496019D01*
X64220Y495300D01*
X64315Y494581D01*
X64593Y493910D01*
X65035Y493334D01*
X65610Y492893D01*
X66281Y492615D01*
X67000Y492520D01*
X67719Y492615D01*
X68390Y492893D01*
X68961Y493331D01*
X69634D01*
X70387Y493481D01*
X70829Y493776D01*
X73819D01*
Y496125D01*
X74281Y496316D01*
X79296Y491301D01*
Y490253D01*
X79147Y490072D01*
X79000D01*
Y487300D01*
Y484528D01*
X79147D01*
X79296Y484347D01*
Y483753D01*
X79147Y483572D01*
X79000D01*
Y480800D01*
Y478028D01*
X79147D01*
X79296Y477847D01*
Y466524D01*
X77378D01*
Y467269D01*
X75500D01*
Y464300D01*
X75000D01*
Y463800D01*
X72622D01*
Y461332D01*
X72258Y461004D01*
X71999D01*
X70704Y462299D01*
Y466800D01*
X70613Y467261D01*
X70351Y467652D01*
X69961Y467913D01*
X69500Y468004D01*
X65500D01*
X65039Y467913D01*
X64648Y467652D01*
X64387Y467261D01*
X64296Y466800D01*
Y460800D01*
X64387Y460339D01*
X64648Y459948D01*
X64648Y459948D01*
X66796Y457801D01*
Y449800D01*
X66887Y449339D01*
X67149Y448948D01*
X67539Y448687D01*
X68000Y448596D01*
X72000D01*
X72461Y448687D01*
X72852Y448948D01*
X73113Y449339D01*
X73204Y449800D01*
Y454801D01*
X73999Y455596D01*
X78123D01*
X78500Y455300D01*
Y453300D01*
X81000D01*
Y452300D01*
X78500D01*
Y450300D01*
X79147D01*
X79296Y450119D01*
Y416305D01*
X79131Y416212D01*
X79103Y416177D01*
X79066Y416152D01*
X78959Y415992D01*
X78842Y415841D01*
X78590Y415341D01*
X78539Y415157D01*
X78474Y414977D01*
X78413Y414572D01*
X78413Y414572D01*
Y413900D01*
D01*
Y412300D01*
X80594D01*
Y411800D01*
X81094D01*
Y409028D01*
X81800D01*
Y408538D01*
D01*
X81800Y405919D01*
D01*
Y405800D01*
X81681D01*
D01*
X80419D01*
X80227Y405762D01*
X80032Y405736D01*
X79997Y405716D01*
X79958Y405708D01*
X79795Y405599D01*
X79625Y405501D01*
X79601Y405470D01*
X79568Y405447D01*
X79458Y405284D01*
X79339Y405128D01*
X79093Y404628D01*
X79042Y404439D01*
X78979Y404253D01*
X78981Y404213D01*
X78971Y404175D01*
X78996Y403980D01*
X79009Y403784D01*
X79027Y403748D01*
X79032Y403709D01*
X79130Y403539D01*
X79217Y403363D01*
X79355Y403183D01*
X79512Y402805D01*
X79565Y402400D01*
X79512Y401995D01*
X79355Y401617D01*
X79107Y401293D01*
X78782Y401045D01*
X78405Y400888D01*
X78000Y400835D01*
X77595Y400888D01*
X77218Y401045D01*
X76893Y401293D01*
X76645Y401617D01*
X76488Y401995D01*
X76435Y402400D01*
X76488Y402805D01*
X76645Y403183D01*
X76783Y403363D01*
X76870Y403539D01*
X76968Y403709D01*
X76973Y403748D01*
X76991Y403784D01*
X77004Y403980D01*
X77029Y404175D01*
X77019Y404213D01*
X77021Y404253D01*
X76958Y404439D01*
X76907Y404628D01*
X76661Y405128D01*
X76542Y405284D01*
X76432Y405447D01*
X76399Y405470D01*
X76375Y405501D01*
X76205Y405599D01*
X76042Y405708D01*
X76003Y405716D01*
X75968Y405736D01*
X75773Y405762D01*
X75581Y405800D01*
X70419Y405800D01*
X70227Y405762D01*
X70032Y405736D01*
X69997Y405716D01*
X69958Y405708D01*
X69795Y405599D01*
X69625Y405501D01*
X69601Y405470D01*
X69568Y405447D01*
X69459Y405284D01*
X69339Y405128D01*
X69093Y404628D01*
X69042Y404439D01*
X68979Y404253D01*
X68981Y404213D01*
X68971Y404175D01*
X68997Y403980D01*
X69009Y403784D01*
X69027Y403748D01*
X69032Y403709D01*
X69130Y403539D01*
X69217Y403363D01*
X69355Y403183D01*
X69512Y402805D01*
X69565Y402400D01*
X69512Y401995D01*
X69355Y401617D01*
X69107Y401293D01*
X68783Y401045D01*
X68405Y400888D01*
X68000Y400835D01*
X67595Y400888D01*
X67217Y401045D01*
X66893Y401293D01*
X66645Y401617D01*
X66488Y401995D01*
X66435Y402400D01*
X66488Y402805D01*
X66645Y403183D01*
X66893Y403507D01*
X67093Y403659D01*
X67158Y403734D01*
X67238Y403792D01*
X67311Y403909D01*
X67402Y404013D01*
X67434Y404107D01*
X67486Y404191D01*
X67509Y404327D01*
X67553Y404458D01*
X67547Y404557D01*
X67563Y404654D01*
X67552Y404988D01*
X67530Y405084D01*
Y405183D01*
X67477Y405311D01*
X67445Y405445D01*
X67388Y405526D01*
X67350Y405618D01*
X67228Y405800D01*
X67200D01*
Y407758D01*
X67200Y413627D01*
D01*
Y413900D01*
X67862D01*
Y412426D01*
X69740D01*
Y414894D01*
X68064D01*
X67918Y414939D01*
X67712Y415065D01*
X67540Y415261D01*
X67422Y415650D01*
X67394Y415702D01*
X67382Y415761D01*
X67284Y415908D01*
X67200Y416064D01*
X67154Y416102D01*
X67121Y416152D01*
X67274Y416650D01*
X69059D01*
Y422950D01*
X66135D01*
X65916Y423168D01*
X65907Y423190D01*
X65465Y423766D01*
X64890Y424207D01*
X64219Y424485D01*
X63500Y424580D01*
X62781Y424485D01*
X62110Y424207D01*
X61535Y423766D01*
X61093Y423190D01*
X60815Y422519D01*
X60720Y421800D01*
X60815Y421081D01*
X61093Y420410D01*
X61535Y419835D01*
X62110Y419393D01*
X62781Y419115D01*
X63500Y419020D01*
X63565Y419029D01*
X63941Y418699D01*
X63941Y416650D01*
X63502Y416504D01*
X58500D01*
X58039Y416413D01*
X57648Y416152D01*
X57387Y415761D01*
X57296Y415300D01*
X57296Y381020D01*
X57387Y380559D01*
X57648Y380169D01*
X58039Y379908D01*
X58500Y379816D01*
X88500D01*
X88961Y379908D01*
X89351Y380169D01*
X89613Y380559D01*
X89704Y381020D01*
Y425537D01*
X89724Y426028D01*
X90204Y426028D01*
X91405D01*
Y428800D01*
X91905D01*
Y429300D01*
X94087D01*
Y431528D01*
X94087Y431572D01*
Y432028D01*
X94087Y432072D01*
Y434300D01*
X91905D01*
Y434800D01*
X91405D01*
Y437572D01*
X89724Y437572D01*
X89704Y438063D01*
Y442301D01*
X93352Y445949D01*
X93613Y446339D01*
X93704Y446800D01*
X93704Y446800D01*
X93704Y478028D01*
X94500D01*
Y480800D01*
Y483572D01*
X93704D01*
Y484528D01*
X94500D01*
Y487300D01*
Y490072D01*
X93704D01*
Y497710D01*
X93696Y497749D01*
X93702Y497788D01*
X93651Y497978D01*
X93613Y498171D01*
X93590Y498204D01*
X93580Y498242D01*
X93461Y498398D01*
X93352Y498561D01*
X93318Y498583D01*
X93294Y498615D01*
X93124Y498713D01*
X92961Y498822D01*
X92685Y499081D01*
X92780Y499800D01*
X92685Y500519D01*
X92437Y501119D01*
X92632Y501619D01*
X92681D01*
Y506981D01*
X87319D01*
Y506004D01*
X86681D01*
X86500Y506153D01*
Y506800D01*
X84500D01*
Y504300D01*
X83500D01*
Y506800D01*
X81500D01*
Y506153D01*
X81319Y506004D01*
X77559D01*
Y507950D01*
D02*
G37*
G36*
X97181Y490072D02*
X95500D01*
Y487800D01*
X97181D01*
Y490072D01*
D02*
G37*
G36*
X78000D02*
X76319D01*
Y487800D01*
X78000D01*
Y490072D01*
D02*
G37*
G36*
X97181Y486800D02*
X95500D01*
Y484528D01*
X97181D01*
Y486800D01*
D02*
G37*
G36*
X78000D02*
X76319D01*
Y484528D01*
X78000D01*
Y486800D01*
D02*
G37*
G36*
X97181Y483572D02*
X95500D01*
Y481300D01*
X97181D01*
Y483572D01*
D02*
G37*
G36*
X78000D02*
X76319D01*
Y481300D01*
X78000D01*
Y483572D01*
D02*
G37*
G36*
X97181Y480300D02*
X95500D01*
Y478028D01*
X97181D01*
Y480300D01*
D02*
G37*
G36*
X78000D02*
X76319D01*
Y478028D01*
X78000D01*
Y480300D01*
D02*
G37*
G36*
X214870Y477870D02*
X206130D01*
Y469130D01*
X214870D01*
Y477870D01*
D02*
G37*
G36*
X204870D02*
X196130D01*
Y469130D01*
X204870D01*
Y477870D01*
D02*
G37*
G36*
X40500Y477908D02*
X39359Y477758D01*
X38296Y477317D01*
X37383Y476617D01*
X36683Y475704D01*
X36242Y474641D01*
X36092Y473500D01*
X36242Y472359D01*
X36683Y471296D01*
X37383Y470383D01*
X38296Y469683D01*
X39359Y469242D01*
X40500Y469092D01*
X41641Y469242D01*
X42704Y469683D01*
X43617Y470383D01*
X44317Y471296D01*
X44758Y472359D01*
X44908Y473500D01*
X44758Y474641D01*
X44317Y475704D01*
X43617Y476617D01*
X42704Y477317D01*
X41641Y477758D01*
X40500Y477908D01*
D02*
G37*
G36*
X30500D02*
X29359Y477758D01*
X28296Y477317D01*
X27383Y476617D01*
X26683Y475704D01*
X26242Y474641D01*
X26092Y473500D01*
X26242Y472359D01*
X26683Y471296D01*
X27383Y470383D01*
X28296Y469683D01*
X29359Y469242D01*
X30500Y469092D01*
X31641Y469242D01*
X32704Y469683D01*
X33617Y470383D01*
X34317Y471296D01*
X34758Y472359D01*
X34908Y473500D01*
X34758Y474641D01*
X34317Y475704D01*
X33617Y476617D01*
X32704Y477317D01*
X31641Y477758D01*
X30500Y477908D01*
D02*
G37*
G36*
X66000Y475580D02*
X65281Y475485D01*
X64610Y475207D01*
X64034Y474765D01*
X63593Y474190D01*
X63315Y473519D01*
X63220Y472800D01*
X63315Y472081D01*
X63593Y471410D01*
X64034Y470834D01*
X64610Y470393D01*
X65281Y470115D01*
X66000Y470020D01*
X66719Y470115D01*
X67390Y470393D01*
X67961Y470831D01*
X68701D01*
Y469024D01*
X73819D01*
Y475324D01*
X68701D01*
Y474769D01*
X67961D01*
X67390Y475207D01*
X66719Y475485D01*
X66000Y475580D01*
D02*
G37*
G36*
X74500Y467269D02*
X72622D01*
Y464800D01*
X74500D01*
Y467269D01*
D02*
G37*
G36*
X30500Y467908D02*
X29359Y467758D01*
X28296Y467317D01*
X27383Y466617D01*
X26683Y465704D01*
X26242Y464641D01*
X26092Y463500D01*
X26242Y462359D01*
X26683Y461296D01*
X27383Y460383D01*
X28296Y459683D01*
X29359Y459242D01*
X30500Y459092D01*
X31641Y459242D01*
X32704Y459683D01*
X33617Y460383D01*
X34317Y461296D01*
X34758Y462359D01*
X34908Y463500D01*
X34758Y464641D01*
X34317Y465704D01*
X33617Y466617D01*
X32704Y467317D01*
X31641Y467758D01*
X30500Y467908D01*
D02*
G37*
G36*
X210500Y467908D02*
X209359Y467758D01*
X208296Y467317D01*
X207383Y466617D01*
X206683Y465704D01*
X206242Y464641D01*
X206092Y463500D01*
X206242Y462359D01*
X206683Y461296D01*
X207383Y460383D01*
X208296Y459683D01*
X209359Y459242D01*
X210500Y459092D01*
X211641Y459242D01*
X212704Y459683D01*
X213617Y460383D01*
X214317Y461296D01*
X214758Y462359D01*
X214908Y463500D01*
X214758Y464641D01*
X214317Y465704D01*
X213617Y466617D01*
X212704Y467317D01*
X211641Y467758D01*
X210500Y467908D01*
D02*
G37*
G36*
X200500D02*
X199359Y467758D01*
X198296Y467317D01*
X197383Y466617D01*
X196683Y465704D01*
X196242Y464641D01*
X196092Y463500D01*
X196242Y462359D01*
X196683Y461296D01*
X197383Y460383D01*
X198296Y459683D01*
X199359Y459242D01*
X200500Y459092D01*
X201641Y459242D01*
X202704Y459683D01*
X203617Y460383D01*
X204317Y461296D01*
X204758Y462359D01*
X204908Y463500D01*
X204758Y464641D01*
X204317Y465704D01*
X203617Y466617D01*
X202704Y467317D01*
X201641Y467758D01*
X200500Y467908D01*
D02*
G37*
G36*
X40500Y467908D02*
X39359Y467758D01*
X38296Y467317D01*
X37383Y466617D01*
X36683Y465704D01*
X36242Y464641D01*
X36092Y463500D01*
X36242Y462359D01*
X36683Y461296D01*
X37383Y460383D01*
X37651Y460178D01*
X37490Y459704D01*
X36000D01*
X35539Y459613D01*
X35148Y459351D01*
X34887Y458961D01*
X34796Y458500D01*
Y455963D01*
X34348Y455729D01*
X34296Y455732D01*
X33617Y456617D01*
X32704Y457317D01*
X31641Y457758D01*
X30500Y457908D01*
X29359Y457758D01*
X28296Y457317D01*
X27383Y456617D01*
X26683Y455704D01*
X26242Y454641D01*
X26092Y453500D01*
X26242Y452359D01*
X26683Y451296D01*
X27383Y450383D01*
X28296Y449683D01*
X29359Y449242D01*
X30500Y449092D01*
X31641Y449242D01*
X32704Y449683D01*
X33617Y450383D01*
X34296Y451268D01*
X34348Y451271D01*
X34796Y451038D01*
Y449092D01*
X34887Y448631D01*
X35148Y448241D01*
X35539Y447980D01*
X36000Y447888D01*
X38367D01*
X38467Y447388D01*
X38296Y447317D01*
X37383Y446617D01*
X36683Y445704D01*
X36242Y444641D01*
X36092Y443500D01*
X36242Y442359D01*
X36683Y441296D01*
X37383Y440383D01*
X38296Y439683D01*
X39359Y439242D01*
X40500Y439092D01*
X41641Y439242D01*
X42704Y439683D01*
X43617Y440383D01*
X43822Y440651D01*
X44296Y440490D01*
Y436800D01*
X44296Y436800D01*
X44362Y436467D01*
X43894Y436255D01*
X43617Y436617D01*
X42704Y437317D01*
X41641Y437758D01*
X40500Y437908D01*
X39359Y437758D01*
X38296Y437317D01*
X37383Y436617D01*
X36683Y435704D01*
X36242Y434641D01*
X36092Y433500D01*
X36242Y432359D01*
X36683Y431296D01*
X37383Y430383D01*
X38296Y429683D01*
X39359Y429242D01*
X40500Y429092D01*
X41641Y429242D01*
X42704Y429683D01*
X43617Y430383D01*
X44317Y431296D01*
X44758Y432359D01*
X44908Y433500D01*
X44758Y434641D01*
X44410Y435480D01*
X44834Y435763D01*
X48149Y432448D01*
X48539Y432187D01*
X49000Y432096D01*
X49000Y432096D01*
X63500D01*
X63961Y432187D01*
X64351Y432448D01*
X64613Y432839D01*
X64704Y433300D01*
Y437301D01*
X68554Y441150D01*
X69059D01*
Y441759D01*
X69113Y441839D01*
X69204Y442300D01*
X69204Y442300D01*
Y446800D01*
X69113Y447261D01*
X69059Y447341D01*
Y447450D01*
X68986D01*
X68852Y447651D01*
X68461Y447913D01*
X68000Y448004D01*
X54704D01*
Y458500D01*
X54613Y458961D01*
X54352Y459351D01*
X53961Y459613D01*
X53500Y459704D01*
X43510D01*
X43349Y460178D01*
X43617Y460383D01*
X44317Y461296D01*
X44758Y462359D01*
X44908Y463500D01*
X44758Y464641D01*
X44317Y465704D01*
X43617Y466617D01*
X42704Y467317D01*
X41641Y467758D01*
X40500Y467908D01*
D02*
G37*
G36*
X180800Y456774D02*
Y453522D01*
X184052D01*
X184035Y453657D01*
X183597Y454714D01*
X182900Y455622D01*
X181992Y456319D01*
X180935Y456757D01*
X180800Y456774D01*
D02*
G37*
G36*
X178800D02*
X178665Y456757D01*
X177608Y456319D01*
X176700Y455622D01*
X176003Y454714D01*
X175565Y453657D01*
X175548Y453522D01*
X178800D01*
Y456774D01*
D02*
G37*
G36*
X149304D02*
Y453522D01*
X152556D01*
X152539Y453657D01*
X152101Y454714D01*
X151404Y455622D01*
X150496Y456319D01*
X149439Y456757D01*
X149304Y456774D01*
D02*
G37*
G36*
X147304D02*
X147169Y456757D01*
X146112Y456319D01*
X145204Y455622D01*
X144507Y454714D01*
X144069Y453657D01*
X144052Y453522D01*
X147304D01*
Y456774D01*
D02*
G37*
G36*
X65138Y455142D02*
X63260D01*
Y452674D01*
X65138D01*
Y455142D01*
D02*
G37*
G36*
X62260D02*
X60382D01*
Y452674D01*
X62260D01*
Y455142D01*
D02*
G37*
G36*
X65138Y451674D02*
X63260D01*
Y449205D01*
X65138D01*
Y451674D01*
D02*
G37*
G36*
X62260D02*
X60382D01*
Y449205D01*
X62260D01*
Y451674D01*
D02*
G37*
G36*
X210500Y457908D02*
X209359Y457758D01*
X208296Y457317D01*
X207383Y456617D01*
X206683Y455704D01*
X206242Y454641D01*
X206092Y453500D01*
X206242Y452359D01*
X206683Y451296D01*
X207383Y450383D01*
X208296Y449683D01*
X209359Y449242D01*
X210500Y449092D01*
X211641Y449242D01*
X212704Y449683D01*
X213617Y450383D01*
X214317Y451296D01*
X214758Y452359D01*
X214908Y453500D01*
X214758Y454641D01*
X214317Y455704D01*
X213617Y456617D01*
X212704Y457317D01*
X211641Y457758D01*
X210500Y457908D01*
D02*
G37*
G36*
X200500D02*
X199359Y457758D01*
X198296Y457317D01*
X197383Y456617D01*
X196683Y455704D01*
X196242Y454641D01*
X196092Y453500D01*
X196242Y452359D01*
X196683Y451296D01*
X197383Y450383D01*
X198296Y449683D01*
X199359Y449242D01*
X200500Y449092D01*
X201641Y449242D01*
X202704Y449683D01*
X203617Y450383D01*
X204317Y451296D01*
X204758Y452359D01*
X204908Y453500D01*
X204758Y454641D01*
X204317Y455704D01*
X203617Y456617D01*
X202704Y457317D01*
X201641Y457758D01*
X200500Y457908D01*
D02*
G37*
G36*
X184052Y451522D02*
X180800D01*
Y448270D01*
X180935Y448287D01*
X181992Y448725D01*
X182900Y449422D01*
X183597Y450330D01*
X184035Y451387D01*
X184052Y451522D01*
D02*
G37*
G36*
X178800D02*
X175548D01*
X175565Y451387D01*
X176003Y450330D01*
X176700Y449422D01*
X177608Y448725D01*
X178665Y448287D01*
X178800Y448270D01*
Y451522D01*
D02*
G37*
G36*
X152556D02*
X149304D01*
Y448270D01*
X149439Y448287D01*
X150496Y448725D01*
X151404Y449422D01*
X152101Y450330D01*
X152539Y451387D01*
X152556Y451522D01*
D02*
G37*
G36*
X147304D02*
X144052D01*
X144069Y451387D01*
X144507Y450330D01*
X145204Y449422D01*
X146112Y448725D01*
X147169Y448287D01*
X147304Y448270D01*
Y451522D01*
D02*
G37*
G36*
X30500Y447908D02*
X29359Y447758D01*
X28296Y447317D01*
X27383Y446617D01*
X26683Y445704D01*
X26242Y444641D01*
X26092Y443500D01*
X26242Y442359D01*
X26683Y441296D01*
X27383Y440383D01*
X28296Y439683D01*
X29359Y439242D01*
X30500Y439092D01*
X31641Y439242D01*
X32704Y439683D01*
X33617Y440383D01*
X34317Y441296D01*
X34758Y442359D01*
X34908Y443500D01*
X34758Y444641D01*
X34317Y445704D01*
X33617Y446617D01*
X32704Y447317D01*
X31641Y447758D01*
X30500Y447908D01*
D02*
G37*
G36*
X210500Y447908D02*
X209359Y447758D01*
X208296Y447317D01*
X207383Y446617D01*
X206683Y445704D01*
X206242Y444641D01*
X206092Y443500D01*
X206242Y442359D01*
X206683Y441296D01*
X207383Y440383D01*
X208296Y439683D01*
X209359Y439242D01*
X210500Y439092D01*
X211641Y439242D01*
X212704Y439683D01*
X213617Y440383D01*
X214317Y441296D01*
X214758Y442359D01*
X214908Y443500D01*
X214758Y444641D01*
X214317Y445704D01*
X213617Y446617D01*
X212704Y447317D01*
X211641Y447758D01*
X210500Y447908D01*
D02*
G37*
G36*
X200500D02*
X199359Y447758D01*
X198296Y447317D01*
X197383Y446617D01*
X196683Y445704D01*
X196242Y444641D01*
X196092Y443500D01*
X196242Y442359D01*
X196683Y441296D01*
X197383Y440383D01*
X198296Y439683D01*
X199359Y439242D01*
X200500Y439092D01*
X201641Y439242D01*
X202704Y439683D01*
X203617Y440383D01*
X204317Y441296D01*
X204758Y442359D01*
X204908Y443500D01*
X204758Y444641D01*
X204317Y445704D01*
X203617Y446617D01*
X202704Y447317D01*
X201641Y447758D01*
X200500Y447908D01*
D02*
G37*
G36*
X92405Y437572D02*
Y435300D01*
X94087D01*
Y437572D01*
X92405D01*
D02*
G37*
G36*
X78276D02*
X76595D01*
Y435300D01*
X78276D01*
Y437572D01*
D02*
G37*
G36*
X75595D02*
X73913D01*
Y435300D01*
X75595D01*
Y437572D01*
D02*
G37*
G36*
X191472Y433287D02*
X189200D01*
Y431605D01*
X191472D01*
Y433287D01*
D02*
G37*
G36*
X188200D02*
X185928D01*
Y431605D01*
X188200D01*
Y433287D01*
D02*
G37*
G36*
X179800Y433467D02*
X178618Y433311D01*
X177517Y432855D01*
X176571Y432129D01*
X175845Y431183D01*
X175609Y430614D01*
X152495D01*
X152259Y431183D01*
X151533Y432129D01*
X150587Y432855D01*
X149486Y433311D01*
X148304Y433467D01*
X147122Y433311D01*
X146021Y432855D01*
X145075Y432129D01*
X144349Y431183D01*
X143893Y430082D01*
X143737Y428900D01*
X143893Y427718D01*
X144349Y426617D01*
X145075Y425671D01*
X146021Y424945D01*
X147122Y424489D01*
X148304Y424333D01*
X149486Y424489D01*
X150587Y424945D01*
X151533Y425671D01*
X152259Y426617D01*
X152495Y427186D01*
X175609D01*
X175845Y426617D01*
X176571Y425671D01*
X177517Y424945D01*
X178618Y424489D01*
X179080Y424428D01*
Y419053D01*
X178432D01*
Y413147D01*
X183157D01*
Y419053D01*
X182509D01*
Y425272D01*
X183029Y425671D01*
X183755Y426617D01*
X184211Y427718D01*
X184367Y428900D01*
X184211Y430082D01*
X183755Y431183D01*
X183029Y432129D01*
X182083Y432855D01*
X180982Y433311D01*
X179800Y433467D01*
D02*
G37*
G36*
X78276Y434300D02*
X76095D01*
X73913D01*
Y432072D01*
X73913Y432028D01*
Y431572D01*
X73913Y431528D01*
Y429300D01*
X78276D01*
Y431528D01*
X78276Y431572D01*
Y432028D01*
X78276Y432072D01*
Y434300D01*
D02*
G37*
G36*
X30500Y437908D02*
X29359Y437758D01*
X28296Y437317D01*
X27383Y436617D01*
X26683Y435704D01*
X26242Y434641D01*
X26092Y433500D01*
X26242Y432359D01*
X26683Y431296D01*
X27383Y430383D01*
X28296Y429683D01*
X29359Y429242D01*
X30500Y429092D01*
X31641Y429242D01*
X32704Y429683D01*
X33617Y430383D01*
X34317Y431296D01*
X34758Y432359D01*
X34908Y433500D01*
X34758Y434641D01*
X34317Y435704D01*
X33617Y436617D01*
X32704Y437317D01*
X31641Y437758D01*
X30500Y437908D01*
D02*
G37*
G36*
X210500Y437908D02*
X209359Y437758D01*
X208296Y437317D01*
X207383Y436617D01*
X206683Y435704D01*
X206242Y434641D01*
X206092Y433500D01*
X206242Y432359D01*
X206683Y431296D01*
X207383Y430383D01*
X208296Y429683D01*
X209359Y429242D01*
X210500Y429092D01*
X211641Y429242D01*
X212704Y429683D01*
X213617Y430383D01*
X214317Y431296D01*
X214758Y432359D01*
X214908Y433500D01*
X214758Y434641D01*
X214317Y435704D01*
X213617Y436617D01*
X212704Y437317D01*
X211641Y437758D01*
X210500Y437908D01*
D02*
G37*
G36*
X200500D02*
X199359Y437758D01*
X198296Y437317D01*
X197383Y436617D01*
X196683Y435704D01*
X196242Y434641D01*
X196092Y433500D01*
X196242Y432359D01*
X196683Y431296D01*
X197383Y430383D01*
X198296Y429683D01*
X199359Y429242D01*
X200500Y429092D01*
X201641Y429242D01*
X202704Y429683D01*
X203617Y430383D01*
X204317Y431296D01*
X204758Y432359D01*
X204908Y433500D01*
X204758Y434641D01*
X204317Y435704D01*
X203617Y436617D01*
X202704Y437317D01*
X201641Y437758D01*
X200500Y437908D01*
D02*
G37*
G36*
X191472Y430606D02*
X189200D01*
Y428924D01*
X191472D01*
Y430606D01*
D02*
G37*
G36*
X188200D02*
X185928D01*
Y428924D01*
X188200D01*
Y430606D01*
D02*
G37*
G36*
X94087Y428300D02*
X92405D01*
Y426028D01*
X94087D01*
Y428300D01*
D02*
G37*
G36*
X78276D02*
X76595D01*
Y426028D01*
X78276D01*
Y428300D01*
D02*
G37*
G36*
X75595D02*
X73913D01*
Y426028D01*
X75595D01*
Y428300D01*
D02*
G37*
G36*
X210500Y427908D02*
X209359Y427758D01*
X208296Y427317D01*
X207383Y426617D01*
X206683Y425704D01*
X206242Y424641D01*
X206092Y423500D01*
X206242Y422359D01*
X206445Y421869D01*
X204379Y419803D01*
X203638D01*
X203478Y420276D01*
X203617Y420383D01*
X204317Y421296D01*
X204758Y422359D01*
X204908Y423500D01*
X204758Y424641D01*
X204317Y425704D01*
X203617Y426617D01*
X202704Y427317D01*
X201641Y427758D01*
X200500Y427908D01*
X199359Y427758D01*
X198296Y427317D01*
X197383Y426617D01*
X196683Y425704D01*
X196242Y424641D01*
X196092Y423500D01*
X196242Y422359D01*
X196683Y421296D01*
X197383Y420383D01*
X197522Y420276D01*
X197362Y419803D01*
X192689D01*
X192033Y419672D01*
X191477Y419301D01*
X189990Y417814D01*
X189062D01*
Y419053D01*
X188414D01*
Y422490D01*
X188762Y422838D01*
X191653D01*
Y427562D01*
X185747D01*
Y424671D01*
X185488Y424412D01*
X185116Y423856D01*
X184986Y423200D01*
Y419053D01*
X184338D01*
Y413147D01*
X184886D01*
Y410681D01*
X183919D01*
Y405319D01*
X189281D01*
Y410681D01*
X188314D01*
Y413147D01*
X189062D01*
Y414386D01*
X190700D01*
X191356Y414516D01*
X191912Y414888D01*
X193399Y416375D01*
X196632D01*
X196854Y415927D01*
X196683Y415704D01*
X196242Y414641D01*
X196092Y413500D01*
X196242Y412359D01*
X196683Y411296D01*
X197383Y410383D01*
X198296Y409683D01*
X199359Y409242D01*
X200500Y409092D01*
X201641Y409242D01*
X202704Y409683D01*
X203617Y410383D01*
X204317Y411296D01*
X204758Y412359D01*
X204908Y413500D01*
X204758Y414641D01*
X204317Y415704D01*
X204146Y415927D01*
X204368Y416375D01*
X205089D01*
X205745Y416505D01*
X206301Y416877D01*
X208869Y419445D01*
X209359Y419242D01*
X210500Y419092D01*
X211641Y419242D01*
X212704Y419683D01*
X213617Y420383D01*
X214317Y421296D01*
X214758Y422359D01*
X214908Y423500D01*
X214758Y424641D01*
X214317Y425704D01*
X213617Y426617D01*
X212704Y427317D01*
X211641Y427758D01*
X210500Y427908D01*
D02*
G37*
G36*
X40500Y427908D02*
X39359Y427758D01*
X38296Y427317D01*
X37383Y426617D01*
X36683Y425704D01*
X36242Y424641D01*
X36092Y423500D01*
X36242Y422359D01*
X36683Y421296D01*
X37383Y420383D01*
X38296Y419683D01*
X39359Y419242D01*
X40500Y419092D01*
X41641Y419242D01*
X42704Y419683D01*
X43617Y420383D01*
X44317Y421296D01*
X44758Y422359D01*
X44908Y423500D01*
X44758Y424641D01*
X44317Y425704D01*
X43617Y426617D01*
X42704Y427317D01*
X41641Y427758D01*
X40500Y427908D01*
D02*
G37*
G36*
X30500D02*
X29359Y427758D01*
X28296Y427317D01*
X27383Y426617D01*
X26683Y425704D01*
X26242Y424641D01*
X26092Y423500D01*
X26242Y422359D01*
X26683Y421296D01*
X27383Y420383D01*
X28296Y419683D01*
X29359Y419242D01*
X30500Y419092D01*
X31641Y419242D01*
X32704Y419683D01*
X33617Y420383D01*
X34317Y421296D01*
X34758Y422359D01*
X34908Y423500D01*
X34758Y424641D01*
X34317Y425704D01*
X33617Y426617D01*
X32704Y427317D01*
X31641Y427758D01*
X30500Y427908D01*
D02*
G37*
G36*
X70740Y414894D02*
Y412426D01*
X72618D01*
Y414894D01*
X70740D01*
D02*
G37*
G36*
X40500Y417908D02*
X39359Y417758D01*
X38296Y417317D01*
X37383Y416617D01*
X36683Y415704D01*
X36242Y414641D01*
X36092Y413500D01*
X36242Y412359D01*
X36683Y411296D01*
X37383Y410383D01*
X38296Y409683D01*
X39359Y409242D01*
X40500Y409092D01*
X41641Y409242D01*
X42704Y409683D01*
X43617Y410383D01*
X44317Y411296D01*
X44758Y412359D01*
X44908Y413500D01*
X44758Y414641D01*
X44317Y415704D01*
X43617Y416617D01*
X42704Y417317D01*
X41641Y417758D01*
X40500Y417908D01*
D02*
G37*
G36*
X30500D02*
X29359Y417758D01*
X28296Y417317D01*
X27383Y416617D01*
X26683Y415704D01*
X26242Y414641D01*
X26092Y413500D01*
X26242Y412359D01*
X26683Y411296D01*
X27383Y410383D01*
X28296Y409683D01*
X29359Y409242D01*
X30500Y409092D01*
X31641Y409242D01*
X32704Y409683D01*
X33617Y410383D01*
X34317Y411296D01*
X34758Y412359D01*
X34908Y413500D01*
X34758Y414641D01*
X34317Y415704D01*
X33617Y416617D01*
X32704Y417317D01*
X31641Y417758D01*
X30500Y417908D01*
D02*
G37*
G36*
X210500Y417908D02*
X209359Y417758D01*
X208296Y417317D01*
X207383Y416617D01*
X206683Y415704D01*
X206242Y414641D01*
X206092Y413500D01*
X206242Y412359D01*
X206683Y411296D01*
X207383Y410383D01*
X208296Y409683D01*
X209359Y409242D01*
X210500Y409092D01*
X211641Y409242D01*
X212704Y409683D01*
X213617Y410383D01*
X214317Y411296D01*
X214758Y412359D01*
X214908Y413500D01*
X214758Y414641D01*
X214317Y415704D01*
X213617Y416617D01*
X212704Y417317D01*
X211641Y417758D01*
X210500Y417908D01*
D02*
G37*
G36*
X80094Y411300D02*
X78413D01*
Y409028D01*
X80094D01*
Y411300D01*
D02*
G37*
G36*
X72618Y411426D02*
X70740D01*
Y408957D01*
X72618D01*
Y411426D01*
D02*
G37*
G36*
X69740D02*
X67862D01*
Y408957D01*
X69740D01*
Y411426D01*
D02*
G37*
G36*
X40500Y407908D02*
X39359Y407758D01*
X38296Y407317D01*
X37383Y406617D01*
X36683Y405704D01*
X36242Y404641D01*
X36092Y403500D01*
X36242Y402359D01*
X36683Y401296D01*
X37383Y400383D01*
X38296Y399683D01*
X39359Y399242D01*
X40500Y399092D01*
X41641Y399242D01*
X42704Y399683D01*
X43617Y400383D01*
X44317Y401296D01*
X44758Y402359D01*
X44908Y403500D01*
X44758Y404641D01*
X44317Y405704D01*
X43617Y406617D01*
X42704Y407317D01*
X41641Y407758D01*
X40500Y407908D01*
D02*
G37*
G36*
X30500D02*
X29359Y407758D01*
X28296Y407317D01*
X27383Y406617D01*
X26683Y405704D01*
X26242Y404641D01*
X26092Y403500D01*
X26242Y402359D01*
X26683Y401296D01*
X27383Y400383D01*
X28296Y399683D01*
X29359Y399242D01*
X30500Y399092D01*
X31641Y399242D01*
X32704Y399683D01*
X33617Y400383D01*
X34317Y401296D01*
X34758Y402359D01*
X34908Y403500D01*
X34758Y404641D01*
X34317Y405704D01*
X33617Y406617D01*
X32704Y407317D01*
X31641Y407758D01*
X30500Y407908D01*
D02*
G37*
G36*
X210500Y407908D02*
X209359Y407758D01*
X208296Y407317D01*
X207383Y406617D01*
X206683Y405704D01*
X206242Y404641D01*
X206092Y403500D01*
X206242Y402359D01*
X206683Y401296D01*
X207383Y400383D01*
X208296Y399683D01*
X209359Y399242D01*
X210500Y399092D01*
X211641Y399242D01*
X212704Y399683D01*
X213617Y400383D01*
X214317Y401296D01*
X214758Y402359D01*
X214908Y403500D01*
X214758Y404641D01*
X214317Y405704D01*
X213617Y406617D01*
X212704Y407317D01*
X211641Y407758D01*
X210500Y407908D01*
D02*
G37*
G36*
X200500D02*
X199359Y407758D01*
X198296Y407317D01*
X197383Y406617D01*
X196683Y405704D01*
X196242Y404641D01*
X196092Y403500D01*
X196242Y402359D01*
X196683Y401296D01*
X197383Y400383D01*
X198296Y399683D01*
X199359Y399242D01*
X200500Y399092D01*
X201641Y399242D01*
X202704Y399683D01*
X203617Y400383D01*
X204317Y401296D01*
X204758Y402359D01*
X204908Y403500D01*
X204758Y404641D01*
X204317Y405704D01*
X203617Y406617D01*
X202704Y407317D01*
X201641Y407758D01*
X200500Y407908D01*
D02*
G37*
G36*
X41500Y397593D02*
Y394500D01*
X44594D01*
X44581Y394594D01*
X44159Y395613D01*
X43488Y396488D01*
X42612Y397159D01*
X41594Y397581D01*
X41500Y397593D01*
D02*
G37*
G36*
X39500Y397593D02*
X39406Y397581D01*
X38387Y397159D01*
X37512Y396488D01*
X36841Y395613D01*
X36419Y394594D01*
X36406Y394500D01*
X39500D01*
Y397593D01*
D02*
G37*
G36*
Y392500D02*
X36406D01*
X36419Y392407D01*
X36841Y391388D01*
X37512Y390512D01*
X38387Y389841D01*
X39406Y389419D01*
X39500Y389407D01*
Y392500D01*
D02*
G37*
G36*
X44593D02*
X41500D01*
Y389407D01*
X41594Y389419D01*
X42612Y389841D01*
X43488Y390512D01*
X44159Y391388D01*
X44581Y392407D01*
X44593Y392500D01*
D02*
G37*
G36*
X30500Y397908D02*
X29359Y397758D01*
X28296Y397317D01*
X27383Y396617D01*
X26683Y395704D01*
X26242Y394641D01*
X26092Y393500D01*
X26242Y392359D01*
X26683Y391296D01*
X27383Y390383D01*
X28296Y389683D01*
X29359Y389242D01*
X30500Y389092D01*
X31641Y389242D01*
X32704Y389683D01*
X33617Y390383D01*
X34317Y391296D01*
X34758Y392359D01*
X34908Y393500D01*
X34758Y394641D01*
X34317Y395704D01*
X33617Y396617D01*
X32704Y397317D01*
X31641Y397758D01*
X30500Y397908D01*
D02*
G37*
G36*
X210500Y397908D02*
X209359Y397758D01*
X208296Y397317D01*
X207383Y396617D01*
X206683Y395704D01*
X206242Y394641D01*
X206092Y393500D01*
X206242Y392359D01*
X206683Y391296D01*
X207383Y390383D01*
X208296Y389683D01*
X209359Y389242D01*
X210500Y389092D01*
X211641Y389242D01*
X212704Y389683D01*
X213617Y390383D01*
X214317Y391296D01*
X214758Y392359D01*
X214908Y393500D01*
X214758Y394641D01*
X214317Y395704D01*
X213617Y396617D01*
X212704Y397317D01*
X211641Y397758D01*
X210500Y397908D01*
D02*
G37*
G36*
X200500D02*
X199359Y397758D01*
X198296Y397317D01*
X197383Y396617D01*
X196683Y395704D01*
X196242Y394641D01*
X196092Y393500D01*
X196242Y392359D01*
X196683Y391296D01*
X197383Y390383D01*
X198296Y389683D01*
X199359Y389242D01*
X200500Y389092D01*
X201641Y389242D01*
X202704Y389683D01*
X203617Y390383D01*
X204317Y391296D01*
X204758Y392359D01*
X204908Y393500D01*
X204758Y394641D01*
X204317Y395704D01*
X203617Y396617D01*
X202704Y397317D01*
X201641Y397758D01*
X200500Y397908D01*
D02*
G37*
G36*
X55000Y388000D02*
X53000D01*
Y386000D01*
X55000D01*
Y388000D01*
D02*
G37*
G36*
X52000D02*
X50000D01*
Y386000D01*
X52000D01*
Y388000D01*
D02*
G37*
G36*
X211500Y387594D02*
Y384500D01*
X214594D01*
X214581Y384594D01*
X214159Y385613D01*
X213488Y386488D01*
X212613Y387159D01*
X211594Y387581D01*
X211500Y387594D01*
D02*
G37*
G36*
X209500D02*
X209406Y387581D01*
X208387Y387159D01*
X207512Y386488D01*
X206841Y385613D01*
X206419Y384594D01*
X206406Y384500D01*
X209500D01*
Y387594D01*
D02*
G37*
G36*
X200500Y387908D02*
X199359Y387758D01*
X198296Y387317D01*
X197383Y386617D01*
X196683Y385704D01*
X196480Y385214D01*
X172200D01*
X171544Y385084D01*
X170988Y384712D01*
X168250Y381974D01*
X167879Y382127D01*
X166800Y382270D01*
X165721Y382127D01*
X164715Y381711D01*
X163852Y381048D01*
X163189Y380185D01*
X162773Y379179D01*
X162630Y378100D01*
X162773Y377021D01*
X163189Y376015D01*
X163852Y375152D01*
X164715Y374489D01*
X165721Y374073D01*
X166800Y373931D01*
X167879Y374073D01*
X168885Y374489D01*
X169748Y375152D01*
X170411Y376015D01*
X170827Y377021D01*
X170969Y378100D01*
X170827Y379179D01*
X170674Y379550D01*
X172910Y381786D01*
X174289D01*
X174459Y381286D01*
X173981Y380919D01*
X173347Y380093D01*
X172949Y379132D01*
X172945Y379100D01*
X180655D01*
X180651Y379132D01*
X180253Y380093D01*
X179619Y380919D01*
X179141Y381286D01*
X179311Y381786D01*
X196480D01*
X196683Y381296D01*
X197383Y380383D01*
X198296Y379683D01*
X199359Y379242D01*
X200500Y379092D01*
X201641Y379242D01*
X202704Y379683D01*
X203617Y380383D01*
X204317Y381296D01*
X204758Y382359D01*
X204908Y383500D01*
X204758Y384641D01*
X204317Y385704D01*
X203617Y386617D01*
X202704Y387317D01*
X201641Y387758D01*
X200500Y387908D01*
D02*
G37*
G36*
X130000Y394110D02*
X128808Y393993D01*
X127662Y393645D01*
X126605Y393081D01*
X125679Y392321D01*
X124919Y391395D01*
X124355Y390338D01*
X124007Y389192D01*
X123890Y388000D01*
X124007Y386808D01*
X124355Y385662D01*
X124919Y384605D01*
X125679Y383679D01*
X126605Y382919D01*
X127662Y382355D01*
X128808Y382007D01*
X130000Y381890D01*
X131192Y382007D01*
X132338Y382355D01*
X133395Y382919D01*
X134321Y383679D01*
X135081Y384605D01*
X135645Y385662D01*
X135993Y386808D01*
X136110Y388000D01*
X135993Y389192D01*
X135645Y390338D01*
X135081Y391395D01*
X134321Y392321D01*
X133395Y393081D01*
X132338Y393645D01*
X131192Y393993D01*
X130000Y394110D01*
D02*
G37*
G36*
X214594Y382500D02*
X211500D01*
Y379406D01*
X211594Y379419D01*
X212613Y379841D01*
X213488Y380512D01*
X214159Y381387D01*
X214581Y382406D01*
X214594Y382500D01*
D02*
G37*
G36*
X209500D02*
X206406D01*
X206419Y382406D01*
X206841Y381387D01*
X207512Y380512D01*
X208387Y379841D01*
X209406Y379419D01*
X209500Y379406D01*
Y382500D01*
D02*
G37*
G36*
X34870Y387870D02*
X26130D01*
Y379130D01*
X34870D01*
Y387870D01*
D02*
G37*
G36*
X180655Y377100D02*
X177800D01*
Y374245D01*
X177832Y374249D01*
X178793Y374647D01*
X179619Y375281D01*
X180253Y376107D01*
X180651Y377068D01*
X180655Y377100D01*
D02*
G37*
G36*
X175800D02*
X172945D01*
X172949Y377068D01*
X173347Y376107D01*
X173981Y375281D01*
X174807Y374647D01*
X175768Y374249D01*
X175800Y374245D01*
Y377100D01*
D02*
G37*
G36*
X183281Y410681D02*
X177919D01*
Y407743D01*
X155588Y385412D01*
X155216Y384856D01*
X155086Y384200D01*
Y382234D01*
X152666D01*
Y373966D01*
X160934D01*
Y382234D01*
X158514D01*
Y383490D01*
X180343Y405319D01*
X183281D01*
Y410681D01*
D02*
G37*
G36*
X231814Y371780D02*
X231095Y371685D01*
X230424Y371407D01*
X229849Y370966D01*
X229407Y370390D01*
X229371Y370303D01*
X228829D01*
X228793Y370390D01*
X228351Y370966D01*
X227776Y371407D01*
X227105Y371685D01*
X226386Y371780D01*
X225666Y371685D01*
X224996Y371407D01*
X224420Y370966D01*
X223979Y370390D01*
X223701Y369719D01*
X223606Y369000D01*
X223701Y368281D01*
X223979Y367610D01*
X224420Y367035D01*
X224672Y366842D01*
Y320986D01*
X224802Y320330D01*
X225174Y319774D01*
X232660Y312288D01*
X233216Y311916D01*
X233872Y311786D01*
X242190D01*
X243225Y310751D01*
X242989Y310182D01*
X242833Y309000D01*
X242989Y307818D01*
X243445Y306717D01*
X244171Y305771D01*
X245117Y305045D01*
X246218Y304589D01*
X247400Y304433D01*
X248582Y304589D01*
X249683Y305045D01*
X250629Y305771D01*
X251355Y306717D01*
X251811Y307818D01*
X251967Y309000D01*
X251811Y310182D01*
X251355Y311283D01*
X250785Y312026D01*
X250983Y312453D01*
X251476Y312500D01*
X253225Y310751D01*
X252989Y310182D01*
X252833Y309000D01*
X252989Y307818D01*
X253445Y306717D01*
X254171Y305771D01*
X255117Y305045D01*
X256218Y304589D01*
X257400Y304433D01*
X258582Y304589D01*
X259683Y305045D01*
X260629Y305771D01*
X261355Y306717D01*
X261811Y307818D01*
X261967Y309000D01*
X261811Y310182D01*
X261355Y311283D01*
X260629Y312229D01*
X259683Y312955D01*
X258582Y313411D01*
X257400Y313567D01*
X256218Y313411D01*
X255649Y313175D01*
X253359Y315465D01*
X252802Y315837D01*
X252147Y315968D01*
X251345D01*
X251124Y316416D01*
X251355Y316717D01*
X251811Y317818D01*
X251967Y319000D01*
X251811Y320182D01*
X251355Y321283D01*
X250629Y322229D01*
X249683Y322955D01*
X248582Y323411D01*
X247400Y323567D01*
X246218Y323411D01*
X245117Y322955D01*
X244171Y322229D01*
X243445Y321283D01*
X242989Y320182D01*
X242833Y319000D01*
X242989Y317818D01*
X243067Y317630D01*
X242789Y317214D01*
X238838D01*
X233528Y322524D01*
Y366842D01*
X233780Y367035D01*
X234221Y367610D01*
X234499Y368281D01*
X234594Y369000D01*
X234499Y369719D01*
X234221Y370390D01*
X233780Y370966D01*
X233204Y371407D01*
X232534Y371685D01*
X231814Y371780D01*
D02*
G37*
G36*
X43500Y388204D02*
X43500Y388204D01*
X37000D01*
X36539Y388113D01*
X36176Y387870D01*
X36130D01*
Y387824D01*
X35887Y387461D01*
X35796Y387000D01*
Y373000D01*
X35887Y372539D01*
X36149Y372148D01*
X36149Y372148D01*
X38499Y369798D01*
X38701Y369534D01*
X39277Y369093D01*
X39947Y368815D01*
X40667Y368720D01*
X41386Y368815D01*
X42057Y369093D01*
X42321Y369296D01*
X43346D01*
X43610Y369093D01*
X44281Y368815D01*
X45000Y368720D01*
X45719Y368815D01*
X46390Y369093D01*
X46654Y369296D01*
X47679D01*
X47943Y369093D01*
X48614Y368815D01*
X49333Y368720D01*
X50053Y368815D01*
X50723Y369093D01*
X50988Y369296D01*
X51000D01*
X51461Y369387D01*
X51851Y369649D01*
X51851Y369649D01*
X55852Y373649D01*
X56113Y374039D01*
X56204Y374500D01*
X56204Y374500D01*
Y382000D01*
X56113Y382461D01*
X55852Y382852D01*
X55461Y383113D01*
X55000Y383204D01*
Y385000D01*
X50000D01*
Y383204D01*
X48999D01*
X44870Y387333D01*
Y387870D01*
X44324D01*
X43961Y388113D01*
X43500Y388204D01*
D02*
G37*
G36*
X248400Y333252D02*
Y330000D01*
X251652D01*
X251635Y330135D01*
X251197Y331192D01*
X250500Y332100D01*
X249592Y332797D01*
X248535Y333235D01*
X248400Y333252D01*
D02*
G37*
G36*
X246400D02*
X246265Y333235D01*
X245208Y332797D01*
X244300Y332100D01*
X243603Y331192D01*
X243165Y330135D01*
X243148Y330000D01*
X246400D01*
Y333252D01*
D02*
G37*
G36*
X251652Y328000D02*
X248400D01*
Y324748D01*
X248535Y324765D01*
X249592Y325203D01*
X250500Y325900D01*
X251197Y326808D01*
X251635Y327865D01*
X251652Y328000D01*
D02*
G37*
G36*
X246400D02*
X243148D01*
X243165Y327865D01*
X243603Y326808D01*
X244300Y325900D01*
X245208Y325203D01*
X246265Y324765D01*
X246400Y324748D01*
Y328000D01*
D02*
G37*
G36*
X257400Y333567D02*
X256218Y333411D01*
X255117Y332955D01*
X254171Y332229D01*
X253445Y331283D01*
X252989Y330182D01*
X252833Y329000D01*
X252989Y327818D01*
X253445Y326717D01*
X254171Y325771D01*
X255117Y325045D01*
X256218Y324589D01*
X257400Y324433D01*
X258582Y324589D01*
X259683Y325045D01*
X260629Y325771D01*
X261355Y326717D01*
X261811Y327818D01*
X261967Y329000D01*
X261811Y330182D01*
X261355Y331283D01*
X260629Y332229D01*
X259683Y332955D01*
X258582Y333411D01*
X257400Y333567D01*
D02*
G37*
G36*
Y323567D02*
X256218Y323411D01*
X255117Y322955D01*
X254171Y322229D01*
X253445Y321283D01*
X252989Y320182D01*
X252833Y319000D01*
X252989Y317818D01*
X253445Y316717D01*
X254171Y315771D01*
X255117Y315045D01*
X256218Y314589D01*
X257400Y314433D01*
X258582Y314589D01*
X259683Y315045D01*
X260629Y315771D01*
X261355Y316717D01*
X261811Y317818D01*
X261967Y319000D01*
X261811Y320182D01*
X261355Y321283D01*
X260629Y322229D01*
X259683Y322955D01*
X258582Y323411D01*
X257400Y323567D01*
D02*
G37*
G36*
X258400Y303252D02*
Y300000D01*
X261652D01*
X261635Y300135D01*
X261197Y301192D01*
X260500Y302100D01*
X259592Y302797D01*
X258535Y303235D01*
X258400Y303252D01*
D02*
G37*
G36*
X256400D02*
X256265Y303235D01*
X255208Y302797D01*
X254300Y302100D01*
X253603Y301192D01*
X253165Y300135D01*
X253148Y300000D01*
X256400D01*
Y303252D01*
D02*
G37*
G36*
X261652Y298000D02*
X258400D01*
Y294748D01*
X258535Y294765D01*
X259592Y295203D01*
X260500Y295900D01*
X261197Y296808D01*
X261635Y297865D01*
X261652Y298000D01*
D02*
G37*
G36*
X256400D02*
X253148D01*
X253165Y297865D01*
X253603Y296808D01*
X254300Y295900D01*
X255208Y295203D01*
X256265Y294765D01*
X256400Y294748D01*
Y298000D01*
D02*
G37*
G36*
X247400Y303567D02*
X246218Y303411D01*
X245117Y302955D01*
X244171Y302229D01*
X243445Y301283D01*
X242989Y300182D01*
X242833Y299000D01*
X242989Y297818D01*
X243445Y296717D01*
X244171Y295771D01*
X245117Y295045D01*
X246218Y294589D01*
X247400Y294433D01*
X248582Y294589D01*
X249683Y295045D01*
X250629Y295771D01*
X251355Y296717D01*
X251811Y297818D01*
X251967Y299000D01*
X251811Y300182D01*
X251355Y301283D01*
X250629Y302229D01*
X249683Y302955D01*
X248582Y303411D01*
X247400Y303567D01*
D02*
G37*
G36*
X258400Y293252D02*
Y290000D01*
X261652D01*
X261635Y290135D01*
X261197Y291192D01*
X260500Y292100D01*
X259592Y292797D01*
X258535Y293235D01*
X258400Y293252D01*
D02*
G37*
G36*
X256400D02*
X256265Y293235D01*
X255208Y292797D01*
X254300Y292100D01*
X253603Y291192D01*
X253165Y290135D01*
X253148Y290000D01*
X256400D01*
Y293252D01*
D02*
G37*
G36*
X261652Y288000D02*
X258400D01*
Y284748D01*
X258535Y284765D01*
X259592Y285203D01*
X260500Y285900D01*
X261197Y286808D01*
X261635Y287865D01*
X261652Y288000D01*
D02*
G37*
G36*
X256400D02*
X253148D01*
X253165Y287865D01*
X253603Y286808D01*
X254300Y285900D01*
X255208Y285203D01*
X256265Y284765D01*
X256400Y284748D01*
Y288000D01*
D02*
G37*
G36*
X247400Y293567D02*
X246218Y293411D01*
X245117Y292955D01*
X244171Y292229D01*
X243445Y291283D01*
X242989Y290182D01*
X242833Y289000D01*
X242989Y287818D01*
X243445Y286717D01*
X244171Y285771D01*
X245117Y285045D01*
X246218Y284589D01*
X247400Y284433D01*
X248582Y284589D01*
X249683Y285045D01*
X250629Y285771D01*
X251355Y286717D01*
X251811Y287818D01*
X251967Y289000D01*
X251811Y290182D01*
X251355Y291283D01*
X250629Y292229D01*
X249683Y292955D01*
X248582Y293411D01*
X247400Y293567D01*
D02*
G37*
G36*
X149500Y281780D02*
X148927Y281704D01*
X147573D01*
X147000Y281780D01*
X146427Y281704D01*
X145073D01*
X144500Y281780D01*
X143927Y281704D01*
X142573D01*
X142000Y281780D01*
X141427Y281704D01*
X140000D01*
X139539Y281613D01*
X139148Y281351D01*
X138887Y280961D01*
X138796Y280500D01*
Y276500D01*
X138887Y276039D01*
X139148Y275648D01*
X142148Y272649D01*
X142539Y272387D01*
X143000Y272296D01*
X143000Y272296D01*
X145189D01*
X145247Y271797D01*
X144608Y271371D01*
X144602Y271362D01*
X143047D01*
Y266638D01*
X144031D01*
Y255238D01*
X143984Y255000D01*
Y254453D01*
X143838D01*
Y253214D01*
X138334D01*
Y253362D01*
X132428D01*
Y248638D01*
X138334D01*
Y249786D01*
X143838D01*
Y248547D01*
X148562D01*
Y254453D01*
X148239D01*
X147950Y254953D01*
X147969Y255047D01*
Y266638D01*
X148953D01*
Y268009D01*
X173163D01*
X208531Y232641D01*
Y227870D01*
X206130D01*
Y219130D01*
X214870D01*
Y227870D01*
X212469D01*
Y233457D01*
X212319Y234210D01*
X211892Y234849D01*
X175371Y271371D01*
X174732Y271797D01*
X173978Y271947D01*
X149634D01*
X149607Y272015D01*
X149550Y272447D01*
X149852Y272649D01*
X152851Y275648D01*
X153113Y276039D01*
X153204Y276500D01*
X153204Y276500D01*
Y280500D01*
X153113Y280961D01*
X152851Y281351D01*
X152461Y281613D01*
X152000Y281704D01*
X150073D01*
X149500Y281780D01*
D02*
G37*
G36*
X258400Y283252D02*
Y280000D01*
X261652D01*
X261635Y280135D01*
X261197Y281192D01*
X260500Y282100D01*
X259592Y282797D01*
X258535Y283235D01*
X258400Y283252D01*
D02*
G37*
G36*
X256400D02*
X256265Y283235D01*
X255208Y282797D01*
X254300Y282100D01*
X253603Y281192D01*
X253165Y280135D01*
X253148Y280000D01*
X256400D01*
Y283252D01*
D02*
G37*
G36*
X32500Y282204D02*
X32039Y282113D01*
X31648Y281852D01*
X31648Y281852D01*
X29427Y279631D01*
X29328Y279644D01*
X28609Y279549D01*
X27939Y279271D01*
X27363Y278830D01*
X26921Y278254D01*
X26643Y277583D01*
X26564Y276984D01*
X26386Y276743D01*
X26144Y276564D01*
X25545Y276485D01*
X24874Y276207D01*
X24299Y275765D01*
X23857Y275190D01*
X23579Y274519D01*
X23485Y273800D01*
X23006Y273629D01*
X22641Y273581D01*
X21971Y273303D01*
X21395Y272862D01*
X20953Y272286D01*
X20675Y271615D01*
X20597Y271016D01*
X20418Y270775D01*
X20177Y270596D01*
X19577Y270517D01*
X18906Y270239D01*
X18331Y269797D01*
X17889Y269222D01*
X17611Y268551D01*
X17517Y267832D01*
X17232Y267547D01*
X16513Y267453D01*
X15842Y267175D01*
X15267Y266733D01*
X14825Y266158D01*
X14547Y265487D01*
X14453Y264768D01*
X14547Y264048D01*
X14825Y263378D01*
X15267Y262802D01*
X15842Y262361D01*
X16513Y262083D01*
X16745Y262052D01*
X18284Y260512D01*
X18315Y260281D01*
X18593Y259610D01*
X19035Y259034D01*
X19610Y258593D01*
X20281Y258315D01*
X20512Y258284D01*
X34434Y244363D01*
X34696Y244188D01*
X34843Y243627D01*
X29108Y237892D01*
X28681Y237253D01*
X28531Y236500D01*
Y227415D01*
X28296Y227317D01*
X27383Y226617D01*
X26683Y225704D01*
X26242Y224641D01*
X26092Y223500D01*
X26242Y222359D01*
X26683Y221296D01*
X27383Y220383D01*
X28296Y219683D01*
X29359Y219242D01*
X30500Y219092D01*
X31641Y219242D01*
X32704Y219683D01*
X33617Y220383D01*
X34317Y221296D01*
X34758Y222359D01*
X34908Y223500D01*
X34758Y224641D01*
X34317Y225704D01*
X33617Y226617D01*
X32704Y227317D01*
X32469Y227415D01*
Y235684D01*
X64794Y268009D01*
X91547D01*
Y266638D01*
X92786D01*
Y257010D01*
X90629Y254853D01*
X87738D01*
Y253614D01*
X82253D01*
Y254268D01*
X76347D01*
Y249543D01*
X82253D01*
Y250186D01*
X87738D01*
Y248947D01*
X92462D01*
Y251838D01*
X93181Y252557D01*
X93643Y252366D01*
Y248947D01*
X94086D01*
Y246198D01*
X93187Y245826D01*
X92105Y244995D01*
X91274Y243913D01*
X90752Y242653D01*
X90574Y241300D01*
X90752Y239948D01*
X91274Y238687D01*
X92105Y237605D01*
X93187Y236774D01*
X94447Y236252D01*
X95800Y236074D01*
X97153Y236252D01*
X98413Y236774D01*
X99495Y237605D01*
X100326Y238687D01*
X100848Y239948D01*
X101026Y241300D01*
X100848Y242653D01*
X100326Y243913D01*
X99495Y244995D01*
X98413Y245826D01*
X97514Y246198D01*
Y248947D01*
X98368D01*
Y254853D01*
X96156D01*
X95889Y255353D01*
X96084Y255644D01*
X96214Y256300D01*
Y266638D01*
X97453D01*
Y271362D01*
X95898D01*
X95892Y271371D01*
X95253Y271797D01*
X95311Y272296D01*
X97500D01*
X97961Y272387D01*
X98352Y272649D01*
X101351Y275648D01*
X101613Y276039D01*
X101704Y276500D01*
X101704Y276500D01*
Y280500D01*
X101613Y280961D01*
X101351Y281351D01*
X100961Y281613D01*
X100500Y281704D01*
X98573D01*
X98000Y281780D01*
X97427Y281704D01*
X96073D01*
X95500Y281780D01*
X94927Y281704D01*
X93573D01*
X93000Y281780D01*
X92427Y281704D01*
X91073D01*
X90500Y281780D01*
X89927Y281704D01*
X88500D01*
X88039Y281613D01*
X87648Y281351D01*
X87387Y280961D01*
X87296Y280500D01*
Y276500D01*
X87387Y276039D01*
X87648Y275648D01*
X90649Y272649D01*
X90950Y272447D01*
X90893Y272015D01*
X90866Y271947D01*
X63978D01*
X63225Y271797D01*
X62586Y271371D01*
X53373Y262157D01*
X52812Y262304D01*
X52637Y262566D01*
X33351Y281852D01*
X32961Y282113D01*
X32500Y282204D01*
D02*
G37*
G36*
X261652Y278000D02*
X258400D01*
Y274748D01*
X258535Y274765D01*
X259592Y275203D01*
X260500Y275900D01*
X261197Y276808D01*
X261635Y277865D01*
X261652Y278000D01*
D02*
G37*
G36*
X256400D02*
X253148D01*
X253165Y277865D01*
X253603Y276808D01*
X254300Y275900D01*
X255208Y275203D01*
X256265Y274765D01*
X256400Y274748D01*
Y278000D01*
D02*
G37*
G36*
X247400Y283567D02*
X246218Y283411D01*
X245117Y282955D01*
X244171Y282229D01*
X243445Y281283D01*
X242989Y280182D01*
X242833Y279000D01*
X242989Y277818D01*
X243445Y276717D01*
X244171Y275771D01*
X245117Y275045D01*
X246218Y274589D01*
X247400Y274433D01*
X248582Y274589D01*
X249683Y275045D01*
X250629Y275771D01*
X251355Y276717D01*
X251811Y277818D01*
X251967Y279000D01*
X251811Y280182D01*
X251355Y281283D01*
X250629Y282229D01*
X249683Y282955D01*
X248582Y283411D01*
X247400Y283567D01*
D02*
G37*
G36*
X76500Y266212D02*
Y262300D01*
X80411D01*
X80371Y262605D01*
X79868Y263822D01*
X79066Y264866D01*
X78022Y265668D01*
X76805Y266171D01*
X76500Y266212D01*
D02*
G37*
G36*
X132800D02*
Y262300D01*
X136712D01*
X136671Y262605D01*
X136168Y263822D01*
X135366Y264866D01*
X134322Y265668D01*
X133105Y266171D01*
X132800Y266212D01*
D02*
G37*
G36*
X74500D02*
X74195Y266171D01*
X72978Y265668D01*
X71934Y264866D01*
X71132Y263822D01*
X70629Y262605D01*
X70588Y262300D01*
X74500D01*
Y266212D01*
D02*
G37*
G36*
X130800D02*
X130495Y266171D01*
X129278Y265668D01*
X128234Y264866D01*
X127433Y263822D01*
X126929Y262605D01*
X126889Y262300D01*
X130800D01*
Y266212D01*
D02*
G37*
G36*
X136712Y260300D02*
X132800D01*
Y256388D01*
X133105Y256429D01*
X134322Y256932D01*
X135366Y257734D01*
X136168Y258778D01*
X136671Y259995D01*
X136712Y260300D01*
D02*
G37*
G36*
X80411D02*
X76500D01*
Y256388D01*
X76805Y256429D01*
X78022Y256932D01*
X79066Y257734D01*
X79868Y258778D01*
X80371Y259995D01*
X80411Y260300D01*
D02*
G37*
G36*
X130800D02*
X126889D01*
X126929Y259995D01*
X127433Y258778D01*
X128234Y257734D01*
X129278Y256932D01*
X130495Y256429D01*
X130800Y256388D01*
Y260300D01*
D02*
G37*
G36*
X74500D02*
X70588D01*
X70629Y259995D01*
X71132Y258778D01*
X71934Y257734D01*
X72978Y256932D01*
X74195Y256429D01*
X74500Y256388D01*
Y260300D01*
D02*
G37*
G36*
X161800Y255313D02*
X160839Y255186D01*
X159944Y254815D01*
X159175Y254225D01*
X158585Y253456D01*
X158214Y252561D01*
X158087Y251600D01*
X158214Y250639D01*
X158585Y249744D01*
X159175Y248975D01*
X159944Y248385D01*
X160839Y248014D01*
X161800Y247887D01*
X162761Y248014D01*
X163656Y248385D01*
X164425Y248975D01*
X165015Y249744D01*
X165386Y250639D01*
X165513Y251600D01*
X165386Y252561D01*
X165015Y253456D01*
X164425Y254225D01*
X163656Y254815D01*
X162761Y255186D01*
X161800Y255313D01*
D02*
G37*
G36*
X105500D02*
X104539Y255186D01*
X103644Y254815D01*
X102875Y254225D01*
X102285Y253456D01*
X101914Y252561D01*
X101787Y251600D01*
X101914Y250639D01*
X102285Y249744D01*
X102875Y248975D01*
X103644Y248385D01*
X104539Y248014D01*
X105500Y247887D01*
X106461Y248014D01*
X107356Y248385D01*
X108125Y248975D01*
X108715Y249744D01*
X109086Y250639D01*
X109213Y251600D01*
X109086Y252561D01*
X108715Y253456D01*
X108125Y254225D01*
X107356Y254815D01*
X106461Y255186D01*
X105500Y255313D01*
D02*
G37*
G36*
X82072Y248181D02*
X79800D01*
Y246500D01*
X82072D01*
Y248181D01*
D02*
G37*
G36*
X78800D02*
X76528D01*
Y246500D01*
X78800D01*
Y248181D01*
D02*
G37*
G36*
X138153Y247276D02*
X135881D01*
Y245595D01*
X138153D01*
Y247276D01*
D02*
G37*
G36*
X134881D02*
X132609D01*
Y245595D01*
X134881D01*
Y247276D01*
D02*
G37*
G36*
X82072Y245500D02*
X79800D01*
Y243819D01*
X82072D01*
Y245500D01*
D02*
G37*
G36*
X78800D02*
X76528D01*
Y243819D01*
X78800D01*
Y245500D01*
D02*
G37*
G36*
X138153Y244595D02*
X135881D01*
Y242913D01*
X138153D01*
Y244595D01*
D02*
G37*
G36*
X134881D02*
X132609D01*
Y242913D01*
X134881D01*
Y244595D01*
D02*
G37*
G36*
X154468Y254453D02*
X149743D01*
Y248547D01*
X150391D01*
Y246200D01*
X149487Y245826D01*
X148405Y244995D01*
X147574Y243913D01*
X147052Y242653D01*
X146874Y241300D01*
X147052Y239948D01*
X147574Y238687D01*
X148405Y237605D01*
X149487Y236774D01*
X150748Y236252D01*
X152100Y236074D01*
X153453Y236252D01*
X154713Y236774D01*
X155795Y237605D01*
X156626Y238687D01*
X157148Y239948D01*
X157326Y241300D01*
X157148Y242653D01*
X156626Y243913D01*
X155795Y244995D01*
X154713Y245826D01*
X153820Y246196D01*
Y248547D01*
X154468D01*
Y254453D01*
D02*
G37*
G36*
X131800Y235313D02*
X130839Y235186D01*
X129944Y234815D01*
X129175Y234225D01*
X128585Y233456D01*
X128214Y232561D01*
X128087Y231600D01*
X128214Y230639D01*
X128585Y229744D01*
X129175Y228975D01*
X129944Y228385D01*
X130839Y228014D01*
X131800Y227887D01*
X132761Y228014D01*
X133656Y228385D01*
X134425Y228975D01*
X135015Y229744D01*
X135386Y230639D01*
X135513Y231600D01*
X135386Y232561D01*
X135015Y233456D01*
X134425Y234225D01*
X133656Y234815D01*
X132761Y235186D01*
X131800Y235313D01*
D02*
G37*
G36*
X75500D02*
X74539Y235186D01*
X73644Y234815D01*
X72875Y234225D01*
X72285Y233456D01*
X71914Y232561D01*
X71787Y231600D01*
X71914Y230639D01*
X72285Y229744D01*
X72875Y228975D01*
X73644Y228385D01*
X74539Y228014D01*
X75500Y227887D01*
X76461Y228014D01*
X77356Y228385D01*
X78125Y228975D01*
X78715Y229744D01*
X79086Y230639D01*
X79213Y231600D01*
X79086Y232561D01*
X78715Y233456D01*
X78125Y234225D01*
X77356Y234815D01*
X76461Y235186D01*
X75500Y235313D01*
D02*
G37*
G36*
X204870Y227870D02*
X196130D01*
Y219130D01*
X204870D01*
Y227870D01*
D02*
G37*
G36*
X40500Y227908D02*
X39359Y227758D01*
X38296Y227317D01*
X37383Y226617D01*
X36683Y225704D01*
X36242Y224641D01*
X36092Y223500D01*
X36242Y222359D01*
X36683Y221296D01*
X37383Y220383D01*
X38296Y219683D01*
X39359Y219242D01*
X40500Y219092D01*
X41641Y219242D01*
X42704Y219683D01*
X43617Y220383D01*
X44317Y221296D01*
X44758Y222359D01*
X44908Y223500D01*
X44758Y224641D01*
X44317Y225704D01*
X43617Y226617D01*
X42704Y227317D01*
X41641Y227758D01*
X40500Y227908D01*
D02*
G37*
G36*
Y217908D02*
X39359Y217758D01*
X38296Y217317D01*
X37383Y216617D01*
X36683Y215704D01*
X36242Y214641D01*
X36092Y213500D01*
X36242Y212359D01*
X36683Y211296D01*
X37383Y210383D01*
X38296Y209683D01*
X39359Y209242D01*
X40500Y209092D01*
X41641Y209242D01*
X42704Y209683D01*
X43617Y210383D01*
X44317Y211296D01*
X44758Y212359D01*
X44908Y213500D01*
X44758Y214641D01*
X44317Y215704D01*
X43617Y216617D01*
X42704Y217317D01*
X41641Y217758D01*
X40500Y217908D01*
D02*
G37*
G36*
X30500D02*
X29359Y217758D01*
X28296Y217317D01*
X27383Y216617D01*
X26683Y215704D01*
X26242Y214641D01*
X26092Y213500D01*
X26242Y212359D01*
X26683Y211296D01*
X27383Y210383D01*
X28296Y209683D01*
X29359Y209242D01*
X30500Y209092D01*
X31641Y209242D01*
X32704Y209683D01*
X33617Y210383D01*
X34317Y211296D01*
X34758Y212359D01*
X34908Y213500D01*
X34758Y214641D01*
X34317Y215704D01*
X33617Y216617D01*
X32704Y217317D01*
X31641Y217758D01*
X30500Y217908D01*
D02*
G37*
G36*
X210500Y217908D02*
X209359Y217758D01*
X208296Y217317D01*
X207383Y216617D01*
X206683Y215704D01*
X206242Y214641D01*
X206092Y213500D01*
X206242Y212359D01*
X206683Y211296D01*
X207383Y210383D01*
X208296Y209683D01*
X209359Y209242D01*
X210500Y209092D01*
X211641Y209242D01*
X212704Y209683D01*
X213617Y210383D01*
X214317Y211296D01*
X214758Y212359D01*
X214908Y213500D01*
X214758Y214641D01*
X214317Y215704D01*
X213617Y216617D01*
X212704Y217317D01*
X211641Y217758D01*
X210500Y217908D01*
D02*
G37*
G36*
X200500D02*
X199359Y217758D01*
X198296Y217317D01*
X197383Y216617D01*
X196683Y215704D01*
X196242Y214641D01*
X196092Y213500D01*
X196242Y212359D01*
X196683Y211296D01*
X197383Y210383D01*
X198296Y209683D01*
X199359Y209242D01*
X200500Y209092D01*
X201641Y209242D01*
X202704Y209683D01*
X203617Y210383D01*
X204317Y211296D01*
X204758Y212359D01*
X204908Y213500D01*
X204758Y214641D01*
X204317Y215704D01*
X203617Y216617D01*
X202704Y217317D01*
X201641Y217758D01*
X200500Y217908D01*
D02*
G37*
G36*
X57600Y219310D02*
X56408Y219193D01*
X55262Y218845D01*
X54205Y218281D01*
X53279Y217521D01*
X52519Y216595D01*
X51955Y215538D01*
X51607Y214392D01*
X51490Y213200D01*
X51607Y212008D01*
X51955Y210862D01*
X52519Y209805D01*
X53279Y208879D01*
X54205Y208119D01*
X55262Y207555D01*
X56408Y207207D01*
X57600Y207089D01*
X58792Y207207D01*
X59938Y207555D01*
X60995Y208119D01*
X61921Y208879D01*
X62681Y209805D01*
X63245Y210862D01*
X63593Y212008D01*
X63710Y213200D01*
X63593Y214392D01*
X63245Y215538D01*
X62681Y216595D01*
X61921Y217521D01*
X60995Y218281D01*
X59938Y218845D01*
X58792Y219193D01*
X57600Y219310D01*
D02*
G37*
G36*
X30500Y207908D02*
X29359Y207758D01*
X28296Y207317D01*
X27383Y206617D01*
X26683Y205704D01*
X26242Y204641D01*
X26092Y203500D01*
X26242Y202359D01*
X26683Y201296D01*
X27383Y200383D01*
X28296Y199683D01*
X29359Y199242D01*
X30500Y199092D01*
X31641Y199242D01*
X32704Y199683D01*
X33617Y200383D01*
X34317Y201296D01*
X34758Y202359D01*
X34908Y203500D01*
X34758Y204641D01*
X34317Y205704D01*
X33617Y206617D01*
X32704Y207317D01*
X31641Y207758D01*
X30500Y207908D01*
D02*
G37*
G36*
X210500Y207908D02*
X209359Y207758D01*
X208296Y207317D01*
X207383Y206617D01*
X206683Y205704D01*
X206242Y204641D01*
X206092Y203500D01*
X206242Y202359D01*
X206683Y201296D01*
X207383Y200383D01*
X208296Y199683D01*
X209359Y199242D01*
X210500Y199092D01*
X211641Y199242D01*
X212704Y199683D01*
X213617Y200383D01*
X214317Y201296D01*
X214758Y202359D01*
X214908Y203500D01*
X214758Y204641D01*
X214317Y205704D01*
X213617Y206617D01*
X212704Y207317D01*
X211641Y207758D01*
X210500Y207908D01*
D02*
G37*
G36*
X200500D02*
X199359Y207758D01*
X198296Y207317D01*
X197383Y206617D01*
X196683Y205704D01*
X196242Y204641D01*
X196092Y203500D01*
X196242Y202359D01*
X196683Y201296D01*
X197383Y200383D01*
X198296Y199683D01*
X199359Y199242D01*
X200500Y199092D01*
X201641Y199242D01*
X202704Y199683D01*
X203617Y200383D01*
X204317Y201296D01*
X204758Y202359D01*
X204908Y203500D01*
X204758Y204641D01*
X204317Y205704D01*
X203617Y206617D01*
X202704Y207317D01*
X201641Y207758D01*
X200500Y207908D01*
D02*
G37*
G36*
X224200Y231980D02*
X223481Y231885D01*
X223044Y231704D01*
X222000D01*
X221539Y231613D01*
X221148Y231351D01*
X220887Y230961D01*
X220796Y230500D01*
Y229000D01*
X220887Y228539D01*
X221148Y228149D01*
X221148Y228149D01*
X224696Y224601D01*
Y209699D01*
X224401Y209404D01*
X222700D01*
X218100Y209404D01*
X217639Y209313D01*
X217249Y209051D01*
X216987Y208661D01*
X216896Y208200D01*
X216896Y200200D01*
X216987Y199739D01*
X217249Y199348D01*
X217639Y199087D01*
X218100Y198996D01*
X226200D01*
X226200Y198996D01*
X226661Y199087D01*
X227051Y199348D01*
X230651Y202948D01*
X230913Y203339D01*
X231004Y203800D01*
X231004Y203800D01*
Y230500D01*
X230913Y230961D01*
X230651Y231351D01*
X230261Y231613D01*
X229800Y231704D01*
X225356D01*
X224919Y231885D01*
X224200Y231980D01*
D02*
G37*
G36*
X230718Y197702D02*
X229111Y196096D01*
X230300Y194907D01*
X231906Y196513D01*
X230718Y197702D01*
D02*
G37*
G36*
X228404Y195389D02*
X226798Y193782D01*
X227987Y192594D01*
X229593Y194200D01*
X228404Y195389D01*
D02*
G37*
G36*
X247400Y273567D02*
X246218Y273411D01*
X245117Y272955D01*
X244171Y272229D01*
X243445Y271283D01*
X242989Y270182D01*
X242833Y269000D01*
X242989Y267818D01*
X243445Y266717D01*
X244171Y265771D01*
X245117Y265045D01*
X245686Y264809D01*
Y192910D01*
X243636Y190860D01*
X243109Y191040D01*
X243085Y191219D01*
X242904Y191656D01*
X242904Y198000D01*
X242813Y198461D01*
X242551Y198852D01*
X242161Y199113D01*
X241700Y199204D01*
X239100D01*
X239100Y199204D01*
X238639Y199113D01*
X238248Y198852D01*
X238248Y198852D01*
X234218Y194821D01*
X233802Y194618D01*
X232613Y195806D01*
X230654Y193846D01*
X228694Y191887D01*
X228731Y191849D01*
X228491Y191383D01*
X228139Y191313D01*
X227748Y191051D01*
X227487Y190661D01*
X227396Y190200D01*
Y187500D01*
X227487Y187039D01*
X227748Y186648D01*
X228139Y186387D01*
X228600Y186296D01*
X230945D01*
Y182392D01*
X231076Y181736D01*
X231447Y181180D01*
X232639Y179988D01*
X232878Y179828D01*
Y176672D01*
X238587D01*
Y177269D01*
X238826Y177429D01*
X240018Y178621D01*
X240018Y178621D01*
X241098Y179702D01*
X241470Y180258D01*
X241600Y180914D01*
Y181289D01*
X258612Y198301D01*
X258984Y198857D01*
X259114Y199513D01*
Y264472D01*
X261928D01*
Y273528D01*
X252872D01*
Y264472D01*
X255686D01*
Y200223D01*
X249576Y194113D01*
X249114Y194304D01*
Y264809D01*
X249683Y265045D01*
X250629Y265771D01*
X251355Y266717D01*
X251811Y267818D01*
X251967Y269000D01*
X251811Y270182D01*
X251355Y271283D01*
X250629Y272229D01*
X249683Y272955D01*
X248582Y273411D01*
X247400Y273567D01*
D02*
G37*
G36*
X40500Y197908D02*
X39359Y197758D01*
X38296Y197317D01*
X37383Y196617D01*
X36683Y195704D01*
X36242Y194641D01*
X36092Y193500D01*
X36242Y192359D01*
X36683Y191296D01*
X37383Y190383D01*
X38296Y189683D01*
X39359Y189242D01*
X40500Y189092D01*
X41641Y189242D01*
X42704Y189683D01*
X43617Y190383D01*
X44317Y191296D01*
X44758Y192359D01*
X44908Y193500D01*
X44758Y194641D01*
X44317Y195704D01*
X43617Y196617D01*
X42704Y197317D01*
X41641Y197758D01*
X40500Y197908D01*
D02*
G37*
G36*
X30500D02*
X29359Y197758D01*
X28296Y197317D01*
X27383Y196617D01*
X26683Y195704D01*
X26242Y194641D01*
X26092Y193500D01*
X26242Y192359D01*
X26683Y191296D01*
X27383Y190383D01*
X28296Y189683D01*
X29359Y189242D01*
X30500Y189092D01*
X31641Y189242D01*
X32704Y189683D01*
X33617Y190383D01*
X34317Y191296D01*
X34758Y192359D01*
X34908Y193500D01*
X34758Y194641D01*
X34317Y195704D01*
X33617Y196617D01*
X32704Y197317D01*
X31641Y197758D01*
X30500Y197908D01*
D02*
G37*
G36*
X200500Y197908D02*
X199359Y197758D01*
X198296Y197317D01*
X197383Y196617D01*
X196683Y195704D01*
X196242Y194641D01*
X196092Y193500D01*
X196242Y192359D01*
X196683Y191296D01*
X197383Y190383D01*
X198296Y189683D01*
X199359Y189242D01*
X200500Y189092D01*
X201641Y189242D01*
X202704Y189683D01*
X203617Y190383D01*
X204317Y191296D01*
X204758Y192359D01*
X204908Y193500D01*
X204758Y194641D01*
X204317Y195704D01*
X203617Y196617D01*
X202704Y197317D01*
X201641Y197758D01*
X200500Y197908D01*
D02*
G37*
G36*
X210500D02*
X209359Y197758D01*
X208296Y197317D01*
X207383Y196617D01*
X206683Y195704D01*
X206242Y194641D01*
X206092Y193500D01*
X206242Y192359D01*
X206683Y191296D01*
X207383Y190383D01*
X208296Y189683D01*
X209359Y189242D01*
X210500Y189092D01*
X211641Y189242D01*
X212704Y189683D01*
X213617Y190383D01*
X214317Y191296D01*
X214520Y191786D01*
X216817D01*
X224413Y184189D01*
Y181791D01*
X224594D01*
Y181700D01*
X227268D01*
X229941D01*
Y181791D01*
X230122D01*
Y185728D01*
X227723D01*
X218739Y194712D01*
X218183Y195084D01*
X217527Y195214D01*
X214520D01*
X214317Y195704D01*
X213617Y196617D01*
X212704Y197317D01*
X211641Y197758D01*
X210500Y197908D01*
D02*
G37*
G36*
X40500Y187908D02*
X39359Y187758D01*
X38296Y187317D01*
X37383Y186617D01*
X36683Y185704D01*
X36242Y184641D01*
X36092Y183500D01*
X36242Y182359D01*
X36683Y181296D01*
X37383Y180383D01*
X38296Y179683D01*
X39359Y179242D01*
X40500Y179092D01*
X41641Y179242D01*
X42704Y179683D01*
X43617Y180383D01*
X44317Y181296D01*
X44758Y182359D01*
X44908Y183500D01*
X44758Y184641D01*
X44317Y185704D01*
X43617Y186617D01*
X42704Y187317D01*
X41641Y187758D01*
X40500Y187908D01*
D02*
G37*
G36*
X30500D02*
X29359Y187758D01*
X28296Y187317D01*
X27383Y186617D01*
X26683Y185704D01*
X26242Y184641D01*
X26092Y183500D01*
X26242Y182359D01*
X26683Y181296D01*
X27383Y180383D01*
X28296Y179683D01*
X29359Y179242D01*
X30500Y179092D01*
X31641Y179242D01*
X32704Y179683D01*
X33617Y180383D01*
X34317Y181296D01*
X34758Y182359D01*
X34908Y183500D01*
X34758Y184641D01*
X34317Y185704D01*
X33617Y186617D01*
X32704Y187317D01*
X31641Y187758D01*
X30500Y187908D01*
D02*
G37*
G36*
X200500Y187908D02*
X199359Y187758D01*
X198296Y187317D01*
X197383Y186617D01*
X196683Y185704D01*
X196242Y184641D01*
X196092Y183500D01*
X196242Y182359D01*
X196445Y181869D01*
X184388Y169812D01*
X184016Y169256D01*
X183886Y168600D01*
Y125200D01*
X184016Y124544D01*
X184388Y123988D01*
X206662Y101714D01*
X206620Y101400D01*
X206715Y100681D01*
X206993Y100010D01*
X207435Y99435D01*
X208010Y98993D01*
X208681Y98715D01*
X209400Y98620D01*
X210119Y98715D01*
X210790Y98993D01*
X211366Y99435D01*
X211807Y100010D01*
X212085Y100681D01*
X212180Y101400D01*
X212085Y102119D01*
X211807Y102790D01*
X211366Y103366D01*
X210790Y103807D01*
X210119Y104085D01*
X209400Y104180D01*
X209086Y104138D01*
X187314Y125910D01*
Y167890D01*
X198869Y179445D01*
X199359Y179242D01*
X200500Y179092D01*
X201641Y179242D01*
X202704Y179683D01*
X203617Y180383D01*
X204317Y181296D01*
X204758Y182359D01*
X204908Y183500D01*
X204758Y184641D01*
X204317Y185704D01*
X203617Y186617D01*
X202704Y187317D01*
X201641Y187758D01*
X200500Y187908D01*
D02*
G37*
G36*
X210500D02*
X209359Y187758D01*
X208296Y187317D01*
X207383Y186617D01*
X206683Y185704D01*
X206242Y184641D01*
X206092Y183500D01*
X206242Y182359D01*
X206683Y181296D01*
X207383Y180383D01*
X208296Y179683D01*
X209359Y179242D01*
X210500Y179092D01*
X211641Y179242D01*
X212131Y179445D01*
X214147Y177429D01*
X214703Y177057D01*
X215359Y176927D01*
X224413D01*
Y176672D01*
X230122D01*
Y180609D01*
X229941D01*
Y180700D01*
X227268D01*
X224594D01*
Y180609D01*
X224413D01*
Y180355D01*
X216069D01*
X214555Y181869D01*
X214758Y182359D01*
X214908Y183500D01*
X214758Y184641D01*
X214317Y185704D01*
X213617Y186617D01*
X212704Y187317D01*
X211641Y187758D01*
X210500Y187908D01*
D02*
G37*
G36*
X40500Y207908D02*
X39359Y207758D01*
X38296Y207317D01*
X37383Y206617D01*
X36683Y205704D01*
X36242Y204641D01*
X36092Y203500D01*
X36242Y202359D01*
X36683Y201296D01*
X37383Y200383D01*
X38296Y199683D01*
X39359Y199242D01*
X40500Y199092D01*
X41641Y199242D01*
X42131Y199445D01*
X53076Y188500D01*
X42131Y177555D01*
X41641Y177758D01*
X40500Y177908D01*
X39359Y177758D01*
X38296Y177317D01*
X37383Y176617D01*
X36683Y175704D01*
X36242Y174641D01*
X36092Y173500D01*
X36242Y172359D01*
X36683Y171296D01*
X37383Y170383D01*
X38296Y169683D01*
X39359Y169242D01*
X40500Y169092D01*
X41641Y169242D01*
X42704Y169683D01*
X43617Y170383D01*
X44317Y171296D01*
X44758Y172359D01*
X44908Y173500D01*
X44758Y174641D01*
X44555Y175131D01*
X55410Y185986D01*
X59190D01*
X70062Y175114D01*
X70020Y174800D01*
X70115Y174081D01*
X70393Y173410D01*
X70834Y172835D01*
X71410Y172393D01*
X72081Y172115D01*
X72800Y172020D01*
X73519Y172115D01*
X74190Y172393D01*
X74765Y172835D01*
X75207Y173410D01*
X75485Y174081D01*
X75580Y174800D01*
X75485Y175519D01*
X75207Y176190D01*
X74765Y176766D01*
X74473Y176990D01*
Y177610D01*
X74765Y177834D01*
X75207Y178410D01*
X75485Y179081D01*
X75580Y179800D01*
X75485Y180519D01*
X75207Y181190D01*
X74765Y181765D01*
X74190Y182207D01*
X73519Y182485D01*
X72800Y182580D01*
X72486Y182538D01*
X64112Y190912D01*
X63556Y191284D01*
X62900Y191414D01*
X55010D01*
X44555Y201869D01*
X44758Y202359D01*
X44908Y203500D01*
X44758Y204641D01*
X44317Y205704D01*
X43617Y206617D01*
X42704Y207317D01*
X41641Y207758D01*
X40500Y207908D01*
D02*
G37*
G36*
X30500Y177908D02*
X29359Y177758D01*
X28296Y177317D01*
X27383Y176617D01*
X26683Y175704D01*
X26242Y174641D01*
X26092Y173500D01*
X26242Y172359D01*
X26683Y171296D01*
X27383Y170383D01*
X28296Y169683D01*
X29359Y169242D01*
X30500Y169092D01*
X31641Y169242D01*
X32704Y169683D01*
X33617Y170383D01*
X34317Y171296D01*
X34758Y172359D01*
X34908Y173500D01*
X34758Y174641D01*
X34317Y175704D01*
X33617Y176617D01*
X32704Y177317D01*
X31641Y177758D01*
X30500Y177908D01*
D02*
G37*
G36*
X210500Y177908D02*
X209359Y177758D01*
X208296Y177317D01*
X207383Y176617D01*
X206683Y175704D01*
X206242Y174641D01*
X206092Y173500D01*
X206242Y172359D01*
X206683Y171296D01*
X207383Y170383D01*
X208296Y169683D01*
X209359Y169242D01*
X210500Y169092D01*
X211641Y169242D01*
X212704Y169683D01*
X213617Y170383D01*
X214317Y171296D01*
X214758Y172359D01*
X214908Y173500D01*
X214758Y174641D01*
X214317Y175704D01*
X213617Y176617D01*
X212704Y177317D01*
X211641Y177758D01*
X210500Y177908D01*
D02*
G37*
G36*
X200500D02*
X199359Y177758D01*
X198296Y177317D01*
X197383Y176617D01*
X196683Y175704D01*
X196242Y174641D01*
X196092Y173500D01*
X196242Y172359D01*
X196445Y171869D01*
X189888Y165312D01*
X189516Y164756D01*
X189386Y164100D01*
Y128700D01*
X189516Y128044D01*
X189888Y127488D01*
X214888Y102488D01*
X215444Y102116D01*
X216100Y101986D01*
X249100D01*
X249756Y102116D01*
X250312Y102488D01*
X255296Y107473D01*
X261928D01*
Y116527D01*
X252872D01*
Y109897D01*
X248390Y105414D01*
X216810D01*
X192814Y129410D01*
Y163390D01*
X198869Y169445D01*
X199359Y169242D01*
X200500Y169092D01*
X201641Y169242D01*
X202704Y169683D01*
X203617Y170383D01*
X204317Y171296D01*
X204758Y172359D01*
X204908Y173500D01*
X204758Y174641D01*
X204317Y175704D01*
X203617Y176617D01*
X202704Y177317D01*
X201641Y177758D01*
X200500Y177908D01*
D02*
G37*
G36*
X257400Y176567D02*
X256218Y176411D01*
X255117Y175955D01*
X254171Y175229D01*
X253445Y174283D01*
X252989Y173182D01*
X252833Y172000D01*
X252989Y170818D01*
X253445Y169717D01*
X254171Y168771D01*
X255117Y168045D01*
X256218Y167589D01*
X257400Y167433D01*
X258582Y167589D01*
X259683Y168045D01*
X260629Y168771D01*
X261355Y169717D01*
X261811Y170818D01*
X261967Y172000D01*
X261811Y173182D01*
X261355Y174283D01*
X260629Y175229D01*
X259683Y175955D01*
X258582Y176411D01*
X257400Y176567D01*
D02*
G37*
G36*
X247400D02*
X246218Y176411D01*
X245117Y175955D01*
X244171Y175229D01*
X243445Y174283D01*
X242989Y173182D01*
X242833Y172000D01*
X242989Y170818D01*
X243445Y169717D01*
X244171Y168771D01*
X245117Y168045D01*
X246218Y167589D01*
X247400Y167433D01*
X248582Y167589D01*
X249683Y168045D01*
X250629Y168771D01*
X251355Y169717D01*
X251811Y170818D01*
X251967Y172000D01*
X251811Y173182D01*
X251355Y174283D01*
X250629Y175229D01*
X249683Y175955D01*
X248582Y176411D01*
X247400Y176567D01*
D02*
G37*
G36*
X258400Y166252D02*
Y163000D01*
X261652D01*
X261635Y163135D01*
X261197Y164192D01*
X260500Y165100D01*
X259592Y165797D01*
X258535Y166235D01*
X258400Y166252D01*
D02*
G37*
G36*
X248400D02*
Y163000D01*
X251652D01*
X251635Y163135D01*
X251197Y164192D01*
X250500Y165100D01*
X249592Y165797D01*
X248535Y166235D01*
X248400Y166252D01*
D02*
G37*
G36*
X256400D02*
X256265Y166235D01*
X255208Y165797D01*
X254300Y165100D01*
X253603Y164192D01*
X253165Y163135D01*
X253148Y163000D01*
X256400D01*
Y166252D01*
D02*
G37*
G36*
X246400D02*
X246265Y166235D01*
X245208Y165797D01*
X244300Y165100D01*
X243603Y164192D01*
X243165Y163135D01*
X243148Y163000D01*
X246400D01*
Y166252D01*
D02*
G37*
G36*
X40500Y167908D02*
X39359Y167758D01*
X38296Y167317D01*
X37383Y166617D01*
X36683Y165704D01*
X36242Y164641D01*
X36092Y163500D01*
X36242Y162359D01*
X36683Y161296D01*
X37383Y160383D01*
X38296Y159683D01*
X39359Y159242D01*
X40500Y159092D01*
X41641Y159242D01*
X42704Y159683D01*
X43617Y160383D01*
X44317Y161296D01*
X44758Y162359D01*
X44908Y163500D01*
X44758Y164641D01*
X44317Y165704D01*
X43617Y166617D01*
X42704Y167317D01*
X41641Y167758D01*
X40500Y167908D01*
D02*
G37*
G36*
X30500D02*
X29359Y167758D01*
X28296Y167317D01*
X27383Y166617D01*
X26683Y165704D01*
X26242Y164641D01*
X26092Y163500D01*
X26242Y162359D01*
X26683Y161296D01*
X27383Y160383D01*
X28296Y159683D01*
X29359Y159242D01*
X30500Y159092D01*
X31641Y159242D01*
X32704Y159683D01*
X33617Y160383D01*
X34317Y161296D01*
X34758Y162359D01*
X34908Y163500D01*
X34758Y164641D01*
X34317Y165704D01*
X33617Y166617D01*
X32704Y167317D01*
X31641Y167758D01*
X30500Y167908D01*
D02*
G37*
G36*
X210500Y167908D02*
X209359Y167758D01*
X208296Y167317D01*
X207383Y166617D01*
X206683Y165704D01*
X206242Y164641D01*
X206092Y163500D01*
X206242Y162359D01*
X206683Y161296D01*
X207383Y160383D01*
X208296Y159683D01*
X209359Y159242D01*
X210500Y159092D01*
X211641Y159242D01*
X212704Y159683D01*
X213617Y160383D01*
X214317Y161296D01*
X214758Y162359D01*
X214908Y163500D01*
X214758Y164641D01*
X214317Y165704D01*
X213617Y166617D01*
X212704Y167317D01*
X211641Y167758D01*
X210500Y167908D01*
D02*
G37*
G36*
X200500D02*
X199359Y167758D01*
X198296Y167317D01*
X197383Y166617D01*
X196683Y165704D01*
X196242Y164641D01*
X196092Y163500D01*
X196242Y162359D01*
X196683Y161296D01*
X197383Y160383D01*
X198296Y159683D01*
X199359Y159242D01*
X200500Y159092D01*
X201641Y159242D01*
X202704Y159683D01*
X203617Y160383D01*
X204317Y161296D01*
X204758Y162359D01*
X204908Y163500D01*
X204758Y164641D01*
X204317Y165704D01*
X203617Y166617D01*
X202704Y167317D01*
X201641Y167758D01*
X200500Y167908D01*
D02*
G37*
G36*
X261652Y161000D02*
X258400D01*
Y157748D01*
X258535Y157765D01*
X259592Y158203D01*
X260500Y158900D01*
X261197Y159808D01*
X261635Y160865D01*
X261652Y161000D01*
D02*
G37*
G36*
X251652D02*
X248400D01*
Y157748D01*
X248535Y157765D01*
X249592Y158203D01*
X250500Y158900D01*
X251197Y159808D01*
X251635Y160865D01*
X251652Y161000D01*
D02*
G37*
G36*
X256400D02*
X253148D01*
X253165Y160865D01*
X253603Y159808D01*
X254300Y158900D01*
X255208Y158203D01*
X256265Y157765D01*
X256400Y157748D01*
Y161000D01*
D02*
G37*
G36*
X246400D02*
X243148D01*
X243165Y160865D01*
X243603Y159808D01*
X244300Y158900D01*
X245208Y158203D01*
X246265Y157765D01*
X246400Y157748D01*
Y161000D01*
D02*
G37*
G36*
X60000Y154655D02*
Y151800D01*
X62855D01*
X62851Y151832D01*
X62453Y152793D01*
X61819Y153619D01*
X60993Y154253D01*
X60032Y154651D01*
X60000Y154655D01*
D02*
G37*
G36*
X58000D02*
X57968Y154651D01*
X57007Y154253D01*
X56181Y153619D01*
X55547Y152793D01*
X55149Y151832D01*
X55145Y151800D01*
X58000D01*
Y154655D01*
D02*
G37*
G36*
X30500Y157908D02*
X29359Y157758D01*
X28296Y157317D01*
X27383Y156617D01*
X26683Y155704D01*
X26242Y154641D01*
X26092Y153500D01*
X26242Y152359D01*
X26683Y151296D01*
X27383Y150383D01*
X28296Y149683D01*
X29359Y149242D01*
X30500Y149092D01*
X31641Y149242D01*
X32704Y149683D01*
X33617Y150383D01*
X34317Y151296D01*
X34758Y152359D01*
X34908Y153500D01*
X34758Y154641D01*
X34317Y155704D01*
X33617Y156617D01*
X32704Y157317D01*
X31641Y157758D01*
X30500Y157908D01*
D02*
G37*
G36*
X210500Y157908D02*
X209359Y157758D01*
X208296Y157317D01*
X207383Y156617D01*
X206683Y155704D01*
X206242Y154641D01*
X206092Y153500D01*
X206242Y152359D01*
X206683Y151296D01*
X207383Y150383D01*
X208296Y149683D01*
X209359Y149242D01*
X210500Y149092D01*
X211641Y149242D01*
X212704Y149683D01*
X213617Y150383D01*
X214317Y151296D01*
X214758Y152359D01*
X214908Y153500D01*
X214758Y154641D01*
X214317Y155704D01*
X213617Y156617D01*
X212704Y157317D01*
X211641Y157758D01*
X210500Y157908D01*
D02*
G37*
G36*
X200500D02*
X199359Y157758D01*
X198296Y157317D01*
X197383Y156617D01*
X196683Y155704D01*
X196242Y154641D01*
X196092Y153500D01*
X196242Y152359D01*
X196683Y151296D01*
X197383Y150383D01*
X198296Y149683D01*
X199359Y149242D01*
X200500Y149092D01*
X201641Y149242D01*
X202704Y149683D01*
X203617Y150383D01*
X204317Y151296D01*
X204758Y152359D01*
X204908Y153500D01*
X204758Y154641D01*
X204317Y155704D01*
X203617Y156617D01*
X202704Y157317D01*
X201641Y157758D01*
X200500Y157908D01*
D02*
G37*
G36*
X257400Y156567D02*
X256218Y156411D01*
X255117Y155955D01*
X254171Y155229D01*
X253445Y154283D01*
X252989Y153182D01*
X252833Y152000D01*
X252989Y150818D01*
X253445Y149717D01*
X254171Y148771D01*
X255117Y148045D01*
X256218Y147589D01*
X257400Y147433D01*
X258582Y147589D01*
X259683Y148045D01*
X260629Y148771D01*
X261355Y149717D01*
X261811Y150818D01*
X261967Y152000D01*
X261811Y153182D01*
X261355Y154283D01*
X260629Y155229D01*
X259683Y155955D01*
X258582Y156411D01*
X257400Y156567D01*
D02*
G37*
G36*
X247400D02*
X246218Y156411D01*
X245117Y155955D01*
X244171Y155229D01*
X243445Y154283D01*
X242989Y153182D01*
X242833Y152000D01*
X242989Y150818D01*
X243445Y149717D01*
X244171Y148771D01*
X245117Y148045D01*
X246218Y147589D01*
X247400Y147433D01*
X248582Y147589D01*
X249683Y148045D01*
X250629Y148771D01*
X251355Y149717D01*
X251811Y150818D01*
X251967Y152000D01*
X251811Y153182D01*
X251355Y154283D01*
X250629Y155229D01*
X249683Y155955D01*
X248582Y156411D01*
X247400Y156567D01*
D02*
G37*
G36*
X83134Y154934D02*
X74866D01*
Y146666D01*
X83134D01*
Y154934D01*
D02*
G37*
G36*
X40500Y157908D02*
X39359Y157758D01*
X38296Y157317D01*
X37383Y156617D01*
X36683Y155704D01*
X36242Y154641D01*
X36092Y153500D01*
X36242Y152359D01*
X36683Y151296D01*
X37383Y150383D01*
X37747Y150104D01*
X37700Y149510D01*
X37387Y149301D01*
X34699Y146613D01*
X34490Y146300D01*
X33896Y146253D01*
X33617Y146617D01*
X32704Y147317D01*
X31641Y147758D01*
X30500Y147908D01*
X29359Y147758D01*
X28296Y147317D01*
X27383Y146617D01*
X26683Y145704D01*
X26242Y144641D01*
X26092Y143500D01*
X26242Y142359D01*
X26683Y141296D01*
X27383Y140383D01*
X28296Y139683D01*
X29359Y139242D01*
X30500Y139092D01*
X31641Y139242D01*
X32704Y139683D01*
X33617Y140383D01*
X34317Y141296D01*
X34520Y141786D01*
X35717D01*
X36373Y141917D01*
X36658Y141830D01*
X36841Y141387D01*
X37500Y140529D01*
Y143066D01*
X37625Y143694D01*
Y144691D01*
X39309Y146375D01*
X41691D01*
X42831Y145235D01*
X43387Y144864D01*
X44043Y144733D01*
X64647D01*
X65303Y144864D01*
X65859Y145235D01*
X67550Y146926D01*
X67921Y146773D01*
X69000Y146631D01*
X70079Y146773D01*
X71085Y147189D01*
X71948Y147852D01*
X72611Y148715D01*
X73027Y149721D01*
X73169Y150800D01*
X73027Y151879D01*
X72611Y152885D01*
X71948Y153748D01*
X71085Y154411D01*
X70079Y154827D01*
X69000Y154970D01*
X67921Y154827D01*
X66915Y154411D01*
X66052Y153748D01*
X65389Y152885D01*
X64973Y151879D01*
X64830Y150800D01*
X64973Y149721D01*
X65126Y149350D01*
X63937Y148161D01*
X62523D01*
X62302Y148610D01*
X62453Y148807D01*
X62851Y149768D01*
X62855Y149800D01*
X59000D01*
X55145D01*
X55149Y149768D01*
X55547Y148807D01*
X55698Y148610D01*
X55477Y148161D01*
X44752D01*
X43613Y149301D01*
X43300Y149510D01*
X43253Y150104D01*
X43617Y150383D01*
X44317Y151296D01*
X44758Y152359D01*
X44908Y153500D01*
X44758Y154641D01*
X44317Y155704D01*
X43617Y156617D01*
X42704Y157317D01*
X41641Y157758D01*
X40500Y157908D01*
D02*
G37*
G36*
X55500Y142000D02*
X55000D01*
Y140000D01*
X55500D01*
Y142000D01*
D02*
G37*
G36*
X210500Y147908D02*
X209359Y147758D01*
X208296Y147317D01*
X207383Y146617D01*
X206683Y145704D01*
X206242Y144641D01*
X206092Y143500D01*
X206242Y142359D01*
X206683Y141296D01*
X207383Y140383D01*
X208296Y139683D01*
X209359Y139242D01*
X210500Y139092D01*
X211641Y139242D01*
X212704Y139683D01*
X213617Y140383D01*
X214317Y141296D01*
X214758Y142359D01*
X214908Y143500D01*
X214758Y144641D01*
X214317Y145704D01*
X213617Y146617D01*
X212704Y147317D01*
X211641Y147758D01*
X210500Y147908D01*
D02*
G37*
G36*
X200500D02*
X199359Y147758D01*
X198296Y147317D01*
X197383Y146617D01*
X196683Y145704D01*
X196242Y144641D01*
X196092Y143500D01*
X196242Y142359D01*
X196683Y141296D01*
X197383Y140383D01*
X198296Y139683D01*
X199359Y139242D01*
X200500Y139092D01*
X201641Y139242D01*
X202704Y139683D01*
X203617Y140383D01*
X204317Y141296D01*
X204758Y142359D01*
X204908Y143500D01*
X204758Y144641D01*
X204317Y145704D01*
X203617Y146617D01*
X202704Y147317D01*
X201641Y147758D01*
X200500Y147908D01*
D02*
G37*
G36*
X55500Y139000D02*
X55000D01*
Y138023D01*
X50914D01*
X50780Y138113D01*
X50319Y138204D01*
X37000D01*
X36539Y138113D01*
X36176Y137870D01*
X36130D01*
Y137824D01*
X35887Y137461D01*
X35796Y137000D01*
Y128500D01*
X35887Y128039D01*
X36149Y127648D01*
X36539Y127387D01*
X37000Y127296D01*
X51500Y127296D01*
X51500Y127296D01*
X51961Y127387D01*
X52352Y127648D01*
X52352Y127648D01*
X55522Y130819D01*
X55681D01*
Y130978D01*
X56352Y131649D01*
X56613Y132039D01*
X56704Y132500D01*
X56704Y132500D01*
X56704Y136819D01*
X56613Y137280D01*
X56352Y137670D01*
X55961Y137932D01*
X55500Y138023D01*
Y139000D01*
D02*
G37*
G36*
X257400Y146567D02*
X256218Y146411D01*
X255117Y145955D01*
X254171Y145229D01*
X253445Y144283D01*
X252989Y143182D01*
X252833Y142000D01*
X252989Y140818D01*
X253445Y139717D01*
X254171Y138771D01*
X255117Y138045D01*
X256218Y137589D01*
X257400Y137433D01*
X258582Y137589D01*
X259683Y138045D01*
X260629Y138771D01*
X261355Y139717D01*
X261811Y140818D01*
X261967Y142000D01*
X261811Y143182D01*
X261355Y144283D01*
X260629Y145229D01*
X259683Y145955D01*
X258582Y146411D01*
X257400Y146567D01*
D02*
G37*
G36*
X247400D02*
X246218Y146411D01*
X245117Y145955D01*
X244171Y145229D01*
X243445Y144283D01*
X242989Y143182D01*
X242833Y142000D01*
X242989Y140818D01*
X243445Y139717D01*
X244171Y138771D01*
X245117Y138045D01*
X246218Y137589D01*
X247400Y137433D01*
X248582Y137589D01*
X249683Y138045D01*
X250629Y138771D01*
X251355Y139717D01*
X251811Y140818D01*
X251967Y142000D01*
X251811Y143182D01*
X251355Y144283D01*
X250629Y145229D01*
X249683Y145955D01*
X248582Y146411D01*
X247400Y146567D01*
D02*
G37*
G36*
X211500Y137593D02*
Y134500D01*
X214594D01*
X214581Y134593D01*
X214159Y135613D01*
X213488Y136488D01*
X212613Y137159D01*
X211594Y137581D01*
X211500Y137593D01*
D02*
G37*
G36*
X209500D02*
X209406Y137581D01*
X208387Y137159D01*
X207512Y136488D01*
X206841Y135613D01*
X206419Y134593D01*
X206406Y134500D01*
X209500D01*
Y137593D01*
D02*
G37*
G36*
X214594Y132500D02*
X211500D01*
Y129406D01*
X211594Y129419D01*
X212613Y129841D01*
X213488Y130512D01*
X214159Y131387D01*
X214581Y132406D01*
X214594Y132500D01*
D02*
G37*
G36*
X209500D02*
X206406D01*
X206419Y132406D01*
X206841Y131387D01*
X207512Y130512D01*
X208387Y129841D01*
X209406Y129419D01*
X209500Y129406D01*
Y132500D01*
D02*
G37*
G36*
X200500Y137908D02*
X199359Y137758D01*
X198296Y137317D01*
X197383Y136617D01*
X196683Y135704D01*
X196242Y134641D01*
X196092Y133500D01*
X196242Y132359D01*
X196683Y131296D01*
X197383Y130383D01*
X198296Y129683D01*
X199359Y129242D01*
X200500Y129092D01*
X201641Y129242D01*
X202704Y129683D01*
X203617Y130383D01*
X204317Y131296D01*
X204758Y132359D01*
X204908Y133500D01*
X204758Y134641D01*
X204317Y135704D01*
X203617Y136617D01*
X202704Y137317D01*
X201641Y137758D01*
X200500Y137908D01*
D02*
G37*
G36*
X257400Y136567D02*
X256218Y136411D01*
X255117Y135955D01*
X254171Y135229D01*
X253445Y134283D01*
X252989Y133182D01*
X252833Y132000D01*
X252989Y130818D01*
X253445Y129717D01*
X254171Y128771D01*
X255117Y128045D01*
X256218Y127589D01*
X257400Y127433D01*
X258582Y127589D01*
X259683Y128045D01*
X260629Y128771D01*
X261355Y129717D01*
X261811Y130818D01*
X261967Y132000D01*
X261811Y133182D01*
X261355Y134283D01*
X260629Y135229D01*
X259683Y135955D01*
X258582Y136411D01*
X257400Y136567D01*
D02*
G37*
G36*
X247400D02*
X246218Y136411D01*
X245117Y135955D01*
X244171Y135229D01*
X243445Y134283D01*
X242989Y133182D01*
X242833Y132000D01*
X242989Y130818D01*
X243445Y129717D01*
X244171Y128771D01*
X245117Y128045D01*
X246218Y127589D01*
X247400Y127433D01*
X248582Y127589D01*
X249683Y128045D01*
X250629Y128771D01*
X251355Y129717D01*
X251811Y130818D01*
X251967Y132000D01*
X251811Y133182D01*
X251355Y134283D01*
X250629Y135229D01*
X249683Y135955D01*
X248582Y136411D01*
X247400Y136567D01*
D02*
G37*
G36*
X38500Y123000D02*
Y121000D01*
X40500D01*
Y123000D01*
X38500D01*
D02*
G37*
G36*
X40500Y120000D02*
X38500D01*
Y118000D01*
X40500D01*
Y120000D01*
D02*
G37*
G36*
X257400Y126567D02*
X256218Y126411D01*
X255117Y125955D01*
X254171Y125229D01*
X253445Y124283D01*
X252989Y123182D01*
X252833Y122000D01*
X252989Y120818D01*
X253445Y119717D01*
X254171Y118771D01*
X255117Y118045D01*
X256218Y117589D01*
X257400Y117433D01*
X258582Y117589D01*
X259683Y118045D01*
X260629Y118771D01*
X261355Y119717D01*
X261811Y120818D01*
X261967Y122000D01*
X261811Y123182D01*
X261355Y124283D01*
X260629Y125229D01*
X259683Y125955D01*
X258582Y126411D01*
X257400Y126567D01*
D02*
G37*
G36*
X247400D02*
X246218Y126411D01*
X245117Y125955D01*
X244171Y125229D01*
X243445Y124283D01*
X242989Y123182D01*
X242833Y122000D01*
X242989Y120818D01*
X243445Y119717D01*
X244171Y118771D01*
X245117Y118045D01*
X246218Y117589D01*
X247400Y117433D01*
X248582Y117589D01*
X249683Y118045D01*
X250629Y118771D01*
X251355Y119717D01*
X251811Y120818D01*
X251967Y122000D01*
X251811Y123182D01*
X251355Y124283D01*
X250629Y125229D01*
X249683Y125955D01*
X248582Y126411D01*
X247400Y126567D01*
D02*
G37*
G36*
X34000Y138204D02*
X25500D01*
X25039Y138113D01*
X24648Y137852D01*
X24387Y137461D01*
X24296Y137000D01*
Y123000D01*
X24387Y122539D01*
X24648Y122149D01*
X29149Y117648D01*
X29539Y117387D01*
X30000Y117296D01*
X30000Y117296D01*
X34000D01*
X34461Y117387D01*
X34852Y117648D01*
X35033Y117920D01*
X35500Y118000D01*
X35615Y118000D01*
X37500D01*
Y120500D01*
Y123000D01*
X35704D01*
X35500Y123000D01*
X35204Y123378D01*
Y137000D01*
X35113Y137461D01*
X34870Y137824D01*
Y137870D01*
X34824D01*
X34461Y138113D01*
X34000Y138204D01*
D02*
G37*
G36*
X120100Y129210D02*
X118908Y129093D01*
X117762Y128745D01*
X116705Y128181D01*
X115779Y127421D01*
X115019Y126495D01*
X114455Y125438D01*
X114107Y124292D01*
X113989Y123100D01*
X114107Y121908D01*
X114455Y120762D01*
X115019Y119705D01*
X115779Y118779D01*
X116705Y118019D01*
X117762Y117455D01*
X118908Y117107D01*
X120100Y116990D01*
X121292Y117107D01*
X122438Y117455D01*
X123495Y118019D01*
X124421Y118779D01*
X125181Y119705D01*
X125745Y120762D01*
X126093Y121908D01*
X126210Y123100D01*
X126093Y124292D01*
X125745Y125438D01*
X125181Y126495D01*
X124421Y127421D01*
X123495Y128181D01*
X122438Y128745D01*
X121292Y129093D01*
X120100Y129210D01*
D02*
G37*
G36*
X247400Y116567D02*
X246218Y116411D01*
X245117Y115955D01*
X244171Y115229D01*
X243445Y114283D01*
X242989Y113182D01*
X242833Y112000D01*
X242989Y110818D01*
X243445Y109717D01*
X244171Y108771D01*
X245117Y108045D01*
X246218Y107589D01*
X247400Y107433D01*
X248582Y107589D01*
X249683Y108045D01*
X250629Y108771D01*
X251355Y109717D01*
X251811Y110818D01*
X251967Y112000D01*
X251811Y113182D01*
X251355Y114283D01*
X250629Y115229D01*
X249683Y115955D01*
X248582Y116411D01*
X247400Y116567D01*
D02*
G37*
G36*
X26783Y61567D02*
X25602Y61411D01*
X24500Y60955D01*
X23554Y60229D01*
X22829Y59283D01*
X22372Y58182D01*
X22217Y57000D01*
X22372Y55818D01*
X22829Y54717D01*
X23554Y53771D01*
X24500Y53045D01*
X25602Y52589D01*
X26783Y52433D01*
X27965Y52589D01*
X29067Y53045D01*
X30013Y53771D01*
X30738Y54717D01*
X31194Y55818D01*
X31350Y57000D01*
X31194Y58182D01*
X30738Y59283D01*
X30013Y60229D01*
X29067Y60955D01*
X27965Y61411D01*
X26783Y61567D01*
D02*
G37*
G36*
X44500Y61765D02*
X43267Y61603D01*
X42117Y61127D01*
X41131Y60369D01*
X40373Y59383D01*
X39897Y58233D01*
X39735Y57000D01*
X39897Y55767D01*
X40373Y54617D01*
X41131Y53631D01*
X42117Y52873D01*
X43267Y52397D01*
X44500Y52235D01*
X45733Y52397D01*
X46883Y52873D01*
X47870Y53631D01*
X48627Y54617D01*
X49103Y55767D01*
X49265Y57000D01*
X49103Y58233D01*
X48627Y59383D01*
X47870Y60369D01*
X46883Y61127D01*
X45733Y61603D01*
X44500Y61765D01*
D02*
G37*
G36*
X225500Y25967D02*
X224043Y25824D01*
X222642Y25399D01*
X221352Y24709D01*
X220220Y23780D01*
X219291Y22648D01*
X218601Y21358D01*
X218176Y19957D01*
X218033Y18500D01*
X218176Y17043D01*
X218601Y15642D01*
X219291Y14352D01*
X220220Y13220D01*
X221352Y12291D01*
X222642Y11601D01*
X224043Y11176D01*
X225500Y11033D01*
X226957Y11176D01*
X228358Y11601D01*
X229648Y12291D01*
X230780Y13220D01*
X231709Y14352D01*
X232399Y15642D01*
X232824Y17043D01*
X232967Y18500D01*
X232824Y19957D01*
X232399Y21358D01*
X231709Y22648D01*
X230780Y23780D01*
X229648Y24709D01*
X228358Y25399D01*
X226957Y25824D01*
X225500Y25967D01*
D02*
G37*
G36*
X15500D02*
X14043Y25824D01*
X12642Y25399D01*
X11351Y24709D01*
X10220Y23780D01*
X9291Y22648D01*
X8601Y21358D01*
X8176Y19957D01*
X8033Y18500D01*
X8176Y17043D01*
X8601Y15642D01*
X9291Y14352D01*
X10220Y13220D01*
X11351Y12291D01*
X12642Y11601D01*
X14043Y11176D01*
X15500Y11033D01*
X16957Y11176D01*
X18358Y11601D01*
X19648Y12291D01*
X20780Y13220D01*
X21709Y14352D01*
X22399Y15642D01*
X22824Y17043D01*
X22967Y18500D01*
X22824Y19957D01*
X22399Y21358D01*
X21709Y22648D01*
X20780Y23780D01*
X19648Y24709D01*
X18358Y25399D01*
X16957Y25824D01*
X15500Y25967D01*
D02*
G37*
%LPD*%
G36*
X87319Y501619D02*
X87369D01*
X87563Y501119D01*
X87315Y500519D01*
X87220Y499800D01*
X87315Y499081D01*
X87593Y498410D01*
X88034Y497834D01*
X88610Y497393D01*
X89281Y497115D01*
X90000Y497020D01*
X90719Y497115D01*
X91390Y497393D01*
X91966Y497834D01*
X92000Y497879D01*
X92500Y497710D01*
X92500Y446800D01*
X88500Y442800D01*
Y381020D01*
X58500D01*
X58500Y415300D01*
X66269D01*
X66421Y414800D01*
X66348Y414751D01*
X66087Y414361D01*
X65996Y413900D01*
X65996Y405800D01*
X66087Y405339D01*
X66348Y404949D01*
X66359Y404615D01*
X66035Y404365D01*
X65593Y403790D01*
X65315Y403119D01*
X65220Y402400D01*
X65315Y401681D01*
X65593Y401010D01*
X66035Y400434D01*
X66610Y399993D01*
X67281Y399715D01*
X68000Y399620D01*
X68719Y399715D01*
X69390Y399993D01*
X69965Y400434D01*
X70407Y401010D01*
X70685Y401681D01*
X70780Y402400D01*
X70685Y403119D01*
X70407Y403790D01*
X70173Y404096D01*
X70419Y404596D01*
X75581Y404596D01*
X75827Y404096D01*
X75593Y403790D01*
X75315Y403119D01*
X75220Y402400D01*
X75315Y401681D01*
X75593Y401010D01*
X76034Y400434D01*
X76610Y399993D01*
X77281Y399715D01*
X78000Y399620D01*
X78719Y399715D01*
X79390Y399993D01*
X79966Y400434D01*
X80407Y401010D01*
X80685Y401681D01*
X80780Y402400D01*
X80685Y403119D01*
X80407Y403790D01*
X80173Y404096D01*
X80419Y404596D01*
X81800D01*
X82261Y404687D01*
X82652Y404948D01*
X82913Y405339D01*
X83004Y405800D01*
X83004Y409028D01*
X82957Y409267D01*
Y414753D01*
X79700D01*
X79665Y414800D01*
X79917Y415300D01*
X80000D01*
X80500Y415800D01*
Y450119D01*
X83681D01*
Y455481D01*
X80500D01*
Y456800D01*
X73500D01*
X72000Y455300D01*
Y449800D01*
X68000D01*
Y458300D01*
X65500Y460800D01*
Y466800D01*
X69500D01*
Y461800D01*
X71500Y459800D01*
X80500D01*
Y462076D01*
X81732D01*
Y460347D01*
X86457D01*
Y466253D01*
X84098D01*
X83946Y466355D01*
X83095Y466524D01*
X80500D01*
Y477847D01*
X80862D01*
Y483753D01*
X80500D01*
Y484347D01*
X80862D01*
Y490253D01*
X80500D01*
Y491800D01*
X73819Y498481D01*
Y500076D01*
X72224D01*
X72000Y500300D01*
X72000Y504800D01*
X81319D01*
Y501619D01*
X86681D01*
Y504800D01*
X87319D01*
Y501619D01*
D02*
G37*
%LPC*%
G36*
X89681Y455481D02*
X84319D01*
Y450119D01*
X84723D01*
X85052Y449743D01*
X85020Y449500D01*
X85115Y448781D01*
X85393Y448110D01*
X85834Y447535D01*
X86410Y447093D01*
X87081Y446815D01*
X87800Y446720D01*
X88519Y446815D01*
X89190Y447093D01*
X89766Y447535D01*
X90207Y448110D01*
X90485Y448781D01*
X90580Y449500D01*
X90485Y450219D01*
X90207Y450890D01*
X89766Y451466D01*
X89681Y451530D01*
Y455481D01*
D02*
G37*
%LPD*%
G36*
X53500Y446800D02*
X68000D01*
Y442300D01*
X63500Y437800D01*
Y433300D01*
X49000D01*
X45500Y436800D01*
X45500Y449092D01*
X36000Y449092D01*
Y458500D01*
X53500D01*
Y446800D01*
D02*
G37*
G36*
X229407Y367610D02*
X229849Y367035D01*
X230100Y366842D01*
Y321814D01*
X230230Y321158D01*
X230602Y320602D01*
X235528Y315676D01*
X235337Y315214D01*
X234582D01*
X228100Y321696D01*
Y366842D01*
X228351Y367035D01*
X228793Y367610D01*
X228829Y367698D01*
X229371D01*
X229407Y367610D01*
D02*
G37*
G36*
X48500Y382000D02*
X55000D01*
Y374500D01*
X51000Y370500D01*
X39500D01*
X37000Y373000D01*
Y387000D01*
X43500D01*
X48500Y382000D01*
D02*
G37*
G36*
X152000Y276500D02*
X149000Y273500D01*
X143000D01*
X140000Y276500D01*
Y280500D01*
X152000D01*
Y276500D01*
D02*
G37*
G36*
X100500D02*
X97500Y273500D01*
X91500D01*
X88500Y276500D01*
Y280500D01*
X100500D01*
Y276500D01*
D02*
G37*
G36*
X51786Y261714D02*
X35286Y245214D01*
X16000Y264500D01*
X32500Y281000D01*
X51786Y261714D01*
D02*
G37*
G36*
X229800Y203800D02*
X226200Y200200D01*
X218100D01*
X218100Y208200D01*
X222700Y208200D01*
D01*
X224900D01*
X225900Y209200D01*
Y225100D01*
X222000Y229000D01*
Y230500D01*
X229800D01*
Y203800D01*
D02*
G37*
G36*
X241700Y190400D02*
X238800Y187500D01*
X228600D01*
Y190200D01*
X231300Y190200D01*
X239100Y198000D01*
X241700D01*
X241700Y190400D01*
D02*
G37*
G36*
X50319Y136819D02*
X55500D01*
X55500Y132500D01*
X51500Y128500D01*
X37000Y128500D01*
Y137000D01*
X50319D01*
Y136819D01*
D02*
G37*
G36*
X34000Y118500D02*
X30000D01*
X25500Y123000D01*
Y137000D01*
X34000D01*
Y118500D01*
D02*
G37*
D12*
X231814Y321814D02*
Y369000D01*
X226386Y320986D02*
Y369000D01*
X238806Y179833D02*
Y179833D01*
X239886Y180914D01*
Y181999D01*
X257400Y199513D01*
X237614Y178641D02*
X238806Y179833D01*
X235732Y178641D02*
X237614D01*
X233851Y181200D02*
X235732D01*
X232659Y182392D02*
X233851Y181200D01*
X232659Y182392D02*
Y187168D01*
X235991Y190500D02*
X240400D01*
X232659Y187168D02*
X235991Y190500D01*
X215359Y178641D02*
X227268D01*
X210500Y183500D02*
X215359Y178641D01*
X217527Y193500D02*
X227268Y183759D01*
X210500Y193500D02*
X217527D01*
X257400Y199513D02*
Y269000D01*
X238959Y183759D02*
X247400Y192200D01*
X235732Y183759D02*
X238959D01*
X247400Y192200D02*
Y269000D01*
X40500Y173500D02*
X54700Y187700D01*
X40500Y203500D02*
X54300Y189700D01*
X62900D01*
X54700Y187700D02*
X59900D01*
X72800Y174800D01*
X62900Y189700D02*
X72800Y179800D01*
X226386Y320986D02*
X233872Y313500D01*
X242900D01*
X247400Y309000D01*
X231814Y321814D02*
X238128Y315500D01*
X244187D01*
X245434Y314253D01*
X252147D01*
X257400Y309000D01*
X64647Y146447D02*
X69000Y150800D01*
X44043Y146447D02*
X64647D01*
X42401Y148089D02*
X44043Y146447D01*
X38599Y148089D02*
X42401D01*
X35911Y145401D02*
X38599Y148089D01*
X35911Y143694D02*
Y145401D01*
X35717Y143500D02*
X35911Y143694D01*
X30500Y143500D02*
X35717D01*
X172200Y383500D02*
X200500D01*
X166800Y378100D02*
X172200Y383500D01*
X156800Y384200D02*
X180600Y408000D01*
X156800Y378100D02*
Y384200D01*
X148304Y428900D02*
X179800D01*
X180795Y427906D01*
Y416100D02*
Y427906D01*
X192689Y418089D02*
X205089D01*
X190700Y416100D02*
X192689Y418089D01*
X186700Y416100D02*
X190700D01*
X205089Y418089D02*
X210500Y423500D01*
X186700Y423200D02*
X188700Y425200D01*
X186700Y416100D02*
Y423200D01*
X186600Y416000D02*
X186700Y416100D01*
X186600Y408000D02*
Y416000D01*
X135381Y251000D02*
X135881Y251500D01*
X79300Y251905D02*
X79305Y251900D01*
X152100Y241300D02*
X152105Y241305D01*
Y251500D01*
X135881D02*
X146200D01*
X95800Y251694D02*
X96005Y251900D01*
X95800Y241300D02*
Y251694D01*
X94500Y256300D02*
Y269000D01*
X90100Y251900D02*
X94500Y256300D01*
X79305Y251900D02*
X90100D01*
X185600Y125200D02*
X209400Y101400D01*
X185600Y125200D02*
Y168600D01*
X200500Y183500D01*
X191100Y128700D02*
X216100Y103700D01*
X191100Y128700D02*
Y164100D01*
X200500Y173500D01*
X249100Y103700D02*
X257400Y112000D01*
X216100Y103700D02*
X249100D01*
X87000Y450300D02*
X87800Y449500D01*
X87000Y450300D02*
Y452800D01*
D17*
X255200Y266800D02*
X257400Y269000D01*
X210500Y223500D02*
Y233457D01*
X146000Y269978D02*
X173978D01*
X63978D02*
X94500D01*
X145953Y251747D02*
X146200Y251500D01*
X145953Y251747D02*
Y255000D01*
X83095Y464300D02*
X84095Y463300D01*
X87000Y452800D02*
X87500Y452300D01*
X90000Y499800D02*
Y504300D01*
X63500Y421800D02*
X64500D01*
X66500Y419800D01*
X66000Y444800D02*
X66500Y444300D01*
X66000Y472800D02*
X70634D01*
X71260Y472174D01*
X67000Y495300D02*
X69634D01*
X71260Y496926D01*
X173978Y269978D02*
X210500Y233457D01*
X146000Y269000D02*
Y269978D01*
X145953Y255000D02*
X146000Y255047D01*
Y269000D01*
X30500Y223500D02*
Y236500D01*
X63978Y269978D01*
X94500Y269000D02*
Y269978D01*
D19*
X186600Y408000D02*
D03*
X180600D02*
D03*
X38000Y120500D02*
D03*
X32000D02*
D03*
X81000Y452800D02*
D03*
X87000D02*
D03*
X84000Y504300D02*
D03*
X90000D02*
D03*
D20*
X78500Y480800D02*
D03*
X84405D02*
D03*
X186700Y416100D02*
D03*
X180795D02*
D03*
X96005Y251900D02*
D03*
X90100D02*
D03*
X152105Y251500D02*
D03*
X146200D02*
D03*
X80594Y411800D02*
D03*
X86500D02*
D03*
X76095Y428800D02*
D03*
X82000D02*
D03*
X86000D02*
D03*
X91905D02*
D03*
X82000Y434800D02*
D03*
X76095D02*
D03*
X91905D02*
D03*
X86000D02*
D03*
X84095Y463300D02*
D03*
X90000D02*
D03*
X89095Y480800D02*
D03*
X95000D02*
D03*
X84405Y487300D02*
D03*
X78500D02*
D03*
X95000D02*
D03*
X89095D02*
D03*
D21*
X227268Y178641D02*
D03*
X227268Y181200D02*
D03*
X227268Y183759D02*
D03*
X235732Y178641D02*
D03*
Y181200D02*
D03*
Y183759D02*
D03*
D32*
X53000Y133500D02*
D03*
Y139500D02*
D03*
X52500Y379500D02*
D03*
Y385500D02*
D03*
D60*
X95800Y241300D02*
D03*
X75500Y261300D02*
D03*
X131800D02*
D03*
X152100Y241300D02*
D03*
D61*
X200500Y223500D02*
D03*
X30500Y133500D02*
D03*
X210500Y223500D02*
D03*
X40500Y133500D02*
D03*
X30500Y383500D02*
D03*
X210500Y473500D02*
D03*
X40500Y383500D02*
D03*
X200500Y473500D02*
D03*
D62*
Y213500D02*
D03*
Y203500D02*
D03*
Y193500D02*
D03*
Y183500D02*
D03*
Y173500D02*
D03*
Y163500D02*
D03*
Y153500D02*
D03*
Y143500D02*
D03*
Y133500D02*
D03*
X30500Y143500D02*
D03*
Y153500D02*
D03*
Y163500D02*
D03*
Y173500D02*
D03*
Y183500D02*
D03*
Y193500D02*
D03*
Y203500D02*
D03*
Y213500D02*
D03*
Y223500D02*
D03*
X210500Y213500D02*
D03*
Y203500D02*
D03*
Y193500D02*
D03*
Y183500D02*
D03*
Y173500D02*
D03*
Y163500D02*
D03*
Y153500D02*
D03*
Y143500D02*
D03*
Y133500D02*
D03*
X40500Y143500D02*
D03*
Y153500D02*
D03*
Y163500D02*
D03*
Y173500D02*
D03*
Y183500D02*
D03*
Y193500D02*
D03*
Y203500D02*
D03*
Y213500D02*
D03*
Y223500D02*
D03*
X30500Y393500D02*
D03*
Y403500D02*
D03*
Y413500D02*
D03*
Y423500D02*
D03*
Y433500D02*
D03*
Y443500D02*
D03*
Y453500D02*
D03*
Y463500D02*
D03*
Y473500D02*
D03*
X210500Y463500D02*
D03*
Y453500D02*
D03*
Y443500D02*
D03*
Y433500D02*
D03*
Y423500D02*
D03*
Y413500D02*
D03*
Y403500D02*
D03*
Y393500D02*
D03*
Y383500D02*
D03*
X40500Y393500D02*
D03*
Y403500D02*
D03*
Y413500D02*
D03*
Y423500D02*
D03*
Y433500D02*
D03*
Y443500D02*
D03*
Y453500D02*
D03*
Y463500D02*
D03*
Y473500D02*
D03*
X200500Y463500D02*
D03*
Y453500D02*
D03*
Y443500D02*
D03*
Y433500D02*
D03*
Y423500D02*
D03*
Y413500D02*
D03*
Y403500D02*
D03*
Y393500D02*
D03*
Y383500D02*
D03*
D63*
X79000Y150800D02*
D03*
X156800Y378100D02*
D03*
D64*
X69000Y150800D02*
D03*
X59000D02*
D03*
X166800Y378100D02*
D03*
X176800D02*
D03*
D65*
X247400Y319000D02*
D03*
X257400D02*
D03*
X247400Y309000D02*
D03*
X257400D02*
D03*
X247400Y122000D02*
D03*
X257400D02*
D03*
X247400Y132000D02*
D03*
X257400D02*
D03*
X179800Y452522D02*
D03*
X148304D02*
D03*
X179800Y428900D02*
D03*
X148304D02*
D03*
X257400Y162000D02*
D03*
Y172000D02*
D03*
X247400Y162000D02*
D03*
Y172000D02*
D03*
Y152000D02*
D03*
Y142000D02*
D03*
Y112000D02*
D03*
X257400Y152000D02*
D03*
Y142000D02*
D03*
Y279000D02*
D03*
Y289000D02*
D03*
Y299000D02*
D03*
X247400Y269000D02*
D03*
Y279000D02*
D03*
Y289000D02*
D03*
Y299000D02*
D03*
Y329000D02*
D03*
X257400D02*
D03*
X26783Y57000D02*
D03*
D66*
X257400Y112000D02*
D03*
Y269000D02*
D03*
D67*
X44500Y57000D02*
D03*
D68*
X231814Y369000D02*
D03*
X226386D02*
D03*
X72800Y174800D02*
D03*
Y179800D02*
D03*
X73300Y432300D02*
D03*
X75500Y484200D02*
D03*
X80100Y357500D02*
D03*
X209400Y101400D02*
D03*
X64700Y510700D02*
D03*
X87200Y483600D02*
D03*
X84300Y431600D02*
D03*
X68000Y402400D02*
D03*
X64500Y383800D02*
D03*
X44700Y350400D02*
D03*
X35204Y247668D02*
D03*
X38268Y250732D02*
D03*
X43532Y263532D02*
D03*
X47300Y259764D02*
D03*
X87800Y449500D02*
D03*
X93879Y29900D02*
D03*
X159700D02*
D03*
X227700Y223400D02*
D03*
X227800Y217900D02*
D03*
X222300Y202600D02*
D03*
X224200Y229200D02*
D03*
X240400Y190500D02*
D03*
X78000Y402400D02*
D03*
X54400Y406300D02*
D03*
Y412700D02*
D03*
X93500Y402300D02*
D03*
X98000Y402400D02*
D03*
X57600Y452700D02*
D03*
X99500Y458200D02*
D03*
X95500D02*
D03*
X63500Y457900D02*
D03*
X68700Y510700D02*
D03*
X51000Y350500D02*
D03*
X84500Y311500D02*
D03*
X82000D02*
D03*
X98500D02*
D03*
X96000D02*
D03*
X106333Y289500D02*
D03*
X102000D02*
D03*
X106333Y285700D02*
D03*
X102000D02*
D03*
X115000D02*
D03*
X110667D02*
D03*
Y289500D02*
D03*
X119333Y285700D02*
D03*
Y289500D02*
D03*
X128000Y285700D02*
D03*
X123667D02*
D03*
X128000Y289500D02*
D03*
X134384Y34500D02*
D03*
X129321D02*
D03*
X134384Y29900D02*
D03*
X129321D02*
D03*
X144510D02*
D03*
X139447D02*
D03*
X144510Y34500D02*
D03*
X139447D02*
D03*
X149573Y29900D02*
D03*
Y34500D02*
D03*
X154637Y29900D02*
D03*
X159700Y34500D02*
D03*
X154637D02*
D03*
X98942D02*
D03*
X104005D02*
D03*
X98942Y29900D02*
D03*
X104005D02*
D03*
X109068D02*
D03*
Y34500D02*
D03*
X119195Y29900D02*
D03*
X114131D02*
D03*
X119195Y34500D02*
D03*
X114131D02*
D03*
X124258Y29900D02*
D03*
Y34500D02*
D03*
X68563D02*
D03*
X63500D02*
D03*
X68563Y29900D02*
D03*
X63500D02*
D03*
X78689D02*
D03*
X73626D02*
D03*
X78689Y34500D02*
D03*
X73626D02*
D03*
X83753Y29900D02*
D03*
Y34500D02*
D03*
X88816Y29900D02*
D03*
X93879Y34500D02*
D03*
X88816D02*
D03*
X23360Y270896D02*
D03*
X27128Y267128D02*
D03*
X21000Y261000D02*
D03*
X24064Y264064D02*
D03*
X17232Y264768D02*
D03*
X20296Y267832D02*
D03*
X33096Y273096D02*
D03*
X30032Y270032D02*
D03*
X29328Y276864D02*
D03*
X26264Y273800D02*
D03*
X40468Y260468D02*
D03*
X44236Y256700D02*
D03*
X34500Y254500D02*
D03*
X31436Y251436D02*
D03*
X41332Y253796D02*
D03*
X37564Y257564D02*
D03*
X45000Y374800D02*
D03*
X40667D02*
D03*
X45000Y371500D02*
D03*
X40667D02*
D03*
X49333D02*
D03*
Y374800D02*
D03*
X81833Y387000D02*
D03*
X86167D02*
D03*
X81833Y383800D02*
D03*
X86167D02*
D03*
X77500Y387000D02*
D03*
Y383800D02*
D03*
X68833Y387000D02*
D03*
X73167D02*
D03*
X68833Y383800D02*
D03*
X73167D02*
D03*
X60167D02*
D03*
Y387000D02*
D03*
X64500D02*
D03*
X90000Y499800D02*
D03*
X142000Y279000D02*
D03*
X144500D02*
D03*
X147000D02*
D03*
X149500D02*
D03*
X90500D02*
D03*
X93000D02*
D03*
X95500D02*
D03*
X98000D02*
D03*
X59500Y438800D02*
D03*
Y443800D02*
D03*
X67000Y495300D02*
D03*
X66000Y472800D02*
D03*
X63500Y421800D02*
D03*
D69*
X105500Y251600D02*
D03*
X75500Y231600D02*
D03*
X131800D02*
D03*
X161800Y251600D02*
D03*
D70*
X15500Y508500D02*
D03*
Y18500D02*
D03*
X225500D02*
D03*
Y508500D02*
D03*
D71*
X130000Y388000D02*
D03*
X57600Y213200D02*
D03*
X120100Y123100D02*
D03*
D72*
X230300Y194200D02*
D03*
X234476Y190024D02*
D03*
D73*
X188700Y431106D02*
D03*
Y425200D02*
D03*
X79300Y251905D02*
D03*
Y246000D02*
D03*
X135381Y251000D02*
D03*
Y245094D02*
D03*
X94500Y274905D02*
D03*
Y269000D02*
D03*
X146000Y274905D02*
D03*
Y269000D02*
D03*
D74*
X66500Y419800D02*
D03*
X62760Y411926D02*
D03*
X70240D02*
D03*
X66500Y444300D02*
D03*
X70240Y452174D02*
D03*
X62760D02*
D03*
X71260Y472174D02*
D03*
X67520Y464300D02*
D03*
X75000D02*
D03*
X71260Y496926D02*
D03*
X75000Y504800D02*
D03*
X67520D02*
D03*
D75*
X75000Y464300D02*
X83095D01*
X200500Y163000D02*
Y163500D01*
M02*
