G04*
G04 #@! TF.GenerationSoftware,Altium Limited,Altium Designer,18.0.7 (293)*
G04*
G04 Layer_Physical_Order=1*
G04 Layer_Color=255*
%FSLAX25Y25*%
%MOIN*%
G70*
G01*
G75*
%ADD12C,0.01000*%
%ADD17C,0.01500*%
%ADD19R,0.03000X0.03000*%
%ADD20R,0.02362X0.03543*%
%ADD21R,0.03347X0.01575*%
%ADD22O,0.02362X0.09843*%
%ADD23R,0.06299X0.12598*%
%ADD24R,0.11024X0.09449*%
%ADD25R,0.07874X0.04724*%
%ADD26R,0.07087X0.05118*%
%ADD27R,0.04331X0.08465*%
%ADD28R,0.04331X0.08465*%
%ADD29R,0.13780X0.08465*%
%ADD30R,0.05000X0.04500*%
%ADD31R,0.04724X0.07874*%
%ADD32R,0.03000X0.03000*%
%ADD59C,0.03000*%
%ADD60C,0.08000*%
%ADD61R,0.06378X0.06378*%
%ADD62C,0.06378*%
%ADD63R,0.05906X0.05906*%
%ADD64C,0.05906*%
%ADD65C,0.06693*%
%ADD66R,0.06693X0.06693*%
%ADD67C,0.07087*%
%ADD68C,0.03150*%
%ADD69C,0.05000*%
%ADD70C,0.12500*%
%ADD71C,0.09800*%
G36*
X267500Y58000D02*
X49134D01*
X49103Y58233D01*
X48627Y59383D01*
X47870Y60369D01*
X46883Y61127D01*
X45733Y61603D01*
X44500Y61765D01*
X43267Y61603D01*
X42117Y61127D01*
X41131Y60369D01*
X40373Y59383D01*
X39897Y58233D01*
X39867Y58000D01*
X31218D01*
X31194Y58182D01*
X30738Y59283D01*
X30013Y60229D01*
X29067Y60955D01*
X27965Y61411D01*
X26783Y61567D01*
X25602Y61411D01*
X24500Y60955D01*
X23554Y60229D01*
X22829Y59283D01*
X22372Y58182D01*
X22348Y58000D01*
X1500D01*
Y305000D01*
X1553D01*
X1600Y524300D01*
X267500D01*
Y58000D01*
D02*
G37*
G36*
X162000Y28083D02*
X19500D01*
Y56385D01*
X20000Y56796D01*
X22244D01*
X22372Y55818D01*
X22829Y54717D01*
X23554Y53771D01*
X24500Y53045D01*
X25602Y52589D01*
X26783Y52433D01*
X27965Y52589D01*
X29067Y53045D01*
X30013Y53771D01*
X30738Y54717D01*
X31194Y55818D01*
X31323Y56796D01*
X39762D01*
X39897Y55767D01*
X40373Y54617D01*
X41131Y53631D01*
X42117Y52873D01*
X43267Y52397D01*
X44500Y52235D01*
X45733Y52397D01*
X46883Y52873D01*
X47870Y53631D01*
X48627Y54617D01*
X49103Y55767D01*
X49238Y56796D01*
X162000D01*
Y28083D01*
D02*
G37*
%LPC*%
G36*
X68700Y513480D02*
X67981Y513385D01*
X67544Y513204D01*
X65856D01*
X65419Y513385D01*
X64700Y513480D01*
X63981Y513385D01*
X63310Y513107D01*
X63168Y512998D01*
X62949Y512851D01*
X62919Y512807D01*
X62735Y512666D01*
X62293Y512090D01*
X62015Y511419D01*
X61920Y510700D01*
X62015Y509981D01*
X62293Y509310D01*
X62596Y508915D01*
Y497400D01*
X62598Y497391D01*
X62280Y497004D01*
X59370D01*
X58910Y496913D01*
X58519Y496652D01*
X58258Y496261D01*
X58166Y495800D01*
Y493487D01*
X57600Y493412D01*
X56948Y493142D01*
X56388Y492712D01*
X46688Y483012D01*
X46258Y482452D01*
X45988Y481800D01*
X45942Y481450D01*
X45896Y481100D01*
X45896Y481100D01*
Y472720D01*
X45132Y471956D01*
X44708Y472239D01*
X44758Y472359D01*
X44908Y473500D01*
X44758Y474641D01*
X44317Y475704D01*
X43617Y476617D01*
X42704Y477317D01*
X41641Y477758D01*
X40500Y477908D01*
X39359Y477758D01*
X38296Y477317D01*
X37383Y476617D01*
X36683Y475704D01*
X36242Y474641D01*
X36092Y473500D01*
X36242Y472359D01*
X36683Y471296D01*
X37383Y470383D01*
X38296Y469683D01*
X39359Y469242D01*
X40500Y469092D01*
X41641Y469242D01*
X41761Y469292D01*
X42044Y468868D01*
X41015Y467840D01*
X40500Y467908D01*
X39359Y467758D01*
X38296Y467317D01*
X37383Y466617D01*
X36683Y465704D01*
X36242Y464641D01*
X36092Y463500D01*
X36242Y462359D01*
X36683Y461296D01*
X37383Y460383D01*
X38296Y459683D01*
X39359Y459242D01*
X40500Y459092D01*
X41641Y459242D01*
X42704Y459683D01*
X43617Y460383D01*
X44317Y461296D01*
X44758Y462359D01*
X44908Y463500D01*
X44840Y464015D01*
X50512Y469688D01*
X50942Y470248D01*
X51212Y470900D01*
X51304Y471600D01*
X51304Y471600D01*
Y479980D01*
X57704Y486380D01*
X58166Y486189D01*
Y484800D01*
X58258Y484339D01*
X58519Y483948D01*
X58910Y483687D01*
X58872Y483185D01*
X58796Y482800D01*
Y476920D01*
X47788Y465912D01*
X47358Y465352D01*
X47088Y464700D01*
X47042Y464350D01*
X46996Y464000D01*
X46996Y464000D01*
Y443820D01*
X45132Y441956D01*
X44708Y442240D01*
X44758Y442359D01*
X44908Y443500D01*
X44758Y444641D01*
X44317Y445704D01*
X43617Y446617D01*
X42704Y447317D01*
X41641Y447758D01*
X40500Y447908D01*
X39359Y447758D01*
X38296Y447317D01*
X37383Y446617D01*
X36683Y445704D01*
X36242Y444641D01*
X36092Y443500D01*
X36242Y442359D01*
X36683Y441296D01*
X37383Y440383D01*
X38296Y439683D01*
X39359Y439242D01*
X40500Y439092D01*
X41641Y439242D01*
X41761Y439292D01*
X42044Y438868D01*
X41015Y437840D01*
X40500Y437908D01*
X39359Y437758D01*
X38296Y437317D01*
X37383Y436617D01*
X36683Y435704D01*
X36242Y434641D01*
X36092Y433500D01*
X36242Y432359D01*
X36683Y431296D01*
X37383Y430383D01*
X38296Y429683D01*
X39128Y429338D01*
X39117Y428802D01*
X36187Y427731D01*
X36165Y427718D01*
X36139Y427713D01*
X35965Y427596D01*
X35785Y427487D01*
X35770Y427466D01*
X35748Y427452D01*
X35632Y427277D01*
X35508Y427108D01*
X35502Y427082D01*
X35487Y427061D01*
X35447Y426855D01*
X35397Y426651D01*
X35401Y426625D01*
X35396Y426600D01*
Y423624D01*
X34896Y423591D01*
X34857Y423883D01*
X34758Y424641D01*
X34317Y425704D01*
X33617Y426617D01*
X32704Y427317D01*
X31641Y427758D01*
X30500Y427908D01*
X29359Y427758D01*
X28296Y427317D01*
X27383Y426617D01*
X26683Y425704D01*
X26242Y424641D01*
X26092Y423500D01*
X26242Y422359D01*
X26445Y421869D01*
X16388Y411812D01*
X16016Y411256D01*
X15886Y410600D01*
Y366900D01*
X16016Y366244D01*
X16388Y365688D01*
X35863Y346213D01*
X36419Y345842D01*
X37075Y345711D01*
X57352D01*
X58008Y345842D01*
X58353Y346072D01*
X60822D01*
Y348632D01*
X60822D01*
Y349596D01*
X60904Y350009D01*
Y351190D01*
X60822Y351604D01*
Y352569D01*
X60822D01*
Y355128D01*
X57960D01*
X57652Y355189D01*
X36935D01*
X22414Y369710D01*
Y402990D01*
X28869Y409445D01*
X29359Y409242D01*
X30500Y409092D01*
X31641Y409242D01*
X32704Y409683D01*
X33617Y410383D01*
X34317Y411296D01*
X34758Y412359D01*
X34908Y413500D01*
X34758Y414641D01*
X34317Y415704D01*
X33617Y416617D01*
X32704Y417317D01*
X31641Y417758D01*
X30500Y417908D01*
X29359Y417758D01*
X28296Y417317D01*
X27383Y416617D01*
X26683Y415704D01*
X26242Y414641D01*
X26092Y413500D01*
X26242Y412359D01*
X26445Y411869D01*
X19814Y405238D01*
X19314Y405445D01*
Y409890D01*
X28869Y419445D01*
X29359Y419242D01*
X30500Y419092D01*
X31641Y419242D01*
X32704Y419683D01*
X33617Y420383D01*
X34317Y421296D01*
X34758Y422359D01*
X34857Y423117D01*
X34896Y423409D01*
X35396Y423376D01*
Y419900D01*
X35487Y419439D01*
X35748Y419049D01*
X36139Y418787D01*
X36600Y418696D01*
X53439Y418696D01*
X53631Y418234D01*
X51048Y415652D01*
X50787Y415261D01*
X50696Y414800D01*
X50696Y414800D01*
X50696Y400000D01*
X50787Y399539D01*
X51048Y399149D01*
X51439Y398887D01*
X51900Y398796D01*
X88800Y398796D01*
X88800Y398796D01*
X99800D01*
X100261Y398887D01*
X100652Y399149D01*
X100913Y399539D01*
X101004Y400000D01*
Y407500D01*
X101083Y407596D01*
X105000D01*
X105461Y407687D01*
X105851Y407948D01*
X106113Y408339D01*
X106204Y408800D01*
X106204Y424800D01*
X106204Y424800D01*
X106113Y425261D01*
X105851Y425652D01*
X105851Y425652D01*
X102851Y428652D01*
X102851Y428652D01*
X102461Y428913D01*
X102000Y429004D01*
X102000Y429004D01*
X89300Y429004D01*
X89039Y428952D01*
X89014Y428989D01*
X87001Y431002D01*
X87080Y431600D01*
X86985Y432319D01*
X86707Y432990D01*
X86704Y432994D01*
Y435800D01*
X86733Y435843D01*
X87422Y435980D01*
X88203Y436503D01*
X88466Y436896D01*
X88987Y436839D01*
X89249Y436448D01*
X89639Y436187D01*
X90100Y436096D01*
X90406D01*
X90578Y435980D01*
X91500Y435797D01*
X92422Y435980D01*
X92594Y436096D01*
X104500D01*
X104961Y436187D01*
X105351Y436448D01*
X105613Y436839D01*
X105704Y437300D01*
Y438847D01*
X105862D01*
Y444753D01*
X104550D01*
X95469Y453834D01*
X95661Y454296D01*
X101000Y454296D01*
X101461Y454387D01*
X101851Y454648D01*
X102113Y455039D01*
X102204Y455500D01*
Y457627D01*
X102280Y458200D01*
X102204Y458773D01*
Y460096D01*
X105000D01*
X105461Y460187D01*
X105851Y460449D01*
X106113Y460839D01*
X106204Y461300D01*
Y475800D01*
X106204Y475800D01*
X106113Y476261D01*
X105862Y476636D01*
Y476753D01*
X105750D01*
X102351Y480152D01*
X101961Y480413D01*
X101500Y480504D01*
X101500Y480504D01*
X93000D01*
X92539Y480413D01*
X92270Y480233D01*
X89808Y482695D01*
X89885Y482881D01*
X89980Y483600D01*
X89885Y484319D01*
X89704Y484756D01*
Y487300D01*
X89733Y487343D01*
X90422Y487480D01*
X91203Y488002D01*
X91389Y488281D01*
X91562Y488301D01*
X91958Y488233D01*
X92149Y487949D01*
X92539Y487687D01*
X93000Y487596D01*
X93406D01*
X93578Y487480D01*
X94500Y487297D01*
X95422Y487480D01*
X95594Y487596D01*
X104500D01*
X104961Y487687D01*
X105351Y487949D01*
X105613Y488339D01*
X105704Y488800D01*
Y490347D01*
X105862D01*
Y496253D01*
X105704D01*
Y502300D01*
X105704Y502300D01*
X105613Y502761D01*
X105351Y503152D01*
X100251Y508251D01*
X100251Y508251D01*
X99861Y508513D01*
X99400Y508604D01*
X99400Y508604D01*
X90754Y508604D01*
X90754Y508604D01*
X90293Y508513D01*
X89902Y508251D01*
X89832Y508181D01*
X89219D01*
Y507163D01*
X89196Y507046D01*
X89196Y507046D01*
X89196Y502952D01*
X89104Y502903D01*
X88604Y503203D01*
Y507600D01*
X88581Y507716D01*
Y508181D01*
X88432D01*
X88252Y508452D01*
X87861Y508713D01*
X87400Y508804D01*
X80200D01*
X79739Y508713D01*
X79348Y508452D01*
X79348Y508452D01*
X79346Y508449D01*
X78728Y508538D01*
X78651Y508651D01*
X78261Y508913D01*
X77800Y509004D01*
X74000D01*
X73704Y509247D01*
Y512000D01*
X73613Y512461D01*
X73352Y512851D01*
X72961Y513113D01*
X72500Y513204D01*
X69856D01*
X69419Y513385D01*
X68700Y513480D01*
D02*
G37*
G36*
X225500Y515967D02*
X224043Y515824D01*
X222642Y515399D01*
X221352Y514709D01*
X220220Y513780D01*
X219291Y512648D01*
X218601Y511357D01*
X218176Y509957D01*
X218033Y508500D01*
X218176Y507043D01*
X218601Y505643D01*
X219291Y504352D01*
X220220Y503220D01*
X221352Y502291D01*
X222642Y501601D01*
X224043Y501176D01*
X225500Y501033D01*
X226957Y501176D01*
X228358Y501601D01*
X229648Y502291D01*
X230780Y503220D01*
X231709Y504352D01*
X232399Y505643D01*
X232824Y507043D01*
X232967Y508500D01*
X232824Y509957D01*
X232399Y511357D01*
X231709Y512648D01*
X230780Y513780D01*
X229648Y514709D01*
X228358Y515399D01*
X226957Y515824D01*
X225500Y515967D01*
D02*
G37*
G36*
X15500D02*
X14043Y515824D01*
X12642Y515399D01*
X11351Y514709D01*
X10220Y513780D01*
X9291Y512648D01*
X8601Y511357D01*
X8176Y509957D01*
X8033Y508500D01*
X8176Y507043D01*
X8601Y505643D01*
X9291Y504352D01*
X10220Y503220D01*
X11351Y502291D01*
X12642Y501601D01*
X14043Y501176D01*
X15500Y501033D01*
X16957Y501176D01*
X18358Y501601D01*
X19648Y502291D01*
X20780Y503220D01*
X21709Y504352D01*
X22399Y505643D01*
X22824Y507043D01*
X22967Y508500D01*
X22824Y509957D01*
X22399Y511357D01*
X21709Y512648D01*
X20780Y513780D01*
X19648Y514709D01*
X18358Y515399D01*
X16957Y515824D01*
X15500Y515967D01*
D02*
G37*
G36*
X214870Y477870D02*
X206130D01*
Y469130D01*
X214870D01*
Y477870D01*
D02*
G37*
G36*
X204870D02*
X196130D01*
Y469130D01*
X204870D01*
Y477870D01*
D02*
G37*
G36*
X30500Y477908D02*
X29359Y477758D01*
X28296Y477317D01*
X27383Y476617D01*
X26683Y475704D01*
X26242Y474641D01*
X26092Y473500D01*
X26242Y472359D01*
X26683Y471296D01*
X27383Y470383D01*
X28296Y469683D01*
X29359Y469242D01*
X30500Y469092D01*
X31641Y469242D01*
X32704Y469683D01*
X33617Y470383D01*
X34317Y471296D01*
X34758Y472359D01*
X34908Y473500D01*
X34758Y474641D01*
X34317Y475704D01*
X33617Y476617D01*
X32704Y477317D01*
X31641Y477758D01*
X30500Y477908D01*
D02*
G37*
G36*
Y467908D02*
X29359Y467758D01*
X28296Y467317D01*
X27383Y466617D01*
X26683Y465704D01*
X26242Y464641D01*
X26092Y463500D01*
X26242Y462359D01*
X26683Y461296D01*
X27383Y460383D01*
X28296Y459683D01*
X29359Y459242D01*
X30500Y459092D01*
X31641Y459242D01*
X32704Y459683D01*
X33617Y460383D01*
X34317Y461296D01*
X34758Y462359D01*
X34908Y463500D01*
X34758Y464641D01*
X34317Y465704D01*
X33617Y466617D01*
X32704Y467317D01*
X31641Y467758D01*
X30500Y467908D01*
D02*
G37*
G36*
X210500Y467908D02*
X209359Y467758D01*
X208296Y467317D01*
X207383Y466617D01*
X206683Y465704D01*
X206242Y464641D01*
X206092Y463500D01*
X206242Y462359D01*
X206683Y461296D01*
X207383Y460383D01*
X208296Y459683D01*
X209359Y459242D01*
X210500Y459092D01*
X211641Y459242D01*
X212704Y459683D01*
X213617Y460383D01*
X214317Y461296D01*
X214758Y462359D01*
X214908Y463500D01*
X214758Y464641D01*
X214317Y465704D01*
X213617Y466617D01*
X212704Y467317D01*
X211641Y467758D01*
X210500Y467908D01*
D02*
G37*
G36*
X200500D02*
X199359Y467758D01*
X198296Y467317D01*
X197383Y466617D01*
X196683Y465704D01*
X196242Y464641D01*
X196092Y463500D01*
X196242Y462359D01*
X196683Y461296D01*
X197383Y460383D01*
X198296Y459683D01*
X199359Y459242D01*
X200500Y459092D01*
X201641Y459242D01*
X202704Y459683D01*
X203617Y460383D01*
X204317Y461296D01*
X204758Y462359D01*
X204908Y463500D01*
X204758Y464641D01*
X204317Y465704D01*
X203617Y466617D01*
X202704Y467317D01*
X201641Y467758D01*
X200500Y467908D01*
D02*
G37*
G36*
X40500Y457908D02*
X39359Y457758D01*
X38296Y457317D01*
X37383Y456617D01*
X36683Y455704D01*
X36242Y454641D01*
X36092Y453500D01*
X36242Y452359D01*
X36683Y451296D01*
X37383Y450383D01*
X38296Y449683D01*
X39359Y449242D01*
X40500Y449092D01*
X41641Y449242D01*
X42704Y449683D01*
X43617Y450383D01*
X44317Y451296D01*
X44758Y452359D01*
X44908Y453500D01*
X44758Y454641D01*
X44317Y455704D01*
X43617Y456617D01*
X42704Y457317D01*
X41641Y457758D01*
X40500Y457908D01*
D02*
G37*
G36*
X30500D02*
X29359Y457758D01*
X28296Y457317D01*
X27383Y456617D01*
X26683Y455704D01*
X26242Y454641D01*
X26092Y453500D01*
X26242Y452359D01*
X26683Y451296D01*
X27383Y450383D01*
X28296Y449683D01*
X29359Y449242D01*
X30500Y449092D01*
X31641Y449242D01*
X32704Y449683D01*
X33617Y450383D01*
X34317Y451296D01*
X34758Y452359D01*
X34908Y453500D01*
X34758Y454641D01*
X34317Y455704D01*
X33617Y456617D01*
X32704Y457317D01*
X31641Y457758D01*
X30500Y457908D01*
D02*
G37*
G36*
X210500Y457908D02*
X209359Y457758D01*
X208296Y457317D01*
X207383Y456617D01*
X206683Y455704D01*
X206242Y454641D01*
X206092Y453500D01*
X206242Y452359D01*
X206683Y451296D01*
X207383Y450383D01*
X208296Y449683D01*
X209359Y449242D01*
X210500Y449092D01*
X211641Y449242D01*
X212704Y449683D01*
X213617Y450383D01*
X214317Y451296D01*
X214758Y452359D01*
X214908Y453500D01*
X214758Y454641D01*
X214317Y455704D01*
X213617Y456617D01*
X212704Y457317D01*
X211641Y457758D01*
X210500Y457908D01*
D02*
G37*
G36*
X200500D02*
X199359Y457758D01*
X198296Y457317D01*
X197383Y456617D01*
X196683Y455704D01*
X196242Y454641D01*
X196092Y453500D01*
X196242Y452359D01*
X196683Y451296D01*
X197383Y450383D01*
X198296Y449683D01*
X199359Y449242D01*
X200500Y449092D01*
X201641Y449242D01*
X202704Y449683D01*
X203617Y450383D01*
X204317Y451296D01*
X204758Y452359D01*
X204908Y453500D01*
X204758Y454641D01*
X204317Y455704D01*
X203617Y456617D01*
X202704Y457317D01*
X201641Y457758D01*
X200500Y457908D01*
D02*
G37*
G36*
X179800Y457089D02*
X178618Y456933D01*
X177517Y456477D01*
X176571Y455751D01*
X175845Y454805D01*
X175389Y453704D01*
X175233Y452522D01*
X175389Y451340D01*
X175845Y450239D01*
X176571Y449293D01*
X177517Y448567D01*
X178618Y448111D01*
X179800Y447955D01*
X180982Y448111D01*
X182083Y448567D01*
X183029Y449293D01*
X183755Y450239D01*
X184211Y451340D01*
X184367Y452522D01*
X184211Y453704D01*
X183755Y454805D01*
X183029Y455751D01*
X182083Y456477D01*
X180982Y456933D01*
X179800Y457089D01*
D02*
G37*
G36*
X148304D02*
X147122Y456933D01*
X146021Y456477D01*
X145075Y455751D01*
X144349Y454805D01*
X143893Y453704D01*
X143737Y452522D01*
X143893Y451340D01*
X144349Y450239D01*
X145075Y449293D01*
X146021Y448567D01*
X147122Y448111D01*
X148304Y447955D01*
X149486Y448111D01*
X150587Y448567D01*
X151533Y449293D01*
X152259Y450239D01*
X152715Y451340D01*
X152871Y452522D01*
X152715Y453704D01*
X152259Y454805D01*
X151533Y455751D01*
X150587Y456477D01*
X149486Y456933D01*
X148304Y457089D01*
D02*
G37*
G36*
X30500Y447908D02*
X29359Y447758D01*
X28296Y447317D01*
X27383Y446617D01*
X26683Y445704D01*
X26242Y444641D01*
X26092Y443500D01*
X26242Y442359D01*
X26683Y441296D01*
X27383Y440383D01*
X28296Y439683D01*
X29359Y439242D01*
X30500Y439092D01*
X31641Y439242D01*
X32704Y439683D01*
X33617Y440383D01*
X34317Y441296D01*
X34758Y442359D01*
X34908Y443500D01*
X34758Y444641D01*
X34317Y445704D01*
X33617Y446617D01*
X32704Y447317D01*
X31641Y447758D01*
X30500Y447908D01*
D02*
G37*
G36*
X210500Y447908D02*
X209359Y447758D01*
X208296Y447317D01*
X207383Y446617D01*
X206683Y445704D01*
X206242Y444641D01*
X206092Y443500D01*
X206242Y442359D01*
X206683Y441296D01*
X207383Y440383D01*
X208296Y439683D01*
X209359Y439242D01*
X210500Y439092D01*
X211641Y439242D01*
X212704Y439683D01*
X213617Y440383D01*
X214317Y441296D01*
X214758Y442359D01*
X214908Y443500D01*
X214758Y444641D01*
X214317Y445704D01*
X213617Y446617D01*
X212704Y447317D01*
X211641Y447758D01*
X210500Y447908D01*
D02*
G37*
G36*
X200500D02*
X199359Y447758D01*
X198296Y447317D01*
X197383Y446617D01*
X196683Y445704D01*
X196242Y444641D01*
X196092Y443500D01*
X196242Y442359D01*
X196683Y441296D01*
X197383Y440383D01*
X198296Y439683D01*
X199359Y439242D01*
X200500Y439092D01*
X201641Y439242D01*
X202704Y439683D01*
X203617Y440383D01*
X204317Y441296D01*
X204758Y442359D01*
X204908Y443500D01*
X204758Y444641D01*
X204317Y445704D01*
X203617Y446617D01*
X202704Y447317D01*
X201641Y447758D01*
X200500Y447908D01*
D02*
G37*
G36*
X30500Y437908D02*
X29359Y437758D01*
X28296Y437317D01*
X27383Y436617D01*
X26683Y435704D01*
X26242Y434641D01*
X26092Y433500D01*
X26242Y432359D01*
X26683Y431296D01*
X27383Y430383D01*
X28296Y429683D01*
X29359Y429242D01*
X30500Y429092D01*
X31641Y429242D01*
X32704Y429683D01*
X33617Y430383D01*
X34317Y431296D01*
X34758Y432359D01*
X34908Y433500D01*
X34758Y434641D01*
X34317Y435704D01*
X33617Y436617D01*
X32704Y437317D01*
X31641Y437758D01*
X30500Y437908D01*
D02*
G37*
G36*
X210500Y437908D02*
X209359Y437758D01*
X208296Y437317D01*
X207383Y436617D01*
X206683Y435704D01*
X206242Y434641D01*
X206092Y433500D01*
X206242Y432359D01*
X206683Y431296D01*
X207383Y430383D01*
X208296Y429683D01*
X209359Y429242D01*
X210500Y429092D01*
X211641Y429242D01*
X212704Y429683D01*
X213617Y430383D01*
X214317Y431296D01*
X214758Y432359D01*
X214908Y433500D01*
X214758Y434641D01*
X214317Y435704D01*
X213617Y436617D01*
X212704Y437317D01*
X211641Y437758D01*
X210500Y437908D01*
D02*
G37*
G36*
X200500D02*
X199359Y437758D01*
X198296Y437317D01*
X197383Y436617D01*
X196683Y435704D01*
X196242Y434641D01*
X196092Y433500D01*
X196242Y432359D01*
X196683Y431296D01*
X197383Y430383D01*
X198296Y429683D01*
X199359Y429242D01*
X200500Y429092D01*
X201641Y429242D01*
X202704Y429683D01*
X203617Y430383D01*
X204317Y431296D01*
X204758Y432359D01*
X204908Y433500D01*
X204758Y434641D01*
X204317Y435704D01*
X203617Y436617D01*
X202704Y437317D01*
X201641Y437758D01*
X200500Y437908D01*
D02*
G37*
G36*
X179800Y433467D02*
X178618Y433311D01*
X177517Y432855D01*
X176571Y432129D01*
X175845Y431183D01*
X175389Y430082D01*
X175233Y428900D01*
X175389Y427718D01*
X175845Y426617D01*
X176571Y425671D01*
X177517Y424945D01*
X178618Y424489D01*
X179800Y424333D01*
X180982Y424489D01*
X182083Y424945D01*
X183029Y425671D01*
X183755Y426617D01*
X184211Y427718D01*
X184367Y428900D01*
X184211Y430082D01*
X183755Y431183D01*
X183029Y432129D01*
X182083Y432855D01*
X180982Y433311D01*
X179800Y433467D01*
D02*
G37*
G36*
X210500Y427908D02*
X209359Y427758D01*
X208296Y427317D01*
X207383Y426617D01*
X206683Y425704D01*
X206242Y424641D01*
X206092Y423500D01*
X206242Y422359D01*
X206683Y421296D01*
X207383Y420383D01*
X208296Y419683D01*
X209359Y419242D01*
X210500Y419092D01*
X211641Y419242D01*
X212704Y419683D01*
X213617Y420383D01*
X214317Y421296D01*
X214758Y422359D01*
X214908Y423500D01*
X214758Y424641D01*
X214317Y425704D01*
X213617Y426617D01*
X212704Y427317D01*
X211641Y427758D01*
X210500Y427908D01*
D02*
G37*
G36*
X200500D02*
X199359Y427758D01*
X198296Y427317D01*
X197383Y426617D01*
X196683Y425704D01*
X196242Y424641D01*
X196092Y423500D01*
X196242Y422359D01*
X196683Y421296D01*
X197383Y420383D01*
X198296Y419683D01*
X199359Y419242D01*
X200500Y419092D01*
X201641Y419242D01*
X202704Y419683D01*
X203617Y420383D01*
X204317Y421296D01*
X204758Y422359D01*
X204908Y423500D01*
X204758Y424641D01*
X204317Y425704D01*
X203617Y426617D01*
X202704Y427317D01*
X201641Y427758D01*
X200500Y427908D01*
D02*
G37*
G36*
X40500Y417908D02*
X39359Y417758D01*
X38296Y417317D01*
X37383Y416617D01*
X36683Y415704D01*
X36242Y414641D01*
X36092Y413500D01*
X36242Y412359D01*
X36683Y411296D01*
X37383Y410383D01*
X38296Y409683D01*
X39359Y409242D01*
X40500Y409092D01*
X41641Y409242D01*
X42704Y409683D01*
X43617Y410383D01*
X44317Y411296D01*
X44758Y412359D01*
X44908Y413500D01*
X44758Y414641D01*
X44317Y415704D01*
X43617Y416617D01*
X42704Y417317D01*
X41641Y417758D01*
X40500Y417908D01*
D02*
G37*
G36*
X210500Y417908D02*
X209359Y417758D01*
X208296Y417317D01*
X207383Y416617D01*
X206683Y415704D01*
X206242Y414641D01*
X206092Y413500D01*
X206242Y412359D01*
X206683Y411296D01*
X207383Y410383D01*
X208296Y409683D01*
X209359Y409242D01*
X210500Y409092D01*
X211641Y409242D01*
X212704Y409683D01*
X213617Y410383D01*
X214317Y411296D01*
X214758Y412359D01*
X214908Y413500D01*
X214758Y414641D01*
X214317Y415704D01*
X213617Y416617D01*
X212704Y417317D01*
X211641Y417758D01*
X210500Y417908D01*
D02*
G37*
G36*
X200500D02*
X199359Y417758D01*
X198296Y417317D01*
X197383Y416617D01*
X196683Y415704D01*
X196242Y414641D01*
X196092Y413500D01*
X196242Y412359D01*
X196683Y411296D01*
X197383Y410383D01*
X198296Y409683D01*
X199359Y409242D01*
X200500Y409092D01*
X201641Y409242D01*
X202704Y409683D01*
X203617Y410383D01*
X204317Y411296D01*
X204758Y412359D01*
X204908Y413500D01*
X204758Y414641D01*
X204317Y415704D01*
X203617Y416617D01*
X202704Y417317D01*
X201641Y417758D01*
X200500Y417908D01*
D02*
G37*
G36*
X40500Y407908D02*
X39359Y407758D01*
X38296Y407317D01*
X37383Y406617D01*
X36683Y405704D01*
X36242Y404641D01*
X36092Y403500D01*
X36242Y402359D01*
X36683Y401296D01*
X37383Y400383D01*
X38296Y399683D01*
X39359Y399242D01*
X40500Y399092D01*
X41641Y399242D01*
X42704Y399683D01*
X43617Y400383D01*
X44317Y401296D01*
X44758Y402359D01*
X44908Y403500D01*
X44758Y404641D01*
X44317Y405704D01*
X43617Y406617D01*
X42704Y407317D01*
X41641Y407758D01*
X40500Y407908D01*
D02*
G37*
G36*
X30500D02*
X29359Y407758D01*
X28296Y407317D01*
X27383Y406617D01*
X26683Y405704D01*
X26242Y404641D01*
X26092Y403500D01*
X26242Y402359D01*
X26683Y401296D01*
X27383Y400383D01*
X28296Y399683D01*
X29359Y399242D01*
X30500Y399092D01*
X31641Y399242D01*
X32704Y399683D01*
X33617Y400383D01*
X34317Y401296D01*
X34758Y402359D01*
X34908Y403500D01*
X34758Y404641D01*
X34317Y405704D01*
X33617Y406617D01*
X32704Y407317D01*
X31641Y407758D01*
X30500Y407908D01*
D02*
G37*
G36*
X210500Y407908D02*
X209359Y407758D01*
X208296Y407317D01*
X207383Y406617D01*
X206683Y405704D01*
X206242Y404641D01*
X206092Y403500D01*
X206242Y402359D01*
X206683Y401296D01*
X207383Y400383D01*
X208296Y399683D01*
X209359Y399242D01*
X210500Y399092D01*
X211641Y399242D01*
X212704Y399683D01*
X213617Y400383D01*
X214317Y401296D01*
X214758Y402359D01*
X214908Y403500D01*
X214758Y404641D01*
X214317Y405704D01*
X213617Y406617D01*
X212704Y407317D01*
X211641Y407758D01*
X210500Y407908D01*
D02*
G37*
G36*
X200500D02*
X199359Y407758D01*
X198296Y407317D01*
X197383Y406617D01*
X196683Y405704D01*
X196242Y404641D01*
X196092Y403500D01*
X196242Y402359D01*
X196683Y401296D01*
X197383Y400383D01*
X198296Y399683D01*
X199359Y399242D01*
X200500Y399092D01*
X201641Y399242D01*
X202704Y399683D01*
X203617Y400383D01*
X204317Y401296D01*
X204758Y402359D01*
X204908Y403500D01*
X204758Y404641D01*
X204317Y405704D01*
X203617Y406617D01*
X202704Y407317D01*
X201641Y407758D01*
X200500Y407908D01*
D02*
G37*
G36*
X40500Y397908D02*
X39359Y397758D01*
X38296Y397317D01*
X37383Y396617D01*
X36683Y395704D01*
X36242Y394641D01*
X36092Y393500D01*
X36242Y392359D01*
X36683Y391296D01*
X37383Y390383D01*
X37651Y390178D01*
X37490Y389704D01*
X33510D01*
X33349Y390178D01*
X33617Y390383D01*
X34317Y391296D01*
X34758Y392359D01*
X34908Y393500D01*
X34758Y394641D01*
X34317Y395704D01*
X33617Y396617D01*
X32704Y397317D01*
X31641Y397758D01*
X30500Y397908D01*
X29359Y397758D01*
X28296Y397317D01*
X27383Y396617D01*
X26683Y395704D01*
X26242Y394641D01*
X26092Y393500D01*
X26242Y392359D01*
X26683Y391296D01*
X27383Y390383D01*
X27651Y390178D01*
X27490Y389704D01*
X25000D01*
X25000Y389704D01*
X24539Y389613D01*
X24148Y389352D01*
X24148Y389352D01*
X23649Y388851D01*
X23387Y388461D01*
X23296Y388000D01*
X23296Y388000D01*
Y377500D01*
X23387Y377039D01*
X23649Y376648D01*
X24039Y376387D01*
X24500Y376296D01*
X40062D01*
X40139Y376311D01*
X40219Y376306D01*
X40667Y376365D01*
X41115Y376306D01*
X41194Y376311D01*
X41272Y376296D01*
X44395D01*
X44473Y376311D01*
X44552Y376306D01*
X45000Y376365D01*
D01*
X45448Y376306D01*
X45527Y376311D01*
D01*
X45605Y376296D01*
X48728D01*
X48806Y376311D01*
X48885Y376306D01*
X49333Y376365D01*
X49781Y376306D01*
X49861Y376311D01*
D01*
X49938Y376296D01*
X105501D01*
X135631Y346166D01*
X135439Y345704D01*
X127500D01*
X127500Y345704D01*
X127039Y345613D01*
X126648Y345352D01*
X117415Y336118D01*
X116929D01*
Y335523D01*
X116887Y335461D01*
X116796Y335000D01*
X116796Y335000D01*
Y317000D01*
X116796Y317000D01*
X116887Y316539D01*
X117148Y316148D01*
X117148Y316148D01*
X120296Y313001D01*
Y293027D01*
X119796Y292722D01*
X119704Y292769D01*
Y311000D01*
X119613Y311461D01*
X119351Y311852D01*
X118961Y312113D01*
X118500Y312204D01*
X113500D01*
X113500Y312204D01*
X113039Y312113D01*
X112648Y311852D01*
X104648Y303852D01*
X104387Y303461D01*
X104296Y303000D01*
X104296Y303000D01*
Y296000D01*
X104387Y295539D01*
X104648Y295148D01*
X107116Y292681D01*
X106882Y292207D01*
X106333Y292280D01*
X105614Y292185D01*
X105256Y292037D01*
X103077D01*
X102719Y292185D01*
X102000Y292280D01*
X101281Y292185D01*
X100610Y291907D01*
X100034Y291465D01*
X99593Y290890D01*
X99315Y290219D01*
X99220Y289500D01*
X99315Y288781D01*
X99593Y288110D01*
X99984Y287600D01*
X99593Y287090D01*
X99315Y286419D01*
X99221Y285704D01*
X51000D01*
X50539Y285613D01*
X50148Y285351D01*
X50148Y285351D01*
X11648Y246851D01*
X11387Y246461D01*
X11296Y246000D01*
X11296Y246000D01*
Y133500D01*
X11387Y133039D01*
X11648Y132649D01*
X11648Y132649D01*
X17148Y127148D01*
X17149Y127148D01*
X17539Y126887D01*
X18000Y126796D01*
X18000Y126796D01*
X33500Y126796D01*
X33961Y126887D01*
X34352Y127148D01*
X34613Y127539D01*
X34704Y128000D01*
Y129130D01*
X34870D01*
Y137870D01*
X34324D01*
X33961Y138113D01*
X33500Y138204D01*
X22204D01*
Y241501D01*
X29601Y248899D01*
Y248899D01*
X29888Y249185D01*
X29975Y249316D01*
X30079Y249434D01*
X30105Y249509D01*
X30149Y249575D01*
X30180Y249730D01*
X30230Y249879D01*
X30225Y249958D01*
X30240Y250036D01*
X30210Y250191D01*
X30199Y250348D01*
X30164Y250419D01*
X30149Y250497D01*
X30140Y250511D01*
X29924Y251031D01*
X29871Y251436D01*
X29924Y251841D01*
X30081Y252218D01*
X30329Y252542D01*
X30653Y252791D01*
X31031Y252948D01*
X31414Y252998D01*
X31450Y253010D01*
X31488Y253010D01*
X31671Y253085D01*
X31859Y253149D01*
X31888Y253174D01*
X31923Y253189D01*
X32216Y253383D01*
X32218Y253386D01*
X32221Y253387D01*
X32385Y253551D01*
X32549Y253715D01*
X32550Y253718D01*
X32552Y253720D01*
X32747Y254013D01*
X32762Y254048D01*
X32787Y254077D01*
X32850Y254265D01*
X32926Y254448D01*
X32926Y254486D01*
X32938Y254522D01*
X32988Y254905D01*
X33145Y255282D01*
X33393Y255607D01*
X33718Y255855D01*
X34095Y256012D01*
X34478Y256062D01*
X34514Y256074D01*
X34552Y256074D01*
X34735Y256150D01*
X34923Y256213D01*
X34952Y256238D01*
X34987Y256253D01*
X35280Y256448D01*
X35282Y256450D01*
X35285Y256451D01*
X35449Y256615D01*
X35613Y256779D01*
X35614Y256782D01*
X35617Y256784D01*
X35811Y257077D01*
X35826Y257113D01*
X35851Y257141D01*
X35915Y257329D01*
X35990Y257512D01*
X35990Y257550D01*
X36002Y257586D01*
X36052Y257969D01*
X36209Y258347D01*
X36457Y258671D01*
X36782Y258920D01*
X37159Y259076D01*
X37364Y259103D01*
X37484Y259144D01*
X37610Y259162D01*
X38000Y259301D01*
X38053Y259333D01*
X38114Y259348D01*
X38254Y259452D01*
X38403Y259541D01*
X38441Y259591D01*
X38491Y259629D01*
X38580Y259778D01*
X38684Y259918D01*
X38699Y259979D01*
X38731Y260032D01*
X38870Y260422D01*
X38888Y260548D01*
X38929Y260668D01*
X38956Y260873D01*
X39113Y261250D01*
X39361Y261575D01*
X39685Y261823D01*
X40063Y261980D01*
X40446Y262030D01*
X40482Y262042D01*
X40520Y262042D01*
X40703Y262118D01*
X40891Y262181D01*
X40920Y262206D01*
X40955Y262221D01*
X41248Y262416D01*
X41250Y262418D01*
X41253Y262419D01*
X41417Y262583D01*
X41581Y262747D01*
X41582Y262750D01*
X41585Y262752D01*
X41779Y263045D01*
X41794Y263081D01*
X41819Y263109D01*
X41883Y263297D01*
X41958Y263480D01*
X41958Y263518D01*
X41970Y263554D01*
X42020Y263937D01*
X42177Y264315D01*
X42425Y264639D01*
X42750Y264887D01*
X43127Y265044D01*
X43532Y265097D01*
X43937Y265044D01*
X44457Y264828D01*
X44471Y264819D01*
X44549Y264804D01*
X44620Y264769D01*
X44777Y264758D01*
X44932Y264727D01*
X45009Y264743D01*
X45089Y264738D01*
X45238Y264788D01*
X45393Y264819D01*
X45458Y264863D01*
X45534Y264889D01*
X45652Y264993D01*
X45783Y265080D01*
X47015Y266312D01*
X54999Y274296D01*
X70296D01*
Y265391D01*
X70334Y265198D01*
X70360Y265003D01*
X70380Y264969D01*
X70387Y264930D01*
X70497Y264767D01*
X70595Y264597D01*
X70626Y264573D01*
X70648Y264540D01*
X70765Y264462D01*
X70827Y264384D01*
X70974Y263913D01*
X70452Y262652D01*
X70274Y261300D01*
X70452Y259947D01*
X70974Y258687D01*
X71805Y257605D01*
X72887Y256774D01*
X74147Y256252D01*
X75500Y256074D01*
X76853Y256252D01*
X78113Y256774D01*
X79195Y257605D01*
X80026Y258687D01*
X80055Y258705D01*
X80473Y258887D01*
X80665Y258849D01*
X80855Y258798D01*
X80895Y258804D01*
X80934Y258796D01*
X126366Y258796D01*
X126405Y258804D01*
X126445Y258798D01*
X126635Y258849D01*
X126827Y258887D01*
X127245Y258705D01*
X127274Y258687D01*
X128105Y257605D01*
X129187Y256774D01*
X130447Y256252D01*
X131800Y256074D01*
X133152Y256252D01*
X134413Y256774D01*
X135495Y257605D01*
X136326Y258687D01*
X136355Y258705D01*
X136773Y258887D01*
X136965Y258849D01*
X137155Y258798D01*
X137195Y258804D01*
X137234Y258796D01*
X181501Y258796D01*
X211965Y228332D01*
X211774Y227870D01*
X206130D01*
Y219130D01*
X214870D01*
Y224774D01*
X215332Y224965D01*
X227149Y213148D01*
X227539Y212887D01*
X228000Y212796D01*
X228000Y212796D01*
X250000D01*
X250461Y212887D01*
X250851Y213148D01*
X251113Y213539D01*
X251204Y214000D01*
Y237500D01*
X251113Y237961D01*
X250851Y238351D01*
X250851Y238351D01*
X244204Y244999D01*
Y245796D01*
Y265180D01*
X244653Y265401D01*
X245117Y265045D01*
X246218Y264589D01*
X247400Y264433D01*
X248582Y264589D01*
X249683Y265045D01*
X250629Y265771D01*
X251355Y266717D01*
X251811Y267818D01*
X251967Y269000D01*
X251811Y270182D01*
X251355Y271283D01*
X250629Y272229D01*
X249683Y272955D01*
X248582Y273411D01*
X247400Y273567D01*
X246218Y273411D01*
X245117Y272955D01*
X244653Y272599D01*
X244204Y272820D01*
Y275343D01*
Y277792D01*
X244204Y277792D01*
X244204Y277792D01*
X244179Y277918D01*
X244183Y277975D01*
X244048Y279000D01*
X244183Y280025D01*
X244179Y280082D01*
X244204Y280208D01*
X244204Y280208D01*
X244204Y280208D01*
Y283296D01*
X254740D01*
X254909Y282796D01*
X254171Y282229D01*
X253445Y281283D01*
X252989Y280182D01*
X252833Y279000D01*
X252989Y277818D01*
X253445Y276717D01*
X254171Y275771D01*
X255117Y275045D01*
X256218Y274589D01*
X257400Y274433D01*
X258582Y274589D01*
X259683Y275045D01*
X260629Y275771D01*
X261355Y276717D01*
X261811Y277818D01*
X261967Y279000D01*
X261811Y280182D01*
X261355Y281283D01*
X260629Y282229D01*
X259683Y282955D01*
X258582Y283411D01*
X257400Y283567D01*
X256445Y283441D01*
X256288Y283633D01*
X256159Y283908D01*
X256173Y283941D01*
X256239Y284039D01*
X256262Y284156D01*
X256307Y284265D01*
X256368Y284569D01*
X257400Y284433D01*
X258582Y284589D01*
X259683Y285045D01*
X260629Y285771D01*
X261355Y286717D01*
X261811Y287818D01*
X261967Y289000D01*
X261811Y290182D01*
X261355Y291283D01*
X260629Y292229D01*
X259683Y292955D01*
X258582Y293411D01*
X257704Y293527D01*
Y294473D01*
X258582Y294589D01*
X259683Y295045D01*
X260629Y295771D01*
X261355Y296717D01*
X261811Y297818D01*
X261967Y299000D01*
X261811Y300182D01*
X261355Y301283D01*
X260629Y302229D01*
X259683Y302955D01*
X258582Y303411D01*
X257704Y303527D01*
Y304473D01*
X258582Y304589D01*
X259683Y305045D01*
X260629Y305771D01*
X261355Y306717D01*
X261811Y307818D01*
X261967Y309000D01*
X261811Y310182D01*
X261355Y311283D01*
X260629Y312229D01*
X259683Y312955D01*
X258582Y313411D01*
X257400Y313567D01*
X256218Y313411D01*
X255117Y312955D01*
X254171Y312229D01*
X253445Y311283D01*
X252989Y310182D01*
X252833Y309000D01*
X252989Y307818D01*
X253243Y307204D01*
X252909Y306704D01*
X251891D01*
X251557Y307204D01*
X251811Y307818D01*
X251967Y309000D01*
X251811Y310182D01*
X251355Y311283D01*
X250629Y312229D01*
X249683Y312955D01*
X248582Y313411D01*
X247400Y313567D01*
X246218Y313411D01*
X245117Y312955D01*
X244171Y312229D01*
X243445Y311283D01*
X242989Y310182D01*
X242833Y309000D01*
X242989Y307818D01*
X243243Y307204D01*
X242909Y306704D01*
X231499D01*
X223352Y314851D01*
X222961Y315113D01*
X222500Y315204D01*
X222500Y315204D01*
X183704D01*
Y359800D01*
X183613Y360261D01*
X183352Y360651D01*
X169509Y374494D01*
X169542Y374993D01*
X169748Y375152D01*
X170411Y376015D01*
X170827Y377021D01*
X170969Y378100D01*
X170827Y379179D01*
X170411Y380185D01*
X169748Y381048D01*
X168885Y381711D01*
X167879Y382127D01*
X166800Y382270D01*
X165721Y382127D01*
X164715Y381711D01*
X163852Y381048D01*
X163693Y380842D01*
X163194Y380809D01*
X154651Y389352D01*
X154261Y389613D01*
X153800Y389704D01*
X153800Y389704D01*
X136433D01*
X136404Y389698D01*
X136374Y389703D01*
X136175Y389653D01*
X135973Y389613D01*
X135737Y390037D01*
X135645Y390338D01*
X135081Y391395D01*
X134321Y392321D01*
X133395Y393081D01*
X132338Y393645D01*
X131192Y393993D01*
X130000Y394110D01*
X128808Y393993D01*
X127662Y393645D01*
X126605Y393081D01*
X125679Y392321D01*
X124919Y391395D01*
X124355Y390338D01*
X124263Y390037D01*
X124027Y389613D01*
X123825Y389653D01*
X123626Y389703D01*
X123596Y389698D01*
X123566Y389704D01*
X86739Y389704D01*
X86167Y389780D01*
X85594Y389704D01*
X82406D01*
X81833Y389780D01*
X81260Y389704D01*
X78073D01*
X77500Y389780D01*
X76927Y389704D01*
X73740D01*
X73167Y389780D01*
X72594Y389704D01*
X69406D01*
X68833Y389780D01*
X68260Y389704D01*
X65073D01*
X64500Y389780D01*
X63927Y389704D01*
X60740D01*
X60167Y389780D01*
X59594Y389704D01*
X43510Y389704D01*
X43349Y390178D01*
X43617Y390383D01*
X44317Y391296D01*
X44758Y392359D01*
X44908Y393500D01*
X44758Y394641D01*
X44317Y395704D01*
X43617Y396617D01*
X42704Y397317D01*
X41641Y397758D01*
X40500Y397908D01*
D02*
G37*
G36*
X210500Y397908D02*
X209359Y397758D01*
X208296Y397317D01*
X207383Y396617D01*
X206683Y395704D01*
X206242Y394641D01*
X206092Y393500D01*
X206242Y392359D01*
X206683Y391296D01*
X207383Y390383D01*
X208296Y389683D01*
X209359Y389242D01*
X210500Y389092D01*
X211641Y389242D01*
X212704Y389683D01*
X213617Y390383D01*
X214317Y391296D01*
X214758Y392359D01*
X214908Y393500D01*
X214758Y394641D01*
X214317Y395704D01*
X213617Y396617D01*
X212704Y397317D01*
X211641Y397758D01*
X210500Y397908D01*
D02*
G37*
G36*
X200500D02*
X199359Y397758D01*
X198296Y397317D01*
X197383Y396617D01*
X196683Y395704D01*
X196242Y394641D01*
X196092Y393500D01*
X196242Y392359D01*
X196683Y391296D01*
X197383Y390383D01*
X198296Y389683D01*
X199359Y389242D01*
X200500Y389092D01*
X201641Y389242D01*
X202704Y389683D01*
X203617Y390383D01*
X204317Y391296D01*
X204758Y392359D01*
X204908Y393500D01*
X204758Y394641D01*
X204317Y395704D01*
X203617Y396617D01*
X202704Y397317D01*
X201641Y397758D01*
X200500Y397908D01*
D02*
G37*
G36*
X210500Y387908D02*
X209359Y387758D01*
X208296Y387317D01*
X207383Y386617D01*
X206683Y385704D01*
X206242Y384641D01*
X206092Y383500D01*
X206242Y382359D01*
X206683Y381296D01*
X207383Y380383D01*
X208296Y379683D01*
X209359Y379242D01*
X210500Y379092D01*
X211641Y379242D01*
X212704Y379683D01*
X213617Y380383D01*
X214317Y381296D01*
X214758Y382359D01*
X214908Y383500D01*
X214758Y384641D01*
X214317Y385704D01*
X213617Y386617D01*
X212704Y387317D01*
X211641Y387758D01*
X210500Y387908D01*
D02*
G37*
G36*
X200500D02*
X199359Y387758D01*
X198296Y387317D01*
X197383Y386617D01*
X196683Y385704D01*
X196242Y384641D01*
X196092Y383500D01*
X196242Y382359D01*
X196683Y381296D01*
X197383Y380383D01*
X198296Y379683D01*
X199359Y379242D01*
X200500Y379092D01*
X201641Y379242D01*
X202704Y379683D01*
X203617Y380383D01*
X204317Y381296D01*
X204758Y382359D01*
X204908Y383500D01*
X204758Y384641D01*
X204317Y385704D01*
X203617Y386617D01*
X202704Y387317D01*
X201641Y387758D01*
X200500Y387908D01*
D02*
G37*
G36*
X176800Y382270D02*
X175721Y382127D01*
X174715Y381711D01*
X173852Y381048D01*
X173189Y380185D01*
X172773Y379179D01*
X172631Y378100D01*
X172773Y377021D01*
X173189Y376015D01*
X173852Y375152D01*
X174715Y374489D01*
X175721Y374073D01*
X176800Y373931D01*
X177879Y374073D01*
X178885Y374489D01*
X179748Y375152D01*
X180411Y376015D01*
X180827Y377021D01*
X180970Y378100D01*
X180827Y379179D01*
X180411Y380185D01*
X179748Y381048D01*
X178885Y381711D01*
X177879Y382127D01*
X176800Y382270D01*
D02*
G37*
G36*
X111768Y496253D02*
X107043D01*
Y490347D01*
X111615D01*
X118217Y483745D01*
X118175Y483312D01*
X111615Y476753D01*
X107043D01*
Y470847D01*
X111768D01*
Y472233D01*
X112299Y472588D01*
X120097Y480386D01*
X226386D01*
Y371780D01*
X225666Y371685D01*
X224996Y371407D01*
X224420Y370966D01*
X223979Y370390D01*
X223701Y369719D01*
X223606Y369000D01*
X223701Y368281D01*
X223979Y367610D01*
X224420Y367035D01*
X224996Y366593D01*
X225666Y366315D01*
X226386Y366220D01*
X227105Y366315D01*
X227776Y366593D01*
X228351Y367035D01*
X228793Y367610D01*
X228829Y367698D01*
X229371D01*
X229407Y367610D01*
X229849Y367035D01*
X230424Y366593D01*
X231095Y366315D01*
X231814Y366220D01*
X232534Y366315D01*
X233204Y366593D01*
X233780Y367035D01*
X234221Y367610D01*
X234499Y368281D01*
X234594Y369000D01*
X234499Y369719D01*
X234221Y370390D01*
X233780Y370966D01*
X233204Y371407D01*
X232534Y371685D01*
X231814Y371780D01*
Y482928D01*
X231684Y483584D01*
X231312Y484140D01*
X230140Y485312D01*
X229584Y485684D01*
X228928Y485814D01*
X120997D01*
X112299Y494512D01*
X111768Y494867D01*
Y496253D01*
D02*
G37*
G36*
X70681Y356600D02*
X69000D01*
Y355628D01*
X70681D01*
Y356600D01*
D02*
G37*
G36*
X68000D02*
X66319D01*
Y355628D01*
X68000D01*
Y356600D01*
D02*
G37*
G36*
X76768Y361353D02*
X72043D01*
Y356600D01*
Y355447D01*
X76768D01*
Y355786D01*
X77942D01*
X78135Y355535D01*
X78345Y355373D01*
X78175Y354873D01*
X69287D01*
Y355128D01*
X63578D01*
Y351191D01*
X63759D01*
Y351100D01*
X65400D01*
Y351191D01*
X69287D01*
Y351445D01*
X88631D01*
X95745Y344331D01*
X95687Y343831D01*
X93819D01*
Y336969D01*
X101181D01*
Y343831D01*
X99214D01*
Y345000D01*
X99084Y345656D01*
X98712Y346212D01*
X90553Y354371D01*
X89997Y354743D01*
X89341Y354873D01*
X82025D01*
X81855Y355373D01*
X82065Y355535D01*
X82507Y356110D01*
X82785Y356781D01*
X82827Y357100D01*
D01*
X82880Y357500D01*
X82785Y358219D01*
X82507Y358890D01*
X82065Y359466D01*
X81490Y359907D01*
X80819Y360185D01*
X80100Y360280D01*
X79381Y360185D01*
X78710Y359907D01*
X78135Y359466D01*
X77942Y359214D01*
X76768D01*
Y361353D01*
D02*
G37*
G36*
X65400Y350100D02*
X63759D01*
Y350009D01*
X63578D01*
Y346072D01*
X65977D01*
X68161Y343888D01*
X68717Y343516D01*
X69373Y343386D01*
X77990D01*
X79719Y341657D01*
Y336969D01*
X87081D01*
Y343419D01*
Y343831D01*
X82393D01*
X79912Y346312D01*
X79356Y346684D01*
X78700Y346814D01*
X70083D01*
X69287Y347611D01*
Y349000D01*
Y350009D01*
X65400D01*
Y350100D01*
D02*
G37*
G36*
X101181Y334831D02*
X93819D01*
Y327969D01*
X95531D01*
Y324081D01*
X94819D01*
Y318719D01*
X100181D01*
Y324081D01*
X99469D01*
Y327969D01*
X101181D01*
Y334831D01*
D02*
G37*
G36*
X87081D02*
X79719D01*
Y327969D01*
X81431D01*
Y324081D01*
X80719D01*
Y318719D01*
X86081D01*
Y324081D01*
X85369D01*
Y327969D01*
X87081D01*
Y334831D01*
D02*
G37*
G36*
X111768Y444753D02*
X107043D01*
Y438847D01*
X111768D01*
Y439701D01*
X112268Y439908D01*
X117276Y434900D01*
X108288Y425912D01*
X107916Y425356D01*
X107896Y425253D01*
X107138D01*
Y419347D01*
X111862D01*
Y424638D01*
X119410Y432186D01*
X144488D01*
X144735Y431686D01*
X144349Y431183D01*
X143893Y430082D01*
X143737Y428900D01*
X143893Y427718D01*
X144349Y426617D01*
X145075Y425671D01*
X146021Y424945D01*
X147122Y424489D01*
X148304Y424333D01*
X149486Y424489D01*
X150587Y424945D01*
X151533Y425671D01*
X152259Y426617D01*
X152715Y427718D01*
X152871Y428900D01*
X152715Y430082D01*
X152259Y431183D01*
X151873Y431686D01*
X152120Y432186D01*
X158690D01*
X160786Y430090D01*
Y413400D01*
X160916Y412744D01*
X161288Y412188D01*
X186186Y387290D01*
Y356572D01*
X186316Y355916D01*
X186688Y355360D01*
X215260Y326788D01*
X215816Y326416D01*
X216472Y326286D01*
X237690D01*
X243225Y320751D01*
X242989Y320182D01*
X242833Y319000D01*
X242989Y317818D01*
X243445Y316717D01*
X244171Y315771D01*
X245117Y315045D01*
X246218Y314589D01*
X247400Y314433D01*
X248582Y314589D01*
X249683Y315045D01*
X250629Y315771D01*
X251355Y316717D01*
X251811Y317818D01*
X251967Y319000D01*
X251811Y320182D01*
X251355Y321283D01*
X250785Y322026D01*
X250983Y322452D01*
X251476Y322500D01*
X253225Y320751D01*
X252989Y320182D01*
X252833Y319000D01*
X252989Y317818D01*
X253445Y316717D01*
X254171Y315771D01*
X255117Y315045D01*
X256218Y314589D01*
X257400Y314433D01*
X258582Y314589D01*
X259683Y315045D01*
X260629Y315771D01*
X261355Y316717D01*
X261811Y317818D01*
X261967Y319000D01*
X261811Y320182D01*
X261355Y321283D01*
X260629Y322229D01*
X259683Y322955D01*
X258582Y323411D01*
X257400Y323567D01*
X256218Y323411D01*
X255649Y323175D01*
X253359Y325465D01*
X252802Y325837D01*
X252147Y325968D01*
X251345D01*
X251124Y326416D01*
X251355Y326717D01*
X251811Y327818D01*
X251967Y329000D01*
X251811Y330182D01*
X251355Y331283D01*
X250629Y332229D01*
X249683Y332955D01*
X248582Y333411D01*
X247400Y333567D01*
X246218Y333411D01*
X245117Y332955D01*
X244171Y332229D01*
X243445Y331283D01*
X242989Y330182D01*
X242939Y329806D01*
X242466Y329645D01*
X240899Y331212D01*
X240343Y331584D01*
X239687Y331714D01*
X218010D01*
X191614Y358110D01*
Y388828D01*
X191484Y389484D01*
X191112Y390040D01*
X166214Y414938D01*
Y431628D01*
X166084Y432284D01*
X165712Y432840D01*
X161440Y437112D01*
X160884Y437484D01*
X160228Y437614D01*
X119410D01*
X114012Y443012D01*
X113456Y443384D01*
X112800Y443514D01*
X111768D01*
Y444753D01*
D02*
G37*
G36*
X100181Y318081D02*
X94819D01*
Y317168D01*
X94539Y317113D01*
X94148Y316851D01*
X93887Y316461D01*
X93796Y316000D01*
Y313204D01*
Y313154D01*
X93643Y312955D01*
X93593Y312890D01*
X93315Y312219D01*
X93220Y311500D01*
X93315Y310781D01*
X93593Y310110D01*
X94034Y309535D01*
X94610Y309093D01*
X95281Y308815D01*
X96000Y308720D01*
X96719Y308815D01*
X97250Y309035D01*
X97781Y308815D01*
X98500Y308720D01*
X99219Y308815D01*
X99890Y309093D01*
X100208Y309337D01*
X100461Y309387D01*
X100852Y309648D01*
X101113Y310039D01*
X101204Y310500D01*
Y310927D01*
X101280Y311500D01*
X101204Y312073D01*
D01*
Y312204D01*
Y316000D01*
X101113Y316461D01*
X100852Y316851D01*
X100461Y317113D01*
X100181Y317168D01*
Y318081D01*
D02*
G37*
G36*
X86081D02*
X80719D01*
Y317148D01*
X80539Y317113D01*
X80149Y316851D01*
X79887Y316461D01*
X79796Y316000D01*
Y313154D01*
X79593Y312890D01*
X79315Y312219D01*
X79220Y311500D01*
X79315Y310781D01*
X79593Y310110D01*
X80035Y309535D01*
X80610Y309093D01*
X81281Y308815D01*
X82000Y308720D01*
X82719Y308815D01*
X83250Y309035D01*
X83781Y308815D01*
X84500Y308720D01*
X85219Y308815D01*
X85890Y309093D01*
X86466Y309535D01*
X86907Y310110D01*
X87113Y310606D01*
X87185Y310781D01*
X87204Y310927D01*
X87246Y311246D01*
X87280Y311500D01*
X87204Y312073D01*
Y316000D01*
X87113Y316461D01*
X86852Y316851D01*
X86461Y317113D01*
X86081Y317188D01*
Y318081D01*
D02*
G37*
G36*
X261928Y273528D02*
X252872D01*
Y264472D01*
X261928D01*
Y273528D01*
D02*
G37*
G36*
X161800Y255313D02*
X160839Y255186D01*
X159944Y254815D01*
X159175Y254225D01*
X158585Y253456D01*
X158214Y252561D01*
X158087Y251600D01*
X158214Y250639D01*
X158585Y249744D01*
X159175Y248975D01*
X159944Y248385D01*
X160839Y248014D01*
X161800Y247887D01*
X162761Y248014D01*
X163656Y248385D01*
X164425Y248975D01*
X165015Y249744D01*
X165386Y250639D01*
X165513Y251600D01*
X165386Y252561D01*
X165015Y253456D01*
X164425Y254225D01*
X163656Y254815D01*
X162761Y255186D01*
X161800Y255313D01*
D02*
G37*
G36*
X105500D02*
X104539Y255186D01*
X103644Y254815D01*
X102875Y254225D01*
X102285Y253456D01*
X101914Y252561D01*
X101787Y251600D01*
X101914Y250639D01*
X102285Y249744D01*
X102875Y248975D01*
X103644Y248385D01*
X104539Y248014D01*
X105500Y247887D01*
X106461Y248014D01*
X107356Y248385D01*
X108125Y248975D01*
X108715Y249744D01*
X109086Y250639D01*
X109213Y251600D01*
X109086Y252561D01*
X108715Y253456D01*
X108125Y254225D01*
X107356Y254815D01*
X106461Y255186D01*
X105500Y255313D01*
D02*
G37*
G36*
X152100Y246526D02*
X150748Y246348D01*
X149487Y245826D01*
X148405Y244995D01*
X147574Y243913D01*
X147052Y242653D01*
X146874Y241300D01*
X147052Y239948D01*
X147574Y238687D01*
X148405Y237605D01*
X149487Y236774D01*
X150748Y236252D01*
X152100Y236074D01*
X153453Y236252D01*
X154713Y236774D01*
X155795Y237605D01*
X156626Y238687D01*
X157148Y239948D01*
X157326Y241300D01*
X157148Y242653D01*
X156626Y243913D01*
X155795Y244995D01*
X154713Y245826D01*
X153453Y246348D01*
X152100Y246526D01*
D02*
G37*
G36*
X95800D02*
X94447Y246348D01*
X93187Y245826D01*
X92105Y244995D01*
X91274Y243913D01*
X90752Y242653D01*
X90574Y241300D01*
X90752Y239948D01*
X91274Y238687D01*
X92105Y237605D01*
X93187Y236774D01*
X94447Y236252D01*
X95800Y236074D01*
X97153Y236252D01*
X98413Y236774D01*
X99495Y237605D01*
X100326Y238687D01*
X100848Y239948D01*
X101026Y241300D01*
X100848Y242653D01*
X100326Y243913D01*
X99495Y244995D01*
X98413Y245826D01*
X97153Y246348D01*
X95800Y246526D01*
D02*
G37*
G36*
X131800Y235313D02*
X130839Y235186D01*
X129944Y234815D01*
X129175Y234225D01*
X128585Y233456D01*
X128214Y232561D01*
X128087Y231600D01*
X128214Y230639D01*
X128585Y229744D01*
X129175Y228975D01*
X129944Y228385D01*
X130839Y228014D01*
X131800Y227887D01*
X132761Y228014D01*
X133656Y228385D01*
X134425Y228975D01*
X135015Y229744D01*
X135386Y230639D01*
X135513Y231600D01*
X135386Y232561D01*
X135015Y233456D01*
X134425Y234225D01*
X133656Y234815D01*
X132761Y235186D01*
X131800Y235313D01*
D02*
G37*
G36*
X75500D02*
X74539Y235186D01*
X73644Y234815D01*
X72875Y234225D01*
X72285Y233456D01*
X71914Y232561D01*
X71787Y231600D01*
X71914Y230639D01*
X72285Y229744D01*
X72875Y228975D01*
X73644Y228385D01*
X74539Y228014D01*
X75500Y227887D01*
X76461Y228014D01*
X77356Y228385D01*
X78125Y228975D01*
X78715Y229744D01*
X79086Y230639D01*
X79213Y231600D01*
X79086Y232561D01*
X78715Y233456D01*
X78125Y234225D01*
X77356Y234815D01*
X76461Y235186D01*
X75500Y235313D01*
D02*
G37*
G36*
X204870Y227870D02*
X196130D01*
Y219130D01*
X204870D01*
Y227870D01*
D02*
G37*
G36*
X40500Y227908D02*
X39359Y227758D01*
X38296Y227317D01*
X37383Y226617D01*
X36683Y225704D01*
X36242Y224641D01*
X36092Y223500D01*
X36242Y222359D01*
X36683Y221296D01*
X37383Y220383D01*
X38296Y219683D01*
X39359Y219242D01*
X40500Y219092D01*
X41641Y219242D01*
X42704Y219683D01*
X43617Y220383D01*
X44317Y221296D01*
X44758Y222359D01*
X44908Y223500D01*
X44758Y224641D01*
X44317Y225704D01*
X43617Y226617D01*
X42704Y227317D01*
X41641Y227758D01*
X40500Y227908D01*
D02*
G37*
G36*
X30500D02*
X29359Y227758D01*
X28296Y227317D01*
X27383Y226617D01*
X26683Y225704D01*
X26242Y224641D01*
X26092Y223500D01*
X26242Y222359D01*
X26683Y221296D01*
X27383Y220383D01*
X28296Y219683D01*
X29359Y219242D01*
X30500Y219092D01*
X31641Y219242D01*
X32704Y219683D01*
X33617Y220383D01*
X34317Y221296D01*
X34758Y222359D01*
X34908Y223500D01*
X34758Y224641D01*
X34317Y225704D01*
X33617Y226617D01*
X32704Y227317D01*
X31641Y227758D01*
X30500Y227908D01*
D02*
G37*
G36*
Y217908D02*
X29359Y217758D01*
X28296Y217317D01*
X27383Y216617D01*
X26683Y215704D01*
X26242Y214641D01*
X26092Y213500D01*
X26242Y212359D01*
X26683Y211296D01*
X27383Y210383D01*
X28296Y209683D01*
X29359Y209242D01*
X30500Y209092D01*
X31641Y209242D01*
X32704Y209683D01*
X33617Y210383D01*
X34317Y211296D01*
X34758Y212359D01*
X34908Y213500D01*
X34758Y214641D01*
X34317Y215704D01*
X33617Y216617D01*
X32704Y217317D01*
X31641Y217758D01*
X30500Y217908D01*
D02*
G37*
G36*
X200500Y217908D02*
X199359Y217758D01*
X198296Y217317D01*
X197383Y216617D01*
X196683Y215704D01*
X196242Y214641D01*
X196092Y213500D01*
X196242Y212359D01*
X196683Y211296D01*
X197383Y210383D01*
X198296Y209683D01*
X199359Y209242D01*
X200500Y209092D01*
X201641Y209242D01*
X202704Y209683D01*
X203617Y210383D01*
X204317Y211296D01*
X204758Y212359D01*
X204908Y213500D01*
X204758Y214641D01*
X204485Y215300D01*
X204317Y215704D01*
X203617Y216617D01*
X202704Y217317D01*
X201641Y217758D01*
X200500Y217908D01*
D02*
G37*
G36*
X210500D02*
X209359Y217758D01*
X208296Y217317D01*
X207383Y216617D01*
X206683Y215704D01*
X206242Y214641D01*
X206092Y213500D01*
X206242Y212359D01*
X206683Y211296D01*
X207360Y210414D01*
X207323Y210207D01*
X207224Y209914D01*
X205200D01*
X204544Y209784D01*
X203988Y209412D01*
X202131Y207555D01*
X201641Y207758D01*
X200500Y207908D01*
X199359Y207758D01*
X198296Y207317D01*
X197383Y206617D01*
X196683Y205704D01*
X196242Y204641D01*
X196092Y203500D01*
X196242Y202359D01*
X196683Y201296D01*
X197383Y200383D01*
X198296Y199683D01*
X199359Y199242D01*
X200500Y199092D01*
X201641Y199242D01*
X202704Y199683D01*
X203617Y200383D01*
X204317Y201296D01*
X204758Y202359D01*
X204908Y203500D01*
X204758Y204641D01*
X204555Y205131D01*
X205910Y206486D01*
X206718D01*
X206939Y206037D01*
X206683Y205704D01*
X206242Y204641D01*
X206092Y203500D01*
X206242Y202359D01*
X206683Y201296D01*
X207383Y200383D01*
X207747Y200104D01*
X207700Y199510D01*
X207387Y199301D01*
X204699Y196613D01*
X204490Y196300D01*
X203896Y196253D01*
X203617Y196617D01*
X202704Y197317D01*
X201641Y197758D01*
X200500Y197908D01*
X199359Y197758D01*
X198296Y197317D01*
X197383Y196617D01*
X196683Y195704D01*
X196242Y194641D01*
X196092Y193500D01*
X196242Y192359D01*
X196683Y191296D01*
X197383Y190383D01*
X198296Y189683D01*
X199359Y189242D01*
X200500Y189092D01*
X201641Y189242D01*
X202704Y189683D01*
X203617Y190383D01*
X204317Y191296D01*
X204520Y191786D01*
X205717D01*
X206373Y191916D01*
X206433Y191898D01*
X206683Y191296D01*
X207383Y190383D01*
X208296Y189683D01*
X209359Y189242D01*
X210500Y189092D01*
X211641Y189242D01*
X212704Y189683D01*
X212927Y189854D01*
X213375Y189632D01*
Y187368D01*
X212927Y187146D01*
X212704Y187317D01*
X211641Y187758D01*
X210500Y187908D01*
X209359Y187758D01*
X208296Y187317D01*
X207383Y186617D01*
X206683Y185704D01*
X206242Y184641D01*
X206092Y183500D01*
X206242Y182359D01*
X206683Y181296D01*
X207383Y180383D01*
X208296Y179683D01*
X209359Y179242D01*
X210500Y179092D01*
X211641Y179242D01*
X212704Y179683D01*
X212927Y179854D01*
X213375Y179632D01*
Y177368D01*
X212927Y177146D01*
X212704Y177317D01*
X211641Y177758D01*
X210500Y177908D01*
X209359Y177758D01*
X208296Y177317D01*
X207383Y176617D01*
X206683Y175704D01*
X206242Y174641D01*
X206092Y173500D01*
X206242Y172359D01*
X206683Y171296D01*
X207383Y170383D01*
X208296Y169683D01*
X209359Y169242D01*
X210500Y169092D01*
X211641Y169242D01*
X212704Y169683D01*
X213055Y169952D01*
X213677Y169799D01*
X213877Y169499D01*
X216059Y167317D01*
X217842Y165534D01*
X218398Y165163D01*
X219054Y165032D01*
X243455D01*
X243676Y164584D01*
X243445Y164283D01*
X242989Y163182D01*
X242833Y162000D01*
X242989Y160818D01*
X243445Y159717D01*
X243908Y159114D01*
X243661Y158614D01*
X222400D01*
X221744Y158484D01*
X221188Y158112D01*
X215273Y152198D01*
X214797Y152354D01*
X214762Y152393D01*
X214908Y153500D01*
X214758Y154641D01*
X214317Y155704D01*
X213617Y156617D01*
X212704Y157317D01*
X211641Y157758D01*
X210500Y157908D01*
X209359Y157758D01*
X208296Y157317D01*
X207383Y156617D01*
X206683Y155704D01*
X206242Y154641D01*
X206092Y153500D01*
X206242Y152359D01*
X206683Y151296D01*
X207053Y150814D01*
X206806Y150314D01*
X205600D01*
X204944Y150184D01*
X204388Y149812D01*
X202131Y147555D01*
X201641Y147758D01*
X200500Y147908D01*
X199359Y147758D01*
X198296Y147317D01*
X197383Y146617D01*
X196683Y145704D01*
X196242Y144641D01*
X196092Y143500D01*
X196242Y142359D01*
X196683Y141296D01*
X197383Y140383D01*
X198296Y139683D01*
X199359Y139242D01*
X200500Y139092D01*
X201641Y139242D01*
X202704Y139683D01*
X203617Y140383D01*
X204317Y141296D01*
X204758Y142359D01*
X204908Y143500D01*
X204758Y144641D01*
X204555Y145131D01*
X206310Y146886D01*
X206960D01*
X207206Y146386D01*
X206683Y145704D01*
X206242Y144641D01*
X206092Y143500D01*
X206242Y142359D01*
X206683Y141296D01*
X207206Y140614D01*
X206960Y140114D01*
X205400D01*
X204744Y139984D01*
X204188Y139612D01*
X202131Y137555D01*
X201641Y137758D01*
X200500Y137908D01*
X199359Y137758D01*
X198296Y137317D01*
X197383Y136617D01*
X196683Y135704D01*
X196242Y134641D01*
X196092Y133500D01*
X196242Y132359D01*
X196683Y131296D01*
X197383Y130383D01*
X198296Y129683D01*
X199359Y129242D01*
X200500Y129092D01*
X201641Y129242D01*
X202704Y129683D01*
X203617Y130383D01*
X204317Y131296D01*
X204758Y132359D01*
X204908Y133500D01*
X204758Y134641D01*
X204555Y135131D01*
X206110Y136686D01*
X206806D01*
X207053Y136186D01*
X206683Y135704D01*
X206242Y134641D01*
X206092Y133500D01*
X206242Y132359D01*
X206683Y131296D01*
X207383Y130383D01*
X208296Y129683D01*
X209359Y129242D01*
X210500Y129092D01*
X211641Y129242D01*
X212704Y129683D01*
X213617Y130383D01*
X214317Y131296D01*
X214758Y132359D01*
X214908Y133500D01*
X214758Y134641D01*
X214317Y135704D01*
X213855Y136306D01*
X213855Y136423D01*
X214013Y136921D01*
X214412Y137188D01*
X227510Y150286D01*
X243209D01*
X243445Y149717D01*
X244171Y148771D01*
X245117Y148045D01*
X246218Y147589D01*
X247400Y147433D01*
X248582Y147589D01*
X249683Y148045D01*
X250629Y148771D01*
X251355Y149717D01*
X251811Y150818D01*
X251967Y152000D01*
X251811Y153182D01*
X251355Y154283D01*
X251006Y154737D01*
X251227Y155186D01*
X251790D01*
X253225Y153751D01*
X252989Y153182D01*
X252833Y152000D01*
X252989Y150818D01*
X253445Y149717D01*
X254171Y148771D01*
X255117Y148045D01*
X256218Y147589D01*
X257400Y147433D01*
X258582Y147589D01*
X259683Y148045D01*
X260629Y148771D01*
X261355Y149717D01*
X261811Y150818D01*
X261967Y152000D01*
X261811Y153182D01*
X261355Y154283D01*
X260629Y155229D01*
X259683Y155955D01*
X258582Y156411D01*
X257400Y156567D01*
X256218Y156411D01*
X255649Y156175D01*
X253712Y158112D01*
X253156Y158484D01*
X252500Y158614D01*
X251139D01*
X250892Y159114D01*
X251355Y159717D01*
X251811Y160818D01*
X251967Y162000D01*
X251811Y163182D01*
X251355Y164283D01*
X251124Y164584D01*
X251345Y165032D01*
X252147D01*
X252802Y165163D01*
X253359Y165534D01*
X255649Y167825D01*
X256218Y167589D01*
X257400Y167433D01*
X258582Y167589D01*
X259683Y168045D01*
X260629Y168771D01*
X261355Y169717D01*
X261811Y170818D01*
X261967Y172000D01*
X261811Y173182D01*
X261355Y174283D01*
X260629Y175229D01*
X259683Y175955D01*
X258582Y176411D01*
X257400Y176567D01*
X256218Y176411D01*
X255117Y175955D01*
X254171Y175229D01*
X253445Y174283D01*
X252989Y173182D01*
X252833Y172000D01*
X252989Y170818D01*
X253225Y170249D01*
X251476Y168500D01*
X250983Y168547D01*
X250785Y168974D01*
X251355Y169717D01*
X251811Y170818D01*
X251967Y172000D01*
X251811Y173182D01*
X251355Y174283D01*
X250629Y175229D01*
X249683Y175955D01*
X248815Y176315D01*
X248582Y176411D01*
X247400Y176567D01*
X246218Y176411D01*
X245117Y175955D01*
X244171Y175229D01*
X243445Y174283D01*
X242989Y173182D01*
X242833Y172000D01*
X242861Y171790D01*
X242531Y171414D01*
X220410D01*
X219014Y172810D01*
Y196600D01*
X218884Y197256D01*
X218512Y197812D01*
X216803Y199521D01*
Y205401D01*
X216672Y206057D01*
X216301Y206613D01*
X213502Y209412D01*
X213326Y209530D01*
X213306Y210144D01*
X213617Y210383D01*
X214317Y211296D01*
X214758Y212359D01*
X214908Y213500D01*
X214758Y214641D01*
X214485Y215300D01*
X214317Y215704D01*
X213617Y216617D01*
X212704Y217317D01*
X211641Y217758D01*
X210500Y217908D01*
D02*
G37*
G36*
X57600Y219310D02*
X56408Y219193D01*
X55262Y218845D01*
X54205Y218281D01*
X53279Y217521D01*
X52519Y216595D01*
X51955Y215538D01*
X51607Y214392D01*
X51490Y213200D01*
X51607Y212008D01*
X51955Y210862D01*
X52519Y209805D01*
X53279Y208879D01*
X54205Y208119D01*
X55262Y207555D01*
X56408Y207207D01*
X57600Y207089D01*
X58792Y207207D01*
X59938Y207555D01*
X60995Y208119D01*
X61921Y208879D01*
X62681Y209805D01*
X63245Y210862D01*
X63593Y212008D01*
X63710Y213200D01*
X63593Y214392D01*
X63245Y215538D01*
X62681Y216595D01*
X61921Y217521D01*
X60995Y218281D01*
X59938Y218845D01*
X58792Y219193D01*
X57600Y219310D01*
D02*
G37*
G36*
X222300Y205380D02*
X221581Y205285D01*
X220910Y205007D01*
X220335Y204566D01*
X219893Y203990D01*
X219615Y203319D01*
X219520Y202600D01*
X219615Y201881D01*
X219893Y201210D01*
X220335Y200635D01*
X220910Y200193D01*
X221581Y199915D01*
X222300Y199820D01*
X223019Y199915D01*
X223690Y200193D01*
X224266Y200635D01*
X224707Y201210D01*
X224985Y201881D01*
X225080Y202600D01*
X224985Y203319D01*
X224707Y203990D01*
X224266Y204566D01*
X223690Y205007D01*
X223019Y205285D01*
X222300Y205380D01*
D02*
G37*
G36*
X30500Y207908D02*
X29359Y207758D01*
X28296Y207317D01*
X27383Y206617D01*
X26683Y205704D01*
X26242Y204641D01*
X26092Y203500D01*
X26242Y202359D01*
X26683Y201296D01*
X27383Y200383D01*
X28296Y199683D01*
X29359Y199242D01*
X30500Y199092D01*
X31641Y199242D01*
X32704Y199683D01*
X33617Y200383D01*
X34317Y201296D01*
X34758Y202359D01*
X34908Y203500D01*
X34758Y204641D01*
X34317Y205704D01*
X33617Y206617D01*
X32704Y207317D01*
X31641Y207758D01*
X30500Y207908D01*
D02*
G37*
G36*
X40500Y197908D02*
X39359Y197758D01*
X38296Y197317D01*
X37383Y196617D01*
X36683Y195704D01*
X36242Y194641D01*
X36092Y193500D01*
X36242Y192359D01*
X36683Y191296D01*
X37383Y190383D01*
X38296Y189683D01*
X39359Y189242D01*
X40500Y189092D01*
X41641Y189242D01*
X42704Y189683D01*
X43617Y190383D01*
X44317Y191296D01*
X44758Y192359D01*
X44908Y193500D01*
X44758Y194641D01*
X44317Y195704D01*
X43617Y196617D01*
X42704Y197317D01*
X41641Y197758D01*
X40500Y197908D01*
D02*
G37*
G36*
X30500D02*
X29359Y197758D01*
X28296Y197317D01*
X27383Y196617D01*
X26683Y195704D01*
X26242Y194641D01*
X26092Y193500D01*
X26242Y192359D01*
X26683Y191296D01*
X27383Y190383D01*
X28296Y189683D01*
X29359Y189242D01*
X30500Y189092D01*
X31641Y189242D01*
X32704Y189683D01*
X33617Y190383D01*
X34317Y191296D01*
X34758Y192359D01*
X34908Y193500D01*
X34758Y194641D01*
X34317Y195704D01*
X33617Y196617D01*
X32704Y197317D01*
X31641Y197758D01*
X30500Y197908D01*
D02*
G37*
G36*
X40500Y217908D02*
X39359Y217758D01*
X38296Y217317D01*
X37383Y216617D01*
X36683Y215704D01*
X36242Y214641D01*
X36092Y213500D01*
X36242Y212359D01*
X36683Y211296D01*
X37383Y210383D01*
X38296Y209683D01*
X39118Y209342D01*
X39288Y209088D01*
X40072Y208304D01*
X39911Y207830D01*
X39359Y207758D01*
X38296Y207317D01*
X37383Y206617D01*
X36683Y205704D01*
X36242Y204641D01*
X36092Y203500D01*
X36242Y202359D01*
X36683Y201296D01*
X37383Y200383D01*
X38296Y199683D01*
X39359Y199242D01*
X40500Y199092D01*
X41641Y199242D01*
X42704Y199683D01*
X43617Y200383D01*
X44317Y201296D01*
X44758Y202359D01*
X44830Y202911D01*
X45304Y203072D01*
X51275Y197101D01*
X51226Y196604D01*
X51088Y196512D01*
X42131Y187555D01*
X41641Y187758D01*
X40500Y187908D01*
X39359Y187758D01*
X38296Y187317D01*
X37383Y186617D01*
X36683Y185704D01*
X36242Y184641D01*
X36092Y183500D01*
X36242Y182359D01*
X36683Y181296D01*
X37383Y180383D01*
X38296Y179683D01*
X39359Y179242D01*
X40500Y179092D01*
X41641Y179242D01*
X42704Y179683D01*
X43617Y180383D01*
X44317Y181296D01*
X44758Y182359D01*
X44908Y183500D01*
X44758Y184641D01*
X44555Y185131D01*
X53010Y193586D01*
X75162D01*
X86734Y182014D01*
X86526Y181514D01*
X74958D01*
X74765Y181765D01*
X74190Y182207D01*
X73519Y182485D01*
X72800Y182580D01*
X72081Y182485D01*
X71410Y182207D01*
X70834Y181765D01*
X70393Y181190D01*
X70115Y180519D01*
X70020Y179800D01*
X70115Y179081D01*
X70393Y178410D01*
X70834Y177834D01*
X71127Y177610D01*
Y176990D01*
X70834Y176766D01*
X70393Y176190D01*
X70115Y175519D01*
X70020Y174800D01*
X70115Y174081D01*
X70393Y173410D01*
X70834Y172835D01*
X71410Y172393D01*
X72081Y172115D01*
X72800Y172020D01*
X73519Y172115D01*
X74190Y172393D01*
X74765Y172835D01*
X74958Y173086D01*
X87890D01*
X149288Y111688D01*
X149844Y111316D01*
X150500Y111186D01*
X214714D01*
X215370Y111316D01*
X215926Y111688D01*
X216424Y112186D01*
X237644D01*
X238300Y112316D01*
X238856Y112688D01*
X241707Y115540D01*
X243785D01*
X244025Y115040D01*
X243445Y114283D01*
X242989Y113182D01*
X242833Y112000D01*
X242989Y110818D01*
X243225Y110249D01*
X236090Y103114D01*
X211559D01*
X211366Y103366D01*
X210790Y103807D01*
X210119Y104085D01*
X209400Y104180D01*
X208681Y104085D01*
X208010Y103807D01*
X207435Y103366D01*
X206993Y102790D01*
X206715Y102119D01*
X206620Y101400D01*
X206715Y100681D01*
X206993Y100010D01*
X207435Y99435D01*
X208010Y98993D01*
X208681Y98715D01*
X209400Y98620D01*
X210119Y98715D01*
X210790Y98993D01*
X211366Y99435D01*
X211559Y99686D01*
X236800D01*
X237456Y99816D01*
X238012Y100188D01*
X245649Y107825D01*
X246218Y107589D01*
X247400Y107433D01*
X248582Y107589D01*
X249683Y108045D01*
X250629Y108771D01*
X251355Y109717D01*
X251811Y110818D01*
X251967Y112000D01*
X251811Y113182D01*
X251355Y114283D01*
X250775Y115040D01*
X251015Y115540D01*
X251554D01*
X252209Y115670D01*
X252372Y115779D01*
X252872Y115512D01*
Y107473D01*
X261928D01*
Y116527D01*
X253905D01*
X253713Y116990D01*
X254920Y118196D01*
X255117Y118045D01*
X256218Y117589D01*
X257400Y117433D01*
X258582Y117589D01*
X259683Y118045D01*
X260629Y118771D01*
X261355Y119717D01*
X261811Y120818D01*
X261967Y122000D01*
X261811Y123182D01*
X261355Y124283D01*
X260629Y125229D01*
X259683Y125955D01*
X258582Y126411D01*
X257400Y126567D01*
X256218Y126411D01*
X255117Y125955D01*
X254171Y125229D01*
X253445Y124283D01*
X252989Y123182D01*
X252833Y122000D01*
X252955Y121079D01*
X252111Y120235D01*
X251687Y120518D01*
X251811Y120818D01*
X251967Y122000D01*
X251811Y123182D01*
X251355Y124283D01*
X251124Y124584D01*
X251345Y125032D01*
X252147D01*
X252802Y125163D01*
X253359Y125534D01*
X255649Y127825D01*
X256218Y127589D01*
X257400Y127433D01*
X258582Y127589D01*
X259683Y128045D01*
X260629Y128771D01*
X261355Y129717D01*
X261811Y130818D01*
X261967Y132000D01*
X261811Y133182D01*
X261355Y134283D01*
X260629Y135229D01*
X259683Y135955D01*
X258582Y136411D01*
X257400Y136567D01*
X256218Y136411D01*
X255117Y135955D01*
X254171Y135229D01*
X253445Y134283D01*
X252989Y133182D01*
X252833Y132000D01*
X252989Y130818D01*
X253225Y130249D01*
X251476Y128500D01*
X250983Y128548D01*
X250785Y128974D01*
X251355Y129717D01*
X251811Y130818D01*
X251967Y132000D01*
X251811Y133182D01*
X251355Y134283D01*
X250969Y134786D01*
X251216Y135286D01*
X252400D01*
X253056Y135416D01*
X253612Y135788D01*
X255649Y137825D01*
X256218Y137589D01*
X257400Y137433D01*
X258582Y137589D01*
X259683Y138045D01*
X260629Y138771D01*
X261355Y139717D01*
X261811Y140818D01*
X261967Y142000D01*
X261811Y143182D01*
X261355Y144283D01*
X260629Y145229D01*
X259683Y145955D01*
X258582Y146411D01*
X257400Y146567D01*
X256218Y146411D01*
X255117Y145955D01*
X254171Y145229D01*
X253445Y144283D01*
X252989Y143182D01*
X252833Y142000D01*
X252989Y140818D01*
X253225Y140249D01*
X251690Y138714D01*
X251216D01*
X250969Y139214D01*
X251355Y139717D01*
X251811Y140818D01*
X251967Y142000D01*
X251811Y143182D01*
X251355Y144283D01*
X250629Y145229D01*
X249683Y145955D01*
X248582Y146411D01*
X247400Y146567D01*
X246218Y146411D01*
X245117Y145955D01*
X244171Y145229D01*
X243445Y144283D01*
X243209Y143714D01*
X233200D01*
X232544Y143584D01*
X231988Y143212D01*
X214490Y125714D01*
X199710D01*
X194314Y131110D01*
Y144890D01*
X198869Y149445D01*
X199359Y149242D01*
X200500Y149092D01*
X201641Y149242D01*
X202704Y149683D01*
X203617Y150383D01*
X204317Y151296D01*
X204758Y152359D01*
X204908Y153500D01*
X204758Y154641D01*
X204317Y155704D01*
X203617Y156617D01*
X202704Y157317D01*
X201641Y157758D01*
X200500Y157908D01*
X199359Y157758D01*
X198296Y157317D01*
X197383Y156617D01*
X196683Y155704D01*
X196242Y154641D01*
X196092Y153500D01*
X196242Y152359D01*
X196445Y151869D01*
X191976Y147400D01*
X191514Y147591D01*
Y152090D01*
X198869Y159445D01*
X199359Y159242D01*
X200500Y159092D01*
X201641Y159242D01*
X202704Y159683D01*
X203617Y160383D01*
X204317Y161296D01*
X204758Y162359D01*
X204908Y163500D01*
X204758Y164641D01*
X204317Y165704D01*
X203617Y166617D01*
X202704Y167317D01*
X201641Y167758D01*
X200500Y167908D01*
X199359Y167758D01*
X198296Y167317D01*
X197383Y166617D01*
X196683Y165704D01*
X196242Y164641D01*
X196092Y163500D01*
X196242Y162359D01*
X196445Y161869D01*
X188588Y154012D01*
X188216Y153456D01*
X188086Y152800D01*
Y127800D01*
X188216Y127144D01*
X188588Y126588D01*
X191300Y123876D01*
X191109Y123414D01*
X153010D01*
X77912Y198512D01*
X77356Y198884D01*
X76700Y199014D01*
X54210D01*
X43446Y209778D01*
X43479Y210277D01*
X43617Y210383D01*
X44317Y211296D01*
X44758Y212359D01*
X44908Y213500D01*
X44758Y214641D01*
X44317Y215704D01*
X43617Y216617D01*
X42704Y217317D01*
X41641Y217758D01*
X40500Y217908D01*
D02*
G37*
G36*
X30500Y187908D02*
X29359Y187758D01*
X28296Y187317D01*
X27383Y186617D01*
X26683Y185704D01*
X26242Y184641D01*
X26092Y183500D01*
X26242Y182359D01*
X26683Y181296D01*
X27383Y180383D01*
X28296Y179683D01*
X29359Y179242D01*
X30500Y179092D01*
X31641Y179242D01*
X32704Y179683D01*
X33617Y180383D01*
X34317Y181296D01*
X34758Y182359D01*
X34908Y183500D01*
X34758Y184641D01*
X34317Y185704D01*
X33617Y186617D01*
X32704Y187317D01*
X31641Y187758D01*
X30500Y187908D01*
D02*
G37*
G36*
X200500Y187908D02*
X199359Y187758D01*
X198296Y187317D01*
X197383Y186617D01*
X196683Y185704D01*
X196242Y184641D01*
X196092Y183500D01*
X196242Y182359D01*
X196683Y181296D01*
X197383Y180383D01*
X198296Y179683D01*
X199359Y179242D01*
X200500Y179092D01*
X201641Y179242D01*
X202704Y179683D01*
X203617Y180383D01*
X204317Y181296D01*
X204758Y182359D01*
X204908Y183500D01*
X204758Y184641D01*
X204317Y185704D01*
X203617Y186617D01*
X202704Y187317D01*
X201641Y187758D01*
X200500Y187908D01*
D02*
G37*
G36*
X40500Y177908D02*
X39359Y177758D01*
X38296Y177317D01*
X37383Y176617D01*
X36683Y175704D01*
X36242Y174641D01*
X36092Y173500D01*
X36242Y172359D01*
X36683Y171296D01*
X37383Y170383D01*
X38296Y169683D01*
X39359Y169242D01*
X40500Y169092D01*
X41641Y169242D01*
X42704Y169683D01*
X43617Y170383D01*
X44317Y171296D01*
X44758Y172359D01*
X44908Y173500D01*
X44758Y174641D01*
X44317Y175704D01*
X43617Y176617D01*
X42704Y177317D01*
X41641Y177758D01*
X40500Y177908D01*
D02*
G37*
G36*
X30500D02*
X29359Y177758D01*
X28296Y177317D01*
X27383Y176617D01*
X26683Y175704D01*
X26242Y174641D01*
X26092Y173500D01*
X26242Y172359D01*
X26683Y171296D01*
X27383Y170383D01*
X28296Y169683D01*
X29359Y169242D01*
X30500Y169092D01*
X31641Y169242D01*
X32704Y169683D01*
X33617Y170383D01*
X34317Y171296D01*
X34758Y172359D01*
X34908Y173500D01*
X34758Y174641D01*
X34317Y175704D01*
X33617Y176617D01*
X32704Y177317D01*
X31641Y177758D01*
X30500Y177908D01*
D02*
G37*
G36*
X200500Y177908D02*
X199359Y177758D01*
X198296Y177317D01*
X197383Y176617D01*
X196683Y175704D01*
X196242Y174641D01*
X196092Y173500D01*
X196242Y172359D01*
X196683Y171296D01*
X197383Y170383D01*
X198296Y169683D01*
X199359Y169242D01*
X200500Y169092D01*
X201641Y169242D01*
X202704Y169683D01*
X203617Y170383D01*
X204317Y171296D01*
X204758Y172359D01*
X204908Y173500D01*
X204758Y174641D01*
X204317Y175704D01*
X203617Y176617D01*
X202704Y177317D01*
X201641Y177758D01*
X200500Y177908D01*
D02*
G37*
G36*
X40500Y167908D02*
X39359Y167758D01*
X38296Y167317D01*
X37383Y166617D01*
X36683Y165704D01*
X36242Y164641D01*
X36092Y163500D01*
X36242Y162359D01*
X36683Y161296D01*
X37383Y160383D01*
X38296Y159683D01*
X39359Y159242D01*
X40500Y159092D01*
X41641Y159242D01*
X42704Y159683D01*
X43617Y160383D01*
X44317Y161296D01*
X44758Y162359D01*
X44908Y163500D01*
X44758Y164641D01*
X44317Y165704D01*
X43617Y166617D01*
X42704Y167317D01*
X41641Y167758D01*
X40500Y167908D01*
D02*
G37*
G36*
X30500D02*
X29359Y167758D01*
X28296Y167317D01*
X27383Y166617D01*
X26683Y165704D01*
X26242Y164641D01*
X26092Y163500D01*
X26242Y162359D01*
X26683Y161296D01*
X27383Y160383D01*
X28296Y159683D01*
X29359Y159242D01*
X30500Y159092D01*
X31641Y159242D01*
X32704Y159683D01*
X33617Y160383D01*
X34317Y161296D01*
X34758Y162359D01*
X34908Y163500D01*
X34758Y164641D01*
X34317Y165704D01*
X33617Y166617D01*
X32704Y167317D01*
X31641Y167758D01*
X30500Y167908D01*
D02*
G37*
G36*
X210500Y167908D02*
X209359Y167758D01*
X208296Y167317D01*
X207383Y166617D01*
X206683Y165704D01*
X206242Y164641D01*
X206092Y163500D01*
X206242Y162359D01*
X206683Y161296D01*
X207383Y160383D01*
X208296Y159683D01*
X209359Y159242D01*
X210500Y159092D01*
X211641Y159242D01*
X212704Y159683D01*
X213617Y160383D01*
X214317Y161296D01*
X214758Y162359D01*
X214908Y163500D01*
X214758Y164641D01*
X214317Y165704D01*
X213617Y166617D01*
X212704Y167317D01*
X211641Y167758D01*
X210500Y167908D01*
D02*
G37*
G36*
X257400Y166567D02*
X256218Y166411D01*
X255117Y165955D01*
X254171Y165229D01*
X253445Y164283D01*
X252989Y163182D01*
X252833Y162000D01*
X252989Y160818D01*
X253445Y159717D01*
X254171Y158771D01*
X255117Y158045D01*
X256218Y157589D01*
X257400Y157433D01*
X258582Y157589D01*
X259683Y158045D01*
X260629Y158771D01*
X261355Y159717D01*
X261811Y160818D01*
X261967Y162000D01*
X261811Y163182D01*
X261355Y164283D01*
X260629Y165229D01*
X259683Y165955D01*
X258582Y166411D01*
X257400Y166567D01*
D02*
G37*
G36*
X40500Y157908D02*
X39359Y157758D01*
X38296Y157317D01*
X37383Y156617D01*
X36683Y155704D01*
X36242Y154641D01*
X36092Y153500D01*
X36242Y152359D01*
X36683Y151296D01*
X37383Y150383D01*
X38296Y149683D01*
X39359Y149242D01*
X40500Y149092D01*
X41641Y149242D01*
X42704Y149683D01*
X43617Y150383D01*
X44317Y151296D01*
X44758Y152359D01*
X44908Y153500D01*
X44758Y154641D01*
X44317Y155704D01*
X43617Y156617D01*
X42704Y157317D01*
X41641Y157758D01*
X40500Y157908D01*
D02*
G37*
G36*
X30500D02*
X29359Y157758D01*
X28296Y157317D01*
X27383Y156617D01*
X26683Y155704D01*
X26242Y154641D01*
X26092Y153500D01*
X26242Y152359D01*
X26683Y151296D01*
X27383Y150383D01*
X28296Y149683D01*
X29359Y149242D01*
X30500Y149092D01*
X31641Y149242D01*
X32704Y149683D01*
X33617Y150383D01*
X34317Y151296D01*
X34758Y152359D01*
X34908Y153500D01*
X34758Y154641D01*
X34317Y155704D01*
X33617Y156617D01*
X32704Y157317D01*
X31641Y157758D01*
X30500Y157908D01*
D02*
G37*
G36*
X69000Y154970D02*
X67921Y154827D01*
X66915Y154411D01*
X66052Y153748D01*
X65389Y152885D01*
X64973Y151879D01*
X64830Y150800D01*
X64973Y149721D01*
X65389Y148715D01*
X66052Y147852D01*
X66915Y147189D01*
X67921Y146773D01*
X69000Y146631D01*
X70079Y146773D01*
X71085Y147189D01*
X71948Y147852D01*
X72611Y148715D01*
X73027Y149721D01*
X73169Y150800D01*
X73027Y151879D01*
X72611Y152885D01*
X71948Y153748D01*
X71085Y154411D01*
X70079Y154827D01*
X69000Y154970D01*
D02*
G37*
G36*
X59000D02*
X57921Y154827D01*
X56915Y154411D01*
X56052Y153748D01*
X55389Y152885D01*
X54973Y151879D01*
X54830Y150800D01*
X54973Y149721D01*
X55389Y148715D01*
X56052Y147852D01*
X56915Y147189D01*
X57921Y146773D01*
X59000Y146631D01*
X60079Y146773D01*
X61085Y147189D01*
X61948Y147852D01*
X62611Y148715D01*
X63027Y149721D01*
X63169Y150800D01*
X63027Y151879D01*
X62611Y152885D01*
X61948Y153748D01*
X61085Y154411D01*
X60079Y154827D01*
X59000Y154970D01*
D02*
G37*
G36*
X40500Y147908D02*
X39359Y147758D01*
X38296Y147317D01*
X37383Y146617D01*
X36683Y145704D01*
X36242Y144641D01*
X36092Y143500D01*
X36242Y142359D01*
X36683Y141296D01*
X37383Y140383D01*
X38296Y139683D01*
X39359Y139242D01*
X40500Y139092D01*
X41641Y139242D01*
X42704Y139683D01*
X43617Y140383D01*
X44317Y141296D01*
X44758Y142359D01*
X44908Y143500D01*
X44758Y144641D01*
X44724Y144722D01*
X44317Y145704D01*
X43617Y146617D01*
X42704Y147317D01*
X41641Y147758D01*
X40500Y147908D01*
D02*
G37*
G36*
X30500D02*
X29359Y147758D01*
X28296Y147317D01*
X27383Y146617D01*
X26683Y145704D01*
X26242Y144641D01*
X26092Y143500D01*
X26242Y142359D01*
X26683Y141296D01*
X27383Y140383D01*
X28296Y139683D01*
X29359Y139242D01*
X30500Y139092D01*
X31641Y139242D01*
X32704Y139683D01*
X33617Y140383D01*
X34317Y141296D01*
X34758Y142359D01*
X34908Y143500D01*
X34758Y144641D01*
X34317Y145704D01*
X33617Y146617D01*
X32704Y147317D01*
X31641Y147758D01*
X30500Y147908D01*
D02*
G37*
G36*
X37689Y137689D02*
X36311D01*
Y134500D01*
X36500D01*
Y136500D01*
X37689Y137689D01*
D02*
G37*
G36*
X36500Y132500D02*
X36311D01*
Y129311D01*
X36500D01*
Y132500D01*
D02*
G37*
G36*
X120100Y129210D02*
X118908Y129093D01*
X117762Y128745D01*
X116705Y128181D01*
X115779Y127421D01*
X115019Y126495D01*
X114455Y125438D01*
X114107Y124292D01*
X113989Y123100D01*
X114107Y121908D01*
X114455Y120762D01*
X115019Y119705D01*
X115779Y118779D01*
X116705Y118019D01*
X117762Y117455D01*
X118908Y117107D01*
X120100Y116990D01*
X121292Y117107D01*
X122438Y117455D01*
X123495Y118019D01*
X124421Y118779D01*
X125181Y119705D01*
X125745Y120762D01*
X126093Y121908D01*
X126210Y123100D01*
X126093Y124292D01*
X125745Y125438D01*
X125181Y126495D01*
X124421Y127421D01*
X123495Y128181D01*
X122438Y128745D01*
X121292Y129093D01*
X120100Y129210D01*
D02*
G37*
%LPD*%
G36*
X72500Y502300D02*
X71500D01*
Y499800D01*
X71000D01*
Y499300D01*
X68500D01*
Y498203D01*
X68000Y497869D01*
X67719Y497985D01*
X67000Y498080D01*
X66281Y497985D01*
X65610Y497707D01*
X65210Y497400D01*
X63800D01*
Y512000D01*
X72500D01*
Y502300D01*
D02*
G37*
G36*
X99400Y507400D02*
X104500Y502300D01*
X104500Y489300D01*
Y488800D01*
X93000D01*
Y500300D01*
X92617Y500683D01*
X92407Y501190D01*
X91966Y501765D01*
X91390Y502207D01*
X90719Y502485D01*
X90400Y502527D01*
X90400Y507046D01*
X90754Y507400D01*
X99400Y507400D01*
D02*
G37*
G36*
X87400Y501800D02*
X84100D01*
X81300Y499000D01*
Y488500D01*
X78300D01*
Y489149D01*
X78325Y489209D01*
X78325Y489327D01*
X78348Y489444D01*
X78325Y489560D01*
X78325Y489678D01*
X78300Y489803D01*
Y497089D01*
X78409Y497638D01*
X78796Y498217D01*
X78802Y498222D01*
X78847Y498332D01*
X78913Y498430D01*
X78936Y498547D01*
X78981Y498657D01*
X78981Y498775D01*
X79004Y498891D01*
Y506404D01*
X80200Y507600D01*
X87400D01*
Y501800D01*
D02*
G37*
G36*
X77800Y498891D02*
X77797Y498889D01*
X77275Y498107D01*
X77091Y497186D01*
Y489706D01*
X77144Y489444D01*
X74447Y486747D01*
X74110Y486607D01*
X73535Y486166D01*
X73093Y485590D01*
X72953Y485253D01*
X72500Y484800D01*
X59370Y484800D01*
Y495800D01*
X72500Y495800D01*
X74000Y497300D01*
Y507800D01*
X77800D01*
Y498891D01*
D02*
G37*
G36*
X86000Y489300D02*
X88000Y487300D01*
X88500D01*
Y482300D01*
X91500Y479300D01*
Y468800D01*
X88000D01*
Y477800D01*
X86204Y479596D01*
X86203Y479598D01*
X86201Y479599D01*
X86000Y479800D01*
Y484800D01*
X83000Y487800D01*
Y498300D01*
X86000D01*
Y489300D01*
D02*
G37*
G36*
X80700Y469100D02*
X84600Y465200D01*
X86703D01*
X86819Y465177D01*
X86819Y465177D01*
X87377D01*
Y462223D01*
X87100D01*
X86639Y462132D01*
X86442Y462000D01*
X80100D01*
X78804Y463296D01*
Y469006D01*
X78781Y469122D01*
Y469241D01*
X78736Y469350D01*
X78713Y469467D01*
X78647Y469565D01*
X78601Y469675D01*
X78409Y469962D01*
X78296Y470533D01*
Y477776D01*
X78409Y478346D01*
X78601Y478634D01*
X78647Y478743D01*
X78713Y478842D01*
X78736Y478958D01*
X78781Y479068D01*
X78781Y479186D01*
X78784Y479200D01*
X80700D01*
Y469100D01*
D02*
G37*
G36*
X105000Y475800D02*
Y461300D01*
X93000D01*
X90400Y461300D01*
Y466500D01*
X93000D01*
Y479300D01*
X101500D01*
X105000Y475800D01*
D02*
G37*
G36*
X73535Y482234D02*
X74110Y481793D01*
X74781Y481515D01*
X75500Y481420D01*
X76219Y481515D01*
X76890Y481793D01*
X77100Y481954D01*
X77600Y481707D01*
Y479303D01*
X77275Y478816D01*
X77091Y477894D01*
Y470414D01*
X77275Y469492D01*
X77600Y469006D01*
Y461300D01*
X73700D01*
Y472800D01*
X60000Y472800D01*
Y482800D01*
X73101D01*
X73535Y482234D01*
D02*
G37*
G36*
X79319Y461019D02*
X79639Y460887D01*
X79755Y460864D01*
X80100Y460796D01*
X80100Y460796D01*
X85896D01*
X85896Y457304D01*
X78500D01*
X78039Y457213D01*
X77649Y456952D01*
X77582Y456852D01*
X77161Y456613D01*
X76700Y456704D01*
X72804D01*
Y459877D01*
X73147Y460121D01*
X73304Y460175D01*
X73700Y460096D01*
X77600D01*
X78061Y460187D01*
X78452Y460449D01*
X78713Y460839D01*
X78736Y460954D01*
X78831Y460990D01*
X79319Y461019D01*
D01*
D02*
G37*
G36*
X84796Y481724D02*
Y479800D01*
X84796Y479800D01*
X84887Y479339D01*
X85149Y478948D01*
X85350Y478747D01*
X85352Y478746D01*
X85353Y478744D01*
X86200Y477897D01*
X86200Y473000D01*
X86796Y472404D01*
Y468800D01*
X86887Y468339D01*
X87148Y467948D01*
X87539Y467687D01*
X88000Y467596D01*
X89110D01*
X89378Y467096D01*
X89287Y466961D01*
X89196Y466500D01*
Y461300D01*
X89219Y461184D01*
Y461019D01*
X89252D01*
X89287Y460839D01*
X89548Y460449D01*
X89939Y460187D01*
X90400Y460096D01*
X93000Y460096D01*
X101000D01*
Y455500D01*
X93803Y455500D01*
X93381Y455922D01*
Y456581D01*
X92722D01*
X92551Y456751D01*
X92161Y457013D01*
X91700Y457104D01*
X91700Y457104D01*
X89100Y457104D01*
X88639Y457013D01*
X88248Y456751D01*
X88135Y456581D01*
X88019D01*
Y456408D01*
X87987Y456361D01*
X87896Y455900D01*
Y455500D01*
X87381D01*
Y456581D01*
X87100D01*
X87100Y461019D01*
X88581D01*
Y466381D01*
X86819D01*
X82400Y470800D01*
Y479100D01*
X81100Y481400D01*
X78804Y481400D01*
Y481707D01*
X78766Y481900D01*
X78740Y482094D01*
X78720Y482129D01*
X78713Y482168D01*
X78604Y482331D01*
X78505Y482501D01*
X78474Y482526D01*
X78452Y482559D01*
X78288Y482668D01*
X78133Y482787D01*
X77633Y483034D01*
X77443Y483085D01*
X77257Y483148D01*
X77217Y483145D01*
X77179Y483156D01*
X76984Y483130D01*
X76788Y483117D01*
X76753Y483100D01*
X76713Y483094D01*
X76543Y482996D01*
X76367Y482909D01*
X76283Y482845D01*
X75905Y482688D01*
X75500Y482635D01*
X75095Y482688D01*
X74717Y482845D01*
X74393Y483093D01*
X74056Y483533D01*
X73996Y483586D01*
X73952Y483651D01*
X73900Y483686D01*
Y484544D01*
X74066Y484793D01*
X74145Y484982D01*
X74393Y485307D01*
X74717Y485555D01*
X74907Y485634D01*
X75298Y485895D01*
X75603Y486200D01*
X82400D01*
X84796Y481724D01*
D02*
G37*
G36*
X68500Y469893D02*
Y468800D01*
X71000D01*
Y468300D01*
X71500D01*
Y465800D01*
X72496D01*
Y462095D01*
X71600Y461000D01*
Y456704D01*
X71500D01*
X71039Y456613D01*
X70648Y456352D01*
X70387Y455961D01*
X70296Y455500D01*
Y450981D01*
X70147Y450800D01*
X69500D01*
Y448300D01*
X69000D01*
Y447800D01*
X66500D01*
Y446561D01*
X59973Y446517D01*
X59500Y446580D01*
X58977Y446511D01*
X57992Y446504D01*
X57766Y446458D01*
X57539Y446413D01*
X57536Y446410D01*
X57532Y446410D01*
X57341Y446280D01*
X57221Y446200D01*
X54300Y446200D01*
Y456400D01*
X68000Y470100D01*
X68500Y469893D01*
D02*
G37*
G36*
X104500Y443100D02*
X104500Y437800D01*
Y437300D01*
X90100D01*
Y447970D01*
X90207Y448110D01*
X90485Y448781D01*
X90580Y449500D01*
X90485Y450219D01*
X90207Y450890D01*
X89766Y451466D01*
X89190Y451907D01*
X89100Y451944D01*
X89100Y455900D01*
X91700Y455900D01*
X104500Y443100D01*
D02*
G37*
G36*
X86177Y455837D02*
Y455500D01*
X86269Y455039D01*
X86300Y454992D01*
Y451823D01*
X85834Y451466D01*
X85393Y450890D01*
X85148Y450300D01*
X81100D01*
X78300Y447500D01*
Y437000D01*
X75944D01*
X75901Y437103D01*
X75817Y437186D01*
X75752Y437285D01*
X75699Y437320D01*
X75409Y437754D01*
X75300Y438303D01*
X75300Y445588D01*
X75409Y446138D01*
X75699Y446571D01*
X75752Y446606D01*
X75817Y446705D01*
X75901Y446789D01*
X75947Y446898D01*
X76013Y446997D01*
X76036Y447113D01*
X76081Y447223D01*
Y447341D01*
X76104Y447458D01*
Y450101D01*
X77222Y451219D01*
X77881D01*
Y452284D01*
X77904Y452400D01*
X77904Y452400D01*
Y452404D01*
X78500Y453000D01*
Y456100D01*
X86001D01*
X86177Y455837D01*
D02*
G37*
G36*
X76700Y452400D02*
X74900Y450600D01*
Y447458D01*
X74797Y447389D01*
X74275Y446607D01*
X74092Y445686D01*
Y438205D01*
X74275Y437284D01*
X74797Y436503D01*
X74900Y436434D01*
Y435150D01*
X74400Y434827D01*
X74019Y434985D01*
X73300Y435080D01*
X72581Y434985D01*
X71910Y434707D01*
X71334Y434266D01*
X70893Y433690D01*
X70731Y433300D01*
X58000Y433300D01*
X58000Y445300D01*
X71500Y445390D01*
Y445619D01*
X71681D01*
Y450981D01*
X71500D01*
Y455500D01*
X76700D01*
Y452400D01*
D02*
G37*
G36*
X81786Y430467D02*
X81796Y430444D01*
Y428300D01*
X81796Y428300D01*
X81887Y427839D01*
X82148Y427449D01*
X82350Y427247D01*
X82351Y427246D01*
X82353Y427244D01*
X83200Y426397D01*
Y418200D01*
X83500Y417900D01*
X84337D01*
X84797Y417211D01*
X85578Y416689D01*
X86500Y416506D01*
X87422Y416689D01*
X87655Y416845D01*
X88096Y416609D01*
Y413081D01*
X88019D01*
Y407719D01*
X88792D01*
X88839Y407687D01*
X89300Y407596D01*
X99704D01*
X99800Y407500D01*
Y400000D01*
X88800D01*
Y400000D01*
X51900Y400000D01*
X51900Y414800D01*
X55000Y417900D01*
X66500Y417900D01*
Y416800D01*
X69000D01*
Y416300D01*
X69500D01*
Y413800D01*
X70621D01*
Y408800D01*
X70712Y408339D01*
X70973Y407948D01*
X71364Y407687D01*
X71825Y407596D01*
X76500D01*
X76616Y407619D01*
X77765D01*
X77881Y407596D01*
X83000Y407596D01*
D01*
X86300D01*
X86761Y407687D01*
X86808Y407719D01*
X87381D01*
Y408292D01*
X87413Y408339D01*
X87504Y408800D01*
Y409445D01*
X87504Y414500D01*
X87413Y414961D01*
X87151Y415351D01*
X86761Y415613D01*
X86300Y415704D01*
X84989Y415704D01*
X81599Y415704D01*
X81099Y416204D01*
X81029Y416274D01*
X79704Y417599D01*
X79704Y427700D01*
X79613Y428161D01*
X79352Y428551D01*
X78961Y428813D01*
X78806Y428843D01*
X77000Y430800D01*
X75014D01*
X74952Y430824D01*
X74861Y430885D01*
X74735Y430910D01*
X74617Y430957D01*
X74507Y430956D01*
X74400Y430977D01*
X74275Y430952D01*
X74147Y430950D01*
X74046Y430907D01*
X73939Y430885D01*
X73733Y430800D01*
X72867D01*
X72518Y430945D01*
X72193Y431193D01*
X71945Y431518D01*
X71846Y431755D01*
X71846Y431755D01*
X71846Y431756D01*
X71715Y431951D01*
X71700Y431974D01*
Y432624D01*
X71844Y432839D01*
X71945Y433082D01*
X72193Y433407D01*
X72518Y433655D01*
X72895Y433812D01*
X73300Y433865D01*
X73705Y433812D01*
X73939Y433715D01*
X74046Y433693D01*
X74147Y433650D01*
X74275Y433648D01*
X74400Y433623D01*
X74507Y433644D01*
X74617Y433643D01*
X74735Y433690D01*
X74861Y433715D01*
X74952Y433776D01*
X75054Y433816D01*
X75554Y434139D01*
X75645Y434228D01*
X75752Y434299D01*
X75752Y434300D01*
X79896D01*
X81786Y430467D01*
D02*
G37*
G36*
X63593Y471410D02*
X64034Y470834D01*
X64610Y470393D01*
X65281Y470115D01*
X65567Y470077D01*
X65746Y469549D01*
X53448Y457252D01*
X53187Y456861D01*
X53096Y456400D01*
X53096Y456400D01*
Y446200D01*
X53187Y445739D01*
X53448Y445349D01*
X53839Y445087D01*
X54300Y444996D01*
X56796Y444996D01*
Y444373D01*
X56720Y443800D01*
X56796Y443227D01*
Y439373D01*
X56720Y438800D01*
X56796Y438227D01*
Y433300D01*
X56860Y432978D01*
X56574Y432477D01*
X49361Y432467D01*
X49156Y432426D01*
X48949Y432394D01*
X44524Y430777D01*
X44228Y431180D01*
X44317Y431296D01*
X44758Y432359D01*
X44908Y433500D01*
X44840Y434016D01*
X51612Y440788D01*
X51612Y440788D01*
X52042Y441348D01*
X52312Y442000D01*
X52404Y442700D01*
Y462880D01*
X61120Y471596D01*
X63516D01*
X63593Y471410D01*
D02*
G37*
G36*
X83000Y437800D02*
X85000Y435800D01*
X85500D01*
Y430800D01*
X88163Y428137D01*
X88096Y427800D01*
Y423300D01*
X85000D01*
Y426300D01*
X83204Y428096D01*
X83203Y428097D01*
X83201Y428099D01*
X83000Y428300D01*
Y433300D01*
X80000Y436300D01*
Y446800D01*
X83000D01*
Y437800D01*
D02*
G37*
G36*
X105000Y424800D02*
X105000Y408800D01*
X89300D01*
X89300Y414150D01*
Y427800D01*
X102000Y427800D01*
X105000Y424800D01*
D02*
G37*
G36*
X78500Y417100D02*
X81100Y414500D01*
X86300Y414500D01*
X86300Y408800D01*
X77881Y408800D01*
Y412981D01*
X75200D01*
X75200Y427700D01*
X78500D01*
X78500Y417100D01*
D02*
G37*
G36*
X70893Y430910D02*
X71334Y430335D01*
X71910Y429893D01*
X72581Y429615D01*
X73300Y429520D01*
X74019Y429615D01*
X74400Y429773D01*
X74900Y429450D01*
Y428845D01*
X74739Y428813D01*
X74348Y428551D01*
X74087Y428161D01*
X73996Y427700D01*
X73996Y412981D01*
X74087Y412520D01*
X74348Y412130D01*
X74739Y411868D01*
X74900Y411836D01*
Y411650D01*
X76193Y411650D01*
X76544Y411293D01*
X76500Y408800D01*
X71825D01*
Y414225D01*
X71681Y414439D01*
Y418981D01*
X68624D01*
X68006Y419900D01*
X36600Y419900D01*
Y426600D01*
X49362Y431262D01*
X70734Y431294D01*
X70893Y430910D01*
D02*
G37*
G36*
X55113Y351190D02*
X59700D01*
Y350009D01*
X55113D01*
Y349300D01*
X43000D01*
Y351700D01*
X55113D01*
Y351190D01*
D02*
G37*
%LPC*%
G36*
X70500Y502300D02*
X68500D01*
Y500300D01*
X70500D01*
Y502300D01*
D02*
G37*
G36*
Y467800D02*
X68500D01*
Y465800D01*
X70500D01*
Y467800D01*
D02*
G37*
G36*
X68500Y450800D02*
X66500D01*
Y448800D01*
X68500D01*
Y450800D01*
D02*
G37*
G36*
Y415800D02*
X66500D01*
Y413800D01*
X68500D01*
Y415800D01*
D02*
G37*
%LPD*%
G36*
X162875Y379426D02*
X162773Y379179D01*
X162630Y378100D01*
X162773Y377021D01*
X163189Y376015D01*
X163852Y375152D01*
X164715Y374489D01*
X165721Y374073D01*
X166800Y373931D01*
X167879Y374073D01*
X168125Y374175D01*
X182500Y359800D01*
Y314000D01*
X222500D01*
X231000Y305500D01*
X244524D01*
X245117Y305045D01*
X246218Y304589D01*
X247400Y304433D01*
X248582Y304589D01*
X249683Y305045D01*
X250276Y305500D01*
X254524D01*
X255117Y305045D01*
X256218Y304589D01*
X256500Y304552D01*
Y303448D01*
X256218Y303411D01*
X255117Y302955D01*
X254171Y302229D01*
X253445Y301283D01*
X252989Y300182D01*
X252833Y299000D01*
X252989Y297818D01*
X253445Y296717D01*
X254171Y295771D01*
X255117Y295045D01*
X256218Y294589D01*
X256500Y294552D01*
Y293448D01*
X256218Y293411D01*
X255117Y292955D01*
X254171Y292229D01*
X253445Y291283D01*
X252989Y290182D01*
X252833Y289000D01*
X252989Y287818D01*
X253445Y286717D01*
X254171Y285771D01*
X255117Y285045D01*
X255226Y285000D01*
X255126Y284500D01*
X243000D01*
Y280208D01*
X242989Y280182D01*
X242833Y279000D01*
X242989Y277818D01*
X243000Y277792D01*
Y270209D01*
X242989Y270182D01*
X242833Y269000D01*
X242989Y267818D01*
X243000Y267792D01*
Y244500D01*
X250000Y237500D01*
Y214000D01*
X228000D01*
X214870Y227130D01*
Y227870D01*
X214130D01*
X182000Y260000D01*
X137234Y260000D01*
X136904Y260376D01*
X137026Y261300D01*
X136848Y262652D01*
X136326Y263913D01*
X135495Y264995D01*
X134413Y265826D01*
X133152Y266348D01*
X131800Y266526D01*
X130447Y266348D01*
X129187Y265826D01*
X128105Y264995D01*
X127274Y263913D01*
X126752Y262652D01*
X126574Y261300D01*
X126696Y260376D01*
X126366Y260000D01*
X80934Y260000D01*
X80604Y260376D01*
X80726Y261300D01*
X80548Y262652D01*
X80026Y263913D01*
X79195Y264995D01*
X78113Y265826D01*
X76853Y266348D01*
X75500Y266526D01*
X74147Y266348D01*
X72887Y265826D01*
X72000Y265145D01*
X71500Y265391D01*
Y275500D01*
X54500D01*
X44932Y265932D01*
X44922Y265939D01*
X44251Y266217D01*
X43532Y266312D01*
X42813Y266217D01*
X42142Y265939D01*
X41567Y265498D01*
X41125Y264922D01*
X40847Y264251D01*
X40776Y263711D01*
X40582Y263419D01*
X40289Y263224D01*
X39748Y263153D01*
X39078Y262875D01*
X38502Y262434D01*
X38061Y261858D01*
X37783Y261187D01*
X37735Y260826D01*
X37597Y260435D01*
X37207Y260297D01*
X36845Y260249D01*
X36174Y259971D01*
X35599Y259530D01*
X35157Y258954D01*
X34879Y258284D01*
X34808Y257743D01*
X34613Y257451D01*
X34321Y257256D01*
X33781Y257185D01*
X33110Y256907D01*
X32535Y256466D01*
X32093Y255890D01*
X31815Y255219D01*
X31744Y254679D01*
X31549Y254386D01*
X31257Y254192D01*
X30716Y254121D01*
X30046Y253843D01*
X29470Y253401D01*
X29029Y252826D01*
X28751Y252155D01*
X28656Y251436D01*
X28751Y250716D01*
X29029Y250046D01*
X29036Y250036D01*
X21000Y242000D01*
Y137000D01*
X33500D01*
Y128000D01*
X18000Y128000D01*
X12500Y133500D01*
Y246000D01*
X51000Y284500D01*
X99514D01*
X99593Y284310D01*
X100034Y283734D01*
X100610Y283293D01*
X101281Y283015D01*
X102000Y282920D01*
X102719Y283015D01*
X103156Y283196D01*
X105178Y283196D01*
X105614Y283015D01*
X106333Y282920D01*
X107053Y283015D01*
X107489Y283196D01*
X109511Y283196D01*
X109947Y283015D01*
X110667Y282920D01*
X111386Y283015D01*
X111822Y283196D01*
X113844Y283196D01*
X114281Y283015D01*
X115000Y282920D01*
X115719Y283015D01*
X116156Y283196D01*
X118178Y283196D01*
X118614Y283015D01*
X119333Y282920D01*
X120053Y283015D01*
X120489Y283196D01*
X122511Y283196D01*
X122947Y283015D01*
X123667Y282920D01*
X124386Y283015D01*
X124822Y283196D01*
X126844Y283196D01*
X127280Y283015D01*
X128000Y282920D01*
X128719Y283015D01*
X129390Y283293D01*
X129965Y283734D01*
X130407Y284310D01*
X130685Y284981D01*
X130780Y285700D01*
X130685Y286419D01*
X130461Y286961D01*
X131500Y288000D01*
Y301500D01*
Y303500D01*
Y314000D01*
X153000D01*
X153000Y330500D01*
X150204Y333296D01*
Y344500D01*
X150113Y344961D01*
X149852Y345352D01*
X149461Y345613D01*
X149000Y345704D01*
X137796D01*
X106000Y377500D01*
X49938D01*
X49333Y377580D01*
X48728Y377500D01*
X45605D01*
X45000Y377580D01*
X44395Y377500D01*
X41272D01*
X40667Y377580D01*
X40062Y377500D01*
X24500D01*
Y388000D01*
X25000Y388500D01*
X123566Y388500D01*
X123902Y388129D01*
X123890Y388000D01*
X124007Y386808D01*
X124355Y385662D01*
X124919Y384605D01*
X125679Y383679D01*
X126605Y382919D01*
X127662Y382355D01*
X128808Y382007D01*
X130000Y381890D01*
X131192Y382007D01*
X132338Y382355D01*
X133395Y382919D01*
X134321Y383679D01*
X135081Y384605D01*
X135645Y385662D01*
X135993Y386808D01*
X136110Y388000D01*
X136098Y388129D01*
X136433Y388500D01*
X153800D01*
X162875Y379426D01*
D02*
G37*
G36*
X151796Y330001D02*
X151796Y315204D01*
X131614D01*
X131442Y315479D01*
X131396Y315693D01*
X131999Y316296D01*
X149000D01*
X149461Y316387D01*
X149852Y316649D01*
X150113Y317039D01*
X150204Y317500D01*
Y318272D01*
X150224D01*
Y325752D01*
X150204D01*
Y330939D01*
X150666Y331131D01*
X151796Y330001D01*
D02*
G37*
G36*
X118500Y292138D02*
X117944Y291907D01*
X117413Y291500D01*
X112587D01*
X112057Y291907D01*
X111386Y292185D01*
X110667Y292280D01*
X109947Y292185D01*
X109500Y292000D01*
X105500Y296000D01*
Y303000D01*
X113500Y311000D01*
X118500D01*
Y292138D01*
D02*
G37*
G36*
X149000Y317500D02*
X131500D01*
X128500Y314500D01*
X128500Y284400D01*
X101500Y284400D01*
X101500Y290833D01*
X109313D01*
X109500Y290795D01*
X109687Y290833D01*
X111479D01*
X111854Y290545D01*
X111995Y290475D01*
X112126Y290387D01*
X112204Y290372D01*
X112276Y290337D01*
X112433Y290326D01*
X112587Y290296D01*
X117413D01*
X117567Y290326D01*
X117724Y290337D01*
X117796Y290372D01*
X117874Y290387D01*
X118005Y290475D01*
X118146Y290545D01*
X118521Y290833D01*
X121500D01*
Y313500D01*
X118000Y317000D01*
Y335000D01*
X127500Y344500D01*
X149000D01*
Y317500D01*
D02*
G37*
%LPC*%
G36*
X44870Y387870D02*
X36130D01*
Y379130D01*
X44870D01*
Y387870D01*
D02*
G37*
%LPD*%
G36*
X100000Y310500D02*
X95000D01*
Y316000D01*
X100000D01*
Y310500D01*
D02*
G37*
G36*
X86000Y311067D02*
X85855Y310718D01*
X85689Y310500D01*
X81000D01*
Y316000D01*
X86000D01*
Y311067D01*
D02*
G37*
G36*
X243794Y154737D02*
X243445Y154283D01*
X243209Y153714D01*
X226800D01*
X226144Y153584D01*
X225588Y153212D01*
X215311Y142935D01*
X214862Y143156D01*
X214908Y143500D01*
X214758Y144641D01*
X214317Y145704D01*
X213794Y146386D01*
X214040Y146886D01*
X214100D01*
X214756Y147016D01*
X215312Y147388D01*
X223110Y155186D01*
X243573D01*
X243794Y154737D01*
D02*
G37*
G36*
X243445Y139717D02*
X243831Y139214D01*
X243584Y138714D01*
X236200D01*
X235544Y138584D01*
X234988Y138212D01*
X220190Y123414D01*
X217691D01*
X217500Y123876D01*
X233910Y140286D01*
X243209D01*
X243445Y139717D01*
D02*
G37*
G36*
X243831Y134786D02*
X243445Y134283D01*
X242989Y133182D01*
X242833Y132000D01*
X242989Y130818D01*
X243225Y130249D01*
X234490Y121514D01*
X223791D01*
X223600Y121976D01*
X236910Y135286D01*
X243584D01*
X243831Y134786D01*
D02*
G37*
G36*
X192585Y117076D02*
X192393Y116614D01*
X152410D01*
X151538Y117486D01*
X151745Y117986D01*
X191675D01*
X192585Y117076D01*
D02*
G37*
D12*
X245100Y169700D02*
X247400Y172000D01*
X219700Y169700D02*
X245100D01*
X217300Y172100D02*
X219700Y169700D01*
X217300Y172100D02*
Y196600D01*
X215089Y198811D02*
X217300Y196600D01*
X215089Y198811D02*
Y205401D01*
X212290Y208200D02*
X215089Y205401D01*
X205200Y208200D02*
X212290D01*
X212611Y197879D02*
X215089Y195401D01*
X212611Y197879D02*
Y198089D01*
X208599D02*
X212611D01*
X205911Y195401D02*
X208599Y198089D01*
X200500Y203500D02*
X205200Y208200D01*
X252147Y166746D02*
X257400Y172000D01*
X219054Y166746D02*
X252147D01*
X215089Y170711D02*
X219054Y166746D01*
X215089Y170711D02*
Y195401D01*
X205911Y193694D02*
Y195401D01*
X205717Y193500D02*
X205911Y193694D01*
X200500Y193500D02*
X205717D01*
X217300Y330000D02*
X239687D01*
X252147Y324254D02*
X257400Y319000D01*
X245434Y324254D02*
X252147D01*
X239687Y330000D02*
X245434Y324254D01*
X189900Y357400D02*
X217300Y330000D01*
X189900Y357400D02*
Y388828D01*
X164500Y414228D02*
X189900Y388828D01*
X164500Y414228D02*
Y431628D01*
X160228Y435900D02*
X164500Y431628D01*
X109406Y441800D02*
X112800D01*
X118700Y435900D01*
X160228D01*
X109500Y422300D02*
X110000Y421800D01*
X238400Y328000D02*
X247400Y319000D01*
X216472Y328000D02*
X238400D01*
X187900Y356572D02*
X216472Y328000D01*
X187900Y356572D02*
Y388000D01*
X162500Y413400D02*
X187900Y388000D01*
X162500Y413400D02*
Y430800D01*
X159400Y433900D02*
X162500Y430800D01*
X245400Y319000D02*
X247400D01*
X109500Y422300D02*
Y424700D01*
X118700Y433900D01*
X159400D01*
X230100Y370714D02*
X231814Y369000D01*
X226386D02*
X228100Y370714D01*
X64551Y350600D02*
X66432D01*
X62700Y352451D02*
X64551Y350600D01*
X213400Y114900D02*
X214400Y115900D01*
X151700Y114900D02*
X213400D01*
X86800Y179800D02*
X151700Y114900D01*
X214714Y112900D02*
X215714Y113900D01*
X150500Y112900D02*
X214714D01*
X88600Y174800D02*
X150500Y112900D01*
X72800Y174800D02*
X88600D01*
X215714Y113900D02*
X237644D01*
X240997Y117253D01*
X256300Y122000D02*
X257400D01*
X240997Y117253D02*
X251554D01*
X256300Y122000D01*
X72800Y179800D02*
X86800D01*
X214400Y115900D02*
X236815D01*
X242915Y122000D01*
X247400D01*
X235200Y119800D02*
X247400Y132000D01*
X193213Y121700D02*
X195113Y119800D01*
X235200D01*
X152300Y121700D02*
X193213D01*
X252147Y126746D02*
X257400Y132000D01*
X236028Y117800D02*
X244975Y126746D01*
X252147D01*
X192385Y119700D02*
X194285Y117800D01*
X236028D01*
X151472Y119700D02*
X192385D01*
X40500Y210300D02*
Y213500D01*
Y210300D02*
X53500Y197300D01*
X40500Y183500D02*
X52300Y195300D01*
X53500Y197300D02*
X76700D01*
X152300Y121700D01*
X52300Y195300D02*
X75872D01*
X151472Y119700D01*
X228100Y370714D02*
Y482100D01*
X228928Y484100D02*
X230100Y482928D01*
Y370714D02*
Y482928D01*
X109406Y473800D02*
X111087D01*
X119387Y482100D01*
X228100D01*
X109406Y493300D02*
X111087D01*
X120287Y484100D01*
X228928D01*
X75305Y357500D02*
X80100D01*
X74405Y358400D02*
X75305Y357500D01*
X64691Y358251D02*
X68500D01*
X62700Y356260D02*
X64691Y358251D01*
X62700Y352451D02*
Y356260D01*
X68500Y358251D02*
Y358400D01*
X78700Y345100D02*
X83400Y340400D01*
X69373Y345100D02*
X78700D01*
X66432Y348041D02*
X69373Y345100D01*
X97500Y340400D02*
Y345000D01*
X89341Y353159D02*
X97500Y345000D01*
X66432Y353159D02*
X89341D01*
X36225Y353475D02*
X57652D01*
X20700Y369000D02*
X36225Y353475D01*
X57352Y347425D02*
X57968Y348041D01*
X37075Y347425D02*
X57352D01*
X17600Y366900D02*
X37075Y347425D01*
X17600Y366900D02*
Y410600D01*
X30500Y423500D01*
X20700Y403700D02*
X30500Y413500D01*
X20700Y369000D02*
Y403700D01*
X57652Y353475D02*
X57968Y353159D01*
X209400Y101400D02*
X236800D01*
X247400Y112000D01*
X195900Y121700D02*
X220900D01*
X189800Y127800D02*
X195900Y121700D01*
X199000Y124000D02*
X215200D01*
X192600Y130400D02*
X199000Y124000D01*
X220900Y121700D02*
X236200Y137000D01*
X215200Y124000D02*
X233200Y142000D01*
X86500Y441946D02*
Y448200D01*
X87800Y449500D01*
X226800Y152000D02*
X247400D01*
X213200Y138400D02*
X226800Y152000D01*
X205400Y138400D02*
X213200D01*
X200500Y133500D02*
X205400Y138400D01*
X214100Y148600D02*
X222400Y156900D01*
X205600Y148600D02*
X214100D01*
X200500Y143500D02*
X205600Y148600D01*
X222400Y156900D02*
X252500D01*
X252400Y137000D02*
X257400Y142000D01*
X236200Y137000D02*
X252400D01*
X189800Y127800D02*
Y152800D01*
X200500Y163500D01*
X233200Y142000D02*
X247400D01*
X192600Y130400D02*
Y145600D01*
X200500Y153500D01*
X252500Y156900D02*
X257400Y152000D01*
D17*
X109406Y473800D02*
X109906Y474300D01*
X90000Y493946D02*
Y499800D01*
X89500Y493446D02*
X90000Y493946D01*
X83400Y321400D02*
Y331400D01*
X97500Y321400D02*
Y331400D01*
X94500Y474154D02*
X94854Y473800D01*
X94500Y493446D02*
X94646Y493300D01*
X103500D01*
D19*
X82000Y463700D02*
D03*
X76000D02*
D03*
X81200Y453900D02*
D03*
X75200D02*
D03*
X82000Y505500D02*
D03*
X76000D02*
D03*
X81200Y410300D02*
D03*
X75200D02*
D03*
X85900Y505500D02*
D03*
X91900D02*
D03*
X85900Y463700D02*
D03*
X91900D02*
D03*
X84700Y453900D02*
D03*
X90700D02*
D03*
X84700Y410400D02*
D03*
X90700D02*
D03*
D20*
X68500Y358400D02*
D03*
X74405D02*
D03*
X101000Y299500D02*
D03*
X106905D02*
D03*
X109406Y493300D02*
D03*
X103500D02*
D03*
X109406Y473800D02*
D03*
X103500D02*
D03*
X109500Y422300D02*
D03*
X103595D02*
D03*
X109406Y441800D02*
D03*
X103500D02*
D03*
X116900Y294600D02*
D03*
X122806D02*
D03*
D21*
X57968Y353159D02*
D03*
X57968Y350600D02*
D03*
X57968Y348041D02*
D03*
X66432Y353159D02*
D03*
Y350600D02*
D03*
Y348041D02*
D03*
D22*
X94500Y493446D02*
D03*
X89500D02*
D03*
X84500D02*
D03*
X79500D02*
D03*
X94500Y474154D02*
D03*
X89500D02*
D03*
X84500D02*
D03*
X79500D02*
D03*
X76500Y422654D02*
D03*
X81500D02*
D03*
X86500D02*
D03*
X91500D02*
D03*
X76500Y441946D02*
D03*
X81500D02*
D03*
X86500D02*
D03*
X91500D02*
D03*
D23*
X150000Y66524D02*
D03*
Y44083D02*
D03*
X118000Y66524D02*
D03*
Y44083D02*
D03*
X86500Y66524D02*
D03*
Y44083D02*
D03*
D24*
X50799Y79441D02*
D03*
X26783D02*
D03*
Y34559D02*
D03*
X50799D02*
D03*
D25*
X144500Y295500D02*
D03*
Y341500D02*
D03*
D26*
X145500Y322012D02*
D03*
Y310988D02*
D03*
D27*
X115945Y306295D02*
D03*
X134055D02*
D03*
D28*
X125000D02*
D03*
D29*
X125000Y330705D02*
D03*
D30*
X83400Y331400D02*
D03*
Y340400D02*
D03*
X97500Y331400D02*
D03*
Y340400D02*
D03*
D31*
X62000Y425800D02*
D03*
Y440800D02*
D03*
X63000Y477300D02*
D03*
Y490800D02*
D03*
D32*
X71000Y480800D02*
D03*
Y486800D02*
D03*
Y499800D02*
D03*
Y493800D02*
D03*
Y468300D02*
D03*
Y474300D02*
D03*
X68500Y429800D02*
D03*
Y435800D02*
D03*
X69000Y416300D02*
D03*
Y422300D02*
D03*
Y448300D02*
D03*
Y442300D02*
D03*
X97500Y315400D02*
D03*
Y321400D02*
D03*
X83400Y315400D02*
D03*
Y321400D02*
D03*
D59*
X49700Y464000D02*
X63000Y477300D01*
X49700Y442700D02*
Y464000D01*
X40500Y433500D02*
X49700Y442700D01*
X58300Y490800D02*
X63000D01*
X48600Y481100D02*
X58300Y490800D01*
X48600Y471600D02*
Y481100D01*
X40500Y463500D02*
X48600Y471600D01*
D60*
X95800Y241300D02*
D03*
X75500Y261300D02*
D03*
X131800D02*
D03*
X152100Y241300D02*
D03*
D61*
X200500Y223500D02*
D03*
X30500Y133500D02*
D03*
X210500Y223500D02*
D03*
X40500Y133500D02*
D03*
X30500Y383500D02*
D03*
X210500Y473500D02*
D03*
X40500Y383500D02*
D03*
X200500Y473500D02*
D03*
D62*
Y213500D02*
D03*
Y203500D02*
D03*
Y193500D02*
D03*
Y183500D02*
D03*
Y173500D02*
D03*
Y163500D02*
D03*
Y153500D02*
D03*
Y143500D02*
D03*
Y133500D02*
D03*
X30500Y143500D02*
D03*
Y153500D02*
D03*
Y163500D02*
D03*
Y173500D02*
D03*
Y183500D02*
D03*
Y193500D02*
D03*
Y203500D02*
D03*
Y213500D02*
D03*
Y223500D02*
D03*
X210500Y213500D02*
D03*
Y203500D02*
D03*
Y193500D02*
D03*
Y183500D02*
D03*
Y173500D02*
D03*
Y163500D02*
D03*
Y153500D02*
D03*
Y143500D02*
D03*
Y133500D02*
D03*
X40500Y143500D02*
D03*
Y153500D02*
D03*
Y163500D02*
D03*
Y173500D02*
D03*
Y183500D02*
D03*
Y193500D02*
D03*
Y203500D02*
D03*
Y213500D02*
D03*
Y223500D02*
D03*
X30500Y393500D02*
D03*
Y403500D02*
D03*
Y413500D02*
D03*
Y423500D02*
D03*
Y433500D02*
D03*
Y443500D02*
D03*
Y453500D02*
D03*
Y463500D02*
D03*
Y473500D02*
D03*
X210500Y463500D02*
D03*
Y453500D02*
D03*
Y443500D02*
D03*
Y433500D02*
D03*
Y423500D02*
D03*
Y413500D02*
D03*
Y403500D02*
D03*
Y393500D02*
D03*
Y383500D02*
D03*
X40500Y393500D02*
D03*
Y403500D02*
D03*
Y413500D02*
D03*
Y423500D02*
D03*
Y433500D02*
D03*
Y443500D02*
D03*
Y453500D02*
D03*
Y463500D02*
D03*
Y473500D02*
D03*
X200500Y463500D02*
D03*
Y453500D02*
D03*
Y443500D02*
D03*
Y433500D02*
D03*
Y423500D02*
D03*
Y413500D02*
D03*
Y403500D02*
D03*
Y393500D02*
D03*
Y383500D02*
D03*
D63*
X79000Y150800D02*
D03*
X156800Y378100D02*
D03*
D64*
X69000Y150800D02*
D03*
X59000D02*
D03*
X166800Y378100D02*
D03*
X176800D02*
D03*
D65*
X247400Y319000D02*
D03*
X257400D02*
D03*
X247400Y309000D02*
D03*
X257400D02*
D03*
X247400Y122000D02*
D03*
X257400D02*
D03*
X247400Y132000D02*
D03*
X257400D02*
D03*
X179800Y452522D02*
D03*
X148304D02*
D03*
X179800Y428900D02*
D03*
X148304D02*
D03*
X257400Y162000D02*
D03*
Y172000D02*
D03*
X247400Y162000D02*
D03*
Y172000D02*
D03*
Y152000D02*
D03*
Y142000D02*
D03*
Y112000D02*
D03*
X257400Y152000D02*
D03*
Y142000D02*
D03*
Y279000D02*
D03*
Y289000D02*
D03*
Y299000D02*
D03*
X247400Y269000D02*
D03*
Y279000D02*
D03*
Y289000D02*
D03*
Y299000D02*
D03*
Y329000D02*
D03*
X257400D02*
D03*
X26783Y57000D02*
D03*
D66*
X257400Y112000D02*
D03*
Y269000D02*
D03*
D67*
X44500Y57000D02*
D03*
D68*
X231814Y369000D02*
D03*
X226386D02*
D03*
X72800Y174800D02*
D03*
Y179800D02*
D03*
X73300Y432300D02*
D03*
X75500Y484200D02*
D03*
X80100Y357500D02*
D03*
X209400Y101400D02*
D03*
X64700Y510700D02*
D03*
X87200Y483600D02*
D03*
X84300Y431600D02*
D03*
X68000Y402400D02*
D03*
X64500Y383800D02*
D03*
X44700Y350400D02*
D03*
X35204Y247668D02*
D03*
X38268Y250732D02*
D03*
X43532Y263532D02*
D03*
X47300Y259764D02*
D03*
X87800Y449500D02*
D03*
X93879Y29900D02*
D03*
X159700D02*
D03*
X227700Y223400D02*
D03*
X227800Y217900D02*
D03*
X222300Y202600D02*
D03*
X224200Y229200D02*
D03*
X240400Y190500D02*
D03*
X78000Y402400D02*
D03*
X54400Y406300D02*
D03*
Y412700D02*
D03*
X93500Y402300D02*
D03*
X98000Y402400D02*
D03*
X57600Y452700D02*
D03*
X99500Y458200D02*
D03*
X95500D02*
D03*
X63500Y457900D02*
D03*
X68700Y510700D02*
D03*
X51000Y350500D02*
D03*
X84500Y311500D02*
D03*
X82000D02*
D03*
X98500D02*
D03*
X96000D02*
D03*
X106333Y289500D02*
D03*
X102000D02*
D03*
X106333Y285700D02*
D03*
X102000D02*
D03*
X115000D02*
D03*
X110667D02*
D03*
Y289500D02*
D03*
X119333Y285700D02*
D03*
Y289500D02*
D03*
X128000Y285700D02*
D03*
X123667D02*
D03*
X128000Y289500D02*
D03*
X134384Y34500D02*
D03*
X129321D02*
D03*
X134384Y29900D02*
D03*
X129321D02*
D03*
X144510D02*
D03*
X139447D02*
D03*
X144510Y34500D02*
D03*
X139447D02*
D03*
X149573Y29900D02*
D03*
Y34500D02*
D03*
X154637Y29900D02*
D03*
X159700Y34500D02*
D03*
X154637D02*
D03*
X98942D02*
D03*
X104005D02*
D03*
X98942Y29900D02*
D03*
X104005D02*
D03*
X109068D02*
D03*
Y34500D02*
D03*
X119195Y29900D02*
D03*
X114131D02*
D03*
X119195Y34500D02*
D03*
X114131D02*
D03*
X124258Y29900D02*
D03*
Y34500D02*
D03*
X68563D02*
D03*
X63500D02*
D03*
X68563Y29900D02*
D03*
X63500D02*
D03*
X78689D02*
D03*
X73626D02*
D03*
X78689Y34500D02*
D03*
X73626D02*
D03*
X83753Y29900D02*
D03*
Y34500D02*
D03*
X88816Y29900D02*
D03*
X93879Y34500D02*
D03*
X88816D02*
D03*
X23360Y270896D02*
D03*
X27128Y267128D02*
D03*
X21000Y261000D02*
D03*
X24064Y264064D02*
D03*
X17232Y264768D02*
D03*
X20296Y267832D02*
D03*
X33096Y273096D02*
D03*
X30032Y270032D02*
D03*
X29328Y276864D02*
D03*
X26264Y273800D02*
D03*
X40468Y260468D02*
D03*
X44236Y256700D02*
D03*
X34500Y254500D02*
D03*
X31436Y251436D02*
D03*
X41332Y253796D02*
D03*
X37564Y257564D02*
D03*
X45000Y374800D02*
D03*
X40667D02*
D03*
X45000Y371500D02*
D03*
X40667D02*
D03*
X49333D02*
D03*
Y374800D02*
D03*
X81833Y387000D02*
D03*
X86167D02*
D03*
X81833Y383800D02*
D03*
X86167D02*
D03*
X77500Y387000D02*
D03*
Y383800D02*
D03*
X68833Y387000D02*
D03*
X73167D02*
D03*
X68833Y383800D02*
D03*
X73167D02*
D03*
X60167D02*
D03*
Y387000D02*
D03*
X64500D02*
D03*
X90000Y499800D02*
D03*
X142000Y279000D02*
D03*
X144500D02*
D03*
X147000D02*
D03*
X149500D02*
D03*
X90500D02*
D03*
X93000D02*
D03*
X95500D02*
D03*
X98000D02*
D03*
X59500Y438800D02*
D03*
Y443800D02*
D03*
X67000Y495300D02*
D03*
X66000Y472800D02*
D03*
X63500Y421800D02*
D03*
D69*
X105500Y251600D02*
D03*
X75500Y231600D02*
D03*
X131800D02*
D03*
X161800Y251600D02*
D03*
D70*
X15500Y508500D02*
D03*
Y18500D02*
D03*
X225500D02*
D03*
Y508500D02*
D03*
D71*
X130000Y388000D02*
D03*
X57600Y213200D02*
D03*
X120100Y123100D02*
D03*
M02*
