G04*
G04 #@! TF.GenerationSoftware,Altium Limited,Altium Designer,18.0.7 (293)*
G04*
G04 Layer_Physical_Order=2*
G04 Layer_Color=16711680*
%FSLAX25Y25*%
%MOIN*%
G70*
G01*
G75*
%ADD12C,0.01000*%
%ADD18R,0.07087X0.05118*%
%ADD19R,0.03000X0.03000*%
%ADD20R,0.03543X0.02362*%
%ADD21R,0.02362X0.03543*%
%ADD57C,0.07874*%
%ADD58C,0.05906*%
%ADD59R,0.05906X0.05906*%
%ADD60C,0.15748*%
%ADD61C,0.03500*%
%ADD62C,0.02756*%
G36*
X458500Y317500D02*
X458500Y302968D01*
X425355D01*
X425002Y303322D01*
X425738Y421500D01*
X458500D01*
Y317500D01*
D02*
G37*
G36*
X422500Y297000D02*
X418000D01*
X416500Y298500D01*
Y300500D01*
X410651D01*
X410218Y300679D01*
X409500Y300774D01*
X408782Y300679D01*
X408349Y300500D01*
X406651D01*
X406218Y300679D01*
X405500Y300774D01*
X404782Y300679D01*
X404349Y300500D01*
X402651D01*
X402218Y300679D01*
X401500Y300774D01*
X400782Y300679D01*
X400349Y300500D01*
X390000D01*
Y300000D01*
X388000Y298000D01*
X385000D01*
Y305000D01*
X422500D01*
Y297000D01*
D02*
G37*
G36*
X458000Y285500D02*
X425000D01*
Y300000D01*
X434000D01*
Y301000D01*
X458000D01*
Y285500D01*
D02*
G37*
G36*
X383980Y298000D02*
X384058Y297610D01*
X384279Y297279D01*
X384610Y297058D01*
X385000Y296980D01*
X387357D01*
X388913Y295424D01*
Y293728D01*
X393276D01*
Y299272D01*
X393689Y299480D01*
X400349D01*
X400740Y299558D01*
X401048Y299686D01*
X401500Y299745D01*
X401952Y299686D01*
X402260Y299558D01*
X402651Y299480D01*
X404349D01*
X404740Y299558D01*
X405048Y299686D01*
X405500Y299745D01*
X405952Y299686D01*
X406260Y299558D01*
X406651Y299480D01*
X408349D01*
X408740Y299558D01*
X409048Y299686D01*
X409500Y299745D01*
X409952Y299686D01*
X410260Y299558D01*
X410651Y299480D01*
X415480D01*
Y298500D01*
X415500Y298401D01*
X415500Y274500D01*
X353500D01*
X353500Y299837D01*
X358663Y305000D01*
X383980Y305000D01*
Y298000D01*
D02*
G37*
G36*
X395000Y248500D02*
X327000Y247500D01*
Y237500D01*
X319000D01*
X318500Y238000D01*
X318462Y237962D01*
X318000Y238153D01*
Y257000D01*
X395000D01*
Y248500D01*
D02*
G37*
D12*
X387500Y299000D02*
X390000Y296500D01*
X387500Y299000D02*
Y300000D01*
X390000Y296500D02*
X391094D01*
X399500D02*
X401500Y298500D01*
X333500Y245500D02*
X382000D01*
X333500Y240500D02*
Y245500D01*
X403000Y260500D02*
Y264500D01*
Y240500D02*
Y260500D01*
X343500Y240500D02*
X403000D01*
X382000Y245500D02*
X386000D01*
X334500Y283000D02*
X359000Y307500D01*
X324000Y283000D02*
X334500D01*
X319500Y272500D02*
X324000Y277000D01*
X314500Y272500D02*
X319500D01*
X314000Y290000D02*
X314500Y289500D01*
Y283500D02*
Y289500D01*
Y272500D02*
Y277594D01*
X397000Y296500D02*
X399500D01*
D18*
X429000Y296988D02*
D03*
Y308012D02*
D03*
D19*
X324000Y277000D02*
D03*
Y283000D02*
D03*
D20*
X314500Y277594D02*
D03*
Y283500D02*
D03*
X437500Y299594D02*
D03*
Y305500D02*
D03*
D21*
X397000Y296500D02*
D03*
X391094D02*
D03*
D57*
X453000Y297000D02*
D03*
Y307000D02*
D03*
D58*
X323500Y230500D02*
D03*
X333500D02*
D03*
X343500D02*
D03*
X323500Y240500D02*
D03*
X333500D02*
D03*
D59*
X343500D02*
D03*
D60*
X270500Y215500D02*
D03*
X470500D02*
D03*
X471500Y437000D02*
D03*
X271500Y436000D02*
D03*
D61*
X410500Y294000D02*
D03*
X406000D02*
D03*
X402000D02*
D03*
X420000Y299000D02*
D03*
X387500Y303000D02*
D03*
X401500Y298000D02*
D03*
X405500D02*
D03*
X409500D02*
D03*
X415000Y321000D02*
D03*
X391500D02*
D03*
X403000D02*
D03*
D62*
X387500Y300000D02*
D03*
X403000Y260500D02*
D03*
X382000Y245500D02*
D03*
X386000D02*
D03*
X391500Y250500D02*
D03*
X387500D02*
D03*
X403000Y264500D02*
D03*
X437000Y291000D02*
D03*
X433000D02*
D03*
X429000D02*
D03*
X438500Y399500D02*
D03*
Y395500D02*
D03*
X442500Y399500D02*
D03*
Y395500D02*
D03*
X446500Y399500D02*
D03*
Y395500D02*
D03*
X438500Y416500D02*
D03*
Y412500D02*
D03*
X442500Y416500D02*
D03*
Y412500D02*
D03*
X446500Y416500D02*
D03*
Y412500D02*
D03*
Y404500D02*
D03*
Y408500D02*
D03*
X442500Y404500D02*
D03*
Y408500D02*
D03*
X438500Y404500D02*
D03*
Y408500D02*
D03*
X378000Y299500D02*
D03*
X381500D02*
D03*
X378000Y303000D02*
D03*
X381500D02*
D03*
X359000Y307500D02*
D03*
X314500Y272500D02*
D03*
X314000Y290000D02*
D03*
X359500Y278500D02*
D03*
X363500D02*
D03*
X359500Y282500D02*
D03*
X363500D02*
D03*
X359500Y286500D02*
D03*
X363500D02*
D03*
X420000Y303000D02*
D03*
M02*
