G04*
G04 #@! TF.GenerationSoftware,Altium Limited,Altium Designer,18.0.7 (293)*
G04*
G04 Layer_Color=65535*
%FSLAX25Y25*%
%MOIN*%
G70*
G01*
G75*
%ADD10C,0.00394*%
%ADD11C,0.00787*%
%ADD12C,0.01000*%
%ADD13C,0.00500*%
%ADD14C,0.00315*%
%ADD15C,0.01600*%
%ADD16C,0.00800*%
%ADD17C,0.00591*%
D10*
X347012Y301563D02*
G03*
X347012Y301563I-197J0D01*
G01*
D11*
X378994Y262747D02*
G03*
X378994Y262747I-394J0D01*
G01*
X328350Y280622D02*
Y283968D01*
X334650Y280622D02*
Y283968D01*
X439500Y291000D02*
Y312906D01*
Y291000D02*
X465500Y291000D01*
X439500Y313000D02*
X465500D01*
Y291000D02*
Y313000D01*
X318500Y245500D02*
X348500D01*
Y225500D02*
Y245500D01*
X318500Y225500D02*
X348500D01*
X318500D02*
Y245500D01*
X287622Y254650D02*
X290968D01*
X287622Y248350D02*
X290968D01*
X348350Y271122D02*
Y274468D01*
X354650Y271122D02*
Y274468D01*
X348350Y292622D02*
Y295969D01*
X354650Y292622D02*
Y295969D01*
X458618Y329752D02*
Y428177D01*
X348382Y329752D02*
Y428177D01*
X420429Y329752D02*
X458618D01*
X348382D02*
X386571D01*
X348382Y428177D02*
X386571D01*
X420429D02*
X458618D01*
X263411Y394754D02*
X262755Y395410D01*
X261443D01*
X260787Y394754D01*
Y392130D01*
X261443Y391475D01*
X262755D01*
X263411Y392130D01*
Y393442D01*
X262099D01*
X265379Y391475D02*
X266691D01*
X267347Y392130D01*
Y393442D01*
X266691Y394098D01*
X265379D01*
X264723Y393442D01*
Y392130D01*
X265379Y391475D01*
X268659D02*
Y395410D01*
Y392786D02*
X270627Y394098D01*
X268659Y392786D02*
X270627Y391475D01*
X272595D02*
X274563D01*
X275218Y392130D01*
X274563Y392786D01*
X273251D01*
X272595Y393442D01*
X273251Y394098D01*
X275218D01*
X276530D02*
Y392130D01*
X277186Y391475D01*
X279154D01*
Y394098D01*
X284402Y395410D02*
Y391475D01*
Y392786D01*
X287026Y395410D01*
X285058Y393442D01*
X287026Y391475D01*
X288994Y394098D02*
X290305D01*
X290961Y393442D01*
Y391475D01*
X288994D01*
X288338Y392130D01*
X288994Y392786D01*
X290961D01*
X292273Y394098D02*
X293585Y391475D01*
X294897Y394098D01*
X296865D02*
X298177D01*
X298833Y393442D01*
Y391475D01*
X296865D01*
X296209Y392130D01*
X296865Y392786D01*
X298833D01*
X300145Y391475D02*
X301457D01*
X300801D01*
Y395410D01*
X300145D01*
X263411Y388798D02*
X260787D01*
Y384862D01*
X263411D01*
X260787Y386830D02*
X262099D01*
X264723Y384862D02*
Y387486D01*
X266691D01*
X267347Y386830D01*
Y384862D01*
X270627D02*
X269315D01*
X268659Y385518D01*
Y386830D01*
X269315Y387486D01*
X270627D01*
X271283Y386830D01*
Y386174D01*
X268659D01*
X272595Y384862D02*
X274563D01*
X275218Y385518D01*
X274563Y386174D01*
X273251D01*
X272595Y386830D01*
X273251Y387486D01*
X275218D01*
X280466Y384862D02*
Y387486D01*
X281778Y388798D01*
X283090Y387486D01*
Y384862D01*
Y386830D01*
X280466D01*
X284402Y387486D02*
Y385518D01*
X285058Y384862D01*
X287026D01*
Y384206D01*
X286370Y383550D01*
X285714D01*
X287026Y384862D02*
Y387486D01*
X288994D02*
X290305D01*
X290961Y386830D01*
Y384862D01*
X288994D01*
X288338Y385518D01*
X288994Y386174D01*
X290961D01*
X292273Y387486D02*
X294897D01*
X292273Y384862D01*
X294897D01*
X263411Y380873D02*
X260787D01*
Y378905D01*
X262099D01*
X260787D01*
Y376937D01*
X264723Y379561D02*
Y377593D01*
X265379Y376937D01*
X267347D01*
Y379561D01*
X268659D02*
Y376937D01*
Y378249D01*
X269315Y378905D01*
X269971Y379561D01*
X270627D01*
X272595Y376937D02*
Y380873D01*
Y378249D02*
X274563Y379561D01*
X272595Y378249D02*
X274563Y376937D01*
X277186Y379561D02*
X278498D01*
X279154Y378905D01*
Y376937D01*
X277186D01*
X276530Y377593D01*
X277186Y378249D01*
X279154D01*
X280466Y376937D02*
Y379561D01*
X282434D01*
X283090Y378905D01*
Y376937D01*
X288338Y380873D02*
Y376937D01*
Y378249D01*
X290961Y380873D01*
X288994Y378905D01*
X290961Y376937D01*
X292929Y379561D02*
X294241D01*
X294897Y378905D01*
Y376937D01*
X292929D01*
X292273Y377593D01*
X292929Y378249D01*
X294897D01*
X296209Y379561D02*
Y376937D01*
Y378249D01*
X296865Y378905D01*
X297521Y379561D01*
X298177D01*
X300801D02*
X302113D01*
X302769Y378905D01*
Y376937D01*
X300801D01*
X300145Y377593D01*
X300801Y378249D01*
X302769D01*
X304081Y376937D02*
Y380873D01*
Y378249D02*
X306048Y379561D01*
X304081Y378249D02*
X306048Y376937D01*
X308672Y379561D02*
X309984D01*
X310640Y378905D01*
Y376937D01*
X308672D01*
X308016Y377593D01*
X308672Y378249D01*
X310640D01*
X311952Y379561D02*
Y377593D01*
X312608Y376937D01*
X314576D01*
Y376281D01*
X313920Y375625D01*
X313264D01*
X314576Y376937D02*
Y379561D01*
X316544D02*
X317856D01*
X318512Y378905D01*
Y376937D01*
X316544D01*
X315888Y377593D01*
X316544Y378249D01*
X318512D01*
X263411Y365680D02*
X262755Y366336D01*
X261443D01*
X260787Y365680D01*
Y363056D01*
X261443Y362400D01*
X262755D01*
X263411Y363056D01*
X265379Y362400D02*
X266691D01*
X267347Y363056D01*
Y364368D01*
X266691Y365024D01*
X265379D01*
X264723Y364368D01*
Y363056D01*
X265379Y362400D01*
X268659D02*
X270627D01*
X271283Y363056D01*
X270627Y363712D01*
X269315D01*
X268659Y364368D01*
X269315Y365024D01*
X271283D01*
X272595Y362400D02*
X274563D01*
X275218Y363056D01*
X274563Y363712D01*
X273251D01*
X272595Y364368D01*
X273251Y365024D01*
X275218D01*
X283090Y365680D02*
X282434Y366336D01*
X281122D01*
X280466Y365680D01*
Y363056D01*
X281122Y362400D01*
X282434D01*
X283090Y363056D01*
X284402Y366336D02*
Y362400D01*
Y364368D01*
X285058Y365024D01*
X286370D01*
X287026Y364368D01*
Y362400D01*
X288994Y365024D02*
X290305D01*
X290961Y364368D01*
Y362400D01*
X288994D01*
X288338Y363056D01*
X288994Y363712D01*
X290961D01*
X292273Y365024D02*
Y362400D01*
Y363712D01*
X292929Y364368D01*
X293585Y365024D01*
X294241D01*
X296865D02*
X298177D01*
X298833Y364368D01*
Y362400D01*
X296865D01*
X296209Y363056D01*
X296865Y363712D01*
X298833D01*
X302769Y365024D02*
X300801D01*
X300145Y364368D01*
Y363056D01*
X300801Y362400D01*
X302769D01*
X304736Y365680D02*
Y365024D01*
X304081D01*
X305393D01*
X304736D01*
Y363056D01*
X305393Y362400D01*
X309328D02*
X308016D01*
X307360Y363056D01*
Y364368D01*
X308016Y365024D01*
X309328D01*
X309984Y364368D01*
Y363712D01*
X307360D01*
X311296Y365024D02*
Y362400D01*
Y363712D01*
X311952Y364368D01*
X312608Y365024D01*
X313264D01*
X315232Y362400D02*
X316544D01*
X315888D01*
Y365024D01*
X315232D01*
X318512D02*
X321135D01*
X318512Y362400D01*
X321135D01*
X323103Y365024D02*
X324415D01*
X325071Y364368D01*
Y362400D01*
X323103D01*
X322447Y363056D01*
X323103Y363712D01*
X325071D01*
X327039Y365680D02*
Y365024D01*
X326383D01*
X327695D01*
X327039D01*
Y363056D01*
X327695Y362400D01*
X329663D02*
X330975D01*
X330319D01*
Y365024D01*
X329663D01*
X333599Y362400D02*
X334910D01*
X335566Y363056D01*
Y364368D01*
X334910Y365024D01*
X333599D01*
X332943Y364368D01*
Y363056D01*
X333599Y362400D01*
X336878D02*
Y365024D01*
X338846D01*
X339502Y364368D01*
Y362400D01*
X263411Y355787D02*
X260787D01*
X263411Y358411D01*
Y359067D01*
X262755Y359723D01*
X261443D01*
X260787Y359067D01*
X264723D02*
X265379Y359723D01*
X266691D01*
X267347Y359067D01*
Y356443D01*
X266691Y355787D01*
X265379D01*
X264723Y356443D01*
Y359067D01*
X271283Y355787D02*
X268659D01*
X271283Y358411D01*
Y359067D01*
X270627Y359723D01*
X269315D01*
X268659Y359067D01*
X272595D02*
X273251Y359723D01*
X274563D01*
X275218Y359067D01*
Y356443D01*
X274563Y355787D01*
X273251D01*
X272595Y356443D01*
Y359067D01*
X329000Y248500D02*
Y252436D01*
X330968D01*
X331624Y251780D01*
Y250468D01*
X330968Y249812D01*
X329000D01*
X332936Y252436D02*
Y248500D01*
X334248Y249812D01*
X335560Y248500D01*
Y252436D01*
X336872Y248500D02*
Y252436D01*
X338183Y251124D01*
X339495Y252436D01*
Y248500D01*
X361624Y242436D02*
X359000D01*
Y238500D01*
X361624D01*
X359000Y240468D02*
X360312D01*
X362936Y238500D02*
Y242436D01*
X365560Y238500D01*
Y242436D01*
X304124D02*
X301500D01*
Y240468D01*
X302812Y241124D01*
X303468D01*
X304124Y240468D01*
Y239156D01*
X303468Y238500D01*
X302156D01*
X301500Y239156D01*
X305436Y242436D02*
Y239812D01*
X306748Y238500D01*
X308060Y239812D01*
Y242436D01*
X299624Y231780D02*
X298968Y232436D01*
X297656D01*
X297000Y231780D01*
Y229156D01*
X297656Y228500D01*
X298968D01*
X299624Y229156D01*
Y230468D01*
X298312D01*
X300936Y228500D02*
Y232436D01*
X303560Y228500D01*
Y232436D01*
X304872D02*
Y228500D01*
X306839D01*
X307495Y229156D01*
Y231780D01*
X306839Y232436D01*
X304872D01*
X361624Y231780D02*
X360968Y232436D01*
X359656D01*
X359000Y231780D01*
Y229156D01*
X359656Y228500D01*
X360968D01*
X361624Y229156D01*
Y230468D01*
X360312D01*
X362936Y228500D02*
Y232436D01*
X365560Y228500D01*
Y232436D01*
X366872D02*
Y228500D01*
X368839D01*
X369495Y229156D01*
Y231780D01*
X368839Y232436D01*
X366872D01*
D12*
X328350Y283968D02*
X334650D01*
X458000Y286500D02*
X460000Y284500D01*
X458000Y286500D02*
X460000Y288500D01*
X458000Y286500D02*
X458500Y286500D01*
X458000Y286500D02*
X465500D01*
X290968Y248350D02*
Y254650D01*
X324000Y267724D02*
Y298039D01*
X274158Y267724D02*
X324000D01*
X274000D02*
Y298039D01*
X274158D02*
X323764D01*
X338154Y295067D02*
X344748D01*
X348350Y274468D02*
X354650D01*
X379638Y267465D02*
Y279276D01*
X399323D01*
X379638Y267465D02*
X399323D01*
Y279276D01*
X348350Y295969D02*
X354650D01*
X472001Y293500D02*
Y297499D01*
Y304500D02*
Y308499D01*
X470002Y306499D02*
X474000D01*
X348400Y439163D02*
Y433165D01*
X352399D01*
X354398D02*
X356397D01*
X355398D01*
Y439163D01*
X354398Y438163D01*
D13*
X317800Y212000D02*
X324000D01*
X317200Y211800D02*
X324000Y211800D01*
X316600Y211600D02*
X324000D01*
X316000Y211400D02*
X323800Y211400D01*
X316000Y211200D02*
X323800D01*
X316000Y211000D02*
X323800D01*
X316200Y210800D02*
X323800D01*
X316200Y210600D02*
X323600D01*
X316200Y210400D02*
X323600D01*
X316400Y210200D02*
X323600D01*
X316400Y210000D02*
X323400Y210000D01*
X316600Y209800D02*
X323400D01*
X316600Y209600D02*
X323400Y209600D01*
X316800Y209400D02*
X323200D01*
X316800Y209200D02*
X323200Y209200D01*
X316800Y209000D02*
X323000Y209000D01*
X317000Y208800D02*
X322800D01*
X317000Y208600D02*
X322800D01*
X317200Y208400D02*
X322600D01*
X317200Y208200D02*
X322600Y208200D01*
X317400Y208000D02*
X322400D01*
X317400Y207800D02*
X322200Y207800D01*
X317600Y207600D02*
X322000D01*
X317600Y207400D02*
X321800D01*
X308000Y214000D02*
X315800D01*
X308000Y213800D02*
X316000D01*
X308000Y213600D02*
X316000Y213600D01*
X312800Y205600D02*
X317800Y205600D01*
X317600Y220000D02*
X318800Y220000D01*
X317600Y219800D02*
X319400D01*
X317800Y219600D02*
X319800Y219600D01*
X317800Y219400D02*
X320200D01*
X317800Y219200D02*
X320400Y219200D01*
X317800Y219000D02*
X320800D01*
X318000Y218800D02*
X321000D01*
X318000Y218600D02*
X321200D01*
X318000Y218400D02*
X321400D01*
X318000Y218200D02*
X321600D01*
X310000Y218000D02*
X314200D01*
X309800Y217800D02*
X314400D01*
X309600Y217600D02*
X314400D01*
X309600Y217400D02*
X314400Y217400D01*
X309400Y217200D02*
X314600Y217200D01*
X309200Y217000D02*
X314600Y217000D01*
X309200Y216800D02*
X314800D01*
X309000Y216600D02*
X314800D01*
X308800Y216400D02*
X314800D01*
X308800Y216200D02*
X315000D01*
X308600Y216000D02*
X315000D01*
X308600Y215800D02*
X315200Y215800D01*
X308600Y215600D02*
X315200D01*
X308400Y215400D02*
X315200D01*
X308400Y215200D02*
X315400D01*
X308200Y215000D02*
X315400D01*
X308200Y214800D02*
X315600D01*
X308200Y214600D02*
X315600D01*
X308200Y214400D02*
X315600D01*
X308000Y214200D02*
X315800D01*
X308000Y213400D02*
X316000Y213400D01*
X308000Y213200D02*
X315400D01*
X308000Y213000D02*
X315000D01*
X308000Y212800D02*
X314400D01*
X308000Y212600D02*
X314000D01*
X308000Y212400D02*
X313400D01*
X308000Y212200D02*
X313000Y212200D01*
X308000Y212000D02*
X312800D01*
X308000Y211800D02*
X313000Y211800D01*
X308000Y211600D02*
X313200D01*
X308000Y211400D02*
X313400D01*
X308000Y211200D02*
X313400D01*
X308200Y211000D02*
X313600D01*
X308200Y210800D02*
X313800D01*
X308200Y210600D02*
X314000D01*
X308200Y210400D02*
X314000D01*
X308400Y210200D02*
X314200D01*
X308400Y210000D02*
X314400Y210000D01*
X308600Y209800D02*
X314600Y209800D01*
X308600Y209600D02*
X314800Y209600D01*
X308800Y209400D02*
X314800D01*
X308800Y209200D02*
X315000Y209200D01*
X309000Y209000D02*
X315200Y209000D01*
X309000Y208800D02*
X315400D01*
X309200Y208600D02*
X315400D01*
X309200Y208400D02*
X315600Y208400D01*
X309400Y208200D02*
X315800Y208200D01*
X309600Y208000D02*
X316000D01*
X309800Y207800D02*
X316000D01*
X310000Y207600D02*
X316200D01*
X317600Y207200D02*
X321600D01*
X317800Y207000D02*
X321400Y207000D01*
X317800Y206800D02*
X321200D01*
X318000Y206600D02*
X321000D01*
X318000Y206400D02*
X320600D01*
X313400Y205400D02*
X318000D01*
X314000Y205200D02*
X317800Y205200D01*
X319200Y214000D02*
X323800Y214000D01*
X319200Y213800D02*
X323800D01*
X319200Y213600D02*
X324000D01*
X318200Y206000D02*
X320000Y206000D01*
X318200Y205800D02*
X319600D01*
X318400Y205600D02*
X319000D01*
X312000Y206000D02*
X317400Y206000D01*
X312400Y205800D02*
X317600D01*
X318200Y218000D02*
X321800Y218000D01*
X318200Y217800D02*
X322000Y217800D01*
X318200Y217600D02*
X322200D01*
X318200Y217400D02*
X322400D01*
X318400Y217200D02*
X322600D01*
X318400Y217000D02*
X322600D01*
X318400Y216800D02*
X322800D01*
X318600Y216600D02*
X323000D01*
X318600Y216400D02*
X323000D01*
X318600Y216200D02*
X323200D01*
X318600Y216000D02*
X323200D01*
X318800Y215800D02*
X323400Y215800D01*
X318800Y215600D02*
X323400Y215600D01*
X318800Y215400D02*
X323600D01*
X318800Y215200D02*
X323600Y215200D01*
X319000Y215000D02*
X323600D01*
X319000Y214800D02*
X323600Y214800D01*
X319000Y214600D02*
X323800D01*
X319000Y214400D02*
X323800Y214400D01*
X319200Y214200D02*
X323800D01*
X319400Y213400D02*
X324000Y213400D01*
X319400Y213200D02*
X324000D01*
X319400Y213000D02*
X324000D01*
X319400Y212800D02*
X324000D01*
X319200Y212600D02*
X324000D01*
X318800Y212400D02*
X324000D01*
X318400Y212200D02*
X324000D01*
X318200Y206200D02*
X320400Y206200D01*
X313000Y220000D02*
X313200Y220000D01*
X312600Y219800D02*
X313400D01*
X312000Y219600D02*
X313400D01*
X311800Y219400D02*
X313600D01*
X311400Y219200D02*
X313600Y219200D01*
X311200Y219000D02*
X313800D01*
X310800Y218800D02*
X313800D01*
X310600Y218600D02*
X314000D01*
X310400Y218400D02*
X314000D01*
X310200Y218200D02*
X314200D01*
X310200Y207400D02*
X316400Y207400D01*
X310200Y207200D02*
X316600D01*
X310600Y207000D02*
X316800D01*
X310800Y206800D02*
X316800D01*
X311000Y206600D02*
X317000D01*
X311400Y206400D02*
X317200D01*
X311600Y206200D02*
X317400D01*
X315000Y205000D02*
X316800D01*
X389700Y290000D02*
X390300D01*
X389700Y296000D02*
X390300D01*
X389700Y290000D02*
Y296000D01*
X393700Y290000D02*
X394300D01*
X393700Y296000D02*
X394300D01*
Y290000D02*
Y296000D01*
X348000Y304500D02*
Y312500D01*
X342000Y312000D02*
Y312500D01*
X351000Y312000D02*
Y312500D01*
X342000Y304500D02*
Y305000D01*
X351000Y304500D02*
Y305000D01*
X342000Y312500D02*
X351000D01*
X342000Y304500D02*
X351000D01*
X343200Y278000D02*
X343800D01*
X343200Y272000D02*
X343800D01*
Y278000D01*
X339200D02*
X339800D01*
X339200Y272000D02*
X339800D01*
X339200D02*
Y278000D01*
X384200Y290000D02*
X384800D01*
X384200Y296000D02*
X384800D01*
X384200Y290000D02*
Y296000D01*
X388200Y290000D02*
X388800D01*
X388200Y296000D02*
X388800D01*
Y290000D02*
Y296000D01*
X417279Y305063D02*
Y318055D01*
X416098D02*
X417279D01*
X389721D02*
X390902D01*
X389721Y305063D02*
Y318055D01*
X379700Y250000D02*
X380300D01*
X379700Y256000D02*
X380300D01*
X379700Y250000D02*
Y256000D01*
X383700Y250000D02*
X384300D01*
X383700Y256000D02*
X384300D01*
Y250000D02*
Y256000D01*
X403000Y247700D02*
Y248300D01*
X397000Y247700D02*
Y248300D01*
Y247700D02*
X403000D01*
Y251700D02*
Y252300D01*
X397000Y251700D02*
Y252300D01*
X403000D01*
X406000Y253000D02*
X414000D01*
X413500Y259000D02*
X414000D01*
X413500Y250000D02*
X414000D01*
X406000Y259000D02*
X406500D01*
X406000Y250000D02*
X406500D01*
X414000D02*
Y259000D01*
X406000Y250000D02*
Y259000D01*
D14*
X396228Y292953D02*
X399575Y292953D01*
X400756Y290000D02*
Y295905D01*
X400244Y295905D02*
X400756Y295905D01*
X400244Y290000D02*
X400756D01*
X395244Y295905D02*
X395756D01*
X395244Y290000D02*
X395756Y290000D01*
X395244Y290000D02*
Y295905D01*
X289547Y245772D02*
X289547Y242425D01*
X286595Y241244D02*
X292500D01*
X292500Y241756D02*
X292500Y241244D01*
X286595D02*
Y241756D01*
X292500Y246244D02*
Y246756D01*
X286595D02*
X286595Y246244D01*
X286595Y246756D02*
X292500D01*
X373228Y278953D02*
X376575Y278953D01*
X377756Y276000D02*
Y281906D01*
X377244Y281906D02*
X377756Y281906D01*
X377244Y276000D02*
X377756Y276000D01*
X372244Y281906D02*
X372756Y281906D01*
X372244Y276000D02*
X372756Y276000D01*
X372244Y276000D02*
Y281906D01*
X366744Y249594D02*
Y255500D01*
Y249594D02*
X367256Y249594D01*
X366744Y255500D02*
X367256D01*
X371744Y249594D02*
X372256D01*
X371744Y255500D02*
X372256Y255500D01*
Y249594D02*
Y255500D01*
X374425Y252452D02*
X377772Y252453D01*
X373244Y249500D02*
Y255405D01*
Y249500D02*
X373756Y249500D01*
X373244Y255405D02*
X373756D01*
X378244Y249500D02*
X378756D01*
X378244Y255405D02*
X378756Y255405D01*
Y249500D02*
Y255405D01*
X399953Y257575D02*
X399953Y254228D01*
X397000Y258756D02*
X402906D01*
X397000D02*
X397000Y258244D01*
X402906D02*
Y258756D01*
X397000Y253244D02*
Y253756D01*
X402906D02*
X402906Y253244D01*
X397000D02*
X402906D01*
X390047Y257772D02*
X390048Y254425D01*
X387094Y253244D02*
X393000D01*
X393000Y253756D02*
X393000Y253244D01*
X387094D02*
X387094Y253756D01*
X393000Y258244D02*
X393000Y258756D01*
X387094D02*
X387094Y258244D01*
X387094Y258756D02*
X393000D01*
X377744Y290000D02*
Y295905D01*
Y290000D02*
X378256Y290000D01*
X377744Y295905D02*
X378256D01*
X382744Y290000D02*
X383256D01*
X382744Y295905D02*
X383256Y295905D01*
Y290000D02*
Y295905D01*
X378728Y292953D02*
X382075Y292953D01*
D15*
X331300Y209000D02*
Y216997D01*
X333966Y214332D01*
X336632Y216997D01*
Y209000D01*
X344629Y216997D02*
X339297D01*
Y209000D01*
X344629D01*
X339297Y212999D02*
X341963D01*
X347295Y216997D02*
X352626D01*
X349961D01*
Y209000D01*
X355292Y216997D02*
Y210333D01*
X356625Y209000D01*
X359291D01*
X360624Y210333D01*
Y216997D01*
X371287Y209000D02*
Y216997D01*
X375286D01*
X376619Y215665D01*
Y212999D01*
X375286Y211666D01*
X371287D01*
X380617Y209000D02*
X383283D01*
X384616Y210333D01*
Y212999D01*
X383283Y214332D01*
X380617D01*
X379285Y212999D01*
Y210333D01*
X380617Y209000D01*
X387282Y214332D02*
Y210333D01*
X388615Y209000D01*
X389948Y210333D01*
X391281Y209000D01*
X392614Y210333D01*
Y214332D01*
X399278Y209000D02*
X396612D01*
X395279Y210333D01*
Y212999D01*
X396612Y214332D01*
X399278D01*
X400611Y212999D01*
Y211666D01*
X395279D01*
X403277Y214332D02*
Y209000D01*
Y211666D01*
X404610Y212999D01*
X405942Y214332D01*
X407275D01*
X411274Y216997D02*
Y209000D01*
X416606D01*
X420604Y214332D02*
X423270D01*
X424603Y212999D01*
Y209000D01*
X420604D01*
X419272Y210333D01*
X420604Y211666D01*
X424603D01*
X427269Y216997D02*
Y209000D01*
X431268D01*
X432600Y210333D01*
Y211666D01*
Y212999D01*
X431268Y214332D01*
X427269D01*
D16*
X315332Y232998D02*
X313666Y232165D01*
X312000Y230499D01*
Y228833D01*
X312833Y228000D01*
X314499D01*
X315332Y228833D01*
Y229666D01*
X314499Y230499D01*
X312000D01*
Y242165D02*
X312833Y242998D01*
X314499D01*
X315332Y242165D01*
Y241332D01*
X314499Y240499D01*
X313666D01*
X314499D01*
X315332Y239666D01*
Y238833D01*
X314499Y238000D01*
X312833D01*
X312000Y238833D01*
X351500Y238000D02*
X353166D01*
X352333D01*
Y242998D01*
X351500Y242165D01*
X353499Y228000D02*
Y232998D01*
X351000Y230499D01*
X354332D01*
D17*
X318500Y247500D02*
Y250649D01*
X320074D01*
X320599Y250124D01*
Y249074D01*
X320074Y248550D01*
X318500D01*
X321649Y247500D02*
X322698D01*
X322173D01*
Y250649D01*
X321649Y250124D01*
X370000Y264149D02*
Y261525D01*
X370525Y261000D01*
X371574D01*
X372099Y261525D01*
Y264149D01*
X375248Y261000D02*
X373149D01*
X375248Y263099D01*
Y263624D01*
X374723Y264149D01*
X373673D01*
X373149Y263624D01*
X267000Y297649D02*
Y295025D01*
X267525Y294500D01*
X268574D01*
X269099Y295025D01*
Y297649D01*
X270149Y294500D02*
X271198D01*
X270673D01*
Y297649D01*
X270149Y297124D01*
X397000Y238000D02*
Y241149D01*
X398574D01*
X399099Y240624D01*
Y239574D01*
X398574Y239050D01*
X397000D01*
X398049D02*
X399099Y238000D01*
X400149D02*
X401198D01*
X400673D01*
Y241149D01*
X400149Y240624D01*
X404872Y238000D02*
X402772D01*
X404872Y240099D01*
Y240624D01*
X404347Y241149D01*
X403297D01*
X402772Y240624D01*
X350500Y255000D02*
X353649D01*
Y253426D01*
X353124Y252901D01*
X352074D01*
X351550Y253426D01*
Y255000D01*
Y253951D02*
X350500Y252901D01*
X351025Y251851D02*
X350500Y251327D01*
Y250277D01*
X351025Y249752D01*
X353124D01*
X353649Y250277D01*
Y251327D01*
X353124Y251851D01*
X352599D01*
X352074Y251327D01*
Y249752D01*
X376500Y290500D02*
X373351D01*
Y292074D01*
X373876Y292599D01*
X374926D01*
X375450Y292074D01*
Y290500D01*
Y291549D02*
X376500Y292599D01*
X373351Y293649D02*
Y295748D01*
X373876D01*
X375975Y293649D01*
X376500D01*
X361500Y255000D02*
X364649D01*
Y253426D01*
X364124Y252901D01*
X363074D01*
X362549Y253426D01*
Y255000D01*
Y253951D02*
X361500Y252901D01*
X364649Y249752D02*
X364124Y250802D01*
X363074Y251851D01*
X362025D01*
X361500Y251327D01*
Y250277D01*
X362025Y249752D01*
X362549D01*
X363074Y250277D01*
Y251851D01*
X405000Y285500D02*
X401851D01*
Y287074D01*
X402376Y287599D01*
X403426D01*
X403951Y287074D01*
Y285500D01*
Y286549D02*
X405000Y287599D01*
Y290223D02*
X401851D01*
X403426Y288649D01*
Y290748D01*
X338500Y264500D02*
Y267649D01*
X340074D01*
X340599Y267124D01*
Y266074D01*
X340074Y265549D01*
X338500D01*
X339549D02*
X340599Y264500D01*
X343748D02*
X341649D01*
X343748Y266599D01*
Y267124D01*
X343223Y267649D01*
X342173D01*
X341649Y267124D01*
X386599Y315525D02*
Y317624D01*
X386074Y318149D01*
X385025D01*
X384500Y317624D01*
Y315525D01*
X385025Y315000D01*
X386074D01*
X385549Y316050D02*
X386599Y315000D01*
X386074D02*
X386599Y315525D01*
X387649Y315000D02*
X388698D01*
X388173D01*
Y318149D01*
X387649Y317624D01*
X416000Y256649D02*
Y253500D01*
X418099D01*
X421248Y256649D02*
X419149D01*
Y253500D01*
X421248D01*
X419149Y255074D02*
X420198D01*
X422297Y256649D02*
Y253500D01*
X423872D01*
X424396Y254025D01*
Y256124D01*
X423872Y256649D01*
X422297D01*
X427545Y253500D02*
X425446D01*
X427545Y255599D01*
Y256124D01*
X427020Y256649D01*
X425971D01*
X425446Y256124D01*
X341500Y317649D02*
Y314500D01*
X343599D01*
X346748Y317649D02*
X344649D01*
Y314500D01*
X346748D01*
X344649Y316074D02*
X345698D01*
X347797Y317649D02*
Y314500D01*
X349372D01*
X349896Y315025D01*
Y317124D01*
X349372Y317649D01*
X347797D01*
X350946Y314500D02*
X351995D01*
X351470D01*
Y317649D01*
X350946Y317124D01*
X331500Y302149D02*
Y299000D01*
X333074D01*
X333599Y299525D01*
Y301624D01*
X333074Y302149D01*
X331500D01*
X334649Y299000D02*
X335698D01*
X335173D01*
Y302149D01*
X334649Y301624D01*
X399099Y245624D02*
X398574Y246149D01*
X397525D01*
X397000Y245624D01*
Y243525D01*
X397525Y243000D01*
X398574D01*
X399099Y243525D01*
X400149Y243000D02*
X401198D01*
X400673D01*
Y246149D01*
X400149Y245624D01*
X402772D02*
X403297Y246149D01*
X404347D01*
X404872Y245624D01*
Y245099D01*
X404347Y244574D01*
X403822D01*
X404347D01*
X404872Y244050D01*
Y243525D01*
X404347Y243000D01*
X403297D01*
X402772Y243525D01*
X407876Y285099D02*
X407351Y284574D01*
Y283525D01*
X407876Y283000D01*
X409975D01*
X410500Y283525D01*
Y284574D01*
X409975Y285099D01*
X410500Y286149D02*
Y287198D01*
Y286673D01*
X407351D01*
X407876Y286149D01*
X410500Y290872D02*
Y288772D01*
X408401Y290872D01*
X407876D01*
X407351Y290347D01*
Y289297D01*
X407876Y288772D01*
X358624Y252901D02*
X359149Y253426D01*
Y254475D01*
X358624Y255000D01*
X356525D01*
X356000Y254475D01*
Y253426D01*
X356525Y252901D01*
X356000Y251851D02*
Y250802D01*
Y251327D01*
X359149D01*
X358624Y251851D01*
X356000Y249228D02*
Y248178D01*
Y248703D01*
X359149D01*
X358624Y249228D01*
X390376Y241599D02*
X389851Y241074D01*
Y240025D01*
X390376Y239500D01*
X392475D01*
X393000Y240025D01*
Y241074D01*
X392475Y241599D01*
X393000Y242649D02*
Y243698D01*
Y243173D01*
X389851D01*
X390376Y242649D01*
Y245272D02*
X389851Y245797D01*
Y246847D01*
X390376Y247372D01*
X392475D01*
X393000Y246847D01*
Y245797D01*
X392475Y245272D01*
X390376D01*
X368876Y292005D02*
X368351Y291480D01*
Y290430D01*
X368876Y289906D01*
X370975D01*
X371500Y290430D01*
Y291480D01*
X370975Y292005D01*
Y293054D02*
X371500Y293579D01*
Y294628D01*
X370975Y295153D01*
X368876D01*
X368351Y294628D01*
Y293579D01*
X368876Y293054D01*
X369401D01*
X369926Y293579D01*
Y295153D01*
X359599Y267624D02*
X359074Y268149D01*
X358025D01*
X357500Y267624D01*
Y265525D01*
X358025Y265000D01*
X359074D01*
X359599Y265525D01*
X360649Y267624D02*
X361173Y268149D01*
X362223D01*
X362748Y267624D01*
Y267099D01*
X362223Y266574D01*
X362748Y266050D01*
Y265525D01*
X362223Y265000D01*
X361173D01*
X360649Y265525D01*
Y266050D01*
X361173Y266574D01*
X360649Y267099D01*
Y267624D01*
X361173Y266574D02*
X362223D01*
X279599Y245124D02*
X279074Y245649D01*
X278025D01*
X277500Y245124D01*
Y243025D01*
X278025Y242500D01*
X279074D01*
X279599Y243025D01*
X280649Y245649D02*
X282748D01*
Y245124D01*
X280649Y243025D01*
Y242500D01*
X275099Y252624D02*
X274574Y253149D01*
X273525D01*
X273000Y252624D01*
Y250525D01*
X273525Y250000D01*
X274574D01*
X275099Y250525D01*
X278248Y253149D02*
X277198Y252624D01*
X276149Y251574D01*
Y250525D01*
X276673Y250000D01*
X277723D01*
X278248Y250525D01*
Y251049D01*
X277723Y251574D01*
X276149D01*
X368376Y278099D02*
X367851Y277574D01*
Y276525D01*
X368376Y276000D01*
X370475D01*
X371000Y276525D01*
Y277574D01*
X370475Y278099D01*
X367851Y281248D02*
Y279149D01*
X369426D01*
X368901Y280198D01*
Y280723D01*
X369426Y281248D01*
X370475D01*
X371000Y280723D01*
Y279673D01*
X370475Y279149D01*
X331099Y295124D02*
X330574Y295649D01*
X329525D01*
X329000Y295124D01*
Y293025D01*
X329525Y292500D01*
X330574D01*
X331099Y293025D01*
X333723Y292500D02*
Y295649D01*
X332149Y294074D01*
X334248D01*
X359099Y301624D02*
X358574Y302149D01*
X357525D01*
X357000Y301624D01*
Y299525D01*
X357525Y299000D01*
X358574D01*
X359099Y299525D01*
X360149Y301624D02*
X360673Y302149D01*
X361723D01*
X362248Y301624D01*
Y301099D01*
X361723Y300574D01*
X361198D01*
X361723D01*
X362248Y300049D01*
Y299525D01*
X361723Y299000D01*
X360673D01*
X360149Y299525D01*
M02*
