G04*
G04 #@! TF.GenerationSoftware,Altium Limited,Altium Designer,18.0.7 (293)*
G04*
G04 Layer_Color=32896*
%FSLAX25Y25*%
%MOIN*%
G70*
G01*
G75*
%ADD11C,0.00787*%
%ADD12C,0.01000*%
%ADD13C,0.00500*%
%ADD14C,0.00315*%
%ADD17C,0.00591*%
D11*
X432150Y301122D02*
Y304468D01*
X425850Y301122D02*
Y304468D01*
D12*
X432150D01*
D13*
X326300Y283000D02*
X326300Y277000D01*
X325700D02*
X326300D01*
X325700Y283000D02*
X326300Y283000D01*
X321700Y277000D02*
X321700Y283000D01*
X321700Y277000D02*
X322300D01*
X321700Y283000D02*
X322300Y283000D01*
D14*
X311744Y277594D02*
Y283500D01*
X312256Y283500D01*
X311744Y277594D02*
X312256D01*
X316744Y283500D02*
X317256D01*
X316744Y277594D02*
X317256Y277594D01*
Y283500D01*
X391094Y293744D02*
X397000D01*
X391094D02*
X391094Y294256D01*
X397000D02*
X397000Y293744D01*
X391094Y299256D02*
X391094Y298744D01*
X397000D02*
X397000Y299256D01*
X391094D02*
X397000D01*
X434744Y299594D02*
Y305500D01*
X435256Y305500D01*
X434744Y299594D02*
X435256D01*
X439744Y305500D02*
X440256D01*
X439744Y299594D02*
X440256Y299594D01*
Y305500D01*
X435728Y302547D02*
X439075Y302547D01*
D17*
X398000Y288000D02*
Y291149D01*
X396426D01*
X395901Y290624D01*
Y289574D01*
X396426Y289050D01*
X398000D01*
X396951D02*
X395901Y288000D01*
X394851D02*
X393802D01*
X394327D01*
Y291149D01*
X394851Y290624D01*
X392228D02*
X391703Y291149D01*
X390653D01*
X390128Y290624D01*
Y288525D01*
X390653Y288000D01*
X391703D01*
X392228Y288525D01*
Y290624D01*
X335000Y278500D02*
Y281649D01*
X333426D01*
X332901Y281124D01*
Y280074D01*
X333426Y279550D01*
X335000D01*
X333950D02*
X332901Y278500D01*
X331851Y281124D02*
X331327Y281649D01*
X330277D01*
X329752Y281124D01*
Y280599D01*
X330277Y280074D01*
X330802D01*
X330277D01*
X329752Y279550D01*
Y279025D01*
X330277Y278500D01*
X331327D01*
X331851Y279025D01*
X308500Y279000D02*
Y282149D01*
X306926D01*
X306401Y281624D01*
Y280574D01*
X306926Y280049D01*
X308500D01*
X307451D02*
X306401Y279000D01*
X305351D02*
X304302D01*
X304827D01*
Y282149D01*
X305351Y281624D01*
X437901Y311624D02*
X438426Y312149D01*
X439475D01*
X440000Y311624D01*
Y309525D01*
X439475Y309000D01*
X438426D01*
X437901Y309525D01*
X434752Y309000D02*
X436851D01*
X434752Y311099D01*
Y311624D01*
X435277Y312149D01*
X436327D01*
X436851Y311624D01*
X428901Y316124D02*
X429426Y316649D01*
X430475D01*
X431000Y316124D01*
Y314025D01*
X430475Y313500D01*
X429426D01*
X428901Y314025D01*
X427851Y313500D02*
X426802D01*
X427327D01*
Y316649D01*
X427851Y316124D01*
M02*
