<?xml version="1.0" encoding="UTF-8" standalone="no"?>
<!DOCTYPE svg PUBLIC "-//W3C//DTD SVG 1.1//EN" "http://www.w3.org/Graphics/SVG/1.1/DTD/svg11.dtd">
<!-- Generated by Microsoft Visio, SVG Export Thesis converter.svg Page-1 -->
<svg xmlns="http://www.w3.org/2000/svg" xmlns:xlink="http://www.w3.org/1999/xlink" xmlns:ev="http://www.w3.org/2001/xml-events"
		xmlns:v="http://schemas.microsoft.com/visio/2003/SVGExtensions/" width="5.3914in" height="3.75111in"
		viewBox="0 0 388.181 270.08" xml:space="preserve" color-interpolation-filters="sRGB" class="st16">
	<v:documentProperties v:langID="1055" v:metric="true" v:viewMarkup="false">
		<v:userDefs>
			<v:ud v:nameU="msvNoAutoConnect" v:val="VT0(1):26"/>
		</v:userDefs>
	</v:documentProperties>

	<style type="text/css">
	<![CDATA[
		.st1 {stroke:#000000;stroke-linecap:round;stroke-linejoin:round;stroke-width:0.75}
		.st2 {stroke:#000000;stroke-dasharray:5.25,3.75;stroke-linecap:round;stroke-linejoin:round;stroke-width:0.75}
		.st3 {marker-start:url(#mrkr5-28);stroke:#000000;stroke-linecap:round;stroke-linejoin:round;stroke-width:0.75}
		.st4 {fill:#000000;fill-opacity:1;stroke:#000000;stroke-opacity:1;stroke-width:0.34246575342466}
		.st5 {fill:#000000;stroke:#000000;stroke-linecap:round;stroke-linejoin:round;stroke-width:0.75}
		.st6 {fill:#000000}
		.st7 {stroke:#000000;stroke-linecap:butt;stroke-width:1.02047}
		.st8 {visibility:visible}
		.st9 {fill:none;filter:url(#filter_2);stroke:#5b9bd5;stroke-opacity:0.22}
		.st10 {stroke:#000000;stroke-width:1}
		.st11 {fill:none;stroke:none;stroke-linecap:butt;stroke-width:0.810709}
		.st12 {fill:#000000;font-family:Calibri;font-size:1.16666em;font-weight:bold}
		.st13 {fill:none;stroke:none;stroke-linecap:round;stroke-linejoin:round;stroke-width:0.75}
		.st14 {fill:#000000;font-family:Calibri;font-size:1.99999em;font-weight:bold}
		.st15 {baseline-shift:-32.4951%;font-size:0.649901em}
		.st16 {fill:none;fill-rule:evenodd;font-size:12px;overflow:visible;stroke-linecap:square;stroke-miterlimit:3}
	]]>
	</style>

	<defs id="Markers">
		<g id="lend5">
			<path d="M 2 1 L 0 0 L 1.98117 -0.993387 C 1.67173 -0.364515 1.67301 0.372641 1.98465 1.00043 " style="stroke:none"/>
		</g>
		<marker id="mrkr5-28" class="st4" v:arrowType="5" v:arrowSize="0" v:setback="0" refX="0" orient="auto"
				markerUnits="strokeWidth" overflow="visible">
			<use xlink:href="#lend5" transform="scale(2.92) "/>
		</marker>
	</defs>
	<defs id="Filters">
		<filter id="filter_2">
			<feGaussianBlur stdDeviation="2"/>
		</filter>
	</defs>
	<g v:mID="0" v:index="1" v:groupContext="foregroundPage">
		<v:userDefs>
			<v:ud v:nameU="AccumulatorCount" v:prompt="" v:val="VT0(3):26"/>
		</v:userDefs>
		<title>Page-1</title>
		<v:pageProperties v:drawingScale="0.0393701" v:pageScale="0.0393701" v:drawingUnits="24" v:shadowOffsetX="8.50394"
				v:shadowOffsetY="-8.50394"/>
		<v:layer v:name="Elektrik" v:index="0"/>
		<v:layer v:name="Electrical" v:index="1"/>
		<g id="group2-1" transform="translate(138.962,-214.756)" v:mID="2" v:groupContext="group">
			<title>Sheet.2</title>
			<g id="shape3-2" v:mID="3" v:groupContext="shape" transform="translate(-1.59872E-14,-11.3386)">
				<title>Sheet.3</title>
				<path d="M0 270.08 L11.34 270.08" class="st1"/>
			</g>
			<g id="shape4-5" v:mID="4" v:groupContext="shape" transform="translate(281.419,240.883) rotate(90)">
				<title>Sheet.4</title>
				<path d="M0 270.08 L17.86 270.08" class="st1"/>
			</g>
			<g id="shape5-8" v:mID="5" v:groupContext="shape" transform="translate(284.253,238.332) rotate(90)">
				<title>Sheet.5</title>
				<path d="M0 270.08 L23.24 270.08" class="st2"/>
			</g>
			<g id="shape6-11" v:mID="6" v:groupContext="shape" transform="translate(22.6772,528.822) rotate(180)">
				<title>Sheet.6</title>
				<path d="M0 270.08 L8.5 270.08" class="st1"/>
			</g>
			<g id="shape7-14" v:mID="7" v:groupContext="shape" transform="translate(22.6772,510.963) rotate(180)">
				<title>Sheet.7</title>
				<path d="M0 270.08 L8.5 270.08" class="st1"/>
			</g>
			<g id="shape8-17" v:mID="8" v:groupContext="shape" transform="translate(-247.403,240.883) rotate(-90)">
				<title>Sheet.8</title>
				<path d="M0 270.08 L11.34 270.08" class="st1"/>
			</g>
			<g id="shape9-20" v:mID="9" v:groupContext="shape" transform="translate(-247.403,285.245) rotate(-90)">
				<title>Sheet.9</title>
				<path d="M0 270.08 L26.5 270.08" class="st1"/>
			</g>
			<g id="shape10-23" v:mID="10" v:groupContext="shape" transform="translate(21.2598,528.822) rotate(180)">
				<title>Sheet.10</title>
				<path d="M0 270.08 L0.71 270.08" class="st3"/>
			</g>
		</g>
		<g id="group11-29" transform="translate(138.962,-159.055)" v:mID="11" v:groupContext="group">
			<title>Sheet.11</title>
			<g id="shape12-30" v:mID="12" v:groupContext="shape" transform="translate(-1.59872E-14,-11.3386)">
				<title>Sheet.12</title>
				<path d="M0 270.08 L11.34 270.08" class="st1"/>
			</g>
			<g id="shape13-33" v:mID="13" v:groupContext="shape" transform="translate(281.419,240.883) rotate(90)">
				<title>Sheet.13</title>
				<path d="M0 270.08 L17.86 270.08" class="st1"/>
			</g>
			<g id="shape14-36" v:mID="14" v:groupContext="shape" transform="translate(284.253,238.332) rotate(90)">
				<title>Sheet.14</title>
				<path d="M0 270.08 L23.24 270.08" class="st2"/>
			</g>
			<g id="shape15-39" v:mID="15" v:groupContext="shape" transform="translate(22.6772,528.822) rotate(180)">
				<title>Sheet.15</title>
				<path d="M0 270.08 L8.5 270.08" class="st1"/>
			</g>
			<g id="shape16-42" v:mID="16" v:groupContext="shape" transform="translate(22.6772,510.963) rotate(180)">
				<title>Sheet.16</title>
				<path d="M0 270.08 L8.5 270.08" class="st1"/>
			</g>
			<g id="shape17-45" v:mID="17" v:groupContext="shape" transform="translate(-247.403,240.883) rotate(-90)">
				<title>Sheet.17</title>
				<path d="M0 270.08 L11.34 270.08" class="st1"/>
			</g>
			<g id="shape18-48" v:mID="18" v:groupContext="shape" transform="translate(-247.403,270.08) rotate(-90)">
				<title>Sheet.18</title>
				<path d="M0 270.08 L11.34 270.08" class="st1"/>
			</g>
			<g id="shape19-51" v:mID="19" v:groupContext="shape" transform="translate(21.2598,528.822) rotate(180)">
				<title>Sheet.19</title>
				<path d="M0 270.08 L0.71 270.08" class="st3"/>
			</g>
		</g>
		<g id="shape26-56" v:mID="26" v:groupContext="shape" transform="translate(45.7293,-268.456)">
			<title>Sheet.26</title>
			<path d="M0 270.08 L167.05 270.08" class="st1"/>
		</g>
		<g id="shape27-59" v:mID="27" v:groupContext="shape" transform="translate(431.72,1.6242) rotate(90)">
			<title>Sheet.27</title>
			<path d="M0 270.08 L13.16 270.08" class="st1"/>
		</g>
		<g id="shape28-62" v:mID="28" v:groupContext="shape" transform="translate(431.72,111.025) rotate(90)">
			<title>Sheet.28</title>
			<path d="M0 270.08 L13.16 270.08" class="st1"/>
		</g>
		<g id="shape29-65" v:mID="29" v:groupContext="shape" transform="translate(45.7293,-145.89)">
			<title>Sheet.29</title>
			<path d="M0 270.08 L167.05 270.08" class="st1"/>
		</g>
		<g id="shape30-68" v:mID="30" v:groupContext="shape" transform="translate(160.771,-204.25)">
			<title>Sheet.30</title>
			<ellipse cx="0.86811" cy="269.212" rx="0.86811" ry="0.86811" class="st5"/>
		</g>
		<g id="group31-70" transform="translate(241.145,-60.8698)" v:mID="31" v:groupContext="group" v:layerMember="0">
			<v:custProps>
				<v:cp v:nameU="Core" v:lbl="Çekirdek" v:type="1" v:format="Hava;Manyetik;Boşluklu Manyetik" v:langID="1055"
						v:val="VT4(Hava)"/>
				<v:cp v:nameU="Adjustability" v:lbl="Ayarlanabilirlik" v:type="1"
						v:format="Sabit;Ayarlanabilir;Sürekli Ayarlanabilir" v:langID="1055" v:val="VT4(Sabit)"/>
				<v:cp v:nameU="Taps" v:lbl="Çıkmalar" v:type="1" v:format="0;1;2;3" v:langID="1055" v:val="VT4(0)"/>
			</v:custProps>
			<v:userDefs>
				<v:ud v:nameU="Core" v:val="VT0(0):26"/>
				<v:ud v:nameU="Adjustability" v:val="VT0(0):26"/>
				<v:ud v:nameU="visVersion" v:val="VT0(15):26"/>
				<v:ud v:nameU="visDescription" v:val="VT4(Inductor)"/>
			</v:userDefs>
			<title>Endüktör.168</title>
			<g id="shape32-71" v:mID="32" v:groupContext="shape" v:layerMember="0">
				<title>Sheet.32</title>
				<path d="M0 270.08 A3.54614 4.08856 0 1 1 7.09 270.08 A3.54614 4.08856 0 1 1 14.17 270.08 A3.54614 4.08856 0 1 1
							 21.26 270.08 A3.54614 4.08856 0 1 1 28.35 270.08" class="st1"/>
			</g>
			<g id="shape33-74" v:mID="33" v:groupContext="shape" v:layerMember="0" transform="translate(13.6639,4.78346)">
				<title>Sheet.33</title>
			</g>
			<g id="shape34-76" v:mID="34" v:groupContext="shape" v:layerMember="0"
					transform="translate(-186.229,87.5426) rotate(-45)">
				<title>Sheet.34</title>
			</g>
		</g>
		<g id="shape67-78" v:mID="67" v:groupContext="shape" transform="translate(345.399,1.67882) rotate(90)">
			<title>Sheet.67</title>
			<path d="M0 270.08 L43.7 270.08" class="st1"/>
		</g>
		<g id="shape69-81" v:mID="69" v:groupContext="shape" transform="translate(345.399,70.8889) rotate(90)">
			<title>Sheet.69</title>
			<path d="M0 270.08 L53.3 270.08" class="st1"/>
		</g>
		<g id="shape145-84" v:mID="145" v:groupContext="shape" v:layerMember="1" transform="translate(62.5628,315.457) scale(1,-1)">
			<title>Capacitor</title>
			<v:custProps>
				<v:cp v:nameU="Label" v:lbl="Label" v:prompt="" v:type="0" v:format="@" v:sortKey="" v:invis="false" v:ask="false"
						v:langID="1033" v:cal="0" v:val="VT4()"/>
			</v:custProps>
			<v:userDefs>
				<v:ud v:nameU="Form" v:val="VT0(0):26"/>
				<v:ud v:nameU="Type" v:val="VT0(0):26"/>
				<v:ud v:nameU="visDescription" v:val="VT4(Represents a fixed or variable capacitor.)"/>
				<v:ud v:nameU="visVersion" v:val="VT0(15):26"/>
				<v:ud v:nameU="Label" v:prompt="" v:val="VT4()"/>
				<v:ud v:nameU="SolSH" v:prompt="" v:val="VT4({2EE3C7D2-E26E-4B72-9E9C-5170DDBF261A})"/>
				<v:ud v:nameU="Label" v:prompt="" v:val="VT4(C1)"/>
			</v:userDefs>
			<path d="M3.78 256.3 L3.78 254.26 L21.64 254.26 L21.64 256.3 L3.78 256.3 ZM3.78 260.39 L3.78 258.34 L21.64 258.34 L21.64
						 260.39 L3.78 260.39 Z" class="st6"/>
			<path d="M12.76 270.08 L12.76 260.13" class="st7"/>
			<path d="M12.76 254.52 L12.76 244.57" class="st7"/>
		</g>
		<g id="group148-88" transform="translate(190.104,-214.756)" v:mID="148" v:groupContext="group">
			<title>Sheet.148</title>
			<g id="shape149-89" v:mID="149" v:groupContext="shape" transform="translate(-1.59872E-14,-11.3386)">
				<title>Sheet.149</title>
				<path d="M0 270.08 L11.34 270.08" class="st1"/>
			</g>
			<g id="shape150-92" v:mID="150" v:groupContext="shape" transform="translate(281.419,240.883) rotate(90)">
				<title>Sheet.150</title>
				<path d="M0 270.08 L17.86 270.08" class="st1"/>
			</g>
			<g id="shape151-95" v:mID="151" v:groupContext="shape" transform="translate(284.253,238.332) rotate(90)">
				<title>Sheet.151</title>
				<path d="M0 270.08 L23.24 270.08" class="st2"/>
			</g>
			<g id="shape152-98" v:mID="152" v:groupContext="shape" transform="translate(22.6772,528.822) rotate(180)">
				<title>Sheet.152</title>
				<path d="M0 270.08 L8.5 270.08" class="st1"/>
			</g>
			<g id="shape153-101" v:mID="153" v:groupContext="shape" transform="translate(22.6772,510.963) rotate(180)">
				<title>Sheet.153</title>
				<path d="M0 270.08 L8.5 270.08" class="st1"/>
			</g>
			<g id="shape154-104" v:mID="154" v:groupContext="shape" transform="translate(-247.403,240.883) rotate(-90)">
				<title>Sheet.154</title>
				<path d="M0 270.08 L11.34 270.08" class="st1"/>
			</g>
			<g id="shape155-107" v:mID="155" v:groupContext="shape" transform="translate(-247.403,285.245) rotate(-90)">
				<title>Sheet.155</title>
				<path d="M0 270.08 L26.5 270.08" class="st1"/>
			</g>
			<g id="shape156-110" v:mID="156" v:groupContext="shape" transform="translate(21.2598,528.822) rotate(180)">
				<title>Sheet.156</title>
				<path d="M0 270.08 L0.71 270.08" class="st3"/>
			</g>
		</g>
		<g id="group157-115" transform="translate(190.104,-159.055)" v:mID="157" v:groupContext="group">
			<title>Sheet.157</title>
			<g id="shape158-116" v:mID="158" v:groupContext="shape" transform="translate(-1.59872E-14,-11.3386)">
				<title>Sheet.158</title>
				<path d="M0 270.08 L11.34 270.08" class="st1"/>
			</g>
			<g id="shape159-119" v:mID="159" v:groupContext="shape" transform="translate(281.419,240.883) rotate(90)">
				<title>Sheet.159</title>
				<path d="M0 270.08 L17.86 270.08" class="st1"/>
			</g>
			<g id="shape160-122" v:mID="160" v:groupContext="shape" transform="translate(284.253,238.332) rotate(90)">
				<title>Sheet.160</title>
				<path d="M0 270.08 L23.24 270.08" class="st2"/>
			</g>
			<g id="shape161-125" v:mID="161" v:groupContext="shape" transform="translate(22.6772,528.822) rotate(180)">
				<title>Sheet.161</title>
				<path d="M0 270.08 L8.5 270.08" class="st1"/>
			</g>
			<g id="shape162-128" v:mID="162" v:groupContext="shape" transform="translate(22.6772,510.963) rotate(180)">
				<title>Sheet.162</title>
				<path d="M0 270.08 L8.5 270.08" class="st1"/>
			</g>
			<g id="shape163-131" v:mID="163" v:groupContext="shape" transform="translate(-247.403,240.883) rotate(-90)">
				<title>Sheet.163</title>
				<path d="M0 270.08 L11.34 270.08" class="st1"/>
			</g>
			<g id="shape164-134" v:mID="164" v:groupContext="shape" transform="translate(-247.403,270.08) rotate(-90)">
				<title>Sheet.164</title>
				<path d="M0 270.08 L11.34 270.08" class="st1"/>
			</g>
			<g id="shape165-137" v:mID="165" v:groupContext="shape" transform="translate(21.2598,528.822) rotate(180)">
				<title>Sheet.165</title>
				<path d="M0 270.08 L0.71 270.08" class="st3"/>
			</g>
		</g>
		<g id="shape166-142" v:mID="166" v:groupContext="shape" transform="translate(482.861,1.6242) rotate(90)">
			<title>Sheet.166</title>
			<path d="M0 270.08 L13.16 270.08" class="st1"/>
		</g>
		<g id="shape167-145" v:mID="167" v:groupContext="shape" transform="translate(482.861,111.025) rotate(90)">
			<title>Sheet.167</title>
			<path d="M0 270.08 L13.16 270.08" class="st1"/>
		</g>
		<g id="shape168-148" v:mID="168" v:groupContext="shape" transform="translate(211.913,-204.25)">
			<title>Sheet.168</title>
			<ellipse cx="0.86811" cy="269.212" rx="0.86811" ry="0.86811" class="st5"/>
		</g>
		<g id="shape169-150" v:mID="169" v:groupContext="shape" transform="translate(161.64,-205.189)">
			<title>Sheet.169</title>
			<path d="M0 270.08 L51.14 270.08" class="st1"/>
		</g>
		<g id="shape170-153" v:mID="170" v:groupContext="shape" transform="translate(160.89,-267.551)">
			<title>Sheet.170</title>
			<ellipse cx="0.86811" cy="269.212" rx="0.86811" ry="0.86811" class="st5"/>
		</g>
		<g id="shape171-155" v:mID="171" v:groupContext="shape" transform="translate(160.641,-145.094)">
			<title>Sheet.171</title>
			<ellipse cx="0.86811" cy="269.212" rx="0.86811" ry="0.86811" class="st5"/>
		</g>
		<g id="group172-157" transform="translate(138.962,-70.4367)" v:mID="172" v:groupContext="group">
			<title>Sheet.172</title>
			<g id="shape173-158" v:mID="173" v:groupContext="shape" transform="translate(-1.59872E-14,-11.3386)">
				<title>Sheet.173</title>
				<path d="M0 270.08 L11.34 270.08" class="st1"/>
			</g>
			<g id="shape174-161" v:mID="174" v:groupContext="shape" transform="translate(281.419,240.883) rotate(90)">
				<title>Sheet.174</title>
				<path d="M0 270.08 L17.86 270.08" class="st1"/>
			</g>
			<g id="shape175-164" v:mID="175" v:groupContext="shape" transform="translate(284.253,238.332) rotate(90)">
				<title>Sheet.175</title>
				<path d="M0 270.08 L23.24 270.08" class="st2"/>
			</g>
			<g id="shape176-167" v:mID="176" v:groupContext="shape" transform="translate(22.6772,528.822) rotate(180)">
				<title>Sheet.176</title>
				<path d="M0 270.08 L8.5 270.08" class="st1"/>
			</g>
			<g id="shape177-170" v:mID="177" v:groupContext="shape" transform="translate(22.6772,510.963) rotate(180)">
				<title>Sheet.177</title>
				<path d="M0 270.08 L8.5 270.08" class="st1"/>
			</g>
			<g id="shape178-173" v:mID="178" v:groupContext="shape" transform="translate(-247.403,240.883) rotate(-90)">
				<title>Sheet.178</title>
				<path d="M0 270.08 L11.34 270.08" class="st1"/>
			</g>
			<g id="shape179-176" v:mID="179" v:groupContext="shape" transform="translate(-247.403,285.245) rotate(-90)">
				<title>Sheet.179</title>
				<path d="M0 270.08 L26.5 270.08" class="st1"/>
			</g>
			<g id="shape180-179" v:mID="180" v:groupContext="shape" transform="translate(21.2598,528.822) rotate(180)">
				<title>Sheet.180</title>
				<path d="M0 270.08 L0.71 270.08" class="st3"/>
			</g>
		</g>
		<g id="group181-184" transform="translate(138.962,-14.7359)" v:mID="181" v:groupContext="group">
			<title>Sheet.181</title>
			<g id="shape182-185" v:mID="182" v:groupContext="shape" transform="translate(-1.59872E-14,-11.3386)">
				<title>Sheet.182</title>
				<path d="M0 270.08 L11.34 270.08" class="st1"/>
			</g>
			<g id="shape183-188" v:mID="183" v:groupContext="shape" transform="translate(281.419,240.883) rotate(90)">
				<title>Sheet.183</title>
				<path d="M0 270.08 L17.86 270.08" class="st1"/>
			</g>
			<g id="shape184-191" v:mID="184" v:groupContext="shape" transform="translate(284.253,238.332) rotate(90)">
				<title>Sheet.184</title>
				<path d="M0 270.08 L23.24 270.08" class="st2"/>
			</g>
			<g id="shape185-194" v:mID="185" v:groupContext="shape" transform="translate(22.6772,528.822) rotate(180)">
				<title>Sheet.185</title>
				<path d="M0 270.08 L8.5 270.08" class="st1"/>
			</g>
			<g id="shape186-197" v:mID="186" v:groupContext="shape" transform="translate(22.6772,510.963) rotate(180)">
				<title>Sheet.186</title>
				<path d="M0 270.08 L8.5 270.08" class="st1"/>
			</g>
			<g id="shape187-200" v:mID="187" v:groupContext="shape" transform="translate(-247.403,240.883) rotate(-90)">
				<title>Sheet.187</title>
				<path d="M0 270.08 L11.34 270.08" class="st1"/>
			</g>
			<g id="shape188-203" v:mID="188" v:groupContext="shape" transform="translate(-247.403,270.08) rotate(-90)">
				<title>Sheet.188</title>
				<path d="M0 270.08 L11.34 270.08" class="st1"/>
			</g>
			<g id="shape189-206" v:mID="189" v:groupContext="shape" transform="translate(21.2598,528.822) rotate(180)">
				<title>Sheet.189</title>
				<path d="M0 270.08 L0.71 270.08" class="st3"/>
			</g>
		</g>
		<g id="shape191-211" v:mID="191" v:groupContext="shape" transform="translate(431.72,255.344) rotate(90)">
			<title>Sheet.191</title>
			<path d="M0 270.08 L13.16 270.08" class="st1"/>
		</g>
		<g id="shape192-214" v:mID="192" v:groupContext="shape" transform="translate(160.771,-59.9308)">
			<title>Sheet.192</title>
			<ellipse cx="0.86811" cy="269.212" rx="0.86811" ry="0.86811" class="st5"/>
		</g>
		<g id="group193-216" transform="translate(190.104,-70.4367)" v:mID="193" v:groupContext="group">
			<title>Sheet.193</title>
			<g id="shape194-217" v:mID="194" v:groupContext="shape" transform="translate(-1.59872E-14,-11.3386)">
				<title>Sheet.194</title>
				<path d="M0 270.08 L11.34 270.08" class="st1"/>
			</g>
			<g id="shape195-220" v:mID="195" v:groupContext="shape" transform="translate(281.419,240.883) rotate(90)">
				<title>Sheet.195</title>
				<path d="M0 270.08 L17.86 270.08" class="st1"/>
			</g>
			<g id="shape196-223" v:mID="196" v:groupContext="shape" transform="translate(284.253,238.332) rotate(90)">
				<title>Sheet.196</title>
				<path d="M0 270.08 L23.24 270.08" class="st2"/>
			</g>
			<g id="shape197-226" v:mID="197" v:groupContext="shape" transform="translate(22.6772,528.822) rotate(180)">
				<title>Sheet.197</title>
				<path d="M0 270.08 L8.5 270.08" class="st1"/>
			</g>
			<g id="shape198-229" v:mID="198" v:groupContext="shape" transform="translate(22.6772,510.963) rotate(180)">
				<title>Sheet.198</title>
				<path d="M0 270.08 L8.5 270.08" class="st1"/>
			</g>
			<g id="shape199-232" v:mID="199" v:groupContext="shape" transform="translate(-247.403,240.883) rotate(-90)">
				<title>Sheet.199</title>
				<path d="M0 270.08 L11.34 270.08" class="st1"/>
			</g>
			<g id="shape200-235" v:mID="200" v:groupContext="shape" transform="translate(-247.403,285.245) rotate(-90)">
				<title>Sheet.200</title>
				<path d="M0 270.08 L26.5 270.08" class="st1"/>
			</g>
			<g id="shape201-238" v:mID="201" v:groupContext="shape" transform="translate(21.2598,528.822) rotate(180)">
				<title>Sheet.201</title>
				<path d="M0 270.08 L0.71 270.08" class="st3"/>
			</g>
		</g>
		<g id="group202-243" transform="translate(190.104,-14.7359)" v:mID="202" v:groupContext="group">
			<title>Sheet.202</title>
			<g id="shape203-244" v:mID="203" v:groupContext="shape" transform="translate(-1.59872E-14,-11.3386)">
				<title>Sheet.203</title>
				<path d="M0 270.08 L11.34 270.08" class="st1"/>
			</g>
			<g id="shape204-247" v:mID="204" v:groupContext="shape" transform="translate(281.419,240.883) rotate(90)">
				<title>Sheet.204</title>
				<path d="M0 270.08 L17.86 270.08" class="st1"/>
			</g>
			<g id="shape205-250" v:mID="205" v:groupContext="shape" transform="translate(284.253,238.332) rotate(90)">
				<title>Sheet.205</title>
				<path d="M0 270.08 L23.24 270.08" class="st2"/>
			</g>
			<g id="shape206-253" v:mID="206" v:groupContext="shape" transform="translate(22.6772,528.822) rotate(180)">
				<title>Sheet.206</title>
				<path d="M0 270.08 L8.5 270.08" class="st1"/>
			</g>
			<g id="shape207-256" v:mID="207" v:groupContext="shape" transform="translate(22.6772,510.963) rotate(180)">
				<title>Sheet.207</title>
				<path d="M0 270.08 L8.5 270.08" class="st1"/>
			</g>
			<g id="shape208-259" v:mID="208" v:groupContext="shape" transform="translate(-247.403,240.883) rotate(-90)">
				<title>Sheet.208</title>
				<path d="M0 270.08 L11.34 270.08" class="st1"/>
			</g>
			<g id="shape209-262" v:mID="209" v:groupContext="shape" transform="translate(-247.403,270.08) rotate(-90)">
				<title>Sheet.209</title>
				<path d="M0 270.08 L11.34 270.08" class="st1"/>
			</g>
			<g id="shape210-265" v:mID="210" v:groupContext="shape" transform="translate(21.2598,528.822) rotate(180)">
				<title>Sheet.210</title>
				<path d="M0 270.08 L0.71 270.08" class="st3"/>
			</g>
		</g>
		<g id="shape212-270" v:mID="212" v:groupContext="shape" transform="translate(482.861,255.344) rotate(90)">
			<title>Sheet.212</title>
			<path d="M0 270.08 L13.16 270.08" class="st1"/>
		</g>
		<g id="shape213-273" v:mID="213" v:groupContext="shape" transform="translate(211.913,-59.9308)">
			<title>Sheet.213</title>
			<ellipse cx="0.86811" cy="269.212" rx="0.86811" ry="0.86811" class="st5"/>
		</g>
		<g id="shape214-275" v:mID="214" v:groupContext="shape" transform="translate(161.64,-60.8698)">
			<title>Sheet.214</title>
			<path d="M0 270.08 L51.14 270.08" class="st1"/>
		</g>
		<g id="shape216-278" v:mID="216" v:groupContext="shape" transform="translate(160.641,-0.775276)">
			<title>Sheet.216</title>
			<ellipse cx="0.86811" cy="269.212" rx="0.86811" ry="0.86811" class="st5"/>
		</g>
		<g id="shape217-280" v:mID="217" v:groupContext="shape" transform="translate(211.913,-145.059)">
			<title>Sheet.217</title>
			<ellipse cx="0.86811" cy="269.212" rx="0.86811" ry="0.86811" class="st5"/>
		</g>
		<g id="shape221-282" v:mID="221" v:groupContext="shape" transform="translate(75.2739,-1.57105)">
			<title>Sheet.221</title>
			<path d="M0 270.08 L137.51 270.08" class="st1"/>
		</g>
		<g id="shape222-285" v:mID="222" v:groupContext="shape" transform="translate(345.354,124.19) rotate(90)">
			<title>Sheet.222</title>
			<path d="M0 270.08 L144.32 270.08" class="st1"/>
		</g>
		<g id="shape223-288" v:mID="223" v:groupContext="shape" transform="translate(74.4505,-145.059)">
			<title>Sheet.223</title>
			<ellipse cx="0.86811" cy="269.212" rx="0.86811" ry="0.86811" class="st5"/>
		</g>
		<g id="shape224-290" v:mID="224" v:groupContext="shape" transform="translate(388.246,1.66113) rotate(90)">
			<title>Sheet.224</title>
			<path d="M0 270.08 L119.41 270.08" class="st1"/>
		</g>
		<g id="shape226-293" v:mID="226" v:groupContext="shape" transform="translate(-151.881,127.537) rotate(-90)">
			<title>Sheet.226</title>
			<g id="shadow226-294" v:groupContext="shadow" v:shadowOffsetX="0.345598" v:shadowOffsetY="-1.97279" v:shadowType="1"
					transform="matrix(1,0,0,1,-1.97279,0.345598)" class="st8">
				<path d="M6.52 270.08 A3.28429 3.19525 -180 0 0 3.24 266.88 A3.2354 3.19525 -180 0 0 0 270.08" class="st9"/>
			</g>
			<path d="M6.52 270.08 A3.28429 3.19525 -180 0 0 3.24 266.88 A3.2354 3.19525 -180 0 0 0 270.08" class="st10"/>
		</g>
		<g id="shape227-301" v:mID="227" v:groupContext="shape" transform="translate(388.279,127.537) rotate(90)">
			<title>Sheet.227</title>
			<path d="M0 270.08 L20.41 270.08" class="st1"/>
		</g>
		<g id="shape228-304" v:mID="228" v:groupContext="shape" transform="translate(212.781,418.027) rotate(180)">
			<title>Sheet.228</title>
			<path d="M0 270.08 L94.58 270.08" class="st1"/>
		</g>
		<g id="shape229-307" v:mID="229" v:groupContext="shape" transform="translate(482.861,147.947) rotate(90)">
			<title>Sheet.229</title>
			<path d="M0 270.08 L11.16 270.08" class="st1"/>
		</g>
		<g id="shape230-310" v:mID="230" v:groupContext="shape" transform="translate(431.72,147.947) rotate(90)">
			<title>Sheet.230</title>
			<path d="M0 270.08 L11.16 270.08" class="st1"/>
		</g>
		<g id="shape231-313" v:mID="231" v:groupContext="shape" transform="translate(160.641,-121.265)">
			<title>Sheet.231</title>
			<ellipse cx="0.86811" cy="269.212" rx="0.86811" ry="0.86811" class="st5"/>
		</g>
		<g id="shape232-315" v:mID="232" v:groupContext="shape" transform="translate(117.271,-267.533)">
			<title>Sheet.232</title>
			<ellipse cx="0.86811" cy="269.212" rx="0.86811" ry="0.86811" class="st5"/>
		</g>
		<g id="group233-317" transform="translate(241.145,-205.189)" v:mID="233" v:groupContext="group" v:layerMember="0">
			<v:custProps>
				<v:cp v:nameU="Core" v:lbl="Çekirdek" v:type="1" v:format="Hava;Manyetik;Boşluklu Manyetik" v:langID="1055"
						v:val="VT4(Hava)"/>
				<v:cp v:nameU="Adjustability" v:lbl="Ayarlanabilirlik" v:type="1"
						v:format="Sabit;Ayarlanabilir;Sürekli Ayarlanabilir" v:langID="1055" v:val="VT4(Sabit)"/>
				<v:cp v:nameU="Taps" v:lbl="Çıkmalar" v:type="1" v:format="0;1;2;3" v:langID="1055" v:val="VT4(0)"/>
			</v:custProps>
			<v:userDefs>
				<v:ud v:nameU="Core" v:val="VT0(0):26"/>
				<v:ud v:nameU="Adjustability" v:val="VT0(0):26"/>
				<v:ud v:nameU="visVersion" v:val="VT0(15):26"/>
				<v:ud v:nameU="visDescription" v:val="VT4(Inductor)"/>
			</v:userDefs>
			<title>Endüktör.233</title>
			<g id="shape234-318" v:mID="234" v:groupContext="shape" v:layerMember="0">
				<title>Sheet.234</title>
				<path d="M0 270.08 A3.54614 4.08856 0 1 1 7.09 270.08 A3.54614 4.08856 0 1 1 14.17 270.08 A3.54614 4.08856 0 1 1
							 21.26 270.08 A3.54614 4.08856 0 1 1 28.35 270.08" class="st1"/>
			</g>
			<g id="shape235-321" v:mID="235" v:groupContext="shape" v:layerMember="0" transform="translate(13.6639,4.78346)">
				<title>Sheet.235</title>
			</g>
			<g id="shape236-323" v:mID="236" v:groupContext="shape" v:layerMember="0"
					transform="translate(-186.229,87.5426) rotate(-45)">
				<title>Sheet.236</title>
			</g>
		</g>
		<g id="shape237-325" v:mID="237" v:groupContext="shape" transform="translate(212.781,-205.189)">
			<title>Sheet.237</title>
			<path d="M0 270.08 L28.36 270.08" class="st1"/>
		</g>
		<g id="shape238-328" v:mID="238" v:groupContext="shape" transform="translate(212.781,-60.8698)">
			<title>Sheet.238</title>
			<path d="M0 270.08 L28.36 270.08" class="st1"/>
		</g>
		<g id="shape239-331" v:mID="239" v:groupContext="shape" v:layerMember="1"
				transform="translate(300.106,460.546) scale(1,-1)">
			<title>Capacitor.239</title>
			<v:custProps>
				<v:cp v:nameU="Label" v:lbl="Label" v:prompt="" v:type="0" v:format="@" v:sortKey="" v:invis="false" v:ask="false"
						v:langID="1033" v:cal="0" v:val="VT4()"/>
			</v:custProps>
			<v:userDefs>
				<v:ud v:nameU="Form" v:val="VT0(0):26"/>
				<v:ud v:nameU="Type" v:val="VT0(0):26"/>
				<v:ud v:nameU="visDescription" v:val="VT4(Represents a fixed or variable capacitor.)"/>
				<v:ud v:nameU="visVersion" v:val="VT0(15):26"/>
				<v:ud v:nameU="Label" v:prompt="" v:val="VT4()"/>
				<v:ud v:nameU="SolSH" v:prompt="" v:val="VT4({2EE3C7D2-E26E-4B72-9E9C-5170DDBF261A})"/>
				<v:ud v:nameU="Label" v:prompt="" v:val="VT4(C2)"/>
			</v:userDefs>
			<path d="M3.78 256.3 L3.78 254.26 L21.64 254.26 L21.64 256.3 L3.78 256.3 ZM3.78 260.39 L3.78 258.34 L21.64 258.34 L21.64
						 260.39 L3.78 260.39 Z" class="st6"/>
			<path d="M12.76 270.08 L12.76 260.13" class="st7"/>
			<path d="M12.76 254.52 L12.76 244.57" class="st7"/>
		</g>
		<g id="shape240-335" v:mID="240" v:groupContext="shape" transform="translate(14.4354,208.891) rotate(-90)">
			<title>Sheet.240</title>
			<path d="M0 270.08 L144 270.08" class="st1"/>
		</g>
		<g id="shape241-338" v:mID="241" v:groupContext="shape" transform="translate(269.492,-205.189)">
			<title>Sheet.241</title>
			<path d="M0 270.08 L15.02 270.08" class="st1"/>
		</g>
		<g id="shape242-341" v:mID="242" v:groupContext="shape" transform="translate(269.492,-60.8698)">
			<title>Sheet.242</title>
			<path d="M0 270.08 L15.02 270.08" class="st1"/>
		</g>
		<g id="shape244-344" v:mID="244" v:groupContext="shape" transform="translate(582.942,137.431) rotate(90)">
			<title>Sheet.244</title>
			<path d="M0 270.08 L53.04 270.08" class="st1"/>
		</g>
		<g id="shape246-347" v:mID="246" v:groupContext="shape" transform="translate(212.781,-1.57105)">
			<title>Sheet.246</title>
			<path d="M0 270.08 L100.13 270.08" class="st1"/>
		</g>
		<g id="shape247-350" v:mID="247" v:groupContext="shape" transform="translate(211.913,-0.810709)">
			<title>Sheet.247</title>
			<ellipse cx="0.86811" cy="269.212" rx="0.86811" ry="0.86811" class="st5"/>
		</g>
		<g id="shape248-352" v:mID="248" v:groupContext="shape" transform="translate(284.516,-132.649)">
			<title>Sheet.248</title>
			<path d="M0 270.08 L28.35 270.08" class="st1"/>
		</g>
		<g id="shape249-355" v:mID="249" v:groupContext="shape" transform="translate(582.942,215.718) rotate(89.9448)">
			<title>Sheet.249</title>
			<path d="M0 270.08 L52.53 270.08" class="st1"/>
		</g>
		<g id="shape250-358" v:mID="250" v:groupContext="shape" transform="translate(312.862,-132.649)">
			<title>Sheet.250</title>
			<path d="M0 270.08 L28.35 270.08" class="st1"/>
		</g>
		<g id="shape251-361" v:mID="251" v:groupContext="shape" transform="translate(312.913,-1.57105)">
			<title>Sheet.251</title>
			<path d="M0 270.08 L28.35 270.08" class="st1"/>
		</g>
		<g id="shape252-364" v:mID="252" v:groupContext="shape" transform="translate(74.4505,-267.533)">
			<title>Sheet.252</title>
			<ellipse cx="0.86811" cy="269.212" rx="0.86811" ry="0.86811" class="st5"/>
		</g>
		<g id="shape253-366" v:mID="253" v:groupContext="shape" transform="translate(311.867,-131.807)">
			<title>Sheet.253</title>
			<ellipse cx="0.86811" cy="269.212" rx="0.86811" ry="0.86811" class="st5"/>
		</g>
		<g id="shape254-368" v:mID="254" v:groupContext="shape" transform="translate(311.903,-0.810709)">
			<title>Sheet.254</title>
			<ellipse cx="0.86811" cy="269.212" rx="0.86811" ry="0.86811" class="st5"/>
		</g>
		<g id="shape255-370" v:mID="255" v:groupContext="shape" v:layerMember="1" transform="translate(34.1781,-249.002)">
			<title>Capacitor.255</title>
			<desc>+</desc>
			<v:textBlock v:margins="rect(1,1,1,1)" v:tabSpace="34.0157" v:verticalAlign="0"/>
			<v:textRect cx="10.1339" cy="259.946" width="20.27" height="20.2677"/>
			<rect x="0" y="249.812" width="20.2677" height="20.2677" class="st11"/>
			<text x="6.65" y="263.41" class="st12" v:langID="2057"><v:paragraph v:horizAlign="1"/><v:tabList/>+</text>		</g>
		<g id="shape256-373" v:mID="256" v:groupContext="shape" v:layerMember="1" transform="translate(35.3829,-145.059)">
			<title>Capacitor.256</title>
			<desc>-</desc>
			<v:textBlock v:margins="rect(1,1,1,1)" v:tabSpace="34.0157" v:verticalAlign="0"/>
			<v:textRect cx="10.1339" cy="259.946" width="20.27" height="20.2677"/>
			<rect x="0" y="249.812" width="20.2677" height="20.2677" class="st11"/>
			<text x="7.99" y="263.41" class="st12" v:langID="2057"><v:paragraph v:horizAlign="1"/><v:tabList/>-</text>		</g>
		<g id="shape257-376" v:mID="257" v:groupContext="shape" v:layerMember="1" transform="translate(327.777,-113.275)">
			<title>Capacitor.257</title>
			<desc>+</desc>
			<v:textBlock v:margins="rect(1,1,1,1)" v:tabSpace="34.0157" v:verticalAlign="0"/>
			<v:textRect cx="10.1339" cy="259.946" width="20.27" height="20.2677"/>
			<rect x="0" y="249.812" width="20.2677" height="20.2677" class="st11"/>
			<text x="6.65" y="263.41" class="st12" v:langID="2057"><v:paragraph v:horizAlign="1"/><v:tabList/>+</text>		</g>
		<g id="shape258-379" v:mID="258" v:groupContext="shape" v:layerMember="1" transform="translate(327.777,-0.810709)">
			<title>Capacitor.258</title>
			<desc>-</desc>
			<v:textBlock v:margins="rect(1,1,1,1)" v:tabSpace="34.0157" v:verticalAlign="0"/>
			<v:textRect cx="10.1339" cy="259.946" width="20.27" height="20.2677"/>
			<rect x="0" y="249.812" width="20.2677" height="20.2677" class="st11"/>
			<text x="7.99" y="263.41" class="st12" v:langID="2057"><v:paragraph v:horizAlign="1"/><v:tabList/>-</text>		</g>
		<g id="shape262-382" v:mID="262" v:groupContext="shape" transform="translate(0.375,-177.931)">
			<title>Sheet.262</title>
			<desc>Vin</desc>
			<v:textBlock v:margins="rect(4,4,4,4)" v:tabSpace="42.5197"/>
			<v:textRect cx="43.8498" cy="236.064" width="87.7" height="68.0315"/>
			<rect x="0" y="202.049" width="87.6996" height="68.0315" class="st13"/>
			<text x="30.65" y="243.26" class="st14" v:langID="1055"><v:paragraph v:horizAlign="1"/><v:tabList/>V<tspan
						dy="-0.284em" class="st15" v:baseFontSize="24">in</tspan></text>		</g>
		<g id="shape263-386" v:mID="263" v:groupContext="shape" transform="translate(300.106,-32.8422)">
			<title>Sheet.263</title>
			<desc>Vout</desc>
			<v:textBlock v:margins="rect(4,4,4,4)" v:tabSpace="42.5197"/>
			<v:textRect cx="43.8498" cy="236.064" width="87.7" height="68.0315"/>
			<rect x="0" y="202.049" width="87.6996" height="68.0315" class="st13"/>
			<text x="25.67" y="243.26" class="st14" v:langID="1055"><v:paragraph v:horizAlign="1"/><v:tabList/>V<tspan
						dy="-0.284em" class="st15" v:baseFontSize="24">out</tspan></text>		</g>
	</g>
</svg>
