G04*
G04 #@! TF.GenerationSoftware,Altium Limited,Altium Designer,18.0.7 (293)*
G04*
G04 Layer_Color=65535*
%FSLAX25Y25*%
%MOIN*%
G70*
G01*
G75*
%ADD10C,0.01000*%
%ADD11C,0.00500*%
%ADD12C,0.00600*%
G36*
X89320Y33442D02*
X89539Y33333D01*
X89575Y33296D01*
X89721Y33260D01*
X89867Y33151D01*
X90013Y33041D01*
X90049Y33005D01*
X90158Y32932D01*
X90304Y32859D01*
X90450Y32713D01*
X90487Y32677D01*
X90596Y32567D01*
X90705Y32421D01*
X90887Y32203D01*
X91070Y31948D01*
X91215Y31656D01*
X91361Y31328D01*
X91471Y30964D01*
X91507Y30891D01*
X91544Y30708D01*
X91580Y30417D01*
Y30089D01*
Y30052D01*
Y30016D01*
Y29797D01*
X91544Y29506D01*
X91507Y29177D01*
Y29141D01*
X91471Y29068D01*
X91434Y28959D01*
X91398Y28813D01*
X91252Y28412D01*
X91033Y27975D01*
Y27938D01*
X90960Y27865D01*
X90815Y27647D01*
X90559Y27319D01*
X90195Y27027D01*
X90158Y26990D01*
X90049Y26917D01*
X89830Y26772D01*
X89612Y26626D01*
X89284Y26444D01*
X88956Y26298D01*
X88555Y26152D01*
X88154Y26079D01*
X88044Y26043D01*
Y25897D01*
Y25861D01*
Y25788D01*
X88008Y25642D01*
X87935Y25532D01*
X87899Y25496D01*
Y25460D01*
X87935D01*
X87972Y25496D01*
X88008Y25532D01*
X88081Y25642D01*
X88154Y25788D01*
Y25824D01*
Y25861D01*
X88227Y25933D01*
X88263D01*
X88336Y25970D01*
X88482Y26006D01*
X88700Y26043D01*
X88737D01*
X88810Y26079D01*
X88956Y26116D01*
X89101Y26152D01*
X89502Y26298D01*
X89867Y26480D01*
X89903D01*
X89940Y26517D01*
X90195Y26662D01*
X90487Y26881D01*
X90815Y27173D01*
X90851Y27209D01*
X90924Y27319D01*
X91033Y27428D01*
X91143Y27537D01*
X91179Y27574D01*
X91252Y27647D01*
X91325Y27792D01*
X91434Y27975D01*
X91580Y28230D01*
X91507Y28047D01*
X91325Y27683D01*
X91288Y27647D01*
X91252Y27537D01*
X91106Y27355D01*
X90960Y27136D01*
X90559Y26626D01*
X90341Y26371D01*
X90049Y26152D01*
X89685Y25897D01*
X89101Y25642D01*
X88956Y25241D01*
X88919Y25204D01*
X88883Y25059D01*
X88810Y24876D01*
X88737Y24731D01*
Y24694D01*
X88700Y24658D01*
X88555Y24439D01*
X88482Y24293D01*
X88445Y24002D01*
X88482Y23965D01*
X88555Y23929D01*
X88627Y23892D01*
X88664D01*
X88737Y23856D01*
X88919Y23710D01*
X88956D01*
X89029Y23674D01*
X89211Y23637D01*
X89247D01*
X89393Y23601D01*
X89612D01*
X89903Y23564D01*
X90487Y23455D01*
X90815Y23345D01*
X91106Y23273D01*
X91434Y23127D01*
X91398D01*
X91252Y23163D01*
X91033Y23236D01*
X90778Y23273D01*
X90705Y23309D01*
X90523Y23345D01*
X90268Y23382D01*
X89976Y23418D01*
X89466Y23491D01*
X88336Y23564D01*
X88263Y23601D01*
X88117Y23637D01*
X88008Y23674D01*
Y23637D01*
X88044Y23601D01*
Y23564D01*
X88263D01*
X88372Y23528D01*
X88700D01*
X88919Y23491D01*
X89174D01*
X89758Y23418D01*
X90377Y23309D01*
X90414D01*
X90487Y23273D01*
X90632Y23236D01*
X90815Y23200D01*
X91143Y23054D01*
X91288Y22981D01*
X91434Y22908D01*
X91471Y22872D01*
X91544Y22762D01*
Y22653D01*
X91507Y22507D01*
X91471Y22471D01*
X91398Y22398D01*
X91215Y22288D01*
X91070Y22216D01*
X90887Y22143D01*
X90851D01*
X90815Y22106D01*
X90705Y22070D01*
X90559Y22033D01*
X90158Y21960D01*
X89648Y21888D01*
X89502D01*
X89575Y21924D01*
X89830Y21997D01*
X90086Y22033D01*
X90155Y22068D01*
X88486Y22001D01*
X88445Y21997D01*
X88372D01*
X88199Y21990D01*
X88081Y21960D01*
X87461D01*
X88199Y21990D01*
X88227Y21997D01*
X88372D01*
X88486Y22001D01*
X88773Y22033D01*
X89429Y22070D01*
X89758Y22106D01*
X90049Y22143D01*
X90086D01*
X90158Y22179D01*
X90304D01*
X90450Y22216D01*
X90815Y22288D01*
X90960Y22325D01*
X91070Y22361D01*
X91106Y22398D01*
X91215Y22434D01*
X91288Y22544D01*
Y22616D01*
X91070D01*
X90960Y22580D01*
X90924D01*
X90778Y22544D01*
X90523Y22507D01*
X90195Y22434D01*
X89758Y22398D01*
X89247Y22361D01*
X88627Y22325D01*
X87935Y22288D01*
X86477Y22252D01*
X85711D01*
X85602Y22288D01*
X86732D01*
X87024Y22325D01*
X87753D01*
X88190Y22361D01*
X88627Y22398D01*
X89065Y22434D01*
X89101D01*
X89247Y22471D01*
X89466D01*
X89685Y22507D01*
X90231Y22580D01*
X90487Y22653D01*
X90705Y22689D01*
X90742D01*
X90778Y22726D01*
X90851Y22799D01*
X90887Y22872D01*
X90851Y22944D01*
X90742Y23017D01*
X90523Y23090D01*
X90341Y23127D01*
X90158Y23163D01*
X89903D01*
X89138Y23017D01*
X89101D01*
X88956Y22981D01*
X88700Y22944D01*
X88409Y22908D01*
X88008Y22872D01*
X87534Y22835D01*
X86987Y22799D01*
X86404Y22762D01*
X85255Y22700D01*
X85201Y22689D01*
X85055D01*
X84254Y22653D01*
X84946Y22689D01*
X85055D01*
X85255Y22700D01*
X85383Y22726D01*
X85602D01*
X85857Y22762D01*
X86440Y22799D01*
X87097Y22872D01*
X87753Y22944D01*
X88409Y23054D01*
X89029Y23163D01*
X89357Y23273D01*
Y23309D01*
X89174D01*
X89029Y23345D01*
X88555D01*
X88263Y23382D01*
X86987D01*
X86440Y23345D01*
X85894Y23309D01*
X85748D01*
X85602Y23273D01*
X85420Y23236D01*
X84983Y23163D01*
X84545Y23054D01*
X84509D01*
X84472Y23017D01*
X84290Y22944D01*
X84071Y22799D01*
X83889Y22616D01*
Y22580D01*
X83925Y22471D01*
X83962Y22398D01*
X84035Y22325D01*
X84181Y22252D01*
X84363Y22179D01*
X84399D01*
X84472Y22143D01*
X84399D01*
X84290Y22179D01*
X84254D01*
X84217Y22216D01*
X83998Y22288D01*
X83780Y22434D01*
X83707Y22507D01*
X83670Y22580D01*
Y22616D01*
Y22726D01*
X83743Y22835D01*
X83853Y22944D01*
X83889Y22981D01*
X83998Y23017D01*
X84181Y23090D01*
X84472Y23200D01*
X84873Y23273D01*
X85383Y23382D01*
X86003Y23455D01*
X86732Y23528D01*
X87097Y23564D01*
X87170Y23601D01*
X87206Y23637D01*
Y23674D01*
X87170D01*
X87060Y23637D01*
X87024Y23601D01*
X86914Y23564D01*
X86440Y23528D01*
X86368D01*
X86149Y23491D01*
X85857D01*
X85493Y23455D01*
X85055Y23382D01*
X84654Y23345D01*
X84254Y23236D01*
X83889Y23163D01*
X83634Y23054D01*
X83707Y23127D01*
X83743D01*
X83816Y23163D01*
X83998Y23236D01*
X84217Y23309D01*
X84509Y23382D01*
X84837Y23455D01*
X85274Y23528D01*
X85748Y23601D01*
X86149Y23637D01*
X86295Y23746D01*
X86331Y23783D01*
X86404Y23819D01*
X86586Y23892D01*
X86623D01*
X86659Y23929D01*
X86732Y24002D01*
Y24111D01*
Y24147D01*
Y24184D01*
Y24257D01*
X86696Y24293D01*
X86586Y24475D01*
Y24512D01*
X86550Y24585D01*
X86404Y24767D01*
X86149Y25605D01*
X85857Y25751D01*
X85785Y25788D01*
X85639Y25861D01*
X85420Y25970D01*
X85201Y26116D01*
X85165Y26152D01*
X85055Y26261D01*
X84873Y26407D01*
X84654Y26590D01*
X84618Y26626D01*
X84472Y26772D01*
X84326Y26917D01*
X84144Y27136D01*
X84108Y27209D01*
X83998Y27355D01*
X83889Y27610D01*
X83743Y27938D01*
X83597Y28230D01*
X83670Y28157D01*
X83707Y28084D01*
X83780Y27975D01*
X83998Y27610D01*
X84254Y27319D01*
X84290Y27282D01*
X84363Y27209D01*
X84436Y27136D01*
X84582Y26990D01*
X84946Y26699D01*
X85420Y26444D01*
X85456D01*
X85493Y26407D01*
X85602Y26371D01*
X85748Y26298D01*
X85930Y26225D01*
X86149Y26152D01*
X86404Y26079D01*
X86696Y26006D01*
X86732D01*
X86805Y25970D01*
X86914D01*
X86951Y25933D01*
X86987Y25897D01*
X87024Y25861D01*
X87060Y25751D01*
Y25715D01*
X87097Y25678D01*
X87242Y25460D01*
X87315Y25423D01*
X87279Y25460D01*
Y25496D01*
X87206Y25605D01*
X87170Y25751D01*
X87133Y25933D01*
Y26079D01*
X86878Y26116D01*
X86841D01*
X86769Y26152D01*
X86623D01*
X86477Y26225D01*
X86076Y26334D01*
X85639Y26553D01*
X85602D01*
X85529Y26626D01*
X85311Y26772D01*
X84983Y27027D01*
X84691Y27319D01*
X84654Y27391D01*
X84509Y27537D01*
X84326Y27829D01*
X84144Y28157D01*
X83962Y28594D01*
X83780Y29105D01*
X83670Y29651D01*
Y30271D01*
Y30307D01*
X83707Y30453D01*
Y30635D01*
X83780Y30854D01*
X83925Y31437D01*
X84071Y31729D01*
X84217Y32021D01*
X84436Y32312D01*
X84472Y32349D01*
X84509Y32385D01*
X84545Y32421D01*
X84436Y32239D01*
Y32203D01*
X84363Y32130D01*
X84290Y31984D01*
X84217Y31802D01*
X84108Y31583D01*
X84035Y31328D01*
X83889Y30745D01*
Y30708D01*
Y30599D01*
Y30453D01*
Y30235D01*
Y29979D01*
X83925Y29688D01*
X84071Y29068D01*
Y29032D01*
X84144Y28922D01*
X84181Y28776D01*
X84290Y28594D01*
X84545Y28120D01*
X84910Y27647D01*
X84946Y27610D01*
X85019Y27574D01*
X85128Y27464D01*
X85274Y27355D01*
X85711Y27063D01*
X86185Y26845D01*
X86222D01*
X86368Y26808D01*
X86586Y26772D01*
X86878Y26699D01*
X87170D01*
X87425Y26662D01*
X87826D01*
X87972Y26699D01*
X88117Y26735D01*
X88518Y26772D01*
X88956Y26881D01*
X89247Y27063D01*
X89284D01*
X89320Y27100D01*
X89357D01*
X89393Y27136D01*
X89247Y27355D01*
Y27391D01*
X89174Y27428D01*
X88992Y27647D01*
X88664Y27975D01*
X88190Y28339D01*
X87643Y28740D01*
X86987Y29105D01*
X86222Y29433D01*
X85347Y29651D01*
X84837Y29724D01*
X84326Y29834D01*
X85311D01*
X85456Y29797D01*
X85675Y29761D01*
X85967Y29724D01*
X86295Y29651D01*
X86696Y29542D01*
X87461Y29323D01*
X87498D01*
X87643Y29250D01*
X87826Y29177D01*
X88044Y29105D01*
X88627Y28813D01*
X89174Y28449D01*
X89211Y28412D01*
X89284Y28339D01*
X89539Y28084D01*
X89575Y28047D01*
X89648Y27975D01*
X89867Y27720D01*
X89976Y27537D01*
X90049Y27574D01*
X90086Y27610D01*
X90158Y27647D01*
X90377Y27865D01*
X90632Y28193D01*
X90778Y28412D01*
X90851Y28594D01*
Y28631D01*
X90887Y28704D01*
Y28813D01*
Y28995D01*
Y29214D01*
X90851Y29396D01*
Y29433D01*
X90778Y29578D01*
X90632Y29761D01*
X90450Y29979D01*
X90195Y30271D01*
X89867Y30562D01*
X89393Y30854D01*
X88846Y31109D01*
X88810D01*
X88700Y31182D01*
X88518Y31219D01*
X88263Y31292D01*
X87972Y31401D01*
X87643Y31474D01*
X87242Y31547D01*
X86841Y31583D01*
X85529Y31656D01*
X85493D01*
X85383Y31692D01*
X85566Y31729D01*
X87643D01*
X87862Y31692D01*
X88190Y31656D01*
X88591Y31547D01*
X89065Y31401D01*
X89539Y31255D01*
X90049Y31000D01*
X90487Y30708D01*
X90523Y30672D01*
X90596Y30635D01*
X90705Y30526D01*
X90851Y30380D01*
X90887Y30344D01*
X90960Y30271D01*
X91070Y30162D01*
X91179Y30052D01*
X91288Y29906D01*
Y29979D01*
Y30016D01*
Y30052D01*
Y30198D01*
Y30344D01*
Y30380D01*
Y30417D01*
Y30635D01*
X91215Y30891D01*
X91143Y31146D01*
Y31182D01*
X91070Y31292D01*
X90960Y31437D01*
X90815Y31620D01*
X90632Y31802D01*
X90377Y32021D01*
X90086Y32239D01*
X89758Y32421D01*
X89721Y32458D01*
X89575Y32494D01*
X89393Y32567D01*
X89138Y32677D01*
X88810Y32786D01*
X88409Y32859D01*
X88008Y32932D01*
X87534Y33005D01*
X87315Y33041D01*
X88081D01*
X88263Y33005D01*
X88482Y32968D01*
X88700Y32932D01*
X88773D01*
X88919Y32895D01*
X89211Y32859D01*
X89539Y32786D01*
X90158Y32640D01*
X90268D01*
X90231Y32677D01*
X90158Y32750D01*
X90013Y32859D01*
X89976Y32895D01*
X89867Y32968D01*
X89685Y33114D01*
X89466Y33260D01*
X89174Y33479D01*
X89211D01*
X89320Y33442D01*
D02*
G37*
G36*
X98469Y26735D02*
X96100Y31328D01*
X93840Y26735D01*
X92382Y29834D01*
X92345Y29906D01*
X92309Y30052D01*
X92200Y30271D01*
X92054Y30599D01*
X91908Y30927D01*
X91762Y31292D01*
X91434Y32021D01*
X91033Y32932D01*
X91070Y32968D01*
X93002D01*
X94241Y30016D01*
X95371Y32312D01*
X95079Y32968D01*
X97157D01*
X98615Y29979D01*
X99781Y32968D01*
X100984D01*
X98469Y26735D01*
D02*
G37*
G36*
X112247Y32932D02*
X112466D01*
X112648Y32895D01*
X112685D01*
X112794Y32859D01*
X112940Y32822D01*
X113122Y32750D01*
X113559Y32531D01*
X113742Y32421D01*
X113887Y32239D01*
X113924Y32203D01*
X113997Y32057D01*
X114106Y31875D01*
X114216Y31620D01*
Y31583D01*
Y31510D01*
Y31364D01*
Y31219D01*
Y31182D01*
Y31109D01*
X114143Y30854D01*
Y30818D01*
X114106Y30781D01*
X114033Y30562D01*
X113851Y30307D01*
X113596Y30052D01*
X113523Y30016D01*
X113377Y29943D01*
X113195Y29834D01*
X112940Y29724D01*
X112466Y29615D01*
X111992Y29542D01*
X111955D01*
X114252Y26808D01*
X112028D01*
X109623Y30089D01*
Y26808D01*
X107764D01*
Y29906D01*
Y29943D01*
Y30052D01*
Y30162D01*
Y30344D01*
Y30635D01*
Y31000D01*
Y31437D01*
Y32968D01*
X112065D01*
X112247Y32932D01*
D02*
G37*
G36*
X106998Y32203D02*
X103353D01*
Y30417D01*
X106415D01*
Y29651D01*
X103353D01*
Y27574D01*
X107071D01*
Y26808D01*
X101458D01*
Y29906D01*
Y29943D01*
Y30052D01*
Y30162D01*
Y30344D01*
Y30635D01*
Y31000D01*
Y31437D01*
Y32968D01*
X106998D01*
Y32203D01*
D02*
G37*
G36*
X81082Y32895D02*
X81337D01*
X81593Y32859D01*
X81629D01*
X81739Y32822D01*
X81884D01*
X82067Y32750D01*
X82468Y32640D01*
X82868Y32421D01*
X82905Y32385D01*
X83051Y32276D01*
X83160Y32057D01*
X83306Y31802D01*
X83342Y31729D01*
X83379Y31547D01*
X83415Y31292D01*
X83452Y30927D01*
Y30891D01*
Y30818D01*
X83379Y30599D01*
X83269Y30307D01*
X83051Y30016D01*
X83014Y29979D01*
X82905Y29906D01*
X82759Y29761D01*
X82540Y29651D01*
X82504Y29615D01*
X82358Y29578D01*
X82139Y29506D01*
X81884Y29433D01*
X81848D01*
X81702Y29396D01*
X81483Y29360D01*
X81265Y29323D01*
X78822D01*
Y26772D01*
X77000D01*
Y29870D01*
Y29906D01*
Y30016D01*
Y30125D01*
Y30307D01*
Y30599D01*
Y30964D01*
Y31401D01*
Y32932D01*
X80864D01*
X81082Y32895D01*
D02*
G37*
G36*
X91507Y23090D02*
X91544D01*
X91580Y23054D01*
X91434Y23127D01*
X91471D01*
X91507Y23090D01*
D02*
G37*
G36*
X111955Y25715D02*
X112174Y25678D01*
X112284D01*
X112502Y25605D01*
X112539Y25569D01*
X112648Y25496D01*
X112757Y25387D01*
X112867Y25241D01*
Y25204D01*
X112903Y25022D01*
Y24257D01*
Y24220D01*
Y24147D01*
Y24038D01*
Y23892D01*
Y23564D01*
Y23455D01*
Y23345D01*
Y23309D01*
X112940Y23236D01*
X112976Y23127D01*
X113013Y23017D01*
X113049Y22944D01*
X112502D01*
X112393Y23236D01*
X112247Y23127D01*
X112211D01*
X112138Y23090D01*
X112028Y23054D01*
X111883Y22981D01*
X111518Y22908D01*
X111044Y22872D01*
X111008D01*
X110971Y22908D01*
X110753Y22944D01*
X110498Y23090D01*
X110315Y23309D01*
X110242Y23418D01*
Y23674D01*
Y23710D01*
Y23783D01*
Y23892D01*
X110279Y23965D01*
X110315Y24002D01*
X110425Y24147D01*
X110461Y24184D01*
X110498Y24220D01*
X110571Y24293D01*
X110643Y24330D01*
X110680D01*
X110753Y24366D01*
X110935Y24439D01*
X110971D01*
X111081Y24475D01*
X111263D01*
X111555Y24512D01*
X111627D01*
X111810Y24548D01*
X112065Y24621D01*
X112284Y24658D01*
X112356D01*
Y24803D01*
Y24840D01*
Y24949D01*
X112284Y25059D01*
X112211Y25168D01*
X112174Y25204D01*
X111992Y25241D01*
X111773Y25314D01*
X111372D01*
X111226Y25241D01*
X111044Y25131D01*
X110898Y24949D01*
Y24913D01*
X110862Y24876D01*
X110826Y24803D01*
X110789D01*
X110315Y24913D01*
Y24949D01*
Y24986D01*
X110352Y25095D01*
X110461Y25204D01*
X110571Y25350D01*
X110753Y25532D01*
X111008Y25642D01*
X111372Y25715D01*
X111810Y25751D01*
X111846D01*
X111955Y25715D01*
D02*
G37*
G36*
X109623Y22944D02*
X109076D01*
Y24803D01*
Y24840D01*
Y24913D01*
Y24986D01*
Y25095D01*
Y25277D01*
Y25496D01*
Y25788D01*
Y26699D01*
X109623D01*
Y22944D01*
D02*
G37*
G36*
X114216Y25350D02*
X114325Y25460D01*
X114398Y25496D01*
X114543Y25605D01*
X114799Y25715D01*
X115127Y25751D01*
X115163D01*
X115272Y25715D01*
X115418Y25678D01*
X115601Y25605D01*
X115783Y25496D01*
X115965Y25350D01*
X116147Y25095D01*
X116257Y24803D01*
X116330Y24621D01*
X116366Y24330D01*
Y24293D01*
Y24184D01*
X116330Y24038D01*
X116293Y23892D01*
Y23856D01*
X116257Y23783D01*
X116184Y23564D01*
X116147Y23491D01*
X116038Y23345D01*
X115856Y23163D01*
X115601Y23017D01*
X115528Y22981D01*
X115382Y22944D01*
X115127Y22872D01*
X114799D01*
X114653Y22908D01*
X114471Y22981D01*
X114288Y23127D01*
X114216Y23236D01*
Y22944D01*
X113669D01*
Y26699D01*
X114216D01*
Y25350D01*
D02*
G37*
%LPC*%
G36*
X88263Y24038D02*
X86878D01*
X86769Y24002D01*
X88372D01*
X88263Y24038D01*
D02*
G37*
G36*
X90195Y22070D02*
X90158D01*
X90155Y22068D01*
X90195Y22070D01*
D02*
G37*
G36*
X109623Y32203D02*
Y30162D01*
X111591D01*
X111700Y30198D01*
X111883Y30271D01*
X112028Y30344D01*
X112065D01*
X112101Y30417D01*
X112284Y30599D01*
X112429Y30891D01*
X112466Y31073D01*
Y31292D01*
Y31328D01*
X112429Y31401D01*
X112356Y31656D01*
X112247Y31802D01*
X112138Y31911D01*
X111955Y32057D01*
X111737Y32130D01*
X111664Y32166D01*
X111482D01*
X109623Y32203D01*
D02*
G37*
G36*
X78822Y32166D02*
Y30089D01*
X80718D01*
X80900Y30125D01*
X80937D01*
X81010Y30162D01*
X81119Y30198D01*
X81265Y30271D01*
X81410Y30380D01*
X81520Y30562D01*
X81629Y30781D01*
X81666Y31036D01*
Y31073D01*
Y31182D01*
X81629Y31292D01*
X81593Y31474D01*
X81483Y31656D01*
X81374Y31838D01*
X81155Y31984D01*
X80900Y32094D01*
X80864D01*
X80827Y32130D01*
X80609D01*
X78822Y32166D01*
D02*
G37*
G36*
X112356Y24293D02*
X112247Y24257D01*
X112211D01*
X112065Y24220D01*
X111846Y24184D01*
X111518Y24111D01*
X111482D01*
X111336Y24074D01*
X111190Y24038D01*
X111044Y24002D01*
X111008D01*
X110971Y23965D01*
X110898Y23892D01*
X110862Y23819D01*
Y23746D01*
Y23601D01*
Y23528D01*
X110935Y23418D01*
X111008Y23345D01*
X111154Y23273D01*
X111190D01*
X111336Y23236D01*
X111482D01*
X111700Y23273D01*
X111737D01*
X111883Y23345D01*
X112028Y23418D01*
X112174Y23528D01*
X112211Y23564D01*
X112284Y23674D01*
X112320Y23819D01*
X112356Y24038D01*
Y24293D01*
D02*
G37*
G36*
X115054Y25314D02*
X114908D01*
X114762Y25277D01*
X114689Y25241D01*
X114543Y25168D01*
X114361Y24986D01*
X114252Y24694D01*
Y24658D01*
X114216Y24585D01*
X114179Y24439D01*
Y24257D01*
Y24220D01*
X114216Y24111D01*
X114252Y23819D01*
Y23783D01*
X114288Y23710D01*
X114361Y23601D01*
X114434Y23491D01*
X114471Y23455D01*
X114543Y23418D01*
X114726Y23273D01*
X115090D01*
X115272Y23309D01*
X115345Y23345D01*
X115455Y23455D01*
X115637Y23601D01*
X115746Y23856D01*
Y23892D01*
X115783Y23965D01*
Y24074D01*
Y24257D01*
Y24293D01*
Y24403D01*
Y24694D01*
Y24731D01*
X115710Y24876D01*
X115637Y24986D01*
X115491Y25131D01*
X115418Y25168D01*
X115272Y25277D01*
X115054Y25314D01*
D02*
G37*
%LPD*%
D10*
X71677Y86161D02*
G03*
X71677Y86161I-1472J0D01*
G01*
X91682Y66005D02*
G03*
X91682Y66005I-361J0D01*
G01*
X24632Y16868D02*
X149261D01*
X24500Y17000D02*
X24632Y16868D01*
X24500Y17000D02*
Y108723D01*
X104500Y73905D02*
Y77764D01*
X87509Y73905D02*
X104500D01*
X73903Y42000D02*
Y51764D01*
X77761D01*
Y42000D02*
Y51764D01*
X73903Y42000D02*
X77761D01*
X87509Y77764D02*
X104500D01*
X73903Y35917D02*
Y39752D01*
X52752Y108988D02*
X76268D01*
X52752Y89326D02*
Y108988D01*
Y89326D02*
X76252D01*
Y108972D01*
X76268Y108988D01*
X110000Y77764D02*
X130911D01*
X87509Y73905D02*
Y77764D01*
X130911Y43000D02*
Y70500D01*
X127052Y43000D02*
Y70500D01*
X130911D01*
X127052Y43000D02*
X130911D01*
X127052Y39752D02*
X130911D01*
Y73905D02*
Y77764D01*
X149261Y16868D02*
Y109090D01*
X24500Y109090D02*
X149261Y109090D01*
X73903Y55728D02*
X77761D01*
Y72764D01*
X73903D02*
X77761D01*
X73903Y55728D02*
Y72764D01*
X110000Y73905D02*
X130911D01*
X110000D02*
Y77764D01*
X130911Y35894D02*
Y39752D01*
X73903Y35894D02*
X130911D01*
X73903Y39752D02*
X127052D01*
D11*
X110063Y70780D02*
X123055D01*
Y69598D02*
Y70780D01*
Y43220D02*
Y44402D01*
X110063Y43220D02*
X123055D01*
X36291Y75847D02*
X46527D01*
X55189Y56950D02*
Y67186D01*
X27630Y56950D02*
Y67186D01*
X36291Y48288D02*
X46527D01*
D12*
X92867Y56563D02*
Y64846D01*
X99576D01*
Y56563D02*
Y64846D01*
X92867Y56563D02*
X99576D01*
M02*
