G04*
G04 #@! TF.GenerationSoftware,Altium Limited,Altium Designer,18.0.7 (293)*
G04*
G04 Layer_Physical_Order=1*
G04 Layer_Color=255*
%FSLAX25Y25*%
%MOIN*%
G70*
G01*
G75*
%ADD10C,0.01000*%
%ADD13R,0.03307X0.22874*%
%ADD14R,0.03307X0.16693*%
%ADD15R,0.03898X0.03307*%
%ADD16R,0.03937X0.03150*%
%ADD17R,0.03150X0.03937*%
%ADD18R,0.02835X0.02992*%
%ADD19C,0.01181*%
%ADD20C,0.05512*%
%ADD21C,0.05906*%
%ADD22C,0.09449*%
%ADD23C,0.06000*%
%ADD24C,0.02000*%
G36*
X116392Y82866D02*
X108145D01*
Y86977D01*
X108829Y87261D01*
X109485Y87764D01*
X109987Y88419D01*
X110303Y89181D01*
X110411Y90000D01*
X110303Y90819D01*
X109987Y91581D01*
X109485Y92237D01*
X108829Y92739D01*
X108067Y93055D01*
X107248Y93163D01*
X106429Y93055D01*
X105667Y92739D01*
X105011Y92237D01*
X104509Y91581D01*
X104193Y90819D01*
X104085Y90000D01*
X104193Y89181D01*
X104509Y88419D01*
X105011Y87764D01*
X105667Y87261D01*
X106351Y86977D01*
Y82866D01*
X99167D01*
Y98319D01*
X116392Y98319D01*
Y82866D01*
D02*
G37*
G36*
X73903Y106006D02*
X86909Y93000D01*
Y67768D01*
X95971D01*
X95997Y67703D01*
Y62051D01*
X95497Y61682D01*
X95434Y61694D01*
X95056Y61619D01*
X94919Y61528D01*
X90809Y64268D01*
X83009D01*
Y81673D01*
X65500Y99182D01*
X65500Y108697D01*
X73903D01*
Y106006D01*
D02*
G37*
G36*
X64000Y108598D02*
X64000Y99000D01*
X82365Y80635D01*
Y63880D01*
X82777Y63468D01*
X90320D01*
X92938Y61968D01*
X93518D01*
X94691Y61185D01*
X94771Y61170D01*
X94839Y61124D01*
X94919Y61140D01*
X95000Y61124D01*
X95068Y61170D01*
X95148Y61186D01*
X95216Y61231D01*
X95436Y61275D01*
X95436Y61275D01*
X95441Y61276D01*
X95515Y61291D01*
X95523Y61297D01*
X95580Y61311D01*
X95726Y61340D01*
X95732Y61348D01*
X95742Y61351D01*
X95742Y61351D01*
X95813Y61365D01*
X95966Y61468D01*
X96309D01*
Y61404D01*
X96095Y61083D01*
X96020Y60705D01*
X96095Y60326D01*
X96309Y60005D01*
Y59968D01*
X96149Y59807D01*
X96134Y59830D01*
X95813Y60044D01*
X95434Y60119D01*
X95056Y60044D01*
X94735Y59830D01*
X94520Y59509D01*
X94445Y59130D01*
X94520Y58751D01*
X94537Y58726D01*
Y58196D01*
X92909Y56568D01*
X91509D01*
X90911Y57166D01*
Y57968D01*
X82835D01*
X78312Y62490D01*
X78312Y73264D01*
X53000Y98576D01*
Y108598D01*
X64000Y108598D01*
D02*
G37*
G36*
X56029Y58394D02*
X55567Y58203D01*
X51068Y62702D01*
X50777Y62897D01*
X50433Y62965D01*
X46440D01*
X46382Y63400D01*
X45868Y64642D01*
X45050Y65708D01*
X43984Y66526D01*
X42742Y67041D01*
X41409Y67216D01*
X40077Y67041D01*
X38835Y66526D01*
X37769Y65708D01*
X36950Y64642D01*
X36436Y63400D01*
X36261Y62068D01*
X36436Y60735D01*
X36950Y59493D01*
X37769Y58427D01*
X38835Y57609D01*
X40077Y57095D01*
X41409Y56919D01*
X42742Y57095D01*
X43984Y57609D01*
X45050Y58427D01*
X45868Y59493D01*
X46382Y60735D01*
X46440Y61171D01*
X50062D01*
X56029Y55203D01*
Y47378D01*
X26698Y47378D01*
Y76906D01*
X56029Y76906D01*
Y58394D01*
D02*
G37*
G36*
X109500Y55283D02*
Y48709D01*
X101500D01*
Y55283D01*
Y66142D01*
X109500D01*
Y55283D01*
D02*
G37*
G36*
X103841Y71000D02*
X114000Y71000D01*
X114000Y43000D01*
X105000D01*
X104958Y47918D01*
X105310Y48274D01*
X108947D01*
Y48298D01*
X109500D01*
X109791Y48418D01*
X109911Y48709D01*
Y59568D01*
Y66142D01*
X109791Y66433D01*
X109500Y66553D01*
X101500D01*
X101209Y66433D01*
X101089Y66142D01*
Y62911D01*
X99974Y59803D01*
X97747Y59772D01*
X97709Y59830D01*
X97388Y60044D01*
X97009Y60119D01*
X96699Y60058D01*
X96675Y60116D01*
X96651Y60234D01*
X96482Y60487D01*
X96439Y60705D01*
X96482Y60923D01*
X96651Y61176D01*
X96675Y61293D01*
X96721Y61404D01*
X96720Y61404D01*
Y61468D01*
X96600Y61758D01*
X96600Y61759D01*
X96600D01*
X96408Y62051D01*
Y62202D01*
X96424Y62279D01*
X96408Y62357D01*
Y63809D01*
X98500Y71000D01*
X103841Y71000D01*
D02*
G37*
D10*
X140993Y50120D02*
Y58451D01*
X73903Y35917D02*
X73919Y35902D01*
X111374Y85874D02*
X112248Y86748D01*
X102415Y43585D02*
Y50500D01*
Y43585D02*
X104500Y41500D01*
X132373D01*
X140993Y50120D01*
X141276Y71969D02*
Y72561D01*
Y64640D02*
Y71969D01*
X126272D02*
X141276D01*
X121087Y66783D02*
X126272Y71969D01*
X121087Y57000D02*
Y66783D01*
X107248Y68988D02*
Y90000D01*
X107228Y68968D02*
X107248Y68988D01*
X97009Y54461D02*
Y59130D01*
X96016Y53468D02*
X97009Y54461D01*
X90136Y53468D02*
X96016D01*
X88647Y54957D02*
X90136Y53468D01*
X140993Y58451D02*
X141160Y58284D01*
X140993Y64357D02*
X141276Y64640D01*
X112248Y86748D02*
X112500Y87000D01*
X112248Y86748D02*
Y95000D01*
X102248Y85000D02*
Y95000D01*
X112248D01*
X111374Y85126D02*
Y85874D01*
X112248Y85000D02*
Y86748D01*
X75301Y79661D02*
X79041Y75921D01*
X75099Y79661D02*
X75301D01*
X51409Y72068D02*
X52505D01*
X81265Y53874D02*
X82741Y55350D01*
X58627Y53874D02*
X81265D01*
X50433Y62068D02*
X58627Y53874D01*
X41409Y62068D02*
X50433D01*
X88647Y54957D02*
Y55350D01*
X95434Y56560D02*
Y59130D01*
X94520Y55646D02*
X95434Y56560D01*
X103745Y55032D02*
X104509Y54268D01*
D13*
X121087Y57000D02*
D03*
D14*
X106913D02*
D03*
D15*
X107228Y68968D02*
D03*
Y45031D02*
D03*
D16*
X140993Y64357D02*
D03*
Y58451D02*
D03*
D17*
X88647Y55350D02*
D03*
X82741D02*
D03*
X79001Y81039D02*
D03*
X84907D02*
D03*
X79041Y75921D02*
D03*
X84946D02*
D03*
D18*
X84809Y65758D02*
D03*
Y61978D02*
D03*
X88709Y65758D02*
D03*
Y61978D02*
D03*
D19*
X97009Y59130D02*
D03*
X95434D02*
D03*
X97009Y60705D02*
D03*
X95434D02*
D03*
X97009Y62279D02*
D03*
X95434D02*
D03*
D20*
X107248Y90000D02*
D03*
X102248Y95000D02*
D03*
Y85000D02*
D03*
X112248D02*
D03*
Y95000D02*
D03*
D21*
X60626Y104000D02*
D03*
X68500D02*
D03*
D22*
X41409Y62068D02*
D03*
X31409Y72068D02*
D03*
X51409D02*
D03*
Y52068D02*
D03*
X31409D02*
D03*
D23*
X34431Y98993D02*
D03*
X34431Y26268D02*
D03*
X140836D02*
D03*
Y98993D02*
D03*
X141276Y72819D02*
D03*
X140993Y50120D02*
D03*
D24*
X103000Y61759D02*
D03*
X94520Y55646D02*
D03*
X95171Y67063D02*
D03*
X92609Y57968D02*
D03*
X92609Y60601D02*
D03*
X103000Y53000D02*
D03*
M02*
