<?xml version="1.0" encoding="UTF-8" standalone="no"?>
<!DOCTYPE svg PUBLIC "-//W3C//DTD SVG 1.1//EN" "http://www.w3.org/Graphics/SVG/1.1/DTD/svg11.dtd">
<!-- Generated by Microsoft Visio, SVG Export MainBlockDiagram.svg Page-1 -->
<svg xmlns="http://www.w3.org/2000/svg" xmlns:xlink="http://www.w3.org/1999/xlink" xmlns:ev="http://www.w3.org/2001/xml-events"
		xmlns:v="http://schemas.microsoft.com/visio/2003/SVGExtensions/" width="8.26772in" height="11.6929in"
		viewBox="0 0 595.276 841.89" xml:space="preserve" color-interpolation-filters="sRGB" class="st15">
	<v:documentProperties v:langID="1055" v:metric="true" v:viewMarkup="false">
		<v:userDefs>
			<v:ud v:nameU="msvNoAutoConnect" v:val="VT0(1):26"/>
		</v:userDefs>
	</v:documentProperties>

	<style type="text/css">
	<![CDATA[
		.st1 {stroke:#000000;stroke-linecap:round;stroke-linejoin:round;stroke-width:0.75}
		.st2 {stroke:#000000;stroke-dasharray:5.25,3.75;stroke-linecap:round;stroke-linejoin:round;stroke-width:0.75}
		.st3 {marker-start:url(#mrkr5-29);stroke:#000000;stroke-linecap:round;stroke-linejoin:round;stroke-width:0.75}
		.st4 {fill:#000000;fill-opacity:1;stroke:#000000;stroke-opacity:1;stroke-width:0.34246575342466}
		.st5 {stroke:#000000;stroke-dasharray:0.75,1.5;stroke-linecap:round;stroke-linejoin:round;stroke-width:0.75}
		.st6 {fill:none;stroke:none;stroke-linecap:round;stroke-linejoin:round;stroke-width:0.75}
		.st7 {fill:#000000;font-family:Calibri;font-size:0.833336em}
		.st8 {baseline-shift:-32.4947%;font-size:0.649894em}
		.st9 {fill:#000000}
		.st10 {stroke:#000000;stroke-linecap:butt;stroke-width:0.737008}
		.st11 {fill:#ffffff;stroke:#000000;stroke-linecap:round;stroke-linejoin:round;stroke-width:1.25}
		.st12 {font-size:1em}
		.st13 {marker-end:url(#mrkr4-210);stroke:#000000;stroke-linecap:round;stroke-linejoin:round;stroke-width:0.75}
		.st14 {fill:#000000;fill-opacity:1;stroke:#000000;stroke-opacity:1;stroke-width:0.22935779816514}
		.st15 {fill:none;fill-rule:evenodd;font-size:12px;overflow:visible;stroke-linecap:square;stroke-miterlimit:3}
	]]>
	</style>

	<defs id="Markers">
		<g id="lend5">
			<path d="M 2 1 L 0 0 L 1.98117 -0.993387 C 1.67173 -0.364515 1.67301 0.372641 1.98465 1.00043 " style="stroke:none"/>
		</g>
		<marker id="mrkr5-29" class="st4" v:arrowType="5" v:arrowSize="0" v:setback="0" refX="0" orient="auto"
				markerUnits="strokeWidth" overflow="visible">
			<use xlink:href="#lend5" transform="scale(2.92) "/>
		</marker>
		<g id="lend4">
			<path d="M 2 1 L 0 0 L 2 -1 L 2 1 " style="stroke:none"/>
		</g>
		<marker id="mrkr4-210" class="st14" v:arrowType="4" v:arrowSize="2" v:setback="8.72" refX="-8.72" orient="auto"
				markerUnits="strokeWidth" overflow="visible">
			<use xlink:href="#lend4" transform="scale(-4.36,-4.36) "/>
		</marker>
	</defs>
	<g v:mID="0" v:index="1" v:groupContext="foregroundPage">
		<v:userDefs>
			<v:ud v:nameU="AccumulatorCount" v:prompt="" v:val="VT0(2):26"/>
		</v:userDefs>
		<title>Page-1</title>
		<v:pageProperties v:drawingScale="0.0393701" v:pageScale="0.0393701" v:drawingUnits="24" v:shadowOffsetX="8.50394"
				v:shadowOffsetY="-8.50394"/>
		<v:layer v:name="Electrical" v:index="0"/>
		<v:layer v:name="Connector" v:index="1"/>
		<g id="group95-1" transform="translate(63.7795,-585.921)" v:mID="95" v:groupContext="group">
			<title>Sheet.95</title>
			<g id="group1-2" transform="translate(125.274,-139.906)" v:mID="1" v:groupContext="group">
				<title>Sheet.1</title>
				<g id="shape2-3" v:mID="2" v:groupContext="shape" transform="translate(-1.59872E-14,-11.3386)">
					<title>Sheet.2</title>
					<path d="M0 841.89 L11.34 841.89" class="st1"/>
				</g>
				<g id="shape3-6" v:mID="3" v:groupContext="shape" transform="translate(853.228,812.693) rotate(90)">
					<title>Sheet.3</title>
					<path d="M0 841.89 L17.86 841.89" class="st1"/>
				</g>
				<g id="shape4-9" v:mID="4" v:groupContext="shape" transform="translate(856.063,810.142) rotate(90)">
					<title>Sheet.4</title>
					<path d="M0 841.89 L23.24 841.89" class="st2"/>
				</g>
				<g id="shape5-12" v:mID="5" v:groupContext="shape" transform="translate(22.6772,1672.44) rotate(180)">
					<title>Sheet.5</title>
					<path d="M0 841.89 L8.5 841.89" class="st1"/>
				</g>
				<g id="shape6-15" v:mID="6" v:groupContext="shape" transform="translate(22.6772,1654.58) rotate(180)">
					<title>Sheet.6</title>
					<path d="M0 841.89 L8.5 841.89" class="st1"/>
				</g>
				<g id="shape7-18" v:mID="7" v:groupContext="shape" transform="translate(-819.213,812.693) rotate(-90)">
					<title>Sheet.7</title>
					<path d="M0 841.89 L11.34 841.89" class="st1"/>
				</g>
				<g id="shape8-21" v:mID="8" v:groupContext="shape" transform="translate(-819.213,857.055) rotate(-90)">
					<title>Sheet.8</title>
					<path d="M0 841.89 L26.5 841.89" class="st1"/>
				</g>
				<g id="shape9-24" v:mID="9" v:groupContext="shape" transform="translate(21.2598,1672.44) rotate(180)">
					<title>Sheet.9</title>
					<path d="M0 841.89 L0.71 841.89" class="st3"/>
				</g>
			</g>
			<g id="group10-30" transform="translate(125.274,-84.2052)" v:mID="10" v:groupContext="group">
				<title>Sheet.10</title>
				<g id="shape11-31" v:mID="11" v:groupContext="shape" transform="translate(-1.59872E-14,-11.3386)">
					<title>Sheet.11</title>
					<path d="M0 841.89 L11.34 841.89" class="st1"/>
				</g>
				<g id="shape12-34" v:mID="12" v:groupContext="shape" transform="translate(853.228,812.693) rotate(90)">
					<title>Sheet.12</title>
					<path d="M0 841.89 L17.86 841.89" class="st1"/>
				</g>
				<g id="shape13-37" v:mID="13" v:groupContext="shape" transform="translate(856.063,810.142) rotate(90)">
					<title>Sheet.13</title>
					<path d="M0 841.89 L23.24 841.89" class="st2"/>
				</g>
				<g id="shape14-40" v:mID="14" v:groupContext="shape" transform="translate(22.6772,1672.44) rotate(180)">
					<title>Sheet.14</title>
					<path d="M0 841.89 L8.5 841.89" class="st1"/>
				</g>
				<g id="shape15-43" v:mID="15" v:groupContext="shape" transform="translate(22.6772,1654.58) rotate(180)">
					<title>Sheet.15</title>
					<path d="M0 841.89 L8.5 841.89" class="st1"/>
				</g>
				<g id="shape16-46" v:mID="16" v:groupContext="shape" transform="translate(-819.213,812.693) rotate(-90)">
					<title>Sheet.16</title>
					<path d="M0 841.89 L11.34 841.89" class="st1"/>
				</g>
				<g id="shape17-49" v:mID="17" v:groupContext="shape" transform="translate(-819.213,841.89) rotate(-90)">
					<title>Sheet.17</title>
					<path d="M0 841.89 L11.34 841.89" class="st1"/>
				</g>
				<g id="shape18-52" v:mID="18" v:groupContext="shape" transform="translate(21.2598,1672.44) rotate(180)">
					<title>Sheet.18</title>
					<path d="M0 841.89 L0.71 841.89" class="st3"/>
				</g>
			</g>
			<g id="shape19-57" v:mID="19" v:groupContext="shape" transform="translate(989.841,648.283) rotate(90)">
				<title>Sheet.19</title>
				<path d="M0 841.89 L13.16 841.89" class="st1"/>
			</g>
			<g id="shape20-60" v:mID="20" v:groupContext="shape" transform="translate(989.841,757.685) rotate(90)">
				<title>Sheet.20</title>
				<path d="M0 841.89 L13.16 841.89" class="st1"/>
			</g>
			<g id="shape22-63" v:mID="22" v:groupContext="shape" transform="translate(115.906,-151.199)">
				<title>Sheet.22</title>
				<path d="M0 841.89 L7.27 841.89" class="st5"/>
			</g>
			<g id="shape23-66" v:mID="23" v:groupContext="shape" transform="translate(115.837,-95.4685)">
				<title>Sheet.23</title>
				<path d="M0 841.89 L7.27 841.89" class="st5"/>
			</g>
			<g id="group24-69" transform="translate(95.811,-151.087)" v:mID="24" v:groupContext="group">
				<title>Sheet.24</title>
				<g id="shape25-70" v:mID="25" v:groupContext="shape" transform="translate(-838.891,841.815) rotate(-90)">
					<title>Sheet.25</title>
					<path d="M0 841.89 L5.82 841.89" class="st1"/>
				</g>
				<g id="shape26-73" v:mID="26" v:groupContext="shape" transform="translate(-836.504,841.89) rotate(-90)">
					<title>Sheet.26</title>
					<path d="M0 841.89 L5.82 841.89" class="st1"/>
				</g>
				<g id="shape27-76" v:mID="27" v:groupContext="shape" transform="translate(29.295,-5.4823) rotate(1.78991)">
					<title>Sheet.27</title>
					<path d="M0 841.89 L2.39 841.89" class="st1"/>
				</g>
				<g id="shape28-79" v:mID="28" v:groupContext="shape" transform="translate(5.38583,0)">
					<title>Sheet.28</title>
					<path d="M0 841.89 L4.25 841.89" class="st1"/>
				</g>
				<g id="shape29-82" v:mID="29" v:groupContext="shape" transform="translate(-832.252,841.89) rotate(-90)">
					<title>Sheet.29</title>
					<path d="M0 841.89 L5.82 841.89" class="st1"/>
				</g>
				<g id="shape30-85" v:mID="30" v:groupContext="shape" transform="translate(-827.15,841.89) rotate(-90)">
					<title>Sheet.30</title>
					<path d="M0 841.89 L5.82 841.89" class="st1"/>
				</g>
				<g id="shape31-88" v:mID="31" v:groupContext="shape" transform="translate(9.6378,-5.81848)">
					<title>Sheet.31</title>
					<path d="M0 841.89 L5.1 841.89" class="st1"/>
				</g>
				<g id="shape32-91" v:mID="32" v:groupContext="shape" transform="translate(14.7402,0)">
					<title>Sheet.32</title>
					<path d="M0 841.89 L4.25 841.89" class="st1"/>
				</g>
				<g id="shape33-94" v:mID="33" v:groupContext="shape" transform="translate(0,-0.0745959)">
					<title>Sheet.33</title>
					<path d="M0 841.89 L3 841.89" class="st1"/>
				</g>
			</g>
			<g id="group34-97" transform="translate(95.2441,-95.1349)" v:mID="34" v:groupContext="group">
				<title>Sheet.34</title>
				<g id="shape35-98" v:mID="35" v:groupContext="shape" transform="translate(-838.891,841.815) rotate(-90)">
					<title>Sheet.35</title>
					<path d="M0 841.89 L5.82 841.89" class="st1"/>
				</g>
				<g id="shape36-101" v:mID="36" v:groupContext="shape" transform="translate(-836.504,841.89) rotate(-90)">
					<title>Sheet.36</title>
					<path d="M0 841.89 L5.82 841.89" class="st1"/>
				</g>
				<g id="shape37-104" v:mID="37" v:groupContext="shape" transform="translate(29.295,-5.4823) rotate(1.78991)">
					<title>Sheet.37</title>
					<path d="M0 841.89 L2.39 841.89" class="st1"/>
				</g>
				<g id="shape38-107" v:mID="38" v:groupContext="shape" transform="translate(5.38583,0)">
					<title>Sheet.38</title>
					<path d="M0 841.89 L4.25 841.89" class="st1"/>
				</g>
				<g id="shape39-110" v:mID="39" v:groupContext="shape" transform="translate(-832.252,841.89) rotate(-90)">
					<title>Sheet.39</title>
					<path d="M0 841.89 L5.82 841.89" class="st1"/>
				</g>
				<g id="shape40-113" v:mID="40" v:groupContext="shape" transform="translate(-827.15,841.89) rotate(-90)">
					<title>Sheet.40</title>
					<path d="M0 841.89 L5.82 841.89" class="st1"/>
				</g>
				<g id="shape41-116" v:mID="41" v:groupContext="shape" transform="translate(9.6378,-5.81848)">
					<title>Sheet.41</title>
					<path d="M0 841.89 L5.1 841.89" class="st1"/>
				</g>
				<g id="shape42-119" v:mID="42" v:groupContext="shape" transform="translate(14.7402,0)">
					<title>Sheet.42</title>
					<path d="M0 841.89 L4.25 841.89" class="st1"/>
				</g>
				<g id="shape43-122" v:mID="43" v:groupContext="shape" transform="translate(0,-0.0745959)">
					<title>Sheet.43</title>
					<path d="M0 841.89 L3 841.89" class="st1"/>
				</g>
			</g>
			<g id="shape44-125" v:mID="44" v:groupContext="shape" transform="translate(-620.925,772.238) rotate(-90.0945)">
				<title>Sheet.44</title>
				<path d="M0 841.89 L63.23 841.89" class="st1"/>
			</g>
			<g id="shape45-128" v:mID="45" v:groupContext="shape" transform="translate(-621.027,701.721) rotate(-89.8932)">
				<title>Sheet.45</title>
				<path d="M0 841.89 L55.01 841.89" class="st1"/>
			</g>
			<g id="shape46-131" v:mID="46" v:groupContext="shape" transform="translate(148.046,-193.606)">
				<title>Sheet.46</title>
				<path d="M0 841.89 L72.92 841.89" class="st1"/>
			</g>
			<g id="shape47-134" v:mID="47" v:groupContext="shape" transform="translate(191.394,-71.016)">
				<title>Sheet.47</title>
				<path d="M0 841.89 L29.49 841.89" class="st1"/>
			</g>
			<g id="shape48-137" v:mID="48" v:groupContext="shape" transform="translate(187.937,-132.378)">
				<title>Sheet.48</title>
				<desc>VDC</desc>
				<v:textBlock v:margins="rect(4,4,4,4)" v:tabSpace="42.5197"/>
				<v:textRect cx="13.2694" cy="836.787" width="26.54" height="10.2047"/>
				<rect x="0" y="831.685" width="26.5388" height="10.2047" class="st6"/>
				<text x="6.7" y="839.79" class="st7" v:langID="1055"><v:paragraph v:horizAlign="1"/><v:tabList/>V<tspan
							dy="-0.284em" class="st8" v:baseFontSize="10">DC</tspan></text>			</g>
			<g id="shape49-141" v:mID="49" v:groupContext="shape" transform="translate(209.383,-139.711)">
				<title>Sheet.49</title>
				<desc>+</desc>
				<v:textBlock v:margins="rect(4,4,4,4)" v:tabSpace="42.5197"/>
				<v:textRect cx="4.16693" cy="837.045" width="8.34" height="9.68933"/>
				<rect x="0" y="832.2" width="8.33386" height="9.68933" class="st6"/>
				<text x="4" y="840.05" class="st7" v:langID="1055"><v:paragraph v:horizAlign="1"/><v:tabList/>+</text>			</g>
			<g id="shape50-144" v:mID="50" v:groupContext="shape" transform="translate(232.715,1545.37) rotate(180)">
				<title>Sheet.50</title>
				<path d="M0 841.89 L22.96 841.89" class="st1"/>
			</g>
			<g id="shape51-147" v:mID="51" v:groupContext="shape" transform="translate(227.769,1549.7) rotate(180)">
				<title>Sheet.51</title>
				<path d="M0 841.89 L13.16 841.89" class="st1"/>
			</g>
			<g id="shape55-150" v:mID="55" v:groupContext="shape" transform="translate(147.969,-71.016)">
				<title>Sheet.55</title>
				<path d="M0 841.89 L29.25 841.89" class="st1"/>
			</g>
			<g id="group57-153" transform="translate(188.787,-43.3701)" v:mID="57" v:groupContext="group" v:layerMember="0">
				<v:custProps>
					<v:cp v:nameU="Label" v:lbl="Label" v:type="0" v:format="@" v:sortKey="" v:invis="false" v:ask="false"
							v:langID="1033" v:val="VT4()"/>
					<v:cp v:nameU="Slider_Position" v:lbl="Slider position (0-1)" v:type="2" v:langID="1033" v:val="VT0(0.5):26"/>
				</v:custProps>
				<v:userDefs>
					<v:ud v:nameU="Form" v:val="VT0(1):5"/>
					<v:ud v:nameU="SubType" v:val="VT0(0):26"/>
					<v:ud v:nameU="visVersion" v:val="VT0(15):26"/>
					<v:ud v:nameU="visDescription" v:val="VT4(Represents a fixed or variable resistor.)"/>
				</v:userDefs>
				<title>Resistor.57</title>
				<g id="shape58-154" v:mID="58" v:groupContext="shape" v:layerMember="0">
					<title>Sheet.58</title>
					<v:userDefs>
						<v:ud v:nameU="SubType" v:val="VT0(0):26"/>
						<v:ud v:nameU="Form" v:val="VT0(1):5"/>
					</v:userDefs>
					<path d="M0 839.06 L1.18 836.22 L3.54 841.89 L5.91 836.22 L8.27 841.89 L10.63 836.22 L12.99 841.89 L14.17 839.06"
							class="st1"/>
				</g>
				<g id="shape59-157" v:mID="59" v:groupContext="shape" v:layerMember="0"
						transform="translate(-593.932,250.063) rotate(-45)">
					<title>Sheet.59</title>
					<v:userDefs>
						<v:ud v:nameU="SubType" v:val="VT0(0):26"/>
					</v:userDefs>
				</g>
			</g>
			<g id="shape60-159" v:mID="60" v:groupContext="shape" v:layerMember="0"
					transform="translate(1004.88,804.898) rotate(90) scale(-1,1)">
				<title>Capacitor</title>
				<v:custProps>
					<v:cp v:nameU="Label" v:lbl="Label" v:prompt="" v:type="0" v:format="@" v:sortKey="" v:invis="false"
							v:ask="false" v:langID="1033" v:cal="0" v:val="VT4()"/>
				</v:custProps>
				<v:userDefs>
					<v:ud v:nameU="Form" v:val="VT0(0):26"/>
					<v:ud v:nameU="Type" v:val="VT0(0):26"/>
					<v:ud v:nameU="visDescription" v:val="VT4(Represents a fixed or variable capacitor.)"/>
					<v:ud v:nameU="visVersion" v:val="VT0(15):26"/>
					<v:ud v:nameU="Label" v:prompt="" v:val="VT4()"/>
					<v:ud v:nameU="SolSH" v:prompt="" v:val="VT4({2EE3C7D2-E26E-4B72-9E9C-5170DDBF261A})"/>
					<v:ud v:nameU="Label" v:prompt="" v:val="VT4(C1)"/>
				</v:userDefs>
				<path d="M2.73 831.94 L2.73 830.47 L15.63 830.47 L15.63 831.94 L2.73 831.94 ZM2.73 834.89 L2.73 833.41 L15.63 833.41
							 L15.63 834.89 L2.73 834.89 Z" class="st9"/>
				<path d="M9.21 841.89 L9.21 834.7" class="st10"/>
				<path d="M9.21 830.65 L9.21 823.46" class="st10"/>
			</g>
			<g id="group61-163" transform="translate(171.038,-58.8108)" v:mID="61" v:groupContext="group">
				<title>Sheet.61</title>
				<g id="group52-164" transform="translate(6.18278,-9.37058)" v:mID="52" v:groupContext="group" v:layerMember="0">
					<v:custProps>
						<v:cp v:nameU="Label" v:lbl="Label" v:type="0" v:format="@" v:sortKey="" v:invis="false" v:ask="false"
								v:langID="1033" v:val="VT4()"/>
						<v:cp v:nameU="Slider_Position" v:lbl="Slider position (0-1)" v:type="2" v:langID="1033"
								v:val="VT0(0.5):26"/>
					</v:custProps>
					<v:userDefs>
						<v:ud v:nameU="Form" v:val="VT0(1):5"/>
						<v:ud v:nameU="SubType" v:val="VT0(0):26"/>
						<v:ud v:nameU="visVersion" v:val="VT0(15):26"/>
						<v:ud v:nameU="visDescription" v:val="VT4(Represents a fixed or variable resistor.)"/>
					</v:userDefs>
					<title>Resistor</title>
					<g id="shape53-165" v:mID="53" v:groupContext="shape" v:layerMember="0">
						<title>Sheet.53</title>
						<v:userDefs>
							<v:ud v:nameU="SubType" v:val="VT0(0):26"/>
							<v:ud v:nameU="Form" v:val="VT0(1):5"/>
						</v:userDefs>
						<path d="M0 839.06 L1.18 836.22 L3.54 841.89 L5.91 836.22 L8.27 841.89 L10.63 836.22 L12.99 841.89 L14.17
									 839.06" class="st1"/>
					</g>
					<g id="shape54-168" v:mID="54" v:groupContext="shape" v:layerMember="0"
							transform="translate(-593.932,250.063) rotate(-45)">
						<title>Sheet.54</title>
						<v:userDefs>
							<v:ud v:nameU="SubType" v:val="VT0(0):26"/>
						</v:userDefs>
					</g>
				</g>
				<g id="shape56-170" v:mID="56" v:groupContext="shape">
					<title>Sheet.56</title>
					<desc>RPCB</desc>
					<v:textBlock v:margins="rect(4,4,4,4)" v:tabSpace="42.5197"/>
					<v:textRect cx="13.2694" cy="836.787" width="26.54" height="10.2047"/>
					<rect x="0" y="831.685" width="26.5388" height="10.2047" class="st6"/>
					<text x="5.38" y="839.79" class="st7" v:langID="1055"><v:paragraph v:horizAlign="1"/><v:tabList/>R<tspan
								dy="-0.284em" class="st8" v:baseFontSize="10">PCB</tspan></text>				</g>
			</g>
			<g id="shape62-174" v:mID="62" v:groupContext="shape" transform="translate(1054.77,770.874) rotate(90)">
				<title>Sheet.62</title>
				<path d="M0 841.89 L24.81 841.89" class="st1"/>
			</g>
			<g id="shape63-177" v:mID="63" v:groupContext="shape" transform="translate(1004.88,795.685) rotate(90)">
				<title>Sheet.63</title>
				<path d="M0 841.89 L17.01 841.89" class="st1"/>
			</g>
			<g id="shape64-180" v:mID="64" v:groupContext="shape" transform="translate(202.961,-46.2047)">
				<title>Sheet.64</title>
				<path d="M0 841.89 L9.92 841.89" class="st1"/>
			</g>
			<g id="shape65-183" v:mID="65" v:groupContext="shape" transform="translate(181.417,-46.2047)">
				<title>Sheet.65</title>
				<path d="M0 841.89 L7.37 841.89" class="st1"/>
			</g>
			<g id="shape68-186" v:mID="68" v:groupContext="shape" transform="translate(1004.88,770.874) rotate(90)">
				<title>Sheet.68</title>
				<path d="M0 841.89 L24.81 841.89" class="st1"/>
			</g>
			<g id="shape69-189" v:mID="69" v:groupContext="shape" transform="translate(1023.31,795.685) rotate(90)">
				<title>Sheet.69</title>
				<path d="M0 841.89 L34.87 841.89" class="st1"/>
			</g>
			<g id="shape70-192" v:mID="70" v:groupContext="shape" transform="translate(72.9921,-1.13687E-13)">
				<title>Rounded Rectangle</title>
				<desc>Signal Processing</desc>
				<v:userDefs>
					<v:ud v:nameU="CTypeTopLeftSnip" v:prompt="" v:val="VT0(0):5"/>
					<v:ud v:nameU="CTypeTopRightSnip" v:prompt="" v:val="VT0(0):5"/>
					<v:ud v:nameU="CTypeBotLeftSnip" v:prompt="" v:val="VT0(0):5"/>
					<v:ud v:nameU="CTypeBotRightSnip" v:prompt="" v:val="VT0(0):5"/>
					<v:ud v:nameU="CornerLockHoriz" v:prompt="" v:val="VT0(1):5"/>
					<v:ud v:nameU="CornerLockVert" v:prompt="" v:val="VT0(1):5"/>
					<v:ud v:nameU="CornerLockDiag" v:prompt="" v:val="VT0(0):5"/>
					<v:ud v:nameU="TopLeftOffset" v:prompt="" v:val="VT0(0.15748031496063):24"/>
					<v:ud v:nameU="TopRightOffset" v:prompt="" v:val="VT0(0.15748031496063):24"/>
					<v:ud v:nameU="BotLeftOffset" v:prompt="" v:val="VT0(0.15748031496063):24"/>
					<v:ud v:nameU="BotRightOffset" v:prompt="" v:val="VT0(0.15748031496063):24"/>
					<v:ud v:nameU="visVersion" v:prompt="" v:val="VT0(15):26"/>
					<v:ud v:nameU="TopLeftOffset" v:prompt="" v:val="VT0(0.073818897637795):1"/>
					<v:ud v:nameU="TopRightOffset" v:prompt="" v:val="VT0(0.073818897637795):1"/>
					<v:ud v:nameU="BotLeftOffset" v:prompt="" v:val="VT0(0.073818897637795):1"/>
					<v:ud v:nameU="BotRightOffset" v:prompt="" v:val="VT0(0.073818897637795):1"/>
				</v:userDefs>
				<v:textBlock v:margins="rect(4,4,4,4)" v:tabSpace="42.5197"/>
				<v:textRect cx="26.5748" cy="821.622" width="53.15" height="40.5354"/>
				<path d="M5.31 841.89 L47.83 841.89 A5.31487 5.31487 -180 0 0 53.15 836.57 L53.15 806.67 A5.31487 5.31487 -180 0
							 0 47.83 801.35 L5.31 801.35 A5.31487 5.31487 -180 0 0 -0 806.67 L0 836.57 A5.31487 5.31487 -180 0 0
							 5.31 841.89 Z" class="st11"/>
				<text x="14.61" y="818.62" class="st7" v:langID="1055"><v:paragraph v:horizAlign="1"/><v:tabList/>Signal <tspan
							x="4.97" dy="1.2em" class="st12">Processing</tspan></text>			</g>
			<g id="shape71-196" v:mID="71" v:groupContext="shape" transform="translate(126.142,-29.1969)">
				<title>Sheet.71</title>
				<path d="M0 841.89 L36.85 841.89" class="st1"/>
			</g>
			<g id="shape72-199" v:mID="72" v:groupContext="shape" transform="translate(123.642,-11.0514) rotate(-0.170108)">
				<title>Sheet.72</title>
				<path d="M0 841.89 L55.28 841.89" class="st1"/>
			</g>
			<g id="shape75-202" v:mID="75" v:groupContext="shape" transform="translate(1.19904E-14,-41.6693)">
				<title>Rounded Rectangle.75</title>
				<desc>SC Trigger</desc>
				<v:userDefs>
					<v:ud v:nameU="CTypeTopLeftSnip" v:prompt="" v:val="VT0(0):5"/>
					<v:ud v:nameU="CTypeTopRightSnip" v:prompt="" v:val="VT0(0):5"/>
					<v:ud v:nameU="CTypeBotLeftSnip" v:prompt="" v:val="VT0(0):5"/>
					<v:ud v:nameU="CTypeBotRightSnip" v:prompt="" v:val="VT0(0):5"/>
					<v:ud v:nameU="CornerLockHoriz" v:prompt="" v:val="VT0(1):5"/>
					<v:ud v:nameU="CornerLockVert" v:prompt="" v:val="VT0(1):5"/>
					<v:ud v:nameU="CornerLockDiag" v:prompt="" v:val="VT0(0):5"/>
					<v:ud v:nameU="TopLeftOffset" v:prompt="" v:val="VT0(0.15748031496063):24"/>
					<v:ud v:nameU="TopRightOffset" v:prompt="" v:val="VT0(0.15748031496063):24"/>
					<v:ud v:nameU="BotLeftOffset" v:prompt="" v:val="VT0(0.15748031496063):24"/>
					<v:ud v:nameU="BotRightOffset" v:prompt="" v:val="VT0(0.15748031496063):24"/>
					<v:ud v:nameU="visVersion" v:prompt="" v:val="VT0(15):26"/>
					<v:ud v:nameU="TopLeftOffset" v:prompt="" v:val="VT0(0.073818897637795):1"/>
					<v:ud v:nameU="TopRightOffset" v:prompt="" v:val="VT0(0.073818897637795):1"/>
					<v:ud v:nameU="BotLeftOffset" v:prompt="" v:val="VT0(0.073818897637795):1"/>
					<v:ud v:nameU="BotRightOffset" v:prompt="" v:val="VT0(0.073818897637795):1"/>
				</v:userDefs>
				<v:textBlock v:margins="rect(4,4,4,4)" v:tabSpace="42.5197"/>
				<v:textRect cx="26.5748" cy="821.622" width="53.15" height="40.5354"/>
				<path d="M5.31 841.89 L47.83 841.89 A5.31487 5.31487 -180 0 0 53.15 836.57 L53.15 806.67 A5.31487 5.31487 -180 0
							 0 47.83 801.35 L5.31 801.35 A5.31487 5.31487 -180 0 0 -0 806.67 L0 836.57 A5.31487 5.31487 -180 0 0
							 5.31 841.89 Z" class="st11"/>
				<text x="6.22" y="824.62" class="st7" v:langID="1055"><v:paragraph v:horizAlign="1"/><v:tabList/>SC Trigger</text>			</g>
			<g id="shape76-205" v:mID="76" v:groupContext="shape" v:layerMember="1" transform="translate(72.9921,-20.2677)">
				<title>Dynamic connector</title>
				<path d="M0 841.89 L-46.42 841.89 L-46.42 827.03" class="st13"/>
			</g>
			<g id="shape77-211" v:mID="77" v:groupContext="shape" transform="translate(7.59393E-14,-103.465)">
				<title>Rounded Rectangle.77</title>
				<desc>Gate Driver</desc>
				<v:userDefs>
					<v:ud v:nameU="CTypeTopLeftSnip" v:prompt="" v:val="VT0(0):5"/>
					<v:ud v:nameU="CTypeTopRightSnip" v:prompt="" v:val="VT0(0):5"/>
					<v:ud v:nameU="CTypeBotLeftSnip" v:prompt="" v:val="VT0(0):5"/>
					<v:ud v:nameU="CTypeBotRightSnip" v:prompt="" v:val="VT0(0):5"/>
					<v:ud v:nameU="CornerLockHoriz" v:prompt="" v:val="VT0(1):5"/>
					<v:ud v:nameU="CornerLockVert" v:prompt="" v:val="VT0(1):5"/>
					<v:ud v:nameU="CornerLockDiag" v:prompt="" v:val="VT0(0):5"/>
					<v:ud v:nameU="TopLeftOffset" v:prompt="" v:val="VT0(0.15748031496063):24"/>
					<v:ud v:nameU="TopRightOffset" v:prompt="" v:val="VT0(0.15748031496063):24"/>
					<v:ud v:nameU="BotLeftOffset" v:prompt="" v:val="VT0(0.15748031496063):24"/>
					<v:ud v:nameU="BotRightOffset" v:prompt="" v:val="VT0(0.15748031496063):24"/>
					<v:ud v:nameU="visVersion" v:prompt="" v:val="VT0(15):26"/>
					<v:ud v:nameU="TopLeftOffset" v:prompt="" v:val="VT0(0.073818897637795):1"/>
					<v:ud v:nameU="TopRightOffset" v:prompt="" v:val="VT0(0.073818897637795):1"/>
					<v:ud v:nameU="BotLeftOffset" v:prompt="" v:val="VT0(0.073818897637795):1"/>
					<v:ud v:nameU="BotRightOffset" v:prompt="" v:val="VT0(0.073818897637795):1"/>
				</v:userDefs>
				<v:textBlock v:margins="rect(4,4,4,4)" v:tabSpace="42.5197"/>
				<v:textRect cx="26.5748" cy="821.622" width="53.15" height="40.5354"/>
				<path d="M5.31 841.89 L47.83 841.89 A5.31487 5.31487 -180 0 0 53.15 836.57 L53.15 806.67 A5.31487 5.31487 -180 0
							 0 47.83 801.35 L5.31 801.35 A5.31487 5.31487 -180 0 0 -0 806.67 L0 836.57 A5.31487 5.31487 -180 0 0
							 5.31 841.89 Z" class="st11"/>
				<text x="16.86" y="818.62" class="st7" v:langID="1055"><v:paragraph v:horizAlign="1"/><v:tabList/>Gate <tspan
							x="14.12" dy="1.2em" class="st12">Driver</tspan></text>			</g>
			<g id="shape78-215" v:mID="78" v:groupContext="shape" v:layerMember="1" transform="translate(19.4882,-82.2047)">
				<title>Dynamic connector.78</title>
				<path d="M7.09 841.89 L7.09 827.17" class="st13"/>
			</g>
			<g id="group87-220" transform="translate(126.124,-9.30279)" v:mID="87" v:groupContext="group">
				<title>Sheet.87</title>
				<g id="shape67-221" v:mID="67" v:groupContext="shape" transform="translate(0.793701,0)">
					<title>Sheet.67</title>
					<desc>-</desc>
					<v:textBlock v:margins="rect(4,4,4,4)" v:tabSpace="42.5197"/>
					<v:textRect cx="2.0126" cy="837.045" width="4.03" height="9.68933"/>
					<rect x="0" y="832.2" width="4.0252" height="9.68933" class="st6"/>
					<text x="4" y="840.05" class="st7" v:langID="1055"><v:paragraph v:horizAlign="1"/><v:tabList/>-</text>				</g>
				<g id="shape73-224" v:mID="73" v:groupContext="shape" transform="translate(4.996E-16,-12.2405)">
					<title>Sheet.73</title>
					<desc>+</desc>
					<v:textBlock v:margins="rect(4,4,4,4)" v:tabSpace="42.5197"/>
					<v:textRect cx="2.55118" cy="837.045" width="5.11" height="9.68933"/>
					<rect x="0" y="832.2" width="5.10236" height="9.68933" class="st6"/>
					<text x="4" y="840.05" class="st7" v:langID="1055"><v:paragraph v:horizAlign="1"/><v:tabList/>+</text>				</g>
				<g id="shape74-227" v:mID="74" v:groupContext="shape" transform="translate(4.56053,-5.66929)">
					<title>Sheet.74</title>
					<desc>Vs</desc>
					<v:textBlock v:margins="rect(4,4,4,4)" v:tabSpace="42.5197"/>
					<v:textRect cx="8.63312" cy="836.787" width="17.27" height="10.2047"/>
					<rect x="0" y="831.685" width="17.2662" height="10.2047" class="st6"/>
					<text x="4.53" y="839.79" class="st7" v:langID="1055"><v:paragraph v:horizAlign="1"/><v:tabList/>V<tspan
								dy="-0.284em" class="st8" v:baseFontSize="10">s</tspan></text>				</g>
			</g>
			<g id="shape89-231" v:mID="89" v:groupContext="shape" transform="translate(53.1495,-131.244)">
				<title>Sheet.89</title>
				<path d="M0 841.89 L15.94 841.89" class="st1"/>
			</g>
			<g id="shape90-234" v:mID="90" v:groupContext="shape" transform="translate(53.1495,-115.654)">
				<title>Sheet.90</title>
				<path d="M0 841.89 L16.02 841.89" class="st1"/>
			</g>
			<g id="shape91-237" v:mID="91" v:groupContext="shape" transform="translate(910.984,690.803) rotate(90)">
				<title>Sheet.91</title>
				<path d="M0 841.89 L19.84 841.89" class="st1"/>
			</g>
			<g id="shape92-240" v:mID="92" v:groupContext="shape" transform="translate(911.055,726.236) rotate(90)">
				<title>Sheet.92</title>
				<path d="M0 841.89 L20.44 841.89" class="st1"/>
			</g>
			<g id="shape93-243" v:mID="93" v:groupContext="shape" transform="translate(69.1654,-151.161)">
				<title>Sheet.93</title>
				<path d="M0 841.89 L26.65 841.89" class="st1"/>
			</g>
			<g id="shape94-246" v:mID="94" v:groupContext="shape" transform="translate(69.1654,-95.2095)">
				<title>Sheet.94</title>
				<path d="M0 841.89 L26.08 841.89" class="st1"/>
			</g>
		</g>
	</g>
</svg>
