G04*
G04 #@! TF.GenerationSoftware,Altium Limited,Altium Designer,18.0.7 (293)*
G04*
G04 Layer_Physical_Order=1*
G04 Layer_Color=255*
%FSLAX25Y25*%
%MOIN*%
G70*
G01*
G75*
%ADD10C,0.01000*%
%ADD21R,0.03543X0.03150*%
%ADD22R,0.03150X0.04331*%
%ADD23R,0.03000X0.03000*%
%ADD24R,0.03150X0.03543*%
%ADD25O,0.02362X0.05709*%
%ADD26R,0.02362X0.06102*%
%ADD27R,0.07874X0.05906*%
%ADD28R,0.03937X0.08268*%
%ADD29R,0.15748X0.15748*%
%ADD30R,0.05000X0.04500*%
%ADD31R,0.14567X0.06693*%
%ADD32R,0.07087X0.05118*%
%ADD33R,0.03543X0.02362*%
%ADD34R,0.02362X0.03543*%
%ADD35R,0.05118X0.07087*%
%ADD36R,0.03000X0.03000*%
%ADD37R,0.06102X0.02362*%
%ADD61C,0.01500*%
%ADD62C,0.03000*%
%ADD63C,0.02000*%
%ADD64C,0.06299*%
%ADD65R,0.06299X0.06299*%
%ADD66C,0.07874*%
%ADD67C,0.03500*%
%ADD68C,0.02756*%
%ADD69C,0.05000*%
G36*
X474050Y40413D02*
X457350Y40413D01*
X457350Y174412D01*
X452800Y177900D01*
X428300Y177900D01*
X417590D01*
X417194Y179547D01*
X416442Y181364D01*
X415414Y183041D01*
X414137Y184537D01*
X412641Y185814D01*
X410964Y186842D01*
X409147Y187594D01*
X407234Y188054D01*
X405273Y188208D01*
X403312Y188054D01*
X401400Y187594D01*
X399583Y186842D01*
X397905Y185814D01*
X396410Y184537D01*
X395132Y183041D01*
X394105Y181364D01*
X393352Y179547D01*
X392957Y177900D01*
X303416D01*
X303296Y178400D01*
D01*
X303021Y179547D01*
X302269Y181364D01*
X301900Y181965D01*
X301241Y183041D01*
X299963Y184537D01*
X298468Y185814D01*
X298400Y185855D01*
X298400Y195300D01*
X301900D01*
D01*
X392200D01*
Y195300D01*
X454603Y195300D01*
X474050Y195300D01*
X474050Y40413D01*
D02*
G37*
G36*
X448000Y162872D02*
X448000Y40413D01*
X431300Y40413D01*
Y125920D01*
X423500Y131900D01*
X388000D01*
Y139800D01*
X371400Y156400D01*
X310700D01*
Y171600D01*
X393435D01*
X394105Y169983D01*
X395132Y168306D01*
X396410Y166810D01*
X397905Y165532D01*
X399583Y164505D01*
X401400Y163752D01*
X403312Y163293D01*
X405273Y163138D01*
X407234Y163293D01*
X409147Y163752D01*
X410964Y164505D01*
X412641Y165532D01*
X414137Y166810D01*
X415414Y168306D01*
X416442Y169983D01*
X417112Y171600D01*
X422400D01*
Y171613D01*
X439747D01*
X448000Y162872D01*
D02*
G37*
G36*
X275500Y156100D02*
X262900D01*
Y171300D01*
X275500D01*
Y156100D01*
D02*
G37*
G36*
X373200Y139400D02*
X357700D01*
Y143400D01*
X364317D01*
X364361Y143371D01*
X365105Y143063D01*
X365489Y142986D01*
X365566Y142971D01*
X366371D01*
X366463Y142989D01*
X366832Y143063D01*
X367576Y143371D01*
X367620Y143400D01*
X373200D01*
Y139400D01*
D02*
G37*
G36*
X339200Y139800D02*
X323700D01*
Y143800D01*
X329333D01*
X329502Y143632D01*
X329892Y143371D01*
X330636Y143063D01*
X331021Y142986D01*
X331097Y142971D01*
X331903D01*
X331994Y142989D01*
X332364Y143063D01*
X333108Y143371D01*
X333499Y143632D01*
X333667Y143800D01*
X339200D01*
Y139800D01*
D02*
G37*
G36*
X347909Y143000D02*
X347844Y142500D01*
X347944Y141735D01*
X348240Y141022D01*
X348300Y140943D01*
Y140193D01*
X348207Y139968D01*
X348119Y139300D01*
X348207Y138632D01*
X348300Y138407D01*
Y137293D01*
X348207Y137068D01*
X348119Y136400D01*
X348207Y135732D01*
X348300Y135507D01*
Y133900D01*
X346200D01*
X345381Y134719D01*
Y138281D01*
X345200D01*
Y139700D01*
X341300D01*
Y143500D01*
X347547D01*
X347909Y143000D01*
D02*
G37*
G36*
X355800Y139900D02*
X352000D01*
Y138281D01*
X351919D01*
Y133900D01*
X350004Y133900D01*
X349504Y134400D01*
Y135507D01*
X349470Y135677D01*
X349493Y135732D01*
X349581Y136400D01*
X349493Y137068D01*
X349470Y137123D01*
X349504Y137293D01*
Y138407D01*
X349470Y138577D01*
X349493Y138632D01*
X349581Y139300D01*
X349493Y139968D01*
X349470Y140023D01*
X349504Y140193D01*
Y140943D01*
X349474Y141098D01*
X349463Y141255D01*
X349428Y141326D01*
X349413Y141404D01*
X349340Y141513D01*
X349322Y141555D01*
X349356Y141635D01*
X349456Y142400D01*
X349404Y142800D01*
X349809Y143298D01*
X349818Y143300D01*
X355800Y143300D01*
Y139900D01*
D02*
G37*
G36*
X356500Y133237D02*
X356465Y133191D01*
X356207Y132568D01*
X356119Y131900D01*
X356168Y131531D01*
X355794Y131100D01*
X351117D01*
X350700Y131100D01*
X350600Y131000D01*
X350700Y130900D01*
X350700Y130600D01*
Y122000D01*
X315500D01*
Y125000D01*
X345900D01*
X347100Y126200D01*
Y131100D01*
X346900Y131300D01*
X345520D01*
X345352Y131552D01*
X344961Y131813D01*
X344500Y131904D01*
X341396D01*
X341100Y132200D01*
Y137300D01*
X344177D01*
Y134719D01*
X344177Y134719D01*
X344268Y134258D01*
X344530Y133867D01*
X345349Y133048D01*
X345739Y132787D01*
X346200Y132696D01*
X346200Y132696D01*
X348300D01*
X348761Y132787D01*
X349151Y133048D01*
X349543Y132787D01*
X350004Y132696D01*
X350004Y132696D01*
X351919Y132696D01*
X352380Y132787D01*
X352770Y133048D01*
X353031Y133439D01*
X353123Y133900D01*
Y135563D01*
X353193Y135732D01*
X353281Y136400D01*
X353215Y136900D01*
X353466Y137293D01*
X353597Y137400D01*
X356500D01*
Y133237D01*
D02*
G37*
G36*
X281512Y183688D02*
X280959Y183041D01*
X279931Y181364D01*
X279179Y179547D01*
X278720Y177634D01*
X278565Y175673D01*
X278720Y173712D01*
X279179Y171800D01*
X279931Y169983D01*
X280959Y168306D01*
X282237Y166810D01*
X283732Y165532D01*
X285409Y164505D01*
X287227Y163752D01*
X287386Y163714D01*
X287550Y163550D01*
Y160650D01*
X299650D01*
X304866Y154963D01*
X305130Y154093D01*
X305687Y153050D01*
X306437Y152137D01*
X307350Y151387D01*
X308393Y150830D01*
X309524Y150487D01*
X310700Y150371D01*
X322500D01*
X322500Y143821D01*
X322496Y143800D01*
Y139800D01*
X322500Y139779D01*
Y139100D01*
X322747D01*
X322849Y138949D01*
X323239Y138687D01*
X323700Y138596D01*
X328204D01*
X328600Y138200D01*
Y131904D01*
X315500D01*
X315487Y131902D01*
X315100Y132219D01*
Y138347D01*
X315562D01*
Y144253D01*
X315100D01*
Y145700D01*
X304700D01*
X296800Y153600D01*
X287550D01*
Y153600D01*
X278300D01*
X276472Y155428D01*
X276613Y155639D01*
X276704Y156100D01*
Y171300D01*
X276613Y171761D01*
X276351Y172152D01*
X275961Y172413D01*
X275500Y172504D01*
X267796D01*
X261400Y178900D01*
X251700D01*
Y188800D01*
X276400D01*
X281512Y183688D01*
D02*
G37*
G36*
X364900Y130500D02*
X357383D01*
X357275Y130800D01*
X357224Y131000D01*
X357310Y131150D01*
X357315Y131186D01*
X357331Y131219D01*
X357344Y131418D01*
X357369Y131616D01*
X357359Y131651D01*
X357361Y131688D01*
X357333Y131900D01*
X357380Y132254D01*
X357570Y132712D01*
X357613Y132776D01*
X357628Y132854D01*
X357663Y132925D01*
X357674Y133082D01*
X357704Y133237D01*
Y137400D01*
X357868Y137600D01*
X364900D01*
Y130500D01*
D02*
G37*
G36*
X344500Y126400D02*
X315500D01*
Y130700D01*
X331076D01*
X331588Y130188D01*
X332148Y129758D01*
X332800Y129488D01*
X333500Y129396D01*
X334200Y129488D01*
X334852Y129758D01*
X335412Y130188D01*
X335529Y130340D01*
X336188Y130388D01*
X336193Y130384D01*
X336748Y129958D01*
X337400Y129688D01*
X338100Y129596D01*
X338800Y129688D01*
X339452Y129958D01*
X340012Y130388D01*
X340252Y130700D01*
X344500D01*
Y126400D01*
D02*
G37*
G36*
X301200Y126486D02*
X301100Y126404D01*
X288228D01*
X288150Y126389D01*
X288071Y126394D01*
X287922Y126343D01*
X287767Y126313D01*
X287701Y126268D01*
X287626Y126243D01*
X287508Y126139D01*
X287376Y126051D01*
X287332Y125986D01*
X287273Y125933D01*
X287094Y125700D01*
X285100D01*
Y130200D01*
X301200D01*
Y126486D01*
D02*
G37*
G36*
X301100Y120862D02*
X293568D01*
Y120500D01*
X291000D01*
X290753Y120253D01*
X288538D01*
Y118038D01*
X286100Y115600D01*
X283700D01*
X280700Y118600D01*
X272000D01*
Y125200D01*
X283772D01*
X284175Y124675D01*
X284709Y124265D01*
X285332Y124007D01*
X286000Y123919D01*
X286668Y124007D01*
X287291Y124265D01*
X287825Y124675D01*
X288228Y125200D01*
X301100D01*
Y120862D01*
D02*
G37*
G36*
X238600Y138000D02*
X243300Y133300D01*
Y123200D01*
X232000D01*
Y148700D01*
X238600D01*
X238600Y138000D01*
D02*
G37*
G36*
X228600Y148300D02*
Y122700D01*
X222000Y122700D01*
X217700Y127000D01*
X217700Y132900D01*
X217602Y148044D01*
X217956Y148397D01*
X228600Y148300D01*
D02*
G37*
G36*
X277449Y152749D02*
X277839Y152487D01*
X278300Y152396D01*
X278300Y152396D01*
X278819D01*
Y146261D01*
X278765Y146191D01*
X278507Y145568D01*
X278419Y144900D01*
X278507Y144232D01*
X278765Y143609D01*
X279175Y143075D01*
X279709Y142665D01*
X280332Y142407D01*
X281000Y142319D01*
X281668Y142407D01*
X282291Y142665D01*
X282825Y143075D01*
X283235Y143609D01*
X283493Y144232D01*
X283581Y144900D01*
X283493Y145568D01*
X283458Y145653D01*
X283736Y146069D01*
X286181D01*
Y152396D01*
X287550D01*
X287550Y152396D01*
X296301D01*
X296800Y151897D01*
Y149661D01*
X299195Y149502D01*
X303849Y144849D01*
X304239Y144587D01*
X304700Y144496D01*
X304700Y144496D01*
X313896D01*
Y144253D01*
X313987Y143792D01*
X314248Y143401D01*
X314358Y143328D01*
Y139272D01*
X314248Y139199D01*
X313987Y138808D01*
X313896Y138347D01*
Y132219D01*
X313907Y132160D01*
X313901Y132101D01*
X313953Y131931D01*
X313987Y131758D01*
X314021Y131708D01*
X314038Y131651D01*
X314150Y131514D01*
X314248Y131367D01*
X314298Y131334D01*
X314336Y131288D01*
X314424Y131216D01*
X314387Y131161D01*
X314296Y130700D01*
Y126400D01*
X314387Y125939D01*
X314547Y125700D01*
X314387Y125461D01*
X314296Y125000D01*
Y122000D01*
X314387Y121539D01*
X314649Y121149D01*
X315039Y120887D01*
X315500Y120796D01*
X327104D01*
X327286Y120614D01*
Y115500D01*
X309800D01*
Y134700D01*
X306851Y137649D01*
Y140681D01*
X288749D01*
Y140283D01*
X284600D01*
X283277Y140152D01*
X282004Y139766D01*
X281319Y139400D01*
X253700D01*
Y153400D01*
X276797D01*
X277449Y152749D01*
D02*
G37*
G36*
X300800Y117300D02*
X298500D01*
X296700Y115500D01*
X289700D01*
Y117826D01*
X289742Y118038D01*
X289742Y118038D01*
Y119049D01*
X290753D01*
X291214Y119140D01*
X291370Y119245D01*
X291446Y119296D01*
X293568D01*
X294029Y119387D01*
X294419Y119649D01*
X294426Y119658D01*
X300800D01*
Y117300D01*
D02*
G37*
G36*
X203149Y121100D02*
X203065Y120991D01*
X202807Y120368D01*
X202734Y119819D01*
X199900Y116984D01*
D01*
X198916Y116000D01*
X197897Y114981D01*
X195319D01*
Y109180D01*
X194953Y108857D01*
X194445D01*
X194361Y108913D01*
X193900Y109004D01*
X193900Y109004D01*
X190200D01*
X190200Y109004D01*
X189739Y108913D01*
X189655Y108857D01*
X189047D01*
Y108350D01*
X187830Y107133D01*
X179900D01*
Y107280D01*
X179753Y107133D01*
X178682D01*
Y106333D01*
X178596Y105900D01*
Y96000D01*
X178687Y95539D01*
X178948Y95148D01*
X179339Y94887D01*
X179800Y94796D01*
X179947D01*
X180025Y94700D01*
X196520D01*
X196720Y94500D01*
Y87100D01*
X181520D01*
X176920Y91700D01*
X176920Y118020D01*
X179900Y121000D01*
Y121600D01*
X202902D01*
X203149Y121100D01*
D02*
G37*
G36*
X420800Y121900D02*
Y105000D01*
X387100Y105000D01*
Y121900D01*
X420800Y121900D01*
D02*
G37*
G36*
X214200Y113300D02*
Y101300D01*
X203104D01*
Y101400D01*
X203013Y101861D01*
X202751Y102252D01*
X202751Y102252D01*
X200952Y104051D01*
X200681Y104232D01*
Y104281D01*
X200608D01*
X200561Y104313D01*
X200100Y104404D01*
X199639Y104313D01*
X199627Y104304D01*
X196978D01*
X196901Y104419D01*
X197169Y104919D01*
X200681D01*
Y109619D01*
Y112197D01*
X205649Y117165D01*
X205968Y117207D01*
X206591Y117465D01*
X207125Y117875D01*
X207535Y118409D01*
X207793Y119032D01*
X207798Y119068D01*
X208271Y119229D01*
X214200Y113300D01*
D02*
G37*
G36*
X372100Y95600D02*
X358200D01*
Y101100D01*
X365046D01*
X365136Y101063D01*
X365521Y100986D01*
X365597Y100971D01*
X366403D01*
X366494Y100989D01*
X366864Y101063D01*
X366954Y101100D01*
X372100D01*
Y95600D01*
D02*
G37*
G36*
X340600D02*
X326700D01*
Y101200D01*
X330305D01*
X330636Y101063D01*
X331021Y100986D01*
X331097Y100971D01*
X331903D01*
X331994Y100989D01*
X332364Y101063D01*
X332695Y101200D01*
X340600D01*
Y95600D01*
D02*
G37*
G36*
X356100Y95600D02*
X352700Y95600D01*
X352700Y93881D01*
X351319D01*
Y92300D01*
X349893Y92300D01*
X349856Y92308D01*
X349404Y92800D01*
Y93507D01*
X349370Y93677D01*
X349393Y93732D01*
X349481Y94400D01*
X349393Y95068D01*
X349370Y95123D01*
X349404Y95293D01*
Y95907D01*
X349370Y96077D01*
X349393Y96132D01*
X349481Y96800D01*
X349393Y97468D01*
X349370Y97523D01*
X349404Y97693D01*
Y98443D01*
X349374Y98598D01*
X349363Y98755D01*
X349328Y98826D01*
X349313Y98904D01*
X349240Y99013D01*
X349202Y99105D01*
X349256Y99235D01*
X349356Y100000D01*
X349256Y100765D01*
X349200Y100900D01*
Y101600D01*
X356100D01*
X356100Y95600D01*
D02*
G37*
G36*
X347988Y101112D02*
X347844Y100765D01*
X347744Y100000D01*
X347844Y99235D01*
X348140Y98522D01*
X348200Y98443D01*
Y97693D01*
X348107Y97468D01*
X348019Y96800D01*
X348107Y96132D01*
X348200Y95907D01*
Y95293D01*
X348107Y95068D01*
X348019Y94400D01*
X348107Y93732D01*
X348200Y93507D01*
Y92400D01*
X346081Y92400D01*
Y93881D01*
X345100D01*
Y95700D01*
X341804D01*
Y101200D01*
X341802Y101214D01*
X342119Y101600D01*
X347500D01*
X347988Y101112D01*
D02*
G37*
G36*
X356000Y89462D02*
X355447D01*
Y87147D01*
X352754Y84455D01*
X352993Y71557D01*
X352643Y71200D01*
X349000D01*
X349000Y84800D01*
X347400Y86400D01*
X342253Y86400D01*
X341900Y86753D01*
X341900Y92900D01*
X344442D01*
X344639Y92769D01*
X344877Y92721D01*
Y92400D01*
X344969Y91939D01*
X345230Y91549D01*
X345620Y91287D01*
X346081Y91196D01*
X348200Y91196D01*
X348661Y91287D01*
X348969Y91493D01*
X349082Y91410D01*
X349181Y91310D01*
X349270Y91273D01*
X349347Y91216D01*
X349414Y91200D01*
X349432Y91187D01*
X349509Y91172D01*
X349615Y91128D01*
X349652Y91120D01*
X349742Y91120D01*
X349804Y91105D01*
X349829Y91108D01*
X349893Y91096D01*
X351319Y91096D01*
X351780Y91187D01*
X352170Y91448D01*
X352272Y91600D01*
X352300D01*
Y91642D01*
X352432Y91839D01*
X352523Y92300D01*
Y92677D01*
X352700D01*
X353161Y92769D01*
X353358Y92900D01*
X356000D01*
X356000Y89462D01*
D02*
G37*
G36*
X367100Y85900D02*
X362668D01*
X362094Y86014D01*
X356600D01*
Y86888D01*
X356651Y87147D01*
X356651Y87147D01*
Y88477D01*
X356836Y88600D01*
X359871D01*
X359900Y88588D01*
X360600Y88496D01*
X363900D01*
X364600Y88588D01*
X364629Y88600D01*
X367100D01*
X367100Y85900D01*
D02*
G37*
G36*
X195000Y106700D02*
Y104200D01*
X196100Y103100D01*
X200000D01*
X200100Y103200D01*
X201900Y101400D01*
Y99900D01*
X203100Y98700D01*
X213700D01*
Y96800D01*
X211600Y94700D01*
Y88400D01*
X208000D01*
X207900Y88500D01*
Y94800D01*
X206700Y96000D01*
X179800D01*
Y105900D01*
X188300D01*
X190200Y107800D01*
X193900D01*
X195000Y106700D01*
D02*
G37*
G36*
X277100Y82303D02*
X276973Y82176D01*
X276712Y81785D01*
X276620Y81324D01*
X276153Y81193D01*
X276111Y81184D01*
X275720Y80923D01*
X275720Y80923D01*
X275397Y80600D01*
X263500D01*
Y94600D01*
X277100D01*
Y82303D01*
D02*
G37*
G36*
X347300Y71200D02*
X343900D01*
Y78400D01*
X342900Y79400D01*
Y84600D01*
X347300D01*
Y71200D01*
D02*
G37*
G36*
X280000Y105800D02*
X292400D01*
X306702Y91498D01*
X306607Y91268D01*
X306519Y90600D01*
X306607Y89932D01*
X306848Y89350D01*
X306607Y88768D01*
X306519Y88100D01*
X306607Y87432D01*
X306865Y86809D01*
X307275Y86275D01*
X307809Y85865D01*
X308432Y85607D01*
X309100Y85519D01*
X309768Y85607D01*
X310350Y85848D01*
X310932Y85607D01*
X311600Y85519D01*
X312268Y85607D01*
X312498Y85702D01*
X314200Y84000D01*
X340000D01*
X341696Y82304D01*
Y79400D01*
X341787Y78939D01*
X341892Y78783D01*
X342049Y78549D01*
X342049Y78549D01*
X342600Y77997D01*
Y71000D01*
X338100D01*
Y75500D01*
X334400Y79200D01*
X306600Y79200D01*
X296700Y89100D01*
X287800D01*
Y93500D01*
X286481Y94819D01*
Y94831D01*
X286469D01*
X285100Y96200D01*
Y96300D01*
X253300Y96300D01*
Y109900D01*
X275900D01*
X280000Y105800D01*
D02*
G37*
G36*
X305749Y78348D02*
X306139Y78087D01*
X306600Y77996D01*
X306600Y77996D01*
X333901Y77996D01*
X336896Y75001D01*
Y71000D01*
X336987Y70539D01*
X337248Y70148D01*
X337639Y69887D01*
X338100Y69796D01*
X342600D01*
X343061Y69887D01*
X343400Y70114D01*
X343439Y70087D01*
X343900Y69996D01*
X347300D01*
X347761Y70087D01*
X348079Y70300D01*
X348221D01*
X348539Y70087D01*
X349000Y69996D01*
X352643D01*
X352649Y69997D01*
X352654Y69996D01*
X352879Y70043D01*
X353104Y70087D01*
X353109Y70091D01*
X353114Y70092D01*
X353304Y70221D01*
X353422Y70300D01*
X353500D01*
X354200Y71000D01*
Y82586D01*
X360900D01*
X360900Y66700D01*
X360500Y66300D01*
X334200D01*
X325200Y75300D01*
X281800D01*
X267200Y60700D01*
X252600D01*
Y76300D01*
X272800D01*
X276572Y80072D01*
X277824D01*
Y81324D01*
X278100Y81600D01*
X283000D01*
X283719Y82319D01*
X285381D01*
Y83981D01*
X288100Y86700D01*
X297397D01*
X305749Y78348D01*
D02*
G37*
G36*
X394500Y74283D02*
Y71100D01*
X393200D01*
X384800Y62700D01*
X381141D01*
X381100Y62800D01*
Y74700D01*
X394300D01*
X394500Y74283D01*
D02*
G37*
G36*
X228600Y70300D02*
Y47000D01*
X220500D01*
X217700Y49800D01*
Y54900D01*
X217602Y70044D01*
X217956Y70397D01*
X228600Y70300D01*
D02*
G37*
G36*
X238600Y58200D02*
X243300Y53500D01*
Y45800D01*
X232000D01*
Y70700D01*
X238600D01*
Y58200D01*
D02*
G37*
G36*
X353238Y49368D02*
X353400D01*
Y45000D01*
X348100D01*
Y56700D01*
X353238D01*
Y49368D01*
D02*
G37*
G36*
X346800Y44814D02*
X342970D01*
X342314Y44684D01*
X341794Y44336D01*
X338200D01*
Y48883D01*
X338238Y49368D01*
X342962D01*
Y50000D01*
X346800D01*
Y44814D01*
D02*
G37*
D10*
X352508Y41722D02*
X354892D01*
X351130Y43100D02*
X352508Y41722D01*
X354892D02*
X356270Y43100D01*
X216478Y42622D02*
X342492D01*
X216000Y43100D02*
X216478Y42622D01*
X356270Y43100D02*
X359400D01*
X342970D02*
X351130D01*
X342492Y42622D02*
X342970Y43100D01*
X359400D02*
X361305Y45006D01*
X173000Y157700D02*
X173400D01*
X361305Y46600D02*
Y50894D01*
X358600Y53600D02*
X361305Y50894D01*
X355600Y53600D02*
X358600D01*
X282700Y85000D02*
X282800Y85100D01*
Y91400D01*
X363900Y91200D02*
X364000Y91300D01*
X351800Y84300D02*
X362094D01*
X365100Y81295D01*
X281000Y144900D02*
Y148000D01*
X282500Y149500D01*
X332100Y111800D02*
Y118200D01*
X332600Y118700D01*
X329000Y123500D02*
X329100Y123600D01*
X329000Y113000D02*
Y123500D01*
X327800Y111800D02*
X329000Y113000D01*
X326195Y111800D02*
X327800D01*
D21*
X406234Y92000D02*
D03*
X397966D02*
D03*
D22*
X412160Y81979D02*
D03*
X419640D02*
D03*
X415900Y91821D02*
D03*
X378860Y55058D02*
D03*
X386340D02*
D03*
X382600Y64900D02*
D03*
D23*
X419000Y75800D02*
D03*
X413000D02*
D03*
X268700Y128500D02*
D03*
X262700D02*
D03*
X348900Y128000D02*
D03*
X342900D02*
D03*
X318900Y59000D02*
D03*
X312900D02*
D03*
X350800Y82700D02*
D03*
X344800D02*
D03*
D24*
X392800Y72966D02*
D03*
Y81234D02*
D03*
X382600Y72966D02*
D03*
Y81234D02*
D03*
D25*
X209800Y91657D02*
D03*
X204800D02*
D03*
X199800D02*
D03*
X194800D02*
D03*
X209800Y70200D02*
D03*
X204800D02*
D03*
X199800D02*
D03*
X194800D02*
D03*
D26*
X355600Y74860D02*
D03*
X350600D02*
D03*
X345600D02*
D03*
X340600D02*
D03*
Y53600D02*
D03*
X345600D02*
D03*
X350600D02*
D03*
X355600D02*
D03*
D27*
X183800Y115401D02*
D03*
Y102999D02*
D03*
D28*
X255600Y106000D02*
D03*
X225600D02*
D03*
Y66000D02*
D03*
X235600D02*
D03*
X255600D02*
D03*
Y184000D02*
D03*
X225600D02*
D03*
Y144000D02*
D03*
X235600D02*
D03*
X255600D02*
D03*
D29*
X465950Y48500D02*
D03*
X492000D02*
D03*
X439900D02*
D03*
D30*
X186100Y157700D02*
D03*
Y166700D02*
D03*
X282500Y158500D02*
D03*
Y149500D02*
D03*
X173400Y157700D02*
D03*
Y166700D02*
D03*
X282800Y100400D02*
D03*
Y91400D02*
D03*
D31*
X358260Y181857D02*
D03*
Y163943D02*
D03*
X377780Y181857D02*
D03*
Y163943D02*
D03*
X413400Y118543D02*
D03*
Y136457D02*
D03*
X395200Y118543D02*
D03*
Y136457D02*
D03*
X319220Y181857D02*
D03*
Y163943D02*
D03*
X338740Y181857D02*
D03*
Y163943D02*
D03*
D32*
X273100Y83812D02*
D03*
Y72788D02*
D03*
X271200Y179112D02*
D03*
Y168088D02*
D03*
X292100Y157712D02*
D03*
Y146688D02*
D03*
X271100Y160612D02*
D03*
Y149588D02*
D03*
X273100Y102512D02*
D03*
Y91488D02*
D03*
X291900Y93512D02*
D03*
Y82488D02*
D03*
D33*
X365100Y87200D02*
D03*
Y81295D02*
D03*
X290300Y122800D02*
D03*
Y128706D02*
D03*
X280600Y122695D02*
D03*
Y128600D02*
D03*
X329900Y81200D02*
D03*
Y75295D02*
D03*
X337800Y86705D02*
D03*
Y80800D02*
D03*
X332900Y48400D02*
D03*
Y54305D02*
D03*
X358400Y87100D02*
D03*
Y81195D02*
D03*
X273800Y122594D02*
D03*
Y128500D02*
D03*
X326100Y48400D02*
D03*
Y54305D02*
D03*
X205000Y103305D02*
D03*
Y97400D02*
D03*
X211300Y103305D02*
D03*
Y97400D02*
D03*
X192000Y112400D02*
D03*
Y106494D02*
D03*
D34*
X319106Y141300D02*
D03*
X313200D02*
D03*
X233100Y134900D02*
D03*
X227194D02*
D03*
X332306Y135700D02*
D03*
X326400D02*
D03*
X332100Y118200D02*
D03*
X326195D02*
D03*
X284995Y117300D02*
D03*
X290900D02*
D03*
X233500Y58000D02*
D03*
X227594D02*
D03*
X351105Y46700D02*
D03*
X345200D02*
D03*
X355400Y46600D02*
D03*
X361305D02*
D03*
X332100Y111800D02*
D03*
X326195D02*
D03*
D35*
X235512Y126700D02*
D03*
X224488D02*
D03*
X236012Y50600D02*
D03*
X224988D02*
D03*
D36*
X354600Y141600D02*
D03*
Y135600D02*
D03*
X342700Y141600D02*
D03*
Y135600D02*
D03*
X337100Y141600D02*
D03*
Y135600D02*
D03*
X359800Y141600D02*
D03*
Y135600D02*
D03*
X173500Y179600D02*
D03*
Y173600D02*
D03*
X282700Y79000D02*
D03*
Y85000D02*
D03*
X354000Y97200D02*
D03*
Y91200D02*
D03*
X343400Y97200D02*
D03*
Y91200D02*
D03*
X360600Y97200D02*
D03*
Y91200D02*
D03*
X338200Y97200D02*
D03*
Y91200D02*
D03*
X186200Y179600D02*
D03*
X186200Y173600D02*
D03*
X198000Y107600D02*
D03*
Y101600D02*
D03*
Y112300D02*
D03*
Y118300D02*
D03*
X373400Y72600D02*
D03*
Y66600D02*
D03*
D37*
X319060Y118500D02*
D03*
Y123500D02*
D03*
Y128500D02*
D03*
Y133500D02*
D03*
X297800D02*
D03*
Y128500D02*
D03*
Y123500D02*
D03*
Y118500D02*
D03*
D61*
X211300Y47800D02*
X216000Y43100D01*
X377700Y76900D02*
X413000D01*
Y75800D02*
Y76900D01*
X373400Y72600D02*
X377700Y76900D01*
X415700Y85919D02*
Y86700D01*
Y85919D02*
X419640Y81979D01*
X412821D02*
X419000Y75800D01*
X412160Y81979D02*
X412821D01*
X415721Y92000D02*
X415900Y91821D01*
X406234Y92000D02*
X415721D01*
X399500Y83200D02*
Y90466D01*
X397966Y92000D02*
X399500Y90466D01*
X390442Y55058D02*
X390500Y55000D01*
X386340Y55058D02*
X390442D01*
X394766Y83200D02*
X399500D01*
X392800Y81234D02*
X394766Y83200D01*
X361305Y45006D02*
Y46600D01*
X180200Y184200D02*
X181600D01*
X186200Y179600D01*
X178100Y184200D02*
X180200D01*
X173500Y179600D02*
X178100Y184200D01*
X257600Y127900D02*
X258200Y128500D01*
X262700D01*
X168100Y145500D02*
X209100D01*
X205300Y119600D02*
Y119700D01*
X318900Y59000D02*
X323594Y54305D01*
X326100D01*
X309200Y59000D02*
X312900D01*
X308700Y59500D02*
X309200Y59000D01*
X181500Y74400D02*
X185000Y70900D01*
X188282D01*
X193586Y65596D01*
X199600D01*
X199800Y65796D01*
Y70200D01*
Y71018D01*
Y84865D02*
X199900Y84765D01*
X373400Y66600D02*
X377100D01*
X378860Y64840D01*
X367700Y76000D02*
X370000D01*
X373400Y72600D01*
X378860Y55058D02*
Y64840D01*
X386166Y81234D02*
X387100Y80300D01*
X382600Y81234D02*
X386166D01*
X280600Y129500D02*
X281600Y128500D01*
X273800D02*
X281600D01*
X268700D02*
X273800D01*
X280600Y129500D02*
X284600Y133500D01*
X297800D01*
X168928Y142328D02*
X173096D01*
X165600Y139000D02*
X168928Y142328D01*
X165600Y84835D02*
Y139000D01*
X162500Y139900D02*
X168100Y145500D01*
X162500Y84400D02*
Y139900D01*
X173124Y142300D02*
X180700D01*
X173096Y142328D02*
X173124Y142300D01*
X205400Y86300D02*
Y91057D01*
X204800Y91657D02*
X205400Y91057D01*
X191400Y73600D02*
X194800Y70200D01*
X190100Y73600D02*
X191400D01*
X198000Y112300D02*
X205300Y119600D01*
X173000Y180100D02*
X173500Y179600D01*
X199800Y84865D02*
Y91657D01*
X198000Y107600D02*
Y112300D01*
X173100Y152900D02*
X173400Y153200D01*
Y157700D01*
X186100Y153400D02*
X186300Y153200D01*
X186100Y153400D02*
Y157700D01*
X186200Y173500D02*
X186200Y173500D01*
X186100Y173400D02*
X186200Y173500D01*
Y173600D01*
Y166800D02*
Y173500D01*
X186100Y166700D02*
X186200Y166800D01*
X173400Y166700D02*
X173500Y166800D01*
Y173600D01*
X209800Y65500D02*
Y70200D01*
Y65500D02*
X211000Y64300D01*
X204800Y64000D02*
Y70200D01*
X165600Y84835D02*
X179200Y71236D01*
X162500Y84400D02*
X174300Y72600D01*
Y56000D02*
X175599D01*
X179200Y59600D01*
Y71236D01*
X174300Y50600D02*
Y56000D01*
Y50600D02*
X177100Y47800D01*
X211300D01*
X174300Y66000D02*
Y72600D01*
X327800Y46700D02*
X329300D01*
X326100Y48400D02*
X327800Y46700D01*
X329300D02*
X331200D01*
X332900Y48400D01*
X290300Y122800D02*
X291000Y123500D01*
X297594Y128706D02*
X297800Y128500D01*
X355300Y46700D02*
X355400Y46600D01*
X351105Y46700D02*
X355300D01*
X350600Y47205D02*
X351105Y46700D01*
X345200D02*
X345600Y47100D01*
X339895Y54305D02*
X340600Y53600D01*
X332900Y54305D02*
X339895D01*
X326100D02*
X332900D01*
D62*
X334800Y91200D02*
X338200D01*
X334600Y87300D02*
X335194Y86705D01*
X360600Y91200D02*
X363900D01*
X335194Y86705D02*
X337800D01*
X332600Y118700D02*
X335600D01*
X337100Y133300D02*
X338100Y132300D01*
X337100Y133300D02*
Y135600D01*
X332306Y133294D02*
X333500Y132100D01*
X332306Y133294D02*
Y135700D01*
D63*
X291000Y123500D02*
X297800D01*
X290300Y128706D02*
X297594D01*
X350600Y47205D02*
Y53600D01*
X345600Y47100D02*
Y53600D01*
D64*
X291100Y61500D02*
D03*
X405273Y175673D02*
D03*
X291100D02*
D03*
X405273Y61500D02*
D03*
X174300Y56000D02*
D03*
X164300D02*
D03*
X154300D02*
D03*
X184300Y66000D02*
D03*
X174300D02*
D03*
X164300D02*
D03*
X154300D02*
D03*
D65*
X184300Y56000D02*
D03*
D66*
X206850Y189902D02*
D03*
X196850Y189900D02*
D03*
D67*
X308800Y94600D02*
D03*
X230200Y99400D02*
D03*
X238600Y105900D02*
D03*
X346400Y100000D02*
D03*
X302900Y104500D02*
D03*
X328500Y99100D02*
D03*
X357400Y114600D02*
D03*
X341000D02*
D03*
X350700Y100000D02*
D03*
X370300Y99300D02*
D03*
X371400Y141500D02*
D03*
X350800Y142500D02*
D03*
X346500Y142400D02*
D03*
X325500Y141700D02*
D03*
X358540Y159500D02*
D03*
X338820D02*
D03*
D68*
X415700Y86700D02*
D03*
X390500Y55000D02*
D03*
X399500Y83200D02*
D03*
X353700Y44600D02*
D03*
X180200Y184200D02*
D03*
X257600Y127900D02*
D03*
X241200Y131800D02*
D03*
Y125500D02*
D03*
X219400Y141300D02*
D03*
Y138300D02*
D03*
Y135300D02*
D03*
X209100Y145500D02*
D03*
X191300Y120000D02*
D03*
X194700D02*
D03*
X205300Y119700D02*
D03*
X207200Y116200D02*
D03*
X294700Y116000D02*
D03*
X308700Y59500D02*
D03*
X349400Y48800D02*
D03*
X181500Y74400D02*
D03*
X199900Y84765D02*
D03*
X350600Y96800D02*
D03*
X346900Y94400D02*
D03*
Y96800D02*
D03*
X350600Y94400D02*
D03*
X263500Y107300D02*
D03*
X267100D02*
D03*
X331800Y141500D02*
D03*
X205400Y86300D02*
D03*
X190100Y73600D02*
D03*
X367700Y76000D02*
D03*
X316600Y93100D02*
D03*
X171800Y136200D02*
D03*
Y139200D02*
D03*
X159000Y138100D02*
D03*
Y142900D02*
D03*
X180700Y142300D02*
D03*
X186300Y153200D02*
D03*
X173100Y152900D02*
D03*
X211000Y64300D02*
D03*
X201500Y58700D02*
D03*
X204800Y64000D02*
D03*
X219400Y57300D02*
D03*
X309100Y88100D02*
D03*
Y90600D02*
D03*
X326600Y88100D02*
D03*
Y93100D02*
D03*
Y90600D02*
D03*
X329100Y88100D02*
D03*
Y93100D02*
D03*
Y90600D02*
D03*
X331600Y99100D02*
D03*
X334600D02*
D03*
X334800Y91200D02*
D03*
X334600Y87300D02*
D03*
X279600Y120100D02*
D03*
X277200D02*
D03*
X239600Y86300D02*
D03*
Y88700D02*
D03*
X225000Y93400D02*
D03*
Y95800D02*
D03*
X187900Y120000D02*
D03*
X189100Y97700D02*
D03*
X185700D02*
D03*
X182300D02*
D03*
X387100Y80300D02*
D03*
X248700Y109700D02*
D03*
X329300Y46700D02*
D03*
X286000Y128900D02*
D03*
Y126500D02*
D03*
X341300Y47900D02*
D03*
Y45500D02*
D03*
X241200Y53500D02*
D03*
Y50500D02*
D03*
Y47500D02*
D03*
X219400Y60300D02*
D03*
Y63300D02*
D03*
X194900Y58700D02*
D03*
X207700D02*
D03*
X207900Y43600D02*
D03*
X201700D02*
D03*
X195100D02*
D03*
X429600Y185900D02*
D03*
Y183400D02*
D03*
Y180900D02*
D03*
X432100Y185900D02*
D03*
Y183400D02*
D03*
Y180900D02*
D03*
X434600Y185900D02*
D03*
Y183400D02*
D03*
Y180900D02*
D03*
X444600D02*
D03*
Y183400D02*
D03*
Y185900D02*
D03*
X442100Y180900D02*
D03*
Y183400D02*
D03*
Y185900D02*
D03*
X439600Y180900D02*
D03*
Y183400D02*
D03*
Y185900D02*
D03*
X437100Y180900D02*
D03*
Y183400D02*
D03*
Y185900D02*
D03*
X447100D02*
D03*
Y183400D02*
D03*
Y180900D02*
D03*
X449600Y185900D02*
D03*
Y183400D02*
D03*
Y180900D02*
D03*
X429600Y193300D02*
D03*
Y190800D02*
D03*
Y188300D02*
D03*
X432100Y193300D02*
D03*
Y190800D02*
D03*
Y188300D02*
D03*
X434600Y193300D02*
D03*
Y190800D02*
D03*
Y188300D02*
D03*
X444600D02*
D03*
Y190800D02*
D03*
Y193300D02*
D03*
X442100Y188300D02*
D03*
Y190800D02*
D03*
Y193300D02*
D03*
X439600Y188300D02*
D03*
Y190800D02*
D03*
Y193300D02*
D03*
X437100Y188300D02*
D03*
Y190800D02*
D03*
Y193300D02*
D03*
X447100D02*
D03*
Y190800D02*
D03*
Y188300D02*
D03*
X449600Y193300D02*
D03*
Y190800D02*
D03*
Y188300D02*
D03*
X266000Y87300D02*
D03*
Y84650D02*
D03*
Y82000D02*
D03*
X259900Y67300D02*
D03*
X263500D02*
D03*
X267100D02*
D03*
X259900Y107300D02*
D03*
X362300Y87200D02*
D03*
X364000Y91300D02*
D03*
X364200Y99300D02*
D03*
X367200D02*
D03*
X281000Y144900D02*
D03*
X262100Y142600D02*
D03*
X265700D02*
D03*
X269300D02*
D03*
X267100Y185300D02*
D03*
X263500D02*
D03*
X259900D02*
D03*
X264800Y161100D02*
D03*
Y163750D02*
D03*
Y166400D02*
D03*
X335600Y118700D02*
D03*
X362500Y132000D02*
D03*
X358700Y131900D02*
D03*
X338100Y132300D02*
D03*
X333500Y132100D02*
D03*
X365300Y141500D02*
D03*
X368300D02*
D03*
X350700Y139300D02*
D03*
Y136400D02*
D03*
X347000D02*
D03*
Y139300D02*
D03*
X328600Y141700D02*
D03*
X396900Y147800D02*
D03*
Y145300D02*
D03*
Y142800D02*
D03*
X399400Y147800D02*
D03*
Y145300D02*
D03*
Y142800D02*
D03*
X401900Y147800D02*
D03*
Y145300D02*
D03*
Y142800D02*
D03*
X404400Y147800D02*
D03*
Y145300D02*
D03*
Y142800D02*
D03*
X414400D02*
D03*
Y145300D02*
D03*
Y147800D02*
D03*
X411900Y142800D02*
D03*
Y145300D02*
D03*
Y147800D02*
D03*
X409400Y142800D02*
D03*
Y145300D02*
D03*
Y147800D02*
D03*
X406900Y142800D02*
D03*
Y145300D02*
D03*
Y147800D02*
D03*
X416900D02*
D03*
Y145300D02*
D03*
Y142800D02*
D03*
X419400Y147800D02*
D03*
Y145300D02*
D03*
Y142800D02*
D03*
X419100Y108100D02*
D03*
Y110600D02*
D03*
Y113100D02*
D03*
X416600Y108100D02*
D03*
Y110600D02*
D03*
Y113100D02*
D03*
X406600D02*
D03*
Y110600D02*
D03*
Y108100D02*
D03*
X409100Y113100D02*
D03*
Y110600D02*
D03*
Y108100D02*
D03*
X411600Y113100D02*
D03*
Y110600D02*
D03*
Y108100D02*
D03*
X414100Y113100D02*
D03*
Y110600D02*
D03*
Y108100D02*
D03*
X404100D02*
D03*
Y110600D02*
D03*
Y113100D02*
D03*
X401600Y108100D02*
D03*
Y110600D02*
D03*
Y113100D02*
D03*
X399100Y108100D02*
D03*
Y110600D02*
D03*
Y113100D02*
D03*
X396600Y108100D02*
D03*
Y110600D02*
D03*
Y113100D02*
D03*
X394100Y108100D02*
D03*
Y110600D02*
D03*
Y113100D02*
D03*
X391600Y108100D02*
D03*
Y110600D02*
D03*
Y113100D02*
D03*
X389100Y108100D02*
D03*
Y110600D02*
D03*
Y113100D02*
D03*
X371400Y93100D02*
D03*
Y90600D02*
D03*
Y88100D02*
D03*
X373900Y90600D02*
D03*
Y88100D02*
D03*
X376400Y90600D02*
D03*
Y88100D02*
D03*
X378900Y90600D02*
D03*
Y88100D02*
D03*
X381400Y90600D02*
D03*
Y88100D02*
D03*
X391400D02*
D03*
Y90600D02*
D03*
Y93100D02*
D03*
X388900Y88100D02*
D03*
Y90600D02*
D03*
Y93100D02*
D03*
X386400Y88100D02*
D03*
Y90600D02*
D03*
Y93100D02*
D03*
X383900Y88100D02*
D03*
Y90600D02*
D03*
Y93100D02*
D03*
X311600D02*
D03*
Y90600D02*
D03*
Y88100D02*
D03*
X314100Y93100D02*
D03*
Y90600D02*
D03*
Y88100D02*
D03*
X316600Y90600D02*
D03*
Y88100D02*
D03*
X319100Y90600D02*
D03*
Y88100D02*
D03*
X324100D02*
D03*
Y90600D02*
D03*
Y93100D02*
D03*
X321600Y88100D02*
D03*
Y90600D02*
D03*
X390900Y188300D02*
D03*
Y190800D02*
D03*
Y193300D02*
D03*
X388400Y188300D02*
D03*
Y190800D02*
D03*
Y193300D02*
D03*
X378400D02*
D03*
Y190800D02*
D03*
Y188300D02*
D03*
X380900Y193300D02*
D03*
Y190800D02*
D03*
Y188300D02*
D03*
X383400Y193300D02*
D03*
Y190800D02*
D03*
Y188300D02*
D03*
X385900Y193300D02*
D03*
Y190800D02*
D03*
Y188300D02*
D03*
X375900D02*
D03*
Y190800D02*
D03*
Y193300D02*
D03*
X373400Y188300D02*
D03*
Y190800D02*
D03*
Y193300D02*
D03*
X370900Y188300D02*
D03*
Y190800D02*
D03*
Y193300D02*
D03*
X368400Y188300D02*
D03*
Y190800D02*
D03*
Y193300D02*
D03*
X365900Y188300D02*
D03*
Y190800D02*
D03*
Y193300D02*
D03*
X363400Y188300D02*
D03*
Y190800D02*
D03*
Y193300D02*
D03*
X360900Y188300D02*
D03*
Y190800D02*
D03*
Y193300D02*
D03*
X358400Y188300D02*
D03*
Y190800D02*
D03*
Y193300D02*
D03*
X355900Y188300D02*
D03*
Y190800D02*
D03*
Y193300D02*
D03*
X353400Y188300D02*
D03*
Y190800D02*
D03*
Y193300D02*
D03*
X350900Y188300D02*
D03*
Y190800D02*
D03*
Y193300D02*
D03*
X348400Y188300D02*
D03*
Y190800D02*
D03*
Y193300D02*
D03*
X345900Y188300D02*
D03*
Y190800D02*
D03*
Y193300D02*
D03*
X343400Y188300D02*
D03*
Y190800D02*
D03*
Y193300D02*
D03*
X340900Y188300D02*
D03*
Y190800D02*
D03*
Y193300D02*
D03*
X338400Y188300D02*
D03*
Y190800D02*
D03*
Y193300D02*
D03*
X335900Y188300D02*
D03*
Y190800D02*
D03*
Y193300D02*
D03*
X333400Y188300D02*
D03*
Y190800D02*
D03*
Y193300D02*
D03*
X330900Y188300D02*
D03*
Y190800D02*
D03*
Y193300D02*
D03*
X328400Y188300D02*
D03*
Y190800D02*
D03*
Y193300D02*
D03*
X325900Y188300D02*
D03*
Y190800D02*
D03*
Y193300D02*
D03*
X323400Y188300D02*
D03*
Y190800D02*
D03*
Y193300D02*
D03*
X320900Y188300D02*
D03*
Y190800D02*
D03*
Y193300D02*
D03*
X318400Y188300D02*
D03*
Y190800D02*
D03*
Y193300D02*
D03*
X315900Y188300D02*
D03*
Y190800D02*
D03*
Y193300D02*
D03*
X313400Y188300D02*
D03*
Y190800D02*
D03*
Y193300D02*
D03*
X310900Y188300D02*
D03*
Y190800D02*
D03*
Y193300D02*
D03*
X308400Y188300D02*
D03*
Y190800D02*
D03*
Y193300D02*
D03*
X305900Y188300D02*
D03*
Y190800D02*
D03*
Y193300D02*
D03*
X303400D02*
D03*
Y190800D02*
D03*
Y188300D02*
D03*
X381660Y169900D02*
D03*
X379160D02*
D03*
X376660D02*
D03*
X381660Y167300D02*
D03*
X379160D02*
D03*
X376660D02*
D03*
X359640Y169900D02*
D03*
X356940D02*
D03*
X359640Y167300D02*
D03*
X356940D02*
D03*
X340320Y169900D02*
D03*
X337620D02*
D03*
X340320Y167300D02*
D03*
X337620D02*
D03*
X315600Y169900D02*
D03*
X318100D02*
D03*
X320600D02*
D03*
X315600Y167300D02*
D03*
X318100D02*
D03*
X320600D02*
D03*
X376660Y164700D02*
D03*
Y162100D02*
D03*
Y159500D02*
D03*
X379160Y164700D02*
D03*
Y162100D02*
D03*
Y159500D02*
D03*
X381660Y164700D02*
D03*
Y162100D02*
D03*
Y159500D02*
D03*
X356940Y164700D02*
D03*
Y162100D02*
D03*
X359640Y164700D02*
D03*
Y162300D02*
D03*
X337620Y164700D02*
D03*
Y162300D02*
D03*
X340320Y164700D02*
D03*
Y162100D02*
D03*
X320600Y159500D02*
D03*
Y162100D02*
D03*
Y164700D02*
D03*
X318100Y159500D02*
D03*
Y162100D02*
D03*
Y164700D02*
D03*
X315600Y159500D02*
D03*
Y162100D02*
D03*
Y164700D02*
D03*
D69*
X486600Y56800D02*
D03*
X491950D02*
D03*
X497300D02*
D03*
X460550D02*
D03*
X465900D02*
D03*
X471250D02*
D03*
X445200D02*
D03*
X439850D02*
D03*
X434500D02*
D03*
M02*
