G04*
G04 #@! TF.GenerationSoftware,Altium Limited,Altium Designer,18.0.7 (293)*
G04*
G04 Layer_Physical_Order=4*
G04 Layer_Color=16711680*
%FSLAX25Y25*%
%MOIN*%
G70*
G01*
G75*
%ADD10C,0.01000*%
%ADD21R,0.03543X0.03150*%
%ADD23R,0.03000X0.03000*%
%ADD27R,0.07874X0.05906*%
%ADD29R,0.15748X0.15748*%
%ADD33R,0.03543X0.02362*%
%ADD34R,0.02362X0.03543*%
%ADD36R,0.03000X0.03000*%
%ADD61C,0.01500*%
%ADD63C,0.02000*%
%ADD64C,0.06299*%
%ADD65R,0.06299X0.06299*%
%ADD66C,0.07874*%
%ADD67C,0.03500*%
%ADD68C,0.02756*%
%ADD69C,0.05000*%
%ADD70R,0.01968X0.03937*%
%ADD71R,0.03937X0.09055*%
%ADD72R,0.22874X0.03307*%
%ADD73R,0.16693X0.03307*%
%ADD74R,0.03307X0.03898*%
%ADD75R,0.10630X0.05118*%
%ADD76C,0.02500*%
G36*
X269100Y175200D02*
X257532D01*
X257288Y175700D01*
X257461Y175922D01*
X259300D01*
X260249Y176111D01*
X261053Y176648D01*
X261590Y177452D01*
X261779Y178401D01*
X261590Y179349D01*
X261053Y180154D01*
X260249Y180691D01*
X259300Y180879D01*
X256301D01*
X255352Y180691D01*
X254800Y180322D01*
X254300Y180589D01*
Y188800D01*
X269100D01*
Y175200D01*
D02*
G37*
G36*
X423600Y139800D02*
X388000D01*
X377600Y150200D01*
X351688D01*
X350800Y150287D01*
X349912Y150200D01*
X311437D01*
X309000Y152637D01*
Y163733D01*
X309031Y163764D01*
X309843Y164754D01*
X310447Y165883D01*
X310819Y167108D01*
X310944Y168383D01*
Y171600D01*
X393435D01*
X394105Y169983D01*
X395132Y168306D01*
X396410Y166810D01*
X397905Y165532D01*
X399583Y164505D01*
X401400Y163752D01*
X403312Y163293D01*
X405273Y163138D01*
X407234Y163293D01*
X409147Y163752D01*
X410964Y164505D01*
X412641Y165532D01*
X414137Y166810D01*
X415414Y168306D01*
X416442Y169983D01*
X417112Y171600D01*
X423600D01*
Y139800D01*
D02*
G37*
G36*
X267200Y156100D02*
X254300D01*
Y171300D01*
X267200D01*
Y156100D01*
D02*
G37*
G36*
X271500Y140000D02*
X253600D01*
Y153600D01*
X271500D01*
Y140000D01*
D02*
G37*
G36*
X355721Y142822D02*
X355718Y142800D01*
X355712Y142768D01*
X355686Y142722D01*
X355666Y142539D01*
X355630Y142358D01*
Y139900D01*
X352500Y139900D01*
X352500Y137044D01*
X352456Y136994D01*
X352390Y136950D01*
X352302Y136819D01*
X352199Y136700D01*
X352173Y136625D01*
X352129Y136559D01*
X352098Y136405D01*
X352047Y136256D01*
X352020Y136046D01*
X351883Y135717D01*
X351666Y135434D01*
X351383Y135217D01*
X351054Y135080D01*
X350700Y135034D01*
X350346Y135080D01*
X350017Y135217D01*
X349973Y135250D01*
X349940Y135266D01*
X349914Y135292D01*
X349524Y135556D01*
X349518Y135558D01*
X349514Y135563D01*
X349468Y135672D01*
X349493Y135732D01*
X349581Y136400D01*
X349493Y137068D01*
X349470Y137123D01*
X349504Y137293D01*
Y138407D01*
X349470Y138577D01*
X349493Y138632D01*
X349581Y139300D01*
X349493Y139968D01*
X349470Y140023D01*
X349504Y140193D01*
Y140943D01*
X349474Y141098D01*
X349463Y141255D01*
X349428Y141326D01*
X349413Y141404D01*
X349340Y141513D01*
X349322Y141555D01*
X349356Y141635D01*
X349456Y142400D01*
X349404Y142800D01*
X349809Y143298D01*
X349818Y143300D01*
X355514Y143300D01*
X355721Y142822D01*
D02*
G37*
G36*
X347909Y143000D02*
X347844Y142500D01*
X347944Y141735D01*
X348240Y141022D01*
X348300Y140943D01*
Y140193D01*
X348207Y139968D01*
X348119Y139300D01*
X348207Y138632D01*
X348300Y138407D01*
Y137293D01*
X348207Y137068D01*
X348119Y136400D01*
X348207Y135732D01*
X348232Y135672D01*
X348186Y135563D01*
X348182Y135558D01*
X348176Y135556D01*
X347786Y135292D01*
X347760Y135266D01*
X347727Y135250D01*
X347683Y135217D01*
X347354Y135080D01*
X347000Y135034D01*
X346646Y135080D01*
X346317Y135217D01*
X346034Y135434D01*
X345817Y135717D01*
X345680Y136046D01*
X345653Y136256D01*
X345602Y136405D01*
X345571Y136559D01*
X345527Y136625D01*
X345501Y136700D01*
X345398Y136819D01*
X345310Y136950D01*
X345244Y136994D01*
X345200Y137044D01*
Y137100D01*
X345098D01*
X345050Y137124D01*
X344919Y137211D01*
X344842Y137226D01*
X344770Y137262D01*
X344613Y137272D01*
X344459Y137303D01*
X341838D01*
Y141900D01*
X341794Y142120D01*
X341754Y142341D01*
X341748Y142350D01*
X341746Y142361D01*
X341622Y142548D01*
X341500Y142736D01*
X341300Y142944D01*
Y143500D01*
X347547D01*
X347909Y143000D01*
D02*
G37*
G36*
X500900Y40700D02*
X500600Y40400D01*
X482200Y40400D01*
Y88800D01*
X463700Y107300D01*
X426807D01*
X426471Y107670D01*
X426514Y108100D01*
X426391Y109350D01*
X426514Y110600D01*
X426391Y111850D01*
X426514Y113100D01*
X426371Y114546D01*
X425949Y115937D01*
X425264Y117219D01*
X424342Y118342D01*
X423219Y119264D01*
X421937Y119949D01*
X420546Y120371D01*
X419100Y120514D01*
X417850Y120390D01*
X416600Y120514D01*
X415350Y120390D01*
X414100Y120514D01*
X412850Y120390D01*
X411600Y120514D01*
X410350Y120390D01*
X409100Y120514D01*
X407850Y120390D01*
X406600Y120514D01*
X405350Y120390D01*
X404100Y120514D01*
X402850Y120390D01*
X401600Y120514D01*
X400350Y120390D01*
X399100Y120514D01*
X397850Y120390D01*
X396600Y120514D01*
X395350Y120390D01*
X394100Y120514D01*
X392850Y120390D01*
X391600Y120514D01*
X390350Y120390D01*
X389100Y120514D01*
X387654Y120371D01*
X387400Y120294D01*
X386263Y119949D01*
X384981Y119264D01*
X383858Y118342D01*
X382936Y117219D01*
X382251Y115937D01*
X381829Y114546D01*
X381686Y113100D01*
X381809Y111850D01*
X381686Y110600D01*
X381809Y109350D01*
X381686Y108100D01*
X381755Y107400D01*
X381484D01*
X381393Y107300D01*
X366954D01*
X366864Y107337D01*
X366403Y107429D01*
X366403D01*
D01*
X365597D01*
X365136Y107337D01*
X365046Y107300D01*
X357249D01*
X356876Y107413D01*
X355700Y107529D01*
D01*
X352578D01*
X352219Y107638D01*
X350700Y107788D01*
X349181Y107638D01*
X348783Y107517D01*
X348112Y107583D01*
X348092Y107585D01*
X347919Y107638D01*
X346400Y107788D01*
X344881Y107638D01*
X344852Y107629D01*
X341200D01*
X340024Y107513D01*
X339694Y107413D01*
X339651Y107400D01*
X339321Y107300D01*
X332454D01*
X332364Y107337D01*
X332049Y107400D01*
X331903Y107429D01*
X331903D01*
D01*
X331097D01*
X330636Y107337D01*
X330546Y107300D01*
X314903D01*
X314855Y107400D01*
X314474D01*
X314634Y107701D01*
X315006Y108926D01*
X315131Y110200D01*
Y142400D01*
X316214D01*
X316697Y141900D01*
Y136098D01*
X322366D01*
Y140600D01*
X322366D01*
Y142358D01*
X322849Y142400D01*
X340151D01*
X340634Y141900D01*
Y136098D01*
X344459D01*
X344507Y135732D01*
X344765Y135109D01*
X345175Y134575D01*
X345322Y134462D01*
X345617Y134235D01*
X345709Y134165D01*
X346332Y133907D01*
X347000Y133819D01*
X347668Y133907D01*
X348291Y134165D01*
X348376Y134230D01*
X348460Y134294D01*
X348460Y134294D01*
X348665Y134433D01*
X348850Y134558D01*
X348850Y134558D01*
D01*
X349150Y134356D01*
X349240Y134294D01*
X349409Y134165D01*
X350032Y133907D01*
X350700Y133819D01*
X351368Y133907D01*
X351679Y134036D01*
X351991Y134165D01*
X352525Y134575D01*
X352607Y134681D01*
X352622Y134701D01*
D01*
X352693Y134793D01*
X352935Y135109D01*
X353193Y135732D01*
X353226Y135981D01*
X353241Y136098D01*
X356835D01*
Y140600D01*
D01*
Y142358D01*
X357317Y142400D01*
X374620D01*
X375102Y141900D01*
Y136098D01*
X380772D01*
Y137849D01*
Y138502D01*
X383256Y136018D01*
X383737Y135537D01*
X384650Y134787D01*
X385693Y134230D01*
X386824Y133887D01*
X388000Y133771D01*
X423600D01*
X424776Y133887D01*
X425907Y134230D01*
X426950Y134787D01*
X427863Y135537D01*
X428613Y136451D01*
X429170Y137493D01*
X429513Y138624D01*
X429629Y139800D01*
Y142400D01*
X500900D01*
Y40700D01*
D02*
G37*
G36*
X164300Y131300D02*
X163000Y130000D01*
Y122400D01*
X159000D01*
Y135600D01*
X156700Y137900D01*
Y145100D01*
X164300D01*
Y131300D01*
D02*
G37*
G36*
X173000Y129900D02*
Y122300D01*
X169000D01*
X166700Y124600D01*
X166700Y145100D01*
X173000D01*
Y129900D01*
D02*
G37*
G36*
X204745Y122655D02*
X204538Y122154D01*
X204009Y121935D01*
X203475Y121525D01*
X203065Y120991D01*
X202807Y120368D01*
X202719Y119700D01*
X202807Y119032D01*
X203065Y118409D01*
X203475Y117875D01*
X204009Y117465D01*
X204632Y117207D01*
X205300Y117119D01*
X205968Y117207D01*
X206591Y117465D01*
X206938Y117731D01*
X207785D01*
X209631Y115884D01*
Y115350D01*
X209435D01*
Y109050D01*
X212546D01*
X212572Y109025D01*
X212542Y108743D01*
X212242Y108469D01*
X206089D01*
Y109050D01*
X206285D01*
Y115350D01*
X201954D01*
Y109050D01*
X202151D01*
Y107280D01*
X202301Y106527D01*
X202727Y105888D01*
X203508Y105108D01*
X204147Y104681D01*
X204900Y104531D01*
X205695D01*
Y98421D01*
X205891D01*
Y95375D01*
X203797Y93281D01*
X200319D01*
Y89140D01*
X200281Y88950D01*
Y88255D01*
X200181Y88199D01*
X199681Y88493D01*
Y93281D01*
X194319D01*
X194204Y93734D01*
Y98800D01*
X194113Y99261D01*
X193851Y99651D01*
X193461Y99913D01*
X193000Y100004D01*
X190224D01*
X189768Y100193D01*
X189100Y100281D01*
X188432Y100193D01*
X187976Y100004D01*
X186824D01*
X186368Y100193D01*
X185700Y100281D01*
X185032Y100193D01*
X184576Y100004D01*
X183424D01*
X182968Y100193D01*
X182300Y100281D01*
X181632Y100193D01*
X181176Y100004D01*
X179800D01*
X179400Y99925D01*
X179265Y99965D01*
X178900Y100221D01*
Y116176D01*
X178969D01*
Y120995D01*
X184150D01*
Y132413D01*
X184613Y132500D01*
X194900D01*
X204745Y122655D01*
D02*
G37*
G36*
X269100Y95900D02*
X255300D01*
Y110800D01*
X269100D01*
Y95900D01*
D02*
G37*
G36*
X355700Y97500D02*
X352400Y97500D01*
X352400Y92500D01*
X349904Y92500D01*
X349404Y93000D01*
Y93507D01*
X349370Y93677D01*
X349393Y93732D01*
X349481Y94400D01*
X349393Y95068D01*
X349370Y95123D01*
X349404Y95293D01*
Y95907D01*
X349370Y96077D01*
X349393Y96132D01*
X349481Y96800D01*
X349393Y97468D01*
X349370Y97523D01*
X349404Y97693D01*
Y98443D01*
X349374Y98598D01*
X349363Y98755D01*
X349328Y98826D01*
X349313Y98904D01*
X349240Y99013D01*
X349202Y99105D01*
X349256Y99235D01*
X349356Y100000D01*
X349256Y100765D01*
X349200Y100900D01*
Y101500D01*
X355700Y101500D01*
X355700Y97500D01*
D02*
G37*
G36*
X347983Y101100D02*
X347844Y100765D01*
X347744Y100000D01*
X347844Y99235D01*
X348140Y98522D01*
X348200Y98443D01*
Y97693D01*
X348107Y97468D01*
X348019Y96800D01*
X348107Y96132D01*
X348200Y95907D01*
Y95293D01*
X348107Y95068D01*
X348019Y94400D01*
X348107Y93732D01*
X348200Y93507D01*
Y92500D01*
X345454Y92500D01*
X345100Y92853D01*
X345100Y94700D01*
X341200D01*
Y101600D01*
X347649D01*
X347983Y101100D01*
D02*
G37*
G36*
X401800Y85100D02*
X401228D01*
X400791Y85435D01*
X400168Y85693D01*
X399500Y85781D01*
X398832Y85693D01*
X398209Y85435D01*
X397772Y85100D01*
X363767D01*
X364125Y85375D01*
X364535Y85909D01*
X364793Y86532D01*
X364881Y87200D01*
X364793Y87868D01*
X364535Y88491D01*
X364327Y88762D01*
X364668Y88807D01*
X365291Y89065D01*
X365825Y89475D01*
X366235Y90009D01*
X366493Y90632D01*
X366581Y91300D01*
X366493Y91968D01*
X366235Y92591D01*
X365825Y93125D01*
X365291Y93535D01*
X364668Y93793D01*
X364000Y93881D01*
X363332Y93793D01*
X362709Y93535D01*
X362175Y93125D01*
X361765Y92591D01*
X361507Y91968D01*
X361419Y91300D01*
X361507Y90632D01*
X361765Y90009D01*
X361973Y89738D01*
X361632Y89693D01*
X361009Y89435D01*
X360475Y89025D01*
X360065Y88491D01*
X359807Y87868D01*
X359719Y87200D01*
X359807Y86532D01*
X360065Y85909D01*
X360475Y85375D01*
X360833Y85100D01*
X335937D01*
X336425Y85475D01*
X336835Y86009D01*
X337093Y86632D01*
X337181Y87300D01*
X337093Y87968D01*
X336835Y88591D01*
X336425Y89125D01*
X336362Y89173D01*
X336625Y89375D01*
X337035Y89909D01*
X337293Y90532D01*
X337381Y91200D01*
X337293Y91868D01*
X337035Y92491D01*
X336625Y93025D01*
X336091Y93435D01*
X335468Y93693D01*
X334800Y93781D01*
X334132Y93693D01*
X333509Y93435D01*
X332975Y93025D01*
X332565Y92491D01*
X332307Y91868D01*
X332219Y91200D01*
X332307Y90532D01*
X332565Y89909D01*
X332975Y89375D01*
X333038Y89327D01*
X332775Y89125D01*
X332365Y88591D01*
X332107Y87968D01*
X332019Y87300D01*
X332107Y86632D01*
X332365Y86009D01*
X332775Y85475D01*
X333263Y85100D01*
X307400D01*
Y100800D01*
X339996D01*
Y94700D01*
X340087Y94239D01*
X340349Y93849D01*
X340739Y93587D01*
X341200Y93496D01*
X343896D01*
Y92854D01*
X343896Y92853D01*
X343987Y92393D01*
X344249Y92002D01*
X344602Y91649D01*
X344993Y91387D01*
X345454Y91296D01*
X345454Y91296D01*
X348200Y91296D01*
X348661Y91387D01*
X349051Y91649D01*
X349052Y91649D01*
X349053Y91649D01*
X349053Y91649D01*
X349443Y91387D01*
X349628Y91351D01*
X349904Y91296D01*
X349904Y91296D01*
X352400Y91296D01*
X352861Y91387D01*
X353252Y91649D01*
X353513Y92039D01*
X353604Y92500D01*
Y94098D01*
X356866D01*
Y97308D01*
X356904Y97500D01*
X356904Y100800D01*
X401800D01*
Y85100D01*
D02*
G37*
G36*
X243400Y103200D02*
X242200Y102000D01*
Y94500D01*
X238900Y91200D01*
X232300D01*
Y95000D01*
X236400D01*
X237800Y96400D01*
Y102300D01*
X236300Y103800D01*
X220900D01*
Y108600D01*
X243400D01*
Y103200D01*
D02*
G37*
G36*
X193000Y92569D02*
X191904D01*
X191150Y92419D01*
X190512Y91992D01*
X189608Y91088D01*
X189181Y90450D01*
X189100Y90043D01*
X188600Y90092D01*
Y92100D01*
X185400Y95300D01*
X184150D01*
Y95405D01*
X180395D01*
X179800Y96000D01*
Y98800D01*
X193000D01*
Y92569D01*
D02*
G37*
G36*
X250800Y95836D02*
X250753Y95356D01*
X244847D01*
Y89844D01*
X246891D01*
X247082Y89382D01*
X239400Y81700D01*
X212000Y81700D01*
Y87300D01*
X207756D01*
X207635Y87591D01*
X207225Y88125D01*
X206691Y88535D01*
X206068Y88793D01*
X205681Y88844D01*
Y89597D01*
X209252Y93168D01*
X209285Y93218D01*
X209924Y93273D01*
X210804Y92393D01*
Y91572D01*
X222125D01*
X223210Y90487D01*
Y86744D01*
X223954D01*
X224039Y86687D01*
X224500Y86596D01*
X228100D01*
X228561Y86687D01*
X228646Y86744D01*
X229116D01*
Y87194D01*
X229213Y87339D01*
X229304Y87800D01*
Y96900D01*
X229268Y97082D01*
X229247Y97267D01*
X229222Y97311D01*
X229213Y97361D01*
X229110Y97515D01*
X229019Y97678D01*
X228980Y97709D01*
X228952Y97751D01*
X228797Y97855D01*
X228652Y97970D01*
X220526Y102160D01*
X220692Y102637D01*
X220900Y102596D01*
X235801D01*
X236596Y101801D01*
Y96899D01*
X235901Y96204D01*
X232300D01*
X231839Y96113D01*
X231665Y95996D01*
X231084D01*
Y90484D01*
X231358D01*
X231449Y90349D01*
X231839Y90087D01*
X232300Y89996D01*
X238900D01*
X239361Y90087D01*
X239752Y90349D01*
X239752Y90349D01*
X243052Y93648D01*
X243313Y94039D01*
X243404Y94500D01*
X243404Y94500D01*
Y101501D01*
X244251Y102348D01*
X244513Y102739D01*
X244604Y103200D01*
X250800D01*
X250800Y95836D01*
D02*
G37*
G36*
X228100Y96900D02*
Y87800D01*
X224500D01*
Y90900D01*
X222500Y92900D01*
X212000D01*
X210500Y94400D01*
Y103500D01*
X215300D01*
X228100Y96900D01*
D02*
G37*
G36*
X267800Y76204D02*
X255200D01*
Y91034D01*
X256366Y92200D01*
X267800D01*
Y76204D01*
D02*
G37*
G36*
X269300Y64700D02*
X254300D01*
Y75000D01*
X269300D01*
Y64700D01*
D02*
G37*
G36*
X211100Y52304D02*
X191200D01*
Y60800D01*
X211100D01*
Y52304D01*
D02*
G37*
G36*
Y40500D02*
X191200D01*
Y51100D01*
X211100D01*
Y40500D01*
D02*
G37*
%LPC*%
G36*
X362500Y134581D02*
X361832Y134493D01*
X361209Y134235D01*
X360675Y133825D01*
X360562Y133678D01*
X360525Y133725D01*
X359991Y134135D01*
X359368Y134393D01*
X358700Y134481D01*
X358032Y134393D01*
X357409Y134135D01*
X356875Y133725D01*
X356465Y133191D01*
X356207Y132568D01*
X356119Y131900D01*
X356207Y131232D01*
X356465Y130609D01*
X356875Y130075D01*
X357409Y129665D01*
X358032Y129407D01*
X358700Y129319D01*
X359368Y129407D01*
X359991Y129665D01*
X360525Y130075D01*
X360638Y130222D01*
X360675Y130175D01*
X361079Y129865D01*
X361209Y129765D01*
X361832Y129507D01*
X362500Y129419D01*
X363168Y129507D01*
X363791Y129765D01*
X364325Y130175D01*
X364735Y130709D01*
X364993Y131332D01*
X365081Y132000D01*
X364993Y132668D01*
X364735Y133291D01*
X364325Y133825D01*
X363791Y134235D01*
X363168Y134493D01*
X362500Y134581D01*
D02*
G37*
G36*
X338100Y134881D02*
X337432Y134793D01*
X336809Y134535D01*
X336275Y134125D01*
X335865Y133591D01*
X335759Y133334D01*
X335735Y133391D01*
X335421Y133800D01*
D01*
X335325Y133925D01*
X334791Y134335D01*
X334168Y134593D01*
X333500Y134681D01*
X332832Y134593D01*
X332209Y134335D01*
X331675Y133925D01*
X331265Y133391D01*
X331007Y132768D01*
X330919Y132100D01*
X331007Y131432D01*
X331265Y130809D01*
X331675Y130275D01*
X332209Y129865D01*
X332832Y129607D01*
X333500Y129519D01*
X334168Y129607D01*
X334791Y129865D01*
X335325Y130275D01*
X335735Y130809D01*
X335841Y131066D01*
X335865Y131009D01*
X336179Y130600D01*
X336275Y130475D01*
X336809Y130065D01*
X337432Y129807D01*
X338100Y129719D01*
X338768Y129807D01*
X339391Y130065D01*
X339925Y130475D01*
X340335Y131009D01*
X340593Y131632D01*
X340681Y132300D01*
X340593Y132968D01*
X340335Y133591D01*
X339925Y134125D01*
X339391Y134535D01*
X338768Y134793D01*
X338100Y134881D01*
D02*
G37*
G36*
X335600Y121281D02*
X334932Y121193D01*
X334309Y120935D01*
X333775Y120525D01*
X333365Y119991D01*
X333107Y119368D01*
X333019Y118700D01*
X333107Y118032D01*
X333365Y117409D01*
X333775Y116875D01*
X334309Y116465D01*
X334932Y116207D01*
X335600Y116119D01*
X336268Y116207D01*
X336891Y116465D01*
X337425Y116875D01*
X337835Y117409D01*
X338093Y118032D01*
X338181Y118700D01*
X338093Y119368D01*
X337835Y119991D01*
X337425Y120525D01*
X336891Y120935D01*
X336268Y121193D01*
X335600Y121281D01*
D02*
G37*
G36*
X380803Y100358D02*
X375134D01*
Y94098D01*
X380803D01*
Y100358D01*
D02*
G37*
G36*
X322366D02*
X316697D01*
Y94098D01*
X322366D01*
Y100358D01*
D02*
G37*
G36*
X236990Y88516D02*
X231084D01*
Y83004D01*
X236990D01*
Y88516D01*
D02*
G37*
%LPD*%
D10*
X308200Y94000D02*
X308800Y94600D01*
X300900Y190800D02*
X303400Y193300D01*
X302200Y150200D02*
X308600Y143800D01*
Y110200D02*
Y143800D01*
X302900Y104500D02*
X308600Y110200D01*
X302200Y150200D02*
Y166170D01*
X304413Y168383D01*
Y181199D01*
X300900Y184711D02*
X304413Y181199D01*
X300900Y184711D02*
Y190800D01*
D21*
X239926Y96340D02*
D03*
X247800Y92600D02*
D03*
Y100080D02*
D03*
X226163Y89500D02*
D03*
X234037Y85760D02*
D03*
Y93240D02*
D03*
D23*
X197000Y90600D02*
D03*
X203000D02*
D03*
X241700Y106000D02*
D03*
X247700D02*
D03*
D27*
X258300Y165999D02*
D03*
Y178401D02*
D03*
X259900Y86899D02*
D03*
Y99301D02*
D03*
D29*
X465950Y48500D02*
D03*
X492000D02*
D03*
X439900D02*
D03*
D33*
X249900Y161495D02*
D03*
Y167400D02*
D03*
Y85005D02*
D03*
Y79100D02*
D03*
X195200Y47594D02*
D03*
Y53500D02*
D03*
X201550Y47594D02*
D03*
Y53500D02*
D03*
X207900Y47594D02*
D03*
Y53500D02*
D03*
X234200Y100094D02*
D03*
Y106000D02*
D03*
D34*
X162900Y143300D02*
D03*
X168806D02*
D03*
X162995Y136800D02*
D03*
X168900D02*
D03*
D36*
X258400Y151900D02*
D03*
Y157900D02*
D03*
X282200Y149500D02*
D03*
Y155500D02*
D03*
X259000Y73500D02*
D03*
Y79500D02*
D03*
D61*
X390500Y87200D02*
X391400Y88100D01*
X390500Y55000D02*
Y87200D01*
X269300Y142600D02*
X282200Y155500D01*
X281000Y144900D02*
Y148300D01*
X282200Y149500D01*
X221400Y145500D02*
X238228Y128672D01*
X242452D01*
X243224Y127900D01*
X257600D01*
X226328Y122372D02*
X263672D01*
X206400Y142300D02*
X226328Y122372D01*
X263672D02*
X264528Y123228D01*
X209100Y145500D02*
X221400D01*
X180700Y142300D02*
X206400D01*
X205300Y119700D02*
X208600D01*
X288124Y116000D02*
X294700D01*
X280896Y123228D02*
X288124Y116000D01*
X264528Y123228D02*
X280896D01*
X308700Y48500D02*
Y59500D01*
X304200Y44000D02*
X308700Y48500D01*
X178600Y77300D02*
X181500Y74400D01*
X168100Y77300D02*
X178600D01*
X182824Y71300D02*
X187911D01*
X182796Y71272D02*
X182824Y71300D01*
X180204Y71272D02*
X182796D01*
X180176Y71300D02*
X180204Y71272D01*
X169600Y71300D02*
X180176D01*
X199900Y84765D02*
X202250Y87115D01*
X159400Y68600D02*
X168100Y77300D01*
X211600Y112200D02*
Y116700D01*
X208600Y119700D02*
X211600Y116700D01*
X223300Y44000D02*
X304200D01*
X215900Y51400D02*
X223300Y44000D01*
X187911Y71300D02*
X189011Y70200D01*
X192600D01*
X193700Y71300D01*
X209300D01*
X215900Y64700D01*
X164300Y66000D02*
X169600Y71300D01*
X202250Y88950D02*
X203000Y89700D01*
X202250Y87115D02*
Y88950D01*
X203000Y89700D02*
Y90600D01*
X191904D02*
X197000D01*
X191000Y89696D02*
X191904Y90600D01*
X203900D02*
X207860Y94560D01*
X233700Y106500D02*
X234200Y106000D01*
X204900Y106500D02*
X233700D01*
X204120Y107280D02*
X204900Y106500D01*
X204120Y107280D02*
Y112200D01*
X180700Y142300D02*
X186300Y147900D01*
Y153200D01*
X173100Y149900D02*
X180700Y142300D01*
X173100Y149900D02*
Y152900D01*
X189229Y64000D02*
X204800D01*
X186329Y61100D02*
X189229Y64000D01*
X169400Y61100D02*
X186329D01*
X164300Y56000D02*
X169400Y61100D01*
X159400D02*
Y68600D01*
X154300Y56000D02*
X159400Y61100D01*
X215900Y51400D02*
Y64700D01*
X207860Y94560D02*
Y101570D01*
X259900Y98879D02*
Y99301D01*
X247700Y108700D02*
X248700Y109700D01*
X247700Y106000D02*
Y108700D01*
D63*
X249900Y77300D02*
X259900Y67300D01*
X249900Y77300D02*
Y79100D01*
Y85005D02*
Y85005D01*
X252547Y87653D01*
Y91526D01*
X259900Y98879D01*
X254800Y151900D02*
X259600D01*
X249900Y156800D02*
X254800Y151900D01*
X249900Y156800D02*
Y161495D01*
D64*
X291100Y61500D02*
D03*
X405273Y175673D02*
D03*
X291100D02*
D03*
X405273Y61500D02*
D03*
X174300Y56000D02*
D03*
X164300D02*
D03*
X154300D02*
D03*
X184300Y66000D02*
D03*
X174300D02*
D03*
X164300D02*
D03*
X154300D02*
D03*
D65*
X184300Y56000D02*
D03*
D66*
X206850Y189902D02*
D03*
X196850Y189900D02*
D03*
D67*
X308800Y94600D02*
D03*
X230200Y99400D02*
D03*
X238600Y105900D02*
D03*
X346400Y100000D02*
D03*
X302900Y104500D02*
D03*
X328500Y99100D02*
D03*
X357400Y114600D02*
D03*
X341000D02*
D03*
X350700Y100000D02*
D03*
X370300Y99300D02*
D03*
X371400Y141500D02*
D03*
X350800Y142500D02*
D03*
X346500Y142400D02*
D03*
X325500Y141700D02*
D03*
X358540Y159500D02*
D03*
X338820D02*
D03*
D68*
X415700Y86700D02*
D03*
X390500Y55000D02*
D03*
X399500Y83200D02*
D03*
X353700Y44600D02*
D03*
X180200Y184200D02*
D03*
X257600Y127900D02*
D03*
X241200Y131800D02*
D03*
Y125500D02*
D03*
X219400Y141300D02*
D03*
Y138300D02*
D03*
Y135300D02*
D03*
X209100Y145500D02*
D03*
X191300Y120000D02*
D03*
X194700D02*
D03*
X205300Y119700D02*
D03*
X207200Y116200D02*
D03*
X294700Y116000D02*
D03*
X308700Y59500D02*
D03*
X349400Y48800D02*
D03*
X181500Y74400D02*
D03*
X199900Y84765D02*
D03*
X350600Y96800D02*
D03*
X346900Y94400D02*
D03*
Y96800D02*
D03*
X350600Y94400D02*
D03*
X263500Y107300D02*
D03*
X267100D02*
D03*
X331800Y141500D02*
D03*
X205400Y86300D02*
D03*
X190100Y73600D02*
D03*
X367700Y76000D02*
D03*
X316600Y93100D02*
D03*
X171800Y136200D02*
D03*
Y139200D02*
D03*
X159000Y138100D02*
D03*
Y142900D02*
D03*
X180700Y142300D02*
D03*
X186300Y153200D02*
D03*
X173100Y152900D02*
D03*
X211000Y64300D02*
D03*
X201500Y58700D02*
D03*
X204800Y64000D02*
D03*
X219400Y57300D02*
D03*
X309100Y88100D02*
D03*
Y90600D02*
D03*
X326600Y88100D02*
D03*
Y93100D02*
D03*
Y90600D02*
D03*
X329100Y88100D02*
D03*
Y93100D02*
D03*
Y90600D02*
D03*
X331600Y99100D02*
D03*
X334600D02*
D03*
X334800Y91200D02*
D03*
X334600Y87300D02*
D03*
X279600Y120100D02*
D03*
X277200D02*
D03*
X239600Y86300D02*
D03*
Y88700D02*
D03*
X225000Y93400D02*
D03*
Y95800D02*
D03*
X187900Y120000D02*
D03*
X189100Y97700D02*
D03*
X185700D02*
D03*
X182300D02*
D03*
X387100Y80300D02*
D03*
X248700Y109700D02*
D03*
X329300Y46700D02*
D03*
X286000Y128900D02*
D03*
Y126500D02*
D03*
X341300Y47900D02*
D03*
Y45500D02*
D03*
X241200Y53500D02*
D03*
Y50500D02*
D03*
Y47500D02*
D03*
X219400Y60300D02*
D03*
Y63300D02*
D03*
X194900Y58700D02*
D03*
X207700D02*
D03*
X207900Y43600D02*
D03*
X201700D02*
D03*
X195100D02*
D03*
X429600Y185900D02*
D03*
Y183400D02*
D03*
Y180900D02*
D03*
X432100Y185900D02*
D03*
Y183400D02*
D03*
Y180900D02*
D03*
X434600Y185900D02*
D03*
Y183400D02*
D03*
Y180900D02*
D03*
X444600D02*
D03*
Y183400D02*
D03*
Y185900D02*
D03*
X442100Y180900D02*
D03*
Y183400D02*
D03*
Y185900D02*
D03*
X439600Y180900D02*
D03*
Y183400D02*
D03*
Y185900D02*
D03*
X437100Y180900D02*
D03*
Y183400D02*
D03*
Y185900D02*
D03*
X447100D02*
D03*
Y183400D02*
D03*
Y180900D02*
D03*
X449600Y185900D02*
D03*
Y183400D02*
D03*
Y180900D02*
D03*
X429600Y193300D02*
D03*
Y190800D02*
D03*
Y188300D02*
D03*
X432100Y193300D02*
D03*
Y190800D02*
D03*
Y188300D02*
D03*
X434600Y193300D02*
D03*
Y190800D02*
D03*
Y188300D02*
D03*
X444600D02*
D03*
Y190800D02*
D03*
Y193300D02*
D03*
X442100Y188300D02*
D03*
Y190800D02*
D03*
Y193300D02*
D03*
X439600Y188300D02*
D03*
Y190800D02*
D03*
Y193300D02*
D03*
X437100Y188300D02*
D03*
Y190800D02*
D03*
Y193300D02*
D03*
X447100D02*
D03*
Y190800D02*
D03*
Y188300D02*
D03*
X449600Y193300D02*
D03*
Y190800D02*
D03*
Y188300D02*
D03*
X266000Y87300D02*
D03*
Y84650D02*
D03*
Y82000D02*
D03*
X259900Y67300D02*
D03*
X263500D02*
D03*
X267100D02*
D03*
X259900Y107300D02*
D03*
X362300Y87200D02*
D03*
X364000Y91300D02*
D03*
X364200Y99300D02*
D03*
X367200D02*
D03*
X281000Y144900D02*
D03*
X262100Y142600D02*
D03*
X265700D02*
D03*
X269300D02*
D03*
X267100Y185300D02*
D03*
X263500D02*
D03*
X259900D02*
D03*
X264800Y161100D02*
D03*
Y163750D02*
D03*
Y166400D02*
D03*
X335600Y118700D02*
D03*
X362500Y132000D02*
D03*
X358700Y131900D02*
D03*
X338100Y132300D02*
D03*
X333500Y132100D02*
D03*
X365300Y141500D02*
D03*
X368300D02*
D03*
X350700Y139300D02*
D03*
Y136400D02*
D03*
X347000D02*
D03*
Y139300D02*
D03*
X328600Y141700D02*
D03*
X396900Y147800D02*
D03*
Y145300D02*
D03*
Y142800D02*
D03*
X399400Y147800D02*
D03*
Y145300D02*
D03*
Y142800D02*
D03*
X401900Y147800D02*
D03*
Y145300D02*
D03*
Y142800D02*
D03*
X404400Y147800D02*
D03*
Y145300D02*
D03*
Y142800D02*
D03*
X414400D02*
D03*
Y145300D02*
D03*
Y147800D02*
D03*
X411900Y142800D02*
D03*
Y145300D02*
D03*
Y147800D02*
D03*
X409400Y142800D02*
D03*
Y145300D02*
D03*
Y147800D02*
D03*
X406900Y142800D02*
D03*
Y145300D02*
D03*
Y147800D02*
D03*
X416900D02*
D03*
Y145300D02*
D03*
Y142800D02*
D03*
X419400Y147800D02*
D03*
Y145300D02*
D03*
Y142800D02*
D03*
X419100Y108100D02*
D03*
Y110600D02*
D03*
Y113100D02*
D03*
X416600Y108100D02*
D03*
Y110600D02*
D03*
Y113100D02*
D03*
X406600D02*
D03*
Y110600D02*
D03*
Y108100D02*
D03*
X409100Y113100D02*
D03*
Y110600D02*
D03*
Y108100D02*
D03*
X411600Y113100D02*
D03*
Y110600D02*
D03*
Y108100D02*
D03*
X414100Y113100D02*
D03*
Y110600D02*
D03*
Y108100D02*
D03*
X404100D02*
D03*
Y110600D02*
D03*
Y113100D02*
D03*
X401600Y108100D02*
D03*
Y110600D02*
D03*
Y113100D02*
D03*
X399100Y108100D02*
D03*
Y110600D02*
D03*
Y113100D02*
D03*
X396600Y108100D02*
D03*
Y110600D02*
D03*
Y113100D02*
D03*
X394100Y108100D02*
D03*
Y110600D02*
D03*
Y113100D02*
D03*
X391600Y108100D02*
D03*
Y110600D02*
D03*
Y113100D02*
D03*
X389100Y108100D02*
D03*
Y110600D02*
D03*
Y113100D02*
D03*
X371400Y93100D02*
D03*
Y90600D02*
D03*
Y88100D02*
D03*
X373900Y90600D02*
D03*
Y88100D02*
D03*
X376400Y90600D02*
D03*
Y88100D02*
D03*
X378900Y90600D02*
D03*
Y88100D02*
D03*
X381400Y90600D02*
D03*
Y88100D02*
D03*
X391400D02*
D03*
Y90600D02*
D03*
Y93100D02*
D03*
X388900Y88100D02*
D03*
Y90600D02*
D03*
Y93100D02*
D03*
X386400Y88100D02*
D03*
Y90600D02*
D03*
Y93100D02*
D03*
X383900Y88100D02*
D03*
Y90600D02*
D03*
Y93100D02*
D03*
X311600D02*
D03*
Y90600D02*
D03*
Y88100D02*
D03*
X314100Y93100D02*
D03*
Y90600D02*
D03*
Y88100D02*
D03*
X316600Y90600D02*
D03*
Y88100D02*
D03*
X319100Y90600D02*
D03*
Y88100D02*
D03*
X324100D02*
D03*
Y90600D02*
D03*
Y93100D02*
D03*
X321600Y88100D02*
D03*
Y90600D02*
D03*
X390900Y188300D02*
D03*
Y190800D02*
D03*
Y193300D02*
D03*
X388400Y188300D02*
D03*
Y190800D02*
D03*
Y193300D02*
D03*
X378400D02*
D03*
Y190800D02*
D03*
Y188300D02*
D03*
X380900Y193300D02*
D03*
Y190800D02*
D03*
Y188300D02*
D03*
X383400Y193300D02*
D03*
Y190800D02*
D03*
Y188300D02*
D03*
X385900Y193300D02*
D03*
Y190800D02*
D03*
Y188300D02*
D03*
X375900D02*
D03*
Y190800D02*
D03*
Y193300D02*
D03*
X373400Y188300D02*
D03*
Y190800D02*
D03*
Y193300D02*
D03*
X370900Y188300D02*
D03*
Y190800D02*
D03*
Y193300D02*
D03*
X368400Y188300D02*
D03*
Y190800D02*
D03*
Y193300D02*
D03*
X365900Y188300D02*
D03*
Y190800D02*
D03*
Y193300D02*
D03*
X363400Y188300D02*
D03*
Y190800D02*
D03*
Y193300D02*
D03*
X360900Y188300D02*
D03*
Y190800D02*
D03*
Y193300D02*
D03*
X358400Y188300D02*
D03*
Y190800D02*
D03*
Y193300D02*
D03*
X355900Y188300D02*
D03*
Y190800D02*
D03*
Y193300D02*
D03*
X353400Y188300D02*
D03*
Y190800D02*
D03*
Y193300D02*
D03*
X350900Y188300D02*
D03*
Y190800D02*
D03*
Y193300D02*
D03*
X348400Y188300D02*
D03*
Y190800D02*
D03*
Y193300D02*
D03*
X345900Y188300D02*
D03*
Y190800D02*
D03*
Y193300D02*
D03*
X343400Y188300D02*
D03*
Y190800D02*
D03*
Y193300D02*
D03*
X340900Y188300D02*
D03*
Y190800D02*
D03*
Y193300D02*
D03*
X338400Y188300D02*
D03*
Y190800D02*
D03*
Y193300D02*
D03*
X335900Y188300D02*
D03*
Y190800D02*
D03*
Y193300D02*
D03*
X333400Y188300D02*
D03*
Y190800D02*
D03*
Y193300D02*
D03*
X330900Y188300D02*
D03*
Y190800D02*
D03*
Y193300D02*
D03*
X328400Y188300D02*
D03*
Y190800D02*
D03*
Y193300D02*
D03*
X325900Y188300D02*
D03*
Y190800D02*
D03*
Y193300D02*
D03*
X323400Y188300D02*
D03*
Y190800D02*
D03*
Y193300D02*
D03*
X320900Y188300D02*
D03*
Y190800D02*
D03*
Y193300D02*
D03*
X318400Y188300D02*
D03*
Y190800D02*
D03*
Y193300D02*
D03*
X315900Y188300D02*
D03*
Y190800D02*
D03*
Y193300D02*
D03*
X313400Y188300D02*
D03*
Y190800D02*
D03*
Y193300D02*
D03*
X310900Y188300D02*
D03*
Y190800D02*
D03*
Y193300D02*
D03*
X308400Y188300D02*
D03*
Y190800D02*
D03*
Y193300D02*
D03*
X305900Y188300D02*
D03*
Y190800D02*
D03*
Y193300D02*
D03*
X303400D02*
D03*
Y190800D02*
D03*
Y188300D02*
D03*
X381660Y169900D02*
D03*
X379160D02*
D03*
X376660D02*
D03*
X381660Y167300D02*
D03*
X379160D02*
D03*
X376660D02*
D03*
X359640Y169900D02*
D03*
X356940D02*
D03*
X359640Y167300D02*
D03*
X356940D02*
D03*
X340320Y169900D02*
D03*
X337620D02*
D03*
X340320Y167300D02*
D03*
X337620D02*
D03*
X315600Y169900D02*
D03*
X318100D02*
D03*
X320600D02*
D03*
X315600Y167300D02*
D03*
X318100D02*
D03*
X320600D02*
D03*
X376660Y164700D02*
D03*
Y162100D02*
D03*
Y159500D02*
D03*
X379160Y164700D02*
D03*
Y162100D02*
D03*
Y159500D02*
D03*
X381660Y164700D02*
D03*
Y162100D02*
D03*
Y159500D02*
D03*
X356940Y164700D02*
D03*
Y162100D02*
D03*
X359640Y164700D02*
D03*
Y162300D02*
D03*
X337620Y164700D02*
D03*
Y162300D02*
D03*
X340320Y164700D02*
D03*
Y162100D02*
D03*
X320600Y159500D02*
D03*
Y162100D02*
D03*
Y164700D02*
D03*
X318100Y159500D02*
D03*
Y162100D02*
D03*
Y164700D02*
D03*
X315600Y159500D02*
D03*
Y162100D02*
D03*
Y164700D02*
D03*
D69*
X486600Y56800D02*
D03*
X491950D02*
D03*
X497300D02*
D03*
X460550D02*
D03*
X465900D02*
D03*
X471250D02*
D03*
X445200D02*
D03*
X439850D02*
D03*
X434500D02*
D03*
D70*
X204120Y101570D02*
D03*
X207860D02*
D03*
X211600D02*
D03*
Y112200D02*
D03*
X207860D02*
D03*
X204120D02*
D03*
D71*
X161000Y126704D02*
D03*
X171000Y126704D02*
D03*
X181000D02*
D03*
X191000D02*
D03*
X161000Y89696D02*
D03*
X171000D02*
D03*
X181000Y89696D02*
D03*
X191000D02*
D03*
D72*
X331500Y111087D02*
D03*
X365968Y153087D02*
D03*
X331500D02*
D03*
X366000Y111087D02*
D03*
D73*
X331500Y96913D02*
D03*
X365968Y138913D02*
D03*
X331500D02*
D03*
X366000Y96913D02*
D03*
D74*
X343468Y97228D02*
D03*
X319531D02*
D03*
X377937Y139228D02*
D03*
X354000D02*
D03*
X343468D02*
D03*
X319531D02*
D03*
X377969Y97228D02*
D03*
X354031D02*
D03*
D75*
X217300Y95312D02*
D03*
Y84288D02*
D03*
D76*
X256301Y178401D02*
X259300D01*
X249900Y172000D02*
X256301Y178401D01*
X249900Y167400D02*
Y172000D01*
M02*
