G04*
G04 #@! TF.GenerationSoftware,Altium Limited,Altium Designer,18.0.7 (293)*
G04*
G04 Layer_Physical_Order=2*
G04 Layer_Color=36540*
%FSLAX25Y25*%
%MOIN*%
G70*
G01*
G75*
%ADD61C,0.01500*%
%ADD65R,0.06299X0.06299*%
%ADD66C,0.07874*%
%ADD67C,0.03500*%
%ADD68C,0.02756*%
G36*
X462600Y85200D02*
X401097D01*
X400791Y85435D01*
X400168Y85693D01*
X399500Y85781D01*
X398832Y85693D01*
X398209Y85435D01*
X397903Y85200D01*
X368404D01*
X368404Y88300D01*
X368374Y88450D01*
X368404Y88600D01*
X368404Y94400D01*
X368313Y94861D01*
X368052Y95252D01*
X367661Y95513D01*
X367200Y95604D01*
X353416D01*
X353094Y96012D01*
X353077Y96093D01*
X353093Y96132D01*
X353181Y96800D01*
X353093Y97468D01*
X352868Y98011D01*
X353260Y98522D01*
X353556Y99235D01*
X353656Y100000D01*
X353556Y100765D01*
X353260Y101478D01*
X352790Y102091D01*
X352178Y102560D01*
X351465Y102856D01*
X350700Y102956D01*
X349935Y102856D01*
X349222Y102560D01*
X348609Y102091D01*
X348491D01*
X347878Y102560D01*
X347165Y102856D01*
X346400Y102956D01*
X345635Y102856D01*
X344922Y102560D01*
X344309Y102091D01*
X343840Y101478D01*
X343544Y100765D01*
X343444Y100000D01*
X343544Y99235D01*
X343840Y98522D01*
X344309Y97909D01*
X344522Y97746D01*
X344407Y97468D01*
X344319Y96800D01*
X344407Y96132D01*
X344423Y96093D01*
X344406Y96012D01*
X344084Y95604D01*
X333400D01*
X332939Y95513D01*
X332548Y95252D01*
X332287Y94861D01*
X332196Y94400D01*
X332196Y88600D01*
X332226Y88450D01*
X332196Y88300D01*
Y88183D01*
X332107Y87968D01*
X332019Y87300D01*
X332107Y86632D01*
X332196Y86417D01*
X332196Y85200D01*
X307700D01*
Y111684D01*
X308200Y111921D01*
X308851Y111387D01*
X309893Y110830D01*
X311024Y110487D01*
X312200Y110371D01*
X334473D01*
X334525Y110274D01*
X335493Y109093D01*
X336673Y108125D01*
X338020Y107405D01*
X339481Y106962D01*
X341000Y106813D01*
X342519Y106962D01*
X343980Y107405D01*
X345326Y108125D01*
X346507Y109093D01*
X347475Y110274D01*
X348195Y111620D01*
X348638Y113081D01*
X348787Y114600D01*
X348638Y116119D01*
X348562Y116369D01*
X348860Y116771D01*
X349540D01*
X349838Y116369D01*
X349762Y116119D01*
X349612Y114600D01*
X349762Y113081D01*
X350205Y111620D01*
X350925Y110274D01*
X351893Y109093D01*
X353074Y108125D01*
X354420Y107405D01*
X355881Y106962D01*
X357400Y106813D01*
X358919Y106962D01*
X360380Y107405D01*
X361726Y108125D01*
X362907Y109093D01*
X363875Y110274D01*
X364595Y111620D01*
X365038Y113081D01*
X365188Y114600D01*
X365038Y116119D01*
X364595Y117580D01*
X363875Y118927D01*
X362907Y120107D01*
X361726Y121075D01*
X360380Y121795D01*
X359567Y122041D01*
X359713Y122524D01*
X359797Y123371D01*
X364800D01*
X365976Y123487D01*
X367107Y123830D01*
X368149Y124387D01*
X369063Y125137D01*
X369813Y126050D01*
X370370Y127093D01*
X370713Y128224D01*
X370829Y129400D01*
Y133396D01*
X371199Y133732D01*
X371400Y133712D01*
X372919Y133862D01*
X374380Y134305D01*
X375727Y135025D01*
X376907Y135993D01*
X377875Y137173D01*
X378595Y138520D01*
X379038Y139981D01*
X379187Y141500D01*
X379038Y143019D01*
X378595Y144480D01*
X377875Y145826D01*
X376907Y147007D01*
X375727Y147975D01*
X374380Y148695D01*
X372919Y149138D01*
X371400Y149287D01*
X369881Y149138D01*
X369426Y149000D01*
X367620D01*
X367576Y149029D01*
X366832Y149337D01*
X366371Y149429D01*
X365566D01*
X365105Y149337D01*
X364361Y149029D01*
X364317Y149000D01*
X355080D01*
X353780Y149695D01*
X352319Y150138D01*
X350800Y150287D01*
X349281Y150138D01*
X348485Y149897D01*
X348019Y150038D01*
X346500Y150188D01*
X344981Y150038D01*
X343520Y149595D01*
X342407Y149000D01*
X333152D01*
X333108Y149029D01*
X332364Y149337D01*
X331903Y149429D01*
X331097D01*
X330636Y149337D01*
X329892Y149029D01*
X329849Y149000D01*
X329754D01*
X328600Y149114D01*
X327965Y149051D01*
X327019Y149338D01*
X325500Y149487D01*
X323981Y149338D01*
X322867Y149000D01*
X322518D01*
Y148894D01*
X321174Y148175D01*
X319993Y147207D01*
X319520Y146630D01*
X319021Y146606D01*
X313796Y151830D01*
X314053Y152259D01*
X314154Y152229D01*
X315600Y152086D01*
X316850Y152209D01*
X318100Y152086D01*
X319350Y152209D01*
X320600Y152086D01*
X322046Y152229D01*
X323437Y152651D01*
X324719Y153336D01*
X325842Y154258D01*
X326764Y155381D01*
X327449Y156663D01*
X327871Y158054D01*
X328014Y159500D01*
X327886Y160800D01*
X328014Y162100D01*
X327886Y163400D01*
X328014Y164700D01*
X327886Y166000D01*
X328014Y167300D01*
X327886Y168600D01*
X328014Y169900D01*
X327871Y171346D01*
X327449Y172737D01*
X326764Y174019D01*
X325842Y175142D01*
X324719Y176064D01*
X323437Y176749D01*
X322046Y177171D01*
X320600Y177314D01*
X319350Y177190D01*
X318100Y177314D01*
X316850Y177190D01*
X315600Y177314D01*
X314154Y177171D01*
X312763Y176749D01*
X311481Y176064D01*
X310358Y175142D01*
X309436Y174019D01*
X308751Y172737D01*
X308329Y171346D01*
X308186Y169900D01*
X308314Y168600D01*
X308186Y167300D01*
X308314Y166000D01*
X308186Y164700D01*
X308314Y163400D01*
X308186Y162100D01*
X308314Y160800D01*
X308186Y159500D01*
X308329Y158054D01*
X308359Y157953D01*
X307930Y157696D01*
X300700Y164926D01*
Y167672D01*
X301241Y168306D01*
X302269Y169983D01*
X303021Y171800D01*
X303480Y173712D01*
X303635Y175673D01*
X303480Y177634D01*
X303021Y179547D01*
X302269Y181364D01*
X301241Y183041D01*
X300700Y183674D01*
Y195500D01*
X462600D01*
Y85200D01*
D02*
G37*
G36*
X231800Y146900D02*
X247300Y131400D01*
X283030D01*
X283277Y130900D01*
X283049Y130604D01*
X282758Y129900D01*
X289242D01*
X288951Y130604D01*
X288723Y130900D01*
X288970Y131400D01*
X291200D01*
Y121400D01*
X281828D01*
X281425Y121925D01*
X280891Y122335D01*
X280268Y122593D01*
X279600Y122681D01*
X278932Y122593D01*
X278400Y122373D01*
X277868Y122593D01*
X277200Y122681D01*
X276532Y122593D01*
X275909Y122335D01*
X275375Y121925D01*
X274972Y121400D01*
X247800D01*
Y118300D01*
X224018Y118300D01*
X202389Y140432D01*
X183123Y140432D01*
X182876Y140932D01*
X182935Y141009D01*
X183193Y141632D01*
X183281Y142300D01*
X183193Y142968D01*
X182935Y143591D01*
X182525Y144125D01*
X181991Y144535D01*
X181368Y144793D01*
X180700Y144881D01*
X180032Y144793D01*
X179409Y144535D01*
X178875Y144125D01*
X178465Y143591D01*
X178207Y142968D01*
X178119Y142300D01*
X178207Y141632D01*
X178465Y141009D01*
X178524Y140932D01*
X178277Y140432D01*
X174946D01*
X174751Y140903D01*
X174209Y141609D01*
X173503Y142151D01*
X172800Y142442D01*
Y139200D01*
X171800D01*
Y138200D01*
X168558D01*
X168765Y137700D01*
X168558Y137200D01*
X171800D01*
Y136200D01*
X172800D01*
Y132813D01*
X172882Y132778D01*
X173100Y132632D01*
Y128400D01*
X166700D01*
Y83600D01*
X173100D01*
Y72900D01*
X179425D01*
X179675Y72575D01*
X180209Y72165D01*
X180832Y71907D01*
X181500Y71819D01*
X182168Y71907D01*
X182791Y72165D01*
X183325Y72575D01*
X183575Y72900D01*
X187620D01*
X187865Y72309D01*
X188275Y71775D01*
X188809Y71365D01*
X189432Y71107D01*
X190100Y71019D01*
X190768Y71107D01*
X191391Y71365D01*
X191925Y71775D01*
X192335Y72309D01*
X192580Y72900D01*
X213514D01*
Y70800D01*
X238463D01*
Y63737D01*
X248800Y53400D01*
X281585Y53400D01*
X282237Y52637D01*
X283732Y51359D01*
X285409Y50331D01*
X287227Y49579D01*
X289139Y49120D01*
X291100Y48965D01*
X293061Y49120D01*
X294973Y49579D01*
X296791Y50331D01*
X298468Y51359D01*
X299963Y52637D01*
X301241Y54132D01*
X301413Y54413D01*
X304500Y57500D01*
X307103D01*
X307409Y57265D01*
X308032Y57007D01*
X308700Y56919D01*
X309368Y57007D01*
X309991Y57265D01*
X310297Y57500D01*
X346900D01*
Y49416D01*
X346819Y48800D01*
X346900Y48184D01*
Y40900D01*
X210716D01*
X210470Y41400D01*
X210851Y41896D01*
X211142Y42600D01*
X207900D01*
Y43600D01*
X206900D01*
Y46842D01*
X206196Y46551D01*
X205491Y46009D01*
X205103Y45504D01*
X205042Y45477D01*
X204558D01*
X204497Y45504D01*
X204109Y46009D01*
X203403Y46551D01*
X202700Y46842D01*
Y43600D01*
X200700D01*
Y46842D01*
X199996Y46551D01*
X199291Y46009D01*
X198749Y45304D01*
X198671Y45113D01*
X198129D01*
X198051Y45304D01*
X197509Y46009D01*
X196803Y46551D01*
X196100Y46842D01*
Y43600D01*
X195100D01*
Y42600D01*
X191858D01*
X192149Y41896D01*
X192530Y41400D01*
X192284Y40900D01*
X148500D01*
X148500Y197500D01*
X231800D01*
X231800Y146900D01*
D02*
G37*
G36*
X274200Y171300D02*
X282200Y163300D01*
X289109D01*
X289139Y163293D01*
X291100Y163138D01*
X293061Y163293D01*
X293091Y163300D01*
X293800D01*
X323200Y133900D01*
X331200D01*
Y133900D01*
X335200Y133900D01*
X335200Y129500D01*
X337900Y126800D01*
X347400D01*
X347400Y129400D01*
X336700D01*
Y134000D01*
X346107D01*
X346332Y133907D01*
X347000Y133819D01*
X347668Y133907D01*
X347893Y134000D01*
X349807D01*
X350032Y133907D01*
X350700Y133819D01*
X351368Y133907D01*
X351593Y134000D01*
X364800D01*
Y129400D01*
X353800D01*
Y123700D01*
X352900Y122800D01*
X338000D01*
Y116400D01*
X312200D01*
Y133900D01*
X304300Y141800D01*
X285100D01*
X283252Y143649D01*
X283493Y144232D01*
X283581Y144900D01*
X283493Y145568D01*
X283235Y146191D01*
X282825Y146725D01*
X282291Y147135D01*
X281668Y147393D01*
X281000Y147481D01*
X280332Y147393D01*
X279749Y147152D01*
X269400Y157500D01*
X253900D01*
Y169800D01*
Y171300D01*
X274200Y171300D01*
D02*
G37*
G36*
X217400Y102300D02*
X223800D01*
X227326Y98774D01*
X227344Y98635D01*
X227640Y97922D01*
X228110Y97309D01*
X228722Y96840D01*
X229300Y96600D01*
Y86900D01*
X229200Y86800D01*
X222400D01*
X219300Y89900D01*
X187500D01*
X179300Y98100D01*
Y110300D01*
X209400D01*
X217400Y102300D01*
D02*
G37*
G36*
X295300Y84500D02*
X306747D01*
X306849Y84348D01*
X307239Y84087D01*
X307700Y83996D01*
X332196D01*
D01*
X332196D01*
X332657Y84087D01*
X332918Y84262D01*
X333047Y84348D01*
Y84348D01*
X333047D01*
X333134Y84478D01*
X333149Y84500D01*
X333400D01*
X333400Y88300D01*
X341900D01*
Y88600D01*
X333400D01*
X333400Y94400D01*
X344319D01*
X344407Y93732D01*
X344665Y93109D01*
X345075Y92575D01*
X345609Y92165D01*
X346232Y91907D01*
X346900Y91819D01*
X347568Y91907D01*
X348191Y92165D01*
X348360Y92295D01*
X348750Y92558D01*
X349140Y92295D01*
X349309Y92165D01*
X349932Y91907D01*
X350600Y91819D01*
X351268Y91907D01*
X351891Y92165D01*
X352425Y92575D01*
X352835Y93109D01*
X353093Y93732D01*
X353181Y94400D01*
X367200D01*
X367200Y88600D01*
X356000D01*
Y88300D01*
X367200D01*
X367200Y82500D01*
X367100D01*
X367100Y78502D01*
X367032Y78493D01*
X366409Y78235D01*
X366233Y78100D01*
X263200D01*
Y94500D01*
X285300D01*
X295300Y84500D01*
D02*
G37*
%LPC*%
G36*
X381660Y177314D02*
X380410Y177190D01*
X379160Y177314D01*
X377910Y177190D01*
X376660Y177314D01*
X375214Y177171D01*
X373823Y176749D01*
X372541Y176064D01*
X371418Y175142D01*
X370496Y174019D01*
X369811Y172737D01*
X369389Y171346D01*
X369246Y169900D01*
X369374Y168600D01*
X369246Y167300D01*
X369374Y166000D01*
X369246Y164700D01*
X369374Y163400D01*
X369246Y162100D01*
X369374Y160800D01*
X369246Y159500D01*
X369389Y158054D01*
X369811Y156663D01*
X370496Y155381D01*
X371418Y154258D01*
X372541Y153336D01*
X373823Y152651D01*
X375214Y152229D01*
X376660Y152086D01*
X377910Y152209D01*
X379160Y152086D01*
X380410Y152209D01*
X381660Y152086D01*
X383106Y152229D01*
X384497Y152651D01*
X385779Y153336D01*
X386902Y154258D01*
X387824Y155381D01*
X388509Y156663D01*
X388931Y158054D01*
X389074Y159500D01*
X388946Y160800D01*
X389074Y162100D01*
X388946Y163400D01*
X389074Y164700D01*
X388946Y166000D01*
X389074Y167300D01*
X388946Y168600D01*
X389074Y169900D01*
X388931Y171346D01*
X388509Y172737D01*
X387824Y174019D01*
X386902Y175142D01*
X385779Y176064D01*
X384497Y176749D01*
X383106Y177171D01*
X381660Y177314D01*
D02*
G37*
G36*
X359640D02*
X358290Y177181D01*
X356940Y177314D01*
X355494Y177171D01*
X354103Y176749D01*
X352821Y176064D01*
X351698Y175142D01*
X350776Y174019D01*
X350091Y172737D01*
X349669Y171346D01*
X349526Y169900D01*
X349654Y168600D01*
X349526Y167300D01*
X349654Y166000D01*
X349526Y164700D01*
X349654Y163400D01*
X349526Y162100D01*
X349669Y160654D01*
X350091Y159263D01*
X350776Y157981D01*
X350976Y157737D01*
X351345Y156520D01*
X352065Y155174D01*
X353033Y153993D01*
X354214Y153025D01*
X355560Y152305D01*
X357021Y151862D01*
X358540Y151713D01*
X360059Y151862D01*
X361520Y152305D01*
X362866Y153025D01*
X364047Y153993D01*
X365015Y155174D01*
X365735Y156520D01*
X366178Y157981D01*
X366286Y159083D01*
X366489Y159463D01*
X366911Y160854D01*
X367054Y162300D01*
X366935Y163500D01*
X367054Y164700D01*
X366926Y166000D01*
X367054Y167300D01*
X366926Y168600D01*
X367054Y169900D01*
X366911Y171346D01*
X366489Y172737D01*
X365804Y174019D01*
X364882Y175142D01*
X363759Y176064D01*
X362477Y176749D01*
X361086Y177171D01*
X359640Y177314D01*
D02*
G37*
G36*
X340320D02*
X338970Y177181D01*
X337620Y177314D01*
X336174Y177171D01*
X334783Y176749D01*
X333501Y176064D01*
X332378Y175142D01*
X331456Y174019D01*
X330771Y172737D01*
X330349Y171346D01*
X330206Y169900D01*
X330334Y168600D01*
X330206Y167300D01*
X330334Y166000D01*
X330206Y164700D01*
X330325Y163500D01*
X330206Y162300D01*
X330349Y160854D01*
X330771Y159463D01*
X331096Y158854D01*
X331182Y157981D01*
X331625Y156520D01*
X332345Y155174D01*
X333313Y153993D01*
X334493Y153025D01*
X335840Y152305D01*
X337301Y151862D01*
X338820Y151713D01*
X340339Y151862D01*
X341800Y152305D01*
X343146Y153025D01*
X344327Y153993D01*
X345295Y155174D01*
X346015Y156520D01*
X346443Y157931D01*
X346484Y157981D01*
X347169Y159263D01*
X347591Y160654D01*
X347734Y162100D01*
X347606Y163400D01*
X347734Y164700D01*
X347606Y166000D01*
X347734Y167300D01*
X347606Y168600D01*
X347734Y169900D01*
X347591Y171346D01*
X347169Y172737D01*
X346484Y174019D01*
X345562Y175142D01*
X344439Y176064D01*
X343157Y176749D01*
X341766Y177171D01*
X340320Y177314D01*
D02*
G37*
G36*
X405273Y188208D02*
X403312Y188054D01*
X401400Y187594D01*
X399583Y186842D01*
X397905Y185814D01*
X396410Y184537D01*
X395132Y183041D01*
X394105Y181364D01*
X393352Y179547D01*
X392893Y177634D01*
X392739Y175673D01*
X392893Y173712D01*
X393352Y171800D01*
X394105Y169983D01*
X395132Y168306D01*
X396410Y166810D01*
X397905Y165532D01*
X399583Y164505D01*
X401400Y163752D01*
X403312Y163293D01*
X405273Y163138D01*
X407234Y163293D01*
X409147Y163752D01*
X410964Y164505D01*
X412641Y165532D01*
X414137Y166810D01*
X415414Y168306D01*
X416442Y169983D01*
X417194Y171800D01*
X417654Y173712D01*
X417808Y175673D01*
X417654Y177634D01*
X417194Y179547D01*
X416442Y181364D01*
X415414Y183041D01*
X414137Y184537D01*
X412641Y185814D01*
X410964Y186842D01*
X409147Y187594D01*
X407234Y188054D01*
X405273Y188208D01*
D02*
G37*
G36*
X419400Y155214D02*
X418150Y155090D01*
X416900Y155214D01*
X415650Y155090D01*
X414400Y155214D01*
X413150Y155090D01*
X411900Y155214D01*
X410650Y155090D01*
X409400Y155214D01*
X408150Y155090D01*
X406900Y155214D01*
X405650Y155090D01*
X404400Y155214D01*
X403150Y155090D01*
X401900Y155214D01*
X400650Y155090D01*
X399400Y155214D01*
X398150Y155090D01*
X396900Y155214D01*
X395454Y155071D01*
X394063Y154649D01*
X392781Y153964D01*
X391658Y153042D01*
X390736Y151919D01*
X390051Y150637D01*
X389629Y149246D01*
X389486Y147800D01*
X389610Y146550D01*
X389486Y145300D01*
X389610Y144050D01*
X389486Y142800D01*
X389629Y141354D01*
X390051Y139963D01*
X390736Y138681D01*
X391658Y137558D01*
X392781Y136636D01*
X394063Y135951D01*
X395454Y135529D01*
X396900Y135386D01*
X398150Y135510D01*
X399400Y135386D01*
X400650Y135510D01*
X401900Y135386D01*
X403150Y135510D01*
X404400Y135386D01*
X405650Y135510D01*
X406900Y135386D01*
X408150Y135510D01*
X409400Y135386D01*
X410650Y135510D01*
X411900Y135386D01*
X413150Y135510D01*
X414400Y135386D01*
X415650Y135510D01*
X416900Y135386D01*
X418150Y135510D01*
X419400Y135386D01*
X420846Y135529D01*
X422237Y135951D01*
X423519Y136636D01*
X424642Y137558D01*
X425564Y138681D01*
X426249Y139963D01*
X426671Y141354D01*
X426814Y142800D01*
X426690Y144050D01*
X426814Y145300D01*
X426690Y146550D01*
X426814Y147800D01*
X426671Y149246D01*
X426249Y150637D01*
X425564Y151919D01*
X424642Y153042D01*
X423519Y153964D01*
X422237Y154649D01*
X420846Y155071D01*
X419400Y155214D01*
D02*
G37*
G36*
X366403Y107429D02*
X365597D01*
X365136Y107337D01*
X364392Y107029D01*
X364001Y106768D01*
X363432Y106199D01*
X363171Y105808D01*
X362863Y105064D01*
X362771Y104603D01*
Y103797D01*
X362863Y103336D01*
X363171Y102592D01*
X363432Y102201D01*
X364001Y101632D01*
X364392Y101371D01*
X365136Y101063D01*
X365597Y100971D01*
X366403D01*
X366864Y101063D01*
X367608Y101371D01*
X367999Y101632D01*
X368568Y102201D01*
X368829Y102592D01*
X369137Y103336D01*
X369229Y103797D01*
Y104603D01*
X369137Y105064D01*
X368829Y105808D01*
X368568Y106199D01*
X367999Y106768D01*
X367608Y107029D01*
X366864Y107337D01*
X366403Y107429D01*
D02*
G37*
G36*
X331903D02*
X331097D01*
X330636Y107337D01*
X329892Y107029D01*
X329502Y106768D01*
X328932Y106199D01*
X328671Y105808D01*
X328363Y105064D01*
X328271Y104603D01*
Y103797D01*
X328363Y103336D01*
X328671Y102592D01*
X328932Y102201D01*
X329502Y101632D01*
X329892Y101371D01*
X330636Y101063D01*
X331097Y100971D01*
X331903D01*
X332364Y101063D01*
X333108Y101371D01*
X333499Y101632D01*
X334068Y102201D01*
X334329Y102592D01*
X334637Y103336D01*
X334729Y103797D01*
Y104603D01*
X334637Y105064D01*
X334329Y105808D01*
X334068Y106199D01*
X333499Y106768D01*
X333108Y107029D01*
X332364Y107337D01*
X331903Y107429D01*
D02*
G37*
G36*
X195850Y195767D02*
X195686Y195751D01*
X194567Y195412D01*
X193536Y194860D01*
X192632Y194118D01*
X191890Y193214D01*
X191339Y192183D01*
X190999Y191064D01*
X190983Y190900D01*
X195850D01*
Y195767D01*
D02*
G37*
G36*
X197850D02*
Y189900D01*
Y184033D01*
X198014Y184049D01*
X199133Y184388D01*
X200165Y184940D01*
X201069Y185682D01*
X201811Y186586D01*
X202017Y186972D01*
X202610Y187020D01*
X203200Y186251D01*
X204269Y185431D01*
X205514Y184915D01*
X206850Y184739D01*
X208187Y184915D01*
X209432Y185431D01*
X210501Y186251D01*
X211321Y187320D01*
X211837Y188566D01*
X212013Y189902D01*
X211837Y191238D01*
X211321Y192483D01*
X210501Y193552D01*
X209432Y194372D01*
X208187Y194888D01*
X206850Y195064D01*
X205514Y194888D01*
X204269Y194372D01*
X203200Y193552D01*
X202609Y192781D01*
X202016Y192830D01*
X201811Y193214D01*
X201069Y194118D01*
X200165Y194860D01*
X199133Y195412D01*
X198014Y195751D01*
X197850Y195767D01*
D02*
G37*
G36*
X195850Y188900D02*
X190983D01*
X190999Y188736D01*
X191339Y187617D01*
X191890Y186586D01*
X192632Y185682D01*
X193536Y184940D01*
X194567Y184388D01*
X195686Y184049D01*
X195850Y184033D01*
Y188900D01*
D02*
G37*
G36*
X180200Y186781D02*
X179532Y186693D01*
X178909Y186435D01*
X178375Y186025D01*
X177965Y185491D01*
X177707Y184868D01*
X177619Y184200D01*
X177707Y183532D01*
X177965Y182909D01*
X178375Y182375D01*
X178909Y181965D01*
X179532Y181707D01*
X180200Y181619D01*
X180868Y181707D01*
X181491Y181965D01*
X182025Y182375D01*
X182435Y182909D01*
X182693Y183532D01*
X182781Y184200D01*
X182693Y184868D01*
X182435Y185491D01*
X182025Y186025D01*
X181491Y186435D01*
X180868Y186693D01*
X180200Y186781D01*
D02*
G37*
G36*
X186300Y155781D02*
X185632Y155693D01*
X185009Y155435D01*
X184475Y155025D01*
X184065Y154491D01*
X183807Y153868D01*
X183719Y153200D01*
X183807Y152532D01*
X184065Y151909D01*
X184475Y151375D01*
X185009Y150965D01*
X185632Y150707D01*
X186300Y150619D01*
X186968Y150707D01*
X187591Y150965D01*
X188125Y151375D01*
X188535Y151909D01*
X188793Y152532D01*
X188881Y153200D01*
X188793Y153868D01*
X188535Y154491D01*
X188125Y155025D01*
X187591Y155435D01*
X186968Y155693D01*
X186300Y155781D01*
D02*
G37*
G36*
X173100Y155481D02*
X172432Y155393D01*
X171809Y155135D01*
X171275Y154725D01*
X170865Y154191D01*
X170607Y153568D01*
X170519Y152900D01*
X170607Y152232D01*
X170865Y151609D01*
X171275Y151075D01*
X171809Y150665D01*
X172432Y150407D01*
X173100Y150319D01*
X173768Y150407D01*
X174391Y150665D01*
X174925Y151075D01*
X175335Y151609D01*
X175593Y152232D01*
X175681Y152900D01*
X175593Y153568D01*
X175335Y154191D01*
X174925Y154725D01*
X174391Y155135D01*
X173768Y155393D01*
X173100Y155481D01*
D02*
G37*
G36*
X209100Y148081D02*
X208432Y147993D01*
X207809Y147735D01*
X207275Y147325D01*
X206865Y146791D01*
X206607Y146168D01*
X206519Y145500D01*
X206607Y144832D01*
X206865Y144209D01*
X207275Y143675D01*
X207809Y143265D01*
X208432Y143007D01*
X209100Y142919D01*
X209768Y143007D01*
X210391Y143265D01*
X210925Y143675D01*
X211335Y144209D01*
X211593Y144832D01*
X211681Y145500D01*
X211593Y146168D01*
X211335Y146791D01*
X210925Y147325D01*
X210391Y147735D01*
X209768Y147993D01*
X209100Y148081D01*
D02*
G37*
G36*
X170800Y142442D02*
X170097Y142151D01*
X169391Y141609D01*
X168849Y140903D01*
X168558Y140200D01*
X170800D01*
Y142442D01*
D02*
G37*
G36*
X159000Y145481D02*
X158332Y145393D01*
X157709Y145135D01*
X157175Y144725D01*
X156765Y144191D01*
X156507Y143568D01*
X156419Y142900D01*
X156507Y142232D01*
X156765Y141609D01*
X157175Y141075D01*
X157530Y140802D01*
X157566Y140710D01*
Y140290D01*
X157530Y140198D01*
X157175Y139925D01*
X156765Y139391D01*
X156507Y138768D01*
X156419Y138100D01*
X156507Y137432D01*
X156765Y136809D01*
X157175Y136275D01*
X157709Y135865D01*
X158332Y135607D01*
X159000Y135519D01*
X159668Y135607D01*
X160291Y135865D01*
X160825Y136275D01*
X161235Y136809D01*
X161493Y137432D01*
X161581Y138100D01*
X161493Y138768D01*
X161235Y139391D01*
X160825Y139925D01*
X160470Y140198D01*
X160434Y140290D01*
Y140710D01*
X160470Y140802D01*
X160825Y141075D01*
X161235Y141609D01*
X161493Y142232D01*
X161581Y142900D01*
X161493Y143568D01*
X161235Y144191D01*
X160825Y144725D01*
X160291Y145135D01*
X159668Y145393D01*
X159000Y145481D01*
D02*
G37*
G36*
X170800Y135200D02*
X168558D01*
X168849Y134496D01*
X169391Y133791D01*
X170097Y133249D01*
X170800Y132958D01*
Y135200D01*
D02*
G37*
G36*
X242200Y135042D02*
Y132800D01*
X244442D01*
X244151Y133503D01*
X243609Y134209D01*
X242903Y134751D01*
X242200Y135042D01*
D02*
G37*
G36*
X240200D02*
X239496Y134751D01*
X238791Y134209D01*
X238249Y133503D01*
X237958Y132800D01*
X240200D01*
Y135042D01*
D02*
G37*
G36*
X219400Y143881D02*
X218732Y143793D01*
X218109Y143535D01*
X217575Y143125D01*
X217165Y142591D01*
X216907Y141968D01*
X216819Y141300D01*
X216907Y140632D01*
X217165Y140009D01*
X217325Y139800D01*
X217165Y139591D01*
X216907Y138968D01*
X216819Y138300D01*
X216907Y137632D01*
X217165Y137009D01*
X217325Y136800D01*
X217165Y136591D01*
X216907Y135968D01*
X216819Y135300D01*
X216907Y134632D01*
X217165Y134009D01*
X217575Y133475D01*
X218109Y133065D01*
X218732Y132807D01*
X219400Y132719D01*
X220068Y132807D01*
X220691Y133065D01*
X221225Y133475D01*
X221635Y134009D01*
X221893Y134632D01*
X221981Y135300D01*
X221893Y135968D01*
X221635Y136591D01*
X221475Y136800D01*
X221635Y137009D01*
X221893Y137632D01*
X221981Y138300D01*
X221893Y138968D01*
X221635Y139591D01*
X221475Y139800D01*
X221635Y140009D01*
X221893Y140632D01*
X221981Y141300D01*
X221893Y141968D01*
X221635Y142591D01*
X221225Y143125D01*
X220691Y143535D01*
X220068Y143793D01*
X219400Y143881D01*
D02*
G37*
G36*
X289242Y127900D02*
X282758D01*
X282841Y127700D01*
X282758Y127500D01*
X289242D01*
X289159Y127700D01*
X289242Y127900D01*
D02*
G37*
G36*
X244442Y130800D02*
X237958D01*
X238249Y130096D01*
X238791Y129391D01*
X239376Y128942D01*
X239420Y128763D01*
Y128536D01*
X239376Y128358D01*
X238791Y127909D01*
X238249Y127204D01*
X237958Y126500D01*
X244442D01*
X244151Y127204D01*
X243609Y127909D01*
X243024Y128358D01*
X242980Y128536D01*
Y128763D01*
X243024Y128942D01*
X243609Y129391D01*
X244151Y130096D01*
X244442Y130800D01*
D02*
G37*
G36*
X257600Y130481D02*
X256932Y130393D01*
X256309Y130135D01*
X255775Y129725D01*
X255365Y129191D01*
X255107Y128568D01*
X255019Y127900D01*
X255107Y127232D01*
X255365Y126609D01*
X255775Y126075D01*
X256309Y125665D01*
X256932Y125407D01*
X257600Y125319D01*
X258268Y125407D01*
X258891Y125665D01*
X259425Y126075D01*
X259835Y126609D01*
X260093Y127232D01*
X260181Y127900D01*
X260093Y128568D01*
X259835Y129191D01*
X259425Y129725D01*
X258891Y130135D01*
X258268Y130393D01*
X257600Y130481D01*
D02*
G37*
G36*
X289242Y125500D02*
X287000D01*
Y123258D01*
X287703Y123549D01*
X288409Y124091D01*
X288951Y124796D01*
X289242Y125500D01*
D02*
G37*
G36*
X285000D02*
X282758D01*
X283049Y124796D01*
X283591Y124091D01*
X284296Y123549D01*
X285000Y123258D01*
Y125500D01*
D02*
G37*
G36*
X244442Y124500D02*
X242200D01*
Y122258D01*
X242903Y122549D01*
X243609Y123091D01*
X244151Y123796D01*
X244442Y124500D01*
D02*
G37*
G36*
X240200D02*
X237958D01*
X238249Y123796D01*
X238791Y123091D01*
X239496Y122549D01*
X240200Y122258D01*
Y124500D01*
D02*
G37*
G36*
X212000Y67542D02*
Y65300D01*
X214242D01*
X213951Y66004D01*
X213409Y66709D01*
X212703Y67251D01*
X212000Y67542D01*
D02*
G37*
G36*
X210000D02*
X209296Y67251D01*
X208591Y66709D01*
X208049Y66004D01*
X207709Y65182D01*
X207688Y65022D01*
X207175Y64954D01*
X207035Y65291D01*
X206625Y65825D01*
X206091Y66235D01*
X205468Y66493D01*
X204800Y66581D01*
X204132Y66493D01*
X203509Y66235D01*
X202975Y65825D01*
X202565Y65291D01*
X202307Y64668D01*
X202219Y64000D01*
X202307Y63332D01*
X202565Y62709D01*
X202975Y62175D01*
X203509Y61765D01*
X204132Y61507D01*
X204800Y61419D01*
X205468Y61507D01*
X206091Y61765D01*
X206625Y62175D01*
X207035Y62709D01*
X207248Y63224D01*
X207595Y63281D01*
X207779Y63249D01*
X208049Y62596D01*
X208591Y61891D01*
X209296Y61349D01*
X210000Y61058D01*
Y64300D01*
Y67542D01*
D02*
G37*
G36*
X174300Y70368D02*
X173170Y70219D01*
X172116Y69783D01*
X171211Y69089D01*
X170517Y68184D01*
X170081Y67131D01*
X169932Y66000D01*
X170081Y64869D01*
X170517Y63816D01*
X171211Y62911D01*
X172116Y62217D01*
X173170Y61781D01*
X174300Y61632D01*
X175431Y61781D01*
X176484Y62217D01*
X177389Y62911D01*
X178083Y63816D01*
X178519Y64869D01*
X178668Y66000D01*
X178519Y67131D01*
X178083Y68184D01*
X177389Y69089D01*
X176484Y69783D01*
X175431Y70219D01*
X174300Y70368D01*
D02*
G37*
G36*
X164300D02*
X163170Y70219D01*
X162116Y69783D01*
X161211Y69089D01*
X160517Y68184D01*
X160081Y67131D01*
X159932Y66000D01*
X160081Y64869D01*
X160517Y63816D01*
X161211Y62911D01*
X162116Y62217D01*
X163170Y61781D01*
X164300Y61632D01*
X165430Y61781D01*
X166484Y62217D01*
X167389Y62911D01*
X168083Y63816D01*
X168519Y64869D01*
X168668Y66000D01*
X168519Y67131D01*
X168083Y68184D01*
X167389Y69089D01*
X166484Y69783D01*
X165430Y70219D01*
X164300Y70368D01*
D02*
G37*
G36*
X154300D02*
X153170Y70219D01*
X152116Y69783D01*
X151211Y69089D01*
X150517Y68184D01*
X150081Y67131D01*
X149932Y66000D01*
X150081Y64869D01*
X150517Y63816D01*
X151211Y62911D01*
X152116Y62217D01*
X153170Y61781D01*
X154300Y61632D01*
X155430Y61781D01*
X156484Y62217D01*
X157389Y62911D01*
X158083Y63816D01*
X158519Y64869D01*
X158668Y66000D01*
X158519Y67131D01*
X158083Y68184D01*
X157389Y69089D01*
X156484Y69783D01*
X155430Y70219D01*
X154300Y70368D01*
D02*
G37*
G36*
X214242Y63300D02*
X212000D01*
Y61058D01*
X212703Y61349D01*
X213409Y61891D01*
X213951Y62596D01*
X214242Y63300D01*
D02*
G37*
G36*
X184300Y70368D02*
X183169Y70219D01*
X182116Y69783D01*
X181211Y69089D01*
X180517Y68184D01*
X180081Y67131D01*
X179932Y66000D01*
X180081Y64869D01*
X180517Y63816D01*
X181211Y62911D01*
X182116Y62217D01*
X183169Y61781D01*
X183956Y61677D01*
X184166Y61650D01*
X184133Y61150D01*
X179150D01*
Y56167D01*
X178650Y56134D01*
X178623Y56344D01*
X178519Y57130D01*
X178083Y58184D01*
X177389Y59089D01*
X176484Y59783D01*
X175431Y60219D01*
X174300Y60368D01*
X173170Y60219D01*
X172116Y59783D01*
X171211Y59089D01*
X170517Y58184D01*
X170081Y57130D01*
X169932Y56000D01*
X170081Y54870D01*
X170517Y53816D01*
X171211Y52911D01*
X172116Y52217D01*
X173170Y51781D01*
X174300Y51632D01*
X175431Y51781D01*
X176484Y52217D01*
X177389Y52911D01*
X178083Y53816D01*
X178519Y54870D01*
X178623Y55656D01*
X178650Y55866D01*
X179150Y55833D01*
Y50850D01*
X183300D01*
Y56000D01*
X184300D01*
Y57000D01*
X189450D01*
Y61150D01*
X184467D01*
X184434Y61650D01*
X184644Y61677D01*
X185431Y61781D01*
X186484Y62217D01*
X187389Y62911D01*
X188083Y63816D01*
X188519Y64869D01*
X188668Y66000D01*
X188519Y67131D01*
X188083Y68184D01*
X187389Y69089D01*
X186484Y69783D01*
X185431Y70219D01*
X184300Y70368D01*
D02*
G37*
G36*
X207700Y61281D02*
X207032Y61193D01*
X206409Y60935D01*
X205875Y60525D01*
X205465Y59991D01*
X205207Y59368D01*
X205119Y58700D01*
X205207Y58032D01*
X205465Y57409D01*
X205875Y56875D01*
X206409Y56465D01*
X207032Y56207D01*
X207700Y56119D01*
X208368Y56207D01*
X208991Y56465D01*
X209525Y56875D01*
X209935Y57409D01*
X210193Y58032D01*
X210281Y58700D01*
X210193Y59368D01*
X209935Y59991D01*
X209525Y60525D01*
X208991Y60935D01*
X208368Y61193D01*
X207700Y61281D01*
D02*
G37*
G36*
X201500D02*
X200832Y61193D01*
X200209Y60935D01*
X199675Y60525D01*
X199265Y59991D01*
X199007Y59368D01*
X198919Y58700D01*
X199007Y58032D01*
X199265Y57409D01*
X199675Y56875D01*
X200209Y56465D01*
X200832Y56207D01*
X201500Y56119D01*
X202168Y56207D01*
X202791Y56465D01*
X203325Y56875D01*
X203735Y57409D01*
X203993Y58032D01*
X204081Y58700D01*
X203993Y59368D01*
X203735Y59991D01*
X203325Y60525D01*
X202791Y60935D01*
X202168Y61193D01*
X201500Y61281D01*
D02*
G37*
G36*
X194900D02*
X194232Y61193D01*
X193609Y60935D01*
X193075Y60525D01*
X192665Y59991D01*
X192407Y59368D01*
X192319Y58700D01*
X192407Y58032D01*
X192665Y57409D01*
X193075Y56875D01*
X193609Y56465D01*
X194232Y56207D01*
X194900Y56119D01*
X195568Y56207D01*
X196191Y56465D01*
X196725Y56875D01*
X197135Y57409D01*
X197393Y58032D01*
X197481Y58700D01*
X197393Y59368D01*
X197135Y59991D01*
X196725Y60525D01*
X196191Y60935D01*
X195568Y61193D01*
X194900Y61281D01*
D02*
G37*
G36*
X219400Y65881D02*
X218732Y65793D01*
X218109Y65535D01*
X217575Y65125D01*
X217165Y64591D01*
X216907Y63968D01*
X216819Y63300D01*
X216907Y62632D01*
X217165Y62009D01*
X217325Y61800D01*
X217165Y61591D01*
X216907Y60968D01*
X216819Y60300D01*
X216907Y59632D01*
X217165Y59009D01*
X217325Y58800D01*
X217165Y58591D01*
X216907Y57968D01*
X216819Y57300D01*
X216907Y56632D01*
X217165Y56009D01*
X217575Y55475D01*
X218109Y55065D01*
X218732Y54807D01*
X219400Y54719D01*
X220068Y54807D01*
X220691Y55065D01*
X221225Y55475D01*
X221635Y56009D01*
X221893Y56632D01*
X221981Y57300D01*
X221893Y57968D01*
X221635Y58591D01*
X221475Y58800D01*
X221635Y59009D01*
X221893Y59632D01*
X221981Y60300D01*
X221893Y60968D01*
X221635Y61591D01*
X221475Y61800D01*
X221635Y62009D01*
X221893Y62632D01*
X221981Y63300D01*
X221893Y63968D01*
X221635Y64591D01*
X221225Y65125D01*
X220691Y65535D01*
X220068Y65793D01*
X219400Y65881D01*
D02*
G37*
G36*
X242200Y56742D02*
Y54500D01*
X244442D01*
X244151Y55203D01*
X243609Y55909D01*
X242903Y56451D01*
X242200Y56742D01*
D02*
G37*
G36*
X240200D02*
X239496Y56451D01*
X238791Y55909D01*
X238249Y55203D01*
X237958Y54500D01*
X240200D01*
Y56742D01*
D02*
G37*
G36*
X164300Y60368D02*
X163170Y60219D01*
X162116Y59783D01*
X161211Y59089D01*
X160517Y58184D01*
X160081Y57130D01*
X159932Y56000D01*
X160081Y54870D01*
X160517Y53816D01*
X161211Y52911D01*
X162116Y52217D01*
X163170Y51781D01*
X164300Y51632D01*
X165430Y51781D01*
X166484Y52217D01*
X167389Y52911D01*
X168083Y53816D01*
X168519Y54870D01*
X168668Y56000D01*
X168519Y57130D01*
X168083Y58184D01*
X167389Y59089D01*
X166484Y59783D01*
X165430Y60219D01*
X164300Y60368D01*
D02*
G37*
G36*
X154300D02*
X153170Y60219D01*
X152116Y59783D01*
X151211Y59089D01*
X150517Y58184D01*
X150081Y57130D01*
X149932Y56000D01*
X150081Y54870D01*
X150517Y53816D01*
X151211Y52911D01*
X152116Y52217D01*
X153170Y51781D01*
X154300Y51632D01*
X155430Y51781D01*
X156484Y52217D01*
X157389Y52911D01*
X158083Y53816D01*
X158519Y54870D01*
X158668Y56000D01*
X158519Y57130D01*
X158083Y58184D01*
X157389Y59089D01*
X156484Y59783D01*
X155430Y60219D01*
X154300Y60368D01*
D02*
G37*
G36*
X244442Y52500D02*
X237958D01*
X238165Y52000D01*
X237958Y51500D01*
X244442D01*
X244235Y52000D01*
X244442Y52500D01*
D02*
G37*
G36*
X189450Y55000D02*
X185300D01*
Y50850D01*
X189450D01*
Y55000D01*
D02*
G37*
G36*
X342300Y51142D02*
Y48900D01*
X344542D01*
X344251Y49604D01*
X343709Y50309D01*
X343004Y50851D01*
X342300Y51142D01*
D02*
G37*
G36*
X340300D02*
X339597Y50851D01*
X338891Y50309D01*
X338349Y49604D01*
X338058Y48900D01*
X340300D01*
Y51142D01*
D02*
G37*
G36*
X244442Y49500D02*
X237958D01*
X238165Y49000D01*
X237958Y48500D01*
X244442D01*
X244235Y49000D01*
X244442Y49500D01*
D02*
G37*
G36*
X344542Y46900D02*
X338058D01*
X338141Y46700D01*
X338058Y46500D01*
X344542D01*
X344459Y46700D01*
X344542Y46900D01*
D02*
G37*
G36*
X208900Y46842D02*
Y44600D01*
X211142D01*
X210851Y45304D01*
X210309Y46009D01*
X209604Y46551D01*
X208900Y46842D01*
D02*
G37*
G36*
X194100D02*
X193396Y46551D01*
X192691Y46009D01*
X192149Y45304D01*
X191858Y44600D01*
X194100D01*
Y46842D01*
D02*
G37*
G36*
X244442Y46500D02*
X242200D01*
Y44258D01*
X242903Y44549D01*
X243609Y45091D01*
X244151Y45796D01*
X244442Y46500D01*
D02*
G37*
G36*
X240200D02*
X237958D01*
X238249Y45796D01*
X238791Y45091D01*
X239496Y44549D01*
X240200Y44258D01*
Y46500D01*
D02*
G37*
G36*
X329300Y49281D02*
X328632Y49193D01*
X328009Y48935D01*
X327475Y48525D01*
X327065Y47991D01*
X326807Y47368D01*
X326719Y46700D01*
X326807Y46032D01*
X327065Y45409D01*
X327475Y44875D01*
X328009Y44465D01*
X328632Y44207D01*
X329300Y44119D01*
X329968Y44207D01*
X330591Y44465D01*
X331125Y44875D01*
X331535Y45409D01*
X331793Y46032D01*
X331881Y46700D01*
X331793Y47368D01*
X331535Y47991D01*
X331125Y48525D01*
X330591Y48935D01*
X329968Y49193D01*
X329300Y49281D01*
D02*
G37*
G36*
X344542Y44500D02*
X342300D01*
Y42258D01*
X343004Y42549D01*
X343709Y43091D01*
X344251Y43796D01*
X344542Y44500D01*
D02*
G37*
G36*
X340300D02*
X338058D01*
X338349Y43796D01*
X338891Y43091D01*
X339597Y42549D01*
X340300Y42258D01*
Y44500D01*
D02*
G37*
%LPD*%
D61*
X307600Y94600D02*
X308800D01*
X298500Y103700D02*
X307600Y94600D01*
X254700Y103700D02*
X298500D01*
X248700Y109700D02*
X254700Y103700D01*
D65*
X184300Y56000D02*
D03*
D66*
X196850Y189900D02*
D03*
D67*
X308800Y94600D02*
D03*
X328500Y99100D02*
D03*
X370300Y99300D02*
D03*
X371400Y141500D02*
D03*
X325500Y141700D02*
D03*
X358540Y159500D02*
D03*
X338820D02*
D03*
D68*
X415700Y86700D02*
D03*
X241200Y131800D02*
D03*
Y125500D02*
D03*
X350600Y96800D02*
D03*
X346900Y94400D02*
D03*
Y96800D02*
D03*
X350600Y94400D02*
D03*
X316600Y93100D02*
D03*
X171800Y136200D02*
D03*
Y139200D02*
D03*
X211000Y64300D02*
D03*
X309100Y88100D02*
D03*
Y90600D02*
D03*
X326600Y88100D02*
D03*
Y93100D02*
D03*
Y90600D02*
D03*
X329100Y88100D02*
D03*
Y93100D02*
D03*
Y90600D02*
D03*
X331600Y99100D02*
D03*
X334600D02*
D03*
X334800Y91200D02*
D03*
X334600Y87300D02*
D03*
X279600Y120100D02*
D03*
X277200D02*
D03*
X239600Y86300D02*
D03*
Y88700D02*
D03*
X225000Y93400D02*
D03*
Y95800D02*
D03*
X189100Y97700D02*
D03*
X185700D02*
D03*
X182300D02*
D03*
X248700Y109700D02*
D03*
X286000Y128900D02*
D03*
Y126500D02*
D03*
X341300Y47900D02*
D03*
Y45500D02*
D03*
X241200Y53500D02*
D03*
Y50500D02*
D03*
Y47500D02*
D03*
X207900Y43600D02*
D03*
X201700D02*
D03*
X195100D02*
D03*
X429600Y185900D02*
D03*
Y183400D02*
D03*
Y180900D02*
D03*
X432100Y185900D02*
D03*
Y183400D02*
D03*
Y180900D02*
D03*
X434600Y185900D02*
D03*
Y183400D02*
D03*
Y180900D02*
D03*
X444600D02*
D03*
Y183400D02*
D03*
Y185900D02*
D03*
X442100Y180900D02*
D03*
Y183400D02*
D03*
Y185900D02*
D03*
X439600Y180900D02*
D03*
Y183400D02*
D03*
Y185900D02*
D03*
X437100Y180900D02*
D03*
Y183400D02*
D03*
Y185900D02*
D03*
X447100D02*
D03*
Y183400D02*
D03*
Y180900D02*
D03*
X449600Y185900D02*
D03*
Y183400D02*
D03*
Y180900D02*
D03*
X429600Y193300D02*
D03*
Y190800D02*
D03*
Y188300D02*
D03*
X432100Y193300D02*
D03*
Y190800D02*
D03*
Y188300D02*
D03*
X434600Y193300D02*
D03*
Y190800D02*
D03*
Y188300D02*
D03*
X444600D02*
D03*
Y190800D02*
D03*
Y193300D02*
D03*
X442100Y188300D02*
D03*
Y190800D02*
D03*
Y193300D02*
D03*
X439600Y188300D02*
D03*
Y190800D02*
D03*
Y193300D02*
D03*
X437100Y188300D02*
D03*
Y190800D02*
D03*
Y193300D02*
D03*
X447100D02*
D03*
Y190800D02*
D03*
Y188300D02*
D03*
X449600Y193300D02*
D03*
Y190800D02*
D03*
Y188300D02*
D03*
X266000Y87300D02*
D03*
Y84650D02*
D03*
Y82000D02*
D03*
X362300Y87200D02*
D03*
X364000Y91300D02*
D03*
X364200Y99300D02*
D03*
X367200D02*
D03*
X264800Y161100D02*
D03*
Y163750D02*
D03*
Y166400D02*
D03*
X335600Y118700D02*
D03*
X362500Y132000D02*
D03*
X358700Y131900D02*
D03*
X338100Y132300D02*
D03*
X333500Y132100D02*
D03*
X368300Y141500D02*
D03*
X328600Y141700D02*
D03*
X396900Y147800D02*
D03*
Y145300D02*
D03*
Y142800D02*
D03*
X399400Y147800D02*
D03*
Y145300D02*
D03*
Y142800D02*
D03*
X401900Y147800D02*
D03*
Y145300D02*
D03*
Y142800D02*
D03*
X404400Y147800D02*
D03*
Y145300D02*
D03*
Y142800D02*
D03*
X414400D02*
D03*
Y145300D02*
D03*
Y147800D02*
D03*
X411900Y142800D02*
D03*
Y145300D02*
D03*
Y147800D02*
D03*
X409400Y142800D02*
D03*
Y145300D02*
D03*
Y147800D02*
D03*
X406900Y142800D02*
D03*
Y145300D02*
D03*
Y147800D02*
D03*
X416900D02*
D03*
Y145300D02*
D03*
Y142800D02*
D03*
X419400Y147800D02*
D03*
Y145300D02*
D03*
Y142800D02*
D03*
X419100Y108100D02*
D03*
Y110600D02*
D03*
Y113100D02*
D03*
X416600Y108100D02*
D03*
Y110600D02*
D03*
Y113100D02*
D03*
X406600D02*
D03*
Y110600D02*
D03*
Y108100D02*
D03*
X409100Y113100D02*
D03*
Y110600D02*
D03*
Y108100D02*
D03*
X411600Y113100D02*
D03*
Y110600D02*
D03*
Y108100D02*
D03*
X414100Y113100D02*
D03*
Y110600D02*
D03*
Y108100D02*
D03*
X404100D02*
D03*
Y110600D02*
D03*
Y113100D02*
D03*
X401600Y108100D02*
D03*
Y110600D02*
D03*
Y113100D02*
D03*
X399100Y108100D02*
D03*
Y110600D02*
D03*
Y113100D02*
D03*
X396600Y108100D02*
D03*
Y110600D02*
D03*
Y113100D02*
D03*
X394100Y108100D02*
D03*
Y110600D02*
D03*
Y113100D02*
D03*
X391600Y108100D02*
D03*
Y110600D02*
D03*
Y113100D02*
D03*
X389100Y108100D02*
D03*
Y110600D02*
D03*
Y113100D02*
D03*
X371400Y93100D02*
D03*
Y90600D02*
D03*
Y88100D02*
D03*
X373900Y90600D02*
D03*
Y88100D02*
D03*
X376400Y90600D02*
D03*
Y88100D02*
D03*
X378900Y90600D02*
D03*
Y88100D02*
D03*
X381400Y90600D02*
D03*
Y88100D02*
D03*
X391400D02*
D03*
Y90600D02*
D03*
Y93100D02*
D03*
X388900Y88100D02*
D03*
Y90600D02*
D03*
Y93100D02*
D03*
X386400Y88100D02*
D03*
Y90600D02*
D03*
Y93100D02*
D03*
X383900Y88100D02*
D03*
Y90600D02*
D03*
Y93100D02*
D03*
X311600D02*
D03*
Y90600D02*
D03*
Y88100D02*
D03*
X314100Y93100D02*
D03*
Y90600D02*
D03*
Y88100D02*
D03*
X316600Y90600D02*
D03*
Y88100D02*
D03*
X319100Y90600D02*
D03*
Y88100D02*
D03*
X324100D02*
D03*
Y90600D02*
D03*
Y93100D02*
D03*
X321600Y88100D02*
D03*
Y90600D02*
D03*
X390900Y188300D02*
D03*
Y190800D02*
D03*
Y193300D02*
D03*
X388400Y188300D02*
D03*
Y190800D02*
D03*
Y193300D02*
D03*
X378400D02*
D03*
Y190800D02*
D03*
Y188300D02*
D03*
X380900Y193300D02*
D03*
Y190800D02*
D03*
Y188300D02*
D03*
X383400Y193300D02*
D03*
Y190800D02*
D03*
Y188300D02*
D03*
X385900Y193300D02*
D03*
Y190800D02*
D03*
Y188300D02*
D03*
X375900D02*
D03*
Y190800D02*
D03*
Y193300D02*
D03*
X373400Y188300D02*
D03*
Y190800D02*
D03*
Y193300D02*
D03*
X370900Y188300D02*
D03*
Y190800D02*
D03*
Y193300D02*
D03*
X368400Y188300D02*
D03*
Y190800D02*
D03*
Y193300D02*
D03*
X365900Y188300D02*
D03*
Y190800D02*
D03*
Y193300D02*
D03*
X363400Y188300D02*
D03*
Y190800D02*
D03*
Y193300D02*
D03*
X360900Y188300D02*
D03*
Y190800D02*
D03*
Y193300D02*
D03*
X358400Y188300D02*
D03*
Y190800D02*
D03*
Y193300D02*
D03*
X355900Y188300D02*
D03*
Y190800D02*
D03*
Y193300D02*
D03*
X353400Y188300D02*
D03*
Y190800D02*
D03*
Y193300D02*
D03*
X350900Y188300D02*
D03*
Y190800D02*
D03*
Y193300D02*
D03*
X348400Y188300D02*
D03*
Y190800D02*
D03*
Y193300D02*
D03*
X345900Y188300D02*
D03*
Y190800D02*
D03*
Y193300D02*
D03*
X343400Y188300D02*
D03*
Y190800D02*
D03*
Y193300D02*
D03*
X340900Y188300D02*
D03*
Y190800D02*
D03*
Y193300D02*
D03*
X338400Y188300D02*
D03*
Y190800D02*
D03*
Y193300D02*
D03*
X335900Y188300D02*
D03*
Y190800D02*
D03*
Y193300D02*
D03*
X333400Y188300D02*
D03*
Y190800D02*
D03*
Y193300D02*
D03*
X330900Y188300D02*
D03*
Y190800D02*
D03*
Y193300D02*
D03*
X328400Y188300D02*
D03*
Y190800D02*
D03*
Y193300D02*
D03*
X325900Y188300D02*
D03*
Y190800D02*
D03*
Y193300D02*
D03*
X323400Y188300D02*
D03*
Y190800D02*
D03*
Y193300D02*
D03*
X320900Y188300D02*
D03*
Y190800D02*
D03*
Y193300D02*
D03*
X318400Y188300D02*
D03*
Y190800D02*
D03*
Y193300D02*
D03*
X315900Y188300D02*
D03*
Y190800D02*
D03*
Y193300D02*
D03*
X313400Y188300D02*
D03*
Y190800D02*
D03*
Y193300D02*
D03*
X310900Y188300D02*
D03*
Y190800D02*
D03*
Y193300D02*
D03*
X308400Y188300D02*
D03*
Y190800D02*
D03*
Y193300D02*
D03*
X305900Y188300D02*
D03*
Y190800D02*
D03*
Y193300D02*
D03*
X303400D02*
D03*
Y190800D02*
D03*
Y188300D02*
D03*
X381660Y169900D02*
D03*
X379160D02*
D03*
X376660D02*
D03*
X381660Y167300D02*
D03*
X379160D02*
D03*
X376660D02*
D03*
X359640Y169900D02*
D03*
X356940D02*
D03*
X359640Y167300D02*
D03*
X356940D02*
D03*
X340320Y169900D02*
D03*
X337620D02*
D03*
X340320Y167300D02*
D03*
X337620D02*
D03*
X315600Y169900D02*
D03*
X318100D02*
D03*
X320600D02*
D03*
X315600Y167300D02*
D03*
X318100D02*
D03*
X320600D02*
D03*
X376660Y164700D02*
D03*
Y162100D02*
D03*
Y159500D02*
D03*
X379160Y164700D02*
D03*
Y162100D02*
D03*
Y159500D02*
D03*
X381660Y164700D02*
D03*
Y162100D02*
D03*
Y159500D02*
D03*
X356940Y164700D02*
D03*
Y162100D02*
D03*
X359640Y164700D02*
D03*
Y162300D02*
D03*
X337620Y164700D02*
D03*
Y162300D02*
D03*
X340320Y164700D02*
D03*
Y162100D02*
D03*
X320600Y159500D02*
D03*
Y162100D02*
D03*
Y164700D02*
D03*
X318100Y159500D02*
D03*
Y162100D02*
D03*
Y164700D02*
D03*
X315600Y159500D02*
D03*
Y162100D02*
D03*
Y164700D02*
D03*
M02*
