G04*
G04 #@! TF.GenerationSoftware,Altium Limited,Altium Designer,18.0.7 (293)*
G04*
G04 Layer_Color=32896*
%FSLAX25Y25*%
%MOIN*%
G70*
G01*
G75*
%ADD10C,0.01000*%
%ADD11C,0.00984*%
%ADD12C,0.02362*%
%ADD13C,0.00787*%
%ADD14C,0.00394*%
%ADD15C,0.00500*%
%ADD16C,0.00315*%
%ADD17C,0.00100*%
%ADD19C,0.00591*%
%ADD86C,0.00800*%
D10*
X269446Y197327D02*
X426927D01*
Y39846D02*
Y197327D01*
X269446Y39846D02*
Y197327D01*
Y39846D02*
X426927D01*
X255052Y174267D02*
X261647D01*
X256652Y95167D02*
X263246D01*
D11*
X201364Y112200D02*
G03*
X201364Y112200I-492J0D01*
G01*
X248292Y103821D02*
G03*
X248292Y103821I-492J0D01*
G01*
X157358Y126704D02*
G03*
X157358Y126704I-492J0D01*
G01*
X234529Y96980D02*
G03*
X234529Y96980I-492J0D01*
G01*
D12*
X156118Y117846D02*
G03*
X156118Y117846I-1181J0D01*
G01*
D13*
X201758Y104917D02*
X213962D01*
X201758Y108853D02*
X213962D01*
Y104917D02*
Y108853D01*
X201758Y104917D02*
Y108853D01*
X241107Y90435D02*
Y93190D01*
Y90435D02*
X245044D01*
X241107Y99490D02*
Y102246D01*
X245044D01*
X151000Y121783D02*
X201000D01*
X151000Y94617D02*
X201000D01*
X151000D02*
X151000Y121783D01*
X201000D02*
X201000Y94617D01*
X149100Y70600D02*
X190000D01*
X149100Y40000D02*
Y70600D01*
Y40000D02*
X190000D01*
Y70600D01*
X212379Y88422D02*
Y91178D01*
X222221Y88422D02*
Y91178D01*
X227344Y83595D02*
Y86350D01*
Y83595D02*
X231281D01*
X227344Y92650D02*
Y95406D01*
X231281D01*
D14*
X253182Y180763D02*
G03*
X253182Y180763I-197J0D01*
G01*
X254782Y101663D02*
G03*
X254782Y101663I-197J0D01*
G01*
D15*
X345280Y100063D02*
Y113055D01*
X344098D02*
X345280D01*
X317721D02*
X318902D01*
X317721Y100063D02*
Y113055D01*
X197000Y88900D02*
X197000Y88300D01*
X203000Y88300D02*
Y88900D01*
X197000Y88300D02*
X203000Y88300D01*
X197000Y92900D02*
X197000Y92300D01*
X203000D02*
Y92900D01*
X197000Y92900D02*
X203000Y92900D01*
X379748Y142063D02*
Y155055D01*
X378567D02*
X379748D01*
X352189D02*
X353370D01*
X352189Y142063D02*
Y155055D01*
X345280Y142063D02*
Y155055D01*
X344098D02*
X345280D01*
X317721D02*
X318902D01*
X317721Y142063D02*
Y155055D01*
X379780Y100063D02*
Y113055D01*
X378598D02*
X379780D01*
X352221D02*
X353402D01*
X352221Y100063D02*
Y113055D01*
X260700Y151900D02*
Y157900D01*
X260100Y151900D02*
X260700D01*
X260100Y157900D02*
X260700D01*
X256100Y151900D02*
Y157900D01*
Y151900D02*
X256700D01*
X256100Y157900D02*
X256700D01*
X283900Y149500D02*
X284500D01*
X283900Y155500D02*
X284500Y155500D01*
X284500Y149500D01*
X279900D02*
X280500D01*
X279900Y155500D02*
X280500D01*
X279900Y149500D02*
Y155500D01*
X261300Y73500D02*
Y79500D01*
X260700Y73500D02*
X261300D01*
X260700Y79500D02*
X261300D01*
X256700Y73500D02*
Y79500D01*
Y73500D02*
X257300D01*
X256700Y79500D02*
X257300D01*
X241700Y103700D02*
X247700Y103700D01*
X241700Y103700D02*
Y104300D01*
X247700D02*
X247700Y103700D01*
X241700Y108300D02*
X247700Y108300D01*
X241700Y107700D02*
Y108300D01*
X247700Y107700D02*
X247700Y108300D01*
D16*
X162900Y146056D02*
X168806D01*
X168806Y145544D02*
X168806Y146056D01*
X162900Y145544D02*
Y146056D01*
X168806Y140544D02*
Y141056D01*
X162900Y140544D02*
X162900Y141056D01*
X162900Y140544D02*
X168806D01*
X165852Y141725D02*
X165853Y145072D01*
X247144Y161495D02*
Y167400D01*
X247656Y167400D01*
X247144Y161495D02*
X247656D01*
X252144Y167400D02*
X252656D01*
X252144Y161495D02*
X252656Y161495D01*
Y167400D01*
Y79100D02*
Y85005D01*
X252144Y79100D02*
X252656Y79100D01*
X252144Y85005D02*
X252656D01*
X247144Y79100D02*
X247656D01*
X247144Y85005D02*
X247656Y85005D01*
X247144Y79100D02*
Y85005D01*
X192444Y47594D02*
Y53500D01*
X192956Y53500D01*
X192444Y47594D02*
X192956D01*
X197444Y53500D02*
X197956D01*
X197444Y47594D02*
X197956Y47594D01*
Y53500D01*
X193428Y50547D02*
X196775Y50547D01*
X198794Y47594D02*
Y53500D01*
X199306Y53500D01*
X198794Y47594D02*
X199306D01*
X203794Y53500D02*
X204306D01*
X203794Y47594D02*
X204306Y47594D01*
Y53500D01*
X199778Y50547D02*
X203125Y50547D01*
X205144Y47594D02*
Y53500D01*
X205656Y53500D01*
X205144Y47594D02*
X205656D01*
X210144Y53500D02*
X210656D01*
X210144Y47594D02*
X210656Y47594D01*
Y53500D01*
X206128Y50547D02*
X209475Y50547D01*
X231444Y100094D02*
Y106000D01*
X231956Y106000D01*
X231444Y100094D02*
X231956D01*
X236444Y106000D02*
X236956D01*
X236444Y100094D02*
X236956Y100094D01*
Y106000D01*
X232428Y103047D02*
X235775Y103047D01*
X162995Y139556D02*
X168900D01*
X168900Y139044D02*
X168900Y139556D01*
X162995D02*
X162995Y139044D01*
X168900Y134556D02*
X168900Y134044D01*
X162995D02*
X162995Y134556D01*
X162995Y134044D02*
X168900D01*
X165947Y135225D02*
X165947Y138572D01*
D17*
X454900Y175200D02*
X456100D01*
X454900Y175100D02*
X456100D01*
X454800Y175000D02*
X456000D01*
X454800Y174900D02*
X456000D01*
X454800Y174800D02*
X455900D01*
X454800Y174700D02*
X455900D01*
X454800Y174600D02*
X455800D01*
X454800Y174500D02*
X455800D01*
X454800Y174400D02*
X455800D01*
X454800Y174300D02*
X455800D01*
X454800Y174200D02*
X455800D01*
X454800Y174100D02*
X455800D01*
X454800Y174000D02*
X455800D01*
X454800Y173900D02*
X455900D01*
X454800Y173800D02*
X455900D01*
X454800Y173700D02*
X456000D01*
X454800Y173600D02*
X456100D01*
X454900Y173500D02*
X456300D01*
X455400Y176200D02*
X456700D01*
X455400Y176100D02*
X456600D01*
X455300Y176000D02*
X456600D01*
X455300Y175900D02*
X456500D01*
X455200Y175800D02*
X456500D01*
X455200Y175700D02*
X456400D01*
X455100Y175600D02*
X456400D01*
X455100Y175500D02*
X456300D01*
X455000Y175400D02*
X456300D01*
X455000Y175300D02*
X456200D01*
X455000Y173400D02*
X456500D01*
Y178100D02*
X457700D01*
X458300Y181300D02*
X459500D01*
X458200Y181200D02*
X459500D01*
X458200Y181100D02*
X459400D01*
X458100Y181000D02*
X459400D01*
X458000Y180900D02*
X459300D01*
X458000Y180800D02*
X459200D01*
X457900Y180700D02*
X459200D01*
X457900Y180600D02*
X459100D01*
X457800Y180500D02*
X459100D01*
X457800Y180400D02*
X459000D01*
X457700Y180300D02*
X459000D01*
X457700Y180200D02*
X458900D01*
X457600Y180100D02*
X458900D01*
X457500Y180000D02*
X458800D01*
X457500Y179900D02*
X458700D01*
X457400Y179800D02*
X458700D01*
X457400Y179700D02*
X458600D01*
X457300Y179600D02*
X458600D01*
X457300Y179500D02*
X458500D01*
X457200Y179400D02*
X458500D01*
X457200Y179300D02*
X458400D01*
X457100Y179200D02*
X458400D01*
X457000Y179100D02*
X458300D01*
X457000Y179000D02*
X458200D01*
X456900Y178900D02*
X458200D01*
X456900Y178800D02*
X458100D01*
X456800Y178700D02*
X458100D01*
X456800Y178600D02*
X458000D01*
X456700Y178500D02*
X458000D01*
X456700Y178400D02*
X457900D01*
X456600Y178300D02*
X457900D01*
X456500Y178200D02*
X457800D01*
X456400Y178000D02*
X457700D01*
X456400Y177900D02*
X457600D01*
X456300Y177800D02*
X457600D01*
X456300Y177700D02*
X457500D01*
X456200Y177600D02*
X457500D01*
X456200Y177500D02*
X457400D01*
X456100Y177400D02*
X457400D01*
X456100Y177300D02*
X457300D01*
X456000Y177200D02*
X457300D01*
X455900Y177100D02*
X457200D01*
X455900Y177000D02*
X457100D01*
X455800Y176900D02*
X457100D01*
X455800Y176800D02*
X457000D01*
X455700Y176700D02*
X457000D01*
X455700Y176600D02*
X456900D01*
X455600Y176500D02*
X456900D01*
X455600Y176400D02*
X456800D01*
X463700Y176200D02*
X465600D01*
X463600Y176100D02*
X465500D01*
X463600Y176000D02*
X465400D01*
X463500Y175900D02*
X465400D01*
X463500Y175800D02*
X465300D01*
X463500Y175700D02*
X465200D01*
X463400Y175600D02*
X465100D01*
X463400Y175500D02*
X465000D01*
X463300Y175400D02*
X464900D01*
X463300Y175300D02*
X464900D01*
X463300Y175200D02*
X464800D01*
X463200Y175100D02*
X464700D01*
X463200Y175000D02*
X464600D01*
X463100Y174900D02*
X464500D01*
X463100Y174800D02*
X464400D01*
X463100Y174700D02*
X464300D01*
X463100Y174600D02*
X464300D01*
X463100Y174500D02*
X464200D01*
X463200Y174400D02*
X464100D01*
X463300Y174300D02*
X464000D01*
X463400Y174200D02*
X463800D01*
X462900Y181600D02*
X464100D01*
X462900Y181500D02*
X464100D01*
X462900Y181400D02*
X464000D01*
X462800Y181300D02*
X464000D01*
X462800Y181200D02*
X464000D01*
X462700Y181100D02*
X463900D01*
X462700Y181000D02*
X463900D01*
X462700Y180900D02*
X463800D01*
X462600Y180800D02*
X463800D01*
X462600Y180700D02*
X463800D01*
X462600Y180600D02*
X463700D01*
X462500Y180500D02*
X463700D01*
X462500Y180400D02*
X463700D01*
X462500Y180300D02*
X463600D01*
X462400Y180200D02*
X463600D01*
X462400Y180100D02*
X463600D01*
X462400Y180000D02*
X463500D01*
X462300Y179900D02*
X465600D01*
X462300Y179800D02*
X465800D01*
X462200Y179700D02*
X465900D01*
X462200Y179600D02*
X466000D01*
X462200Y179500D02*
X466000D01*
X462200Y179400D02*
X466100D01*
X462200Y179300D02*
X466100D01*
X462200Y179200D02*
X466000D01*
X462200Y179100D02*
X466000D01*
X462300Y179000D02*
X466000D01*
X462400Y178900D02*
X465900D01*
X464400Y178100D02*
X465600D01*
X465800D02*
X467200D01*
X463900Y184200D02*
X465000D01*
X463800Y184100D02*
X465000D01*
X463800Y184000D02*
X465000D01*
X463800Y183900D02*
X464900D01*
X463700Y183800D02*
X464900D01*
X463700Y183700D02*
X464900D01*
X463700Y183600D02*
X464800D01*
X463600Y183500D02*
X464800D01*
X463600Y183400D02*
X464800D01*
X463600Y183300D02*
X464700D01*
X463500Y183200D02*
X464700D01*
X463500Y183100D02*
X464600D01*
X463400Y183000D02*
X464600D01*
X463400Y182900D02*
X464600D01*
X463400Y182800D02*
X464500D01*
X463300Y182700D02*
X464500D01*
X463300Y182600D02*
X464500D01*
X466400D02*
X467500D01*
X463300Y182500D02*
X464400D01*
X466300D02*
X467500D01*
X463200Y182400D02*
X464400D01*
X466300D02*
X467500D01*
X463200Y182300D02*
X464300D01*
X466200D02*
X467400D01*
X463100Y182200D02*
X464300D01*
X466200D02*
X467400D01*
X463100Y182100D02*
X464300D01*
X466200D02*
X467300D01*
X463100Y182000D02*
X464200D01*
X466100D02*
X467300D01*
X463000Y181900D02*
X464200D01*
X466100D02*
X467300D01*
X463000Y181800D02*
X464200D01*
X466000D02*
X467200D01*
X463000Y181700D02*
X464100D01*
X464700Y178800D02*
X465900D01*
X464700Y178700D02*
X465800D01*
X464600Y178600D02*
X465800D01*
X464600Y178500D02*
X465800D01*
X464500Y178400D02*
X465700D01*
X466100D02*
X467500D01*
X464500Y178300D02*
X465700D01*
X466000D02*
X467400D01*
X464500Y178200D02*
X465600D01*
X465900D02*
X467300D01*
X464400Y178000D02*
X465600D01*
X465800D02*
X467100D01*
X464300Y177900D02*
X465500D01*
X465700D02*
X467100D01*
X464300Y177800D02*
X465500D01*
X465600D02*
X467000D01*
X464300Y177700D02*
X465400D01*
X465500D02*
X466900D01*
X464200Y177600D02*
X466800D01*
X464200Y177500D02*
X466700D01*
X464100Y177400D02*
X466600D01*
X464100Y177300D02*
X466600D01*
X464100Y177200D02*
X466500D01*
X464000Y177100D02*
X466400D01*
X464000Y177000D02*
X466300D01*
X463900Y176900D02*
X466200D01*
X463900Y176800D02*
X466100D01*
X463900Y176700D02*
X466000D01*
X463800Y176600D02*
X466000D01*
X463800Y176500D02*
X465900D01*
X463700Y176400D02*
X465800D01*
X459900Y184200D02*
X461200D01*
X459800Y184100D02*
X461100D01*
X459800Y184000D02*
X461000D01*
X459700Y183900D02*
X461000D01*
X459700Y183800D02*
X460900D01*
X462900Y189700D02*
X464200D01*
X462900Y189600D02*
X464100D01*
X462800Y189500D02*
X464100D01*
X462800Y189400D02*
X464000D01*
X462700Y189300D02*
X464000D01*
X462700Y189200D02*
X463900D01*
X462600Y189100D02*
X463900D01*
X462600Y189000D02*
X463800D01*
X462500Y188900D02*
X463800D01*
X462400Y188800D02*
X463700D01*
X462400Y188700D02*
X463600D01*
X462300Y188600D02*
X463600D01*
X462300Y188500D02*
X463500D01*
X462200Y188400D02*
X463500D01*
X462200Y188300D02*
X463400D01*
X462100Y188200D02*
X463400D01*
X462100Y188100D02*
X463300D01*
X462000Y188000D02*
X463300D01*
X461900Y187900D02*
X463200D01*
X461900Y187800D02*
X463100D01*
X461800Y187700D02*
X463100D01*
X461800Y187600D02*
X463000D01*
X461700Y187500D02*
X463000D01*
X461700Y187400D02*
X462900D01*
X461600Y187300D02*
X462900D01*
X460900Y186100D02*
X462200D01*
X464400Y192200D02*
X467500D01*
X464100Y191800D02*
X465700D01*
X464000Y191700D02*
X465400D01*
X464000Y191600D02*
X465300D01*
X463900Y191500D02*
X465200D01*
X463900Y191400D02*
X465100D01*
X463800Y191300D02*
X465100D01*
X463800Y191200D02*
X465000D01*
X463700Y191100D02*
X465000D01*
X463700Y191000D02*
X464900D01*
X463600Y190900D02*
X464900D01*
X463500Y190800D02*
X464800D01*
X463500Y190700D02*
X464700D01*
X463400Y190600D02*
X464700D01*
X463400Y190500D02*
X464600D01*
X463300Y190400D02*
X464600D01*
X463300Y190300D02*
X464500D01*
X463200Y190200D02*
X464500D01*
X463200Y190100D02*
X464400D01*
X463100Y190000D02*
X464400D01*
X463100Y189900D02*
X464300D01*
X463000Y189800D02*
X464300D01*
X464200Y185200D02*
X465400D01*
X464200Y185100D02*
X465400D01*
X464200Y185000D02*
X465300D01*
X464100Y184900D02*
X465300D01*
X464100Y184800D02*
X465300D01*
X464100Y184700D02*
X465200D01*
X464000Y184600D02*
X465200D01*
X464000Y184500D02*
X465100D01*
X463900Y184400D02*
X465100D01*
X461600Y187200D02*
X462800D01*
X461500Y187100D02*
X462800D01*
X461400Y187000D02*
X462700D01*
X461400Y186900D02*
X462600D01*
X461300Y186800D02*
X462600D01*
X461300Y186700D02*
X462500D01*
X461200Y186600D02*
X462500D01*
X461200Y186500D02*
X462400D01*
X461100Y186400D02*
X462400D01*
X461100Y186300D02*
X462300D01*
X461000Y186200D02*
X462300D01*
X460900Y186000D02*
X462100D01*
X460800Y185900D02*
X462100D01*
X460800Y185800D02*
X462000D01*
X460700Y185700D02*
X462000D01*
X460700Y185600D02*
X461900D01*
X460600Y185500D02*
X461900D01*
X460600Y185400D02*
X461800D01*
X460500Y185300D02*
X461800D01*
X460500Y185200D02*
X461700D01*
X460400Y185100D02*
X461600D01*
X460300Y185000D02*
X461600D01*
X460300Y184900D02*
X461500D01*
X460200Y184800D02*
X461500D01*
X460200Y184700D02*
X461400D01*
X460100Y184600D02*
X461400D01*
X460100Y184500D02*
X461300D01*
X460000Y184400D02*
X461300D01*
X465600Y192900D02*
X466300D01*
X465200Y192800D02*
X466700D01*
X465000Y192700D02*
X466900D01*
X464800Y192600D02*
X467100D01*
X464700Y192500D02*
X467200D01*
X464600Y192400D02*
X467300D01*
X470700Y184200D02*
X472000D01*
X470800Y184100D02*
X472100D01*
X470900Y184000D02*
X472100D01*
X470900Y183900D02*
X472200D01*
X474200Y178100D02*
X475400D01*
X471000Y183800D02*
X472200D01*
X471000Y183700D02*
X472300D01*
X471100Y183600D02*
X472300D01*
X471100Y183500D02*
X472400D01*
X471200Y183400D02*
X472500D01*
X471200Y183300D02*
X472500D01*
X471300Y183200D02*
X472600D01*
X471400Y183100D02*
X472600D01*
X471400Y183000D02*
X472700D01*
X471500Y182900D02*
X472700D01*
X471500Y182800D02*
X472800D01*
X471600Y182700D02*
X472900D01*
X471600Y182600D02*
X472900D01*
X471700Y182500D02*
X473000D01*
X471800Y182400D02*
X473000D01*
X471800Y182300D02*
X473100D01*
X471900Y182200D02*
X473100D01*
X471900Y182100D02*
X473200D01*
X472000Y182000D02*
X473200D01*
X472000Y181900D02*
X473300D01*
X472100Y181800D02*
X473400D01*
X472200Y181700D02*
X473400D01*
X472200Y181600D02*
X473500D01*
X472300Y181500D02*
X473500D01*
X472300Y181400D02*
X473600D01*
X472400Y181300D02*
X473600D01*
X472400Y181200D02*
X473700D01*
X472500Y181100D02*
X473700D01*
X472500Y181000D02*
X473800D01*
X472600Y180900D02*
X473900D01*
X472700Y180800D02*
X473900D01*
X472700Y180700D02*
X474000D01*
X472800Y180600D02*
X474000D01*
X472800Y180500D02*
X474100D01*
X472900Y180400D02*
X474100D01*
X472900Y180300D02*
X474200D01*
X473000Y180200D02*
X474200D01*
X473000Y180100D02*
X474300D01*
X473100Y180000D02*
X474400D01*
X473200Y179900D02*
X474400D01*
X473200Y179800D02*
X474500D01*
X473300Y179700D02*
X474500D01*
X473300Y179600D02*
X474600D01*
X473400Y179500D02*
X474600D01*
X473400Y179400D02*
X474700D01*
X473500Y179300D02*
X474700D01*
X473500Y179200D02*
X474800D01*
X473600Y179100D02*
X474900D01*
X473700Y179000D02*
X474900D01*
X473700Y178900D02*
X475000D01*
X473800Y178800D02*
X475000D01*
X473800Y178700D02*
X475100D01*
X473900Y178600D02*
X475100D01*
X473900Y178500D02*
X475200D01*
X474000Y178400D02*
X475200D01*
X474000Y178300D02*
X475300D01*
X474100Y178200D02*
X475400D01*
X474200Y178000D02*
X475500D01*
X474300Y177900D02*
X475500D01*
X468000Y180600D02*
X469400D01*
X467900Y180500D02*
X469300D01*
X467800Y180400D02*
X469200D01*
X467700Y180300D02*
X469100D01*
X469700Y186100D02*
X471000D01*
X469600Y186200D02*
X470900D01*
X469800Y186000D02*
X471000D01*
X469800Y185900D02*
X471100D01*
X469900Y185800D02*
X471100D01*
X469900Y185700D02*
X471200D01*
X470000Y185600D02*
X471200D01*
X470000Y185500D02*
X471300D01*
X470100Y185400D02*
X471300D01*
X470100Y185300D02*
X471400D01*
X470200Y185200D02*
X471400D01*
X470300Y185100D02*
X471500D01*
X470300Y185000D02*
X471600D01*
X470400Y184900D02*
X471600D01*
X470400Y184800D02*
X471700D01*
X470500Y184700D02*
X471700D01*
X470500Y184600D02*
X471800D01*
X470600Y184500D02*
X471800D01*
X470600Y184400D02*
X471900D01*
X467700Y189700D02*
X469000D01*
X467800Y189600D02*
X469000D01*
X467800Y189500D02*
X469100D01*
X467900Y189400D02*
X469100D01*
X467900Y189300D02*
X469200D01*
X468000Y189200D02*
X469200D01*
X468000Y189100D02*
X469300D01*
X468100Y189000D02*
X469300D01*
X468100Y188900D02*
X469400D01*
X468200Y188800D02*
X469500D01*
X468300Y188700D02*
X469500D01*
X468300Y188600D02*
X469600D01*
X468400Y188500D02*
X469600D01*
X468400Y188400D02*
X469700D01*
X468500Y188300D02*
X469700D01*
X468500Y188200D02*
X469800D01*
X468600Y188100D02*
X469800D01*
X468600Y188000D02*
X469900D01*
X468700Y187900D02*
X470000D01*
X468800Y187800D02*
X470000D01*
X468800Y187700D02*
X470100D01*
X468900Y187600D02*
X470100D01*
X468900Y187500D02*
X470200D01*
X469000Y187400D02*
X470200D01*
X469000Y187300D02*
X470300D01*
X469100Y187200D02*
X470300D01*
X469100Y187100D02*
X470400D01*
X469200Y187000D02*
X470500D01*
X469300Y186900D02*
X470500D01*
X469300Y186800D02*
X470600D01*
X469400Y186700D02*
X470600D01*
X469400Y186600D02*
X470700D01*
X469500Y186500D02*
X470700D01*
X469500Y186400D02*
X470800D01*
X469600Y186300D02*
X470800D01*
X475700Y175300D02*
X476900D01*
X475700Y175200D02*
X477000D01*
X475800Y175100D02*
X477000D01*
X475900Y175000D02*
X477100D01*
X475900Y174900D02*
X477100D01*
X476000Y174800D02*
X477100D01*
X476000Y174700D02*
X477100D01*
X476100Y174600D02*
X477100D01*
X476100Y174500D02*
X477100D01*
X476100Y174400D02*
X477100D01*
X476100Y174300D02*
X477100D01*
X476100Y174200D02*
X477100D01*
X476100Y174100D02*
X477100D01*
X476100Y174000D02*
X477100D01*
X476000Y173900D02*
X477100D01*
X476000Y173800D02*
X477100D01*
X475900Y173700D02*
X477100D01*
X475800Y173600D02*
X477100D01*
X455500Y176300D02*
X456800D01*
X464500Y192300D02*
X467400D01*
X463900Y184300D02*
X465100D01*
X463700Y176300D02*
X465700D01*
X460000Y184300D02*
X461200D01*
X470700D02*
X471900D01*
X455000Y173300D02*
X476900D01*
X455100Y173200D02*
X476800D01*
X455100Y173100D02*
X476800D01*
X455200Y173000D02*
X476700D01*
X455300Y172900D02*
X476600D01*
X455400Y172800D02*
X476500D01*
X455500Y172700D02*
X476400D01*
X455700Y172600D02*
X476200D01*
X455800Y172500D02*
X476100D01*
X456100Y172400D02*
X475800D01*
X456400Y172300D02*
X475500D01*
X475200Y176200D02*
X476500D01*
X475300Y176100D02*
X476500D01*
X475300Y176000D02*
X476600D01*
X475400Y175900D02*
X476600D01*
X475400Y175800D02*
X476700D01*
X475500Y175700D02*
X476700D01*
X475500Y175600D02*
X476800D01*
X475600Y175500D02*
X476800D01*
X475600Y175400D02*
X476900D01*
X475600Y173500D02*
X477000D01*
X475400Y173400D02*
X476900D01*
X474300Y177800D02*
X475600D01*
X474400Y177700D02*
X475600D01*
X474400Y177600D02*
X475700D01*
X474500Y177500D02*
X475700D01*
X474500Y177400D02*
X475800D01*
X474600Y177300D02*
X475800D01*
X474600Y177200D02*
X475900D01*
X474700Y177100D02*
X476000D01*
X474800Y177000D02*
X476000D01*
X474800Y176900D02*
X476100D01*
X474900Y176800D02*
X476100D01*
X474900Y176700D02*
X476200D01*
X475000Y176600D02*
X476200D01*
X475000Y176500D02*
X476300D01*
X475100Y176400D02*
X476300D01*
X467000Y184200D02*
X468200D01*
X467000Y184100D02*
X468200D01*
X466900Y184000D02*
X468100D01*
X466900Y183900D02*
X468100D01*
X466800Y183800D02*
X468000D01*
X466800Y183700D02*
X468000D01*
X466800Y183600D02*
X468000D01*
X466700Y183500D02*
X467900D01*
X466700Y183400D02*
X467900D01*
X466600Y183300D02*
X467800D01*
X466600Y183200D02*
X467800D01*
X466600Y183100D02*
X467700D01*
X466500Y183000D02*
X467700D01*
X466500Y182900D02*
X467700D01*
X466400Y182800D02*
X467600D01*
X466400Y182700D02*
X467600D01*
X466000Y181700D02*
X469500D01*
X466000Y181600D02*
X469600D01*
X465900Y181500D02*
X469700D01*
X465900Y181400D02*
X469700D01*
X465900Y181300D02*
X469700D01*
X465800Y181200D02*
X469700D01*
X465800Y181100D02*
X469700D01*
X465900Y181000D02*
X469700D01*
X466000Y180900D02*
X469600D01*
X466100Y180800D02*
X469500D01*
X466300Y180700D02*
X469500D01*
X467600Y180200D02*
X469000D01*
X467500Y180100D02*
X468900D01*
X467500Y180000D02*
X468900D01*
X467400Y179900D02*
X468800D01*
X467300Y179800D02*
X468700D01*
X467200Y179700D02*
X468600D01*
X467100Y179600D02*
X468500D01*
X467000Y179500D02*
X468400D01*
X466900Y179400D02*
X468300D01*
X466900Y179300D02*
X468300D01*
X466800Y179200D02*
X468200D01*
X466700Y179100D02*
X468100D01*
X466600Y179000D02*
X468000D01*
X466500Y178900D02*
X467900D01*
X466400Y178800D02*
X467800D01*
X466400Y178700D02*
X467700D01*
X466300Y178600D02*
X467700D01*
X466200Y178500D02*
X467600D01*
X459600Y183700D02*
X460900D01*
X459600Y183600D02*
X460800D01*
X459500Y183500D02*
X460800D01*
X459400Y183400D02*
X460700D01*
X459400Y183300D02*
X460700D01*
X459300Y183200D02*
X460600D01*
X459300Y183100D02*
X460500D01*
X459200Y183000D02*
X460500D01*
X459200Y182900D02*
X460400D01*
X459100Y182800D02*
X460400D01*
X459000Y182700D02*
X460300D01*
X459000Y182600D02*
X460300D01*
X458900Y182500D02*
X460200D01*
X458900Y182400D02*
X460100D01*
X458800Y182300D02*
X460100D01*
X458800Y182200D02*
X460000D01*
X458700Y182100D02*
X460000D01*
X458700Y182000D02*
X459900D01*
X458600Y181900D02*
X459900D01*
X458500Y181800D02*
X459800D01*
X458500Y181700D02*
X459700D01*
X458400Y181600D02*
X459700D01*
X458400Y181500D02*
X459600D01*
X458300Y181400D02*
X459600D01*
X464600Y186100D02*
X468700D01*
X464300Y192100D02*
X467600D01*
X464200Y192000D02*
X467700D01*
X464200Y191900D02*
X467700D01*
X466200Y191800D02*
X467800D01*
X466500Y191700D02*
X467900D01*
X466600Y191600D02*
X467900D01*
X466700Y191500D02*
X468000D01*
X466800Y191400D02*
X468000D01*
X466800Y191300D02*
X468100D01*
X466900Y191200D02*
X468100D01*
X466900Y191100D02*
X468200D01*
X467000Y191000D02*
X468200D01*
X467000Y190900D02*
X468300D01*
X467100Y190800D02*
X468400D01*
X467200Y190700D02*
X468400D01*
X467200Y190600D02*
X468500D01*
X467300Y190500D02*
X468500D01*
X467300Y190400D02*
X468600D01*
X467400Y190300D02*
X468600D01*
X467400Y190200D02*
X468700D01*
X467500Y190100D02*
X468700D01*
X467500Y190000D02*
X468800D01*
X467600Y189900D02*
X468800D01*
X467600Y189800D02*
X468900D01*
X464800Y186300D02*
X468500D01*
X464600Y186200D02*
X468700D01*
X464500Y186000D02*
X468800D01*
X464500Y185900D02*
X468800D01*
X464400Y185800D02*
X468800D01*
X464400Y185700D02*
X468800D01*
X464400Y185600D02*
X468800D01*
X464300Y185500D02*
X468700D01*
X464300Y185400D02*
X468700D01*
X464300Y185300D02*
X468600D01*
X467400Y185200D02*
X468600D01*
X467400Y185100D02*
X468600D01*
X467300Y185000D02*
X468500D01*
X467300Y184900D02*
X468500D01*
X467200Y184800D02*
X468400D01*
X467200Y184700D02*
X468400D01*
X467200Y184600D02*
X468400D01*
X467100Y184500D02*
X468300D01*
X467100Y184400D02*
X468300D01*
X475100Y176300D02*
X476400D01*
X467000Y184300D02*
X468200D01*
X466800Y77600D02*
X468000D01*
X474900Y69600D02*
X476200D01*
X466900Y77700D02*
X468100D01*
X466900Y77800D02*
X468100D01*
X467000Y77900D02*
X468200D01*
X467000Y78000D02*
X468200D01*
X467000Y78100D02*
X468200D01*
X467100Y78200D02*
X468300D01*
X467100Y78300D02*
X468300D01*
X467200Y78400D02*
X468400D01*
X467200Y78500D02*
X468400D01*
X464100Y78600D02*
X468400D01*
X464100Y78700D02*
X468500D01*
X464100Y78800D02*
X468500D01*
X464200Y78900D02*
X468600D01*
X464200Y79000D02*
X468600D01*
X464200Y79100D02*
X468600D01*
X464300Y79200D02*
X468600D01*
X464300Y79300D02*
X468600D01*
X464400Y79500D02*
X468500D01*
X464600Y79600D02*
X468300D01*
X467400Y83100D02*
X468700D01*
X467400Y83200D02*
X468600D01*
X467300Y83300D02*
X468600D01*
X467300Y83400D02*
X468500D01*
X467200Y83500D02*
X468500D01*
X467200Y83600D02*
X468400D01*
X467100Y83700D02*
X468400D01*
X467100Y83800D02*
X468300D01*
X467000Y83900D02*
X468300D01*
X467000Y84000D02*
X468200D01*
X466900Y84100D02*
X468200D01*
X466800Y84200D02*
X468100D01*
X466800Y84300D02*
X468000D01*
X466700Y84400D02*
X468000D01*
X466700Y84500D02*
X467900D01*
X466600Y84600D02*
X467900D01*
X466600Y84700D02*
X467800D01*
X466500Y84800D02*
X467800D01*
X466400Y84900D02*
X467700D01*
X466300Y85000D02*
X467700D01*
X466000Y85100D02*
X467600D01*
X464000Y85200D02*
X467500D01*
X464000Y85300D02*
X467500D01*
X464100Y85400D02*
X467400D01*
X464400Y79400D02*
X468500D01*
X458100Y74700D02*
X459400D01*
X458200Y74800D02*
X459400D01*
X458200Y74900D02*
X459500D01*
X458300Y75000D02*
X459500D01*
X458300Y75100D02*
X459600D01*
X458400Y75200D02*
X459700D01*
X458500Y75300D02*
X459700D01*
X458500Y75400D02*
X459800D01*
X458600Y75500D02*
X459800D01*
X458600Y75600D02*
X459900D01*
X458700Y75700D02*
X459900D01*
X458700Y75800D02*
X460000D01*
X458800Y75900D02*
X460100D01*
X458800Y76000D02*
X460100D01*
X458900Y76100D02*
X460200D01*
X459000Y76200D02*
X460200D01*
X459000Y76300D02*
X460300D01*
X459100Y76400D02*
X460300D01*
X459100Y76500D02*
X460400D01*
X459200Y76600D02*
X460500D01*
X459200Y76700D02*
X460500D01*
X459300Y76800D02*
X460600D01*
X459400Y76900D02*
X460600D01*
X459400Y77000D02*
X460700D01*
X466000Y71800D02*
X467400D01*
X466100Y71900D02*
X467500D01*
X466200Y72000D02*
X467500D01*
X466200Y72100D02*
X467600D01*
X466300Y72200D02*
X467700D01*
X466400Y72300D02*
X467800D01*
X466500Y72400D02*
X467900D01*
X466600Y72500D02*
X468000D01*
X466700Y72600D02*
X468100D01*
X466700Y72700D02*
X468100D01*
X466800Y72800D02*
X468200D01*
X466900Y72900D02*
X468300D01*
X467000Y73000D02*
X468400D01*
X467100Y73100D02*
X468500D01*
X467200Y73200D02*
X468600D01*
X467300Y73300D02*
X468700D01*
X467300Y73400D02*
X468700D01*
X467400Y73500D02*
X468800D01*
X466100Y74000D02*
X469300D01*
X465900Y74100D02*
X469300D01*
X465800Y74200D02*
X469400D01*
X465700Y74300D02*
X469500D01*
X465600Y74400D02*
X469500D01*
X465600Y74500D02*
X469500D01*
X465700Y74600D02*
X469500D01*
X465700Y74700D02*
X469500D01*
X465700Y74800D02*
X469500D01*
X465800Y74900D02*
X469400D01*
X465800Y75000D02*
X469300D01*
X466200Y76000D02*
X467400D01*
X466200Y76100D02*
X467400D01*
X466300Y76200D02*
X467500D01*
X466300Y76300D02*
X467500D01*
X466400Y76400D02*
X467500D01*
X466400Y76500D02*
X467600D01*
X466400Y76600D02*
X467600D01*
X466500Y76700D02*
X467700D01*
X466500Y76800D02*
X467700D01*
X466600Y76900D02*
X467800D01*
X466600Y77000D02*
X467800D01*
X466600Y77100D02*
X467800D01*
X466700Y77200D02*
X467900D01*
X466700Y77300D02*
X467900D01*
X466800Y77400D02*
X468000D01*
X466800Y77500D02*
X468000D01*
X474900Y69700D02*
X476100D01*
X474800Y69800D02*
X476100D01*
X474800Y69900D02*
X476000D01*
X474700Y70000D02*
X476000D01*
X474700Y70100D02*
X475900D01*
X474600Y70200D02*
X475900D01*
X474600Y70300D02*
X475800D01*
X474500Y70400D02*
X475800D01*
X474400Y70500D02*
X475700D01*
X474400Y70600D02*
X475600D01*
X474300Y70700D02*
X475600D01*
X474300Y70800D02*
X475500D01*
X474200Y70900D02*
X475500D01*
X474200Y71000D02*
X475400D01*
X474100Y71100D02*
X475400D01*
X475200Y66700D02*
X476700D01*
X475400Y66800D02*
X476800D01*
X475400Y68700D02*
X476700D01*
X475400Y68800D02*
X476600D01*
X475300Y68900D02*
X476600D01*
X475300Y69000D02*
X476500D01*
X475200Y69100D02*
X476500D01*
X475200Y69200D02*
X476400D01*
X475100Y69300D02*
X476400D01*
X475100Y69400D02*
X476300D01*
X475000Y69500D02*
X476300D01*
X456200Y65600D02*
X475300D01*
X455900Y65700D02*
X475600D01*
X455600Y65800D02*
X475900D01*
X455500Y65900D02*
X476000D01*
X455300Y66000D02*
X476200D01*
X455200Y66100D02*
X476300D01*
X455100Y66200D02*
X476400D01*
X455000Y66300D02*
X476500D01*
X454900Y66400D02*
X476600D01*
X454900Y66500D02*
X476600D01*
X454800Y66600D02*
X476700D01*
X470500Y77600D02*
X471700D01*
X459800D02*
X461000D01*
X463500Y69600D02*
X465500D01*
X463700Y77600D02*
X464900D01*
X464300Y85600D02*
X467200D01*
X455300Y69600D02*
X456600D01*
X475600Y66900D02*
X476900D01*
X475700Y67000D02*
X476900D01*
X475800Y67100D02*
X476900D01*
X475800Y67200D02*
X476900D01*
X475900Y67300D02*
X476900D01*
X475900Y67400D02*
X476900D01*
X475900Y67500D02*
X476900D01*
X475900Y67600D02*
X476900D01*
X475900Y67700D02*
X476900D01*
X475900Y67800D02*
X476900D01*
X475900Y67900D02*
X476900D01*
X475800Y68000D02*
X476900D01*
X475800Y68100D02*
X476900D01*
X475700Y68200D02*
X476900D01*
X475700Y68300D02*
X476900D01*
X475600Y68400D02*
X476800D01*
X475500Y68500D02*
X476800D01*
X475500Y68600D02*
X476700D01*
X469400Y79600D02*
X470600D01*
X469300Y79700D02*
X470600D01*
X469300Y79800D02*
X470500D01*
X469200Y79900D02*
X470500D01*
X469200Y80000D02*
X470400D01*
X469100Y80100D02*
X470400D01*
X469100Y80200D02*
X470300D01*
X469000Y80300D02*
X470300D01*
X468900Y80400D02*
X470200D01*
X468900Y80500D02*
X470100D01*
X468800Y80600D02*
X470100D01*
X468800Y80700D02*
X470000D01*
X468700Y80800D02*
X470000D01*
X468700Y80900D02*
X469900D01*
X468600Y81000D02*
X469900D01*
X468600Y81100D02*
X469800D01*
X468500Y81200D02*
X469800D01*
X468400Y81300D02*
X469700D01*
X468400Y81400D02*
X469600D01*
X468300Y81500D02*
X469600D01*
X468300Y81600D02*
X469500D01*
X468200Y81700D02*
X469500D01*
X468200Y81800D02*
X469400D01*
X468100Y81900D02*
X469400D01*
X468100Y82000D02*
X469300D01*
X468000Y82100D02*
X469300D01*
X467900Y82200D02*
X469200D01*
X467900Y82300D02*
X469100D01*
X467800Y82400D02*
X469100D01*
X467800Y82500D02*
X469000D01*
X467700Y82600D02*
X469000D01*
X467700Y82700D02*
X468900D01*
X467600Y82800D02*
X468900D01*
X467600Y82900D02*
X468800D01*
X467500Y83000D02*
X468800D01*
X470400Y77700D02*
X471700D01*
X470400Y77800D02*
X471600D01*
X470300Y77900D02*
X471600D01*
X470300Y78000D02*
X471500D01*
X470200Y78100D02*
X471500D01*
X470200Y78200D02*
X471400D01*
X470100Y78300D02*
X471400D01*
X470100Y78400D02*
X471300D01*
X470000Y78500D02*
X471200D01*
X469900Y78600D02*
X471200D01*
X469900Y78700D02*
X471100D01*
X469800Y78800D02*
X471100D01*
X469800Y78900D02*
X471000D01*
X469700Y79000D02*
X471000D01*
X469700Y79100D02*
X470900D01*
X469600Y79200D02*
X470900D01*
X469600Y79300D02*
X470800D01*
X469400Y79500D02*
X470700D01*
X469500Y79400D02*
X470800D01*
X467500Y73600D02*
X468900D01*
X467600Y73700D02*
X469000D01*
X467700Y73800D02*
X469100D01*
X467800Y73900D02*
X469200D01*
X474100Y71200D02*
X475300D01*
X474000Y71300D02*
X475300D01*
X473900Y71500D02*
X475200D01*
X473800Y71600D02*
X475100D01*
X473800Y71700D02*
X475000D01*
X473700Y71800D02*
X475000D01*
X473700Y71900D02*
X474900D01*
X473600Y72000D02*
X474900D01*
X473600Y72100D02*
X474800D01*
X473500Y72200D02*
X474800D01*
X473500Y72300D02*
X474700D01*
X473400Y72400D02*
X474700D01*
X473300Y72500D02*
X474600D01*
X473300Y72600D02*
X474500D01*
X473200Y72700D02*
X474500D01*
X473200Y72800D02*
X474400D01*
X473100Y72900D02*
X474400D01*
X473100Y73000D02*
X474300D01*
X473000Y73100D02*
X474300D01*
X473000Y73200D02*
X474200D01*
X472900Y73300D02*
X474200D01*
X472800Y73400D02*
X474100D01*
X472800Y73500D02*
X474000D01*
X472700Y73600D02*
X474000D01*
X472700Y73700D02*
X473900D01*
X472600Y73800D02*
X473900D01*
X472600Y73900D02*
X473800D01*
X472500Y74000D02*
X473800D01*
X472500Y74100D02*
X473700D01*
X472400Y74200D02*
X473700D01*
X472300Y74300D02*
X473600D01*
X472300Y74400D02*
X473500D01*
X472200Y74500D02*
X473500D01*
X472200Y74600D02*
X473400D01*
X472100Y74700D02*
X473400D01*
X472100Y74800D02*
X473300D01*
X472000Y74900D02*
X473300D01*
X472000Y75000D02*
X473200D01*
X471900Y75100D02*
X473200D01*
X471800Y75200D02*
X473100D01*
X471800Y75300D02*
X473000D01*
X471700Y75400D02*
X473000D01*
X471700Y75500D02*
X472900D01*
X471600Y75600D02*
X472900D01*
X471600Y75700D02*
X472800D01*
X471500Y75800D02*
X472800D01*
X471400Y75900D02*
X472700D01*
X471400Y76000D02*
X472700D01*
X471300Y76100D02*
X472600D01*
X471300Y76200D02*
X472500D01*
X471200Y76300D02*
X472500D01*
X471200Y76400D02*
X472400D01*
X471100Y76500D02*
X472400D01*
X471000Y76600D02*
X472300D01*
X471000Y76700D02*
X472300D01*
X470900Y76800D02*
X472200D01*
X470900Y76900D02*
X472100D01*
X470800Y77000D02*
X472100D01*
X470800Y77100D02*
X472000D01*
X474000Y71400D02*
X475200D01*
X470700Y77200D02*
X472000D01*
X470700Y77300D02*
X471900D01*
X470600Y77400D02*
X471900D01*
X470500Y77500D02*
X471800D01*
X464400Y85700D02*
X467100D01*
X464500Y85800D02*
X467000D01*
X464600Y85900D02*
X466900D01*
X464800Y86000D02*
X466700D01*
X465000Y86100D02*
X466500D01*
X465400Y86200D02*
X466100D01*
X459800Y77700D02*
X461100D01*
X459900Y77800D02*
X461100D01*
X459900Y77900D02*
X461200D01*
X460000Y78000D02*
X461200D01*
X460000Y78100D02*
X461300D01*
X460100Y78200D02*
X461300D01*
X460100Y78300D02*
X461400D01*
X460200Y78400D02*
X461400D01*
X460300Y78500D02*
X461500D01*
X460300Y78600D02*
X461600D01*
X460400Y78700D02*
X461600D01*
X460400Y78800D02*
X461700D01*
X460500Y78900D02*
X461700D01*
X460500Y79000D02*
X461800D01*
X460600Y79100D02*
X461800D01*
X460600Y79200D02*
X461900D01*
X460700Y79300D02*
X461900D01*
X460800Y79500D02*
X462100D01*
X460900Y79600D02*
X462100D01*
X460900Y79700D02*
X462200D01*
X461000Y79800D02*
X462200D01*
X461000Y79900D02*
X462300D01*
X461100Y80000D02*
X462300D01*
X461100Y80100D02*
X462400D01*
X461200Y80200D02*
X462400D01*
X461200Y80300D02*
X462500D01*
X461300Y80400D02*
X462600D01*
X461400Y80500D02*
X462600D01*
X463700Y77700D02*
X464900D01*
X463800Y77800D02*
X464900D01*
X463800Y77900D02*
X465000D01*
X463900Y78000D02*
X465000D01*
X463900Y78100D02*
X465100D01*
X463900Y78200D02*
X465100D01*
X464000Y78300D02*
X465100D01*
X464000Y78400D02*
X465200D01*
X464000Y78500D02*
X465200D01*
X462800Y83100D02*
X464100D01*
X462900Y83200D02*
X464100D01*
X462900Y83300D02*
X464200D01*
X463000Y83400D02*
X464200D01*
X463000Y83500D02*
X464300D01*
X463100Y83600D02*
X464300D01*
X463100Y83700D02*
X464400D01*
X463200Y83800D02*
X464400D01*
X463200Y83900D02*
X464500D01*
X463300Y84000D02*
X464500D01*
X463300Y84100D02*
X464600D01*
X463400Y84200D02*
X464700D01*
X463500Y84300D02*
X464700D01*
X463500Y84400D02*
X464800D01*
X463600Y84500D02*
X464800D01*
X463600Y84600D02*
X464900D01*
X463700Y84700D02*
X464900D01*
X463700Y84800D02*
X465000D01*
X463800Y84900D02*
X465100D01*
X463800Y85000D02*
X465200D01*
X463900Y85100D02*
X465500D01*
X464200Y85500D02*
X467300D01*
X460700Y79400D02*
X462000D01*
X461400Y80600D02*
X462700D01*
X461500Y80700D02*
X462700D01*
X461500Y80800D02*
X462800D01*
X461600Y80900D02*
X462800D01*
X461600Y81000D02*
X462900D01*
X461700Y81100D02*
X462900D01*
X461700Y81200D02*
X463000D01*
X461800Y81300D02*
X463100D01*
X461900Y81400D02*
X463100D01*
X461900Y81500D02*
X463200D01*
X462000Y81600D02*
X463200D01*
X462000Y81700D02*
X463300D01*
X462100Y81800D02*
X463300D01*
X462100Y81900D02*
X463400D01*
X462200Y82000D02*
X463400D01*
X462200Y82100D02*
X463500D01*
X462300Y82200D02*
X463600D01*
X462400Y82300D02*
X463600D01*
X462400Y82400D02*
X463700D01*
X462500Y82500D02*
X463700D01*
X462500Y82600D02*
X463800D01*
X462600Y82700D02*
X463800D01*
X462600Y82800D02*
X463900D01*
X462700Y82900D02*
X463900D01*
X462700Y83000D02*
X464000D01*
X459500Y77100D02*
X460700D01*
X459500Y77200D02*
X460800D01*
X459600Y77300D02*
X460800D01*
X459600Y77400D02*
X460900D01*
X459700Y77500D02*
X461000D01*
X463500Y69700D02*
X465600D01*
X463600Y69800D02*
X465700D01*
X463600Y69900D02*
X465800D01*
X463700Y70000D02*
X465800D01*
X463700Y70100D02*
X465900D01*
X463700Y70200D02*
X466000D01*
X463800Y70300D02*
X466100D01*
X463800Y70400D02*
X466200D01*
X463900Y70500D02*
X466300D01*
X463900Y70600D02*
X466400D01*
X463900Y70700D02*
X466400D01*
X464000Y70800D02*
X466500D01*
X464000Y70900D02*
X466600D01*
X465300Y71000D02*
X466700D01*
X464100D02*
X465200D01*
X465400Y71100D02*
X466800D01*
X464100D02*
X465300D01*
X465500Y71200D02*
X466900D01*
X464100D02*
X465300D01*
X465600Y71300D02*
X466900D01*
X464200D02*
X465400D01*
X465700Y71500D02*
X467100D01*
X464300D02*
X465400D01*
X465800Y71600D02*
X467200D01*
X464300D02*
X465500D01*
X465900Y71700D02*
X467300D01*
X464300D02*
X465500D01*
X464400Y71800D02*
X465600D01*
X464400Y71900D02*
X465600D01*
X464500Y72000D02*
X465600D01*
X464500Y72100D02*
X465700D01*
X462800Y75000D02*
X463900D01*
X465800Y75100D02*
X467000D01*
X462800D02*
X464000D01*
X465900Y75200D02*
X467100D01*
X462800D02*
X464000D01*
X465900Y75300D02*
X467100D01*
X462900D02*
X464000D01*
X466000Y75400D02*
X467100D01*
X462900D02*
X464100D01*
X466000Y75500D02*
X467200D01*
X462900D02*
X464100D01*
X466000Y75600D02*
X467200D01*
X463000D02*
X464100D01*
X466100Y75700D02*
X467300D01*
X463000D02*
X464200D01*
X466100Y75800D02*
X467300D01*
X463100D02*
X464200D01*
X466200Y75900D02*
X467300D01*
X463100D02*
X464300D01*
X463100Y76000D02*
X464300D01*
X463200Y76100D02*
X464300D01*
X463200Y76200D02*
X464400D01*
X463200Y76300D02*
X464400D01*
X463300Y76400D02*
X464400D01*
X463300Y76500D02*
X464500D01*
X463400Y76600D02*
X464500D01*
X463400Y76700D02*
X464600D01*
X463400Y76800D02*
X464600D01*
X463500Y76900D02*
X464600D01*
X463500Y77000D02*
X464700D01*
X463500Y77100D02*
X464700D01*
X463600Y77200D02*
X464700D01*
X463600Y77300D02*
X464800D01*
X463600Y77400D02*
X464800D01*
X463700Y77500D02*
X464800D01*
X465600Y71400D02*
X467000D01*
X464200D02*
X465400D01*
X462200Y72200D02*
X465700D01*
X462100Y72300D02*
X465800D01*
X462000Y72400D02*
X465800D01*
X462000Y72500D02*
X465800D01*
X462000Y72600D02*
X465900D01*
X462000Y72700D02*
X465900D01*
X462000Y72800D02*
X465800D01*
X462000Y72900D02*
X465800D01*
X462000Y73000D02*
X465700D01*
X462100Y73100D02*
X465600D01*
X462100Y73200D02*
X465400D01*
X462200Y73300D02*
X463300D01*
X462200Y73400D02*
X463400D01*
X462200Y73500D02*
X463400D01*
X462300Y73600D02*
X463400D01*
X462300Y73700D02*
X463500D01*
X462300Y73800D02*
X463500D01*
X462400Y73900D02*
X463500D01*
X462400Y74000D02*
X463600D01*
X462400Y74100D02*
X463600D01*
X462500Y74200D02*
X463600D01*
X462500Y74300D02*
X463700D01*
X462500Y74400D02*
X463700D01*
X462600Y74500D02*
X463800D01*
X462600Y74600D02*
X463800D01*
X462700Y74700D02*
X463800D01*
X462700Y74800D02*
X463900D01*
X462700Y74900D02*
X463900D01*
X463200Y67500D02*
X463600D01*
X463100Y67600D02*
X463800D01*
X463000Y67700D02*
X463900D01*
X462900Y67800D02*
X464000D01*
X462900Y67900D02*
X464100D01*
X462900Y68000D02*
X464100D01*
X462900Y68100D02*
X464200D01*
X462900Y68200D02*
X464300D01*
X463000Y68300D02*
X464400D01*
X463000Y68400D02*
X464500D01*
X463100Y68500D02*
X464600D01*
X463100Y68600D02*
X464700D01*
X463100Y68700D02*
X464700D01*
X463200Y68800D02*
X464800D01*
X463200Y68900D02*
X464900D01*
X463300Y69000D02*
X465000D01*
X463300Y69100D02*
X465100D01*
X463300Y69200D02*
X465200D01*
X463400Y69300D02*
X465200D01*
X463400Y69400D02*
X465300D01*
X463500Y69500D02*
X465400D01*
X455400Y69700D02*
X456600D01*
X455400Y69800D02*
X456700D01*
X455500Y69900D02*
X456700D01*
X455500Y70000D02*
X456800D01*
X455600Y70100D02*
X456800D01*
X455600Y70200D02*
X456900D01*
X455700Y70300D02*
X456900D01*
X455700Y70400D02*
X457000D01*
X455800Y70500D02*
X457100D01*
X455900Y70600D02*
X457100D01*
X455900Y70700D02*
X457200D01*
X456000Y70800D02*
X457200D01*
X456000Y70900D02*
X457300D01*
X456100Y71000D02*
X457300D01*
X456100Y71100D02*
X457400D01*
X456200Y71200D02*
X457400D01*
X456200Y71300D02*
X457500D01*
X456300Y71500D02*
X457600D01*
X456400Y71600D02*
X457700D01*
X456500Y71700D02*
X457700D01*
X456500Y71800D02*
X457800D01*
X456600Y71900D02*
X457800D01*
X456600Y72000D02*
X457900D01*
X456700Y72100D02*
X457900D01*
X456700Y72200D02*
X458000D01*
X456800Y72300D02*
X458000D01*
X456800Y72400D02*
X458100D01*
X456900Y72500D02*
X458200D01*
X457000Y72600D02*
X458200D01*
X457000Y72700D02*
X458300D01*
X457100Y72800D02*
X458300D01*
X457100Y72900D02*
X458400D01*
X457200Y73000D02*
X458400D01*
X457200Y73100D02*
X458500D01*
X457300Y73200D02*
X458500D01*
X457300Y73300D02*
X458600D01*
X457400Y73400D02*
X458700D01*
X457500Y73500D02*
X458700D01*
X457500Y73600D02*
X458800D01*
X457600Y73700D02*
X458800D01*
X457600Y73800D02*
X458900D01*
X457700Y73900D02*
X458900D01*
X457700Y74000D02*
X459000D01*
X457800Y74100D02*
X459000D01*
X457800Y74200D02*
X459100D01*
X457900Y74300D02*
X459200D01*
X458000Y74400D02*
X459200D01*
X458000Y74500D02*
X459300D01*
X458100Y74600D02*
X459300D01*
X456300Y71400D02*
X457500D01*
X454800Y66700D02*
X456300D01*
X454800Y68600D02*
X456000D01*
X454800Y68700D02*
X456100D01*
X454900Y68800D02*
X456100D01*
X454900Y68900D02*
X456200D01*
X455000Y69000D02*
X456200D01*
X455000Y69100D02*
X456300D01*
X455100Y69200D02*
X456300D01*
X455100Y69300D02*
X456400D01*
X455200Y69400D02*
X456400D01*
X455200Y69500D02*
X456500D01*
X454700Y66800D02*
X456100D01*
X454600Y66900D02*
X455900D01*
X454600Y67000D02*
X455800D01*
X454600Y67100D02*
X455700D01*
X454600Y67200D02*
X455700D01*
X454600Y67300D02*
X455600D01*
X454600Y67400D02*
X455600D01*
X454600Y67500D02*
X455600D01*
X454600Y67600D02*
X455600D01*
X454600Y67700D02*
X455600D01*
X454600Y67800D02*
X455600D01*
X454600Y67900D02*
X455600D01*
X454600Y68000D02*
X455700D01*
X454600Y68100D02*
X455700D01*
X454600Y68200D02*
X455800D01*
X454600Y68300D02*
X455800D01*
X454700Y68400D02*
X455900D01*
X454700Y68500D02*
X455900D01*
D19*
X173954Y49942D02*
X175438Y51426D01*
X177665Y49200D01*
X176181Y47716D01*
X176552Y50313D02*
X175810Y49571D01*
X175438Y46974D02*
X173212Y49200D01*
X173954Y45489D01*
X171728Y47716D01*
X209801Y183224D02*
X210326Y183749D01*
X211375D01*
X211900Y183224D01*
Y181125D01*
X211375Y180600D01*
X210326D01*
X209801Y181125D01*
Y182174D01*
X210851D01*
X208751Y180600D02*
Y183749D01*
X206652Y180600D01*
Y183749D01*
X205603D02*
Y180600D01*
X204029D01*
X203504Y181125D01*
Y183224D01*
X204029Y183749D01*
X205603D01*
X196501D02*
X198600D01*
Y182174D01*
X197550Y182699D01*
X197026D01*
X196501Y182174D01*
Y181125D01*
X197026Y180600D01*
X198075D01*
X198600Y181125D01*
X195451Y183749D02*
Y181649D01*
X194402Y180600D01*
X193352Y181649D01*
Y183749D01*
X156960Y78171D02*
Y78913D01*
X157703Y79655D01*
X158445Y79655D01*
X159929Y78171D01*
Y77429D01*
X159187Y76687D01*
X158445Y76687D01*
X157703Y77429D01*
X158445Y78171D01*
X158074Y75574D02*
X155847Y77800D01*
X156589Y74089D01*
X154363Y76316D01*
X153621Y75574D02*
X155847Y73347D01*
X154734Y72234D01*
X153992Y72234D01*
X152508Y73718D01*
Y74460D01*
X153621Y75574D01*
X171700Y79900D02*
X169474Y82126D01*
X168360Y81013D01*
Y80271D01*
X169103Y79529D01*
X169845Y79529D01*
X170958Y80642D01*
X167247Y79900D02*
X169474Y77674D01*
X167989D01*
Y76189D01*
X165763Y78416D01*
X167247Y75447D02*
X165021Y77674D01*
Y76189D01*
X163537D01*
X165763Y73963D01*
X162794Y75447D02*
X165021Y73221D01*
X163908Y72108D01*
X163165Y72108D01*
X162794Y72479D01*
Y73221D01*
X163908Y74334D01*
X162794Y73221D01*
X162052D01*
X161681Y73592D01*
Y74334D01*
X162794Y75447D01*
X181100Y79300D02*
X178874Y81526D01*
X177760Y80413D01*
Y79671D01*
X178503Y78929D01*
X179245Y78929D01*
X180358Y80042D01*
X176647Y79300D02*
X178874Y77074D01*
X177389D01*
Y75589D01*
X175163Y77816D01*
X176647Y74847D02*
X174421Y77074D01*
Y75589D01*
X172937D01*
X175163Y73363D01*
X172194Y74847D02*
X170710Y73363D01*
X171452Y74105D01*
X173679Y71879D01*
X184676Y78501D02*
X184151Y79026D01*
Y80075D01*
X184676Y80600D01*
X186775D01*
X187300Y80075D01*
Y79026D01*
X186775Y78501D01*
X185726D01*
Y79550D01*
X187300Y77451D02*
X184151D01*
X187300Y75352D01*
X184151D01*
Y74303D02*
X187300D01*
Y72729D01*
X186775Y72204D01*
X184676D01*
X184151Y72729D01*
Y74303D01*
X184589Y49342D02*
X186074Y50826D01*
X187187Y49713D01*
X186074Y49342D01*
X185703Y48971D01*
Y48229D01*
X186445Y47487D01*
X187187Y47487D01*
X187929Y48229D01*
Y48971D01*
X183847Y48600D02*
X185331Y47116D01*
Y45632D01*
X183847D01*
X182363Y47116D01*
X165760Y49971D02*
Y50713D01*
X166502Y51455D01*
X167245Y51455D01*
X167616Y51084D01*
X167616Y50342D01*
X166874Y49600D01*
X166874Y48858D01*
X167245Y48487D01*
X167987Y48487D01*
X168729Y49229D01*
Y49971D01*
X163534Y48487D02*
X164276Y49229D01*
X165018Y49229D01*
X166502Y47745D01*
Y47003D01*
X165760Y46260D01*
X165018Y46260D01*
X163534Y47745D01*
Y48487D01*
X160937Y45889D02*
X162421Y47374D01*
X163534Y46260D01*
X162792Y45518D01*
X163534Y46260D01*
X164647Y45147D01*
X160194D02*
X158710Y43663D01*
X159452Y44405D01*
X161679Y42179D01*
X154260Y49571D02*
Y50313D01*
X155002Y51055D01*
X155745Y51055D01*
X156116Y50684D01*
X156116Y49942D01*
X155374Y49200D01*
X155374Y48458D01*
X155745Y48087D01*
X156487Y48087D01*
X157229Y48829D01*
Y49571D01*
X152034Y47345D02*
Y48087D01*
X152776Y48829D01*
X153518Y48829D01*
X155002Y47345D01*
Y46602D01*
X154260Y45860D01*
X153518Y45860D01*
X153147Y44747D02*
X150921Y46974D01*
X149808Y45860D01*
Y45118D01*
X150550Y44376D01*
X151292Y44376D01*
X152405Y45489D01*
X210700Y94000D02*
Y97149D01*
X209126D01*
X208601Y96624D01*
Y95574D01*
X209126Y95050D01*
X210700D01*
X209650D02*
X208601Y94000D01*
X207551Y96624D02*
X207027Y97149D01*
X205977D01*
X205452Y96624D01*
Y96099D01*
X205977Y95574D01*
X206502D01*
X205977D01*
X205452Y95050D01*
Y94525D01*
X205977Y94000D01*
X207027D01*
X207551Y94525D01*
X204403Y96624D02*
X203878Y97149D01*
X202829D01*
X202304Y96624D01*
Y94525D01*
X202829Y94000D01*
X203878D01*
X204403Y94525D01*
Y96624D01*
X186501Y44449D02*
X187550D01*
X187026D01*
Y41825D01*
X187550Y41300D01*
X188075D01*
X188600Y41825D01*
X183877Y41300D02*
Y44449D01*
X185451Y42874D01*
X183352D01*
X154900Y126749D02*
Y124125D01*
X154375Y123600D01*
X153326D01*
X152801Y124125D01*
Y126749D01*
X151751D02*
X149652D01*
Y126224D01*
X151751Y124125D01*
Y123600D01*
X220600Y108449D02*
Y105825D01*
X220075Y105300D01*
X219026D01*
X218501Y105825D01*
Y108449D01*
X215352D02*
X216402Y107924D01*
X217451Y106874D01*
Y105825D01*
X216927Y105300D01*
X215877D01*
X215352Y105825D01*
Y106350D01*
X215877Y106874D01*
X217451D01*
X242900Y109600D02*
X246049D01*
Y111174D01*
X245524Y111699D01*
X244474D01*
X243950Y111174D01*
Y109600D01*
Y110650D02*
X242900Y111699D01*
Y114848D02*
Y112749D01*
X244999Y114848D01*
X245524D01*
X246049Y114323D01*
Y113273D01*
X245524Y112749D01*
X243425Y115897D02*
X242900Y116422D01*
Y117472D01*
X243425Y117996D01*
X245524D01*
X246049Y117472D01*
Y116422D01*
X245524Y115897D01*
X244999D01*
X244474Y116422D01*
Y117996D01*
X247200Y89049D02*
Y85900D01*
X245626D01*
X245101Y86425D01*
Y88524D01*
X245626Y89049D01*
X247200D01*
X241952D02*
X243002Y88524D01*
X244051Y87474D01*
Y86425D01*
X243527Y85900D01*
X242477D01*
X241952Y86425D01*
Y86949D01*
X242477Y87474D01*
X244051D01*
X232200Y81849D02*
Y78700D01*
X230626D01*
X230101Y79225D01*
Y81324D01*
X230626Y81849D01*
X232200D01*
X229051D02*
X226952D01*
Y81324D01*
X229051Y79225D01*
Y78700D01*
X167701Y154624D02*
X168226Y155149D01*
X169275D01*
X169800Y154624D01*
Y152525D01*
X169275Y152000D01*
X168226D01*
X167701Y152525D01*
X166651Y154624D02*
X166127Y155149D01*
X165077D01*
X164552Y154624D01*
Y154099D01*
X165077Y153574D01*
X165602D01*
X165077D01*
X164552Y153050D01*
Y152525D01*
X165077Y152000D01*
X166127D01*
X166651Y152525D01*
X163503Y154624D02*
X162978Y155149D01*
X161928D01*
X161404Y154624D01*
Y154099D01*
X161928Y153574D01*
X161404Y153050D01*
Y152525D01*
X161928Y152000D01*
X162978D01*
X163503Y152525D01*
Y153050D01*
X162978Y153574D01*
X163503Y154099D01*
Y154624D01*
X162978Y153574D02*
X161928D01*
X167501Y150224D02*
X168026Y150749D01*
X169075D01*
X169600Y150224D01*
Y148125D01*
X169075Y147600D01*
X168026D01*
X167501Y148125D01*
X166451Y150224D02*
X165927Y150749D01*
X164877D01*
X164352Y150224D01*
Y149699D01*
X164877Y149174D01*
X165402D01*
X164877D01*
X164352Y148650D01*
Y148125D01*
X164877Y147600D01*
X165927D01*
X166451Y148125D01*
X163303Y150749D02*
X161204D01*
Y150224D01*
X163303Y148125D01*
Y147600D01*
X234624Y111299D02*
X235149Y110774D01*
Y109725D01*
X234624Y109200D01*
X232525D01*
X232000Y109725D01*
Y110774D01*
X232525Y111299D01*
X234624Y112349D02*
X235149Y112873D01*
Y113923D01*
X234624Y114448D01*
X234099D01*
X233574Y113923D01*
Y113398D01*
Y113923D01*
X233050Y114448D01*
X232525D01*
X232000Y113923D01*
Y112873D01*
X232525Y112349D01*
X232000Y117596D02*
Y115497D01*
X234099Y117596D01*
X234624D01*
X235149Y117071D01*
Y116022D01*
X234624Y115497D01*
X219401Y79324D02*
X219926Y79849D01*
X220975D01*
X221500Y79324D01*
Y77225D01*
X220975Y76700D01*
X219926D01*
X219401Y77225D01*
X218351Y79324D02*
X217827Y79849D01*
X216777D01*
X216252Y79324D01*
Y78799D01*
X216777Y78274D01*
X217302D01*
X216777D01*
X216252Y77750D01*
Y77225D01*
X216777Y76700D01*
X217827D01*
X218351Y77225D01*
X215203Y79324D02*
X214678Y79849D01*
X213629D01*
X213104Y79324D01*
Y78799D01*
X213629Y78274D01*
X214153D01*
X213629D01*
X213104Y77750D01*
Y77225D01*
X213629Y76700D01*
X214678D01*
X215203Y77225D01*
X224524Y47399D02*
X225049Y46874D01*
Y45825D01*
X224524Y45300D01*
X222425D01*
X221900Y45825D01*
Y46874D01*
X222425Y47399D01*
X224524Y48449D02*
X225049Y48973D01*
Y50023D01*
X224524Y50548D01*
X223999D01*
X223474Y50023D01*
Y49498D01*
Y50023D01*
X222950Y50548D01*
X222425D01*
X221900Y50023D01*
Y48973D01*
X222425Y48449D01*
X221900Y53171D02*
X225049D01*
X223474Y51597D01*
Y53696D01*
X219424Y47399D02*
X219949Y46874D01*
Y45825D01*
X219424Y45300D01*
X217325D01*
X216800Y45825D01*
Y46874D01*
X217325Y47399D01*
X219424Y48449D02*
X219949Y48973D01*
Y50023D01*
X219424Y50548D01*
X218899D01*
X218374Y50023D01*
Y49498D01*
Y50023D01*
X217849Y50548D01*
X217325D01*
X216800Y50023D01*
Y48973D01*
X217325Y48449D01*
X219949Y53696D02*
Y51597D01*
X218374D01*
X218899Y52647D01*
Y53171D01*
X218374Y53696D01*
X217325D01*
X216800Y53171D01*
Y52122D01*
X217325Y51597D01*
X214424Y47399D02*
X214949Y46874D01*
Y45825D01*
X214424Y45300D01*
X212325D01*
X211800Y45825D01*
Y46874D01*
X212325Y47399D01*
X214424Y48449D02*
X214949Y48973D01*
Y50023D01*
X214424Y50548D01*
X213899D01*
X213374Y50023D01*
Y49498D01*
Y50023D01*
X212849Y50548D01*
X212325D01*
X211800Y50023D01*
Y48973D01*
X212325Y48449D01*
X214949Y53696D02*
X214424Y52647D01*
X213374Y51597D01*
X212325D01*
X211800Y52122D01*
Y53171D01*
X212325Y53696D01*
X212849D01*
X213374Y53171D01*
Y51597D01*
X255600Y71700D02*
Y74849D01*
X254026D01*
X253501Y74324D01*
Y73274D01*
X254026Y72750D01*
X255600D01*
X254551D02*
X253501Y71700D01*
X250352D02*
X252451D01*
X250352Y73799D01*
Y74324D01*
X250877Y74849D01*
X251927D01*
X252451Y74324D01*
X247204Y74849D02*
X249303D01*
Y73274D01*
X248253Y73799D01*
X247728D01*
X247204Y73274D01*
Y72225D01*
X247728Y71700D01*
X248778D01*
X249303Y72225D01*
X245900Y78000D02*
Y81149D01*
X244326D01*
X243801Y80624D01*
Y79574D01*
X244326Y79049D01*
X245900D01*
X244850D02*
X243801Y78000D01*
X240652D02*
X242751D01*
X240652Y80099D01*
Y80624D01*
X241177Y81149D01*
X242227D01*
X242751Y80624D01*
X239603Y81149D02*
X237504D01*
Y80624D01*
X239603Y78525D01*
Y78000D01*
X294300Y151000D02*
Y154149D01*
X292726D01*
X292201Y153624D01*
Y152574D01*
X292726Y152050D01*
X294300D01*
X293250D02*
X292201Y151000D01*
X289052D02*
X291151D01*
X289052Y153099D01*
Y153624D01*
X289577Y154149D01*
X290627D01*
X291151Y153624D01*
X286428Y151000D02*
Y154149D01*
X288003Y152574D01*
X285904D01*
X254600Y153200D02*
Y156349D01*
X253026D01*
X252501Y155824D01*
Y154774D01*
X253026Y154250D01*
X254600D01*
X253551D02*
X252501Y153200D01*
X249352D02*
X251451D01*
X249352Y155299D01*
Y155824D01*
X249877Y156349D01*
X250927D01*
X251451Y155824D01*
X246204Y156349D02*
X247253Y155824D01*
X248303Y154774D01*
Y153725D01*
X247778Y153200D01*
X246728D01*
X246204Y153725D01*
Y154250D01*
X246728Y154774D01*
X248303D01*
X245200Y162600D02*
Y165749D01*
X243626D01*
X243101Y165224D01*
Y164174D01*
X243626Y163649D01*
X245200D01*
X244150D02*
X243101Y162600D01*
X239952D02*
X242051D01*
X239952Y164699D01*
Y165224D01*
X240477Y165749D01*
X241527D01*
X242051Y165224D01*
X238903D02*
X238378Y165749D01*
X237329D01*
X236804Y165224D01*
Y164699D01*
X237329Y164174D01*
X236804Y163649D01*
Y163125D01*
X237329Y162600D01*
X238378D01*
X238903Y163125D01*
Y163649D01*
X238378Y164174D01*
X238903Y164699D01*
Y165224D01*
X238378Y164174D02*
X237329D01*
X320901Y115125D02*
Y117224D01*
X321426Y117749D01*
X322475D01*
X323000Y117224D01*
Y115125D01*
X322475Y114600D01*
X321426D01*
X321951Y115649D02*
X320901Y114600D01*
X321426D02*
X320901Y115125D01*
X317752Y117749D02*
X319851D01*
Y116174D01*
X318802Y116699D01*
X318277D01*
X317752Y116174D01*
Y115125D01*
X318277Y114600D01*
X319327D01*
X319851Y115125D01*
X378301Y114825D02*
Y116924D01*
X378826Y117449D01*
X379875D01*
X380400Y116924D01*
Y114825D01*
X379875Y114300D01*
X378826D01*
X379350Y115349D02*
X378301Y114300D01*
X378826D02*
X378301Y114825D01*
X377251Y116924D02*
X376727Y117449D01*
X375677D01*
X375152Y116924D01*
Y116399D01*
X375677Y115874D01*
X376202D01*
X375677D01*
X375152Y115349D01*
Y114825D01*
X375677Y114300D01*
X376727D01*
X377251Y114825D01*
X321501Y132425D02*
Y134524D01*
X322026Y135049D01*
X323075D01*
X323600Y134524D01*
Y132425D01*
X323075Y131900D01*
X322026D01*
X322551Y132949D02*
X321501Y131900D01*
X322026D02*
X321501Y132425D01*
X318352Y135049D02*
X319402Y134524D01*
X320451Y133474D01*
Y132425D01*
X319927Y131900D01*
X318877D01*
X318352Y132425D01*
Y132949D01*
X318877Y133474D01*
X320451D01*
X378601Y131425D02*
Y133524D01*
X379126Y134049D01*
X380175D01*
X380700Y133524D01*
Y131425D01*
X380175Y130900D01*
X379126D01*
X379650Y131949D02*
X378601Y130900D01*
X379126D02*
X378601Y131425D01*
X375977Y130900D02*
Y134049D01*
X377551Y132474D01*
X375452D01*
X431000Y178449D02*
Y175300D01*
Y176874D01*
X428901D01*
Y178449D01*
Y175300D01*
X427851D02*
X426802D01*
X427327D01*
Y178449D01*
X427851Y177924D01*
X410401Y189449D02*
X412500D01*
Y187874D01*
X411450D01*
X412500D01*
Y186300D01*
X409351D02*
X408302D01*
X408827D01*
Y189449D01*
X409351Y188924D01*
X254849Y94900D02*
X251700D01*
Y96474D01*
X252225Y96999D01*
X254324D01*
X254849Y96474D01*
Y94900D01*
X251700Y99623D02*
X254849D01*
X253274Y98049D01*
Y100148D01*
X252300Y178649D02*
Y175500D01*
X250726D01*
X250201Y176025D01*
Y178124D01*
X250726Y178649D01*
X252300D01*
X247052D02*
X249151D01*
Y177074D01*
X248102Y177599D01*
X247577D01*
X247052Y177074D01*
Y176025D01*
X247577Y175500D01*
X248627D01*
X249151Y176025D01*
D86*
X195400Y63300D02*
X193734D01*
X194567D01*
Y68298D01*
X195400Y67465D01*
X192968Y76898D02*
X196300D01*
Y74399D01*
X194634Y75232D01*
X193801D01*
X192968Y74399D01*
Y72733D01*
X193801Y71900D01*
X195467D01*
X196300Y72733D01*
M02*
