G04*
G04 #@! TF.GenerationSoftware,Altium Limited,Altium Designer,18.0.7 (293)*
G04*
G04 Layer_Physical_Order=1*
G04 Layer_Color=255*
%FSLAX25Y25*%
%MOIN*%
G70*
G01*
G75*
%ADD15C,0.01000*%
%ADD19C,0.02000*%
%ADD22R,0.02362X0.03543*%
%ADD23R,0.08110X0.02362*%
%ADD24R,0.05000X0.04500*%
%ADD25R,0.07087X0.02362*%
%ADD26R,0.07874X0.05906*%
%ADD27R,0.12008X0.05984*%
%ADD28R,0.03937X0.09055*%
%ADD29R,0.03543X0.02362*%
%ADD30R,0.03000X0.03000*%
%ADD31R,0.03000X0.03000*%
%ADD32R,0.01968X0.03937*%
%ADD33R,0.03937X0.01968*%
%ADD34R,0.07874X0.04724*%
%ADD35R,0.04724X0.07874*%
%ADD36R,0.09843X0.07284*%
%ADD62C,0.01500*%
%ADD63R,0.06693X0.06693*%
%ADD64C,0.06693*%
%ADD65C,0.11811*%
%ADD66R,0.06299X0.06299*%
%ADD67C,0.06299*%
%ADD68C,0.11000*%
%ADD69C,0.07087*%
%ADD70R,0.11811X0.11811*%
%ADD71C,0.03150*%
%ADD72C,0.03500*%
G36*
X108000Y517500D02*
X106500D01*
X106000Y517000D01*
Y511500D01*
X98000D01*
Y517000D01*
X97500Y517500D01*
X96204D01*
Y518500D01*
X96113Y518961D01*
X96000Y519129D01*
Y522000D01*
X108000D01*
Y517500D01*
D02*
G37*
G36*
X95000Y505657D02*
X81815D01*
Y505500D01*
X61500Y505500D01*
X61500Y518500D01*
X95000Y518500D01*
X95000Y505657D01*
D02*
G37*
G36*
X106000Y496500D02*
X103500Y494000D01*
X103500Y490000D01*
X94500Y490000D01*
X94500Y444000D01*
X71000Y420500D01*
X71000Y397500D01*
X82000D01*
X82000Y386500D01*
X71000D01*
Y373629D01*
X70887Y373461D01*
X70796Y373000D01*
X70796Y373000D01*
Y367500D01*
X70887Y367039D01*
X71000Y366871D01*
Y355000D01*
X86000D01*
X86000Y345000D01*
X63000Y345000D01*
X63000Y447500D01*
X83000Y467500D01*
Y498500D01*
Y504453D01*
X95000D01*
X95235Y504500D01*
X106000D01*
Y496500D01*
D02*
G37*
G36*
X111500Y485500D02*
X107000D01*
Y489228D01*
X107405D01*
Y492000D01*
Y494772D01*
X107000D01*
Y495871D01*
X107113Y496039D01*
X107204Y496500D01*
X107204Y496500D01*
Y498500D01*
X111500D01*
Y485500D01*
D02*
G37*
G36*
X74000Y468500D02*
X64595D01*
Y481500D01*
X74000D01*
Y468500D01*
D02*
G37*
G36*
X38500Y454703D02*
X37148Y453351D01*
X36887Y452961D01*
X36796Y452500D01*
X36796Y452500D01*
Y444000D01*
X19500D01*
X19500Y479000D01*
X38500D01*
X38500Y454703D01*
D02*
G37*
G36*
X52000Y453000D02*
X42500Y443500D01*
Y437500D01*
X38000D01*
Y452500D01*
X40677Y455177D01*
X40795D01*
Y455295D01*
X41500Y456000D01*
Y480000D01*
X52000D01*
Y453000D01*
D02*
G37*
G36*
X37000Y408595D02*
X24000D01*
Y418000D01*
X37000D01*
Y408595D01*
D02*
G37*
G36*
X97276Y415724D02*
Y409587D01*
X96000D01*
Y407406D01*
X95000D01*
Y409587D01*
X92728D01*
Y407425D01*
X92266Y407234D01*
X90681Y408819D01*
Y409431D01*
X83319D01*
Y409000D01*
X72500D01*
Y415500D01*
X76000Y419000D01*
X94000D01*
X97276Y415724D01*
D02*
G37*
G36*
X39000Y367094D02*
X26000D01*
Y376500D01*
X39000D01*
Y367094D01*
D02*
G37*
G36*
X98000Y374000D02*
Y368681D01*
X96000D01*
Y366500D01*
X95000D01*
Y368681D01*
X92728D01*
Y366425D01*
X92266Y366234D01*
X91181Y367319D01*
Y367931D01*
X83819D01*
Y367500D01*
X72000D01*
Y373000D01*
X76500Y377500D01*
X94500D01*
X98000Y374000D01*
D02*
G37*
G36*
X35500Y438000D02*
X10500Y413000D01*
Y368000D01*
Y336500D01*
X15439D01*
Y336400D01*
Y324864D01*
X13751Y323175D01*
X13182Y323411D01*
X12000Y323567D01*
X10818Y323411D01*
X9717Y322955D01*
X8771Y322229D01*
X8045Y321283D01*
X7589Y320182D01*
X7433Y319000D01*
X7589Y317818D01*
X8045Y316717D01*
X8771Y315771D01*
X9654Y315093D01*
X9717Y314698D01*
Y313302D01*
X9654Y312907D01*
X8771Y312229D01*
X8045Y311283D01*
X7589Y310182D01*
X7433Y309000D01*
X7589Y307818D01*
X8045Y306717D01*
X8771Y305771D01*
X9654Y305094D01*
X9717Y304698D01*
Y303302D01*
X9654Y302906D01*
X8771Y302229D01*
X8045Y301283D01*
X7589Y300182D01*
X7433Y299000D01*
X7589Y297818D01*
X8045Y296717D01*
X8771Y295771D01*
X9654Y295093D01*
X9717Y294698D01*
Y293302D01*
X9654Y292906D01*
X8771Y292229D01*
X8045Y291283D01*
X7589Y290182D01*
X7433Y289000D01*
X7589Y287818D01*
X8045Y286717D01*
X8771Y285771D01*
X9654Y285093D01*
X9717Y284698D01*
Y283302D01*
X9654Y282907D01*
X8771Y282229D01*
X8045Y281283D01*
X7589Y280182D01*
X7433Y279000D01*
X7589Y277818D01*
X8045Y276717D01*
X8771Y275771D01*
X9654Y275094D01*
X9717Y274698D01*
Y273302D01*
X9654Y272906D01*
X8771Y272229D01*
X8045Y271283D01*
X7589Y270182D01*
X7433Y269000D01*
X7589Y267818D01*
X8045Y266717D01*
X8771Y265771D01*
X9717Y265045D01*
X10818Y264589D01*
X12000Y264433D01*
X13182Y264589D01*
X13751Y264825D01*
X23188Y255388D01*
X23744Y255016D01*
X24400Y254886D01*
X41241D01*
X41434Y254634D01*
X42010Y254193D01*
X42681Y253915D01*
X43400Y253820D01*
X44119Y253915D01*
X44790Y254193D01*
X45366Y254634D01*
X45807Y255210D01*
X46085Y255881D01*
X46180Y256600D01*
X46085Y257319D01*
X45807Y257990D01*
X45366Y258565D01*
X44790Y259007D01*
X44119Y259285D01*
X43400Y259380D01*
X42681Y259285D01*
X42010Y259007D01*
X41434Y258565D01*
X41241Y258314D01*
X25110D01*
X20857Y262566D01*
X21792Y264461D01*
X22000Y264433D01*
X23182Y264589D01*
X24283Y265045D01*
X25229Y265771D01*
X25955Y266717D01*
X26411Y267818D01*
X26567Y269000D01*
X26411Y270182D01*
X25955Y271283D01*
X25229Y272229D01*
X24283Y272955D01*
X23182Y273411D01*
X22000Y273567D01*
X20818Y273411D01*
X19717Y272955D01*
X18771Y272229D01*
X18093Y271346D01*
X17698Y271283D01*
X16302D01*
X15906Y271346D01*
X15229Y272229D01*
X14346Y272906D01*
X14283Y273302D01*
Y274698D01*
X14346Y275094D01*
X15229Y275771D01*
X15955Y276717D01*
X16411Y277818D01*
X16567Y279000D01*
X16411Y280182D01*
X15955Y281283D01*
X15388Y282023D01*
X16723Y283500D01*
X18371D01*
X18539Y283387D01*
X19000Y283296D01*
X44500D01*
X44961Y283387D01*
X45129Y283500D01*
X61863D01*
Y215063D01*
X60136Y213336D01*
X59555Y213398D01*
X58092Y214121D01*
X58019Y214674D01*
X57583Y215727D01*
X56889Y216632D01*
X55984Y217326D01*
X54931Y217762D01*
X53800Y217911D01*
X52670Y217762D01*
X51616Y217326D01*
X50711Y216632D01*
X50017Y215727D01*
X49867Y215365D01*
X47733D01*
X47583Y215727D01*
X46889Y216632D01*
X45984Y217326D01*
X45622Y217476D01*
Y219610D01*
X45984Y219760D01*
X46889Y220455D01*
X47583Y221359D01*
X48019Y222413D01*
X48168Y223543D01*
X48019Y224674D01*
X47583Y225727D01*
X46889Y226632D01*
X45984Y227326D01*
X44930Y227763D01*
X43800Y227911D01*
X42669Y227763D01*
X41616Y227326D01*
X40711Y226632D01*
X40017Y225727D01*
X39867Y225365D01*
X37733D01*
X37583Y225727D01*
X36889Y226632D01*
X35984Y227326D01*
X34931Y227763D01*
X33800Y227911D01*
X32669Y227763D01*
X31616Y227326D01*
X30711Y226632D01*
X30017Y225727D01*
X29867Y225365D01*
X27733D01*
X27583Y225727D01*
X26889Y226632D01*
X25984Y227326D01*
X24930Y227763D01*
X23800Y227911D01*
X22670Y227763D01*
X21616Y227326D01*
X20711Y226632D01*
X20395Y226220D01*
X17553D01*
Y226868D01*
X11647D01*
Y222143D01*
X17553D01*
Y222495D01*
X19553Y222626D01*
X19581Y222413D01*
X20017Y221359D01*
X20711Y220455D01*
X21616Y219760D01*
X21979Y219610D01*
Y217476D01*
X21616Y217326D01*
X20711Y216632D01*
X20017Y215727D01*
X19581Y214674D01*
X19432Y213543D01*
X19581Y212413D01*
X20017Y211359D01*
X20711Y210455D01*
X21616Y209760D01*
X22670Y209324D01*
X23800Y209175D01*
X24930Y209324D01*
X25436Y209534D01*
X26520Y209187D01*
X26882Y208985D01*
X27529Y208425D01*
X27567Y208238D01*
X27938Y207682D01*
X28152Y207469D01*
X28157Y207140D01*
X27397Y205395D01*
X26627Y205413D01*
X26491Y205591D01*
X25878Y206060D01*
X25165Y206356D01*
X24400Y206456D01*
X23635Y206356D01*
X22922Y206060D01*
X22309Y205591D01*
X21840Y204978D01*
X21544Y204265D01*
X21444Y203500D01*
X21544Y202735D01*
X21840Y202022D01*
X22309Y201410D01*
X22922Y200940D01*
X23635Y200644D01*
X23915Y200607D01*
X24431Y200090D01*
X24766Y199549D01*
X25108Y198620D01*
X25044Y198465D01*
X24944Y197700D01*
X25044Y196935D01*
X25340Y196222D01*
X25809Y195609D01*
X26422Y195140D01*
X26986Y194906D01*
Y187959D01*
X26735Y187766D01*
X26542Y187514D01*
X16206D01*
X15550Y187384D01*
X14994Y187012D01*
X10788Y182807D01*
X10416Y182250D01*
X10286Y181595D01*
Y176528D01*
X7514D01*
Y197290D01*
X13186Y202962D01*
X13500Y202920D01*
X14219Y203015D01*
X14890Y203293D01*
X15465Y203734D01*
X15907Y204310D01*
X16185Y204981D01*
X16280Y205700D01*
X16185Y206419D01*
X15907Y207090D01*
X15465Y207665D01*
X14890Y208107D01*
X14219Y208385D01*
X13500Y208480D01*
X12781Y208385D01*
X12110Y208107D01*
X11535Y207665D01*
X11093Y207090D01*
X10815Y206419D01*
X10720Y205700D01*
X10762Y205386D01*
X4588Y199212D01*
X4216Y198656D01*
X4086Y198000D01*
Y168700D01*
X4216Y168044D01*
X4588Y167488D01*
X4821Y167255D01*
X4687Y166432D01*
X4030Y165218D01*
X3781Y165185D01*
X3110Y164907D01*
X2534Y164465D01*
X2093Y163890D01*
X1815Y163219D01*
X1720Y162500D01*
X1815Y161781D01*
X2093Y161110D01*
X2534Y160535D01*
X3110Y160093D01*
X3781Y159815D01*
X4186Y159762D01*
Y140158D01*
X3934Y139965D01*
X3493Y139390D01*
X3215Y138719D01*
X3120Y138000D01*
X3215Y137281D01*
X3493Y136610D01*
X3934Y136035D01*
X4392Y134897D01*
X4216Y133856D01*
X4086Y133200D01*
Y121346D01*
X4216Y120690D01*
X4588Y120134D01*
X7753Y116969D01*
X8597Y115527D01*
X8045Y114283D01*
X7589Y113182D01*
X7433Y112000D01*
X7589Y110818D01*
X8045Y109717D01*
X8771Y108771D01*
X9717Y108045D01*
X10818Y107589D01*
X12000Y107433D01*
X13182Y107589D01*
X13751Y107825D01*
X16386Y105190D01*
Y99958D01*
X16135Y99765D01*
X15693Y99190D01*
X15415Y98519D01*
X15320Y97800D01*
X15415Y97081D01*
X15693Y96410D01*
X16135Y95834D01*
X16710Y95393D01*
X17381Y95115D01*
X18100Y95020D01*
X18819Y95115D01*
X19490Y95393D01*
X20065Y95834D01*
X20507Y96410D01*
X20785Y97081D01*
X20880Y97800D01*
X20785Y98519D01*
X20507Y99190D01*
X20065Y99765D01*
X19814Y99958D01*
Y105900D01*
X20106Y106392D01*
X20940Y107268D01*
X21377Y107515D01*
X22000Y107433D01*
X23182Y107589D01*
X24283Y108045D01*
X25229Y108771D01*
X25955Y109717D01*
X26411Y110818D01*
X26567Y112000D01*
X26411Y113182D01*
X25955Y114283D01*
X25229Y115229D01*
X24346Y115907D01*
X24283Y116302D01*
Y117698D01*
X24346Y118094D01*
X25229Y118771D01*
X25955Y119717D01*
X26411Y120818D01*
X26433Y120986D01*
X28600D01*
Y91900D01*
X31048D01*
X31876Y89900D01*
X24214Y82238D01*
X23900Y82280D01*
X23181Y82185D01*
X22510Y81907D01*
X21935Y81466D01*
X21493Y80890D01*
X21215Y80219D01*
X21120Y79500D01*
X21215Y78781D01*
X21493Y78110D01*
X21935Y77535D01*
X22510Y77093D01*
X23181Y76815D01*
X23900Y76720D01*
X24619Y76815D01*
X25290Y77093D01*
X25866Y77535D01*
X26307Y78110D01*
X26585Y78781D01*
X26680Y79500D01*
X26638Y79814D01*
X35410Y88586D01*
X44442D01*
X44635Y88335D01*
X45210Y87893D01*
X45881Y87615D01*
X46600Y87520D01*
X47319Y87615D01*
X47990Y87893D01*
X48566Y88335D01*
X49007Y88910D01*
X49285Y89581D01*
X49380Y90300D01*
X50756Y91739D01*
X51085Y91900D01*
X65800D01*
X65800Y49004D01*
X58131D01*
X57691Y48917D01*
X49909D01*
X49469Y49004D01*
X49341D01*
X48031Y50895D01*
X48031Y51004D01*
X48168Y52043D01*
X48019Y53174D01*
X47583Y54227D01*
X46889Y55132D01*
X45984Y55826D01*
X44930Y56262D01*
X43800Y56411D01*
X42669Y56262D01*
X42200Y56068D01*
X32555Y65712D01*
X31999Y66084D01*
X31343Y66214D01*
X8010D01*
X7614Y66610D01*
Y68915D01*
X7865Y69108D01*
X8307Y69683D01*
X8585Y70354D01*
X8680Y71073D01*
X8585Y71792D01*
X8307Y72463D01*
X7865Y73039D01*
X7290Y73480D01*
X6619Y73758D01*
X5900Y73853D01*
X5181Y73758D01*
X4510Y73480D01*
X3934Y73039D01*
X3493Y72463D01*
X3215Y71792D01*
X3120Y71073D01*
X3215Y70354D01*
X3493Y69683D01*
X3934Y69108D01*
X4186Y68915D01*
Y65900D01*
X4316Y65244D01*
X4688Y64688D01*
X6088Y63288D01*
X6644Y62916D01*
X7300Y62786D01*
X7734D01*
X8178Y62477D01*
X9320Y60900D01*
X9415Y60181D01*
X9693Y59510D01*
X10135Y58934D01*
X10710Y58493D01*
X11381Y58215D01*
X12100Y58120D01*
X12819Y58215D01*
X13490Y58493D01*
X14065Y58934D01*
X14258Y59186D01*
X23438D01*
X24028Y58385D01*
X23977Y57939D01*
X23070Y56315D01*
X22670Y56262D01*
X21616Y55826D01*
X20711Y55132D01*
X20017Y54227D01*
X19581Y53174D01*
X19432Y52043D01*
X19569Y51004D01*
X19568Y50895D01*
X18259Y49004D01*
X13144D01*
X13028Y48981D01*
X12909D01*
X12800Y48936D01*
X12683Y48913D01*
X12585Y48847D01*
X12475Y48801D01*
X12391Y48717D01*
X12365Y48700D01*
X8035D01*
X8009Y48717D01*
X7925Y48801D01*
X7815Y48847D01*
X7717Y48913D01*
X7600Y48936D01*
X7491Y48981D01*
X7372D01*
X7256Y49004D01*
X-1500D01*
X-3500Y51004D01*
X-3500Y325000D01*
X-3500D01*
X-3500Y419000D01*
X20000Y442500D01*
X35500D01*
Y438000D01*
D02*
G37*
G36*
X44500Y395500D02*
X44500Y393500D01*
Y306000D01*
X82200D01*
X90400Y297800D01*
Y165527D01*
X89969Y165362D01*
Y165362D01*
X89011D01*
X88800Y165404D01*
X75670D01*
X75637Y165904D01*
X75719Y165915D01*
X76390Y166193D01*
X76965Y166635D01*
X77407Y167210D01*
X77685Y167881D01*
X77780Y168600D01*
X77685Y169319D01*
X77407Y169990D01*
X77049Y170457D01*
X77169Y170824D01*
X77273Y170957D01*
X80118D01*
Y178043D01*
X69882D01*
Y170957D01*
X72727D01*
X72831Y170824D01*
X72951Y170457D01*
X72593Y169990D01*
X72315Y169319D01*
X72220Y168600D01*
X72315Y167881D01*
X72593Y167210D01*
X73035Y166635D01*
X73610Y166193D01*
X74281Y165915D01*
X74363Y165904D01*
X74330Y165404D01*
X67700D01*
X67239Y165313D01*
X66848Y165051D01*
X47548Y145752D01*
X47287Y145361D01*
X47196Y144900D01*
X47196Y144900D01*
X47196Y134600D01*
X47287Y134139D01*
X47347Y134050D01*
Y133438D01*
X48189D01*
X48400Y133396D01*
X53577D01*
X53821Y133053D01*
X53874Y132896D01*
X53796Y132500D01*
Y131942D01*
X53753Y131916D01*
X53253Y132200D01*
Y132257D01*
X47347D01*
Y127532D01*
X47347D01*
X47468Y127241D01*
X46641Y126414D01*
X29800D01*
Y137694D01*
X30059Y137952D01*
X30430Y138508D01*
X30560Y139164D01*
Y146856D01*
X46695Y162991D01*
X47157Y162799D01*
Y155382D01*
X54243D01*
Y165618D01*
X53030D01*
X52783Y166118D01*
X53007Y166410D01*
X53285Y167081D01*
X53380Y167800D01*
X53285Y168519D01*
X53641Y168968D01*
X54000Y168920D01*
X54719Y169015D01*
X55390Y169293D01*
X55966Y169735D01*
X56407Y170310D01*
X56685Y170981D01*
X56780Y171700D01*
X56685Y172419D01*
X56407Y173090D01*
X55966Y173665D01*
X55390Y174107D01*
X54719Y174385D01*
X54000Y174480D01*
X53281Y174385D01*
X52610Y174107D01*
X52034Y173665D01*
X51841Y173414D01*
X50152D01*
X49496Y173284D01*
X48940Y172912D01*
X46297Y170270D01*
X45874Y170553D01*
X45885Y170581D01*
X45980Y171300D01*
X45885Y172019D01*
X45607Y172690D01*
X45166Y173266D01*
X44590Y173707D01*
X43919Y173985D01*
X43200Y174080D01*
X42481Y173985D01*
X41827Y173714D01*
X39453D01*
Y177857D01*
X33547D01*
Y177718D01*
X29827D01*
X29800Y177745D01*
Y183130D01*
X30137Y183317D01*
X30595Y183068D01*
Y183035D01*
X34925D01*
Y183625D01*
D01*
Y189335D01*
X34488D01*
X34297Y189797D01*
X38165Y193665D01*
X42406D01*
Y196556D01*
X50635Y204786D01*
X74341D01*
X74534Y204535D01*
X75110Y204093D01*
X75781Y203815D01*
X76500Y203720D01*
X77219Y203815D01*
X77890Y204093D01*
X78465Y204535D01*
X78907Y205110D01*
X79185Y205781D01*
X79280Y206500D01*
X79185Y207219D01*
X78907Y207890D01*
X78640Y208238D01*
X78887Y208738D01*
X79353D01*
Y213462D01*
X73447D01*
Y208738D01*
X73551D01*
X73829Y208238D01*
X73814Y208214D01*
X59367D01*
X59176Y208676D01*
X63000Y212500D01*
Y214726D01*
X63067Y215063D01*
X63067Y215063D01*
Y218267D01*
X63200Y218400D01*
Y284500D01*
X62492D01*
X62324Y284613D01*
X61863Y284704D01*
X45129D01*
X45013Y284681D01*
X44894D01*
X44785Y284636D01*
X44668Y284613D01*
X44570Y284547D01*
X44527Y284529D01*
X44500Y284524D01*
Y284500D01*
X19000D01*
Y305030D01*
X19448Y305251D01*
X19717Y305045D01*
X20818Y304589D01*
X22000Y304433D01*
X23182Y304589D01*
X24283Y305045D01*
X25229Y305771D01*
X25405Y306000D01*
X41500D01*
Y347500D01*
X37000Y352000D01*
X29000D01*
Y355500D01*
X37000D01*
X37638Y356138D01*
X37724D01*
Y356224D01*
X41000Y359500D01*
X41000Y387000D01*
X29000Y387000D01*
X29000Y397000D01*
X43000D01*
X44500Y395500D01*
D02*
G37*
G36*
X374000Y202000D02*
X320000Y148000D01*
X233700Y148000D01*
X233700Y204300D01*
X340800Y204300D01*
X352500Y216000D01*
X352500Y237500D01*
X374000D01*
X374000Y202000D01*
D02*
G37*
G36*
X40793Y169910D02*
X41234Y169334D01*
X41810Y168893D01*
X42481Y168615D01*
X43200Y168520D01*
X43919Y168615D01*
X43947Y168626D01*
X44230Y168202D01*
X30262Y154234D01*
X29800Y154426D01*
Y170286D01*
X40637D01*
X40793Y169910D01*
D02*
G37*
G36*
X88800Y146800D02*
X79100D01*
X77947Y145647D01*
X77700Y145680D01*
X77095Y145600D01*
X68300D01*
Y149200D01*
X88800D01*
Y146800D01*
D02*
G37*
G36*
X423500Y132500D02*
X386500Y95500D01*
X228500D01*
X168500Y155500D01*
Y163500D01*
X164500D01*
Y146500D01*
X117000D01*
Y164500D01*
X131000D01*
Y185500D01*
X220500D01*
Y148000D01*
X228000Y140500D01*
X326500D01*
X380000Y194000D01*
Y201705D01*
X380029Y202000D01*
X380029Y237500D01*
X380000Y237794D01*
X380000Y242000D01*
Y290500D01*
X423500D01*
X423500Y132500D01*
D02*
G37*
G36*
X75600Y140500D02*
Y134700D01*
X72500D01*
X72400Y134800D01*
Y136500D01*
X70781Y138119D01*
Y138981D01*
X69919D01*
X69300Y139600D01*
X62100D01*
Y142600D01*
X62500Y143000D01*
X73100D01*
X75600Y140500D01*
D02*
G37*
G36*
X60256Y142600D02*
X60256Y140244D01*
X60896Y139604D01*
Y139600D01*
X60947Y139341D01*
Y139038D01*
X61055D01*
X61248Y138749D01*
X61639Y138487D01*
X62100Y138396D01*
X68801D01*
X69067Y138130D01*
X69458Y137868D01*
X69634Y137834D01*
X69669Y137658D01*
X69930Y137267D01*
X70000Y137197D01*
Y134700D01*
X69900Y134600D01*
X66300D01*
X65900Y135000D01*
X61300D01*
X60900Y135400D01*
X59753Y136547D01*
Y138162D01*
X56538D01*
X55600Y139100D01*
Y142600D01*
X60256Y142600D01*
D02*
G37*
G36*
X88800Y150800D02*
X68500D01*
X68056Y150356D01*
X67839Y150313D01*
X67449Y150051D01*
X67335Y149881D01*
X67219D01*
Y149708D01*
X67187Y149661D01*
X67144Y149444D01*
X66500Y148800D01*
Y146200D01*
X65600Y145300D01*
X55400D01*
X55000Y144900D01*
Y143757D01*
X54547D01*
Y143150D01*
X54487Y143061D01*
X54396Y142600D01*
Y139100D01*
X54396Y139100D01*
X54487Y138639D01*
X54748Y138249D01*
X55000Y137997D01*
Y137000D01*
X56326D01*
X56538Y136958D01*
X56538Y136958D01*
X58267D01*
X58548Y136547D01*
X58600Y136288D01*
Y134700D01*
X58559Y134600D01*
X48400D01*
X48400Y144900D01*
X67700Y164200D01*
X88800D01*
Y150800D01*
D02*
G37*
G36*
X88900Y136700D02*
X81500D01*
X80162Y135362D01*
X79496D01*
Y130862D01*
X79496Y130638D01*
X79496D01*
Y130362D01*
X79496D01*
Y129200D01*
X67800D01*
Y131600D01*
X73400D01*
X75296Y133496D01*
X75600D01*
X76061Y133587D01*
X76108Y133619D01*
X76781D01*
Y134584D01*
X76804Y134700D01*
Y135004D01*
X76900Y135100D01*
Y136800D01*
X79300Y139200D01*
X88900D01*
Y136700D01*
D02*
G37*
G36*
X89969Y135638D02*
X90400Y135473D01*
Y93700D01*
X90300Y93600D01*
X30000D01*
X29804Y93796D01*
Y120986D01*
X47032D01*
Y118762D01*
X46434Y118164D01*
X45956Y118484D01*
X45512Y118572D01*
X45191Y118991D01*
X44578Y119460D01*
X43865Y119756D01*
X43100Y119856D01*
X42335Y119756D01*
X41622Y119460D01*
X41010Y118991D01*
X40540Y118378D01*
X40244Y117665D01*
X40144Y116900D01*
X40244Y116135D01*
X40540Y115422D01*
X41010Y114810D01*
X41622Y114340D01*
X42335Y114044D01*
X43100Y113944D01*
X43135Y113912D01*
Y110275D01*
X49435D01*
Y114605D01*
X48431D01*
X48224Y115105D01*
X48866Y115747D01*
X51757D01*
Y121653D01*
X50210D01*
X50018Y122115D01*
X53334Y125430D01*
X53796Y125239D01*
Y122300D01*
X53887Y121839D01*
X54149Y121449D01*
X54539Y121187D01*
X55000Y121096D01*
X64943Y121096D01*
X65000Y121096D01*
X65418Y121157D01*
Y121179D01*
X65461Y121187D01*
X65851Y121449D01*
X66113Y121839D01*
X66164Y122098D01*
X66647Y122138D01*
X66682Y122138D01*
X67886D01*
Y121700D01*
X68016Y121044D01*
X68388Y120488D01*
X69662Y119214D01*
X69620Y118900D01*
X69715Y118181D01*
X69993Y117510D01*
X70434Y116935D01*
X71010Y116493D01*
X71681Y116215D01*
X72400Y116120D01*
X73119Y116215D01*
X73790Y116493D01*
X74366Y116935D01*
X74807Y117510D01*
X75085Y118181D01*
X75180Y118900D01*
X75085Y119619D01*
X74807Y120290D01*
X74366Y120865D01*
X73790Y121307D01*
X73119Y121585D01*
X72593Y121654D01*
X72553Y122138D01*
X72553D01*
Y126862D01*
X66704D01*
X66204Y127000D01*
X66204Y127906D01*
X66647Y128043D01*
Y128043D01*
X67561D01*
X67800Y127996D01*
X72947D01*
Y127943D01*
X78853D01*
Y127996D01*
X79496D01*
X79957Y128087D01*
X80348Y128349D01*
X80609Y128739D01*
X80700Y129200D01*
Y130362D01*
X80700Y130362D01*
Y130638D01*
X80700Y130638D01*
X80700Y130862D01*
Y134200D01*
Y134301D01*
X81014Y134511D01*
X81014Y134511D01*
X81999Y135496D01*
X88900D01*
X89361Y135587D01*
X89436Y135638D01*
X89969D01*
Y135638D01*
D02*
G37*
G36*
X65000Y122300D02*
X55000Y122300D01*
X55000Y132500D01*
X65000D01*
X65000Y122300D01*
D02*
G37*
G36*
X90500Y34500D02*
X-3499Y34500D01*
X-3499Y47800D01*
X7256D01*
X7590Y47300D01*
X7515Y47119D01*
X7420Y46400D01*
X7515Y45681D01*
X7793Y45010D01*
X8235Y44434D01*
X8810Y43993D01*
X9481Y43715D01*
X10200Y43620D01*
X10919Y43715D01*
X11590Y43993D01*
X12166Y44434D01*
X12607Y45010D01*
X12885Y45681D01*
X12980Y46400D01*
X12885Y47119D01*
X12810Y47300D01*
X13144Y47800D01*
X22852D01*
X23800Y47675D01*
X24748Y47800D01*
X32852D01*
X33800Y47675D01*
X34748Y47800D01*
X42852D01*
X43800Y47675D01*
X44748Y47800D01*
X49469D01*
Y47713D01*
X58131D01*
Y47800D01*
X90500D01*
X90500Y34500D01*
D02*
G37*
G36*
X216900Y102600D02*
Y38100D01*
X156000D01*
Y106500D01*
X136000Y126500D01*
X117000D01*
Y144500D01*
X175000D01*
X216900Y102600D01*
D02*
G37*
G36*
X381300Y36200D02*
X228200D01*
Y83400D01*
X381300D01*
Y36200D01*
D02*
G37*
%LPC*%
G36*
X110087Y494772D02*
X108405D01*
Y492500D01*
X110087D01*
Y494772D01*
D02*
G37*
G36*
Y491500D02*
X108405D01*
Y489228D01*
X110087D01*
Y491500D01*
D02*
G37*
G36*
X22000Y246880D02*
X21281Y246785D01*
X20610Y246507D01*
X20034Y246065D01*
X19593Y245490D01*
X19315Y244819D01*
X19220Y244100D01*
X19262Y243786D01*
X11790Y236314D01*
X8059D01*
X7865Y236565D01*
X7290Y237007D01*
X6619Y237285D01*
X5900Y237380D01*
X5181Y237285D01*
X4510Y237007D01*
X3934Y236565D01*
X3493Y235990D01*
X3215Y235319D01*
X3120Y234600D01*
X3215Y233881D01*
X3493Y233210D01*
X3934Y232634D01*
X4510Y232193D01*
X5181Y231915D01*
X5900Y231820D01*
X6619Y231915D01*
X7290Y232193D01*
X7865Y232634D01*
X8059Y232886D01*
X12500D01*
X13156Y233016D01*
X13712Y233388D01*
X21686Y241362D01*
X22000Y241320D01*
X22719Y241415D01*
X23390Y241693D01*
X23966Y242134D01*
X24407Y242710D01*
X24685Y243381D01*
X24780Y244100D01*
X24685Y244819D01*
X24407Y245490D01*
X23966Y246065D01*
X23390Y246507D01*
X22719Y246785D01*
X22000Y246880D01*
D02*
G37*
G36*
X64700Y115580D02*
X63981Y115485D01*
X63310Y115207D01*
X62735Y114766D01*
X62293Y114190D01*
X62278Y114154D01*
X60065D01*
Y114605D01*
X53765D01*
Y110865D01*
X53765D01*
Y106535D01*
X53765D01*
Y102795D01*
X59567D01*
X59926Y102795D01*
X60257Y102376D01*
X60140Y102078D01*
X60124Y102042D01*
X59844Y101365D01*
X59744Y100600D01*
X59844Y99835D01*
X60140Y99122D01*
X60610Y98510D01*
X61222Y98040D01*
X61935Y97744D01*
X62700Y97644D01*
X63465Y97744D01*
X64178Y98040D01*
X64790Y98510D01*
X65260Y99122D01*
X65556Y99835D01*
X65656Y100600D01*
X65556Y101365D01*
X65260Y102078D01*
X64790Y102690D01*
X64414Y102979D01*
Y103800D01*
X64284Y104456D01*
X63912Y105012D01*
X62752Y106172D01*
X62282Y106486D01*
X62328Y106888D01*
X62365Y106986D01*
X65090D01*
X65606Y106471D01*
X65544Y106000D01*
X65644Y105235D01*
X65940Y104522D01*
X66409Y103910D01*
X67022Y103440D01*
X67735Y103144D01*
X68500Y103044D01*
X69265Y103144D01*
X69978Y103440D01*
X70591Y103910D01*
X70726Y104086D01*
X71957D01*
Y100682D01*
X79043D01*
Y110918D01*
X71957D01*
Y107514D01*
X71033D01*
X70591Y108090D01*
X69978Y108560D01*
X69265Y108856D01*
X68500Y108956D01*
X68029Y108895D01*
X67012Y109912D01*
X66623Y110172D01*
X66549Y110672D01*
X66571Y110762D01*
X66666Y110835D01*
X67107Y111410D01*
X67385Y112081D01*
X67480Y112800D01*
X67385Y113519D01*
X67107Y114190D01*
X66666Y114766D01*
X66090Y115207D01*
X65419Y115485D01*
X64700Y115580D01*
D02*
G37*
G36*
X79600Y121404D02*
X79600Y121404D01*
X77900D01*
X77439Y121313D01*
X77048Y121052D01*
X76249Y120252D01*
X75987Y119861D01*
X75896Y119400D01*
X75896Y119400D01*
Y113600D01*
X75987Y113139D01*
X76249Y112749D01*
X76249Y112749D01*
X77148Y111848D01*
X77539Y111587D01*
X78000Y111496D01*
X78000Y111496D01*
X79700D01*
X79700Y111496D01*
X80161Y111587D01*
X80551Y111848D01*
X80551Y111848D01*
X82291Y113588D01*
X82531Y113749D01*
X83679Y114896D01*
X85900D01*
X86361Y114987D01*
X86436Y115038D01*
X87153D01*
Y119762D01*
X81741D01*
X80452Y121052D01*
X80061Y121313D01*
X79600Y121404D01*
D02*
G37*
G36*
X42753Y104062D02*
X36847D01*
Y99338D01*
X39738D01*
X40288Y98788D01*
X40844Y98416D01*
X41500Y98286D01*
X43141D01*
X43334Y98035D01*
X43910Y97593D01*
X44581Y97315D01*
X45300Y97220D01*
X46019Y97315D01*
X46690Y97593D01*
X47265Y98035D01*
X47707Y98610D01*
X47985Y99281D01*
X48080Y100000D01*
X47985Y100719D01*
X47707Y101390D01*
X47265Y101965D01*
X46690Y102407D01*
X46019Y102685D01*
X45300Y102780D01*
X44581Y102685D01*
X43910Y102407D01*
X43334Y101965D01*
X43253Y101859D01*
X42753Y102029D01*
Y104000D01*
Y104062D01*
D02*
G37*
%LPD*%
G36*
X81300Y118500D02*
X85900D01*
Y116100D01*
X83180D01*
X81680Y114600D01*
X81600D01*
X79700Y112700D01*
X78000D01*
X77100Y113600D01*
Y119400D01*
X77900Y120200D01*
X79600D01*
X81300Y118500D01*
D02*
G37*
%LPC*%
G36*
X43800Y46411D02*
X42669Y46262D01*
X41616Y45826D01*
X40711Y45132D01*
X40017Y44227D01*
X39581Y43174D01*
X39432Y42043D01*
X39581Y40913D01*
X40017Y39859D01*
X40711Y38955D01*
X41616Y38260D01*
X42669Y37824D01*
X43800Y37675D01*
X44930Y37824D01*
X45984Y38260D01*
X46889Y38955D01*
X47583Y39859D01*
X48019Y40913D01*
X48168Y42043D01*
X48019Y43174D01*
X47583Y44227D01*
X46889Y45132D01*
X45984Y45826D01*
X44930Y46262D01*
X43800Y46411D01*
D02*
G37*
G36*
X33800D02*
X32669Y46262D01*
X31616Y45826D01*
X30711Y45132D01*
X30017Y44227D01*
X29581Y43174D01*
X29432Y42043D01*
X29581Y40913D01*
X30017Y39859D01*
X30711Y38955D01*
X31616Y38260D01*
X32669Y37824D01*
X33800Y37675D01*
X34931Y37824D01*
X35984Y38260D01*
X36889Y38955D01*
X37583Y39859D01*
X38019Y40913D01*
X38168Y42043D01*
X38019Y43174D01*
X37583Y44227D01*
X36889Y45132D01*
X35984Y45826D01*
X34931Y46262D01*
X33800Y46411D01*
D02*
G37*
G36*
X335450Y72636D02*
X333645Y72493D01*
X331885Y72071D01*
X330213Y71378D01*
X328670Y70433D01*
X327293Y69257D01*
X326117Y67880D01*
X325172Y66337D01*
X324479Y64665D01*
X324057Y62905D01*
X323914Y61100D01*
X324057Y59295D01*
X324479Y57535D01*
X325172Y55863D01*
X326117Y54320D01*
X327293Y52943D01*
X328670Y51767D01*
X330213Y50822D01*
X331885Y50129D01*
X333645Y49707D01*
X335450Y49564D01*
X337255Y49707D01*
X339015Y50129D01*
X340687Y50822D01*
X342230Y51767D01*
X343607Y52943D01*
X344782Y54320D01*
X345728Y55863D01*
X346421Y57535D01*
X346844Y59295D01*
X346986Y61100D01*
X346844Y62905D01*
X346421Y64665D01*
X345728Y66337D01*
X344782Y67880D01*
X343607Y69257D01*
X342230Y70433D01*
X340687Y71378D01*
X339015Y72071D01*
X337255Y72493D01*
X335450Y72636D01*
D02*
G37*
G36*
X309400D02*
X307595Y72493D01*
X305835Y72071D01*
X304163Y71378D01*
X302620Y70433D01*
X301243Y69257D01*
X300067Y67880D01*
X299122Y66337D01*
X298429Y64665D01*
X298007Y62905D01*
X297864Y61100D01*
X298007Y59295D01*
X298429Y57535D01*
X299122Y55863D01*
X300067Y54320D01*
X301243Y52943D01*
X302620Y51767D01*
X304163Y50822D01*
X305835Y50129D01*
X307595Y49707D01*
X309400Y49564D01*
X311205Y49707D01*
X312965Y50129D01*
X314637Y50822D01*
X316180Y51767D01*
X317557Y52943D01*
X318733Y54320D01*
X319678Y55863D01*
X320371Y57535D01*
X320794Y59295D01*
X320936Y61100D01*
X320794Y62905D01*
X320371Y64665D01*
X319678Y66337D01*
X318733Y67880D01*
X317557Y69257D01*
X316180Y70433D01*
X314637Y71378D01*
X312965Y72071D01*
X311205Y72493D01*
X309400Y72636D01*
D02*
G37*
%LPD*%
D15*
X4500Y162500D02*
X5900Y161100D01*
Y138000D02*
Y161100D01*
X22900Y355148D02*
Y356900D01*
X22625Y354874D02*
X22900Y355148D01*
X22625Y352326D02*
Y354874D01*
Y352326D02*
X22900Y352052D01*
Y351200D02*
Y352052D01*
X25700Y351228D02*
Y353600D01*
Y351228D02*
X26300Y350628D01*
X5800Y121346D02*
Y133200D01*
X9753Y137153D01*
X14053D01*
X16847Y139946D01*
Y164007D01*
X14007Y166847D02*
X16847Y164007D01*
X7654Y166847D02*
X14007D01*
X5800Y168700D02*
X7654Y166847D01*
X5800Y168700D02*
Y198000D01*
X10200Y46400D02*
Y49700D01*
X31343Y64500D02*
X43800Y52043D01*
X7300Y64500D02*
X31343D01*
X5900Y65900D02*
X7300Y64500D01*
X5900Y65900D02*
Y71073D01*
X12100Y60900D02*
X24943D01*
X33800Y52043D01*
X41500Y100000D02*
X45300D01*
X39800Y101700D02*
X41500Y100000D01*
X69600Y121700D02*
X72400Y118900D01*
X69600Y121700D02*
Y124500D01*
X56915Y108700D02*
X65800D01*
X68500Y106000D01*
X68700Y105800D01*
X75500D01*
X75000Y174500D02*
X75000Y174500D01*
Y168600D02*
Y174500D01*
X16206Y185800D02*
X28700D01*
X12000Y181595D02*
X16206Y185800D01*
X12000Y172000D02*
Y181595D01*
X14600Y224505D02*
X22838D01*
X23800Y223543D01*
X24400Y256600D02*
X43400D01*
X12000Y269000D02*
X24400Y256600D01*
X5900Y234600D02*
X12500D01*
X22000Y244100D01*
X13200Y341600D02*
Y395605D01*
X26847Y326993D02*
Y331008D01*
X25800Y325946D02*
X26847Y326993D01*
X25800Y322800D02*
Y325946D01*
X22000Y319000D02*
X25800Y322800D01*
X21900Y335954D02*
Y338600D01*
Y335954D02*
X26847Y331008D01*
X29800Y316800D02*
Y324289D01*
X27800Y332882D02*
Y346300D01*
X29800Y333711D02*
Y347128D01*
Y333711D02*
X30847Y332664D01*
Y325336D02*
Y332664D01*
X29800Y324289D02*
X30847Y325336D01*
X27800Y332882D02*
X28846Y331836D01*
Y326164D02*
Y331836D01*
X27800Y325118D02*
X28846Y326164D01*
X27800Y317928D02*
Y325118D01*
X17154Y324153D02*
Y393654D01*
X13200Y341600D02*
X13300Y341500D01*
X46285Y115915D02*
X46609D01*
X49395Y118700D01*
X34700Y90300D02*
X46600D01*
X23900Y79500D02*
X34700Y90300D01*
X18100Y97800D02*
Y105900D01*
X22900Y356900D02*
X24000Y358000D01*
X26800Y316928D02*
X27800Y317928D01*
X26800Y316628D02*
Y316928D01*
X24325Y314154D02*
X26800Y316628D01*
X21500Y366406D02*
X24000Y363906D01*
X22000Y309000D02*
X29800Y316800D01*
X22900Y351200D02*
X27800Y346300D01*
X26300Y350628D02*
X29800Y347128D01*
X17154Y314154D02*
X24325D01*
X12000Y309000D02*
X17154Y314154D01*
X13200Y395605D02*
X23500Y405905D01*
X12000Y319000D02*
X17154Y324153D01*
Y393654D02*
X23500Y400000D01*
X46285Y112440D02*
Y115915D01*
X45300Y116900D02*
X46285Y115915D01*
X43100Y116900D02*
X45300D01*
X16847Y117154D02*
X22000Y112000D01*
X9992Y117154D02*
X16847D01*
X5800Y121346D02*
X9992Y117154D01*
X5800Y198000D02*
X13500Y205700D01*
X24400Y203500D02*
X25200Y202700D01*
X27900Y197700D02*
X28700Y196900D01*
X42500Y172000D02*
X43200Y171300D01*
X22000Y172000D02*
X42500D01*
X12000Y112000D02*
X18100Y105900D01*
X28700Y185800D02*
Y196900D01*
X32760Y202700D02*
Y205284D01*
Y196815D02*
Y202700D01*
X25200D02*
X32760D01*
X62700Y100600D02*
Y103800D01*
X61540Y104960D02*
X62700Y103800D01*
X56915Y104960D02*
X61540D01*
X23438Y52406D02*
X23800Y52043D01*
X64340Y112440D02*
X64700Y112800D01*
X56915Y112440D02*
X64340D01*
X77700Y142900D02*
X77800Y143000D01*
X84732D01*
X28700Y185800D02*
X32375D01*
X32760Y186185D01*
X29150Y208894D02*
X32760Y205284D01*
X29150Y208894D02*
Y218193D01*
X23800Y223543D02*
X29150Y218193D01*
X49925Y206500D02*
X76500D01*
X40240Y196815D02*
X49925Y206500D01*
X76400Y206600D02*
X76500Y206500D01*
X76400Y206600D02*
Y211100D01*
X50600Y160600D02*
X50700Y160500D01*
X50600Y160600D02*
Y167800D01*
X50300Y127649D02*
Y129894D01*
X47351Y124700D02*
X50300Y127649D01*
X26154Y124700D02*
X47351D01*
X53572Y128938D02*
X54528Y129894D01*
X53572Y128092D02*
Y128938D01*
X48180Y122700D02*
X53572Y128092D01*
X12000Y122000D02*
X16847Y126847D01*
X24008D01*
X26154Y124700D01*
X22000Y122000D02*
X22700Y122700D01*
X48180D01*
X54528Y129894D02*
X56800D01*
X22000Y135153D02*
X24836D01*
X28846Y139164D01*
X49080Y167800D02*
X50600D01*
X28846Y147566D02*
X49080Y167800D01*
X28846Y139164D02*
Y147566D01*
X22000Y132000D02*
Y135153D01*
X26847Y139992D02*
Y148395D01*
X50152Y171700D01*
X17154Y137153D02*
X24008D01*
X12000Y132000D02*
X17154Y137153D01*
X50152Y171700D02*
X54000D01*
X24008Y137153D02*
X26847Y139992D01*
X86500Y363500D02*
X87500Y364500D01*
X86500Y405500D02*
X87000Y406000D01*
X94500Y400500D02*
X95500Y401500D01*
D19*
X112000Y374800D02*
Y460500D01*
X97794Y360595D02*
X112000Y374800D01*
X95500Y360595D02*
X97794D01*
X25200Y179200D02*
X28905Y175495D01*
X36500D01*
X75913Y363500D02*
X86500D01*
X75913Y358500D02*
X93406D01*
X95500Y360595D01*
X75913Y405500D02*
X86500D01*
X99500Y466000D02*
X137500Y504000D01*
X99500Y405500D02*
Y466000D01*
X75913Y400500D02*
X94500D01*
X95500Y401500D02*
X99500Y405500D01*
X234000Y504000D02*
X272500Y465500D01*
X137500Y504000D02*
X234000D01*
X112000Y460500D02*
X131000Y479500D01*
D22*
X49395Y118700D02*
D03*
X55300D02*
D03*
X102000Y492000D02*
D03*
X107905D02*
D03*
X34000Y448000D02*
D03*
X39906D02*
D03*
Y440000D02*
D03*
X34000D02*
D03*
D23*
X121268Y128000D02*
D03*
Y133000D02*
D03*
Y138000D02*
D03*
Y143000D02*
D03*
Y148000D02*
D03*
Y153000D02*
D03*
Y158000D02*
D03*
Y163000D02*
D03*
X84732D02*
D03*
Y158000D02*
D03*
Y153000D02*
D03*
Y148000D02*
D03*
Y143000D02*
D03*
Y138000D02*
D03*
Y133000D02*
D03*
Y128000D02*
D03*
D24*
X87500Y364500D02*
D03*
Y373500D02*
D03*
X87000Y406000D02*
D03*
Y415000D02*
D03*
D25*
X33000Y368500D02*
D03*
Y363500D02*
D03*
Y358500D02*
D03*
Y353500D02*
D03*
X75913D02*
D03*
Y358500D02*
D03*
Y363500D02*
D03*
Y368500D02*
D03*
X33000Y410500D02*
D03*
Y405500D02*
D03*
Y400500D02*
D03*
Y395500D02*
D03*
X75913D02*
D03*
Y400500D02*
D03*
Y405500D02*
D03*
Y410500D02*
D03*
D26*
X102000Y501799D02*
D03*
Y514201D02*
D03*
D27*
X89000Y510500D02*
D03*
Y501484D02*
D03*
D28*
X36500Y474496D02*
D03*
X46500D02*
D03*
X56500D02*
D03*
X66500D02*
D03*
X36500Y511504D02*
D03*
X46500D02*
D03*
X56500D02*
D03*
X66500D02*
D03*
D29*
X14600Y218600D02*
D03*
Y224505D02*
D03*
X24000Y363906D02*
D03*
X23500Y405905D02*
D03*
X50300Y129894D02*
D03*
X56800D02*
D03*
X50300Y135800D02*
D03*
X57500Y141394D02*
D03*
Y147300D02*
D03*
X63900Y141400D02*
D03*
Y147306D02*
D03*
X84200Y117400D02*
D03*
Y123305D02*
D03*
X39800Y101700D02*
D03*
Y107606D02*
D03*
X36500Y175495D02*
D03*
Y181400D02*
D03*
X56800Y135800D02*
D03*
X76400Y217005D02*
D03*
Y211100D02*
D03*
X75100Y147900D02*
D03*
Y153805D02*
D03*
X69600Y130405D02*
D03*
Y124500D02*
D03*
X75900Y124400D02*
D03*
Y130306D02*
D03*
X24000Y358000D02*
D03*
X23500Y400000D02*
D03*
X95500Y407406D02*
D03*
Y401500D02*
D03*
Y366500D02*
D03*
Y360595D02*
D03*
D30*
X68100Y136300D02*
D03*
X74100D02*
D03*
D31*
X69900Y141200D02*
D03*
Y147200D02*
D03*
X63200Y136800D02*
D03*
Y130800D02*
D03*
D32*
X40240Y196815D02*
D03*
X36500D02*
D03*
X32760D02*
D03*
Y186185D02*
D03*
X36500D02*
D03*
X40240D02*
D03*
D33*
X46285Y104960D02*
D03*
X46285Y108700D02*
D03*
X46285Y112440D02*
D03*
X56915D02*
D03*
X56915Y108700D02*
D03*
X56915Y104960D02*
D03*
D34*
X75000Y174500D02*
D03*
X60300Y124700D02*
D03*
D35*
X50700Y160500D02*
D03*
X75500Y105800D02*
D03*
D36*
X34693Y460000D02*
D03*
X46307D02*
D03*
D62*
X36500Y201300D02*
X38900Y203700D01*
X36500Y196815D02*
Y201300D01*
X24000Y363906D02*
X32594D01*
X23905Y405500D02*
X33000D01*
X24000Y400500D02*
X33000D01*
X24000Y358000D02*
X32500D01*
D63*
X12000Y172000D02*
D03*
Y329000D02*
D03*
D64*
Y162000D02*
D03*
Y152000D02*
D03*
Y142000D02*
D03*
Y132000D02*
D03*
X22000Y172000D02*
D03*
Y162000D02*
D03*
Y152000D02*
D03*
Y142000D02*
D03*
Y132000D02*
D03*
Y112000D02*
D03*
Y122000D02*
D03*
X12000Y112000D02*
D03*
Y122000D02*
D03*
Y279000D02*
D03*
Y269000D02*
D03*
X22000Y279000D02*
D03*
Y269000D02*
D03*
Y289000D02*
D03*
Y299000D02*
D03*
Y309000D02*
D03*
Y319000D02*
D03*
Y329000D02*
D03*
X12000Y289000D02*
D03*
Y299000D02*
D03*
Y309000D02*
D03*
Y319000D02*
D03*
D65*
X78300Y79900D02*
D03*
X117500Y281000D02*
D03*
X413500Y64500D02*
D03*
Y503000D02*
D03*
X9800D02*
D03*
X197000Y444787D02*
D03*
X349472D02*
D03*
D66*
X53800Y223543D02*
D03*
Y52043D02*
D03*
D67*
X43800Y223543D02*
D03*
X33800D02*
D03*
X53800Y213543D02*
D03*
X43800D02*
D03*
X33800D02*
D03*
X23800D02*
D03*
Y223543D02*
D03*
Y52043D02*
D03*
Y42043D02*
D03*
X33800D02*
D03*
X43800D02*
D03*
X53800D02*
D03*
X33800Y52043D02*
D03*
X43800D02*
D03*
D68*
X309400Y61100D02*
D03*
X335450D02*
D03*
X361500D02*
D03*
X309400Y232600D02*
D03*
X335450D02*
D03*
X361500D02*
D03*
D69*
X298000Y510134D02*
D03*
Y401866D02*
D03*
X141000Y510134D02*
D03*
Y401866D02*
D03*
D70*
X226528Y494000D02*
D03*
X379000D02*
D03*
D71*
X4500Y162500D02*
D03*
X25700Y353600D02*
D03*
X5900Y138000D02*
D03*
X75200Y44550D02*
D03*
Y40700D02*
D03*
X75100Y36850D02*
D03*
X79600D02*
D03*
Y40700D02*
D03*
Y44550D02*
D03*
X66300D02*
D03*
Y40700D02*
D03*
X66200Y36850D02*
D03*
X70700D02*
D03*
Y40700D02*
D03*
Y44550D02*
D03*
X4400Y44800D02*
D03*
Y40950D02*
D03*
Y37100D02*
D03*
X-100D02*
D03*
X0Y40950D02*
D03*
Y44800D02*
D03*
X5900Y71073D02*
D03*
X45300Y100000D02*
D03*
X78900Y114600D02*
D03*
X72400Y118900D02*
D03*
X78800Y118300D02*
D03*
X76700Y159600D02*
D03*
X67300D02*
D03*
X72000D02*
D03*
X75000Y168600D02*
D03*
X25200Y179200D02*
D03*
X43800Y185944D02*
D03*
X43400Y256600D02*
D03*
X5900Y234600D02*
D03*
X22000Y244100D02*
D03*
X21900Y338600D02*
D03*
X13300Y341500D02*
D03*
X81400Y228100D02*
D03*
X77000Y219900D02*
D03*
X88000Y112100D02*
D03*
X84300D02*
D03*
X88000Y108700D02*
D03*
X84300D02*
D03*
X84600Y173300D02*
D03*
X88300D02*
D03*
X84600Y176700D02*
D03*
X88300D02*
D03*
X12100Y60900D02*
D03*
X10200Y46400D02*
D03*
X23900Y79500D02*
D03*
X18100Y97800D02*
D03*
X46600Y90300D02*
D03*
X21500Y367400D02*
D03*
X13500Y205700D02*
D03*
X43200Y171300D02*
D03*
X28700Y185800D02*
D03*
X64700Y112800D02*
D03*
X50600Y167800D02*
D03*
X54000Y171700D02*
D03*
X420001Y216200D02*
D03*
X415001D02*
D03*
X417501D02*
D03*
X412501D02*
D03*
X410001D02*
D03*
X405001D02*
D03*
X407501D02*
D03*
X392501D02*
D03*
X397501D02*
D03*
X395001D02*
D03*
X400001D02*
D03*
X402501D02*
D03*
X382501D02*
D03*
X387501D02*
D03*
X385001D02*
D03*
X390001D02*
D03*
X390001Y213900D02*
D03*
X385001D02*
D03*
X387501D02*
D03*
X382501D02*
D03*
X402501D02*
D03*
X400001D02*
D03*
X395001D02*
D03*
X397501D02*
D03*
X392501D02*
D03*
X407501D02*
D03*
X405001D02*
D03*
X410001D02*
D03*
X412501D02*
D03*
X417501D02*
D03*
X415001D02*
D03*
X420001D02*
D03*
X390001Y211600D02*
D03*
X385001D02*
D03*
X387501D02*
D03*
X382501D02*
D03*
X402501D02*
D03*
X400001D02*
D03*
X395001D02*
D03*
X397501D02*
D03*
X392501D02*
D03*
X407501D02*
D03*
X405001D02*
D03*
X410001D02*
D03*
X412501D02*
D03*
X417501D02*
D03*
X415001D02*
D03*
X420001D02*
D03*
X420001Y223100D02*
D03*
X415000D02*
D03*
X417500D02*
D03*
X412500D02*
D03*
X410001D02*
D03*
X405000D02*
D03*
X407501D02*
D03*
X392500D02*
D03*
X397500D02*
D03*
X395001D02*
D03*
X400000D02*
D03*
X402500D02*
D03*
X382501D02*
D03*
X387501D02*
D03*
X385000D02*
D03*
X390001D02*
D03*
X390001Y220800D02*
D03*
X385001D02*
D03*
X387501D02*
D03*
X382501D02*
D03*
X402501D02*
D03*
X400001D02*
D03*
X395001D02*
D03*
X397501D02*
D03*
X392501D02*
D03*
X407501D02*
D03*
X405001D02*
D03*
X410001D02*
D03*
X412501D02*
D03*
X417501D02*
D03*
X415001D02*
D03*
X420001D02*
D03*
X390001Y218500D02*
D03*
X385001D02*
D03*
X387501D02*
D03*
X382501D02*
D03*
X402501D02*
D03*
X400001D02*
D03*
X395001D02*
D03*
X397501D02*
D03*
X392501D02*
D03*
X407501D02*
D03*
X405001D02*
D03*
X410001D02*
D03*
X412501D02*
D03*
X417501D02*
D03*
X415001D02*
D03*
X420001D02*
D03*
X420001Y230000D02*
D03*
X415000D02*
D03*
X417500D02*
D03*
X412500D02*
D03*
X410001D02*
D03*
X405000D02*
D03*
X407501D02*
D03*
X392500D02*
D03*
X397500D02*
D03*
X395001D02*
D03*
X400000D02*
D03*
X402500D02*
D03*
X382501D02*
D03*
X387501D02*
D03*
X385000D02*
D03*
X390001D02*
D03*
X390001Y227700D02*
D03*
X385000D02*
D03*
X387501D02*
D03*
X382501D02*
D03*
X402500D02*
D03*
X400000D02*
D03*
X395001D02*
D03*
X397500D02*
D03*
X392500D02*
D03*
X407501D02*
D03*
X405000D02*
D03*
X410001D02*
D03*
X412500D02*
D03*
X417500D02*
D03*
X415000D02*
D03*
X420001D02*
D03*
X390001Y225400D02*
D03*
X385000D02*
D03*
X387501D02*
D03*
X382501D02*
D03*
X402500D02*
D03*
X400000D02*
D03*
X395001D02*
D03*
X397500D02*
D03*
X392500D02*
D03*
X407501D02*
D03*
X405000D02*
D03*
X410001D02*
D03*
X412500D02*
D03*
X417500D02*
D03*
X415000D02*
D03*
X420001D02*
D03*
X420000Y236900D02*
D03*
X415000D02*
D03*
X417500D02*
D03*
X412500D02*
D03*
X410000D02*
D03*
X405000D02*
D03*
X407500D02*
D03*
X392500D02*
D03*
X397500D02*
D03*
X395000D02*
D03*
X400000D02*
D03*
X402500D02*
D03*
X382500D02*
D03*
X387500D02*
D03*
X385000D02*
D03*
X390000D02*
D03*
X390000Y234600D02*
D03*
X385000D02*
D03*
X387500D02*
D03*
X382500D02*
D03*
X402500D02*
D03*
X400000D02*
D03*
X395000D02*
D03*
X397500D02*
D03*
X392500D02*
D03*
X407500D02*
D03*
X405000D02*
D03*
X410000D02*
D03*
X412500D02*
D03*
X417500D02*
D03*
X415000D02*
D03*
X420000D02*
D03*
X390001Y232300D02*
D03*
X385000D02*
D03*
X387501D02*
D03*
X382501D02*
D03*
X402500D02*
D03*
X400000D02*
D03*
X395001D02*
D03*
X397500D02*
D03*
X392500D02*
D03*
X407501D02*
D03*
X405000D02*
D03*
X410001D02*
D03*
X412500D02*
D03*
X417500D02*
D03*
X415000D02*
D03*
X420001D02*
D03*
X420000Y243800D02*
D03*
X415000D02*
D03*
X417500D02*
D03*
X412500D02*
D03*
X410000D02*
D03*
X405000D02*
D03*
X407500D02*
D03*
X392500D02*
D03*
X397500D02*
D03*
X395000D02*
D03*
X400000D02*
D03*
X402500D02*
D03*
X382500D02*
D03*
X387500D02*
D03*
X385000D02*
D03*
X390000D02*
D03*
X390000Y241500D02*
D03*
X385000D02*
D03*
X387500D02*
D03*
X382500D02*
D03*
X402500D02*
D03*
X400000D02*
D03*
X395000D02*
D03*
X397500D02*
D03*
X392500D02*
D03*
X407500D02*
D03*
X405000D02*
D03*
X410000D02*
D03*
X412500D02*
D03*
X417500D02*
D03*
X415000D02*
D03*
X420000D02*
D03*
X390000Y239200D02*
D03*
X385000D02*
D03*
X387500D02*
D03*
X382500D02*
D03*
X402500D02*
D03*
X400000D02*
D03*
X395000D02*
D03*
X397500D02*
D03*
X392500D02*
D03*
X407500D02*
D03*
X405000D02*
D03*
X410000D02*
D03*
X412500D02*
D03*
X417500D02*
D03*
X415000D02*
D03*
X420000D02*
D03*
X420000Y250700D02*
D03*
X415000D02*
D03*
X417500D02*
D03*
X412500D02*
D03*
X410000D02*
D03*
X405000D02*
D03*
X407500D02*
D03*
X392500D02*
D03*
X397500D02*
D03*
X395000D02*
D03*
X400000D02*
D03*
X402500D02*
D03*
X382500D02*
D03*
X387500D02*
D03*
X385000D02*
D03*
X390000D02*
D03*
X390000Y248400D02*
D03*
X385000D02*
D03*
X387500D02*
D03*
X382500D02*
D03*
X402500D02*
D03*
X400000D02*
D03*
X395000D02*
D03*
X397500D02*
D03*
X392500D02*
D03*
X407500D02*
D03*
X405000D02*
D03*
X410000D02*
D03*
X412500D02*
D03*
X417500D02*
D03*
X415000D02*
D03*
X420000D02*
D03*
X390000Y246100D02*
D03*
X385000D02*
D03*
X387500D02*
D03*
X382500D02*
D03*
X402500D02*
D03*
X400000D02*
D03*
X395000D02*
D03*
X397500D02*
D03*
X392500D02*
D03*
X407500D02*
D03*
X405000D02*
D03*
X410000D02*
D03*
X412500D02*
D03*
X417500D02*
D03*
X415000D02*
D03*
X420000D02*
D03*
X420000Y257600D02*
D03*
X415000D02*
D03*
X417500D02*
D03*
X412500D02*
D03*
X410000D02*
D03*
X405000D02*
D03*
X407500D02*
D03*
X392500D02*
D03*
X397500D02*
D03*
X395000D02*
D03*
X400000D02*
D03*
X402500D02*
D03*
X382500D02*
D03*
X387500D02*
D03*
X385000D02*
D03*
X390000D02*
D03*
X390000Y255300D02*
D03*
X385000D02*
D03*
X387500D02*
D03*
X382500D02*
D03*
X402500D02*
D03*
X400000D02*
D03*
X395000D02*
D03*
X397500D02*
D03*
X392500D02*
D03*
X407500D02*
D03*
X405000D02*
D03*
X410000D02*
D03*
X412500D02*
D03*
X417500D02*
D03*
X415000D02*
D03*
X420000D02*
D03*
X390000Y253000D02*
D03*
X385000D02*
D03*
X387500D02*
D03*
X382500D02*
D03*
X402500D02*
D03*
X400000D02*
D03*
X395000D02*
D03*
X397500D02*
D03*
X392500D02*
D03*
X407500D02*
D03*
X405000D02*
D03*
X410000D02*
D03*
X412500D02*
D03*
X417500D02*
D03*
X415000D02*
D03*
X420000D02*
D03*
X420000Y264500D02*
D03*
X415000D02*
D03*
X417500D02*
D03*
X412500D02*
D03*
X410000D02*
D03*
X405000D02*
D03*
X407500D02*
D03*
X392500D02*
D03*
X397500D02*
D03*
X395000D02*
D03*
X400000D02*
D03*
X402500D02*
D03*
X382500D02*
D03*
X387500D02*
D03*
X385000D02*
D03*
X390000D02*
D03*
X390000Y262200D02*
D03*
X385000D02*
D03*
X387500D02*
D03*
X382500D02*
D03*
X402500D02*
D03*
X400000D02*
D03*
X395000D02*
D03*
X397500D02*
D03*
X392500D02*
D03*
X407500D02*
D03*
X405000D02*
D03*
X410000D02*
D03*
X412500D02*
D03*
X417500D02*
D03*
X415000D02*
D03*
X420000D02*
D03*
X390000Y259900D02*
D03*
X385000D02*
D03*
X387500D02*
D03*
X382500D02*
D03*
X402500D02*
D03*
X400000D02*
D03*
X395000D02*
D03*
X397500D02*
D03*
X392500D02*
D03*
X407500D02*
D03*
X405000D02*
D03*
X410000D02*
D03*
X412500D02*
D03*
X417500D02*
D03*
X415000D02*
D03*
X420000D02*
D03*
X420000Y271400D02*
D03*
X415000D02*
D03*
X417500D02*
D03*
X412500D02*
D03*
X410000D02*
D03*
X405000D02*
D03*
X407500D02*
D03*
X392500D02*
D03*
X397500D02*
D03*
X395000D02*
D03*
X400000D02*
D03*
X402500D02*
D03*
X382500D02*
D03*
X387500D02*
D03*
X385000D02*
D03*
X390000D02*
D03*
X390000Y269100D02*
D03*
X385000D02*
D03*
X387500D02*
D03*
X382500D02*
D03*
X402500D02*
D03*
X400000D02*
D03*
X395000D02*
D03*
X397500D02*
D03*
X392500D02*
D03*
X407500D02*
D03*
X405000D02*
D03*
X410000D02*
D03*
X412500D02*
D03*
X417500D02*
D03*
X415000D02*
D03*
X420000D02*
D03*
X390000Y266800D02*
D03*
X385000D02*
D03*
X387500D02*
D03*
X382500D02*
D03*
X402500D02*
D03*
X400000D02*
D03*
X395000D02*
D03*
X397500D02*
D03*
X392500D02*
D03*
X407500D02*
D03*
X405000D02*
D03*
X410000D02*
D03*
X412500D02*
D03*
X417500D02*
D03*
X415000D02*
D03*
X420000D02*
D03*
X420000Y278300D02*
D03*
X415000D02*
D03*
X417500D02*
D03*
X412500D02*
D03*
X410000D02*
D03*
X405000D02*
D03*
X407500D02*
D03*
X392500D02*
D03*
X397500D02*
D03*
X395000D02*
D03*
X400000D02*
D03*
X402500D02*
D03*
X382500D02*
D03*
X387500D02*
D03*
X385000D02*
D03*
X390000D02*
D03*
X390000Y276000D02*
D03*
X385000D02*
D03*
X387500D02*
D03*
X382500D02*
D03*
X402500D02*
D03*
X400000D02*
D03*
X395000D02*
D03*
X397500D02*
D03*
X392500D02*
D03*
X407500D02*
D03*
X405000D02*
D03*
X410000D02*
D03*
X412500D02*
D03*
X417500D02*
D03*
X415000D02*
D03*
X420000D02*
D03*
X390000Y273700D02*
D03*
X385000D02*
D03*
X387500D02*
D03*
X382500D02*
D03*
X402500D02*
D03*
X400000D02*
D03*
X395000D02*
D03*
X397500D02*
D03*
X392500D02*
D03*
X407500D02*
D03*
X405000D02*
D03*
X410000D02*
D03*
X412500D02*
D03*
X417500D02*
D03*
X415000D02*
D03*
X420000D02*
D03*
X420000Y280600D02*
D03*
X415000D02*
D03*
X417500D02*
D03*
X412500D02*
D03*
X410000D02*
D03*
X405000D02*
D03*
X407500D02*
D03*
X392500D02*
D03*
X397500D02*
D03*
X395000D02*
D03*
X400000D02*
D03*
X402500D02*
D03*
X382500D02*
D03*
X387500D02*
D03*
X385000D02*
D03*
X390000D02*
D03*
X420000Y282900D02*
D03*
X415000D02*
D03*
X417500D02*
D03*
X412500D02*
D03*
X410000D02*
D03*
X405000D02*
D03*
X407500D02*
D03*
X392500D02*
D03*
X397500D02*
D03*
X395000D02*
D03*
X400000D02*
D03*
X402500D02*
D03*
X382500D02*
D03*
X387500D02*
D03*
X385000D02*
D03*
X390000D02*
D03*
X390000Y285200D02*
D03*
X385000D02*
D03*
X387500D02*
D03*
X382500D02*
D03*
X402500D02*
D03*
X400000D02*
D03*
X395000D02*
D03*
X397500D02*
D03*
X392500D02*
D03*
X407500D02*
D03*
X405000D02*
D03*
X410000D02*
D03*
X412500D02*
D03*
X417500D02*
D03*
X415000D02*
D03*
X420000D02*
D03*
X237470Y69001D02*
D03*
X234970D02*
D03*
X232470D02*
D03*
X239969D02*
D03*
X242470D02*
D03*
X244970D02*
D03*
X247470D02*
D03*
X249970D02*
D03*
X252470D02*
D03*
X254970D02*
D03*
X237470Y66424D02*
D03*
X234970D02*
D03*
X232470D02*
D03*
X239969D02*
D03*
X242470D02*
D03*
X244970D02*
D03*
X247470D02*
D03*
X249970D02*
D03*
X252470D02*
D03*
X254970D02*
D03*
X266547Y63201D02*
D03*
X266547Y66201D02*
D03*
X266547Y58201D02*
D03*
X266547Y60701D02*
D03*
X266547Y53201D02*
D03*
Y55701D02*
D03*
Y48201D02*
D03*
Y50701D02*
D03*
Y43201D02*
D03*
X266547Y45701D02*
D03*
X266547Y40701D02*
D03*
Y38201D02*
D03*
X266547Y69201D02*
D03*
X76500Y206500D02*
D03*
X43000Y350000D02*
D03*
Y353750D02*
D03*
Y357500D02*
D03*
X37600Y390200D02*
D03*
X32700D02*
D03*
X77700Y142900D02*
D03*
X37500Y373500D02*
D03*
X32500D02*
D03*
X28000D02*
D03*
X26000Y415000D02*
D03*
X30500D02*
D03*
X35500D02*
D03*
X21500Y453500D02*
D03*
Y458500D02*
D03*
Y463000D02*
D03*
X25500Y453500D02*
D03*
Y458500D02*
D03*
Y463000D02*
D03*
X42500Y390200D02*
D03*
X80500Y389000D02*
D03*
X75500D02*
D03*
X71000D02*
D03*
X81500Y347000D02*
D03*
X76500D02*
D03*
X72000D02*
D03*
X81500Y376500D02*
D03*
X86000D02*
D03*
X91000D02*
D03*
Y417500D02*
D03*
X86000D02*
D03*
X81500D02*
D03*
X72500Y480000D02*
D03*
Y475500D02*
D03*
Y470500D02*
D03*
X108500Y487000D02*
D03*
X108900Y497000D02*
D03*
X97200Y520400D02*
D03*
X102000D02*
D03*
X106800D02*
D03*
X272500Y465500D02*
D03*
X131000Y479500D02*
D03*
X257470Y69001D02*
D03*
X263470Y38078D02*
D03*
X263470Y43232D02*
D03*
X263470Y40655D02*
D03*
Y48386D02*
D03*
Y45809D02*
D03*
Y53540D02*
D03*
Y50963D02*
D03*
Y58694D02*
D03*
Y56117D02*
D03*
Y63847D02*
D03*
Y61270D02*
D03*
Y69001D02*
D03*
X263470Y66424D02*
D03*
X260470D02*
D03*
X260470Y69001D02*
D03*
Y61270D02*
D03*
Y63847D02*
D03*
Y56117D02*
D03*
Y58694D02*
D03*
Y50963D02*
D03*
X260470Y53540D02*
D03*
X260470Y45809D02*
D03*
Y48386D02*
D03*
Y40655D02*
D03*
X260470Y43232D02*
D03*
X257470Y38078D02*
D03*
X260470D02*
D03*
X252470D02*
D03*
X254970D02*
D03*
X247470D02*
D03*
X249970D02*
D03*
X242470D02*
D03*
X244970D02*
D03*
X237470D02*
D03*
X239969D02*
D03*
X234970D02*
D03*
X232470D02*
D03*
X257470Y66424D02*
D03*
Y63847D02*
D03*
Y61270D02*
D03*
Y58694D02*
D03*
Y56117D02*
D03*
Y53540D02*
D03*
Y50963D02*
D03*
Y48386D02*
D03*
Y45809D02*
D03*
Y43232D02*
D03*
Y40655D02*
D03*
X420000Y287500D02*
D03*
X415000D02*
D03*
X417500D02*
D03*
X412500D02*
D03*
X410000D02*
D03*
X405000D02*
D03*
X407500D02*
D03*
X392500D02*
D03*
X397500D02*
D03*
X395000D02*
D03*
X400000D02*
D03*
X402500D02*
D03*
X382500D02*
D03*
X387500D02*
D03*
X385000D02*
D03*
X390000D02*
D03*
X136000Y169000D02*
D03*
X141000D02*
D03*
X138500D02*
D03*
X143500D02*
D03*
X146000D02*
D03*
X136000Y166000D02*
D03*
X138500D02*
D03*
X146000D02*
D03*
X143500D02*
D03*
X141000D02*
D03*
X151000D02*
D03*
X153500D02*
D03*
X156000D02*
D03*
X148500D02*
D03*
X156000Y169000D02*
D03*
X153500D02*
D03*
X148500D02*
D03*
X151000D02*
D03*
X161000Y166000D02*
D03*
X163500D02*
D03*
X158500D02*
D03*
X163500Y169000D02*
D03*
X158500D02*
D03*
X161000D02*
D03*
X133500Y166000D02*
D03*
Y169000D02*
D03*
X136000Y175000D02*
D03*
X141000D02*
D03*
X138500D02*
D03*
X143500D02*
D03*
X146000D02*
D03*
X136000Y172000D02*
D03*
X138500D02*
D03*
X146000D02*
D03*
X143500D02*
D03*
X141000D02*
D03*
X151000D02*
D03*
X153500D02*
D03*
X156000D02*
D03*
X148500D02*
D03*
X156000Y175000D02*
D03*
X153500D02*
D03*
X148500D02*
D03*
X151000D02*
D03*
X161000Y172000D02*
D03*
X163500D02*
D03*
X158500D02*
D03*
X163500Y175000D02*
D03*
X158500D02*
D03*
X161000D02*
D03*
X133500Y172000D02*
D03*
Y175000D02*
D03*
Y184000D02*
D03*
Y181000D02*
D03*
Y178000D02*
D03*
X163500Y184000D02*
D03*
X158500D02*
D03*
X161000D02*
D03*
Y181000D02*
D03*
X158500D02*
D03*
X163500D02*
D03*
X158500Y178000D02*
D03*
X163500D02*
D03*
X161000D02*
D03*
X156000Y184000D02*
D03*
X153500D02*
D03*
X148500D02*
D03*
X151000D02*
D03*
Y181000D02*
D03*
X148500D02*
D03*
X153500D02*
D03*
X156000D02*
D03*
X148500Y178000D02*
D03*
X156000D02*
D03*
X153500D02*
D03*
X151000D02*
D03*
X141000D02*
D03*
X143500D02*
D03*
X146000D02*
D03*
X138500D02*
D03*
X136000D02*
D03*
X146000Y181000D02*
D03*
X143500D02*
D03*
X138500D02*
D03*
X141000D02*
D03*
X136000D02*
D03*
Y184000D02*
D03*
X141000D02*
D03*
X138500D02*
D03*
X143500D02*
D03*
X146000D02*
D03*
X261336Y196334D02*
D03*
X263836Y196334D02*
D03*
X266336D02*
D03*
X258836D02*
D03*
X256336D02*
D03*
X253836D02*
D03*
X251336D02*
D03*
X248836D02*
D03*
X246336D02*
D03*
X243836D02*
D03*
X241336D02*
D03*
Y193834D02*
D03*
X241336Y191334D02*
D03*
X241336Y188834D02*
D03*
Y186334D02*
D03*
X241336Y183834D02*
D03*
X241336Y181334D02*
D03*
Y178834D02*
D03*
Y176334D02*
D03*
Y173834D02*
D03*
Y171334D02*
D03*
X266336Y199334D02*
D03*
X263836D02*
D03*
X258836D02*
D03*
X261336Y199334D02*
D03*
X253836Y199334D02*
D03*
X256336D02*
D03*
X248836D02*
D03*
X251336D02*
D03*
X243836D02*
D03*
X246336D02*
D03*
X238336Y199757D02*
D03*
X241336Y199334D02*
D03*
X238336Y194604D02*
D03*
Y197180D02*
D03*
Y189450D02*
D03*
Y192026D02*
D03*
Y184296D02*
D03*
Y186873D02*
D03*
Y179142D02*
D03*
Y181719D02*
D03*
Y173988D02*
D03*
X238336Y176565D02*
D03*
X238336Y168834D02*
D03*
Y171411D02*
D03*
X235336D02*
D03*
Y168834D02*
D03*
X235336Y176565D02*
D03*
X235336Y173988D02*
D03*
Y181719D02*
D03*
Y179142D02*
D03*
X235336Y186873D02*
D03*
X235336Y184296D02*
D03*
Y192026D02*
D03*
X235336Y189450D02*
D03*
X235336Y197180D02*
D03*
Y194604D02*
D03*
X241336Y202334D02*
D03*
X238336Y202334D02*
D03*
X246336Y202334D02*
D03*
X243836D02*
D03*
X251336D02*
D03*
X248836D02*
D03*
X256336D02*
D03*
X253836D02*
D03*
X261336Y202334D02*
D03*
X258836Y202334D02*
D03*
X263836D02*
D03*
X266336D02*
D03*
X235336Y199757D02*
D03*
X235336Y202334D02*
D03*
X241336Y168757D02*
D03*
X178400Y42823D02*
D03*
X172400Y76400D02*
D03*
Y73823D02*
D03*
X203400Y76400D02*
D03*
X200900D02*
D03*
X195900D02*
D03*
X198400D02*
D03*
X190900D02*
D03*
X193400D02*
D03*
X185900D02*
D03*
X188400D02*
D03*
X180900D02*
D03*
X183400D02*
D03*
X175400Y76400D02*
D03*
X178400Y76400D02*
D03*
X172400Y68669D02*
D03*
Y71246D02*
D03*
Y63515D02*
D03*
Y66092D02*
D03*
Y58362D02*
D03*
Y60938D02*
D03*
Y53208D02*
D03*
Y55785D02*
D03*
Y48054D02*
D03*
Y50631D02*
D03*
Y42900D02*
D03*
Y45477D02*
D03*
X175400D02*
D03*
Y42900D02*
D03*
Y50631D02*
D03*
Y48054D02*
D03*
Y55785D02*
D03*
Y53208D02*
D03*
Y60938D02*
D03*
Y58362D02*
D03*
Y66092D02*
D03*
Y63515D02*
D03*
Y71246D02*
D03*
Y68669D02*
D03*
X178400Y73400D02*
D03*
X175400Y73823D02*
D03*
X183400Y73400D02*
D03*
X180900D02*
D03*
X188400D02*
D03*
X185900D02*
D03*
X193400D02*
D03*
X190900D02*
D03*
X198400D02*
D03*
X195900D02*
D03*
X200900D02*
D03*
X203400D02*
D03*
X178400Y45400D02*
D03*
Y47900D02*
D03*
Y50400D02*
D03*
Y52900D02*
D03*
Y55400D02*
D03*
Y57900D02*
D03*
Y60400D02*
D03*
Y62900D02*
D03*
Y65400D02*
D03*
Y67900D02*
D03*
Y70400D02*
D03*
X180900D02*
D03*
X183400D02*
D03*
X185900D02*
D03*
X188400D02*
D03*
X190900D02*
D03*
X193400D02*
D03*
X195900D02*
D03*
X203400D02*
D03*
X200900D02*
D03*
X198400D02*
D03*
D72*
X24400Y203500D02*
D03*
X27900Y197700D02*
D03*
X68500Y106000D02*
D03*
X38900Y203700D02*
D03*
X43100Y116900D02*
D03*
X62700Y100600D02*
D03*
M02*
