G04*
G04 #@! TF.GenerationSoftware,Altium Limited,Altium Designer,18.0.7 (293)*
G04*
G04 Layer_Color=65535*
%FSLAX25Y25*%
%MOIN*%
G70*
G01*
G75*
%ADD10C,0.00787*%
%ADD11C,0.00394*%
%ADD12C,0.00984*%
%ADD13C,0.02362*%
%ADD14C,0.01968*%
%ADD15C,0.01000*%
%ADD16C,0.00315*%
%ADD17C,0.00500*%
%ADD18C,0.00100*%
%ADD19C,0.02000*%
%ADD20C,0.00800*%
%ADD21C,0.00591*%
D10*
X129772Y125638D02*
G03*
X129772Y125638I-394J0D01*
G01*
X76307Y349563D02*
G03*
X76307Y349563I-394J0D01*
G01*
Y391563D02*
G03*
X76307Y391563I-394J0D01*
G01*
X27400Y91882D02*
Y192000D01*
X-30600Y91882D02*
X27400D01*
X-30600D02*
Y192000D01*
X27400D01*
X-30600Y349000D02*
X27400D01*
X-30600Y248882D02*
Y349000D01*
Y248882D02*
X27400D01*
Y349000D01*
X26500Y479417D02*
X76500D01*
X26500Y506583D02*
X76500D01*
X26500Y479417D02*
Y506583D01*
X76500Y479417D02*
Y506583D01*
X19400Y209543D02*
X58600D01*
X19400D02*
Y230043D01*
X58600D01*
Y209543D02*
Y230043D01*
Y38043D02*
Y58543D01*
X19400D02*
X58600D01*
X19400Y38043D02*
Y58543D01*
Y38043D02*
X58600D01*
X42602Y189532D02*
Y193468D01*
X30398Y189532D02*
Y193468D01*
X42602D01*
X30398Y189532D02*
X42602D01*
X49632Y102598D02*
Y114802D01*
X53569Y102598D02*
Y114802D01*
X49632D02*
X53569D01*
X49632Y102598D02*
X53569D01*
X33610Y466890D02*
X45766D01*
X33610Y464823D02*
Y466890D01*
Y453110D02*
Y455177D01*
Y453110D02*
X45766D01*
X47390Y464823D02*
Y465266D01*
X45766Y466890D02*
X47390Y465266D01*
X45766Y453110D02*
X47390Y454734D01*
Y455177D01*
D11*
X96882Y499437D02*
G03*
X96882Y499437I-197J0D01*
G01*
D12*
X32858Y474496D02*
G03*
X32858Y474496I-492J0D01*
G01*
X43980Y196815D02*
G03*
X43980Y196815I-492J0D01*
G01*
X57407Y101712D02*
G03*
X57407Y101712I-492J0D01*
G01*
D13*
X31618Y483354D02*
G03*
X31618Y483354I-1181J0D01*
G01*
D14*
X251134Y494000D02*
G03*
X251134Y494000I-984J0D01*
G01*
X403606D02*
G03*
X403606Y494000I-984J0D01*
G01*
D15*
X-3500Y526000D02*
X424200Y526000D01*
X424200Y33874D01*
X-3500Y526000D02*
X-3500Y33874D01*
X424200Y33874D01*
X39299Y349465D02*
X69220D01*
X39299Y349563D02*
Y372398D01*
X69220Y349563D02*
Y372398D01*
X39299D02*
X69220D01*
X39299Y391465D02*
X69220D01*
X39299Y391563D02*
Y414398D01*
X69220Y391563D02*
Y414398D01*
X39299D02*
X69220D01*
X98752Y505933D02*
X105346D01*
X17500Y232600D02*
X371831D01*
X17500Y229100D02*
Y232600D01*
Y236100D01*
X138900D01*
X371831Y232600D02*
Y236100D01*
Y229100D02*
Y232600D01*
X17500Y229100D02*
X371831D01*
X138900Y236100D02*
Y334525D01*
X296400Y236100D02*
X371831D01*
X296400D02*
Y334525D01*
X138900D02*
X296400D01*
X138900Y163025D02*
X296400D01*
Y64600D02*
Y163025D01*
Y64600D02*
X371831D01*
X138900D02*
Y163025D01*
X17500Y57600D02*
X371831D01*
Y61100D01*
Y64600D01*
X17500D02*
X138900D01*
X17500Y61100D02*
Y64600D01*
Y57600D02*
Y61100D01*
X371831D01*
X268472Y394976D02*
X327527D01*
X268472Y517024D02*
X327527D01*
X268472Y394976D02*
Y517024D01*
X327527Y394976D02*
Y517024D01*
X111472Y394976D02*
Y517024D01*
X170528Y394976D02*
Y517024D01*
X111472Y394976D02*
X170528D01*
X111472Y517024D02*
X170528D01*
X23250Y497250D02*
Y525750D01*
Y497250D02*
X26500Y494000D01*
X55000D01*
X61000Y488000D01*
Y442000D02*
Y488000D01*
X54500Y435500D02*
X61000Y442000D01*
X54500Y348500D02*
Y435500D01*
Y348500D02*
X103000Y300000D01*
X103000Y34300D02*
X103000Y300000D01*
X390100Y517702D02*
Y521701D01*
X388101Y523700D01*
X386101Y521701D01*
Y517702D01*
X383102Y523700D02*
X381103D01*
X380103Y522700D01*
Y520701D01*
X381103Y519701D01*
X383102D01*
X384102Y520701D01*
Y522700D01*
X383102Y523700D01*
X378104Y519701D02*
Y522700D01*
X377104Y523700D01*
X374105D01*
Y519701D01*
X371106Y518702D02*
Y519701D01*
X372106D01*
X370107D01*
X371106D01*
Y522700D01*
X370107Y523700D01*
X351700Y521201D02*
X347701D01*
X211200Y517902D02*
Y521901D01*
X209201Y523900D01*
X207201Y521901D01*
Y517902D01*
X205202Y523900D02*
X203203D01*
X204202D01*
Y519901D01*
X205202D01*
X200204Y523900D02*
Y519901D01*
X197204D01*
X196205Y520901D01*
Y523900D01*
X229700Y520401D02*
X225701D01*
D16*
X49395Y115944D02*
X55300D01*
X55300Y116456D02*
X55300Y115944D01*
X49395D02*
Y116456D01*
X55300Y120944D02*
Y121456D01*
X49395D02*
X49395Y120944D01*
X49395Y121456D02*
X55300D01*
X104953Y493772D02*
X104953Y490425D01*
X102000Y489244D02*
X107905D01*
X107905Y489756D02*
X107905Y489244D01*
X102000D02*
Y489756D01*
X107905Y494244D02*
Y494756D01*
X102000D02*
X102000Y494244D01*
X102000Y494756D02*
X107905D01*
X17356Y218600D02*
Y224505D01*
X16844Y224505D02*
X17356Y224505D01*
X16844Y218600D02*
X17356Y218600D01*
X11844Y224505D02*
X12356Y224505D01*
X11844Y218600D02*
X12356Y218600D01*
X11844Y218600D02*
Y224505D01*
X53056Y129894D02*
Y135800D01*
X52544Y135800D02*
X53056Y135800D01*
X52544Y129894D02*
X53056Y129894D01*
X47544Y135800D02*
X48056Y135800D01*
X47544Y129894D02*
X48056Y129894D01*
X47544Y129894D02*
Y135800D01*
X60256Y141394D02*
Y147300D01*
X59744Y147300D02*
X60256Y147300D01*
X59744Y141394D02*
X60256Y141394D01*
X54744Y147300D02*
X55256Y147300D01*
X54744Y141394D02*
X55256Y141394D01*
X54744Y141394D02*
Y147300D01*
X55925Y144347D02*
X59272Y144347D01*
X66656Y141400D02*
Y147306D01*
X66144Y147306D02*
X66656Y147306D01*
X66144Y141400D02*
X66656D01*
X61144Y147306D02*
X61656D01*
X61144Y141400D02*
X61656Y141400D01*
X61144Y141400D02*
Y147306D01*
X62325Y144352D02*
X65672Y144353D01*
X86956Y117400D02*
Y123305D01*
X86444Y123305D02*
X86956Y123305D01*
X86444Y117400D02*
X86956D01*
X81444Y123305D02*
X81956D01*
X81444Y117400D02*
X81956Y117400D01*
X81444Y117400D02*
Y123305D01*
X82625Y120352D02*
X85972Y120353D01*
X42556Y101700D02*
Y107606D01*
X42044Y107606D02*
X42556Y107606D01*
X42044Y101700D02*
X42556Y101700D01*
X37044Y107606D02*
X37556Y107606D01*
X37044Y101700D02*
X37556Y101700D01*
X37044Y101700D02*
Y107606D01*
X38225Y104653D02*
X41572Y104653D01*
X39256Y175495D02*
Y181400D01*
X38744Y181400D02*
X39256Y181400D01*
X38744Y175495D02*
X39256Y175495D01*
X33744Y181400D02*
X34256Y181400D01*
X33744Y175495D02*
X34256Y175495D01*
X33744Y175495D02*
Y181400D01*
X34925Y178447D02*
X38272Y178447D01*
X55225Y132847D02*
X58572Y132847D01*
X54044Y129894D02*
Y135800D01*
Y129894D02*
X54556Y129894D01*
X54044Y135800D02*
X54556Y135800D01*
X59044Y129894D02*
X59556Y129894D01*
X59044Y135800D02*
X59556Y135800D01*
Y129894D02*
Y135800D01*
X73644Y211100D02*
Y217005D01*
Y211100D02*
X74156Y211100D01*
X73644Y217005D02*
X74156Y217005D01*
X78644Y211100D02*
X79156Y211100D01*
X78644Y217005D02*
X79156Y217005D01*
Y211100D02*
Y217005D01*
X73328Y150853D02*
X76675Y150853D01*
X77856Y147900D02*
Y153805D01*
X77344Y153805D02*
X77856Y153805D01*
X77344Y147900D02*
X77856D01*
X72344Y153805D02*
X72856D01*
X72344Y147900D02*
X72856Y147900D01*
X72344Y147900D02*
Y153805D01*
X66844Y124500D02*
Y130405D01*
Y124500D02*
X67356Y124500D01*
X66844Y130405D02*
X67356D01*
X71844Y124500D02*
X72356D01*
X71844Y130405D02*
X72356Y130405D01*
Y124500D02*
Y130405D01*
X78656Y124400D02*
Y130306D01*
X78144Y130306D02*
X78656Y130306D01*
X78144Y124400D02*
X78656Y124400D01*
X73144Y130306D02*
X73656Y130306D01*
X73144Y124400D02*
X73656Y124400D01*
X73144Y124400D02*
Y130306D01*
X22425Y360952D02*
X25772Y360953D01*
X21244Y358000D02*
Y363906D01*
Y358000D02*
X21756Y358000D01*
X21244Y363906D02*
X21756D01*
X26244Y358000D02*
X26756D01*
X26244Y363906D02*
X26756Y363906D01*
Y358000D02*
Y363906D01*
X21925Y402952D02*
X25272Y402953D01*
X20744Y400000D02*
Y405905D01*
Y400000D02*
X21256Y400000D01*
X20744Y405905D02*
X21256D01*
X25744Y400000D02*
X26256D01*
X25744Y405905D02*
X26256Y405905D01*
Y400000D02*
Y405905D01*
X92744Y401500D02*
Y407406D01*
Y401500D02*
X93256Y401500D01*
X92744Y407406D02*
X93256D01*
X97744Y401500D02*
X98256D01*
X97744Y407406D02*
X98256Y407406D01*
Y401500D02*
Y407406D01*
X93728Y404453D02*
X97075Y404453D01*
X34000Y445244D02*
X39906D01*
X39906Y445756D02*
X39906Y445244D01*
X34000D02*
Y445756D01*
X39906Y450244D02*
Y450756D01*
X34000D02*
X34000Y450244D01*
X34000Y450756D02*
X39906D01*
X36952Y449575D02*
X36953Y446228D01*
X34000Y442756D02*
X39906D01*
X34000D02*
X34000Y442244D01*
X39906D02*
Y442756D01*
X34000Y437244D02*
Y437756D01*
X39906D02*
X39906Y437244D01*
X34000D02*
X39906D01*
X92744Y360595D02*
Y366500D01*
Y360595D02*
X93256Y360595D01*
X92744Y366500D02*
X93256D01*
X97744Y360595D02*
X98256D01*
X97744Y366500D02*
X98256Y366500D01*
Y360595D02*
Y366500D01*
X93728Y363547D02*
X97075Y363547D01*
D17*
X88039Y124831D02*
X117961D01*
X88039Y166169D02*
X117961D01*
X91000Y373500D02*
X91500D01*
X91000Y364500D02*
X91500D01*
X83500Y373500D02*
X84000D01*
X83500Y364500D02*
X84000D01*
X91500D02*
Y373500D01*
X83500Y364500D02*
Y373500D01*
X90500Y415000D02*
X91000D01*
X90500Y406000D02*
X91000D01*
X83000Y415000D02*
X83500D01*
X83000Y406000D02*
X83500D01*
X91000D02*
Y415000D01*
X83000Y406000D02*
Y415000D01*
X68100Y138600D02*
X74100D01*
X68100Y138000D02*
Y138600D01*
X74100Y138000D02*
Y138600D01*
X68100Y134000D02*
X74100Y134000D01*
X68100Y134000D02*
X68100Y134600D01*
X74100Y134000D02*
Y134600D01*
X67600Y141200D02*
Y147200D01*
Y141200D02*
X68200D01*
X67600Y147200D02*
X68200D01*
X72200Y141200D02*
X72200Y147200D01*
X71600Y141200D02*
X72200Y141200D01*
X71600Y147200D02*
X72200D01*
X405189Y373558D02*
X405655Y375297D01*
X403150Y370585D02*
X404651Y376187D01*
X402905Y370443D02*
X404406Y376046D01*
X402608Y370109D02*
X404161Y375904D01*
X402363Y369967D02*
X403916Y375763D01*
X402118Y369826D02*
X403723Y375815D01*
X401822Y369491D02*
X403478Y375673D01*
X401628Y369543D02*
X403233Y375532D01*
X391196Y372338D02*
X392232Y376202D01*
X391055Y372583D02*
X391987Y376061D01*
X390914Y372828D02*
X391793Y376112D01*
X390772Y373073D02*
X391549Y375971D01*
X390682Y373511D02*
X391355Y376023D01*
X390541Y373756D02*
X391110Y375881D01*
X390451Y374194D02*
X390917Y375933D01*
X390310Y374439D02*
X390672Y375792D01*
X390272Y375071D02*
X390479Y375843D01*
X390182Y375509D02*
X390234Y375702D01*
X404858Y376960D02*
X405427Y379085D01*
X399114Y378706D02*
X400564Y384115D01*
X399025Y379144D02*
X400370Y384167D01*
X398935Y379582D02*
X400177Y384219D01*
X398794Y379827D02*
X399984Y384270D01*
X398600Y379879D02*
X399791Y384322D01*
X398407Y379931D02*
X399598Y384374D01*
X398214Y379982D02*
X399405Y384426D01*
X397389Y379996D02*
X398580Y384440D01*
X397145Y379855D02*
X398387Y384491D01*
X396951Y379907D02*
X398194Y384543D01*
X396758Y379958D02*
X397949Y384402D01*
X396565Y380010D02*
X397756Y384454D01*
X396320Y379869D02*
X397562Y384505D01*
X396127Y379921D02*
X397369Y384557D01*
X395934Y379972D02*
X397124Y384416D01*
X395740Y380024D02*
X396931Y384467D01*
X395496Y379883D02*
X396686Y384326D01*
X395302Y379934D02*
X396493Y384378D01*
X395109Y379986D02*
X396248Y384236D01*
X394916Y380038D02*
X396055Y384288D01*
X394671Y379896D02*
X395810Y384147D01*
X394478Y379948D02*
X395565Y384005D01*
X394285Y380000D02*
X395372Y384057D01*
X394040Y379859D02*
X395127Y383915D01*
X393847Y379910D02*
X394882Y383774D01*
X393653Y379962D02*
X394637Y383633D01*
X393460Y380014D02*
X394392Y383491D01*
X403743Y371254D02*
X405089Y376277D01*
X403446Y370919D02*
X404844Y376135D01*
X405489Y376998D02*
X405645Y377577D01*
X405244Y376856D02*
X405607Y378209D01*
X405051Y376908D02*
X405517Y378647D01*
X397969Y379841D02*
X399211Y384477D01*
X397776Y379893D02*
X398966Y384336D01*
X397583Y379945D02*
X398773Y384388D01*
X404737Y372644D02*
X405720Y376315D01*
X404388Y372116D02*
X405579Y376560D01*
X404613Y376818D02*
X405286Y379330D01*
X404420Y376870D02*
X405196Y379768D01*
X404175Y376729D02*
X405055Y380013D01*
X403982Y376781D02*
X404914Y380258D01*
X403737Y376639D02*
X404772Y380503D01*
X401383Y369402D02*
X402988Y375390D01*
X401138Y369260D02*
X402743Y375249D01*
X400893Y369119D02*
X402550Y375301D01*
X400649Y368977D02*
X402305Y375159D01*
X400404Y368836D02*
X402060Y375018D01*
X400210Y368888D02*
X401815Y374876D01*
X399966Y368746D02*
X401622Y374928D01*
X399772Y368798D02*
X401377Y374787D01*
X399527Y368657D02*
X401132Y374645D01*
X399334Y368708D02*
X400887Y374504D01*
X399089Y368567D02*
X400694Y374556D01*
X398896Y368619D02*
X400449Y374414D01*
X398651Y368477D02*
X400204Y374273D01*
X398458Y368529D02*
X399959Y374131D01*
X398213Y368388D02*
X399714Y373990D01*
X398020Y368439D02*
X399521Y374042D01*
X397827Y368491D02*
X399276Y373900D01*
X397633Y368543D02*
X399031Y373759D01*
X397388Y368402D02*
X398786Y373618D01*
X397195Y368453D02*
X398593Y373669D01*
X397002Y368505D02*
X398348Y373528D01*
X396809Y368557D02*
X398103Y373386D01*
X396616Y368609D02*
X397858Y373245D01*
X396423Y368660D02*
X397717Y373490D01*
X396229Y368712D02*
X397627Y373928D01*
X396036Y368764D02*
X397589Y374559D01*
X395843Y368816D02*
X397499Y374998D01*
X395650Y368867D02*
X397462Y375629D01*
X395457Y368919D02*
X397372Y376067D01*
X395263Y368971D02*
X397334Y376698D01*
X394491Y369178D02*
X396509Y376712D01*
X394349Y369423D02*
X396265Y376571D01*
X394156Y369475D02*
X396071Y376623D01*
X393963Y369526D02*
X395878Y376674D01*
X393770Y369578D02*
X395633Y376533D01*
X393628Y369823D02*
X395440Y376585D01*
X393435Y369875D02*
X395195Y376443D01*
X393294Y370120D02*
X395002Y376495D01*
X393101Y370172D02*
X394809Y376547D01*
X392907Y370223D02*
X394564Y376405D01*
X392766Y370468D02*
X394371Y376457D01*
X392573Y370520D02*
X394126Y376316D01*
X392431Y370765D02*
X393932Y376367D01*
X392290Y371010D02*
X393739Y376419D01*
X392097Y371062D02*
X393494Y376278D01*
X391955Y371307D02*
X393301Y376329D01*
X391814Y371552D02*
X393056Y376188D01*
X391621Y371603D02*
X392863Y376240D01*
X391479Y371848D02*
X392670Y376292D01*
X391338Y372093D02*
X392425Y376150D01*
X393215Y379872D02*
X394147Y383350D01*
X393022Y379924D02*
X393902Y383208D01*
X392829Y379976D02*
X393657Y383067D01*
X392636Y380028D02*
X393412Y382926D01*
X392391Y379886D02*
X393167Y382784D01*
X392197Y379938D02*
X392870Y382450D01*
X392004Y379990D02*
X392625Y382308D01*
X391811Y380042D02*
X392329Y381974D01*
X391566Y379900D02*
X392032Y381639D01*
X391373Y379952D02*
X391684Y381111D01*
X391180Y380004D02*
X391335Y380583D01*
X404040Y371589D02*
X405334Y376418D01*
X395070Y369023D02*
X397141Y376750D01*
X394877Y369074D02*
X396948Y376802D01*
X394684Y369126D02*
X396703Y376660D01*
X403544Y376691D02*
X404631Y380748D01*
X403350Y376743D02*
X404489Y380993D01*
X403105Y376601D02*
X404348Y381238D01*
X402912Y376653D02*
X404206Y381483D01*
X402667Y376512D02*
X404065Y381728D01*
X402474Y376563D02*
X403872Y381779D01*
X402229Y376422D02*
X403730Y382024D01*
X402036Y376474D02*
X403537Y382076D01*
X401791Y376332D02*
X403396Y382321D01*
X401598Y376384D02*
X403254Y382566D01*
X401405Y376436D02*
X403061Y382618D01*
X401160Y376294D02*
X402920Y382863D01*
X400967Y376346D02*
X402727Y382914D01*
X400722Y376205D02*
X402533Y382966D01*
X400528Y376256D02*
X402392Y383211D01*
X400283Y376115D02*
X402199Y383263D01*
X400090Y376167D02*
X402006Y383315D01*
X399897Y376219D02*
X401864Y383560D01*
X399652Y376077D02*
X401671Y383611D01*
X399459Y376129D02*
X401478Y383663D01*
X399266Y376181D02*
X401285Y383715D01*
X399228Y376812D02*
X401143Y383960D01*
X399190Y377443D02*
X400950Y384012D01*
X399152Y378075D02*
X400757Y384063D01*
X163062Y358715D02*
X164800Y358249D01*
X162171Y357711D02*
X167774Y356210D01*
X162313Y357466D02*
X167915Y355965D01*
X162454Y357221D02*
X168250Y355668D01*
X162596Y356977D02*
X168391Y355423D01*
X162544Y356783D02*
X168533Y355179D01*
X162685Y356538D02*
X168867Y354882D01*
X162827Y356293D02*
X168816Y354689D01*
X162157Y345292D02*
X166020Y344257D01*
X162298Y345047D02*
X165775Y344115D01*
X162246Y344854D02*
X165530Y343974D01*
X162388Y344609D02*
X165286Y343832D01*
X162336Y344416D02*
X164847Y343743D01*
X162477Y344171D02*
X164602Y343601D01*
X162426Y343978D02*
X164164Y343512D01*
X162567Y343733D02*
X163919Y343370D01*
X162515Y343539D02*
X163288Y343332D01*
X162657Y343295D02*
X162850Y343243D01*
X159274Y358488D02*
X161399Y357918D01*
X154244Y353624D02*
X159653Y352175D01*
X154192Y353431D02*
X159214Y352085D01*
X154140Y353238D02*
X158776Y351995D01*
X154088Y353044D02*
X158531Y351854D01*
X154036Y352851D02*
X158480Y351661D01*
X153985Y352658D02*
X158428Y351467D01*
X153933Y352465D02*
X158376Y351274D01*
X153919Y351640D02*
X158362Y350450D01*
X153867Y351447D02*
X158504Y350205D01*
X153815Y351254D02*
X158452Y350012D01*
X153957Y351009D02*
X158400Y349818D01*
X153905Y350816D02*
X158348Y349625D01*
X153853Y350623D02*
X158490Y349380D01*
X153802Y350430D02*
X158438Y349187D01*
X153943Y350184D02*
X158386Y348994D01*
X153891Y349991D02*
X158335Y348801D01*
X154033Y349746D02*
X158476Y348556D01*
X153981Y349553D02*
X158424Y348363D01*
X154122Y349308D02*
X158372Y348169D01*
X154071Y349115D02*
X158321Y347976D01*
X154212Y348870D02*
X158462Y347731D01*
X154353Y348625D02*
X158410Y347538D01*
X154302Y348432D02*
X158359Y347345D01*
X154443Y348187D02*
X158500Y347100D01*
X154585Y347942D02*
X158448Y346907D01*
X154726Y347697D02*
X158396Y346714D01*
X154867Y347452D02*
X158345Y346520D01*
X162082Y358149D02*
X167105Y356804D01*
X162223Y357905D02*
X167439Y356507D01*
X160781Y358705D02*
X161361Y358550D01*
X160150Y358667D02*
X161502Y358305D01*
X159712Y358577D02*
X161451Y358112D01*
X153881Y352272D02*
X158518Y351029D01*
X154023Y352027D02*
X158466Y350836D01*
X153971Y351834D02*
X158414Y350643D01*
X162044Y358781D02*
X165715Y357797D01*
X161799Y358639D02*
X166242Y357449D01*
X159029Y358346D02*
X161540Y357673D01*
X158591Y358257D02*
X161488Y357480D01*
X158346Y358115D02*
X161630Y357235D01*
X158101Y357974D02*
X161578Y357042D01*
X157856Y357832D02*
X161720Y356797D01*
X162968Y356048D02*
X168957Y354444D01*
X163110Y355803D02*
X169098Y354199D01*
X163058Y355610D02*
X169240Y353954D01*
X163199Y355365D02*
X169381Y353709D01*
X163341Y355120D02*
X169523Y353464D01*
X163482Y354875D02*
X169471Y353271D01*
X163430Y354682D02*
X169612Y353026D01*
X163572Y354437D02*
X169561Y352833D01*
X163713Y354192D02*
X169702Y352588D01*
X163855Y353947D02*
X169650Y352395D01*
X163803Y353754D02*
X169792Y352150D01*
X163944Y353509D02*
X169740Y351956D01*
X164086Y353264D02*
X169881Y351711D01*
X164227Y353019D02*
X169829Y351518D01*
X164369Y352774D02*
X169971Y351273D01*
X164317Y352581D02*
X169919Y351080D01*
X164458Y352336D02*
X169868Y350887D01*
X164600Y352091D02*
X169816Y350694D01*
X164741Y351846D02*
X169957Y350449D01*
X164689Y351653D02*
X169905Y350256D01*
X164831Y351408D02*
X169854Y350062D01*
X164972Y351163D02*
X169802Y349869D01*
X165114Y350918D02*
X169750Y349676D01*
X164869Y350777D02*
X169698Y349483D01*
X164430Y350687D02*
X169647Y349290D01*
X163799Y350649D02*
X169595Y349096D01*
X163361Y350560D02*
X169543Y348903D01*
X162730Y350522D02*
X169491Y348710D01*
X162292Y350432D02*
X169439Y348517D01*
X161660Y350394D02*
X169388Y348324D01*
X161646Y349570D02*
X169181Y347551D01*
X161788Y349325D02*
X168936Y347410D01*
X161736Y349132D02*
X168884Y347216D01*
X161684Y348938D02*
X168832Y347023D01*
X161826Y348693D02*
X168780Y346830D01*
X161774Y348500D02*
X168535Y346689D01*
X161915Y348255D02*
X168484Y346495D01*
X161864Y348062D02*
X168239Y346354D01*
X161812Y347869D02*
X168187Y346161D01*
X161953Y347624D02*
X168135Y345968D01*
X161901Y347431D02*
X167890Y345826D01*
X162043Y347186D02*
X167839Y345633D01*
X161991Y346993D02*
X167594Y345492D01*
X161939Y346799D02*
X167349Y345350D01*
X162081Y346555D02*
X167297Y345157D01*
X162029Y346361D02*
X167052Y345016D01*
X162171Y346116D02*
X166807Y344874D01*
X162119Y345923D02*
X166755Y344681D01*
X162067Y345730D02*
X166510Y344539D01*
X162208Y345485D02*
X166265Y344398D01*
X155009Y347207D02*
X158486Y346275D01*
X155150Y346962D02*
X158434Y346082D01*
X155292Y346717D02*
X158383Y345889D01*
X155433Y346472D02*
X158331Y345696D01*
X155575Y346227D02*
X158472Y345451D01*
X155909Y345931D02*
X158421Y345258D01*
X156051Y345686D02*
X158369Y345065D01*
X156385Y345389D02*
X158317Y344871D01*
X156720Y345092D02*
X158458Y344626D01*
X157247Y344744D02*
X158407Y344433D01*
X157775Y344395D02*
X158355Y344240D01*
X161940Y358394D02*
X166770Y357100D01*
X161609Y350201D02*
X169336Y348130D01*
X161557Y350008D02*
X169284Y347937D01*
X161698Y349763D02*
X169232Y347744D01*
X157611Y357691D02*
X161668Y356604D01*
X157366Y357550D02*
X161616Y356411D01*
X157121Y357408D02*
X161757Y356166D01*
X156876Y357267D02*
X161706Y355973D01*
X156631Y357125D02*
X161847Y355728D01*
X156579Y356932D02*
X161795Y355535D01*
X156334Y356791D02*
X161937Y355290D01*
X156283Y356597D02*
X161885Y355096D01*
X156038Y356456D02*
X162026Y354851D01*
X155793Y356315D02*
X161975Y354658D01*
X155741Y356121D02*
X161923Y354465D01*
X155496Y355980D02*
X162064Y354220D01*
X155444Y355787D02*
X162013Y354027D01*
X155393Y355594D02*
X162154Y353782D01*
X155148Y355452D02*
X162102Y353589D01*
X155096Y355259D02*
X162244Y353344D01*
X155044Y355066D02*
X162192Y353151D01*
X154799Y354925D02*
X162140Y352958D01*
X154747Y354731D02*
X162282Y352712D01*
X154695Y354538D02*
X162230Y352519D01*
X154644Y354345D02*
X162178Y352326D01*
X154399Y354204D02*
X161547Y352288D01*
X154347Y354010D02*
X160915Y352250D01*
X154295Y353817D02*
X160284Y352213D01*
X64900Y136800D02*
X65500Y136800D01*
X64900Y130800D02*
X65500D01*
X65500Y136800D02*
X65500Y130800D01*
X60900Y136800D02*
X61500Y136800D01*
X60900Y130800D02*
X61500D01*
X60900D02*
X60900Y136800D01*
X243260Y412504D02*
Y516441D01*
X180268D02*
X243260D01*
X180268Y412504D02*
Y516441D01*
Y412504D02*
X243260D01*
X395732D02*
Y516441D01*
X332740D02*
X395732D01*
X332740Y412504D02*
Y516441D01*
Y412504D02*
X395732D01*
D18*
X401000Y185800D02*
Y187300D01*
X399100Y185800D02*
Y187000D01*
X399000Y185800D02*
Y187100D01*
X398900Y185900D02*
Y187100D01*
X398800Y185900D02*
Y187200D01*
X398700Y186000D02*
Y187200D01*
X398600Y186000D02*
Y187300D01*
X398500Y186100D02*
Y187300D01*
X398400Y186100D02*
Y187400D01*
X398300Y186200D02*
Y187400D01*
X398200Y186200D02*
Y187500D01*
X398100Y186300D02*
Y187600D01*
X398000Y186400D02*
Y187600D01*
X397900Y186400D02*
Y187700D01*
X397800Y186500D02*
Y187700D01*
X397700Y186500D02*
Y187800D01*
X397600Y186600D02*
Y187800D01*
X397500Y186600D02*
Y187900D01*
X397400Y186700D02*
Y187900D01*
X397300Y186700D02*
Y188000D01*
X397200Y186800D02*
Y188100D01*
X397100Y186900D02*
Y188100D01*
X397000Y186900D02*
Y188200D01*
X396900Y187000D02*
Y188200D01*
X396800Y187000D02*
Y188300D01*
X396700Y187100D02*
Y188300D01*
X396600Y187100D02*
Y188400D01*
X396500Y187200D02*
Y188400D01*
X396400Y187200D02*
Y188500D01*
X396200Y187300D02*
Y188600D01*
X396100Y187400D02*
Y188700D01*
X396000Y187500D02*
Y188700D01*
X395900Y187500D02*
Y188800D01*
X395800Y187600D02*
Y188800D01*
X395700Y187600D02*
Y188900D01*
X395600Y187700D02*
Y188900D01*
X395500Y187700D02*
Y189000D01*
X395400Y187800D02*
Y189000D01*
X395300Y187800D02*
Y189100D01*
X395200Y187900D02*
Y189200D01*
X395100Y188000D02*
Y189200D01*
X395000Y188000D02*
Y189300D01*
X394900Y188100D02*
Y189300D01*
X394800Y188100D02*
Y189400D01*
X394700Y188200D02*
Y189400D01*
X394600Y188200D02*
Y189500D01*
X394500Y188300D02*
Y189500D01*
X394400Y188300D02*
Y189600D01*
X394300Y188400D02*
Y189700D01*
X394200Y188500D02*
Y189700D01*
X394100Y188500D02*
Y189800D01*
X394000Y188600D02*
Y189800D01*
X393900Y188600D02*
Y189900D01*
X393800Y188700D02*
Y189900D01*
X393700Y188700D02*
Y190000D01*
X393600Y188800D02*
Y190000D01*
X393500Y188800D02*
Y190100D01*
X393400Y188900D02*
Y190200D01*
X393300Y189000D02*
Y190200D01*
X393200Y189000D02*
Y190300D01*
X393100Y189100D02*
Y190300D01*
X393000Y189100D02*
Y190400D01*
X392900Y189200D02*
Y190400D01*
X392800Y189200D02*
Y190500D01*
X392700Y189300D02*
Y190500D01*
X392600Y189300D02*
Y190600D01*
X392500Y189400D02*
Y190700D01*
X392400Y189500D02*
Y190700D01*
X392300Y189500D02*
Y190800D01*
X392200Y189600D02*
Y190800D01*
X392100Y189600D02*
Y190900D01*
X392000Y189700D02*
Y190900D01*
X391900Y189700D02*
Y191000D01*
X391800Y189800D02*
Y191100D01*
X391700Y189800D02*
Y191100D01*
X391600Y189900D02*
Y191200D01*
X391500Y190000D02*
Y191200D01*
X391400Y190000D02*
Y191300D01*
X391300Y190100D02*
Y191300D01*
X391200Y190100D02*
Y191400D01*
X391100Y190200D02*
Y191500D01*
X391000Y190200D02*
Y191500D01*
X390900Y190300D02*
Y191600D01*
X390800Y190400D02*
Y191600D01*
X390700Y190400D02*
Y191700D01*
X390600Y190500D02*
Y191700D01*
X390500Y190500D02*
Y191800D01*
X390400Y190600D02*
Y191800D01*
X390300Y190600D02*
Y191900D01*
X390200Y190700D02*
Y192000D01*
X390100Y190800D02*
Y192000D01*
X390000Y190800D02*
Y192100D01*
X389900Y190900D02*
Y192100D01*
X389800Y190900D02*
Y192200D01*
X389700Y191000D02*
Y192200D01*
X389600Y191000D02*
Y192300D01*
X389500Y191100D02*
Y192300D01*
X389400Y191100D02*
Y192400D01*
X389300Y191200D02*
Y192400D01*
X389200Y191300D02*
Y192500D01*
X389100Y191300D02*
Y192600D01*
X389000Y191400D02*
Y192600D01*
X388900Y191400D02*
Y192700D01*
X388800Y191500D02*
Y192700D01*
X388700Y191500D02*
Y192800D01*
X388600Y191600D02*
Y192800D01*
X388500Y191600D02*
Y192900D01*
X388400Y191700D02*
Y192900D01*
X388200Y191800D02*
Y193100D01*
X388100Y191900D02*
Y193100D01*
X388000Y191900D02*
Y193200D01*
X387900Y192000D02*
Y193200D01*
X387800Y192000D02*
Y193300D01*
X387700Y192100D02*
Y193300D01*
X387600Y192100D02*
Y193400D01*
X387500Y192200D02*
Y193400D01*
X387400Y192200D02*
Y193500D01*
X387300Y192300D02*
Y193600D01*
X387200Y192400D02*
Y193600D01*
X400200Y194200D02*
Y194600D01*
X400100Y194100D02*
Y194800D01*
X400000Y194000D02*
Y194900D01*
X399900Y193900D02*
Y195000D01*
X399800Y193900D02*
Y195100D01*
X399700Y193900D02*
Y195100D01*
X399600Y193900D02*
Y195200D01*
X399500Y193900D02*
Y195300D01*
X399400Y194000D02*
Y195400D01*
X399300Y194000D02*
Y195500D01*
X399200Y194100D02*
Y195600D01*
X399100Y194100D02*
Y195700D01*
X399000Y194100D02*
Y195700D01*
X398900Y194200D02*
Y195800D01*
X398800Y194200D02*
Y195900D01*
X398700Y194300D02*
Y196000D01*
X398600Y194300D02*
Y196100D01*
X398500Y194300D02*
Y196200D01*
X398400Y194400D02*
Y196200D01*
X398300Y194400D02*
Y196300D01*
X398200Y194500D02*
Y196400D01*
X398100Y194500D02*
Y196500D01*
X398000Y194500D02*
Y196600D01*
X397900Y194600D02*
Y196700D01*
X397800Y194600D02*
Y196800D01*
X397700Y194700D02*
Y196800D01*
X397600Y194700D02*
Y196900D01*
X397500Y194700D02*
Y197000D01*
X397400Y194800D02*
Y197100D01*
X397300Y194800D02*
Y197200D01*
X397200Y194900D02*
Y197300D01*
X397100Y194900D02*
Y197400D01*
X397000Y194900D02*
Y197400D01*
X396900Y195000D02*
Y197500D01*
X396800Y195000D02*
Y197600D01*
X396700Y196300D02*
Y197700D01*
Y195100D02*
Y196200D01*
X396600Y196400D02*
Y197800D01*
Y195100D02*
Y196300D01*
X396500Y196500D02*
Y197900D01*
Y195100D02*
Y196300D01*
X396400Y196600D02*
Y197900D01*
Y195200D02*
Y196400D01*
X396200Y196700D02*
Y198100D01*
Y195300D02*
Y196400D01*
X396100Y196800D02*
Y198200D01*
Y195300D02*
Y196500D01*
X396000Y196900D02*
Y198300D01*
Y195300D02*
Y196500D01*
X395900Y197000D02*
Y198400D01*
Y195400D02*
Y196600D01*
X395800Y197100D02*
Y198500D01*
Y195400D02*
Y196600D01*
X395700Y197200D02*
Y198500D01*
Y195500D02*
Y196600D01*
X395600Y197200D02*
Y198600D01*
Y195500D02*
Y196700D01*
X395500Y197300D02*
Y198700D01*
X395400Y197400D02*
Y198800D01*
X395300Y197500D02*
Y198900D01*
X395200Y197600D02*
Y199000D01*
X395100Y197700D02*
Y199100D01*
X395000Y197700D02*
Y199100D01*
X394900Y197800D02*
Y199200D01*
X394800Y197900D02*
Y199300D01*
X394700Y198000D02*
Y199400D01*
X394600Y198100D02*
Y199500D01*
X394500Y198200D02*
Y199600D01*
X394400Y198300D02*
Y199700D01*
X394300Y198300D02*
Y199700D01*
X394200Y198400D02*
Y199800D01*
X394100Y198500D02*
Y199900D01*
X394000Y198600D02*
Y200000D01*
X393900Y198700D02*
Y200100D01*
X393800Y198800D02*
Y200200D01*
X393700Y197100D02*
Y200300D01*
X393600Y196900D02*
Y200300D01*
X393500Y196800D02*
Y200400D01*
X393400Y196700D02*
Y200500D01*
X393300Y196600D02*
Y200500D01*
X393200Y196600D02*
Y200500D01*
X393100Y196700D02*
Y200500D01*
X393000Y196700D02*
Y200500D01*
X392900Y196700D02*
Y200500D01*
X392800Y196800D02*
Y200400D01*
X392700Y196800D02*
Y200300D01*
Y193800D02*
Y194900D01*
X392600Y196800D02*
Y198000D01*
Y193800D02*
Y195000D01*
X392500Y196900D02*
Y198100D01*
Y193800D02*
Y195000D01*
X392400Y196900D02*
Y198100D01*
Y193900D02*
Y195000D01*
X392300Y197000D02*
Y198100D01*
Y193900D02*
Y195100D01*
X392200Y197000D02*
Y198200D01*
Y193900D02*
Y195100D01*
X392100Y197000D02*
Y198200D01*
Y194000D02*
Y195100D01*
X392000Y197100D02*
Y198300D01*
Y194000D02*
Y195200D01*
X391900Y197100D02*
Y198300D01*
Y194100D02*
Y195200D01*
X391800Y197200D02*
Y198300D01*
Y194100D02*
Y195300D01*
X391700Y197200D02*
Y198400D01*
Y194100D02*
Y195300D01*
X391600Y197200D02*
Y198400D01*
Y194200D02*
Y195300D01*
X391500Y197300D02*
Y198500D01*
Y194200D02*
Y195400D01*
X391400Y197300D02*
Y198500D01*
Y194200D02*
Y195400D01*
X391300Y197400D02*
Y198500D01*
Y194300D02*
Y195400D01*
X391200Y197400D02*
Y198600D01*
Y194300D02*
Y195500D01*
X391100Y197400D02*
Y198600D01*
Y194400D02*
Y195500D01*
X391000Y197500D02*
Y198700D01*
Y194400D02*
Y195600D01*
X390900Y197500D02*
Y198700D01*
Y194400D02*
Y195600D01*
X390800Y197600D02*
Y198800D01*
Y194500D02*
Y195600D01*
X390700Y197600D02*
Y198800D01*
Y194500D02*
Y195700D01*
X390600Y197600D02*
Y198800D01*
Y194500D02*
Y195700D01*
X390500Y197700D02*
Y198900D01*
Y194600D02*
Y195700D01*
X390400Y197700D02*
Y198900D01*
Y194600D02*
Y195800D01*
X390300Y197800D02*
Y199000D01*
Y194600D02*
Y195800D01*
X390200Y197800D02*
Y199000D01*
Y194700D02*
Y195800D01*
X390100Y197800D02*
Y199000D01*
Y194700D02*
Y195900D01*
X390000Y197900D02*
Y199100D01*
Y194700D02*
Y195900D01*
X389900Y197900D02*
Y199100D01*
Y194800D02*
Y195900D01*
X389800Y198000D02*
Y199200D01*
Y194800D02*
Y196000D01*
X389700Y198000D02*
Y199200D01*
Y194900D02*
Y196000D01*
X389600Y198000D02*
Y199200D01*
Y194900D02*
Y196100D01*
X389500Y198100D02*
Y199300D01*
Y194900D02*
Y196100D01*
X389400Y198100D02*
Y199300D01*
Y195000D02*
Y196100D01*
X389300Y198200D02*
Y199400D01*
Y195000D02*
Y196200D01*
X389200Y198200D02*
Y199400D01*
Y195000D02*
Y196200D01*
X389100Y195100D02*
Y199400D01*
X389000Y195100D02*
Y199500D01*
X388900Y195100D02*
Y199500D01*
X388800Y195200D02*
Y199600D01*
X388700Y195200D02*
Y199600D01*
X388600Y195200D02*
Y199600D01*
X388500Y195300D02*
Y199600D01*
X388400Y195300D02*
Y199600D01*
X388200Y195400D02*
Y199500D01*
X388100Y200400D02*
Y201600D01*
Y195600D02*
Y199300D01*
X388000Y200300D02*
Y201600D01*
X387900Y200300D02*
Y201500D01*
X387800Y200200D02*
Y201500D01*
X387700Y200200D02*
Y201400D01*
X387600Y200100D02*
Y201400D01*
X387500Y200100D02*
Y201300D01*
X387400Y200000D02*
Y201300D01*
X387300Y199900D02*
Y201200D01*
X387200Y199900D02*
Y201100D01*
X387100Y199800D02*
Y201100D01*
X387000Y199800D02*
Y201000D01*
X386900Y199700D02*
Y201000D01*
X386800Y199700D02*
Y200900D01*
X386700Y199600D02*
Y200900D01*
X386600Y199600D02*
Y200800D01*
X386500Y199500D02*
Y200800D01*
X386400Y199400D02*
Y200700D01*
X386300Y199400D02*
Y200600D01*
X386200Y199300D02*
Y200600D01*
X386100Y199300D02*
Y200500D01*
X386000Y199200D02*
Y200500D01*
X385900Y199200D02*
Y200400D01*
X385800Y199100D02*
Y200400D01*
X385700Y199100D02*
Y200300D01*
X385600Y199000D02*
Y200300D01*
X385500Y198900D02*
Y200200D01*
X385400Y198900D02*
Y200100D01*
X385300Y198800D02*
Y200100D01*
X385200Y198800D02*
Y200000D01*
X385100Y198700D02*
Y200000D01*
X385000Y198700D02*
Y199900D01*
X384900Y198600D02*
Y199900D01*
X384800Y198600D02*
Y199800D01*
X384700Y198500D02*
Y199800D01*
X384600Y198400D02*
Y199700D01*
Y193800D02*
Y195100D01*
X384500Y198400D02*
Y199600D01*
Y193900D02*
Y195100D01*
X384400Y198300D02*
Y199600D01*
Y193900D02*
Y195200D01*
X384300Y198300D02*
Y199500D01*
Y194000D02*
Y195200D01*
X384200Y198200D02*
Y199500D01*
Y194000D02*
Y195300D01*
X384100Y198200D02*
Y199400D01*
Y194100D02*
Y195300D01*
X384000Y198100D02*
Y199400D01*
Y194100D02*
Y195400D01*
X383900Y198100D02*
Y199300D01*
Y194200D02*
Y195400D01*
X383800Y198000D02*
Y199300D01*
Y194200D02*
Y195500D01*
X383700Y198000D02*
Y199200D01*
Y194300D02*
Y195500D01*
X383600Y197900D02*
Y199200D01*
Y194300D02*
Y195600D01*
X383500Y197800D02*
Y199100D01*
Y194400D02*
Y195700D01*
X383400Y197800D02*
Y199000D01*
Y194500D02*
Y195700D01*
X383300Y197700D02*
Y199000D01*
Y194500D02*
Y195800D01*
X383200Y197700D02*
Y198900D01*
Y194600D02*
Y195800D01*
X383100Y197600D02*
Y198900D01*
Y194600D02*
Y195900D01*
X383000Y197600D02*
Y198800D01*
Y194700D02*
Y195900D01*
X382900Y197500D02*
Y198800D01*
Y194700D02*
Y196000D01*
X382800Y197400D02*
Y198700D01*
Y194800D02*
Y196100D01*
X382700Y197300D02*
Y198700D01*
Y194800D02*
Y196200D01*
X382600Y197000D02*
Y198600D01*
Y194900D02*
Y196500D01*
X382500Y195000D02*
Y198500D01*
X382400Y195000D02*
Y198500D01*
X382300Y195100D02*
Y198400D01*
X382200Y195200D02*
Y198300D01*
X382100Y195300D02*
Y198200D01*
X382000Y195400D02*
Y198100D01*
X381900Y195500D02*
Y198000D01*
X381800Y195600D02*
Y197900D01*
X381700Y195800D02*
Y197700D01*
X381600Y196000D02*
Y197500D01*
X381500Y196400D02*
Y197100D01*
X401000Y206200D02*
Y207700D01*
X400900Y206400D02*
Y207800D01*
X400800Y206600D02*
Y207900D01*
X400700Y206700D02*
Y207900D01*
X400600Y206800D02*
Y207900D01*
X400500Y206800D02*
Y207900D01*
X400400Y206900D02*
Y207900D01*
X400300Y206900D02*
Y207900D01*
X400200Y206900D02*
Y207900D01*
X400100Y206900D02*
Y207900D01*
X400000Y206900D02*
Y207900D01*
X399900Y206900D02*
Y207900D01*
X399800Y206900D02*
Y207900D01*
X399700Y206800D02*
Y207900D01*
X399600Y206800D02*
Y207900D01*
X399500Y206700D02*
Y207900D01*
X399400Y206700D02*
Y207900D01*
X399300Y206600D02*
Y207800D01*
X399200Y206500D02*
Y207800D01*
X399100Y206500D02*
Y207700D01*
X399000Y206400D02*
Y207700D01*
X398900Y206400D02*
Y207600D01*
X398800Y206300D02*
Y207600D01*
X398700Y206300D02*
Y207500D01*
X398600Y206200D02*
Y207500D01*
X398500Y206200D02*
Y207400D01*
X398400Y206100D02*
Y207400D01*
X398300Y206100D02*
Y207300D01*
X398200Y206000D02*
Y207300D01*
X398100Y205900D02*
Y207200D01*
X398000Y205900D02*
Y207100D01*
X397900Y205800D02*
Y207100D01*
X397800Y205800D02*
Y207000D01*
X397700Y205700D02*
Y207000D01*
X397600Y205700D02*
Y206900D01*
X397500Y205600D02*
Y206900D01*
X397400Y205600D02*
Y206800D01*
X397300Y205500D02*
Y206800D01*
X397200Y205400D02*
Y206700D01*
X397100Y205400D02*
Y206600D01*
X397000Y205300D02*
Y206600D01*
X396900Y205300D02*
Y206500D01*
X396800Y205200D02*
Y206500D01*
X396700Y205200D02*
Y206400D01*
X396600Y205100D02*
Y206400D01*
X396500Y205100D02*
Y206300D01*
X396400Y205000D02*
Y206300D01*
X396200Y204900D02*
Y206200D01*
X396100Y204800D02*
Y206100D01*
X396000Y204800D02*
Y206000D01*
X395900Y204700D02*
Y206000D01*
X395800Y204700D02*
Y205900D01*
X395700Y204600D02*
Y205900D01*
X395600Y204600D02*
Y205800D01*
X395500Y204500D02*
Y205800D01*
X395400Y204500D02*
Y205700D01*
X395300Y204400D02*
Y205700D01*
X395200Y204300D02*
Y205600D01*
X395100Y204300D02*
Y205500D01*
X395000Y204200D02*
Y205500D01*
X394900Y204200D02*
Y205400D01*
X394800Y204100D02*
Y205400D01*
X394700Y204100D02*
Y205300D01*
X394600Y204000D02*
Y205300D01*
X394500Y204000D02*
Y205200D01*
X394400Y203900D02*
Y205200D01*
X394300Y203800D02*
Y205100D01*
X394200Y203800D02*
Y205000D01*
X394100Y203700D02*
Y205000D01*
X394000Y203700D02*
Y204900D01*
X393900Y203600D02*
Y204900D01*
X393800Y203600D02*
Y204800D01*
X393700Y203500D02*
Y204800D01*
X393600Y203500D02*
Y204700D01*
X393500Y203400D02*
Y204700D01*
X393400Y203300D02*
Y204600D01*
X393300Y203300D02*
Y204500D01*
X393200Y203200D02*
Y204500D01*
X393100Y203200D02*
Y204400D01*
X393000Y203100D02*
Y204400D01*
X392900Y203100D02*
Y204300D01*
X392800Y203000D02*
Y204300D01*
X392700Y203000D02*
Y204200D01*
X392600Y202900D02*
Y204200D01*
X392500Y202800D02*
Y204100D01*
X392400Y202800D02*
Y204000D01*
X392300Y202700D02*
Y204000D01*
X392200Y202700D02*
Y203900D01*
X392100Y202600D02*
Y203900D01*
X392000Y202600D02*
Y203800D01*
X391900Y202500D02*
Y203800D01*
X391800Y202400D02*
Y203700D01*
X391700Y202400D02*
Y203700D01*
X391600Y202300D02*
Y203600D01*
X391500Y202300D02*
Y203500D01*
X391400Y202200D02*
Y203500D01*
X391300Y202200D02*
Y203400D01*
X391200Y202100D02*
Y203400D01*
X391100Y202000D02*
Y203300D01*
X391000Y202000D02*
Y203300D01*
X390900Y201900D02*
Y203200D01*
X390800Y201900D02*
Y203100D01*
X390700Y201800D02*
Y203100D01*
X390600Y201800D02*
Y203000D01*
X396300Y187300D02*
Y188500D01*
X388300Y191700D02*
Y193000D01*
X396300Y196600D02*
Y198000D01*
Y195200D02*
Y196400D01*
X388300Y195400D02*
Y199500D01*
X396300Y205000D02*
Y206200D01*
X402100Y187200D02*
Y206300D01*
X402000Y186900D02*
Y206600D01*
X401900Y186600D02*
Y206900D01*
X401800Y186500D02*
Y207000D01*
X401700Y186300D02*
Y207200D01*
X401600Y186200D02*
Y207300D01*
X401500Y186100D02*
Y207400D01*
X401400Y186000D02*
Y207500D01*
X401300Y185900D02*
Y207600D01*
X401200Y185900D02*
Y207600D01*
X401100Y185800D02*
Y207700D01*
X400900Y185700D02*
Y187100D01*
X400800Y185600D02*
Y186900D01*
X400700Y185600D02*
Y186800D01*
X400600Y185600D02*
Y186700D01*
X400500Y185600D02*
Y186700D01*
X400400Y185600D02*
Y186600D01*
X400300Y185600D02*
Y186600D01*
X400200Y185600D02*
Y186600D01*
X400100Y185600D02*
Y186600D01*
X400000Y185600D02*
Y186600D01*
X399900Y185600D02*
Y186600D01*
X399800Y185600D02*
Y186600D01*
X399700Y185600D02*
Y186700D01*
X399600Y185600D02*
Y186700D01*
X399500Y185600D02*
Y186800D01*
X399400Y185600D02*
Y186800D01*
X399300Y185700D02*
Y186900D01*
X399200Y185700D02*
Y186900D01*
X395500Y193200D02*
Y196700D01*
X395400Y193100D02*
Y196800D01*
X395300Y193000D02*
Y196800D01*
X395200Y193000D02*
Y196800D01*
X395100Y193000D02*
Y196900D01*
X395000Y193000D02*
Y196900D01*
X394900Y193000D02*
Y196800D01*
X394800Y193000D02*
Y196800D01*
X394700Y193000D02*
Y196700D01*
X394600Y193100D02*
Y196600D01*
X394500Y193100D02*
Y196400D01*
X394400Y193200D02*
Y194300D01*
X394300Y193200D02*
Y194400D01*
X394200Y193200D02*
Y194400D01*
X394100Y193300D02*
Y194400D01*
X394000Y193300D02*
Y194500D01*
X393900Y193300D02*
Y194500D01*
X393800Y193400D02*
Y194500D01*
X393700Y193400D02*
Y194600D01*
X393600Y193400D02*
Y194600D01*
X393500Y193500D02*
Y194600D01*
X393400Y193500D02*
Y194700D01*
X393300Y193500D02*
Y194700D01*
X393200Y193600D02*
Y194800D01*
X393100Y193600D02*
Y194800D01*
X393000Y193700D02*
Y194800D01*
X392900Y193700D02*
Y194900D01*
X392800Y193700D02*
Y194900D01*
X390500Y201700D02*
Y203000D01*
X390400Y201700D02*
Y202900D01*
X390300Y201600D02*
Y202900D01*
X390200Y201500D02*
Y202800D01*
X390100Y201500D02*
Y202700D01*
X390000Y201400D02*
Y202700D01*
X389900Y201400D02*
Y202600D01*
X389800Y201300D02*
Y202600D01*
X389700Y201300D02*
Y202500D01*
X389600Y201200D02*
Y202500D01*
X389500Y201200D02*
Y202400D01*
X389400Y201100D02*
Y202400D01*
X389300Y201100D02*
Y202300D01*
X389200Y201000D02*
Y202200D01*
X389100Y200900D02*
Y202200D01*
X389000Y200900D02*
Y202100D01*
X388900Y200800D02*
Y202100D01*
X388800Y200800D02*
Y202000D01*
X388700Y200700D02*
Y202000D01*
X388600Y200700D02*
Y201900D01*
X388500Y200600D02*
Y201900D01*
X388400Y200600D02*
Y201800D01*
X388200Y200400D02*
Y201700D01*
X387100Y192400D02*
Y193700D01*
X387000Y192500D02*
Y193700D01*
X386900Y192500D02*
Y193800D01*
X386800Y192600D02*
Y193800D01*
X386700Y192600D02*
Y193900D01*
X386600Y192700D02*
Y193900D01*
X386500Y192700D02*
Y194000D01*
X386400Y192800D02*
Y194100D01*
X386300Y192900D02*
Y194100D01*
X386200Y192900D02*
Y194200D01*
X386100Y193000D02*
Y194200D01*
X386000Y193000D02*
Y194300D01*
X385900Y193100D02*
Y194300D01*
X385800Y193100D02*
Y194400D01*
X385700Y193200D02*
Y194400D01*
X385600Y193200D02*
Y194500D01*
X385500Y193300D02*
Y194600D01*
X385400Y193400D02*
Y194600D01*
X385300Y193400D02*
Y194700D01*
X385200Y193500D02*
Y194700D01*
X385100Y193500D02*
Y194800D01*
X385000Y193600D02*
Y194800D01*
X384900Y193600D02*
Y194900D01*
X384800Y193700D02*
Y194900D01*
X384700Y193700D02*
Y195000D01*
X388300Y200500D02*
Y201800D01*
X324800Y77300D02*
X326300D01*
X324800Y79200D02*
X326000D01*
X324800Y79300D02*
X326100D01*
X324900Y79400D02*
X326100D01*
X324900Y79500D02*
X326200D01*
X325000Y79600D02*
X326200D01*
X325000Y79700D02*
X326300D01*
X325100Y79800D02*
X326300D01*
X325100Y79900D02*
X326400D01*
X325200Y80000D02*
X326400D01*
X325200Y80100D02*
X326500D01*
X325300Y80200D02*
X326600D01*
X325400Y80300D02*
X326600D01*
X325400Y80400D02*
X326700D01*
X325500Y80500D02*
X326700D01*
X325500Y80600D02*
X326800D01*
X325600Y80700D02*
X326800D01*
X325600Y80800D02*
X326900D01*
X325700Y80900D02*
X326900D01*
X325700Y81000D02*
X327000D01*
X325800Y81100D02*
X327100D01*
X325900Y81200D02*
X327100D01*
X325900Y81300D02*
X327200D01*
X326000Y81400D02*
X327200D01*
X326000Y81500D02*
X327300D01*
X326100Y81600D02*
X327300D01*
X326100Y81700D02*
X327400D01*
X326200Y81800D02*
X327400D01*
X326200Y81900D02*
X327500D01*
X326300Y82100D02*
X327600D01*
X326400Y82200D02*
X327700D01*
X326500Y82300D02*
X327700D01*
X326500Y82400D02*
X327800D01*
X326600Y82500D02*
X327800D01*
X326600Y82600D02*
X327900D01*
X326700Y82700D02*
X327900D01*
X326700Y82800D02*
X328000D01*
X326800Y82900D02*
X328000D01*
X326800Y83000D02*
X328100D01*
X326900Y83100D02*
X328200D01*
X327000Y83200D02*
X328200D01*
X327000Y83300D02*
X328300D01*
X327100Y83400D02*
X328300D01*
X327100Y83500D02*
X328400D01*
X327200Y83600D02*
X328400D01*
X327200Y83700D02*
X328500D01*
X327300Y83800D02*
X328500D01*
X327300Y83900D02*
X328600D01*
X327400Y84000D02*
X328700D01*
X327500Y84100D02*
X328700D01*
X327500Y84200D02*
X328800D01*
X327600Y84300D02*
X328800D01*
X327600Y84400D02*
X328900D01*
X327700Y84500D02*
X328900D01*
X327700Y84600D02*
X329000D01*
X327800Y84700D02*
X329000D01*
X327800Y84800D02*
X329100D01*
X327900Y84900D02*
X329200D01*
X328000Y85000D02*
X329200D01*
X328000Y85100D02*
X329300D01*
X328100Y85200D02*
X329300D01*
X328100Y85300D02*
X329400D01*
X328200Y85400D02*
X329400D01*
X328200Y85500D02*
X329500D01*
X328300Y85600D02*
X329500D01*
X328300Y85700D02*
X329600D01*
X328400Y85800D02*
X329700D01*
X328500Y85900D02*
X329700D01*
X328500Y86000D02*
X329800D01*
X328600Y86100D02*
X329800D01*
X328600Y86200D02*
X329900D01*
X328700Y86300D02*
X329900D01*
X328700Y86400D02*
X330000D01*
X328800Y86500D02*
X330100D01*
X328800Y86600D02*
X330100D01*
X328900Y86700D02*
X330200D01*
X329000Y86800D02*
X330200D01*
X329000Y86900D02*
X330300D01*
X329100Y87000D02*
X330300D01*
X329100Y87100D02*
X330400D01*
X329200Y87200D02*
X330500D01*
X329200Y87300D02*
X330500D01*
X329300Y87400D02*
X330600D01*
X329400Y87500D02*
X330600D01*
X329400Y87600D02*
X330700D01*
X329500Y87700D02*
X330700D01*
X329500Y87800D02*
X330800D01*
X329600Y87900D02*
X330800D01*
X329600Y88000D02*
X330900D01*
X329700Y88100D02*
X331000D01*
X329800Y88200D02*
X331000D01*
X329800Y88300D02*
X331100D01*
X329900Y88400D02*
X331100D01*
X329900Y88500D02*
X331200D01*
X330000Y88600D02*
X331200D01*
X330000Y88700D02*
X331300D01*
X330100Y88800D02*
X331300D01*
X330100Y88900D02*
X331400D01*
X330200Y89000D02*
X331400D01*
X330300Y89100D02*
X331500D01*
X330300Y89200D02*
X331600D01*
X330400Y89300D02*
X331600D01*
X330400Y89400D02*
X331700D01*
X330500Y89500D02*
X331700D01*
X330500Y89600D02*
X331800D01*
X330600Y89700D02*
X331800D01*
X330600Y89800D02*
X331900D01*
X330700Y89900D02*
X331900D01*
X330800Y90100D02*
X332100D01*
X330900Y90200D02*
X332100D01*
X330900Y90300D02*
X332200D01*
X331000Y90400D02*
X332200D01*
X331000Y90500D02*
X332300D01*
X331100Y90600D02*
X332300D01*
X331100Y90700D02*
X332400D01*
X331200Y90800D02*
X332400D01*
X331200Y90900D02*
X332500D01*
X331300Y91000D02*
X332600D01*
X331400Y91100D02*
X332600D01*
X333200Y78100D02*
X333600D01*
X333100Y78200D02*
X333800D01*
X333000Y78300D02*
X333900D01*
X332900Y78400D02*
X334000D01*
X332900Y78500D02*
X334100D01*
X332900Y78600D02*
X334100D01*
X332900Y78700D02*
X334200D01*
X332900Y78800D02*
X334300D01*
X333000Y78900D02*
X334400D01*
X333000Y79000D02*
X334500D01*
X333100Y79100D02*
X334600D01*
X333100Y79200D02*
X334700D01*
X333100Y79300D02*
X334700D01*
X333200Y79400D02*
X334800D01*
X333200Y79500D02*
X334900D01*
X333300Y79600D02*
X335000D01*
X333300Y79700D02*
X335100D01*
X333300Y79800D02*
X335200D01*
X333400Y79900D02*
X335200D01*
X333400Y80000D02*
X335300D01*
X333500Y80100D02*
X335400D01*
X333500Y80200D02*
X335500D01*
X333500Y80300D02*
X335600D01*
X333600Y80400D02*
X335700D01*
X333600Y80500D02*
X335800D01*
X333700Y80600D02*
X335800D01*
X333700Y80700D02*
X335900D01*
X333700Y80800D02*
X336000D01*
X333800Y80900D02*
X336100D01*
X333800Y81000D02*
X336200D01*
X333900Y81100D02*
X336300D01*
X333900Y81200D02*
X336400D01*
X333900Y81300D02*
X336400D01*
X334000Y81400D02*
X336500D01*
X334000Y81500D02*
X336600D01*
X335300Y81600D02*
X336700D01*
X334100D02*
X335200D01*
X335400Y81700D02*
X336800D01*
X334100D02*
X335300D01*
X335500Y81800D02*
X336900D01*
X334100D02*
X335300D01*
X335600Y81900D02*
X336900D01*
X334200D02*
X335400D01*
X335700Y82100D02*
X337100D01*
X334300D02*
X335400D01*
X335800Y82200D02*
X337200D01*
X334300D02*
X335500D01*
X335900Y82300D02*
X337300D01*
X334300D02*
X335500D01*
X336000Y82400D02*
X337400D01*
X334400D02*
X335600D01*
X336100Y82500D02*
X337500D01*
X334400D02*
X335600D01*
X336200Y82600D02*
X337500D01*
X334500D02*
X335600D01*
X336200Y82700D02*
X337600D01*
X334500D02*
X335700D01*
X336300Y82800D02*
X337700D01*
X336400Y82900D02*
X337800D01*
X336500Y83000D02*
X337900D01*
X336600Y83100D02*
X338000D01*
X336700Y83200D02*
X338100D01*
X336700Y83300D02*
X338100D01*
X336800Y83400D02*
X338200D01*
X336900Y83500D02*
X338300D01*
X337000Y83600D02*
X338400D01*
X337100Y83700D02*
X338500D01*
X337200Y83800D02*
X338600D01*
X337300Y83900D02*
X338700D01*
X337300Y84000D02*
X338700D01*
X337400Y84100D02*
X338800D01*
X337500Y84200D02*
X338900D01*
X337600Y84300D02*
X339000D01*
X337700Y84400D02*
X339100D01*
X337800Y84500D02*
X339200D01*
X336100Y84600D02*
X339300D01*
X335900Y84700D02*
X339300D01*
X335800Y84800D02*
X339400D01*
X335700Y84900D02*
X339500D01*
X335600Y85000D02*
X339500D01*
X335600Y85100D02*
X339500D01*
X335700Y85200D02*
X339500D01*
X335700Y85300D02*
X339500D01*
X335700Y85400D02*
X339500D01*
X335800Y85500D02*
X339400D01*
X335800Y85600D02*
X339300D01*
X332800D02*
X333900D01*
X335800Y85700D02*
X337000D01*
X332800D02*
X334000D01*
X335900Y85800D02*
X337100D01*
X332800D02*
X334000D01*
X335900Y85900D02*
X337100D01*
X332900D02*
X334000D01*
X336000Y86000D02*
X337100D01*
X332900D02*
X334100D01*
X336000Y86100D02*
X337200D01*
X332900D02*
X334100D01*
X336000Y86200D02*
X337200D01*
X333000D02*
X334100D01*
X336100Y86300D02*
X337300D01*
X333000D02*
X334200D01*
X336100Y86400D02*
X337300D01*
X333100D02*
X334200D01*
X336200Y86500D02*
X337300D01*
X333100D02*
X334300D01*
X336200Y86600D02*
X337400D01*
X333100D02*
X334300D01*
X336200Y86700D02*
X337400D01*
X333200D02*
X334300D01*
X336300Y86800D02*
X337500D01*
X333200D02*
X334400D01*
X336300Y86900D02*
X337500D01*
X333200D02*
X334400D01*
X336400Y87000D02*
X337500D01*
X333300D02*
X334400D01*
X336400Y87100D02*
X337600D01*
X333300D02*
X334500D01*
X336400Y87200D02*
X337600D01*
X333400D02*
X334500D01*
X336500Y87300D02*
X337700D01*
X333400D02*
X334600D01*
X336500Y87400D02*
X337700D01*
X333400D02*
X334600D01*
X336600Y87500D02*
X337800D01*
X333500D02*
X334600D01*
X336600Y87600D02*
X337800D01*
X333500D02*
X334700D01*
X336600Y87700D02*
X337800D01*
X333500D02*
X334700D01*
X336700Y87800D02*
X337900D01*
X333600D02*
X334700D01*
X336700Y87900D02*
X337900D01*
X333600D02*
X334800D01*
X336800Y88000D02*
X338000D01*
X333600D02*
X334800D01*
X336800Y88100D02*
X338000D01*
X333700D02*
X334800D01*
X336800Y88200D02*
X338000D01*
X333700D02*
X334900D01*
X336900Y88300D02*
X338100D01*
X333700D02*
X334900D01*
X336900Y88400D02*
X338100D01*
X333800D02*
X334900D01*
X337000Y88500D02*
X338200D01*
X333800D02*
X335000D01*
X337000Y88600D02*
X338200D01*
X333900D02*
X335000D01*
X337000Y88700D02*
X338200D01*
X333900D02*
X335100D01*
X337100Y88800D02*
X338300D01*
X333900D02*
X335100D01*
X337100Y88900D02*
X338300D01*
X334000D02*
X335100D01*
X337200Y89000D02*
X338400D01*
X334000D02*
X335200D01*
X337200Y89100D02*
X338400D01*
X334000D02*
X335200D01*
X334100Y89200D02*
X338400D01*
X334100Y89300D02*
X338500D01*
X334100Y89400D02*
X338500D01*
X334200Y89500D02*
X338600D01*
X334200Y89600D02*
X338600D01*
X334200Y89700D02*
X338600D01*
X334300Y89800D02*
X338600D01*
X334300Y89900D02*
X338600D01*
X334400Y90100D02*
X338500D01*
X339400Y90200D02*
X340600D01*
X334600D02*
X338300D01*
X339300Y90300D02*
X340600D01*
X339300Y90400D02*
X340500D01*
X339200Y90500D02*
X340500D01*
X339200Y90600D02*
X340400D01*
X339100Y90700D02*
X340400D01*
X339100Y90800D02*
X340300D01*
X339000Y90900D02*
X340300D01*
X338900Y91000D02*
X340200D01*
X338900Y91100D02*
X340100D01*
X338800Y91200D02*
X340100D01*
X338800Y91300D02*
X340000D01*
X338700Y91400D02*
X340000D01*
X338700Y91500D02*
X339900D01*
X338600Y91600D02*
X339900D01*
X338600Y91700D02*
X339800D01*
X338500Y91800D02*
X339800D01*
X338400Y91900D02*
X339700D01*
X338400Y92000D02*
X339600D01*
X338300Y92100D02*
X339600D01*
X338300Y92200D02*
X339500D01*
X338200Y92300D02*
X339500D01*
X338200Y92400D02*
X339400D01*
X338100Y92500D02*
X339400D01*
X338100Y92600D02*
X339300D01*
X338000Y92700D02*
X339300D01*
X337900Y92800D02*
X339200D01*
X337900Y92900D02*
X339100D01*
X337800Y93000D02*
X339100D01*
X337800Y93100D02*
X339000D01*
X337700Y93200D02*
X339000D01*
X337700Y93300D02*
X338900D01*
X337600Y93400D02*
X338900D01*
X337600Y93500D02*
X338800D01*
X337500Y93600D02*
X338800D01*
X337400Y93700D02*
X338700D01*
X332800D02*
X334100D01*
X337400Y93800D02*
X338600D01*
X332900D02*
X334100D01*
X337300Y93900D02*
X338600D01*
X332900D02*
X334200D01*
X337300Y94000D02*
X338500D01*
X333000D02*
X334200D01*
X337200Y94100D02*
X338500D01*
X333000D02*
X334300D01*
X337200Y94200D02*
X338400D01*
X333100D02*
X334300D01*
X337100Y94300D02*
X338400D01*
X333100D02*
X334400D01*
X337100Y94400D02*
X338300D01*
X333200D02*
X334400D01*
X337000Y94500D02*
X338300D01*
X333200D02*
X334500D01*
X337000Y94600D02*
X338200D01*
X333300D02*
X334500D01*
X336900Y94700D02*
X338200D01*
X333300D02*
X334600D01*
X336800Y94800D02*
X338100D01*
X333400D02*
X334700D01*
X336800Y94900D02*
X338000D01*
X333500D02*
X334700D01*
X336700Y95000D02*
X338000D01*
X333500D02*
X334800D01*
X336700Y95100D02*
X337900D01*
X333600D02*
X334800D01*
X336600Y95200D02*
X337900D01*
X333600D02*
X334900D01*
X336600Y95300D02*
X337800D01*
X333700D02*
X334900D01*
X336500Y95400D02*
X337800D01*
X333700D02*
X335000D01*
X336400Y95500D02*
X337700D01*
X333800D02*
X335100D01*
X336300Y95600D02*
X337700D01*
X333800D02*
X335200D01*
X336000Y95700D02*
X337600D01*
X333900D02*
X335500D01*
X334000Y95800D02*
X337500D01*
X334000Y95900D02*
X337500D01*
X334100Y96000D02*
X337400D01*
X334200Y96100D02*
X337300D01*
X334300Y96200D02*
X337200D01*
X334400Y96300D02*
X337100D01*
X334500Y96400D02*
X337000D01*
X334600Y96500D02*
X336900D01*
X334800Y96600D02*
X336700D01*
X335000Y96700D02*
X336500D01*
X335400Y96800D02*
X336100D01*
X345200Y77300D02*
X346700D01*
X345400Y77400D02*
X346800D01*
X345600Y77500D02*
X346900D01*
X345700Y77600D02*
X346900D01*
X345800Y77700D02*
X346900D01*
X345800Y77800D02*
X346900D01*
X345900Y77900D02*
X346900D01*
X345900Y78000D02*
X346900D01*
X345900Y78100D02*
X346900D01*
X345900Y78200D02*
X346900D01*
X345900Y78300D02*
X346900D01*
X345900Y78400D02*
X346900D01*
X345900Y78500D02*
X346900D01*
X345800Y78600D02*
X346900D01*
X345800Y78700D02*
X346900D01*
X345700Y78800D02*
X346900D01*
X345700Y78900D02*
X346900D01*
X345600Y79000D02*
X346800D01*
X345500Y79100D02*
X346800D01*
X345500Y79200D02*
X346700D01*
X345400Y79300D02*
X346700D01*
X345400Y79400D02*
X346600D01*
X345300Y79500D02*
X346600D01*
X345300Y79600D02*
X346500D01*
X345200Y79700D02*
X346500D01*
X345200Y79800D02*
X346400D01*
X345100Y79900D02*
X346400D01*
X345100Y80000D02*
X346300D01*
X345000Y80100D02*
X346300D01*
X344900Y80200D02*
X346200D01*
X344900Y80300D02*
X346100D01*
X344800Y80400D02*
X346100D01*
X344800Y80500D02*
X346000D01*
X344700Y80600D02*
X346000D01*
X344700Y80700D02*
X345900D01*
X344600Y80800D02*
X345900D01*
X344600Y80900D02*
X345800D01*
X344500Y81000D02*
X345800D01*
X344400Y81100D02*
X345700D01*
X344400Y81200D02*
X345600D01*
X344300Y81300D02*
X345600D01*
X344300Y81400D02*
X345500D01*
X344200Y81500D02*
X345500D01*
X344200Y81600D02*
X345400D01*
X344100Y81700D02*
X345400D01*
X344100Y81800D02*
X345300D01*
X344000Y81900D02*
X345300D01*
X343900Y82100D02*
X345200D01*
X343800Y82200D02*
X345100D01*
X343800Y82300D02*
X345000D01*
X343700Y82400D02*
X345000D01*
X343700Y82500D02*
X344900D01*
X343600Y82600D02*
X344900D01*
X343600Y82700D02*
X344800D01*
X343500Y82800D02*
X344800D01*
X343500Y82900D02*
X344700D01*
X343400Y83000D02*
X344700D01*
X343300Y83100D02*
X344600D01*
X343300Y83200D02*
X344500D01*
X343200Y83300D02*
X344500D01*
X343200Y83400D02*
X344400D01*
X343100Y83500D02*
X344400D01*
X343100Y83600D02*
X344300D01*
X343000Y83700D02*
X344300D01*
X343000Y83800D02*
X344200D01*
X342900Y83900D02*
X344200D01*
X342800Y84000D02*
X344100D01*
X342800Y84100D02*
X344000D01*
X342700Y84200D02*
X344000D01*
X342700Y84300D02*
X343900D01*
X342600Y84400D02*
X343900D01*
X342600Y84500D02*
X343800D01*
X342500Y84600D02*
X343800D01*
X342500Y84700D02*
X343700D01*
X342400Y84800D02*
X343700D01*
X342300Y84900D02*
X343600D01*
X342300Y85000D02*
X343500D01*
X342200Y85100D02*
X343500D01*
X342200Y85200D02*
X343400D01*
X342100Y85300D02*
X343400D01*
X342100Y85400D02*
X343300D01*
X342000Y85500D02*
X343300D01*
X342000Y85600D02*
X343200D01*
X341900Y85700D02*
X343200D01*
X341800Y85800D02*
X343100D01*
X341800Y85900D02*
X343000D01*
X341700Y86000D02*
X343000D01*
X341700Y86100D02*
X342900D01*
X341600Y86200D02*
X342900D01*
X341600Y86300D02*
X342800D01*
X341500Y86400D02*
X342800D01*
X341400Y86500D02*
X342700D01*
X341400Y86600D02*
X342700D01*
X341300Y86700D02*
X342600D01*
X341300Y86800D02*
X342500D01*
X341200Y86900D02*
X342500D01*
X341200Y87000D02*
X342400D01*
X341100Y87100D02*
X342400D01*
X341000Y87200D02*
X342300D01*
X341000Y87300D02*
X342300D01*
X340900Y87400D02*
X342200D01*
X340900Y87500D02*
X342100D01*
X340800Y87600D02*
X342100D01*
X340800Y87700D02*
X342000D01*
X326300Y82000D02*
X327500D01*
X330700Y90000D02*
X332000D01*
X335600Y82000D02*
X337000D01*
X334200D02*
X335400D01*
X334400Y90000D02*
X338500D01*
X344000Y82000D02*
X345200D01*
X326200Y76200D02*
X345300D01*
X325900Y76300D02*
X345600D01*
X325600Y76400D02*
X345900D01*
X325500Y76500D02*
X346000D01*
X325300Y76600D02*
X346200D01*
X325200Y76700D02*
X346300D01*
X325100Y76800D02*
X346400D01*
X325000Y76900D02*
X346500D01*
X324900Y77000D02*
X346600D01*
X324900Y77100D02*
X346600D01*
X324800Y77200D02*
X346700D01*
X324700Y77400D02*
X326100D01*
X324600Y77500D02*
X325900D01*
X324600Y77600D02*
X325800D01*
X324600Y77700D02*
X325700D01*
X324600Y77800D02*
X325700D01*
X324600Y77900D02*
X325600D01*
X324600Y78000D02*
X325600D01*
X324600Y78100D02*
X325600D01*
X324600Y78200D02*
X325600D01*
X324600Y78300D02*
X325600D01*
X324600Y78400D02*
X325600D01*
X324600Y78500D02*
X325600D01*
X324600Y78600D02*
X325700D01*
X324600Y78700D02*
X325700D01*
X324600Y78800D02*
X325800D01*
X324600Y78900D02*
X325800D01*
X324700Y79000D02*
X325900D01*
X324700Y79100D02*
X325900D01*
X332200Y82800D02*
X335700D01*
X332100Y82900D02*
X335800D01*
X332000Y83000D02*
X335800D01*
X332000Y83100D02*
X335800D01*
X332000Y83200D02*
X335900D01*
X332000Y83300D02*
X335900D01*
X332000Y83400D02*
X335800D01*
X332000Y83500D02*
X335800D01*
X332000Y83600D02*
X335700D01*
X332100Y83700D02*
X335600D01*
X332100Y83800D02*
X335400D01*
X332200Y83900D02*
X333300D01*
X332200Y84000D02*
X333400D01*
X332200Y84100D02*
X333400D01*
X332300Y84200D02*
X333400D01*
X332300Y84300D02*
X333500D01*
X332300Y84400D02*
X333500D01*
X332400Y84500D02*
X333500D01*
X332400Y84600D02*
X333600D01*
X332400Y84700D02*
X333600D01*
X332500Y84800D02*
X333600D01*
X332500Y84900D02*
X333700D01*
X332500Y85000D02*
X333700D01*
X332600Y85100D02*
X333800D01*
X332600Y85200D02*
X333800D01*
X332700Y85300D02*
X333800D01*
X332700Y85400D02*
X333900D01*
X332700Y85500D02*
X333900D01*
X340700Y87800D02*
X342000D01*
X340700Y87900D02*
X341900D01*
X340600Y88000D02*
X341900D01*
X340500Y88100D02*
X341800D01*
X340500Y88200D02*
X341700D01*
X340400Y88300D02*
X341700D01*
X340400Y88400D02*
X341600D01*
X340300Y88500D02*
X341600D01*
X340300Y88600D02*
X341500D01*
X340200Y88700D02*
X341500D01*
X340200Y88800D02*
X341400D01*
X340100Y88900D02*
X341400D01*
X340100Y89000D02*
X341300D01*
X340000Y89100D02*
X341200D01*
X339900Y89200D02*
X341200D01*
X339900Y89300D02*
X341100D01*
X339800Y89400D02*
X341100D01*
X339800Y89500D02*
X341000D01*
X339700Y89600D02*
X341000D01*
X339700Y89700D02*
X340900D01*
X339600Y89800D02*
X340900D01*
X339600Y89900D02*
X340800D01*
X339400Y90100D02*
X340700D01*
X331400Y91200D02*
X332700D01*
X331500Y91300D02*
X332700D01*
X331500Y91400D02*
X332800D01*
X331600Y91500D02*
X332800D01*
X331600Y91600D02*
X332900D01*
X331700Y91700D02*
X332900D01*
X331700Y91800D02*
X333000D01*
X331800Y91900D02*
X333100D01*
X331900Y92000D02*
X333100D01*
X331900Y92100D02*
X333200D01*
X332000Y92200D02*
X333200D01*
X332000Y92300D02*
X333300D01*
X332100Y92400D02*
X333300D01*
X332100Y92500D02*
X333400D01*
X332200Y92600D02*
X333400D01*
X332200Y92700D02*
X333500D01*
X332300Y92800D02*
X333600D01*
X332400Y92900D02*
X333600D01*
X332400Y93000D02*
X333700D01*
X332500Y93100D02*
X333700D01*
X332500Y93200D02*
X333800D01*
X332600Y93300D02*
X333800D01*
X332600Y93400D02*
X333900D01*
X332700Y93500D02*
X333900D01*
X332700Y93600D02*
X334000D01*
X339500Y90000D02*
X340800D01*
X326500Y246100D02*
X328000D01*
X326500Y248000D02*
X327700D01*
X326500Y248100D02*
X327800D01*
X326600Y248200D02*
X327800D01*
X326600Y248300D02*
X327900D01*
X326700Y248400D02*
X327900D01*
X326700Y248500D02*
X328000D01*
X326800Y248600D02*
X328000D01*
X326800Y248700D02*
X328100D01*
X326900Y248800D02*
X328100D01*
X326900Y248900D02*
X328200D01*
X327000Y249000D02*
X328300D01*
X327100Y249100D02*
X328300D01*
X327100Y249200D02*
X328400D01*
X327200Y249300D02*
X328400D01*
X327200Y249400D02*
X328500D01*
X327300Y249500D02*
X328500D01*
X327300Y249600D02*
X328600D01*
X327400Y249700D02*
X328600D01*
X327400Y249800D02*
X328700D01*
X327500Y249900D02*
X328800D01*
X327600Y250000D02*
X328800D01*
X327600Y250100D02*
X328900D01*
X327700Y250200D02*
X328900D01*
X327700Y250300D02*
X329000D01*
X327800Y250400D02*
X329000D01*
X327800Y250500D02*
X329100D01*
X327900Y250600D02*
X329100D01*
X327900Y250700D02*
X329200D01*
X328000Y250900D02*
X329300D01*
X328100Y251000D02*
X329400D01*
X328200Y251100D02*
X329400D01*
X328200Y251200D02*
X329500D01*
X328300Y251300D02*
X329500D01*
X328300Y251400D02*
X329600D01*
X328400Y251500D02*
X329600D01*
X328400Y251600D02*
X329700D01*
X328500Y251700D02*
X329700D01*
X328500Y251800D02*
X329800D01*
X328600Y251900D02*
X329900D01*
X328700Y252000D02*
X329900D01*
X328700Y252100D02*
X330000D01*
X328800Y252200D02*
X330000D01*
X328800Y252300D02*
X330100D01*
X328900Y252400D02*
X330100D01*
X328900Y252500D02*
X330200D01*
X329000Y252600D02*
X330200D01*
X329000Y252700D02*
X330300D01*
X329100Y252800D02*
X330400D01*
X329200Y252900D02*
X330400D01*
X329200Y253000D02*
X330500D01*
X329300Y253100D02*
X330500D01*
X329300Y253200D02*
X330600D01*
X329400Y253300D02*
X330600D01*
X329400Y253400D02*
X330700D01*
X329500Y253500D02*
X330700D01*
X329500Y253600D02*
X330800D01*
X329600Y253700D02*
X330900D01*
X329700Y253800D02*
X330900D01*
X329700Y253900D02*
X331000D01*
X329800Y254000D02*
X331000D01*
X329800Y254100D02*
X331100D01*
X329900Y254200D02*
X331100D01*
X329900Y254300D02*
X331200D01*
X330000Y254400D02*
X331200D01*
X330000Y254500D02*
X331300D01*
X330100Y254600D02*
X331400D01*
X330200Y254700D02*
X331400D01*
X330200Y254800D02*
X331500D01*
X330300Y254900D02*
X331500D01*
X330300Y255000D02*
X331600D01*
X330400Y255100D02*
X331600D01*
X330400Y255200D02*
X331700D01*
X330500Y255300D02*
X331800D01*
X330500Y255400D02*
X331800D01*
X330600Y255500D02*
X331900D01*
X330700Y255600D02*
X331900D01*
X330700Y255700D02*
X332000D01*
X330800Y255800D02*
X332000D01*
X330800Y255900D02*
X332100D01*
X330900Y256000D02*
X332200D01*
X330900Y256100D02*
X332200D01*
X331000Y256200D02*
X332300D01*
X331100Y256300D02*
X332300D01*
X331100Y256400D02*
X332400D01*
X331200Y256500D02*
X332400D01*
X331200Y256600D02*
X332500D01*
X331300Y256700D02*
X332500D01*
X331300Y256800D02*
X332600D01*
X331400Y256900D02*
X332700D01*
X331500Y257000D02*
X332700D01*
X331500Y257100D02*
X332800D01*
X331600Y257200D02*
X332800D01*
X331600Y257300D02*
X332900D01*
X331700Y257400D02*
X332900D01*
X331700Y257500D02*
X333000D01*
X331800Y257600D02*
X333000D01*
X331800Y257700D02*
X333100D01*
X331900Y257800D02*
X333100D01*
X332000Y257900D02*
X333200D01*
X332000Y258000D02*
X333300D01*
X332100Y258100D02*
X333300D01*
X332100Y258200D02*
X333400D01*
X332200Y258300D02*
X333400D01*
X332200Y258400D02*
X333500D01*
X332300Y258500D02*
X333500D01*
X332300Y258600D02*
X333600D01*
X332400Y258700D02*
X333600D01*
X332500Y258900D02*
X333800D01*
X332600Y259000D02*
X333800D01*
X332600Y259100D02*
X333900D01*
X332700Y259200D02*
X333900D01*
X332700Y259300D02*
X334000D01*
X332800Y259400D02*
X334000D01*
X332800Y259500D02*
X334100D01*
X332900Y259600D02*
X334100D01*
X332900Y259700D02*
X334200D01*
X333000Y259800D02*
X334300D01*
X333100Y259900D02*
X334300D01*
X334900Y246900D02*
X335300D01*
X334800Y247000D02*
X335500D01*
X334700Y247100D02*
X335600D01*
X334600Y247200D02*
X335700D01*
X334600Y247300D02*
X335800D01*
X334600Y247400D02*
X335800D01*
X334600Y247500D02*
X335900D01*
X334600Y247600D02*
X336000D01*
X334700Y247700D02*
X336100D01*
X334700Y247800D02*
X336200D01*
X334800Y247900D02*
X336300D01*
X334800Y248000D02*
X336400D01*
X334800Y248100D02*
X336400D01*
X334900Y248200D02*
X336500D01*
X334900Y248300D02*
X336600D01*
X335000Y248400D02*
X336700D01*
X335000Y248500D02*
X336800D01*
X335000Y248600D02*
X336900D01*
X335100Y248700D02*
X336900D01*
X335100Y248800D02*
X337000D01*
X335200Y248900D02*
X337100D01*
X335200Y249000D02*
X337200D01*
X335200Y249100D02*
X337300D01*
X335300Y249200D02*
X337400D01*
X335300Y249300D02*
X337500D01*
X335400Y249400D02*
X337500D01*
X335400Y249500D02*
X337600D01*
X335400Y249600D02*
X337700D01*
X335500Y249700D02*
X337800D01*
X335500Y249800D02*
X337900D01*
X335600Y249900D02*
X338000D01*
X335600Y250000D02*
X338100D01*
X335600Y250100D02*
X338100D01*
X335700Y250200D02*
X338200D01*
X335700Y250300D02*
X338300D01*
X337000Y250400D02*
X338400D01*
X335800D02*
X336900D01*
X337100Y250500D02*
X338500D01*
X335800D02*
X337000D01*
X337200Y250600D02*
X338600D01*
X335800D02*
X337000D01*
X337300Y250700D02*
X338600D01*
X335900D02*
X337100D01*
X337400Y250900D02*
X338800D01*
X336000D02*
X337100D01*
X337500Y251000D02*
X338900D01*
X336000D02*
X337200D01*
X337600Y251100D02*
X339000D01*
X336000D02*
X337200D01*
X337700Y251200D02*
X339100D01*
X336100D02*
X337300D01*
X337800Y251300D02*
X339200D01*
X336100D02*
X337300D01*
X337900Y251400D02*
X339200D01*
X336200D02*
X337300D01*
X337900Y251500D02*
X339300D01*
X336200D02*
X337400D01*
X338000Y251600D02*
X339400D01*
X338100Y251700D02*
X339500D01*
X338200Y251800D02*
X339600D01*
X338300Y251900D02*
X339700D01*
X338400Y252000D02*
X339800D01*
X338400Y252100D02*
X339800D01*
X338500Y252200D02*
X339900D01*
X338600Y252300D02*
X340000D01*
X338700Y252400D02*
X340100D01*
X338800Y252500D02*
X340200D01*
X338900Y252600D02*
X340300D01*
X339000Y252700D02*
X340400D01*
X339000Y252800D02*
X340400D01*
X339100Y252900D02*
X340500D01*
X339200Y253000D02*
X340600D01*
X339300Y253100D02*
X340700D01*
X339400Y253200D02*
X340800D01*
X339500Y253300D02*
X340900D01*
X337800Y253400D02*
X341000D01*
X337600Y253500D02*
X341000D01*
X337500Y253600D02*
X341100D01*
X337400Y253700D02*
X341200D01*
X337300Y253800D02*
X341200D01*
X337300Y253900D02*
X341200D01*
X337400Y254000D02*
X341200D01*
X337400Y254100D02*
X341200D01*
X337400Y254200D02*
X341200D01*
X337500Y254300D02*
X341100D01*
X337500Y254400D02*
X341000D01*
X334500D02*
X335600D01*
X337500Y254500D02*
X338700D01*
X334500D02*
X335700D01*
X337600Y254600D02*
X338800D01*
X334500D02*
X335700D01*
X337600Y254700D02*
X338800D01*
X334600D02*
X335700D01*
X337700Y254800D02*
X338800D01*
X334600D02*
X335800D01*
X337700Y254900D02*
X338900D01*
X334600D02*
X335800D01*
X337700Y255000D02*
X338900D01*
X334700D02*
X335800D01*
X337800Y255100D02*
X339000D01*
X334700D02*
X335900D01*
X337800Y255200D02*
X339000D01*
X334800D02*
X335900D01*
X337900Y255300D02*
X339000D01*
X334800D02*
X336000D01*
X337900Y255400D02*
X339100D01*
X334800D02*
X336000D01*
X337900Y255500D02*
X339100D01*
X334900D02*
X336000D01*
X338000Y255600D02*
X339200D01*
X334900D02*
X336100D01*
X338000Y255700D02*
X339200D01*
X334900D02*
X336100D01*
X338100Y255800D02*
X339200D01*
X335000D02*
X336100D01*
X338100Y255900D02*
X339300D01*
X335000D02*
X336200D01*
X338100Y256000D02*
X339300D01*
X335100D02*
X336200D01*
X338200Y256100D02*
X339400D01*
X335100D02*
X336300D01*
X338200Y256200D02*
X339400D01*
X335100D02*
X336300D01*
X338300Y256300D02*
X339500D01*
X335200D02*
X336300D01*
X338300Y256400D02*
X339500D01*
X335200D02*
X336400D01*
X338300Y256500D02*
X339500D01*
X335200D02*
X336400D01*
X338400Y256600D02*
X339600D01*
X335300D02*
X336400D01*
X338400Y256700D02*
X339600D01*
X335300D02*
X336500D01*
X338500Y256800D02*
X339700D01*
X335300D02*
X336500D01*
X338500Y256900D02*
X339700D01*
X335400D02*
X336500D01*
X338500Y257000D02*
X339700D01*
X335400D02*
X336600D01*
X338600Y257100D02*
X339800D01*
X335400D02*
X336600D01*
X338600Y257200D02*
X339800D01*
X335500D02*
X336600D01*
X338700Y257300D02*
X339900D01*
X335500D02*
X336700D01*
X338700Y257400D02*
X339900D01*
X335600D02*
X336700D01*
X338700Y257500D02*
X339900D01*
X335600D02*
X336800D01*
X338800Y257600D02*
X340000D01*
X335600D02*
X336800D01*
X338800Y257700D02*
X340000D01*
X335700D02*
X336800D01*
X338900Y257800D02*
X340100D01*
X335700D02*
X336900D01*
X338900Y257900D02*
X340100D01*
X335700D02*
X336900D01*
X335800Y258000D02*
X340100D01*
X335800Y258100D02*
X340200D01*
X335800Y258200D02*
X340200D01*
X335900Y258300D02*
X340300D01*
X335900Y258400D02*
X340300D01*
X335900Y258500D02*
X340300D01*
X336000Y258600D02*
X340300D01*
X336000Y258700D02*
X340300D01*
X336100Y258900D02*
X340200D01*
X341100Y259000D02*
X342300D01*
X336300D02*
X340000D01*
X341000Y259100D02*
X342300D01*
X341000Y259200D02*
X342200D01*
X340900Y259300D02*
X342200D01*
X340900Y259400D02*
X342100D01*
X340800Y259500D02*
X342100D01*
X340800Y259600D02*
X342000D01*
X340700Y259700D02*
X342000D01*
X340600Y259800D02*
X341900D01*
X340600Y259900D02*
X341800D01*
X340500Y260000D02*
X341800D01*
X340500Y260100D02*
X341700D01*
X340400Y260200D02*
X341700D01*
X340400Y260300D02*
X341600D01*
X340300Y260400D02*
X341600D01*
X340300Y260500D02*
X341500D01*
X340200Y260600D02*
X341500D01*
X340100Y260700D02*
X341400D01*
X340100Y260800D02*
X341300D01*
X340000Y260900D02*
X341300D01*
X340000Y261000D02*
X341200D01*
X339900Y261100D02*
X341200D01*
X339900Y261200D02*
X341100D01*
X339800Y261300D02*
X341100D01*
X339800Y261400D02*
X341000D01*
X339700Y261500D02*
X341000D01*
X339600Y261600D02*
X340900D01*
X339600Y261700D02*
X340800D01*
X339500Y261800D02*
X340800D01*
X339500Y261900D02*
X340700D01*
X339400Y262000D02*
X340700D01*
X339400Y262100D02*
X340600D01*
X339300Y262200D02*
X340600D01*
X339300Y262300D02*
X340500D01*
X339200Y262400D02*
X340500D01*
X339100Y262500D02*
X340400D01*
X334500D02*
X335800D01*
X339100Y262600D02*
X340300D01*
X334600D02*
X335800D01*
X339000Y262700D02*
X340300D01*
X334600D02*
X335900D01*
X339000Y262800D02*
X340200D01*
X334700D02*
X335900D01*
X338900Y262900D02*
X340200D01*
X334700D02*
X336000D01*
X338900Y263000D02*
X340100D01*
X334800D02*
X336000D01*
X338800Y263100D02*
X340100D01*
X334800D02*
X336100D01*
X338800Y263200D02*
X340000D01*
X334900D02*
X336100D01*
X338700Y263300D02*
X340000D01*
X334900D02*
X336200D01*
X338700Y263400D02*
X339900D01*
X335000D02*
X336200D01*
X338600Y263500D02*
X339900D01*
X335000D02*
X336300D01*
X338500Y263600D02*
X339800D01*
X335100D02*
X336400D01*
X338500Y263700D02*
X339700D01*
X335200D02*
X336400D01*
X338400Y263800D02*
X339700D01*
X335200D02*
X336500D01*
X338400Y263900D02*
X339600D01*
X335300D02*
X336500D01*
X338300Y264000D02*
X339600D01*
X335300D02*
X336600D01*
X338300Y264100D02*
X339500D01*
X335400D02*
X336600D01*
X338200Y264200D02*
X339500D01*
X335400D02*
X336700D01*
X338100Y264300D02*
X339400D01*
X335500D02*
X336800D01*
X338000Y264400D02*
X339400D01*
X335500D02*
X336900D01*
X337700Y264500D02*
X339300D01*
X335600D02*
X337200D01*
X335700Y264600D02*
X339200D01*
X335700Y264700D02*
X339200D01*
X335800Y264800D02*
X339100D01*
X335900Y264900D02*
X339000D01*
X336000Y265000D02*
X338900D01*
X336100Y265100D02*
X338800D01*
X336200Y265200D02*
X338700D01*
X336300Y265300D02*
X338600D01*
X336500Y265400D02*
X338400D01*
X336700Y265500D02*
X338200D01*
X337100Y265600D02*
X337800D01*
X346900Y246100D02*
X348400D01*
X347100Y246200D02*
X348500D01*
X347300Y246300D02*
X348600D01*
X347400Y246400D02*
X348600D01*
X347500Y246500D02*
X348600D01*
X347500Y246600D02*
X348600D01*
X347600Y246700D02*
X348600D01*
X347600Y246800D02*
X348600D01*
X347600Y246900D02*
X348600D01*
X347600Y247000D02*
X348600D01*
X347600Y247100D02*
X348600D01*
X347600Y247200D02*
X348600D01*
X347600Y247300D02*
X348600D01*
X347500Y247400D02*
X348600D01*
X347500Y247500D02*
X348600D01*
X347400Y247600D02*
X348600D01*
X347400Y247700D02*
X348600D01*
X347300Y247800D02*
X348500D01*
X347200Y247900D02*
X348500D01*
X347200Y248000D02*
X348400D01*
X347100Y248100D02*
X348400D01*
X347100Y248200D02*
X348300D01*
X347000Y248300D02*
X348300D01*
X347000Y248400D02*
X348200D01*
X346900Y248500D02*
X348200D01*
X346900Y248600D02*
X348100D01*
X346800Y248700D02*
X348100D01*
X346800Y248800D02*
X348000D01*
X346700Y248900D02*
X348000D01*
X346600Y249000D02*
X347900D01*
X346600Y249100D02*
X347800D01*
X346500Y249200D02*
X347800D01*
X346500Y249300D02*
X347700D01*
X346400Y249400D02*
X347700D01*
X346400Y249500D02*
X347600D01*
X346300Y249600D02*
X347600D01*
X346300Y249700D02*
X347500D01*
X346200Y249800D02*
X347500D01*
X346100Y249900D02*
X347400D01*
X346100Y250000D02*
X347300D01*
X346000Y250100D02*
X347300D01*
X346000Y250200D02*
X347200D01*
X345900Y250300D02*
X347200D01*
X345900Y250400D02*
X347100D01*
X345800Y250500D02*
X347100D01*
X345800Y250600D02*
X347000D01*
X345700Y250700D02*
X347000D01*
X345600Y250900D02*
X346900D01*
X345500Y251000D02*
X346800D01*
X345500Y251100D02*
X346700D01*
X345400Y251200D02*
X346700D01*
X345400Y251300D02*
X346600D01*
X345300Y251400D02*
X346600D01*
X345300Y251500D02*
X346500D01*
X345200Y251600D02*
X346500D01*
X345200Y251700D02*
X346400D01*
X345100Y251800D02*
X346400D01*
X345000Y251900D02*
X346300D01*
X345000Y252000D02*
X346200D01*
X344900Y252100D02*
X346200D01*
X344900Y252200D02*
X346100D01*
X344800Y252300D02*
X346100D01*
X344800Y252400D02*
X346000D01*
X344700Y252500D02*
X346000D01*
X344700Y252600D02*
X345900D01*
X344600Y252700D02*
X345900D01*
X344500Y252800D02*
X345800D01*
X344500Y252900D02*
X345700D01*
X344400Y253000D02*
X345700D01*
X344400Y253100D02*
X345600D01*
X344300Y253200D02*
X345600D01*
X344300Y253300D02*
X345500D01*
X344200Y253400D02*
X345500D01*
X344200Y253500D02*
X345400D01*
X344100Y253600D02*
X345400D01*
X344000Y253700D02*
X345300D01*
X344000Y253800D02*
X345200D01*
X343900Y253900D02*
X345200D01*
X343900Y254000D02*
X345100D01*
X343800Y254100D02*
X345100D01*
X343800Y254200D02*
X345000D01*
X343700Y254300D02*
X345000D01*
X343700Y254400D02*
X344900D01*
X343600Y254500D02*
X344900D01*
X343500Y254600D02*
X344800D01*
X343500Y254700D02*
X344700D01*
X343400Y254800D02*
X344700D01*
X343400Y254900D02*
X344600D01*
X343300Y255000D02*
X344600D01*
X343300Y255100D02*
X344500D01*
X343200Y255200D02*
X344500D01*
X343100Y255300D02*
X344400D01*
X343100Y255400D02*
X344400D01*
X343000Y255500D02*
X344300D01*
X343000Y255600D02*
X344200D01*
X342900Y255700D02*
X344200D01*
X342900Y255800D02*
X344100D01*
X342800Y255900D02*
X344100D01*
X342700Y256000D02*
X344000D01*
X342700Y256100D02*
X344000D01*
X342600Y256200D02*
X343900D01*
X342600Y256300D02*
X343800D01*
X342500Y256400D02*
X343800D01*
X342500Y256500D02*
X343700D01*
X328000Y250800D02*
X329200D01*
X332400Y258800D02*
X333700D01*
X337300Y250800D02*
X338700D01*
X335900D02*
X337100D01*
X336100Y258800D02*
X340200D01*
X345700Y250800D02*
X346900D01*
X327900Y245000D02*
X347000D01*
X327600Y245100D02*
X347300D01*
X327300Y245200D02*
X347600D01*
X327200Y245300D02*
X347700D01*
X327000Y245400D02*
X347900D01*
X326900Y245500D02*
X348000D01*
X326800Y245600D02*
X348100D01*
X326700Y245700D02*
X348200D01*
X326600Y245800D02*
X348300D01*
X326600Y245900D02*
X348300D01*
X326500Y246000D02*
X348400D01*
X326400Y246200D02*
X327800D01*
X326300Y246300D02*
X327600D01*
X326300Y246400D02*
X327500D01*
X326300Y246500D02*
X327400D01*
X326300Y246600D02*
X327400D01*
X326300Y246700D02*
X327300D01*
X326300Y246800D02*
X327300D01*
X326300Y246900D02*
X327300D01*
X326300Y247000D02*
X327300D01*
X326300Y247100D02*
X327300D01*
X326300Y247200D02*
X327300D01*
X326300Y247300D02*
X327300D01*
X326300Y247400D02*
X327400D01*
X326300Y247500D02*
X327400D01*
X326300Y247600D02*
X327500D01*
X326300Y247700D02*
X327500D01*
X326400Y247800D02*
X327600D01*
X326400Y247900D02*
X327600D01*
X333900Y251600D02*
X337400D01*
X333800Y251700D02*
X337500D01*
X333700Y251800D02*
X337500D01*
X333700Y251900D02*
X337500D01*
X333700Y252000D02*
X337600D01*
X333700Y252100D02*
X337600D01*
X333700Y252200D02*
X337500D01*
X333700Y252300D02*
X337500D01*
X333700Y252400D02*
X337400D01*
X333800Y252500D02*
X337300D01*
X333800Y252600D02*
X337100D01*
X333900Y252700D02*
X335000D01*
X333900Y252800D02*
X335100D01*
X333900Y252900D02*
X335100D01*
X334000Y253000D02*
X335100D01*
X334000Y253100D02*
X335200D01*
X334000Y253200D02*
X335200D01*
X334100Y253300D02*
X335200D01*
X334100Y253400D02*
X335300D01*
X334100Y253500D02*
X335300D01*
X334200Y253600D02*
X335300D01*
X334200Y253700D02*
X335400D01*
X334200Y253800D02*
X335400D01*
X334300Y253900D02*
X335500D01*
X334300Y254000D02*
X335500D01*
X334400Y254100D02*
X335500D01*
X334400Y254200D02*
X335600D01*
X334400Y254300D02*
X335600D01*
X342400Y256600D02*
X343700D01*
X342400Y256700D02*
X343600D01*
X342300Y256800D02*
X343600D01*
X342200Y256900D02*
X343500D01*
X342200Y257000D02*
X343400D01*
X342100Y257100D02*
X343400D01*
X342100Y257200D02*
X343300D01*
X342000Y257300D02*
X343300D01*
X342000Y257400D02*
X343200D01*
X341900Y257500D02*
X343200D01*
X341900Y257600D02*
X343100D01*
X341800Y257700D02*
X343100D01*
X341800Y257800D02*
X343000D01*
X341700Y257900D02*
X342900D01*
X341600Y258000D02*
X342900D01*
X341600Y258100D02*
X342800D01*
X341500Y258200D02*
X342800D01*
X341500Y258300D02*
X342700D01*
X341400Y258400D02*
X342700D01*
X341400Y258500D02*
X342600D01*
X341300Y258600D02*
X342600D01*
X341300Y258700D02*
X342500D01*
X341100Y258900D02*
X342400D01*
X333100Y260000D02*
X334400D01*
X333200Y260100D02*
X334400D01*
X333200Y260200D02*
X334500D01*
X333300Y260300D02*
X334500D01*
X333300Y260400D02*
X334600D01*
X333400Y260500D02*
X334600D01*
X333400Y260600D02*
X334700D01*
X333500Y260700D02*
X334800D01*
X333600Y260800D02*
X334800D01*
X333600Y260900D02*
X334900D01*
X333700Y261000D02*
X334900D01*
X333700Y261100D02*
X335000D01*
X333800Y261200D02*
X335000D01*
X333800Y261300D02*
X335100D01*
X333900Y261400D02*
X335100D01*
X333900Y261500D02*
X335200D01*
X334000Y261600D02*
X335300D01*
X334100Y261700D02*
X335300D01*
X334100Y261800D02*
X335400D01*
X334200Y261900D02*
X335400D01*
X334200Y262000D02*
X335500D01*
X334300Y262100D02*
X335500D01*
X334300Y262200D02*
X335600D01*
X334400Y262300D02*
X335600D01*
X334400Y262400D02*
X335700D01*
X341200Y258800D02*
X342500D01*
D19*
X375777Y99800D02*
X383775D01*
X381109D01*
X375777Y105132D01*
X379776Y101133D01*
X383775Y105132D01*
X378443Y109130D02*
Y111796D01*
X379776Y113129D01*
X383775D01*
Y109130D01*
X382442Y107797D01*
X381109Y109130D01*
Y113129D01*
X378443Y115795D02*
X383775D01*
X381109D01*
X379776Y117128D01*
X378443Y118461D01*
Y119793D01*
Y125125D02*
Y127791D01*
X379776Y129124D01*
X383775D01*
Y125125D01*
X382442Y123792D01*
X381109Y125125D01*
Y129124D01*
X383775Y131790D02*
X375777D01*
X381109D02*
X378443Y135788D01*
X381109Y131790D02*
X383775Y135788D01*
X378443Y141120D02*
Y143786D01*
X379776Y145119D01*
X383775D01*
Y141120D01*
X382442Y139787D01*
X381109Y141120D01*
Y145119D01*
X378443Y147784D02*
X382442D01*
X383775Y149117D01*
Y153116D01*
X385107D01*
X386440Y151783D01*
Y150450D01*
X383775Y153116D02*
X378443D01*
Y157115D02*
Y159781D01*
X379776Y161114D01*
X383775D01*
Y157115D01*
X382442Y155782D01*
X381109Y157115D01*
Y161114D01*
X392840Y99800D02*
X400837D01*
X398171D01*
X392840Y105132D01*
X396839Y101133D01*
X400837Y105132D01*
Y111796D02*
Y109130D01*
X399504Y107797D01*
X396839D01*
X395506Y109130D01*
Y111796D01*
X396839Y113129D01*
X398171D01*
Y107797D01*
X395506Y115795D02*
X399504D01*
X400837Y117128D01*
Y121126D01*
X402170D01*
X403503Y119793D01*
Y118461D01*
X400837Y121126D02*
X395506D01*
X400837Y123792D02*
Y127791D01*
X399504Y129124D01*
X398171Y127791D01*
Y125125D01*
X396839Y123792D01*
X395506Y125125D01*
Y129124D01*
Y133123D02*
Y135788D01*
X396839Y137121D01*
X400837D01*
Y133123D01*
X399504Y131790D01*
X398171Y133123D01*
Y137121D01*
X400837Y139787D02*
X395506D01*
Y143786D01*
X396839Y145119D01*
X400837D01*
X417900Y105132D02*
Y99800D01*
X412568Y105132D01*
X411236D01*
X409903Y103799D01*
Y101133D01*
X411236Y99800D01*
Y107797D02*
X409903Y109130D01*
Y111796D01*
X411236Y113129D01*
X416567D01*
X417900Y111796D01*
Y109130D01*
X416567Y107797D01*
X411236D01*
X417900Y121126D02*
Y115795D01*
X412568Y121126D01*
X411236D01*
X409903Y119793D01*
Y117128D01*
X411236Y115795D01*
Y123792D02*
X409903Y125125D01*
Y127791D01*
X411236Y129124D01*
X416567D01*
X417900Y127791D01*
Y125125D01*
X416567Y123792D01*
X411236D01*
X413901Y139787D02*
Y145119D01*
X412568Y155782D02*
X417900Y158448D01*
X412568Y161114D01*
X417900Y163779D02*
Y166445D01*
Y165112D01*
X409903D01*
X411236Y163779D01*
X417900Y170444D02*
X416567D01*
Y171777D01*
X417900D01*
Y170444D01*
Y177108D02*
Y179774D01*
Y178441D01*
X409903D01*
X411236Y177108D01*
X330950Y212199D02*
X336282D01*
X395406Y297200D02*
X403403D01*
Y301199D01*
X402070Y302532D01*
X400737D01*
X399404Y301199D01*
Y297200D01*
Y301199D01*
X398072Y302532D01*
X396739D01*
X395406Y301199D01*
Y297200D01*
X398072Y305197D02*
X402070D01*
X403403Y306530D01*
Y310529D01*
X398072D01*
Y318526D02*
Y314528D01*
X399404Y313195D01*
X402070D01*
X403403Y314528D01*
Y318526D01*
Y321192D02*
X395406D01*
X400737D02*
X398072Y325191D01*
X400737Y321192D02*
X403403Y325191D01*
X411135Y302532D02*
X409803Y301199D01*
Y298533D01*
X411135Y297200D01*
X416467D01*
X417800Y298533D01*
Y301199D01*
X416467Y302532D01*
X417800Y306530D02*
Y309196D01*
X416467Y310529D01*
X413801D01*
X412468Y309196D01*
Y306530D01*
X413801Y305197D01*
X416467D01*
X417800Y306530D01*
Y313195D02*
X412468D01*
Y317194D01*
X413801Y318526D01*
X417800D01*
X412468Y321192D02*
X417800Y323858D01*
X412468Y326524D01*
X417800Y333188D02*
Y330522D01*
X416467Y329190D01*
X413801D01*
X412468Y330522D01*
Y333188D01*
X413801Y334521D01*
X415134D01*
Y329190D01*
X412468Y337187D02*
X417800D01*
X415134D01*
X413801Y338520D01*
X412468Y339853D01*
Y341186D01*
X411135Y346517D02*
X412468D01*
Y345184D01*
Y347850D01*
Y346517D01*
X416467D01*
X417800Y347850D01*
Y355848D02*
Y353182D01*
X416467Y351849D01*
X413801D01*
X412468Y353182D01*
Y355848D01*
X413801Y357181D01*
X415134D01*
Y351849D01*
X412468Y359846D02*
X417800D01*
X415134D01*
X413801Y361179D01*
X412468Y362512D01*
Y363845D01*
X279700Y354200D02*
Y346203D01*
X277034Y348868D01*
X274368Y346203D01*
Y354200D01*
X266371Y346203D02*
X271703D01*
Y354200D01*
X266371D01*
X271703Y350201D02*
X269037D01*
X263705Y346203D02*
X258374D01*
X261039D01*
Y354200D01*
X255708Y346203D02*
Y352867D01*
X254375Y354200D01*
X251709D01*
X250376Y352867D01*
Y346203D01*
X239713Y354200D02*
Y346203D01*
X235714D01*
X234381Y347535D01*
Y350201D01*
X235714Y351534D01*
X239713D01*
X230383Y354200D02*
X227717D01*
X226384Y352867D01*
Y350201D01*
X227717Y348868D01*
X230383D01*
X231715Y350201D01*
Y352867D01*
X230383Y354200D01*
X223718Y348868D02*
Y352867D01*
X222385Y354200D01*
X221052Y352867D01*
X219719Y354200D01*
X218387Y352867D01*
Y348868D01*
X211722Y354200D02*
X214388D01*
X215721Y352867D01*
Y350201D01*
X214388Y348868D01*
X211722D01*
X210389Y350201D01*
Y351534D01*
X215721D01*
X207723Y348868D02*
Y354200D01*
Y351534D01*
X206390Y350201D01*
X205058Y348868D01*
X203725D01*
X199726Y346203D02*
Y354200D01*
X194394D01*
X190396Y348868D02*
X187730D01*
X186397Y350201D01*
Y354200D01*
X190396D01*
X191728Y352867D01*
X190396Y351534D01*
X186397D01*
X183731Y346203D02*
Y354200D01*
X179732D01*
X178400Y352867D01*
Y351534D01*
Y350201D01*
X179732Y348868D01*
X183731D01*
X330950Y40699D02*
X336282D01*
X362332Y45364D02*
X360999Y46697D01*
X358333D01*
X357000Y45364D01*
Y44032D01*
X358333Y42699D01*
X360999D01*
X362332Y41366D01*
Y40033D01*
X360999Y38700D01*
X358333D01*
X357000Y40033D01*
X364997Y46697D02*
Y38700D01*
X367663Y41366D01*
X370329Y38700D01*
Y46697D01*
X417800Y383100D02*
X409803D01*
X412468Y385766D01*
X409803Y388432D01*
X417800D01*
X409803Y396429D02*
Y391097D01*
X417800D01*
Y396429D01*
X413801Y391097D02*
Y393763D01*
X409803Y399095D02*
Y404426D01*
Y401761D01*
X417800D01*
X409803Y407092D02*
X416467D01*
X417800Y408425D01*
Y411091D01*
X416467Y412424D01*
X409803D01*
X417800Y423087D02*
X409803D01*
Y427086D01*
X411135Y428419D01*
X413801D01*
X415134Y427086D01*
Y423087D01*
X417800Y432417D02*
Y435083D01*
X416467Y436416D01*
X413801D01*
X412468Y435083D01*
Y432417D01*
X413801Y431084D01*
X416467D01*
X417800Y432417D01*
X412468Y439082D02*
X416467D01*
X417800Y440415D01*
X416467Y441748D01*
X417800Y443081D01*
X416467Y444414D01*
X412468D01*
X417800Y451078D02*
Y448412D01*
X416467Y447079D01*
X413801D01*
X412468Y448412D01*
Y451078D01*
X413801Y452411D01*
X415134D01*
Y447079D01*
X412468Y455077D02*
X417800D01*
X415134D01*
X413801Y456410D01*
X412468Y457743D01*
Y459075D01*
X409803Y463074D02*
X417800D01*
Y468406D01*
X412468Y472404D02*
Y475070D01*
X413801Y476403D01*
X417800D01*
Y472404D01*
X416467Y471071D01*
X415134Y472404D01*
Y476403D01*
X409803Y479069D02*
X417800D01*
Y483068D01*
X416467Y484401D01*
X415134D01*
X413801D01*
X412468Y483068D01*
Y479069D01*
X362332Y216864D02*
X360999Y218197D01*
X358333D01*
X357000Y216864D01*
Y215532D01*
X358333Y214199D01*
X360999D01*
X362332Y212866D01*
Y211533D01*
X360999Y210200D01*
X358333D01*
X357000Y211533D01*
X364997Y218197D02*
Y210200D01*
X367663Y212866D01*
X370329Y210200D01*
Y218197D01*
X304900Y41366D02*
X310232D01*
X307566Y44032D02*
Y38700D01*
X304900Y212866D02*
X310232D01*
X307566Y215532D02*
Y210200D01*
D20*
X14100Y194200D02*
Y195866D01*
Y195033D01*
X9102D01*
X9935Y194200D01*
X20435Y193500D02*
X19602Y194333D01*
Y195999D01*
X20435Y196832D01*
X21268D01*
X22101Y195999D01*
X22934Y196832D01*
X23767D01*
X24600Y195999D01*
Y194333D01*
X23767Y193500D01*
X22934D01*
X22101Y194333D01*
X21268Y193500D01*
X20435D01*
X22101Y194333D02*
Y195999D01*
X9402Y86900D02*
Y90232D01*
X10235D01*
X13567Y86900D01*
X14400D01*
X24400Y82900D02*
Y84566D01*
Y83733D01*
X19402D01*
X20235Y82900D01*
X24400Y89565D02*
X19402D01*
X21901Y87065D01*
Y90398D01*
X24400Y239900D02*
Y241566D01*
Y240733D01*
X19402D01*
X20235Y239900D01*
X24400Y246565D02*
X19402D01*
X21901Y244065D01*
Y247398D01*
X9402Y243900D02*
Y247232D01*
X10235D01*
X13567Y243900D01*
X14400D01*
X20435Y350500D02*
X19602Y351333D01*
Y352999D01*
X20435Y353832D01*
X21268D01*
X22101Y352999D01*
X22934Y353832D01*
X23767D01*
X24600Y352999D01*
Y351333D01*
X23767Y350500D01*
X22934D01*
X22101Y351333D01*
X21268Y350500D01*
X20435D01*
X22101Y351333D02*
Y352999D01*
X14100Y351200D02*
Y352866D01*
Y352033D01*
X9102D01*
X9935Y351200D01*
D21*
X36624Y120501D02*
X37149Y121026D01*
Y122075D01*
X36624Y122600D01*
X34525D01*
X34000Y122075D01*
Y121026D01*
X34525Y120501D01*
X34000Y117352D02*
Y119451D01*
X36099Y117352D01*
X36624D01*
X37149Y117877D01*
Y118927D01*
X36624Y119451D01*
X34000Y116303D02*
X37149D01*
Y114728D01*
X36624Y114204D01*
X35574D01*
X35050Y114728D01*
Y116303D01*
X31524Y120501D02*
X32049Y121026D01*
Y122075D01*
X31524Y122600D01*
X29425D01*
X28900Y122075D01*
Y121026D01*
X29425Y120501D01*
X28900Y117352D02*
Y119451D01*
X30999Y117352D01*
X31524D01*
X32049Y117877D01*
Y118927D01*
X31524Y119451D01*
X28900Y116303D02*
X32049D01*
X28900Y114204D01*
X32049D01*
X31524Y132201D02*
X32049Y132726D01*
Y133775D01*
X31524Y134300D01*
X29425D01*
X28900Y133775D01*
Y132726D01*
X29425Y132201D01*
X28900Y131151D02*
Y130102D01*
Y130627D01*
X32049D01*
X31524Y131151D01*
X28900Y128528D02*
X32049D01*
X28900Y126428D01*
X32049D01*
X73099Y182824D02*
X72574Y183349D01*
X71525D01*
X71000Y182824D01*
Y180725D01*
X71525Y180200D01*
X72574D01*
X73099Y180725D01*
X74149Y182299D02*
Y180725D01*
X74673Y180200D01*
X76248D01*
Y182299D01*
X77297D02*
Y180200D01*
Y181249D01*
X77822Y181774D01*
X78347Y182299D01*
X78872D01*
X80446D02*
Y180200D01*
Y181249D01*
X80971Y181774D01*
X81495Y182299D01*
X82020D01*
X83594Y180200D02*
X84644D01*
X84119D01*
Y183349D01*
X83594Y182824D01*
X74299Y171424D02*
X73774Y171949D01*
X72725D01*
X72200Y171424D01*
Y169325D01*
X72725Y168800D01*
X73774D01*
X74299Y169325D01*
Y170374D01*
X73250D01*
X75349Y168800D02*
Y171949D01*
X77448Y168800D01*
Y171949D01*
X78497D02*
Y168800D01*
X80072D01*
X80596Y169325D01*
Y171424D01*
X80072Y171949D01*
X78497D01*
X87799Y102924D02*
X87274Y103449D01*
X86225D01*
X85700Y102924D01*
Y100825D01*
X86225Y100300D01*
X87274D01*
X87799Y100825D01*
Y101874D01*
X86750D01*
X88849Y100300D02*
Y103449D01*
X90948Y100300D01*
Y103449D01*
X91997D02*
Y100300D01*
X93572D01*
X94096Y100825D01*
Y102924D01*
X93572Y103449D01*
X91997D01*
X15399Y187124D02*
X14874Y187649D01*
X13825D01*
X13300Y187124D01*
Y186599D01*
X13825Y186074D01*
X14874D01*
X15399Y185549D01*
Y185025D01*
X14874Y184500D01*
X13825D01*
X13300Y185025D01*
X18548Y187124D02*
X18023Y187649D01*
X16973D01*
X16449Y187124D01*
Y185025D01*
X16973Y184500D01*
X18023D01*
X18548Y185025D01*
X21696Y184500D02*
X19597D01*
X21696Y186599D01*
Y187124D01*
X21171Y187649D01*
X20122D01*
X19597Y187124D01*
X5149D02*
X4624Y187649D01*
X3574D01*
X3049Y187124D01*
Y186599D01*
X3574Y186074D01*
X4624D01*
X5149Y185549D01*
Y185025D01*
X4624Y184500D01*
X3574D01*
X3049Y185025D01*
X8297Y187124D02*
X7772Y187649D01*
X6723D01*
X6198Y187124D01*
Y185025D01*
X6723Y184500D01*
X7772D01*
X8297Y185025D01*
X9347Y184500D02*
X10396D01*
X9871D01*
Y187649D01*
X9347Y187124D01*
X15399Y180624D02*
X14874Y181149D01*
X13825D01*
X13300Y180624D01*
Y178525D01*
X13825Y178000D01*
X14874D01*
X15399Y178525D01*
Y179574D01*
X14349D01*
X16449Y178000D02*
Y181149D01*
X18548Y178000D01*
Y181149D01*
X19597D02*
Y178000D01*
X21171D01*
X21696Y178525D01*
Y180624D01*
X21171Y181149D01*
X19597D01*
X4099Y180524D02*
X3574Y181049D01*
X2525D01*
X2000Y180524D01*
Y178425D01*
X2525Y177900D01*
X3574D01*
X4099Y178425D01*
Y179474D01*
X3049D01*
X5149Y177900D02*
Y181049D01*
X7248Y177900D01*
Y181049D01*
X8297D02*
Y177900D01*
X9871D01*
X10396Y178425D01*
Y180524D01*
X9871Y181049D01*
X8297D01*
X29100Y163600D02*
X32249D01*
Y162026D01*
X31724Y161501D01*
X30674D01*
X30149Y162026D01*
Y163600D01*
X29100Y160451D02*
Y159402D01*
Y159927D01*
X32249D01*
X31724Y160451D01*
X32249Y157828D02*
X29100D01*
Y156253D01*
X29625Y155728D01*
X30149D01*
X30674Y156253D01*
Y157828D01*
Y156253D01*
X31199Y155728D01*
X31724D01*
X32249Y156253D01*
Y157828D01*
X34200Y163200D02*
X37349D01*
Y161626D01*
X36824Y161101D01*
X35774D01*
X35250Y161626D01*
Y163200D01*
X34200Y160051D02*
Y159002D01*
Y159527D01*
X37349D01*
X36824Y160051D01*
X37349Y157428D02*
Y155329D01*
Y156378D01*
X34200D01*
X29000Y152900D02*
X32149D01*
Y151326D01*
X31624Y150801D01*
X30574D01*
X30049Y151326D01*
Y152900D01*
X29000Y147652D02*
Y149751D01*
X31099Y147652D01*
X31624D01*
X32149Y148177D01*
Y149227D01*
X31624Y149751D01*
X32149Y146603D02*
X29000D01*
Y145028D01*
X29525Y144504D01*
X30049D01*
X30574Y145028D01*
Y146603D01*
Y145028D01*
X31099Y144504D01*
X31624D01*
X32149Y145028D01*
Y146603D01*
X34200Y152600D02*
X37349D01*
Y151026D01*
X36824Y150501D01*
X35774D01*
X35250Y151026D01*
Y152600D01*
X34200Y147352D02*
Y149451D01*
X36299Y147352D01*
X36824D01*
X37349Y147877D01*
Y148927D01*
X36824Y149451D01*
X37349Y146303D02*
Y144204D01*
Y145253D01*
X34200D01*
X5540Y106029D02*
Y106771D01*
X4797Y107513D01*
X4055Y107513D01*
X3684Y107142D01*
X3684Y106400D01*
X4426Y105658D01*
X4426Y104916D01*
X4055Y104545D01*
X3313Y104545D01*
X2571Y105287D01*
Y106029D01*
X7766Y104545D02*
X7024Y105287D01*
X6282Y105287D01*
X4797Y103803D01*
Y103060D01*
X5540Y102318D01*
X6282Y102318D01*
X7766Y103803D01*
Y104545D01*
X10363Y101947D02*
X8879Y103431D01*
X7766Y102318D01*
X8508Y101576D01*
X7766Y102318D01*
X6653Y101205D01*
X11106D02*
X12590Y99721D01*
X11848Y100463D01*
X9621Y98237D01*
X11106Y96752D02*
X11848Y96010D01*
X11477Y96381D01*
X13703Y98608D01*
X12961Y98608D01*
X36624Y132201D02*
X37149Y132726D01*
Y133775D01*
X36624Y134300D01*
X34525D01*
X34000Y133775D01*
Y132726D01*
X34525Y132201D01*
X34000Y131151D02*
Y130102D01*
Y130627D01*
X37149D01*
X36624Y131151D01*
X34000Y128528D02*
X37149D01*
Y126953D01*
X36624Y126428D01*
X35574D01*
X35050Y126953D01*
Y128528D01*
X17240Y106771D02*
Y107513D01*
X16498Y108255D01*
X15755Y108255D01*
X15384Y107884D01*
X15384Y107142D01*
X16126Y106400D01*
X16126Y105658D01*
X15755Y105287D01*
X15013Y105287D01*
X14271Y106029D01*
Y106771D01*
X19466Y105287D02*
X18724Y106029D01*
X17982Y106029D01*
X16498Y104545D01*
Y103803D01*
X17240Y103060D01*
X17982Y103060D01*
X19466Y104545D01*
Y105287D01*
X22063Y102689D02*
X20579Y104174D01*
X19466Y103060D01*
X20208Y102318D01*
X19466Y103060D01*
X18353Y101947D01*
X22806D02*
X24290Y100463D01*
X23548Y101205D01*
X21321Y98979D01*
X24290Y96010D02*
X22806Y97494D01*
X25774D01*
X26145Y97865D01*
Y98608D01*
X25403Y99350D01*
X24661Y99350D01*
X45640Y270842D02*
X44155Y272326D01*
X41929Y270100D01*
X43413Y268616D01*
X43042Y271213D02*
X43784Y270471D01*
X44155Y267874D02*
X46382Y270100D01*
X45640Y266389D01*
X47866Y268616D01*
Y264163D02*
X46382Y265647D01*
X49350D01*
X49721Y266018D01*
Y266760D01*
X48979Y267502D01*
X48237Y267503D01*
X33211Y270142D02*
X31726Y271626D01*
X29500Y269400D01*
X30984Y267916D01*
X30613Y270513D02*
X31355Y269771D01*
X31726Y267174D02*
X33953Y269400D01*
X33211Y265689D01*
X35437Y267916D01*
X33953Y264947D02*
X34695Y264205D01*
X34324Y264576D01*
X36550Y266803D01*
X35808Y266803D01*
X47866Y278832D02*
X46382Y280317D01*
X45268Y279204D01*
X46382Y278832D01*
X46753Y278461D01*
Y277719D01*
X46011Y276977D01*
X45268Y276977D01*
X44526Y277719D01*
Y278461D01*
X48608Y278090D02*
X47124Y276606D01*
Y275122D01*
X48608D01*
X50092Y276606D01*
X32840Y280977D02*
Y281719D01*
X32098Y282462D01*
X31355Y282462D01*
X29871Y280977D01*
Y280235D01*
X30613Y279493D01*
X31355Y279493D01*
X32098Y280235D01*
X31355Y280977D01*
X31726Y278380D02*
X33953Y280606D01*
X33211Y276895D01*
X35437Y279122D01*
X36179Y278380D02*
X33953Y276153D01*
X35066Y275040D01*
X35808Y275040D01*
X37292Y276524D01*
Y277267D01*
X36179Y278380D01*
X43784Y292389D02*
X44526Y292389D01*
X45268Y291647D01*
Y290904D01*
X44897Y290533D01*
X44155D01*
X43784Y290904D01*
X44155Y290533D01*
X44155Y289791D01*
X43784Y289420D01*
X43042Y289420D01*
X42300Y290162D01*
Y290904D01*
X46382Y290533D02*
X44897Y289049D01*
Y287565D01*
X46382D01*
X47866Y289049D01*
X48237Y287936D02*
X48979Y287936D01*
X49721Y287194D01*
Y286452D01*
X49350Y286081D01*
X48608D01*
X48237Y286452D01*
X48608Y286081D01*
X48608Y285338D01*
X48237Y284967D01*
X47495Y284967D01*
X46753Y285710D01*
Y286452D01*
X32840Y291441D02*
Y292183D01*
X32098Y292926D01*
X31355Y292926D01*
X29871Y291441D01*
Y290699D01*
X30613Y289957D01*
X31355Y289957D01*
X32098Y290699D01*
X31355Y291441D01*
X31726Y288844D02*
X33953Y291070D01*
X33211Y287360D01*
X35437Y289586D01*
X36179Y288844D02*
X33953Y286617D01*
X35066Y285504D01*
X35808Y285504D01*
X37292Y286988D01*
Y287731D01*
X36179Y288844D01*
X43784Y302605D02*
X44526Y302605D01*
X45268Y301863D01*
Y301121D01*
X44897Y300750D01*
X44155D01*
X43784Y301121D01*
X44155Y300750D01*
X44155Y300008D01*
X43784Y299637D01*
X43042Y299637D01*
X42300Y300379D01*
Y301121D01*
X46382Y300750D02*
X44897Y299266D01*
Y297781D01*
X46382D01*
X47866Y299266D01*
X48237Y298152D02*
X48979Y298152D01*
X49721Y297410D01*
Y296668D01*
X49350Y296297D01*
X48608D01*
X48237Y296668D01*
X48608Y296297D01*
X48608Y295555D01*
X48237Y295184D01*
X47495Y295184D01*
X46753Y295926D01*
Y296668D01*
X32840Y301905D02*
Y302647D01*
X32098Y303390D01*
X31355Y303390D01*
X29871Y301905D01*
Y301163D01*
X30613Y300421D01*
X31355Y300421D01*
X32098Y301163D01*
X31355Y301905D01*
X31726Y299308D02*
X33953Y301534D01*
X33211Y297824D01*
X35437Y300050D01*
X36179Y299308D02*
X33953Y297081D01*
X35066Y295968D01*
X35808Y295968D01*
X37292Y297452D01*
Y298195D01*
X36179Y299308D01*
X44526Y312822D02*
X43042Y311338D01*
Y309854D01*
X44526D01*
X46011Y311338D01*
X44526Y308369D02*
X45268Y307627D01*
X44897Y307998D01*
X46382Y309482D01*
X46011Y309854D01*
X46382Y306514D02*
X48608Y308740D01*
X49721Y307627D01*
Y306885D01*
X48979Y306143D01*
X48237Y306143D01*
X47124Y307256D01*
X31726Y313854D02*
X30242Y312369D01*
Y310885D01*
X31726D01*
X33211Y312369D01*
X31726Y309401D02*
X32469Y308659D01*
X32098Y309030D01*
X33582Y310514D01*
X33211Y310885D01*
X33582Y307545D02*
X35808Y309772D01*
X35066Y306061D01*
X37292Y308288D01*
X44155Y323410D02*
X42671Y321925D01*
Y320441D01*
X44155D01*
X45640Y321925D01*
X44526Y318586D02*
X45268Y317844D01*
X46011Y317844D01*
X46753Y318586D01*
Y319328D01*
X46011Y320070D01*
X45268Y320070D01*
X44526Y319328D01*
Y318586D01*
X46382Y316730D02*
X48608Y318957D01*
X49721Y317844D01*
Y317102D01*
X48979Y316359D01*
X48237Y316359D01*
X47124Y317473D01*
X31726Y324689D02*
X30242Y323204D01*
Y321720D01*
X31726D01*
X33211Y323204D01*
X32098Y319865D02*
X32840Y319123D01*
X33582Y319123D01*
X34324Y319865D01*
Y320607D01*
X33582Y321349D01*
X32840Y321349D01*
X32098Y320607D01*
Y319865D01*
X33953Y318009D02*
X36179Y320236D01*
X35437Y316525D01*
X37663Y318752D01*
X33211Y331442D02*
X31726Y332926D01*
X30613Y331813D01*
X31726Y331442D01*
X32098Y331071D01*
Y330329D01*
X31355Y329587D01*
X30613Y329587D01*
X29871Y330329D01*
Y331071D01*
X33953Y330700D02*
X32469Y329216D01*
Y327731D01*
X33953D01*
X35437Y329216D01*
X45268Y331771D02*
Y332513D01*
X44526Y333255D01*
X43784Y333255D01*
X42300Y331771D01*
Y331029D01*
X43042Y330287D01*
X43784Y330287D01*
X44526Y331029D01*
X43784Y331771D01*
X44155Y329174D02*
X46382Y331400D01*
X45640Y327689D01*
X47866Y329916D01*
X48608Y329174D02*
X46382Y326947D01*
X47495Y325834D01*
X48237Y325834D01*
X49721Y327318D01*
Y328060D01*
X48608Y329174D01*
X54400Y99249D02*
Y96625D01*
X54925Y96100D01*
X55974D01*
X56499Y96625D01*
Y99249D01*
X59648D02*
X57549D01*
Y97674D01*
X58598Y98199D01*
X59123D01*
X59648Y97674D01*
Y96625D01*
X59123Y96100D01*
X58073D01*
X57549Y96625D01*
X46100Y199049D02*
Y196425D01*
X46625Y195900D01*
X47674D01*
X48199Y196425D01*
Y199049D01*
X51348Y195900D02*
X49249D01*
X51348Y197999D01*
Y198524D01*
X50823Y199049D01*
X49773D01*
X49249Y198524D01*
X41500Y120600D02*
Y123749D01*
X43074D01*
X43599Y123224D01*
Y122174D01*
X43074Y121650D01*
X41500D01*
X42549D02*
X43599Y120600D01*
X44649Y123224D02*
X45173Y123749D01*
X46223D01*
X46748Y123224D01*
Y122699D01*
X46223Y122174D01*
X45698D01*
X46223D01*
X46748Y121650D01*
Y121125D01*
X46223Y120600D01*
X45173D01*
X44649Y121125D01*
X43699Y179924D02*
X43174Y180449D01*
X42125D01*
X41600Y179924D01*
Y177825D01*
X42125Y177300D01*
X43174D01*
X43699Y177825D01*
X46848Y180449D02*
X44749D01*
Y178874D01*
X45798Y179399D01*
X46323D01*
X46848Y178874D01*
Y177825D01*
X46323Y177300D01*
X45273D01*
X44749Y177825D01*
X38999Y98124D02*
X38474Y98649D01*
X37425D01*
X36900Y98124D01*
Y96025D01*
X37425Y95500D01*
X38474D01*
X38999Y96025D01*
X42148Y98649D02*
X41098Y98124D01*
X40049Y97074D01*
Y96025D01*
X40573Y95500D01*
X41623D01*
X42148Y96025D01*
Y96549D01*
X41623Y97074D01*
X40049D01*
X399Y353849D02*
X-650D01*
X-126D01*
Y351225D01*
X-650Y350700D01*
X-1175D01*
X-1700Y351225D01*
X3548Y350700D02*
X1449D01*
X3548Y352799D01*
Y353324D01*
X3023Y353849D01*
X1973D01*
X1449Y353324D01*
X87300Y518249D02*
Y515100D01*
X89399D01*
X90449D02*
X91498D01*
X90973D01*
Y518249D01*
X90449Y517724D01*
X45899Y441049D02*
X43800D01*
Y439474D01*
X44850D01*
X43800D01*
Y437900D01*
X46949Y441049D02*
Y437900D01*
X48523D01*
X49048Y438425D01*
Y438949D01*
X48523Y439474D01*
X46949D01*
X48523D01*
X49048Y439999D01*
Y440524D01*
X48523Y441049D01*
X46949D01*
X50097Y437900D02*
X51147D01*
X50622D01*
Y441049D01*
X50097Y440524D01*
X19600Y484249D02*
Y481625D01*
X20125Y481100D01*
X21174D01*
X21699Y481625D01*
Y484249D01*
X22749Y481100D02*
X23798D01*
X23273D01*
Y484249D01*
X22749Y483724D01*
X73000Y385249D02*
Y382625D01*
X73525Y382100D01*
X74574D01*
X75099Y382625D01*
Y385249D01*
X77723Y382100D02*
Y385249D01*
X76149Y383674D01*
X78248D01*
X72600Y343849D02*
Y341225D01*
X73125Y340700D01*
X74174D01*
X74699Y341225D01*
Y343849D01*
X75749Y343324D02*
X76273Y343849D01*
X77323D01*
X77848Y343324D01*
Y342799D01*
X77323Y342274D01*
X76798D01*
X77323D01*
X77848Y341750D01*
Y341225D01*
X77323Y340700D01*
X76273D01*
X75749Y341225D01*
X119100Y122449D02*
Y119825D01*
X119625Y119300D01*
X120674D01*
X121199Y119825D01*
Y122449D01*
X124348D02*
X123298Y121924D01*
X122249Y120874D01*
Y119825D01*
X122773Y119300D01*
X123823D01*
X124348Y119825D01*
Y120350D01*
X123823Y120874D01*
X122249D01*
X71400Y100449D02*
X73499D01*
X72449D01*
Y97300D01*
X74549D02*
Y100449D01*
X76123D01*
X76648Y99924D01*
Y98874D01*
X76123Y98349D01*
X74549D01*
X79272Y97300D02*
Y100449D01*
X77697Y98874D01*
X79796D01*
X57600Y120349D02*
X59699D01*
X58649D01*
Y117200D01*
X60749D02*
Y120349D01*
X62323D01*
X62848Y119824D01*
Y118774D01*
X62323Y118249D01*
X60749D01*
X65996Y117200D02*
X63897D01*
X65996Y119299D01*
Y119824D01*
X65472Y120349D01*
X64422D01*
X63897Y119824D01*
X60500Y176049D02*
X62599D01*
X61550D01*
Y172900D01*
X63649D02*
Y176049D01*
X65223D01*
X65748Y175524D01*
Y174474D01*
X65223Y173950D01*
X63649D01*
X66797Y175524D02*
X67322Y176049D01*
X68371D01*
X68896Y175524D01*
Y174999D01*
X68371Y174474D01*
X67847D01*
X68371D01*
X68896Y173950D01*
Y173425D01*
X68371Y172900D01*
X67322D01*
X66797Y173425D01*
X54851Y157300D02*
Y159399D01*
Y158350D01*
X58000D01*
Y160449D02*
X54851D01*
Y162023D01*
X55376Y162548D01*
X56426D01*
X56950Y162023D01*
Y160449D01*
X58000Y163597D02*
Y164647D01*
Y164122D01*
X54851D01*
X55376Y163597D01*
X83100Y398000D02*
Y401149D01*
X84674D01*
X85199Y400624D01*
Y399574D01*
X84674Y399049D01*
X83100D01*
X84149D02*
X85199Y398000D01*
X86249D02*
X87298D01*
X86773D01*
Y401149D01*
X86249Y400624D01*
X88872D02*
X89397Y401149D01*
X90447D01*
X90971Y400624D01*
Y398525D01*
X90447Y398000D01*
X89397D01*
X88872Y398525D01*
Y400624D01*
X83600Y356200D02*
Y359349D01*
X85174D01*
X85699Y358824D01*
Y357774D01*
X85174Y357249D01*
X83600D01*
X84649D02*
X85699Y356200D01*
X86749D02*
X87798D01*
X87273D01*
Y359349D01*
X86749Y358824D01*
X89372Y356200D02*
X90422D01*
X89897D01*
Y359349D01*
X89372Y358824D01*
X5800Y219900D02*
Y223049D01*
X7374D01*
X7899Y222524D01*
Y221474D01*
X7374Y220950D01*
X5800D01*
X6849D02*
X7899Y219900D01*
X8949D02*
X9998D01*
X9473D01*
Y223049D01*
X8949Y222524D01*
X67200Y122100D02*
X70349D01*
Y120526D01*
X69824Y120001D01*
X68774D01*
X68249Y120526D01*
Y122100D01*
Y121051D02*
X67200Y120001D01*
X70349Y116852D02*
X69824Y117902D01*
X68774Y118951D01*
X67725D01*
X67200Y118427D01*
Y117377D01*
X67725Y116852D01*
X68249D01*
X68774Y117377D01*
Y118951D01*
X88400Y119600D02*
Y122749D01*
X89974D01*
X90499Y122224D01*
Y121174D01*
X89974Y120650D01*
X88400D01*
X89450D02*
X90499Y119600D01*
X91549Y122224D02*
X92073Y122749D01*
X93123D01*
X93648Y122224D01*
Y121699D01*
X93123Y121174D01*
X93648Y120650D01*
Y120125D01*
X93123Y119600D01*
X92073D01*
X91549Y120125D01*
Y120650D01*
X92073Y121174D01*
X91549Y121699D01*
Y122224D01*
X92073Y121174D02*
X93123D01*
X37400Y138900D02*
Y142049D01*
X38974D01*
X39499Y141524D01*
Y140474D01*
X38974Y139950D01*
X37400D01*
X38449D02*
X39499Y138900D01*
X42648D02*
X40549D01*
X42648Y140999D01*
Y141524D01*
X42123Y142049D01*
X41073D01*
X40549Y141524D01*
X81100Y212500D02*
Y215649D01*
X82674D01*
X83199Y215124D01*
Y214074D01*
X82674Y213549D01*
X81100D01*
X82149D02*
X83199Y212500D01*
X84249Y213025D02*
X84773Y212500D01*
X85823D01*
X86348Y213025D01*
Y215124D01*
X85823Y215649D01*
X84773D01*
X84249Y215124D01*
Y214599D01*
X84773Y214074D01*
X86348D01*
X40900Y130100D02*
Y133249D01*
X42474D01*
X42999Y132724D01*
Y131674D01*
X42474Y131149D01*
X40900D01*
X41949D02*
X42999Y130100D01*
X45623D02*
Y133249D01*
X44049Y131674D01*
X46148D01*
X76600Y138900D02*
X79749D01*
Y137326D01*
X79224Y136801D01*
X78174D01*
X77649Y137326D01*
Y138900D01*
Y137850D02*
X76600Y136801D01*
X79749Y133652D02*
Y135751D01*
X78174D01*
X78699Y134702D01*
Y134177D01*
X78174Y133652D01*
X77125D01*
X76600Y134177D01*
Y135227D01*
X77125Y135751D01*
X48400Y140600D02*
Y143749D01*
X49974D01*
X50499Y143224D01*
Y142174D01*
X49974Y141649D01*
X48400D01*
X49450D02*
X50499Y140600D01*
X51549Y143749D02*
X53648D01*
Y143224D01*
X51549Y141125D01*
Y140600D01*
X360699Y224449D02*
X359649D01*
X360174D01*
Y221825D01*
X359649Y221300D01*
X359125D01*
X358600Y221825D01*
X361749Y221300D02*
X362798D01*
X362273D01*
Y224449D01*
X361749Y223924D01*
X366472Y221300D02*
X364372D01*
X366472Y223399D01*
Y223924D01*
X365947Y224449D01*
X364897D01*
X364372Y223924D01*
X333999Y224449D02*
X332949D01*
X333474D01*
Y221825D01*
X332949Y221300D01*
X332425D01*
X331900Y221825D01*
X335049D02*
X335573Y221300D01*
X336623D01*
X337148Y221825D01*
Y223924D01*
X336623Y224449D01*
X335573D01*
X335049Y223924D01*
Y223399D01*
X335573Y222874D01*
X337148D01*
X308499Y224349D02*
X307450D01*
X307974D01*
Y221725D01*
X307450Y221200D01*
X306925D01*
X306400Y221725D01*
X309549Y224349D02*
X311648D01*
Y223824D01*
X309549Y221725D01*
Y221200D01*
X361299Y72349D02*
X360249D01*
X360774D01*
Y69725D01*
X360249Y69200D01*
X359725D01*
X359200Y69725D01*
X362349Y69200D02*
X363398D01*
X362873D01*
Y72349D01*
X362349Y71824D01*
X364972Y69200D02*
X366022D01*
X365497D01*
Y72349D01*
X364972Y71824D01*
X335799Y72249D02*
X334750D01*
X335274D01*
Y69625D01*
X334750Y69100D01*
X334225D01*
X333700Y69625D01*
X336849Y71724D02*
X337373Y72249D01*
X338423D01*
X338948Y71724D01*
Y71199D01*
X338423Y70674D01*
X338948Y70149D01*
Y69625D01*
X338423Y69100D01*
X337373D01*
X336849Y69625D01*
Y70149D01*
X337373Y70674D01*
X336849Y71199D01*
Y71724D01*
X337373Y70674D02*
X338423D01*
X309099Y72649D02*
X308050D01*
X308574D01*
Y70025D01*
X308050Y69500D01*
X307525D01*
X307000Y70025D01*
X312248Y72649D02*
X311198Y72124D01*
X310149Y71074D01*
Y70025D01*
X310673Y69500D01*
X311723D01*
X312248Y70025D01*
Y70549D01*
X311723Y71074D01*
X310149D01*
X334299Y523249D02*
X333249D01*
X333774D01*
Y520625D01*
X333249Y520100D01*
X332725D01*
X332200Y520625D01*
X335349Y520100D02*
X336398D01*
X335873D01*
Y523249D01*
X335349Y522724D01*
X337972D02*
X338497Y523249D01*
X339547D01*
X340072Y522724D01*
Y520625D01*
X339547Y520100D01*
X338497D01*
X337972Y520625D01*
Y522724D01*
X181899Y523249D02*
X180850D01*
X181374D01*
Y520625D01*
X180850Y520100D01*
X180325D01*
X179800Y520625D01*
X185048Y523249D02*
X182949D01*
Y521674D01*
X183998Y522199D01*
X184523D01*
X185048Y521674D01*
Y520625D01*
X184523Y520100D01*
X183473D01*
X182949Y520625D01*
X1099Y198149D02*
X49D01*
X574D01*
Y195525D01*
X49Y195000D01*
X-475D01*
X-1000Y195525D01*
X2149Y195000D02*
X3198D01*
X2673D01*
Y198149D01*
X2149Y197624D01*
X13699Y41449D02*
X12650D01*
X13174D01*
Y38825D01*
X12650Y38300D01*
X12125D01*
X11600Y38825D01*
X14749Y40924D02*
X15273Y41449D01*
X16323D01*
X16848Y40924D01*
Y40399D01*
X16323Y39874D01*
X15798D01*
X16323D01*
X16848Y39349D01*
Y38825D01*
X16323Y38300D01*
X15273D01*
X14749Y38825D01*
X14099Y213149D02*
X13049D01*
X13574D01*
Y210525D01*
X13049Y210000D01*
X12525D01*
X12000Y210525D01*
X16723Y210000D02*
Y213149D01*
X15149Y211574D01*
X17248D01*
X94800Y493449D02*
Y490300D01*
X96374D01*
X96899Y490825D01*
Y492924D01*
X96374Y493449D01*
X94800D01*
X97949Y490300D02*
X98998D01*
X98473D01*
Y493449D01*
X97949Y492924D01*
X45999Y449024D02*
X45474Y449549D01*
X44425D01*
X43900Y449024D01*
Y446925D01*
X44425Y446400D01*
X45474D01*
X45999Y446925D01*
X48623Y446400D02*
Y449549D01*
X47049Y447974D01*
X49148D01*
X55499Y460224D02*
X54974Y460749D01*
X53925D01*
X53400Y460224D01*
Y458125D01*
X53925Y457600D01*
X54974D01*
X55499Y458125D01*
X56549Y460224D02*
X57073Y460749D01*
X58123D01*
X58648Y460224D01*
Y459699D01*
X58123Y459174D01*
X57598D01*
X58123D01*
X58648Y458649D01*
Y458125D01*
X58123Y457600D01*
X57073D01*
X56549Y458125D01*
X99699Y486924D02*
X99174Y487449D01*
X98125D01*
X97600Y486924D01*
Y484825D01*
X98125Y484300D01*
X99174D01*
X99699Y484825D01*
X100749Y484300D02*
X101798D01*
X101273D01*
Y487449D01*
X100749Y486924D01*
X104947Y484300D02*
Y487449D01*
X103372Y485874D01*
X105472D01*
X102099Y405324D02*
X101574Y405849D01*
X100525D01*
X100000Y405324D01*
Y403225D01*
X100525Y402700D01*
X101574D01*
X102099Y403225D01*
X103149Y402700D02*
X104198D01*
X103673D01*
Y405849D01*
X103149Y405324D01*
X105772D02*
X106297Y405849D01*
X107347D01*
X107871Y405324D01*
Y404799D01*
X107347Y404274D01*
X106822D01*
X107347D01*
X107871Y403750D01*
Y403225D01*
X107347Y402700D01*
X106297D01*
X105772Y403225D01*
X16499Y404224D02*
X15974Y404749D01*
X14925D01*
X14400Y404224D01*
Y402125D01*
X14925Y401600D01*
X15974D01*
X16499Y402125D01*
X17549Y401600D02*
X18598D01*
X18073D01*
Y404749D01*
X17549Y404224D01*
X101899Y364324D02*
X101374Y364849D01*
X100325D01*
X99800Y364324D01*
Y362225D01*
X100325Y361700D01*
X101374D01*
X101899Y362225D01*
X102949Y361700D02*
X103998D01*
X103473D01*
Y364849D01*
X102949Y364324D01*
X107671Y361700D02*
X105572D01*
X107671Y363799D01*
Y364324D01*
X107147Y364849D01*
X106097D01*
X105572Y364324D01*
X16399Y361524D02*
X15874Y362049D01*
X14825D01*
X14300Y361524D01*
Y359425D01*
X14825Y358900D01*
X15874D01*
X16399Y359425D01*
X19548Y358900D02*
X17449D01*
X19548Y360999D01*
Y361524D01*
X19023Y362049D01*
X17973D01*
X17449Y361524D01*
X65499Y153524D02*
X64974Y154049D01*
X63925D01*
X63400Y153524D01*
Y151425D01*
X63925Y150900D01*
X64974D01*
X65499Y151425D01*
X66549Y150900D02*
X67598D01*
X67073D01*
Y154049D01*
X66549Y153524D01*
X69172D02*
X69697Y154049D01*
X70747D01*
X71272Y153524D01*
Y151425D01*
X70747Y150900D01*
X69697D01*
X69172Y151425D01*
Y153524D01*
X94499Y117624D02*
X93974Y118149D01*
X92925D01*
X92400Y117624D01*
Y115525D01*
X92925Y115000D01*
X93974D01*
X94499Y115525D01*
X95549Y115000D02*
X96598D01*
X96073D01*
Y118149D01*
X95549Y117624D01*
X98172Y115000D02*
X99222D01*
X98697D01*
Y118149D01*
X98172Y117624D01*
X47499Y148224D02*
X46974Y148749D01*
X45925D01*
X45400Y148224D01*
Y146125D01*
X45925Y145600D01*
X46974D01*
X47499Y146125D01*
X48549D02*
X49073Y145600D01*
X50123D01*
X50648Y146125D01*
Y148224D01*
X50123Y148749D01*
X49073D01*
X48549Y148224D01*
Y147699D01*
X49073Y147174D01*
X50648D01*
X41199Y136924D02*
X40674Y137449D01*
X39625D01*
X39100Y136924D01*
Y134825D01*
X39625Y134300D01*
X40674D01*
X41199Y134825D01*
X42249Y137449D02*
X44348D01*
Y136924D01*
X42249Y134825D01*
Y134300D01*
X45099Y153024D02*
X44574Y153549D01*
X43525D01*
X43000Y153024D01*
Y150925D01*
X43525Y150400D01*
X44574D01*
X45099Y150925D01*
X46149Y153024D02*
X46673Y153549D01*
X47723D01*
X48248Y153024D01*
Y152499D01*
X47723Y151974D01*
X48248Y151450D01*
Y150925D01*
X47723Y150400D01*
X46673D01*
X46149Y150925D01*
Y151450D01*
X46673Y151974D01*
X46149Y152499D01*
Y153024D01*
X46673Y151974D02*
X47723D01*
X113699Y522724D02*
X113174Y523249D01*
X112125D01*
X111600Y522724D01*
Y520625D01*
X112125Y520100D01*
X113174D01*
X113699Y520625D01*
X114749Y520100D02*
X115798D01*
X115273D01*
Y523249D01*
X114749Y522724D01*
X119472Y523249D02*
X117372D01*
Y521674D01*
X118422Y522199D01*
X118947D01*
X119472Y521674D01*
Y520625D01*
X118947Y520100D01*
X117897D01*
X117372Y520625D01*
X270699Y522724D02*
X270174Y523249D01*
X269125D01*
X268600Y522724D01*
Y520625D01*
X269125Y520100D01*
X270174D01*
X270699Y520625D01*
X271749Y520100D02*
X272798D01*
X272273D01*
Y523249D01*
X271749Y522724D01*
X276471Y523249D02*
X275422Y522724D01*
X274372Y521674D01*
Y520625D01*
X274897Y520100D01*
X275947D01*
X276471Y520625D01*
Y521149D01*
X275947Y521674D01*
X274372D01*
M02*
